%TF.GenerationSoftware,KiCad,Pcbnew,(5.1.6)-1*%
%TF.CreationDate,2021-08-11T16:30:17+02:00*%
%TF.ProjectId,pick&place_test,7069636b-2670-46c6-9163-655f74657374,rev?*%
%TF.SameCoordinates,Original*%
%TF.FileFunction,Copper,L1,Top*%
%TF.FilePolarity,Positive*%
%FSLAX46Y46*%
G04 Gerber Fmt 4.6, Leading zero omitted, Abs format (unit mm)*
G04 Created by KiCad (PCBNEW (5.1.6)-1) date 2021-08-11 16:30:17*
%MOMM*%
%LPD*%
G01*
G04 APERTURE LIST*
G04 APERTURE END LIST*
%TO.P,R1,2*%
%TO.N,Net-(R1-Pad2)*%
%TA.AperFunction,SMDPad,CuDef*%
G36*
G01*
X76710040Y-48341060D02*
X76710040Y-47996060D01*
G75*
G02*
X76857540Y-47848560I147500J0D01*
G01*
X77152540Y-47848560D01*
G75*
G02*
X77300040Y-47996060I0J-147500D01*
G01*
X77300040Y-48341060D01*
G75*
G02*
X77152540Y-48488560I-147500J0D01*
G01*
X76857540Y-48488560D01*
G75*
G02*
X76710040Y-48341060I0J147500D01*
G01*
G37*
%TD.AperFunction*%
%TO.P,R1,1*%
%TO.N,Net-(R1-Pad1)*%
%TA.AperFunction,SMDPad,CuDef*%
G36*
G01*
X75740040Y-48341060D02*
X75740040Y-47996060D01*
G75*
G02*
X75887540Y-47848560I147500J0D01*
G01*
X76182540Y-47848560D01*
G75*
G02*
X76330040Y-47996060I0J-147500D01*
G01*
X76330040Y-48341060D01*
G75*
G02*
X76182540Y-48488560I-147500J0D01*
G01*
X75887540Y-48488560D01*
G75*
G02*
X75740040Y-48341060I0J147500D01*
G01*
G37*
%TD.AperFunction*%
%TD*%
%TO.P,R2,2*%
%TO.N,Net-(R2-Pad2)*%
%TA.AperFunction,SMDPad,CuDef*%
G36*
G01*
X74040461Y-55512361D02*
X74040461Y-55167361D01*
G75*
G02*
X74187961Y-55019861I147500J0D01*
G01*
X74482961Y-55019861D01*
G75*
G02*
X74630461Y-55167361I0J-147500D01*
G01*
X74630461Y-55512361D01*
G75*
G02*
X74482961Y-55659861I-147500J0D01*
G01*
X74187961Y-55659861D01*
G75*
G02*
X74040461Y-55512361I0J147500D01*
G01*
G37*
%TD.AperFunction*%
%TO.P,R2,1*%
%TO.N,Net-(R1-Pad2)*%
%TA.AperFunction,SMDPad,CuDef*%
G36*
G01*
X73070461Y-55512361D02*
X73070461Y-55167361D01*
G75*
G02*
X73217961Y-55019861I147500J0D01*
G01*
X73512961Y-55019861D01*
G75*
G02*
X73660461Y-55167361I0J-147500D01*
G01*
X73660461Y-55512361D01*
G75*
G02*
X73512961Y-55659861I-147500J0D01*
G01*
X73217961Y-55659861D01*
G75*
G02*
X73070461Y-55512361I0J147500D01*
G01*
G37*
%TD.AperFunction*%
%TD*%
%TO.P,R3,2*%
%TO.N,Net-(R1-Pad1)*%
%TA.AperFunction,SMDPad,CuDef*%
G36*
G01*
X72638420Y-70337460D02*
X72638420Y-69992460D01*
G75*
G02*
X72785920Y-69844960I147500J0D01*
G01*
X73080920Y-69844960D01*
G75*
G02*
X73228420Y-69992460I0J-147500D01*
G01*
X73228420Y-70337460D01*
G75*
G02*
X73080920Y-70484960I-147500J0D01*
G01*
X72785920Y-70484960D01*
G75*
G02*
X72638420Y-70337460I0J147500D01*
G01*
G37*
%TD.AperFunction*%
%TO.P,R3,1*%
%TO.N,Net-(R3-Pad1)*%
%TA.AperFunction,SMDPad,CuDef*%
G36*
G01*
X71668420Y-70337460D02*
X71668420Y-69992460D01*
G75*
G02*
X71815920Y-69844960I147500J0D01*
G01*
X72110920Y-69844960D01*
G75*
G02*
X72258420Y-69992460I0J-147500D01*
G01*
X72258420Y-70337460D01*
G75*
G02*
X72110920Y-70484960I-147500J0D01*
G01*
X71815920Y-70484960D01*
G75*
G02*
X71668420Y-70337460I0J147500D01*
G01*
G37*
%TD.AperFunction*%
%TD*%
%TO.P,R4,1*%
%TO.N,Net-(R2-Pad2)*%
%TA.AperFunction,SMDPad,CuDef*%
G36*
G01*
X72537100Y-63065440D02*
X72537100Y-62720440D01*
G75*
G02*
X72684600Y-62572940I147500J0D01*
G01*
X72979600Y-62572940D01*
G75*
G02*
X73127100Y-62720440I0J-147500D01*
G01*
X73127100Y-63065440D01*
G75*
G02*
X72979600Y-63212940I-147500J0D01*
G01*
X72684600Y-63212940D01*
G75*
G02*
X72537100Y-63065440I0J147500D01*
G01*
G37*
%TD.AperFunction*%
%TO.P,R4,2*%
%TO.N,Net-(R4-Pad2)*%
%TA.AperFunction,SMDPad,CuDef*%
G36*
G01*
X73507100Y-63065440D02*
X73507100Y-62720440D01*
G75*
G02*
X73654600Y-62572940I147500J0D01*
G01*
X73949600Y-62572940D01*
G75*
G02*
X74097100Y-62720440I0J-147500D01*
G01*
X74097100Y-63065440D01*
G75*
G02*
X73949600Y-63212940I-147500J0D01*
G01*
X73654600Y-63212940D01*
G75*
G02*
X73507100Y-63065440I0J147500D01*
G01*
G37*
%TD.AperFunction*%
%TD*%
%TO.P,R5,1*%
%TO.N,Net-(R5-Pad1)*%
%TA.AperFunction,SMDPad,CuDef*%
G36*
G01*
X72171340Y-77970160D02*
X72171340Y-77625160D01*
G75*
G02*
X72318840Y-77477660I147500J0D01*
G01*
X72613840Y-77477660D01*
G75*
G02*
X72761340Y-77625160I0J-147500D01*
G01*
X72761340Y-77970160D01*
G75*
G02*
X72613840Y-78117660I-147500J0D01*
G01*
X72318840Y-78117660D01*
G75*
G02*
X72171340Y-77970160I0J147500D01*
G01*
G37*
%TD.AperFunction*%
%TO.P,R5,2*%
%TO.N,Net-(R3-Pad1)*%
%TA.AperFunction,SMDPad,CuDef*%
G36*
G01*
X73141340Y-77970160D02*
X73141340Y-77625160D01*
G75*
G02*
X73288840Y-77477660I147500J0D01*
G01*
X73583840Y-77477660D01*
G75*
G02*
X73731340Y-77625160I0J-147500D01*
G01*
X73731340Y-77970160D01*
G75*
G02*
X73583840Y-78117660I-147500J0D01*
G01*
X73288840Y-78117660D01*
G75*
G02*
X73141340Y-77970160I0J147500D01*
G01*
G37*
%TD.AperFunction*%
%TD*%
%TO.P,R6,2*%
%TO.N,Net-(R6-Pad2)*%
%TA.AperFunction,SMDPad,CuDef*%
G36*
G01*
X74187820Y-83807080D02*
X74187820Y-83462080D01*
G75*
G02*
X74335320Y-83314580I147500J0D01*
G01*
X74630320Y-83314580D01*
G75*
G02*
X74777820Y-83462080I0J-147500D01*
G01*
X74777820Y-83807080D01*
G75*
G02*
X74630320Y-83954580I-147500J0D01*
G01*
X74335320Y-83954580D01*
G75*
G02*
X74187820Y-83807080I0J147500D01*
G01*
G37*
%TD.AperFunction*%
%TO.P,R6,1*%
%TO.N,Net-(R4-Pad2)*%
%TA.AperFunction,SMDPad,CuDef*%
G36*
G01*
X73217820Y-83807080D02*
X73217820Y-83462080D01*
G75*
G02*
X73365320Y-83314580I147500J0D01*
G01*
X73660320Y-83314580D01*
G75*
G02*
X73807820Y-83462080I0J-147500D01*
G01*
X73807820Y-83807080D01*
G75*
G02*
X73660320Y-83954580I-147500J0D01*
G01*
X73365320Y-83954580D01*
G75*
G02*
X73217820Y-83807080I0J147500D01*
G01*
G37*
%TD.AperFunction*%
%TD*%
%TO.P,R7,2*%
%TO.N,Net-(R5-Pad1)*%
%TA.AperFunction,SMDPad,CuDef*%
G36*
G01*
X85473040Y-99100420D02*
X85473040Y-98755420D01*
G75*
G02*
X85620540Y-98607920I147500J0D01*
G01*
X85915540Y-98607920D01*
G75*
G02*
X86063040Y-98755420I0J-147500D01*
G01*
X86063040Y-99100420D01*
G75*
G02*
X85915540Y-99247920I-147500J0D01*
G01*
X85620540Y-99247920D01*
G75*
G02*
X85473040Y-99100420I0J147500D01*
G01*
G37*
%TD.AperFunction*%
%TO.P,R7,1*%
%TO.N,Net-(R7-Pad1)*%
%TA.AperFunction,SMDPad,CuDef*%
G36*
G01*
X84503040Y-99100420D02*
X84503040Y-98755420D01*
G75*
G02*
X84650540Y-98607920I147500J0D01*
G01*
X84945540Y-98607920D01*
G75*
G02*
X85093040Y-98755420I0J-147500D01*
G01*
X85093040Y-99100420D01*
G75*
G02*
X84945540Y-99247920I-147500J0D01*
G01*
X84650540Y-99247920D01*
G75*
G02*
X84503040Y-99100420I0J147500D01*
G01*
G37*
%TD.AperFunction*%
%TD*%
%TO.P,R8,1*%
%TO.N,Net-(R6-Pad2)*%
%TA.AperFunction,SMDPad,CuDef*%
G36*
G01*
X80286640Y-95064360D02*
X80286640Y-94719360D01*
G75*
G02*
X80434140Y-94571860I147500J0D01*
G01*
X80729140Y-94571860D01*
G75*
G02*
X80876640Y-94719360I0J-147500D01*
G01*
X80876640Y-95064360D01*
G75*
G02*
X80729140Y-95211860I-147500J0D01*
G01*
X80434140Y-95211860D01*
G75*
G02*
X80286640Y-95064360I0J147500D01*
G01*
G37*
%TD.AperFunction*%
%TO.P,R8,2*%
%TO.N,Net-(R10-Pad1)*%
%TA.AperFunction,SMDPad,CuDef*%
G36*
G01*
X81256640Y-95064360D02*
X81256640Y-94719360D01*
G75*
G02*
X81404140Y-94571860I147500J0D01*
G01*
X81699140Y-94571860D01*
G75*
G02*
X81846640Y-94719360I0J-147500D01*
G01*
X81846640Y-95064360D01*
G75*
G02*
X81699140Y-95211860I-147500J0D01*
G01*
X81404140Y-95211860D01*
G75*
G02*
X81256640Y-95064360I0J147500D01*
G01*
G37*
%TD.AperFunction*%
%TD*%
%TO.P,R9,1*%
%TO.N,Net-(R11-Pad2)*%
%TA.AperFunction,SMDPad,CuDef*%
G36*
G01*
X110492320Y-112323660D02*
X110492320Y-111978660D01*
G75*
G02*
X110639820Y-111831160I147500J0D01*
G01*
X110934820Y-111831160D01*
G75*
G02*
X111082320Y-111978660I0J-147500D01*
G01*
X111082320Y-112323660D01*
G75*
G02*
X110934820Y-112471160I-147500J0D01*
G01*
X110639820Y-112471160D01*
G75*
G02*
X110492320Y-112323660I0J147500D01*
G01*
G37*
%TD.AperFunction*%
%TO.P,R9,2*%
%TO.N,Net-(R7-Pad1)*%
%TA.AperFunction,SMDPad,CuDef*%
G36*
G01*
X111462320Y-112323660D02*
X111462320Y-111978660D01*
G75*
G02*
X111609820Y-111831160I147500J0D01*
G01*
X111904820Y-111831160D01*
G75*
G02*
X112052320Y-111978660I0J-147500D01*
G01*
X112052320Y-112323660D01*
G75*
G02*
X111904820Y-112471160I-147500J0D01*
G01*
X111609820Y-112471160D01*
G75*
G02*
X111462320Y-112323660I0J147500D01*
G01*
G37*
%TD.AperFunction*%
%TD*%
%TO.P,R10,2*%
%TO.N,Net-(R10-Pad2)*%
%TA.AperFunction,SMDPad,CuDef*%
G36*
G01*
X78114660Y-90342500D02*
X78114660Y-89997500D01*
G75*
G02*
X78262160Y-89850000I147500J0D01*
G01*
X78557160Y-89850000D01*
G75*
G02*
X78704660Y-89997500I0J-147500D01*
G01*
X78704660Y-90342500D01*
G75*
G02*
X78557160Y-90490000I-147500J0D01*
G01*
X78262160Y-90490000D01*
G75*
G02*
X78114660Y-90342500I0J147500D01*
G01*
G37*
%TD.AperFunction*%
%TO.P,R10,1*%
%TO.N,Net-(R10-Pad1)*%
%TA.AperFunction,SMDPad,CuDef*%
G36*
G01*
X77144660Y-90342500D02*
X77144660Y-89997500D01*
G75*
G02*
X77292160Y-89850000I147500J0D01*
G01*
X77587160Y-89850000D01*
G75*
G02*
X77734660Y-89997500I0J-147500D01*
G01*
X77734660Y-90342500D01*
G75*
G02*
X77587160Y-90490000I-147500J0D01*
G01*
X77292160Y-90490000D01*
G75*
G02*
X77144660Y-90342500I0J147500D01*
G01*
G37*
%TD.AperFunction*%
%TD*%
%TO.P,R11,2*%
%TO.N,Net-(R11-Pad2)*%
%TA.AperFunction,SMDPad,CuDef*%
G36*
G01*
X90453980Y-103791800D02*
X90453980Y-103446800D01*
G75*
G02*
X90601480Y-103299300I147500J0D01*
G01*
X90896480Y-103299300D01*
G75*
G02*
X91043980Y-103446800I0J-147500D01*
G01*
X91043980Y-103791800D01*
G75*
G02*
X90896480Y-103939300I-147500J0D01*
G01*
X90601480Y-103939300D01*
G75*
G02*
X90453980Y-103791800I0J147500D01*
G01*
G37*
%TD.AperFunction*%
%TO.P,R11,1*%
%TO.N,Net-(R11-Pad1)*%
%TA.AperFunction,SMDPad,CuDef*%
G36*
G01*
X89483980Y-103791800D02*
X89483980Y-103446800D01*
G75*
G02*
X89631480Y-103299300I147500J0D01*
G01*
X89926480Y-103299300D01*
G75*
G02*
X90073980Y-103446800I0J-147500D01*
G01*
X90073980Y-103791800D01*
G75*
G02*
X89926480Y-103939300I-147500J0D01*
G01*
X89631480Y-103939300D01*
G75*
G02*
X89483980Y-103791800I0J147500D01*
G01*
G37*
%TD.AperFunction*%
%TD*%
%TO.P,R12,1*%
%TO.N,Net-(R10-Pad2)*%
%TA.AperFunction,SMDPad,CuDef*%
G36*
G01*
X102148420Y-110309440D02*
X102148420Y-109964440D01*
G75*
G02*
X102295920Y-109816940I147500J0D01*
G01*
X102590920Y-109816940D01*
G75*
G02*
X102738420Y-109964440I0J-147500D01*
G01*
X102738420Y-110309440D01*
G75*
G02*
X102590920Y-110456940I-147500J0D01*
G01*
X102295920Y-110456940D01*
G75*
G02*
X102148420Y-110309440I0J147500D01*
G01*
G37*
%TD.AperFunction*%
%TO.P,R12,2*%
%TO.N,Net-(R12-Pad2)*%
%TA.AperFunction,SMDPad,CuDef*%
G36*
G01*
X103118420Y-110309440D02*
X103118420Y-109964440D01*
G75*
G02*
X103265920Y-109816940I147500J0D01*
G01*
X103560920Y-109816940D01*
G75*
G02*
X103708420Y-109964440I0J-147500D01*
G01*
X103708420Y-110309440D01*
G75*
G02*
X103560920Y-110456940I-147500J0D01*
G01*
X103265920Y-110456940D01*
G75*
G02*
X103118420Y-110309440I0J147500D01*
G01*
G37*
%TD.AperFunction*%
%TD*%
%TO.P,R13,1*%
%TO.N,Net-(R13-Pad1)*%
%TA.AperFunction,SMDPad,CuDef*%
G36*
G01*
X119222300Y-112707200D02*
X119222300Y-112362200D01*
G75*
G02*
X119369800Y-112214700I147500J0D01*
G01*
X119664800Y-112214700D01*
G75*
G02*
X119812300Y-112362200I0J-147500D01*
G01*
X119812300Y-112707200D01*
G75*
G02*
X119664800Y-112854700I-147500J0D01*
G01*
X119369800Y-112854700D01*
G75*
G02*
X119222300Y-112707200I0J147500D01*
G01*
G37*
%TD.AperFunction*%
%TO.P,R13,2*%
%TO.N,Net-(R11-Pad1)*%
%TA.AperFunction,SMDPad,CuDef*%
G36*
G01*
X120192300Y-112707200D02*
X120192300Y-112362200D01*
G75*
G02*
X120339800Y-112214700I147500J0D01*
G01*
X120634800Y-112214700D01*
G75*
G02*
X120782300Y-112362200I0J-147500D01*
G01*
X120782300Y-112707200D01*
G75*
G02*
X120634800Y-112854700I-147500J0D01*
G01*
X120339800Y-112854700D01*
G75*
G02*
X120192300Y-112707200I0J147500D01*
G01*
G37*
%TD.AperFunction*%
%TD*%
%TO.P,R14,2*%
%TO.N,Net-(R14-Pad2)*%
%TA.AperFunction,SMDPad,CuDef*%
G36*
G01*
X144804900Y-104772240D02*
X144804900Y-104427240D01*
G75*
G02*
X144952400Y-104279740I147500J0D01*
G01*
X145247400Y-104279740D01*
G75*
G02*
X145394900Y-104427240I0J-147500D01*
G01*
X145394900Y-104772240D01*
G75*
G02*
X145247400Y-104919740I-147500J0D01*
G01*
X144952400Y-104919740D01*
G75*
G02*
X144804900Y-104772240I0J147500D01*
G01*
G37*
%TD.AperFunction*%
%TO.P,R14,1*%
%TO.N,Net-(R12-Pad2)*%
%TA.AperFunction,SMDPad,CuDef*%
G36*
G01*
X143834900Y-104772240D02*
X143834900Y-104427240D01*
G75*
G02*
X143982400Y-104279740I147500J0D01*
G01*
X144277400Y-104279740D01*
G75*
G02*
X144424900Y-104427240I0J-147500D01*
G01*
X144424900Y-104772240D01*
G75*
G02*
X144277400Y-104919740I-147500J0D01*
G01*
X143982400Y-104919740D01*
G75*
G02*
X143834900Y-104772240I0J147500D01*
G01*
G37*
%TD.AperFunction*%
%TD*%
%TO.P,R15,2*%
%TO.N,Net-(R13-Pad1)*%
%TA.AperFunction,SMDPad,CuDef*%
G36*
G01*
X96001340Y-107439240D02*
X96001340Y-107094240D01*
G75*
G02*
X96148840Y-106946740I147500J0D01*
G01*
X96443840Y-106946740D01*
G75*
G02*
X96591340Y-107094240I0J-147500D01*
G01*
X96591340Y-107439240D01*
G75*
G02*
X96443840Y-107586740I-147500J0D01*
G01*
X96148840Y-107586740D01*
G75*
G02*
X96001340Y-107439240I0J147500D01*
G01*
G37*
%TD.AperFunction*%
%TO.P,R15,1*%
%TO.N,Net-(R15-Pad1)*%
%TA.AperFunction,SMDPad,CuDef*%
G36*
G01*
X95031340Y-107439240D02*
X95031340Y-107094240D01*
G75*
G02*
X95178840Y-106946740I147500J0D01*
G01*
X95473840Y-106946740D01*
G75*
G02*
X95621340Y-107094240I0J-147500D01*
G01*
X95621340Y-107439240D01*
G75*
G02*
X95473840Y-107586740I-147500J0D01*
G01*
X95178840Y-107586740D01*
G75*
G02*
X95031340Y-107439240I0J147500D01*
G01*
G37*
%TD.AperFunction*%
%TD*%
%TO.P,R16,1*%
%TO.N,Net-(R14-Pad2)*%
%TA.AperFunction,SMDPad,CuDef*%
G36*
G01*
X106018521Y-66346821D02*
X106018521Y-66001821D01*
G75*
G02*
X106166021Y-65854321I147500J0D01*
G01*
X106461021Y-65854321D01*
G75*
G02*
X106608521Y-66001821I0J-147500D01*
G01*
X106608521Y-66346821D01*
G75*
G02*
X106461021Y-66494321I-147500J0D01*
G01*
X106166021Y-66494321D01*
G75*
G02*
X106018521Y-66346821I0J147500D01*
G01*
G37*
%TD.AperFunction*%
%TO.P,R16,2*%
%TO.N,Net-(R16-Pad2)*%
%TA.AperFunction,SMDPad,CuDef*%
G36*
G01*
X106988521Y-66346821D02*
X106988521Y-66001821D01*
G75*
G02*
X107136021Y-65854321I147500J0D01*
G01*
X107431021Y-65854321D01*
G75*
G02*
X107578521Y-66001821I0J-147500D01*
G01*
X107578521Y-66346821D01*
G75*
G02*
X107431021Y-66494321I-147500J0D01*
G01*
X107136021Y-66494321D01*
G75*
G02*
X106988521Y-66346821I0J147500D01*
G01*
G37*
%TD.AperFunction*%
%TD*%
%TO.P,R17,1*%
%TO.N,Net-(R17-Pad1)*%
%TA.AperFunction,SMDPad,CuDef*%
G36*
G01*
X126702600Y-112227140D02*
X126702600Y-111882140D01*
G75*
G02*
X126850100Y-111734640I147500J0D01*
G01*
X127145100Y-111734640D01*
G75*
G02*
X127292600Y-111882140I0J-147500D01*
G01*
X127292600Y-112227140D01*
G75*
G02*
X127145100Y-112374640I-147500J0D01*
G01*
X126850100Y-112374640D01*
G75*
G02*
X126702600Y-112227140I0J147500D01*
G01*
G37*
%TD.AperFunction*%
%TO.P,R17,2*%
%TO.N,Net-(R15-Pad1)*%
%TA.AperFunction,SMDPad,CuDef*%
G36*
G01*
X127672600Y-112227140D02*
X127672600Y-111882140D01*
G75*
G02*
X127820100Y-111734640I147500J0D01*
G01*
X128115100Y-111734640D01*
G75*
G02*
X128262600Y-111882140I0J-147500D01*
G01*
X128262600Y-112227140D01*
G75*
G02*
X128115100Y-112374640I-147500J0D01*
G01*
X127820100Y-112374640D01*
G75*
G02*
X127672600Y-112227140I0J147500D01*
G01*
G37*
%TD.AperFunction*%
%TD*%
%TO.P,R18,1*%
%TO.N,Net-(R16-Pad2)*%
%TA.AperFunction,SMDPad,CuDef*%
G36*
G01*
X139364500Y-107241120D02*
X139364500Y-106896120D01*
G75*
G02*
X139512000Y-106748620I147500J0D01*
G01*
X139807000Y-106748620D01*
G75*
G02*
X139954500Y-106896120I0J-147500D01*
G01*
X139954500Y-107241120D01*
G75*
G02*
X139807000Y-107388620I-147500J0D01*
G01*
X139512000Y-107388620D01*
G75*
G02*
X139364500Y-107241120I0J147500D01*
G01*
G37*
%TD.AperFunction*%
%TO.P,R18,2*%
%TO.N,Net-(R18-Pad2)*%
%TA.AperFunction,SMDPad,CuDef*%
G36*
G01*
X140334500Y-107241120D02*
X140334500Y-106896120D01*
G75*
G02*
X140482000Y-106748620I147500J0D01*
G01*
X140777000Y-106748620D01*
G75*
G02*
X140924500Y-106896120I0J-147500D01*
G01*
X140924500Y-107241120D01*
G75*
G02*
X140777000Y-107388620I-147500J0D01*
G01*
X140482000Y-107388620D01*
G75*
G02*
X140334500Y-107241120I0J147500D01*
G01*
G37*
%TD.AperFunction*%
%TD*%
%TO.P,R19,1*%
%TO.N,Net-(R19-Pad1)*%
%TA.AperFunction,SMDPad,CuDef*%
G36*
G01*
X148490720Y-100515200D02*
X148490720Y-100170200D01*
G75*
G02*
X148638220Y-100022700I147500J0D01*
G01*
X148933220Y-100022700D01*
G75*
G02*
X149080720Y-100170200I0J-147500D01*
G01*
X149080720Y-100515200D01*
G75*
G02*
X148933220Y-100662700I-147500J0D01*
G01*
X148638220Y-100662700D01*
G75*
G02*
X148490720Y-100515200I0J147500D01*
G01*
G37*
%TD.AperFunction*%
%TO.P,R19,2*%
%TO.N,Net-(R17-Pad1)*%
%TA.AperFunction,SMDPad,CuDef*%
G36*
G01*
X149460720Y-100515200D02*
X149460720Y-100170200D01*
G75*
G02*
X149608220Y-100022700I147500J0D01*
G01*
X149903220Y-100022700D01*
G75*
G02*
X150050720Y-100170200I0J-147500D01*
G01*
X150050720Y-100515200D01*
G75*
G02*
X149903220Y-100662700I-147500J0D01*
G01*
X149608220Y-100662700D01*
G75*
G02*
X149460720Y-100515200I0J147500D01*
G01*
G37*
%TD.AperFunction*%
%TD*%
%TO.P,R20,1*%
%TO.N,Net-(R18-Pad2)*%
%TA.AperFunction,SMDPad,CuDef*%
G36*
G01*
X91350880Y-70342540D02*
X91350880Y-69997540D01*
G75*
G02*
X91498380Y-69850040I147500J0D01*
G01*
X91793380Y-69850040D01*
G75*
G02*
X91940880Y-69997540I0J-147500D01*
G01*
X91940880Y-70342540D01*
G75*
G02*
X91793380Y-70490040I-147500J0D01*
G01*
X91498380Y-70490040D01*
G75*
G02*
X91350880Y-70342540I0J147500D01*
G01*
G37*
%TD.AperFunction*%
%TO.P,R20,2*%
%TO.N,Net-(R20-Pad2)*%
%TA.AperFunction,SMDPad,CuDef*%
G36*
G01*
X92320880Y-70342540D02*
X92320880Y-69997540D01*
G75*
G02*
X92468380Y-69850040I147500J0D01*
G01*
X92763380Y-69850040D01*
G75*
G02*
X92910880Y-69997540I0J-147500D01*
G01*
X92910880Y-70342540D01*
G75*
G02*
X92763380Y-70490040I-147500J0D01*
G01*
X92468380Y-70490040D01*
G75*
G02*
X92320880Y-70342540I0J147500D01*
G01*
G37*
%TD.AperFunction*%
%TD*%
%TO.P,R21,1*%
%TO.N,Net-(R21-Pad1)*%
%TA.AperFunction,SMDPad,CuDef*%
G36*
G01*
X132933360Y-110118940D02*
X132933360Y-109773940D01*
G75*
G02*
X133080860Y-109626440I147500J0D01*
G01*
X133375860Y-109626440D01*
G75*
G02*
X133523360Y-109773940I0J-147500D01*
G01*
X133523360Y-110118940D01*
G75*
G02*
X133375860Y-110266440I-147500J0D01*
G01*
X133080860Y-110266440D01*
G75*
G02*
X132933360Y-110118940I0J147500D01*
G01*
G37*
%TD.AperFunction*%
%TO.P,R21,2*%
%TO.N,Net-(R19-Pad1)*%
%TA.AperFunction,SMDPad,CuDef*%
G36*
G01*
X133903360Y-110118940D02*
X133903360Y-109773940D01*
G75*
G02*
X134050860Y-109626440I147500J0D01*
G01*
X134345860Y-109626440D01*
G75*
G02*
X134493360Y-109773940I0J-147500D01*
G01*
X134493360Y-110118940D01*
G75*
G02*
X134345860Y-110266440I-147500J0D01*
G01*
X134050860Y-110266440D01*
G75*
G02*
X133903360Y-110118940I0J147500D01*
G01*
G37*
%TD.AperFunction*%
%TD*%
%TO.P,R22,2*%
%TO.N,Net-(R22-Pad2)*%
%TA.AperFunction,SMDPad,CuDef*%
G36*
G01*
X99351600Y-82783460D02*
X99351600Y-82438460D01*
G75*
G02*
X99499100Y-82290960I147500J0D01*
G01*
X99794100Y-82290960D01*
G75*
G02*
X99941600Y-82438460I0J-147500D01*
G01*
X99941600Y-82783460D01*
G75*
G02*
X99794100Y-82930960I-147500J0D01*
G01*
X99499100Y-82930960D01*
G75*
G02*
X99351600Y-82783460I0J147500D01*
G01*
G37*
%TD.AperFunction*%
%TO.P,R22,1*%
%TO.N,Net-(R20-Pad2)*%
%TA.AperFunction,SMDPad,CuDef*%
G36*
G01*
X98381600Y-82783460D02*
X98381600Y-82438460D01*
G75*
G02*
X98529100Y-82290960I147500J0D01*
G01*
X98824100Y-82290960D01*
G75*
G02*
X98971600Y-82438460I0J-147500D01*
G01*
X98971600Y-82783460D01*
G75*
G02*
X98824100Y-82930960I-147500J0D01*
G01*
X98529100Y-82930960D01*
G75*
G02*
X98381600Y-82783460I0J147500D01*
G01*
G37*
%TD.AperFunction*%
%TD*%
%TO.P,R23,2*%
%TO.N,Net-(R21-Pad1)*%
%TA.AperFunction,SMDPad,CuDef*%
G36*
G01*
X157225500Y-92092560D02*
X157225500Y-91747560D01*
G75*
G02*
X157373000Y-91600060I147500J0D01*
G01*
X157668000Y-91600060D01*
G75*
G02*
X157815500Y-91747560I0J-147500D01*
G01*
X157815500Y-92092560D01*
G75*
G02*
X157668000Y-92240060I-147500J0D01*
G01*
X157373000Y-92240060D01*
G75*
G02*
X157225500Y-92092560I0J147500D01*
G01*
G37*
%TD.AperFunction*%
%TO.P,R23,1*%
%TO.N,Net-(R23-Pad1)*%
%TA.AperFunction,SMDPad,CuDef*%
G36*
G01*
X156255500Y-92092560D02*
X156255500Y-91747560D01*
G75*
G02*
X156403000Y-91600060I147500J0D01*
G01*
X156698000Y-91600060D01*
G75*
G02*
X156845500Y-91747560I0J-147500D01*
G01*
X156845500Y-92092560D01*
G75*
G02*
X156698000Y-92240060I-147500J0D01*
G01*
X156403000Y-92240060D01*
G75*
G02*
X156255500Y-92092560I0J147500D01*
G01*
G37*
%TD.AperFunction*%
%TD*%
%TO.P,R24,1*%
%TO.N,Net-(R22-Pad2)*%
%TA.AperFunction,SMDPad,CuDef*%
G36*
G01*
X152745220Y-96512160D02*
X152745220Y-96167160D01*
G75*
G02*
X152892720Y-96019660I147500J0D01*
G01*
X153187720Y-96019660D01*
G75*
G02*
X153335220Y-96167160I0J-147500D01*
G01*
X153335220Y-96512160D01*
G75*
G02*
X153187720Y-96659660I-147500J0D01*
G01*
X152892720Y-96659660D01*
G75*
G02*
X152745220Y-96512160I0J147500D01*
G01*
G37*
%TD.AperFunction*%
%TO.P,R24,2*%
%TO.N,Net-(R24-Pad2)*%
%TA.AperFunction,SMDPad,CuDef*%
G36*
G01*
X153715220Y-96512160D02*
X153715220Y-96167160D01*
G75*
G02*
X153862720Y-96019660I147500J0D01*
G01*
X154157720Y-96019660D01*
G75*
G02*
X154305220Y-96167160I0J-147500D01*
G01*
X154305220Y-96512160D01*
G75*
G02*
X154157720Y-96659660I-147500J0D01*
G01*
X153862720Y-96659660D01*
G75*
G02*
X153715220Y-96512160I0J147500D01*
G01*
G37*
%TD.AperFunction*%
%TD*%
%TO.P,R25,2*%
%TO.N,Net-(R25-Pad2)*%
%TA.AperFunction,SMDPad,CuDef*%
G36*
G01*
X100695260Y-44678380D02*
X100695260Y-44333380D01*
G75*
G02*
X100842760Y-44185880I147500J0D01*
G01*
X101137760Y-44185880D01*
G75*
G02*
X101285260Y-44333380I0J-147500D01*
G01*
X101285260Y-44678380D01*
G75*
G02*
X101137760Y-44825880I-147500J0D01*
G01*
X100842760Y-44825880D01*
G75*
G02*
X100695260Y-44678380I0J147500D01*
G01*
G37*
%TD.AperFunction*%
%TO.P,R25,1*%
%TO.N,Net-(R23-Pad1)*%
%TA.AperFunction,SMDPad,CuDef*%
G36*
G01*
X99725260Y-44678380D02*
X99725260Y-44333380D01*
G75*
G02*
X99872760Y-44185880I147500J0D01*
G01*
X100167760Y-44185880D01*
G75*
G02*
X100315260Y-44333380I0J-147500D01*
G01*
X100315260Y-44678380D01*
G75*
G02*
X100167760Y-44825880I-147500J0D01*
G01*
X99872760Y-44825880D01*
G75*
G02*
X99725260Y-44678380I0J147500D01*
G01*
G37*
%TD.AperFunction*%
%TD*%
%TO.P,R26,1*%
%TO.N,Net-(R25-Pad2)*%
%TA.AperFunction,SMDPad,CuDef*%
G36*
G01*
X136349520Y-47505400D02*
X136349520Y-47160400D01*
G75*
G02*
X136497020Y-47012900I147500J0D01*
G01*
X136792020Y-47012900D01*
G75*
G02*
X136939520Y-47160400I0J-147500D01*
G01*
X136939520Y-47505400D01*
G75*
G02*
X136792020Y-47652900I-147500J0D01*
G01*
X136497020Y-47652900D01*
G75*
G02*
X136349520Y-47505400I0J147500D01*
G01*
G37*
%TD.AperFunction*%
%TO.P,R26,2*%
%TO.N,Net-(R26-Pad2)*%
%TA.AperFunction,SMDPad,CuDef*%
G36*
G01*
X137319520Y-47505400D02*
X137319520Y-47160400D01*
G75*
G02*
X137467020Y-47012900I147500J0D01*
G01*
X137762020Y-47012900D01*
G75*
G02*
X137909520Y-47160400I0J-147500D01*
G01*
X137909520Y-47505400D01*
G75*
G02*
X137762020Y-47652900I-147500J0D01*
G01*
X137467020Y-47652900D01*
G75*
G02*
X137319520Y-47505400I0J147500D01*
G01*
G37*
%TD.AperFunction*%
%TD*%
%TO.P,R27,2*%
%TO.N,Net-(R27-Pad2)*%
%TA.AperFunction,SMDPad,CuDef*%
G36*
G01*
X162254700Y-80924180D02*
X162254700Y-80579180D01*
G75*
G02*
X162402200Y-80431680I147500J0D01*
G01*
X162697200Y-80431680D01*
G75*
G02*
X162844700Y-80579180I0J-147500D01*
G01*
X162844700Y-80924180D01*
G75*
G02*
X162697200Y-81071680I-147500J0D01*
G01*
X162402200Y-81071680D01*
G75*
G02*
X162254700Y-80924180I0J147500D01*
G01*
G37*
%TD.AperFunction*%
%TO.P,R27,1*%
%TO.N,Net-(R26-Pad2)*%
%TA.AperFunction,SMDPad,CuDef*%
G36*
G01*
X161284700Y-80924180D02*
X161284700Y-80579180D01*
G75*
G02*
X161432200Y-80431680I147500J0D01*
G01*
X161727200Y-80431680D01*
G75*
G02*
X161874700Y-80579180I0J-147500D01*
G01*
X161874700Y-80924180D01*
G75*
G02*
X161727200Y-81071680I-147500J0D01*
G01*
X161432200Y-81071680D01*
G75*
G02*
X161284700Y-80924180I0J147500D01*
G01*
G37*
%TD.AperFunction*%
%TD*%
%TO.P,R28,1*%
%TO.N,Net-(R27-Pad2)*%
%TA.AperFunction,SMDPad,CuDef*%
G36*
G01*
X127241080Y-62570140D02*
X127241080Y-62225140D01*
G75*
G02*
X127388580Y-62077640I147500J0D01*
G01*
X127683580Y-62077640D01*
G75*
G02*
X127831080Y-62225140I0J-147500D01*
G01*
X127831080Y-62570140D01*
G75*
G02*
X127683580Y-62717640I-147500J0D01*
G01*
X127388580Y-62717640D01*
G75*
G02*
X127241080Y-62570140I0J147500D01*
G01*
G37*
%TD.AperFunction*%
%TO.P,R28,2*%
%TO.N,Net-(R28-Pad2)*%
%TA.AperFunction,SMDPad,CuDef*%
G36*
G01*
X128211080Y-62570140D02*
X128211080Y-62225140D01*
G75*
G02*
X128358580Y-62077640I147500J0D01*
G01*
X128653580Y-62077640D01*
G75*
G02*
X128801080Y-62225140I0J-147500D01*
G01*
X128801080Y-62570140D01*
G75*
G02*
X128653580Y-62717640I-147500J0D01*
G01*
X128358580Y-62717640D01*
G75*
G02*
X128211080Y-62570140I0J147500D01*
G01*
G37*
%TD.AperFunction*%
%TD*%
%TO.P,R29,2*%
%TO.N,Net-(R29-Pad2)*%
%TA.AperFunction,SMDPad,CuDef*%
G36*
G01*
X163928560Y-75656220D02*
X163928560Y-75311220D01*
G75*
G02*
X164076060Y-75163720I147500J0D01*
G01*
X164371060Y-75163720D01*
G75*
G02*
X164518560Y-75311220I0J-147500D01*
G01*
X164518560Y-75656220D01*
G75*
G02*
X164371060Y-75803720I-147500J0D01*
G01*
X164076060Y-75803720D01*
G75*
G02*
X163928560Y-75656220I0J147500D01*
G01*
G37*
%TD.AperFunction*%
%TO.P,R29,1*%
%TO.N,Net-(R28-Pad2)*%
%TA.AperFunction,SMDPad,CuDef*%
G36*
G01*
X162958560Y-75656220D02*
X162958560Y-75311220D01*
G75*
G02*
X163106060Y-75163720I147500J0D01*
G01*
X163401060Y-75163720D01*
G75*
G02*
X163548560Y-75311220I0J-147500D01*
G01*
X163548560Y-75656220D01*
G75*
G02*
X163401060Y-75803720I-147500J0D01*
G01*
X163106060Y-75803720D01*
G75*
G02*
X162958560Y-75656220I0J147500D01*
G01*
G37*
%TD.AperFunction*%
%TD*%
%TO.P,R30,2*%
%TO.N,Net-(R30-Pad2)*%
%TA.AperFunction,SMDPad,CuDef*%
G36*
G01*
X84078580Y-85585080D02*
X84078580Y-85240080D01*
G75*
G02*
X84226080Y-85092580I147500J0D01*
G01*
X84521080Y-85092580D01*
G75*
G02*
X84668580Y-85240080I0J-147500D01*
G01*
X84668580Y-85585080D01*
G75*
G02*
X84521080Y-85732580I-147500J0D01*
G01*
X84226080Y-85732580D01*
G75*
G02*
X84078580Y-85585080I0J147500D01*
G01*
G37*
%TD.AperFunction*%
%TO.P,R30,1*%
%TO.N,Net-(R29-Pad2)*%
%TA.AperFunction,SMDPad,CuDef*%
G36*
G01*
X83108580Y-85585080D02*
X83108580Y-85240080D01*
G75*
G02*
X83256080Y-85092580I147500J0D01*
G01*
X83551080Y-85092580D01*
G75*
G02*
X83698580Y-85240080I0J-147500D01*
G01*
X83698580Y-85585080D01*
G75*
G02*
X83551080Y-85732580I-147500J0D01*
G01*
X83256080Y-85732580D01*
G75*
G02*
X83108580Y-85585080I0J147500D01*
G01*
G37*
%TD.AperFunction*%
%TD*%
%TO.P,R31,2*%
%TO.N,Net-(R31-Pad2)*%
%TA.AperFunction,SMDPad,CuDef*%
G36*
G01*
X130253240Y-71764940D02*
X130253240Y-71419940D01*
G75*
G02*
X130400740Y-71272440I147500J0D01*
G01*
X130695740Y-71272440D01*
G75*
G02*
X130843240Y-71419940I0J-147500D01*
G01*
X130843240Y-71764940D01*
G75*
G02*
X130695740Y-71912440I-147500J0D01*
G01*
X130400740Y-71912440D01*
G75*
G02*
X130253240Y-71764940I0J147500D01*
G01*
G37*
%TD.AperFunction*%
%TO.P,R31,1*%
%TO.N,Net-(R30-Pad2)*%
%TA.AperFunction,SMDPad,CuDef*%
G36*
G01*
X129283240Y-71764940D02*
X129283240Y-71419940D01*
G75*
G02*
X129430740Y-71272440I147500J0D01*
G01*
X129725740Y-71272440D01*
G75*
G02*
X129873240Y-71419940I0J-147500D01*
G01*
X129873240Y-71764940D01*
G75*
G02*
X129725740Y-71912440I-147500J0D01*
G01*
X129430740Y-71912440D01*
G75*
G02*
X129283240Y-71764940I0J147500D01*
G01*
G37*
%TD.AperFunction*%
%TD*%
%TO.P,R32,1*%
%TO.N,Net-(R31-Pad2)*%
%TA.AperFunction,SMDPad,CuDef*%
G36*
G01*
X79575440Y-62229780D02*
X79575440Y-61884780D01*
G75*
G02*
X79722940Y-61737280I147500J0D01*
G01*
X80017940Y-61737280D01*
G75*
G02*
X80165440Y-61884780I0J-147500D01*
G01*
X80165440Y-62229780D01*
G75*
G02*
X80017940Y-62377280I-147500J0D01*
G01*
X79722940Y-62377280D01*
G75*
G02*
X79575440Y-62229780I0J147500D01*
G01*
G37*
%TD.AperFunction*%
%TO.P,R32,2*%
%TO.N,Net-(R32-Pad2)*%
%TA.AperFunction,SMDPad,CuDef*%
G36*
G01*
X80545440Y-62229780D02*
X80545440Y-61884780D01*
G75*
G02*
X80692940Y-61737280I147500J0D01*
G01*
X80987940Y-61737280D01*
G75*
G02*
X81135440Y-61884780I0J-147500D01*
G01*
X81135440Y-62229780D01*
G75*
G02*
X80987940Y-62377280I-147500J0D01*
G01*
X80692940Y-62377280D01*
G75*
G02*
X80545440Y-62229780I0J147500D01*
G01*
G37*
%TD.AperFunction*%
%TD*%
%TO.P,R33,2*%
%TO.N,Net-(R33-Pad2)*%
%TA.AperFunction,SMDPad,CuDef*%
G36*
G01*
X159902660Y-86877940D02*
X159902660Y-86532940D01*
G75*
G02*
X160050160Y-86385440I147500J0D01*
G01*
X160345160Y-86385440D01*
G75*
G02*
X160492660Y-86532940I0J-147500D01*
G01*
X160492660Y-86877940D01*
G75*
G02*
X160345160Y-87025440I-147500J0D01*
G01*
X160050160Y-87025440D01*
G75*
G02*
X159902660Y-86877940I0J147500D01*
G01*
G37*
%TD.AperFunction*%
%TO.P,R33,1*%
%TO.N,Net-(R32-Pad2)*%
%TA.AperFunction,SMDPad,CuDef*%
G36*
G01*
X158932660Y-86877940D02*
X158932660Y-86532940D01*
G75*
G02*
X159080160Y-86385440I147500J0D01*
G01*
X159375160Y-86385440D01*
G75*
G02*
X159522660Y-86532940I0J-147500D01*
G01*
X159522660Y-86877940D01*
G75*
G02*
X159375160Y-87025440I-147500J0D01*
G01*
X159080160Y-87025440D01*
G75*
G02*
X158932660Y-86877940I0J147500D01*
G01*
G37*
%TD.AperFunction*%
%TD*%
%TO.P,R34,1*%
%TO.N,Net-(R33-Pad2)*%
%TA.AperFunction,SMDPad,CuDef*%
G36*
G01*
X80901320Y-54868860D02*
X80901320Y-54523860D01*
G75*
G02*
X81048820Y-54376360I147500J0D01*
G01*
X81343820Y-54376360D01*
G75*
G02*
X81491320Y-54523860I0J-147500D01*
G01*
X81491320Y-54868860D01*
G75*
G02*
X81343820Y-55016360I-147500J0D01*
G01*
X81048820Y-55016360D01*
G75*
G02*
X80901320Y-54868860I0J147500D01*
G01*
G37*
%TD.AperFunction*%
%TO.P,R34,2*%
%TO.N,Net-(R34-Pad2)*%
%TA.AperFunction,SMDPad,CuDef*%
G36*
G01*
X81871320Y-54868860D02*
X81871320Y-54523860D01*
G75*
G02*
X82018820Y-54376360I147500J0D01*
G01*
X82313820Y-54376360D01*
G75*
G02*
X82461320Y-54523860I0J-147500D01*
G01*
X82461320Y-54868860D01*
G75*
G02*
X82313820Y-55016360I-147500J0D01*
G01*
X82018820Y-55016360D01*
G75*
G02*
X81871320Y-54868860I0J147500D01*
G01*
G37*
%TD.AperFunction*%
%TD*%
%TO.P,R35,2*%
%TO.N,Net-(R35-Pad2)*%
%TA.AperFunction,SMDPad,CuDef*%
G36*
G01*
X80055220Y-70080920D02*
X80055220Y-69735920D01*
G75*
G02*
X80202720Y-69588420I147500J0D01*
G01*
X80497720Y-69588420D01*
G75*
G02*
X80645220Y-69735920I0J-147500D01*
G01*
X80645220Y-70080920D01*
G75*
G02*
X80497720Y-70228420I-147500J0D01*
G01*
X80202720Y-70228420D01*
G75*
G02*
X80055220Y-70080920I0J147500D01*
G01*
G37*
%TD.AperFunction*%
%TO.P,R35,1*%
%TO.N,Net-(R34-Pad2)*%
%TA.AperFunction,SMDPad,CuDef*%
G36*
G01*
X79085220Y-70080920D02*
X79085220Y-69735920D01*
G75*
G02*
X79232720Y-69588420I147500J0D01*
G01*
X79527720Y-69588420D01*
G75*
G02*
X79675220Y-69735920I0J-147500D01*
G01*
X79675220Y-70080920D01*
G75*
G02*
X79527720Y-70228420I-147500J0D01*
G01*
X79232720Y-70228420D01*
G75*
G02*
X79085220Y-70080920I0J147500D01*
G01*
G37*
%TD.AperFunction*%
%TD*%
%TO.P,R36,1*%
%TO.N,Net-(R35-Pad2)*%
%TA.AperFunction,SMDPad,CuDef*%
G36*
G01*
X80360300Y-77833000D02*
X80360300Y-77488000D01*
G75*
G02*
X80507800Y-77340500I147500J0D01*
G01*
X80802800Y-77340500D01*
G75*
G02*
X80950300Y-77488000I0J-147500D01*
G01*
X80950300Y-77833000D01*
G75*
G02*
X80802800Y-77980500I-147500J0D01*
G01*
X80507800Y-77980500D01*
G75*
G02*
X80360300Y-77833000I0J147500D01*
G01*
G37*
%TD.AperFunction*%
%TO.P,R36,2*%
%TO.N,Net-(R24-Pad2)*%
%TA.AperFunction,SMDPad,CuDef*%
G36*
G01*
X81330300Y-77833000D02*
X81330300Y-77488000D01*
G75*
G02*
X81477800Y-77340500I147500J0D01*
G01*
X81772800Y-77340500D01*
G75*
G02*
X81920300Y-77488000I0J-147500D01*
G01*
X81920300Y-77833000D01*
G75*
G02*
X81772800Y-77980500I-147500J0D01*
G01*
X81477800Y-77980500D01*
G75*
G02*
X81330300Y-77833000I0J147500D01*
G01*
G37*
%TD.AperFunction*%
%TD*%
%TO.P,R37,2*%
%TO.N,Net-(R37-Pad2)*%
%TA.AperFunction,SMDPad,CuDef*%
G36*
G01*
X121909340Y-25562340D02*
X121909340Y-25217340D01*
G75*
G02*
X122056840Y-25069840I147500J0D01*
G01*
X122351840Y-25069840D01*
G75*
G02*
X122499340Y-25217340I0J-147500D01*
G01*
X122499340Y-25562340D01*
G75*
G02*
X122351840Y-25709840I-147500J0D01*
G01*
X122056840Y-25709840D01*
G75*
G02*
X121909340Y-25562340I0J147500D01*
G01*
G37*
%TD.AperFunction*%
%TO.P,R37,1*%
%TO.N,Net-(R37-Pad1)*%
%TA.AperFunction,SMDPad,CuDef*%
G36*
G01*
X120939340Y-25562340D02*
X120939340Y-25217340D01*
G75*
G02*
X121086840Y-25069840I147500J0D01*
G01*
X121381840Y-25069840D01*
G75*
G02*
X121529340Y-25217340I0J-147500D01*
G01*
X121529340Y-25562340D01*
G75*
G02*
X121381840Y-25709840I-147500J0D01*
G01*
X121086840Y-25709840D01*
G75*
G02*
X120939340Y-25562340I0J147500D01*
G01*
G37*
%TD.AperFunction*%
%TD*%
%TO.P,R38,2*%
%TO.N,Net-(R38-Pad2)*%
%TA.AperFunction,SMDPad,CuDef*%
G36*
G01*
X85165700Y-32582900D02*
X85165700Y-32237900D01*
G75*
G02*
X85313200Y-32090400I147500J0D01*
G01*
X85608200Y-32090400D01*
G75*
G02*
X85755700Y-32237900I0J-147500D01*
G01*
X85755700Y-32582900D01*
G75*
G02*
X85608200Y-32730400I-147500J0D01*
G01*
X85313200Y-32730400D01*
G75*
G02*
X85165700Y-32582900I0J147500D01*
G01*
G37*
%TD.AperFunction*%
%TO.P,R38,1*%
%TO.N,Net-(R37-Pad2)*%
%TA.AperFunction,SMDPad,CuDef*%
G36*
G01*
X84195700Y-32582900D02*
X84195700Y-32237900D01*
G75*
G02*
X84343200Y-32090400I147500J0D01*
G01*
X84638200Y-32090400D01*
G75*
G02*
X84785700Y-32237900I0J-147500D01*
G01*
X84785700Y-32582900D01*
G75*
G02*
X84638200Y-32730400I-147500J0D01*
G01*
X84343200Y-32730400D01*
G75*
G02*
X84195700Y-32582900I0J147500D01*
G01*
G37*
%TD.AperFunction*%
%TD*%
%TO.P,R39,2*%
%TO.N,Net-(R37-Pad1)*%
%TA.AperFunction,SMDPad,CuDef*%
G36*
G01*
X92971120Y-27269220D02*
X92971120Y-26924220D01*
G75*
G02*
X93118620Y-26776720I147500J0D01*
G01*
X93413620Y-26776720D01*
G75*
G02*
X93561120Y-26924220I0J-147500D01*
G01*
X93561120Y-27269220D01*
G75*
G02*
X93413620Y-27416720I-147500J0D01*
G01*
X93118620Y-27416720D01*
G75*
G02*
X92971120Y-27269220I0J147500D01*
G01*
G37*
%TD.AperFunction*%
%TO.P,R39,1*%
%TO.N,Net-(R39-Pad1)*%
%TA.AperFunction,SMDPad,CuDef*%
G36*
G01*
X92001120Y-27269220D02*
X92001120Y-26924220D01*
G75*
G02*
X92148620Y-26776720I147500J0D01*
G01*
X92443620Y-26776720D01*
G75*
G02*
X92591120Y-26924220I0J-147500D01*
G01*
X92591120Y-27269220D01*
G75*
G02*
X92443620Y-27416720I-147500J0D01*
G01*
X92148620Y-27416720D01*
G75*
G02*
X92001120Y-27269220I0J147500D01*
G01*
G37*
%TD.AperFunction*%
%TD*%
%TO.P,R40,1*%
%TO.N,Net-(R38-Pad2)*%
%TA.AperFunction,SMDPad,CuDef*%
G36*
G01*
X81122300Y-37203160D02*
X81122300Y-36858160D01*
G75*
G02*
X81269800Y-36710660I147500J0D01*
G01*
X81564800Y-36710660D01*
G75*
G02*
X81712300Y-36858160I0J-147500D01*
G01*
X81712300Y-37203160D01*
G75*
G02*
X81564800Y-37350660I-147500J0D01*
G01*
X81269800Y-37350660D01*
G75*
G02*
X81122300Y-37203160I0J147500D01*
G01*
G37*
%TD.AperFunction*%
%TO.P,R40,2*%
%TO.N,Net-(R40-Pad2)*%
%TA.AperFunction,SMDPad,CuDef*%
G36*
G01*
X82092300Y-37203160D02*
X82092300Y-36858160D01*
G75*
G02*
X82239800Y-36710660I147500J0D01*
G01*
X82534800Y-36710660D01*
G75*
G02*
X82682300Y-36858160I0J-147500D01*
G01*
X82682300Y-37203160D01*
G75*
G02*
X82534800Y-37350660I-147500J0D01*
G01*
X82239800Y-37350660D01*
G75*
G02*
X82092300Y-37203160I0J147500D01*
G01*
G37*
%TD.AperFunction*%
%TD*%
%TO.P,R41,1*%
%TO.N,Net-(R41-Pad1)*%
%TA.AperFunction,SMDPad,CuDef*%
G36*
G01*
X122399840Y-19235200D02*
X122399840Y-18890200D01*
G75*
G02*
X122547340Y-18742700I147500J0D01*
G01*
X122842340Y-18742700D01*
G75*
G02*
X122989840Y-18890200I0J-147500D01*
G01*
X122989840Y-19235200D01*
G75*
G02*
X122842340Y-19382700I-147500J0D01*
G01*
X122547340Y-19382700D01*
G75*
G02*
X122399840Y-19235200I0J147500D01*
G01*
G37*
%TD.AperFunction*%
%TO.P,R41,2*%
%TO.N,Net-(R39-Pad1)*%
%TA.AperFunction,SMDPad,CuDef*%
G36*
G01*
X123369840Y-19235200D02*
X123369840Y-18890200D01*
G75*
G02*
X123517340Y-18742700I147500J0D01*
G01*
X123812340Y-18742700D01*
G75*
G02*
X123959840Y-18890200I0J-147500D01*
G01*
X123959840Y-19235200D01*
G75*
G02*
X123812340Y-19382700I-147500J0D01*
G01*
X123517340Y-19382700D01*
G75*
G02*
X123369840Y-19235200I0J147500D01*
G01*
G37*
%TD.AperFunction*%
%TD*%
%TO.P,R42,2*%
%TO.N,Net-(R42-Pad2)*%
%TA.AperFunction,SMDPad,CuDef*%
G36*
G01*
X98127320Y-24800340D02*
X98127320Y-24455340D01*
G75*
G02*
X98274820Y-24307840I147500J0D01*
G01*
X98569820Y-24307840D01*
G75*
G02*
X98717320Y-24455340I0J-147500D01*
G01*
X98717320Y-24800340D01*
G75*
G02*
X98569820Y-24947840I-147500J0D01*
G01*
X98274820Y-24947840D01*
G75*
G02*
X98127320Y-24800340I0J147500D01*
G01*
G37*
%TD.AperFunction*%
%TO.P,R42,1*%
%TO.N,Net-(R40-Pad2)*%
%TA.AperFunction,SMDPad,CuDef*%
G36*
G01*
X97157320Y-24800340D02*
X97157320Y-24455340D01*
G75*
G02*
X97304820Y-24307840I147500J0D01*
G01*
X97599820Y-24307840D01*
G75*
G02*
X97747320Y-24455340I0J-147500D01*
G01*
X97747320Y-24800340D01*
G75*
G02*
X97599820Y-24947840I-147500J0D01*
G01*
X97304820Y-24947840D01*
G75*
G02*
X97157320Y-24800340I0J147500D01*
G01*
G37*
%TD.AperFunction*%
%TD*%
%TO.P,R43,2*%
%TO.N,Net-(R41-Pad1)*%
%TA.AperFunction,SMDPad,CuDef*%
G36*
G01*
X93451180Y-50840420D02*
X93451180Y-50495420D01*
G75*
G02*
X93598680Y-50347920I147500J0D01*
G01*
X93893680Y-50347920D01*
G75*
G02*
X94041180Y-50495420I0J-147500D01*
G01*
X94041180Y-50840420D01*
G75*
G02*
X93893680Y-50987920I-147500J0D01*
G01*
X93598680Y-50987920D01*
G75*
G02*
X93451180Y-50840420I0J147500D01*
G01*
G37*
%TD.AperFunction*%
%TO.P,R43,1*%
%TO.N,Net-(R43-Pad1)*%
%TA.AperFunction,SMDPad,CuDef*%
G36*
G01*
X92481180Y-50840420D02*
X92481180Y-50495420D01*
G75*
G02*
X92628680Y-50347920I147500J0D01*
G01*
X92923680Y-50347920D01*
G75*
G02*
X93071180Y-50495420I0J-147500D01*
G01*
X93071180Y-50840420D01*
G75*
G02*
X92923680Y-50987920I-147500J0D01*
G01*
X92628680Y-50987920D01*
G75*
G02*
X92481180Y-50840420I0J147500D01*
G01*
G37*
%TD.AperFunction*%
%TD*%
%TO.P,R44,1*%
%TO.N,Net-(R42-Pad2)*%
%TA.AperFunction,SMDPad,CuDef*%
G36*
G01*
X109435680Y-26362440D02*
X109435680Y-26017440D01*
G75*
G02*
X109583180Y-25869940I147500J0D01*
G01*
X109878180Y-25869940D01*
G75*
G02*
X110025680Y-26017440I0J-147500D01*
G01*
X110025680Y-26362440D01*
G75*
G02*
X109878180Y-26509940I-147500J0D01*
G01*
X109583180Y-26509940D01*
G75*
G02*
X109435680Y-26362440I0J147500D01*
G01*
G37*
%TD.AperFunction*%
%TO.P,R44,2*%
%TO.N,Net-(R44-Pad2)*%
%TA.AperFunction,SMDPad,CuDef*%
G36*
G01*
X110405680Y-26362440D02*
X110405680Y-26017440D01*
G75*
G02*
X110553180Y-25869940I147500J0D01*
G01*
X110848180Y-25869940D01*
G75*
G02*
X110995680Y-26017440I0J-147500D01*
G01*
X110995680Y-26362440D01*
G75*
G02*
X110848180Y-26509940I-147500J0D01*
G01*
X110553180Y-26509940D01*
G75*
G02*
X110405680Y-26362440I0J147500D01*
G01*
G37*
%TD.AperFunction*%
%TD*%
%TO.P,R45,1*%
%TO.N,Net-(R45-Pad1)*%
%TA.AperFunction,SMDPad,CuDef*%
G36*
G01*
X141340620Y-25529320D02*
X141340620Y-25184320D01*
G75*
G02*
X141488120Y-25036820I147500J0D01*
G01*
X141783120Y-25036820D01*
G75*
G02*
X141930620Y-25184320I0J-147500D01*
G01*
X141930620Y-25529320D01*
G75*
G02*
X141783120Y-25676820I-147500J0D01*
G01*
X141488120Y-25676820D01*
G75*
G02*
X141340620Y-25529320I0J147500D01*
G01*
G37*
%TD.AperFunction*%
%TO.P,R45,2*%
%TO.N,Net-(R43-Pad1)*%
%TA.AperFunction,SMDPad,CuDef*%
G36*
G01*
X142310620Y-25529320D02*
X142310620Y-25184320D01*
G75*
G02*
X142458120Y-25036820I147500J0D01*
G01*
X142753120Y-25036820D01*
G75*
G02*
X142900620Y-25184320I0J-147500D01*
G01*
X142900620Y-25529320D01*
G75*
G02*
X142753120Y-25676820I-147500J0D01*
G01*
X142458120Y-25676820D01*
G75*
G02*
X142310620Y-25529320I0J147500D01*
G01*
G37*
%TD.AperFunction*%
%TD*%
%TO.P,R46,2*%
%TO.N,Net-(R46-Pad2)*%
%TA.AperFunction,SMDPad,CuDef*%
G36*
G01*
X103834700Y-22120640D02*
X103834700Y-21775640D01*
G75*
G02*
X103982200Y-21628140I147500J0D01*
G01*
X104277200Y-21628140D01*
G75*
G02*
X104424700Y-21775640I0J-147500D01*
G01*
X104424700Y-22120640D01*
G75*
G02*
X104277200Y-22268140I-147500J0D01*
G01*
X103982200Y-22268140D01*
G75*
G02*
X103834700Y-22120640I0J147500D01*
G01*
G37*
%TD.AperFunction*%
%TO.P,R46,1*%
%TO.N,Net-(R44-Pad2)*%
%TA.AperFunction,SMDPad,CuDef*%
G36*
G01*
X102864700Y-22120640D02*
X102864700Y-21775640D01*
G75*
G02*
X103012200Y-21628140I147500J0D01*
G01*
X103307200Y-21628140D01*
G75*
G02*
X103454700Y-21775640I0J-147500D01*
G01*
X103454700Y-22120640D01*
G75*
G02*
X103307200Y-22268140I-147500J0D01*
G01*
X103012200Y-22268140D01*
G75*
G02*
X102864700Y-22120640I0J147500D01*
G01*
G37*
%TD.AperFunction*%
%TD*%
%TO.P,R47,2*%
%TO.N,Net-(R45-Pad1)*%
%TA.AperFunction,SMDPad,CuDef*%
G36*
G01*
X119595400Y-53101020D02*
X119595400Y-52756020D01*
G75*
G02*
X119742900Y-52608520I147500J0D01*
G01*
X120037900Y-52608520D01*
G75*
G02*
X120185400Y-52756020I0J-147500D01*
G01*
X120185400Y-53101020D01*
G75*
G02*
X120037900Y-53248520I-147500J0D01*
G01*
X119742900Y-53248520D01*
G75*
G02*
X119595400Y-53101020I0J147500D01*
G01*
G37*
%TD.AperFunction*%
%TO.P,R47,1*%
%TO.N,Net-(R47-Pad1)*%
%TA.AperFunction,SMDPad,CuDef*%
G36*
G01*
X118625400Y-53101020D02*
X118625400Y-52756020D01*
G75*
G02*
X118772900Y-52608520I147500J0D01*
G01*
X119067900Y-52608520D01*
G75*
G02*
X119215400Y-52756020I0J-147500D01*
G01*
X119215400Y-53101020D01*
G75*
G02*
X119067900Y-53248520I-147500J0D01*
G01*
X118772900Y-53248520D01*
G75*
G02*
X118625400Y-53101020I0J147500D01*
G01*
G37*
%TD.AperFunction*%
%TD*%
%TO.P,R48,1*%
%TO.N,Net-(R46-Pad2)*%
%TA.AperFunction,SMDPad,CuDef*%
G36*
G01*
X107180160Y-36992340D02*
X107180160Y-36647340D01*
G75*
G02*
X107327660Y-36499840I147500J0D01*
G01*
X107622660Y-36499840D01*
G75*
G02*
X107770160Y-36647340I0J-147500D01*
G01*
X107770160Y-36992340D01*
G75*
G02*
X107622660Y-37139840I-147500J0D01*
G01*
X107327660Y-37139840D01*
G75*
G02*
X107180160Y-36992340I0J147500D01*
G01*
G37*
%TD.AperFunction*%
%TO.P,R48,2*%
%TO.N,Net-(R48-Pad2)*%
%TA.AperFunction,SMDPad,CuDef*%
G36*
G01*
X108150160Y-36992340D02*
X108150160Y-36647340D01*
G75*
G02*
X108297660Y-36499840I147500J0D01*
G01*
X108592660Y-36499840D01*
G75*
G02*
X108740160Y-36647340I0J-147500D01*
G01*
X108740160Y-36992340D01*
G75*
G02*
X108592660Y-37139840I-147500J0D01*
G01*
X108297660Y-37139840D01*
G75*
G02*
X108150160Y-36992340I0J147500D01*
G01*
G37*
%TD.AperFunction*%
%TD*%
%TO.P,R49,1*%
%TO.N,Net-(R49-Pad1)*%
%TA.AperFunction,SMDPad,CuDef*%
G36*
G01*
X134767100Y-22085080D02*
X134767100Y-21740080D01*
G75*
G02*
X134914600Y-21592580I147500J0D01*
G01*
X135209600Y-21592580D01*
G75*
G02*
X135357100Y-21740080I0J-147500D01*
G01*
X135357100Y-22085080D01*
G75*
G02*
X135209600Y-22232580I-147500J0D01*
G01*
X134914600Y-22232580D01*
G75*
G02*
X134767100Y-22085080I0J147500D01*
G01*
G37*
%TD.AperFunction*%
%TO.P,R49,2*%
%TO.N,Net-(R47-Pad1)*%
%TA.AperFunction,SMDPad,CuDef*%
G36*
G01*
X135737100Y-22085080D02*
X135737100Y-21740080D01*
G75*
G02*
X135884600Y-21592580I147500J0D01*
G01*
X136179600Y-21592580D01*
G75*
G02*
X136327100Y-21740080I0J-147500D01*
G01*
X136327100Y-22085080D01*
G75*
G02*
X136179600Y-22232580I-147500J0D01*
G01*
X135884600Y-22232580D01*
G75*
G02*
X135737100Y-22085080I0J147500D01*
G01*
G37*
%TD.AperFunction*%
%TD*%
%TO.P,R50,2*%
%TO.N,Net-(R50-Pad2)*%
%TA.AperFunction,SMDPad,CuDef*%
G36*
G01*
X151713700Y-63728380D02*
X151713700Y-63383380D01*
G75*
G02*
X151861200Y-63235880I147500J0D01*
G01*
X152156200Y-63235880D01*
G75*
G02*
X152303700Y-63383380I0J-147500D01*
G01*
X152303700Y-63728380D01*
G75*
G02*
X152156200Y-63875880I-147500J0D01*
G01*
X151861200Y-63875880D01*
G75*
G02*
X151713700Y-63728380I0J147500D01*
G01*
G37*
%TD.AperFunction*%
%TO.P,R50,1*%
%TO.N,Net-(R48-Pad2)*%
%TA.AperFunction,SMDPad,CuDef*%
G36*
G01*
X150743700Y-63728380D02*
X150743700Y-63383380D01*
G75*
G02*
X150891200Y-63235880I147500J0D01*
G01*
X151186200Y-63235880D01*
G75*
G02*
X151333700Y-63383380I0J-147500D01*
G01*
X151333700Y-63728380D01*
G75*
G02*
X151186200Y-63875880I-147500J0D01*
G01*
X150891200Y-63875880D01*
G75*
G02*
X150743700Y-63728380I0J147500D01*
G01*
G37*
%TD.AperFunction*%
%TD*%
%TO.P,R51,2*%
%TO.N,Net-(R49-Pad1)*%
%TA.AperFunction,SMDPad,CuDef*%
G36*
G01*
X88635340Y-30093700D02*
X88635340Y-29748700D01*
G75*
G02*
X88782840Y-29601200I147500J0D01*
G01*
X89077840Y-29601200D01*
G75*
G02*
X89225340Y-29748700I0J-147500D01*
G01*
X89225340Y-30093700D01*
G75*
G02*
X89077840Y-30241200I-147500J0D01*
G01*
X88782840Y-30241200D01*
G75*
G02*
X88635340Y-30093700I0J147500D01*
G01*
G37*
%TD.AperFunction*%
%TO.P,R51,1*%
%TO.N,Net-(R51-Pad1)*%
%TA.AperFunction,SMDPad,CuDef*%
G36*
G01*
X87665340Y-30093700D02*
X87665340Y-29748700D01*
G75*
G02*
X87812840Y-29601200I147500J0D01*
G01*
X88107840Y-29601200D01*
G75*
G02*
X88255340Y-29748700I0J-147500D01*
G01*
X88255340Y-30093700D01*
G75*
G02*
X88107840Y-30241200I-147500J0D01*
G01*
X87812840Y-30241200D01*
G75*
G02*
X87665340Y-30093700I0J147500D01*
G01*
G37*
%TD.AperFunction*%
%TD*%
%TO.P,R52,1*%
%TO.N,Net-(R50-Pad2)*%
%TA.AperFunction,SMDPad,CuDef*%
G36*
G01*
X108785580Y-20296920D02*
X108785580Y-19951920D01*
G75*
G02*
X108933080Y-19804420I147500J0D01*
G01*
X109228080Y-19804420D01*
G75*
G02*
X109375580Y-19951920I0J-147500D01*
G01*
X109375580Y-20296920D01*
G75*
G02*
X109228080Y-20444420I-147500J0D01*
G01*
X108933080Y-20444420D01*
G75*
G02*
X108785580Y-20296920I0J147500D01*
G01*
G37*
%TD.AperFunction*%
%TO.P,R52,2*%
%TO.N,Net-(R52-Pad2)*%
%TA.AperFunction,SMDPad,CuDef*%
G36*
G01*
X109755580Y-20296920D02*
X109755580Y-19951920D01*
G75*
G02*
X109903080Y-19804420I147500J0D01*
G01*
X110198080Y-19804420D01*
G75*
G02*
X110345580Y-19951920I0J-147500D01*
G01*
X110345580Y-20296920D01*
G75*
G02*
X110198080Y-20444420I-147500J0D01*
G01*
X109903080Y-20444420D01*
G75*
G02*
X109755580Y-20296920I0J147500D01*
G01*
G37*
%TD.AperFunction*%
%TD*%
%TO.P,R53,1*%
%TO.N,Net-(R53-Pad1)*%
%TA.AperFunction,SMDPad,CuDef*%
G36*
G01*
X116314000Y-91566780D02*
X116314000Y-91221780D01*
G75*
G02*
X116461500Y-91074280I147500J0D01*
G01*
X116756500Y-91074280D01*
G75*
G02*
X116904000Y-91221780I0J-147500D01*
G01*
X116904000Y-91566780D01*
G75*
G02*
X116756500Y-91714280I-147500J0D01*
G01*
X116461500Y-91714280D01*
G75*
G02*
X116314000Y-91566780I0J147500D01*
G01*
G37*
%TD.AperFunction*%
%TO.P,R53,2*%
%TO.N,Net-(R51-Pad1)*%
%TA.AperFunction,SMDPad,CuDef*%
G36*
G01*
X117284000Y-91566780D02*
X117284000Y-91221780D01*
G75*
G02*
X117431500Y-91074280I147500J0D01*
G01*
X117726500Y-91074280D01*
G75*
G02*
X117874000Y-91221780I0J-147500D01*
G01*
X117874000Y-91566780D01*
G75*
G02*
X117726500Y-91714280I-147500J0D01*
G01*
X117431500Y-91714280D01*
G75*
G02*
X117284000Y-91566780I0J147500D01*
G01*
G37*
%TD.AperFunction*%
%TD*%
%TO.P,R54,1*%
%TO.N,Net-(R52-Pad2)*%
%TA.AperFunction,SMDPad,CuDef*%
G36*
G01*
X129661700Y-20710940D02*
X129661700Y-20365940D01*
G75*
G02*
X129809200Y-20218440I147500J0D01*
G01*
X130104200Y-20218440D01*
G75*
G02*
X130251700Y-20365940I0J-147500D01*
G01*
X130251700Y-20710940D01*
G75*
G02*
X130104200Y-20858440I-147500J0D01*
G01*
X129809200Y-20858440D01*
G75*
G02*
X129661700Y-20710940I0J147500D01*
G01*
G37*
%TD.AperFunction*%
%TO.P,R54,2*%
%TO.N,Net-(R54-Pad2)*%
%TA.AperFunction,SMDPad,CuDef*%
G36*
G01*
X130631700Y-20710940D02*
X130631700Y-20365940D01*
G75*
G02*
X130779200Y-20218440I147500J0D01*
G01*
X131074200Y-20218440D01*
G75*
G02*
X131221700Y-20365940I0J-147500D01*
G01*
X131221700Y-20710940D01*
G75*
G02*
X131074200Y-20858440I-147500J0D01*
G01*
X130779200Y-20858440D01*
G75*
G02*
X130631700Y-20710940I0J147500D01*
G01*
G37*
%TD.AperFunction*%
%TD*%
%TO.P,R55,1*%
%TO.N,Net-(R55-Pad1)*%
%TA.AperFunction,SMDPad,CuDef*%
G36*
G01*
X150370320Y-33085820D02*
X150370320Y-32740820D01*
G75*
G02*
X150517820Y-32593320I147500J0D01*
G01*
X150812820Y-32593320D01*
G75*
G02*
X150960320Y-32740820I0J-147500D01*
G01*
X150960320Y-33085820D01*
G75*
G02*
X150812820Y-33233320I-147500J0D01*
G01*
X150517820Y-33233320D01*
G75*
G02*
X150370320Y-33085820I0J147500D01*
G01*
G37*
%TD.AperFunction*%
%TO.P,R55,2*%
%TO.N,Net-(R53-Pad1)*%
%TA.AperFunction,SMDPad,CuDef*%
G36*
G01*
X151340320Y-33085820D02*
X151340320Y-32740820D01*
G75*
G02*
X151487820Y-32593320I147500J0D01*
G01*
X151782820Y-32593320D01*
G75*
G02*
X151930320Y-32740820I0J-147500D01*
G01*
X151930320Y-33085820D01*
G75*
G02*
X151782820Y-33233320I-147500J0D01*
G01*
X151487820Y-33233320D01*
G75*
G02*
X151340320Y-33085820I0J147500D01*
G01*
G37*
%TD.AperFunction*%
%TD*%
%TO.P,R56,1*%
%TO.N,Net-(R54-Pad2)*%
%TA.AperFunction,SMDPad,CuDef*%
G36*
G01*
X145899920Y-72181500D02*
X145899920Y-71836500D01*
G75*
G02*
X146047420Y-71689000I147500J0D01*
G01*
X146342420Y-71689000D01*
G75*
G02*
X146489920Y-71836500I0J-147500D01*
G01*
X146489920Y-72181500D01*
G75*
G02*
X146342420Y-72329000I-147500J0D01*
G01*
X146047420Y-72329000D01*
G75*
G02*
X145899920Y-72181500I0J147500D01*
G01*
G37*
%TD.AperFunction*%
%TO.P,R56,2*%
%TO.N,Net-(R56-Pad2)*%
%TA.AperFunction,SMDPad,CuDef*%
G36*
G01*
X146869920Y-72181500D02*
X146869920Y-71836500D01*
G75*
G02*
X147017420Y-71689000I147500J0D01*
G01*
X147312420Y-71689000D01*
G75*
G02*
X147459920Y-71836500I0J-147500D01*
G01*
X147459920Y-72181500D01*
G75*
G02*
X147312420Y-72329000I-147500J0D01*
G01*
X147017420Y-72329000D01*
G75*
G02*
X146869920Y-72181500I0J147500D01*
G01*
G37*
%TD.AperFunction*%
%TD*%
%TO.P,R58,2*%
%TO.N,Net-(R58-Pad2)*%
%TA.AperFunction,SMDPad,CuDef*%
G36*
G01*
X117652300Y-34899380D02*
X117652300Y-34554380D01*
G75*
G02*
X117799800Y-34406880I147500J0D01*
G01*
X118094800Y-34406880D01*
G75*
G02*
X118242300Y-34554380I0J-147500D01*
G01*
X118242300Y-34899380D01*
G75*
G02*
X118094800Y-35046880I-147500J0D01*
G01*
X117799800Y-35046880D01*
G75*
G02*
X117652300Y-34899380I0J147500D01*
G01*
G37*
%TD.AperFunction*%
%TO.P,R58,1*%
%TO.N,Net-(R56-Pad2)*%
%TA.AperFunction,SMDPad,CuDef*%
G36*
G01*
X116682300Y-34899380D02*
X116682300Y-34554380D01*
G75*
G02*
X116829800Y-34406880I147500J0D01*
G01*
X117124800Y-34406880D01*
G75*
G02*
X117272300Y-34554380I0J-147500D01*
G01*
X117272300Y-34899380D01*
G75*
G02*
X117124800Y-35046880I-147500J0D01*
G01*
X116829800Y-35046880D01*
G75*
G02*
X116682300Y-34899380I0J147500D01*
G01*
G37*
%TD.AperFunction*%
%TD*%
%TO.P,R59,2*%
%TO.N,Net-(R57-Pad1)*%
%TA.AperFunction,SMDPad,CuDef*%
G36*
G01*
X116189260Y-19600960D02*
X116189260Y-19255960D01*
G75*
G02*
X116336760Y-19108460I147500J0D01*
G01*
X116631760Y-19108460D01*
G75*
G02*
X116779260Y-19255960I0J-147500D01*
G01*
X116779260Y-19600960D01*
G75*
G02*
X116631760Y-19748460I-147500J0D01*
G01*
X116336760Y-19748460D01*
G75*
G02*
X116189260Y-19600960I0J147500D01*
G01*
G37*
%TD.AperFunction*%
%TO.P,R59,1*%
%TO.N,Net-(R59-Pad1)*%
%TA.AperFunction,SMDPad,CuDef*%
G36*
G01*
X115219260Y-19600960D02*
X115219260Y-19255960D01*
G75*
G02*
X115366760Y-19108460I147500J0D01*
G01*
X115661760Y-19108460D01*
G75*
G02*
X115809260Y-19255960I0J-147500D01*
G01*
X115809260Y-19600960D01*
G75*
G02*
X115661760Y-19748460I-147500J0D01*
G01*
X115366760Y-19748460D01*
G75*
G02*
X115219260Y-19600960I0J147500D01*
G01*
G37*
%TD.AperFunction*%
%TD*%
%TO.P,R60,1*%
%TO.N,Net-(R58-Pad2)*%
%TA.AperFunction,SMDPad,CuDef*%
G36*
G01*
X147891280Y-56103300D02*
X147891280Y-55758300D01*
G75*
G02*
X148038780Y-55610800I147500J0D01*
G01*
X148333780Y-55610800D01*
G75*
G02*
X148481280Y-55758300I0J-147500D01*
G01*
X148481280Y-56103300D01*
G75*
G02*
X148333780Y-56250800I-147500J0D01*
G01*
X148038780Y-56250800D01*
G75*
G02*
X147891280Y-56103300I0J147500D01*
G01*
G37*
%TD.AperFunction*%
%TO.P,R60,2*%
%TO.N,Net-(R60-Pad2)*%
%TA.AperFunction,SMDPad,CuDef*%
G36*
G01*
X148861280Y-56103300D02*
X148861280Y-55758300D01*
G75*
G02*
X149008780Y-55610800I147500J0D01*
G01*
X149303780Y-55610800D01*
G75*
G02*
X149451280Y-55758300I0J-147500D01*
G01*
X149451280Y-56103300D01*
G75*
G02*
X149303780Y-56250800I-147500J0D01*
G01*
X149008780Y-56250800D01*
G75*
G02*
X148861280Y-56103300I0J147500D01*
G01*
G37*
%TD.AperFunction*%
%TD*%
%TO.P,R61,2*%
%TO.N,Net-(R61-Pad2)*%
%TA.AperFunction,SMDPad,CuDef*%
G36*
G01*
X165061400Y-67370740D02*
X165061400Y-67025740D01*
G75*
G02*
X165208900Y-66878240I147500J0D01*
G01*
X165503900Y-66878240D01*
G75*
G02*
X165651400Y-67025740I0J-147500D01*
G01*
X165651400Y-67370740D01*
G75*
G02*
X165503900Y-67518240I-147500J0D01*
G01*
X165208900Y-67518240D01*
G75*
G02*
X165061400Y-67370740I0J147500D01*
G01*
G37*
%TD.AperFunction*%
%TO.P,R61,1*%
%TO.N,Net-(R59-Pad1)*%
%TA.AperFunction,SMDPad,CuDef*%
G36*
G01*
X164091400Y-67370740D02*
X164091400Y-67025740D01*
G75*
G02*
X164238900Y-66878240I147500J0D01*
G01*
X164533900Y-66878240D01*
G75*
G02*
X164681400Y-67025740I0J-147500D01*
G01*
X164681400Y-67370740D01*
G75*
G02*
X164533900Y-67518240I-147500J0D01*
G01*
X164238900Y-67518240D01*
G75*
G02*
X164091400Y-67370740I0J147500D01*
G01*
G37*
%TD.AperFunction*%
%TD*%
%TO.P,R62,1*%
%TO.N,Net-(R61-Pad2)*%
%TA.AperFunction,SMDPad,CuDef*%
G36*
G01*
X154294620Y-36718020D02*
X154294620Y-36373020D01*
G75*
G02*
X154442120Y-36225520I147500J0D01*
G01*
X154737120Y-36225520D01*
G75*
G02*
X154884620Y-36373020I0J-147500D01*
G01*
X154884620Y-36718020D01*
G75*
G02*
X154737120Y-36865520I-147500J0D01*
G01*
X154442120Y-36865520D01*
G75*
G02*
X154294620Y-36718020I0J147500D01*
G01*
G37*
%TD.AperFunction*%
%TO.P,R62,2*%
%TO.N,Net-(R62-Pad2)*%
%TA.AperFunction,SMDPad,CuDef*%
G36*
G01*
X155264620Y-36718020D02*
X155264620Y-36373020D01*
G75*
G02*
X155412120Y-36225520I147500J0D01*
G01*
X155707120Y-36225520D01*
G75*
G02*
X155854620Y-36373020I0J-147500D01*
G01*
X155854620Y-36718020D01*
G75*
G02*
X155707120Y-36865520I-147500J0D01*
G01*
X155412120Y-36865520D01*
G75*
G02*
X155264620Y-36718020I0J147500D01*
G01*
G37*
%TD.AperFunction*%
%TD*%
%TO.P,R64,1*%
%TO.N,Net-(R63-Pad2)*%
%TA.AperFunction,SMDPad,CuDef*%
G36*
G01*
X157703300Y-41198580D02*
X157703300Y-40853580D01*
G75*
G02*
X157850800Y-40706080I147500J0D01*
G01*
X158145800Y-40706080D01*
G75*
G02*
X158293300Y-40853580I0J-147500D01*
G01*
X158293300Y-41198580D01*
G75*
G02*
X158145800Y-41346080I-147500J0D01*
G01*
X157850800Y-41346080D01*
G75*
G02*
X157703300Y-41198580I0J147500D01*
G01*
G37*
%TD.AperFunction*%
%TO.P,R64,2*%
%TO.N,Net-(R64-Pad2)*%
%TA.AperFunction,SMDPad,CuDef*%
G36*
G01*
X158673300Y-41198580D02*
X158673300Y-40853580D01*
G75*
G02*
X158820800Y-40706080I147500J0D01*
G01*
X159115800Y-40706080D01*
G75*
G02*
X159263300Y-40853580I0J-147500D01*
G01*
X159263300Y-41198580D01*
G75*
G02*
X159115800Y-41346080I-147500J0D01*
G01*
X158820800Y-41346080D01*
G75*
G02*
X158673300Y-41198580I0J147500D01*
G01*
G37*
%TD.AperFunction*%
%TD*%
%TO.P,R66,2*%
%TO.N,Net-(R66-Pad2)*%
%TA.AperFunction,SMDPad,CuDef*%
G36*
G01*
X164947100Y-71195980D02*
X164947100Y-70850980D01*
G75*
G02*
X165094600Y-70703480I147500J0D01*
G01*
X165389600Y-70703480D01*
G75*
G02*
X165537100Y-70850980I0J-147500D01*
G01*
X165537100Y-71195980D01*
G75*
G02*
X165389600Y-71343480I-147500J0D01*
G01*
X165094600Y-71343480D01*
G75*
G02*
X164947100Y-71195980I0J147500D01*
G01*
G37*
%TD.AperFunction*%
%TO.P,R66,1*%
%TO.N,Net-(R65-Pad2)*%
%TA.AperFunction,SMDPad,CuDef*%
G36*
G01*
X163977100Y-71195980D02*
X163977100Y-70850980D01*
G75*
G02*
X164124600Y-70703480I147500J0D01*
G01*
X164419600Y-70703480D01*
G75*
G02*
X164567100Y-70850980I0J-147500D01*
G01*
X164567100Y-71195980D01*
G75*
G02*
X164419600Y-71343480I-147500J0D01*
G01*
X164124600Y-71343480D01*
G75*
G02*
X163977100Y-71195980I0J147500D01*
G01*
G37*
%TD.AperFunction*%
%TD*%
%TO.P,R67,2*%
%TO.N,Net-(R67-Pad2)*%
%TA.AperFunction,SMDPad,CuDef*%
G36*
G01*
X127456700Y-25862060D02*
X127456700Y-25517060D01*
G75*
G02*
X127604200Y-25369560I147500J0D01*
G01*
X127899200Y-25369560D01*
G75*
G02*
X128046700Y-25517060I0J-147500D01*
G01*
X128046700Y-25862060D01*
G75*
G02*
X127899200Y-26009560I-147500J0D01*
G01*
X127604200Y-26009560D01*
G75*
G02*
X127456700Y-25862060I0J147500D01*
G01*
G37*
%TD.AperFunction*%
%TO.P,R67,1*%
%TO.N,Net-(R66-Pad2)*%
%TA.AperFunction,SMDPad,CuDef*%
G36*
G01*
X126486700Y-25862060D02*
X126486700Y-25517060D01*
G75*
G02*
X126634200Y-25369560I147500J0D01*
G01*
X126929200Y-25369560D01*
G75*
G02*
X127076700Y-25517060I0J-147500D01*
G01*
X127076700Y-25862060D01*
G75*
G02*
X126929200Y-26009560I-147500J0D01*
G01*
X126634200Y-26009560D01*
G75*
G02*
X126486700Y-25862060I0J147500D01*
G01*
G37*
%TD.AperFunction*%
%TD*%
%TO.P,R68,1*%
%TO.N,Net-(R67-Pad2)*%
%TA.AperFunction,SMDPad,CuDef*%
G36*
G01*
X77957460Y-41488140D02*
X77957460Y-41143140D01*
G75*
G02*
X78104960Y-40995640I147500J0D01*
G01*
X78399960Y-40995640D01*
G75*
G02*
X78547460Y-41143140I0J-147500D01*
G01*
X78547460Y-41488140D01*
G75*
G02*
X78399960Y-41635640I-147500J0D01*
G01*
X78104960Y-41635640D01*
G75*
G02*
X77957460Y-41488140I0J147500D01*
G01*
G37*
%TD.AperFunction*%
%TO.P,R68,2*%
%TO.N,Net-(R68-Pad2)*%
%TA.AperFunction,SMDPad,CuDef*%
G36*
G01*
X78927460Y-41488140D02*
X78927460Y-41143140D01*
G75*
G02*
X79074960Y-40995640I147500J0D01*
G01*
X79369960Y-40995640D01*
G75*
G02*
X79517460Y-41143140I0J-147500D01*
G01*
X79517460Y-41488140D01*
G75*
G02*
X79369960Y-41635640I-147500J0D01*
G01*
X79074960Y-41635640D01*
G75*
G02*
X78927460Y-41488140I0J147500D01*
G01*
G37*
%TD.AperFunction*%
%TD*%
%TO.P,R69,2*%
%TO.N,Net-(R69-Pad2)*%
%TA.AperFunction,SMDPad,CuDef*%
G36*
G01*
X83019260Y-47058360D02*
X83019260Y-46713360D01*
G75*
G02*
X83166760Y-46565860I147500J0D01*
G01*
X83461760Y-46565860D01*
G75*
G02*
X83609260Y-46713360I0J-147500D01*
G01*
X83609260Y-47058360D01*
G75*
G02*
X83461760Y-47205860I-147500J0D01*
G01*
X83166760Y-47205860D01*
G75*
G02*
X83019260Y-47058360I0J147500D01*
G01*
G37*
%TD.AperFunction*%
%TO.P,R69,1*%
%TO.N,Net-(R68-Pad2)*%
%TA.AperFunction,SMDPad,CuDef*%
G36*
G01*
X82049260Y-47058360D02*
X82049260Y-46713360D01*
G75*
G02*
X82196760Y-46565860I147500J0D01*
G01*
X82491760Y-46565860D01*
G75*
G02*
X82639260Y-46713360I0J-147500D01*
G01*
X82639260Y-47058360D01*
G75*
G02*
X82491760Y-47205860I-147500J0D01*
G01*
X82196760Y-47205860D01*
G75*
G02*
X82049260Y-47058360I0J147500D01*
G01*
G37*
%TD.AperFunction*%
%TD*%
%TO.P,R70,1*%
%TO.N,Net-(R69-Pad2)*%
%TA.AperFunction,SMDPad,CuDef*%
G36*
G01*
X159656560Y-45348940D02*
X159656560Y-45003940D01*
G75*
G02*
X159804060Y-44856440I147500J0D01*
G01*
X160099060Y-44856440D01*
G75*
G02*
X160246560Y-45003940I0J-147500D01*
G01*
X160246560Y-45348940D01*
G75*
G02*
X160099060Y-45496440I-147500J0D01*
G01*
X159804060Y-45496440D01*
G75*
G02*
X159656560Y-45348940I0J147500D01*
G01*
G37*
%TD.AperFunction*%
%TO.P,R70,2*%
%TO.N,Net-(R70-Pad2)*%
%TA.AperFunction,SMDPad,CuDef*%
G36*
G01*
X160626560Y-45348940D02*
X160626560Y-45003940D01*
G75*
G02*
X160774060Y-44856440I147500J0D01*
G01*
X161069060Y-44856440D01*
G75*
G02*
X161216560Y-45003940I0J-147500D01*
G01*
X161216560Y-45348940D01*
G75*
G02*
X161069060Y-45496440I-147500J0D01*
G01*
X160774060Y-45496440D01*
G75*
G02*
X160626560Y-45348940I0J147500D01*
G01*
G37*
%TD.AperFunction*%
%TD*%
%TO.P,R73,1*%
%TO.N,Net-(R73-Pad1)*%
%TA.AperFunction,SMDPad,CuDef*%
G36*
G01*
X115361500Y-25757920D02*
X115361500Y-25412920D01*
G75*
G02*
X115509000Y-25265420I147500J0D01*
G01*
X115804000Y-25265420D01*
G75*
G02*
X115951500Y-25412920I0J-147500D01*
G01*
X115951500Y-25757920D01*
G75*
G02*
X115804000Y-25905420I-147500J0D01*
G01*
X115509000Y-25905420D01*
G75*
G02*
X115361500Y-25757920I0J147500D01*
G01*
G37*
%TD.AperFunction*%
%TO.P,R73,2*%
%TO.N,Net-(R73-Pad2)*%
%TA.AperFunction,SMDPad,CuDef*%
G36*
G01*
X116331500Y-25757920D02*
X116331500Y-25412920D01*
G75*
G02*
X116479000Y-25265420I147500J0D01*
G01*
X116774000Y-25265420D01*
G75*
G02*
X116921500Y-25412920I0J-147500D01*
G01*
X116921500Y-25757920D01*
G75*
G02*
X116774000Y-25905420I-147500J0D01*
G01*
X116479000Y-25905420D01*
G75*
G02*
X116331500Y-25757920I0J147500D01*
G01*
G37*
%TD.AperFunction*%
%TD*%
%TO.P,R74,1*%
%TO.N,Net-(R73-Pad2)*%
%TA.AperFunction,SMDPad,CuDef*%
G36*
G01*
X83908680Y-41996140D02*
X83908680Y-41651140D01*
G75*
G02*
X84056180Y-41503640I147500J0D01*
G01*
X84351180Y-41503640D01*
G75*
G02*
X84498680Y-41651140I0J-147500D01*
G01*
X84498680Y-41996140D01*
G75*
G02*
X84351180Y-42143640I-147500J0D01*
G01*
X84056180Y-42143640D01*
G75*
G02*
X83908680Y-41996140I0J147500D01*
G01*
G37*
%TD.AperFunction*%
%TO.P,R74,2*%
%TO.N,Net-(R74-Pad2)*%
%TA.AperFunction,SMDPad,CuDef*%
G36*
G01*
X84878680Y-41996140D02*
X84878680Y-41651140D01*
G75*
G02*
X85026180Y-41503640I147500J0D01*
G01*
X85321180Y-41503640D01*
G75*
G02*
X85468680Y-41651140I0J-147500D01*
G01*
X85468680Y-41996140D01*
G75*
G02*
X85321180Y-42143640I-147500J0D01*
G01*
X85026180Y-42143640D01*
G75*
G02*
X84878680Y-41996140I0J147500D01*
G01*
G37*
%TD.AperFunction*%
%TD*%
%TO.P,R76,2*%
%TO.N,Net-(R76-Pad2)*%
%TA.AperFunction,SMDPad,CuDef*%
G36*
G01*
X162816040Y-49527240D02*
X162816040Y-49182240D01*
G75*
G02*
X162963540Y-49034740I147500J0D01*
G01*
X163258540Y-49034740D01*
G75*
G02*
X163406040Y-49182240I0J-147500D01*
G01*
X163406040Y-49527240D01*
G75*
G02*
X163258540Y-49674740I-147500J0D01*
G01*
X162963540Y-49674740D01*
G75*
G02*
X162816040Y-49527240I0J147500D01*
G01*
G37*
%TD.AperFunction*%
%TO.P,R76,1*%
%TO.N,Net-(R74-Pad2)*%
%TA.AperFunction,SMDPad,CuDef*%
G36*
G01*
X161846040Y-49527240D02*
X161846040Y-49182240D01*
G75*
G02*
X161993540Y-49034740I147500J0D01*
G01*
X162288540Y-49034740D01*
G75*
G02*
X162436040Y-49182240I0J-147500D01*
G01*
X162436040Y-49527240D01*
G75*
G02*
X162288540Y-49674740I-147500J0D01*
G01*
X161993540Y-49674740D01*
G75*
G02*
X161846040Y-49527240I0J147500D01*
G01*
G37*
%TD.AperFunction*%
%TD*%
%TO.P,R77,2*%
%TO.N,Net-(R77-Pad2)*%
%TA.AperFunction,SMDPad,CuDef*%
G36*
G01*
X135282440Y-32610840D02*
X135282440Y-32265840D01*
G75*
G02*
X135429940Y-32118340I147500J0D01*
G01*
X135724940Y-32118340D01*
G75*
G02*
X135872440Y-32265840I0J-147500D01*
G01*
X135872440Y-32610840D01*
G75*
G02*
X135724940Y-32758340I-147500J0D01*
G01*
X135429940Y-32758340D01*
G75*
G02*
X135282440Y-32610840I0J147500D01*
G01*
G37*
%TD.AperFunction*%
%TO.P,R77,1*%
%TO.N,Net-(R77-Pad1)*%
%TA.AperFunction,SMDPad,CuDef*%
G36*
G01*
X134312440Y-32610840D02*
X134312440Y-32265840D01*
G75*
G02*
X134459940Y-32118340I147500J0D01*
G01*
X134754940Y-32118340D01*
G75*
G02*
X134902440Y-32265840I0J-147500D01*
G01*
X134902440Y-32610840D01*
G75*
G02*
X134754940Y-32758340I-147500J0D01*
G01*
X134459940Y-32758340D01*
G75*
G02*
X134312440Y-32610840I0J147500D01*
G01*
G37*
%TD.AperFunction*%
%TD*%
%TO.P,R78,2*%
%TO.N,Net-(R78-Pad2)*%
%TA.AperFunction,SMDPad,CuDef*%
G36*
G01*
X125071640Y-41617680D02*
X125071640Y-41272680D01*
G75*
G02*
X125219140Y-41125180I147500J0D01*
G01*
X125514140Y-41125180D01*
G75*
G02*
X125661640Y-41272680I0J-147500D01*
G01*
X125661640Y-41617680D01*
G75*
G02*
X125514140Y-41765180I-147500J0D01*
G01*
X125219140Y-41765180D01*
G75*
G02*
X125071640Y-41617680I0J147500D01*
G01*
G37*
%TD.AperFunction*%
%TO.P,R78,1*%
%TO.N,Net-(R77-Pad2)*%
%TA.AperFunction,SMDPad,CuDef*%
G36*
G01*
X124101640Y-41617680D02*
X124101640Y-41272680D01*
G75*
G02*
X124249140Y-41125180I147500J0D01*
G01*
X124544140Y-41125180D01*
G75*
G02*
X124691640Y-41272680I0J-147500D01*
G01*
X124691640Y-41617680D01*
G75*
G02*
X124544140Y-41765180I-147500J0D01*
G01*
X124249140Y-41765180D01*
G75*
G02*
X124101640Y-41617680I0J147500D01*
G01*
G37*
%TD.AperFunction*%
%TD*%
%TO.P,R79,2*%
%TO.N,Net-(R75-Pad1)*%
%TA.AperFunction,SMDPad,CuDef*%
G36*
G01*
X88886800Y-37662900D02*
X88886800Y-37317900D01*
G75*
G02*
X89034300Y-37170400I147500J0D01*
G01*
X89329300Y-37170400D01*
G75*
G02*
X89476800Y-37317900I0J-147500D01*
G01*
X89476800Y-37662900D01*
G75*
G02*
X89329300Y-37810400I-147500J0D01*
G01*
X89034300Y-37810400D01*
G75*
G02*
X88886800Y-37662900I0J147500D01*
G01*
G37*
%TD.AperFunction*%
%TO.P,R79,1*%
%TO.N,Net-(R79-Pad1)*%
%TA.AperFunction,SMDPad,CuDef*%
G36*
G01*
X87916800Y-37662900D02*
X87916800Y-37317900D01*
G75*
G02*
X88064300Y-37170400I147500J0D01*
G01*
X88359300Y-37170400D01*
G75*
G02*
X88506800Y-37317900I0J-147500D01*
G01*
X88506800Y-37662900D01*
G75*
G02*
X88359300Y-37810400I-147500J0D01*
G01*
X88064300Y-37810400D01*
G75*
G02*
X87916800Y-37662900I0J147500D01*
G01*
G37*
%TD.AperFunction*%
%TD*%
%TO.P,R83,1*%
%TO.N,Net-(R83-Pad1)*%
%TA.AperFunction,SMDPad,CuDef*%
G36*
G01*
X103276180Y-27627360D02*
X103276180Y-27282360D01*
G75*
G02*
X103423680Y-27134860I147500J0D01*
G01*
X103718680Y-27134860D01*
G75*
G02*
X103866180Y-27282360I0J-147500D01*
G01*
X103866180Y-27627360D01*
G75*
G02*
X103718680Y-27774860I-147500J0D01*
G01*
X103423680Y-27774860D01*
G75*
G02*
X103276180Y-27627360I0J147500D01*
G01*
G37*
%TD.AperFunction*%
%TO.P,R83,2*%
%TO.N,Net-(R79-Pad1)*%
%TA.AperFunction,SMDPad,CuDef*%
G36*
G01*
X104246180Y-27627360D02*
X104246180Y-27282360D01*
G75*
G02*
X104393680Y-27134860I147500J0D01*
G01*
X104688680Y-27134860D01*
G75*
G02*
X104836180Y-27282360I0J-147500D01*
G01*
X104836180Y-27627360D01*
G75*
G02*
X104688680Y-27774860I-147500J0D01*
G01*
X104393680Y-27774860D01*
G75*
G02*
X104246180Y-27627360I0J147500D01*
G01*
G37*
%TD.AperFunction*%
%TD*%
%TO.P,R84,2*%
%TO.N,Net-(R84-Pad2)*%
%TA.AperFunction,SMDPad,CuDef*%
G36*
G01*
X147022320Y-29357100D02*
X147022320Y-29012100D01*
G75*
G02*
X147169820Y-28864600I147500J0D01*
G01*
X147464820Y-28864600D01*
G75*
G02*
X147612320Y-29012100I0J-147500D01*
G01*
X147612320Y-29357100D01*
G75*
G02*
X147464820Y-29504600I-147500J0D01*
G01*
X147169820Y-29504600D01*
G75*
G02*
X147022320Y-29357100I0J147500D01*
G01*
G37*
%TD.AperFunction*%
%TO.P,R84,1*%
%TO.N,Net-(R80-Pad2)*%
%TA.AperFunction,SMDPad,CuDef*%
G36*
G01*
X146052320Y-29357100D02*
X146052320Y-29012100D01*
G75*
G02*
X146199820Y-28864600I147500J0D01*
G01*
X146494820Y-28864600D01*
G75*
G02*
X146642320Y-29012100I0J-147500D01*
G01*
X146642320Y-29357100D01*
G75*
G02*
X146494820Y-29504600I-147500J0D01*
G01*
X146199820Y-29504600D01*
G75*
G02*
X146052320Y-29357100I0J147500D01*
G01*
G37*
%TD.AperFunction*%
%TD*%
%TO.P,R86,2*%
%TO.N,Net-(R86-Pad2)*%
%TA.AperFunction,SMDPad,CuDef*%
G36*
G01*
X127967240Y-34307560D02*
X127967240Y-33962560D01*
G75*
G02*
X128114740Y-33815060I147500J0D01*
G01*
X128409740Y-33815060D01*
G75*
G02*
X128557240Y-33962560I0J-147500D01*
G01*
X128557240Y-34307560D01*
G75*
G02*
X128409740Y-34455060I-147500J0D01*
G01*
X128114740Y-34455060D01*
G75*
G02*
X127967240Y-34307560I0J147500D01*
G01*
G37*
%TD.AperFunction*%
%TO.P,R86,1*%
%TO.N,Net-(R82-Pad2)*%
%TA.AperFunction,SMDPad,CuDef*%
G36*
G01*
X126997240Y-34307560D02*
X126997240Y-33962560D01*
G75*
G02*
X127144740Y-33815060I147500J0D01*
G01*
X127439740Y-33815060D01*
G75*
G02*
X127587240Y-33962560I0J-147500D01*
G01*
X127587240Y-34307560D01*
G75*
G02*
X127439740Y-34455060I-147500J0D01*
G01*
X127144740Y-34455060D01*
G75*
G02*
X126997240Y-34307560I0J147500D01*
G01*
G37*
%TD.AperFunction*%
%TD*%
%TO.P,R87,2*%
%TO.N,Net-(R83-Pad1)*%
%TA.AperFunction,SMDPad,CuDef*%
G36*
G01*
X93628980Y-34553940D02*
X93628980Y-34208940D01*
G75*
G02*
X93776480Y-34061440I147500J0D01*
G01*
X94071480Y-34061440D01*
G75*
G02*
X94218980Y-34208940I0J-147500D01*
G01*
X94218980Y-34553940D01*
G75*
G02*
X94071480Y-34701440I-147500J0D01*
G01*
X93776480Y-34701440D01*
G75*
G02*
X93628980Y-34553940I0J147500D01*
G01*
G37*
%TD.AperFunction*%
%TO.P,R87,1*%
%TO.N,Net-(R87-Pad1)*%
%TA.AperFunction,SMDPad,CuDef*%
G36*
G01*
X92658980Y-34553940D02*
X92658980Y-34208940D01*
G75*
G02*
X92806480Y-34061440I147500J0D01*
G01*
X93101480Y-34061440D01*
G75*
G02*
X93248980Y-34208940I0J-147500D01*
G01*
X93248980Y-34553940D01*
G75*
G02*
X93101480Y-34701440I-147500J0D01*
G01*
X92806480Y-34701440D01*
G75*
G02*
X92658980Y-34553940I0J147500D01*
G01*
G37*
%TD.AperFunction*%
%TD*%
%TO.P,R88,1*%
%TO.N,Net-(R84-Pad2)*%
%TA.AperFunction,SMDPad,CuDef*%
G36*
G01*
X155338560Y-70507640D02*
X155338560Y-70162640D01*
G75*
G02*
X155486060Y-70015140I147500J0D01*
G01*
X155781060Y-70015140D01*
G75*
G02*
X155928560Y-70162640I0J-147500D01*
G01*
X155928560Y-70507640D01*
G75*
G02*
X155781060Y-70655140I-147500J0D01*
G01*
X155486060Y-70655140D01*
G75*
G02*
X155338560Y-70507640I0J147500D01*
G01*
G37*
%TD.AperFunction*%
%TO.P,R88,2*%
%TO.N,Net-(R88-Pad2)*%
%TA.AperFunction,SMDPad,CuDef*%
G36*
G01*
X156308560Y-70507640D02*
X156308560Y-70162640D01*
G75*
G02*
X156456060Y-70015140I147500J0D01*
G01*
X156751060Y-70015140D01*
G75*
G02*
X156898560Y-70162640I0J-147500D01*
G01*
X156898560Y-70507640D01*
G75*
G02*
X156751060Y-70655140I-147500J0D01*
G01*
X156456060Y-70655140D01*
G75*
G02*
X156308560Y-70507640I0J147500D01*
G01*
G37*
%TD.AperFunction*%
%TD*%
%TO.P,R89,2*%
%TO.N,Net-(R85-Pad1)*%
%TA.AperFunction,SMDPad,CuDef*%
G36*
G01*
X164144460Y-55079680D02*
X164144460Y-54734680D01*
G75*
G02*
X164291960Y-54587180I147500J0D01*
G01*
X164586960Y-54587180D01*
G75*
G02*
X164734460Y-54734680I0J-147500D01*
G01*
X164734460Y-55079680D01*
G75*
G02*
X164586960Y-55227180I-147500J0D01*
G01*
X164291960Y-55227180D01*
G75*
G02*
X164144460Y-55079680I0J147500D01*
G01*
G37*
%TD.AperFunction*%
%TO.P,R89,1*%
%TO.N,Net-(R89-Pad1)*%
%TA.AperFunction,SMDPad,CuDef*%
G36*
G01*
X163174460Y-55079680D02*
X163174460Y-54734680D01*
G75*
G02*
X163321960Y-54587180I147500J0D01*
G01*
X163616960Y-54587180D01*
G75*
G02*
X163764460Y-54734680I0J-147500D01*
G01*
X163764460Y-55079680D01*
G75*
G02*
X163616960Y-55227180I-147500J0D01*
G01*
X163321960Y-55227180D01*
G75*
G02*
X163174460Y-55079680I0J147500D01*
G01*
G37*
%TD.AperFunction*%
%TD*%
%TO.P,R91,1*%
%TO.N,Net-(R91-Pad1)*%
%TA.AperFunction,SMDPad,CuDef*%
G36*
G01*
X134393720Y-55735000D02*
X134393720Y-55390000D01*
G75*
G02*
X134541220Y-55242500I147500J0D01*
G01*
X134836220Y-55242500D01*
G75*
G02*
X134983720Y-55390000I0J-147500D01*
G01*
X134983720Y-55735000D01*
G75*
G02*
X134836220Y-55882500I-147500J0D01*
G01*
X134541220Y-55882500D01*
G75*
G02*
X134393720Y-55735000I0J147500D01*
G01*
G37*
%TD.AperFunction*%
%TO.P,R91,2*%
%TO.N,Net-(R87-Pad1)*%
%TA.AperFunction,SMDPad,CuDef*%
G36*
G01*
X135363720Y-55735000D02*
X135363720Y-55390000D01*
G75*
G02*
X135511220Y-55242500I147500J0D01*
G01*
X135806220Y-55242500D01*
G75*
G02*
X135953720Y-55390000I0J-147500D01*
G01*
X135953720Y-55735000D01*
G75*
G02*
X135806220Y-55882500I-147500J0D01*
G01*
X135511220Y-55882500D01*
G75*
G02*
X135363720Y-55735000I0J147500D01*
G01*
G37*
%TD.AperFunction*%
%TD*%
%TO.P,R93,1*%
%TO.N,Net-(R93-Pad1)*%
%TA.AperFunction,SMDPad,CuDef*%
G36*
G01*
X97893920Y-31262100D02*
X97893920Y-30917100D01*
G75*
G02*
X98041420Y-30769600I147500J0D01*
G01*
X98336420Y-30769600D01*
G75*
G02*
X98483920Y-30917100I0J-147500D01*
G01*
X98483920Y-31262100D01*
G75*
G02*
X98336420Y-31409600I-147500J0D01*
G01*
X98041420Y-31409600D01*
G75*
G02*
X97893920Y-31262100I0J147500D01*
G01*
G37*
%TD.AperFunction*%
%TO.P,R93,2*%
%TO.N,Net-(R89-Pad1)*%
%TA.AperFunction,SMDPad,CuDef*%
G36*
G01*
X98863920Y-31262100D02*
X98863920Y-30917100D01*
G75*
G02*
X99011420Y-30769600I147500J0D01*
G01*
X99306420Y-30769600D01*
G75*
G02*
X99453920Y-30917100I0J-147500D01*
G01*
X99453920Y-31262100D01*
G75*
G02*
X99306420Y-31409600I-147500J0D01*
G01*
X99011420Y-31409600D01*
G75*
G02*
X98863920Y-31262100I0J147500D01*
G01*
G37*
%TD.AperFunction*%
%TD*%
%TO.P,R94,2*%
%TO.N,Net-(R94-Pad2)*%
%TA.AperFunction,SMDPad,CuDef*%
G36*
G01*
X138310120Y-70065680D02*
X138310120Y-69720680D01*
G75*
G02*
X138457620Y-69573180I147500J0D01*
G01*
X138752620Y-69573180D01*
G75*
G02*
X138900120Y-69720680I0J-147500D01*
G01*
X138900120Y-70065680D01*
G75*
G02*
X138752620Y-70213180I-147500J0D01*
G01*
X138457620Y-70213180D01*
G75*
G02*
X138310120Y-70065680I0J147500D01*
G01*
G37*
%TD.AperFunction*%
%TO.P,R94,1*%
%TO.N,Net-(R90-Pad2)*%
%TA.AperFunction,SMDPad,CuDef*%
G36*
G01*
X137340120Y-70065680D02*
X137340120Y-69720680D01*
G75*
G02*
X137487620Y-69573180I147500J0D01*
G01*
X137782620Y-69573180D01*
G75*
G02*
X137930120Y-69720680I0J-147500D01*
G01*
X137930120Y-70065680D01*
G75*
G02*
X137782620Y-70213180I-147500J0D01*
G01*
X137487620Y-70213180D01*
G75*
G02*
X137340120Y-70065680I0J147500D01*
G01*
G37*
%TD.AperFunction*%
%TD*%
%TO.P,R96,1*%
%TO.N,Net-(R92-Pad2)*%
%TA.AperFunction,SMDPad,CuDef*%
G36*
G01*
X128169021Y-50879041D02*
X128169021Y-50534041D01*
G75*
G02*
X128316521Y-50386541I147500J0D01*
G01*
X128611521Y-50386541D01*
G75*
G02*
X128759021Y-50534041I0J-147500D01*
G01*
X128759021Y-50879041D01*
G75*
G02*
X128611521Y-51026541I-147500J0D01*
G01*
X128316521Y-51026541D01*
G75*
G02*
X128169021Y-50879041I0J147500D01*
G01*
G37*
%TD.AperFunction*%
%TO.P,R96,2*%
%TO.N,Net-(R100-Pad1)*%
%TA.AperFunction,SMDPad,CuDef*%
G36*
G01*
X129139021Y-50879041D02*
X129139021Y-50534041D01*
G75*
G02*
X129286521Y-50386541I147500J0D01*
G01*
X129581521Y-50386541D01*
G75*
G02*
X129729021Y-50534041I0J-147500D01*
G01*
X129729021Y-50879041D01*
G75*
G02*
X129581521Y-51026541I-147500J0D01*
G01*
X129286521Y-51026541D01*
G75*
G02*
X129139021Y-50879041I0J147500D01*
G01*
G37*
%TD.AperFunction*%
%TD*%
%TO.P,R97,2*%
%TO.N,Net-(R93-Pad1)*%
%TA.AperFunction,SMDPad,CuDef*%
G36*
G01*
X165008060Y-60050460D02*
X165008060Y-59705460D01*
G75*
G02*
X165155560Y-59557960I147500J0D01*
G01*
X165450560Y-59557960D01*
G75*
G02*
X165598060Y-59705460I0J-147500D01*
G01*
X165598060Y-60050460D01*
G75*
G02*
X165450560Y-60197960I-147500J0D01*
G01*
X165155560Y-60197960D01*
G75*
G02*
X165008060Y-60050460I0J147500D01*
G01*
G37*
%TD.AperFunction*%
%TO.P,R97,1*%
%TO.N,Net-(R101-Pad2)*%
%TA.AperFunction,SMDPad,CuDef*%
G36*
G01*
X164038060Y-60050460D02*
X164038060Y-59705460D01*
G75*
G02*
X164185560Y-59557960I147500J0D01*
G01*
X164480560Y-59557960D01*
G75*
G02*
X164628060Y-59705460I0J-147500D01*
G01*
X164628060Y-60050460D01*
G75*
G02*
X164480560Y-60197960I-147500J0D01*
G01*
X164185560Y-60197960D01*
G75*
G02*
X164038060Y-60050460I0J147500D01*
G01*
G37*
%TD.AperFunction*%
%TD*%
%TO.P,R98,1*%
%TO.N,Net-(R94-Pad2)*%
%TA.AperFunction,SMDPad,CuDef*%
G36*
G01*
X138968260Y-63212760D02*
X138968260Y-62867760D01*
G75*
G02*
X139115760Y-62720260I147500J0D01*
G01*
X139410760Y-62720260D01*
G75*
G02*
X139558260Y-62867760I0J-147500D01*
G01*
X139558260Y-63212760D01*
G75*
G02*
X139410760Y-63360260I-147500J0D01*
G01*
X139115760Y-63360260D01*
G75*
G02*
X138968260Y-63212760I0J147500D01*
G01*
G37*
%TD.AperFunction*%
%TO.P,R98,2*%
%TO.N,Net-(R102-Pad1)*%
%TA.AperFunction,SMDPad,CuDef*%
G36*
G01*
X139938260Y-63212760D02*
X139938260Y-62867760D01*
G75*
G02*
X140085760Y-62720260I147500J0D01*
G01*
X140380760Y-62720260D01*
G75*
G02*
X140528260Y-62867760I0J-147500D01*
G01*
X140528260Y-63212760D01*
G75*
G02*
X140380760Y-63360260I-147500J0D01*
G01*
X140085760Y-63360260D01*
G75*
G02*
X139938260Y-63212760I0J147500D01*
G01*
G37*
%TD.AperFunction*%
%TD*%
%TO.P,R99,1*%
%TO.N,Net-(R103-Pad2)*%
%TA.AperFunction,SMDPad,CuDef*%
G36*
G01*
X99798920Y-96397860D02*
X99798920Y-96052860D01*
G75*
G02*
X99946420Y-95905360I147500J0D01*
G01*
X100241420Y-95905360D01*
G75*
G02*
X100388920Y-96052860I0J-147500D01*
G01*
X100388920Y-96397860D01*
G75*
G02*
X100241420Y-96545360I-147500J0D01*
G01*
X99946420Y-96545360D01*
G75*
G02*
X99798920Y-96397860I0J147500D01*
G01*
G37*
%TD.AperFunction*%
%TO.P,R99,2*%
%TO.N,Net-(R95-Pad1)*%
%TA.AperFunction,SMDPad,CuDef*%
G36*
G01*
X100768920Y-96397860D02*
X100768920Y-96052860D01*
G75*
G02*
X100916420Y-95905360I147500J0D01*
G01*
X101211420Y-95905360D01*
G75*
G02*
X101358920Y-96052860I0J-147500D01*
G01*
X101358920Y-96397860D01*
G75*
G02*
X101211420Y-96545360I-147500J0D01*
G01*
X100916420Y-96545360D01*
G75*
G02*
X100768920Y-96397860I0J147500D01*
G01*
G37*
%TD.AperFunction*%
%TD*%
%TO.P,R103,2*%
%TO.N,Net-(R103-Pad2)*%
%TA.AperFunction,SMDPad,CuDef*%
G36*
G01*
X165173160Y-63240700D02*
X165173160Y-62895700D01*
G75*
G02*
X165320660Y-62748200I147500J0D01*
G01*
X165615660Y-62748200D01*
G75*
G02*
X165763160Y-62895700I0J-147500D01*
G01*
X165763160Y-63240700D01*
G75*
G02*
X165615660Y-63388200I-147500J0D01*
G01*
X165320660Y-63388200D01*
G75*
G02*
X165173160Y-63240700I0J147500D01*
G01*
G37*
%TD.AperFunction*%
%TO.P,R103,1*%
%TO.N,Net-(R103-Pad1)*%
%TA.AperFunction,SMDPad,CuDef*%
G36*
G01*
X164203160Y-63240700D02*
X164203160Y-62895700D01*
G75*
G02*
X164350660Y-62748200I147500J0D01*
G01*
X164645660Y-62748200D01*
G75*
G02*
X164793160Y-62895700I0J-147500D01*
G01*
X164793160Y-63240700D01*
G75*
G02*
X164645660Y-63388200I-147500J0D01*
G01*
X164350660Y-63388200D01*
G75*
G02*
X164203160Y-63240700I0J147500D01*
G01*
G37*
%TD.AperFunction*%
%TD*%
%TO.P,R104,2*%
%TO.N,Net-(R104-Pad2)*%
%TA.AperFunction,SMDPad,CuDef*%
G36*
G01*
X116730280Y-73154320D02*
X116730280Y-72809320D01*
G75*
G02*
X116877780Y-72661820I147500J0D01*
G01*
X117172780Y-72661820D01*
G75*
G02*
X117320280Y-72809320I0J-147500D01*
G01*
X117320280Y-73154320D01*
G75*
G02*
X117172780Y-73301820I-147500J0D01*
G01*
X116877780Y-73301820D01*
G75*
G02*
X116730280Y-73154320I0J147500D01*
G01*
G37*
%TD.AperFunction*%
%TO.P,R104,1*%
%TO.N,Net-(R100-Pad2)*%
%TA.AperFunction,SMDPad,CuDef*%
G36*
G01*
X115760280Y-73154320D02*
X115760280Y-72809320D01*
G75*
G02*
X115907780Y-72661820I147500J0D01*
G01*
X116202780Y-72661820D01*
G75*
G02*
X116350280Y-72809320I0J-147500D01*
G01*
X116350280Y-73154320D01*
G75*
G02*
X116202780Y-73301820I-147500J0D01*
G01*
X115907780Y-73301820D01*
G75*
G02*
X115760280Y-73154320I0J147500D01*
G01*
G37*
%TD.AperFunction*%
%TD*%
%TO.P,R106,1*%
%TO.N,Net-(R102-Pad2)*%
%TA.AperFunction,SMDPad,CuDef*%
G36*
G01*
X99776060Y-102514180D02*
X99776060Y-102169180D01*
G75*
G02*
X99923560Y-102021680I147500J0D01*
G01*
X100218560Y-102021680D01*
G75*
G02*
X100366060Y-102169180I0J-147500D01*
G01*
X100366060Y-102514180D01*
G75*
G02*
X100218560Y-102661680I-147500J0D01*
G01*
X99923560Y-102661680D01*
G75*
G02*
X99776060Y-102514180I0J147500D01*
G01*
G37*
%TD.AperFunction*%
%TO.P,R106,2*%
%TO.N,Net-(R106-Pad2)*%
%TA.AperFunction,SMDPad,CuDef*%
G36*
G01*
X100746060Y-102514180D02*
X100746060Y-102169180D01*
G75*
G02*
X100893560Y-102021680I147500J0D01*
G01*
X101188560Y-102021680D01*
G75*
G02*
X101336060Y-102169180I0J-147500D01*
G01*
X101336060Y-102514180D01*
G75*
G02*
X101188560Y-102661680I-147500J0D01*
G01*
X100893560Y-102661680D01*
G75*
G02*
X100746060Y-102514180I0J147500D01*
G01*
G37*
%TD.AperFunction*%
%TD*%
%TO.P,R107,2*%
%TO.N,Net-(R103-Pad1)*%
%TA.AperFunction,SMDPad,CuDef*%
G36*
G01*
X95307920Y-91556620D02*
X95307920Y-91211620D01*
G75*
G02*
X95455420Y-91064120I147500J0D01*
G01*
X95750420Y-91064120D01*
G75*
G02*
X95897920Y-91211620I0J-147500D01*
G01*
X95897920Y-91556620D01*
G75*
G02*
X95750420Y-91704120I-147500J0D01*
G01*
X95455420Y-91704120D01*
G75*
G02*
X95307920Y-91556620I0J147500D01*
G01*
G37*
%TD.AperFunction*%
%TO.P,R107,1*%
%TO.N,Net-(R107-Pad1)*%
%TA.AperFunction,SMDPad,CuDef*%
G36*
G01*
X94337920Y-91556620D02*
X94337920Y-91211620D01*
G75*
G02*
X94485420Y-91064120I147500J0D01*
G01*
X94780420Y-91064120D01*
G75*
G02*
X94927920Y-91211620I0J-147500D01*
G01*
X94927920Y-91556620D01*
G75*
G02*
X94780420Y-91704120I-147500J0D01*
G01*
X94485420Y-91704120D01*
G75*
G02*
X94337920Y-91556620I0J147500D01*
G01*
G37*
%TD.AperFunction*%
%TD*%
%TO.P,R108,2*%
%TO.N,Net-(R108-Pad2)*%
%TA.AperFunction,SMDPad,CuDef*%
G36*
G01*
X105429820Y-55958520D02*
X105429820Y-55613520D01*
G75*
G02*
X105577320Y-55466020I147500J0D01*
G01*
X105872320Y-55466020D01*
G75*
G02*
X106019820Y-55613520I0J-147500D01*
G01*
X106019820Y-55958520D01*
G75*
G02*
X105872320Y-56106020I-147500J0D01*
G01*
X105577320Y-56106020D01*
G75*
G02*
X105429820Y-55958520I0J147500D01*
G01*
G37*
%TD.AperFunction*%
%TO.P,R108,1*%
%TO.N,Net-(R104-Pad2)*%
%TA.AperFunction,SMDPad,CuDef*%
G36*
G01*
X104459820Y-55958520D02*
X104459820Y-55613520D01*
G75*
G02*
X104607320Y-55466020I147500J0D01*
G01*
X104902320Y-55466020D01*
G75*
G02*
X105049820Y-55613520I0J-147500D01*
G01*
X105049820Y-55958520D01*
G75*
G02*
X104902320Y-56106020I-147500J0D01*
G01*
X104607320Y-56106020D01*
G75*
G02*
X104459820Y-55958520I0J147500D01*
G01*
G37*
%TD.AperFunction*%
%TD*%
%TO.P,R109,1*%
%TO.N,Net-(R109-Pad1)*%
%TA.AperFunction,SMDPad,CuDef*%
G36*
G01*
X92610720Y-59903140D02*
X92610720Y-59558140D01*
G75*
G02*
X92758220Y-59410640I147500J0D01*
G01*
X93053220Y-59410640D01*
G75*
G02*
X93200720Y-59558140I0J-147500D01*
G01*
X93200720Y-59903140D01*
G75*
G02*
X93053220Y-60050640I-147500J0D01*
G01*
X92758220Y-60050640D01*
G75*
G02*
X92610720Y-59903140I0J147500D01*
G01*
G37*
%TD.AperFunction*%
%TO.P,R109,2*%
%TO.N,Net-(R105-Pad1)*%
%TA.AperFunction,SMDPad,CuDef*%
G36*
G01*
X93580720Y-59903140D02*
X93580720Y-59558140D01*
G75*
G02*
X93728220Y-59410640I147500J0D01*
G01*
X94023220Y-59410640D01*
G75*
G02*
X94170720Y-59558140I0J-147500D01*
G01*
X94170720Y-59903140D01*
G75*
G02*
X94023220Y-60050640I-147500J0D01*
G01*
X93728220Y-60050640D01*
G75*
G02*
X93580720Y-59903140I0J147500D01*
G01*
G37*
%TD.AperFunction*%
%TD*%
%TO.P,R113,1*%
%TO.N,Net-(R113-Pad1)*%
%TA.AperFunction,SMDPad,CuDef*%
G36*
G01*
X107289380Y-98805780D02*
X107289380Y-98460780D01*
G75*
G02*
X107436880Y-98313280I147500J0D01*
G01*
X107731880Y-98313280D01*
G75*
G02*
X107879380Y-98460780I0J-147500D01*
G01*
X107879380Y-98805780D01*
G75*
G02*
X107731880Y-98953280I-147500J0D01*
G01*
X107436880Y-98953280D01*
G75*
G02*
X107289380Y-98805780I0J147500D01*
G01*
G37*
%TD.AperFunction*%
%TO.P,R113,2*%
%TO.N,Net-(R109-Pad1)*%
%TA.AperFunction,SMDPad,CuDef*%
G36*
G01*
X108259380Y-98805780D02*
X108259380Y-98460780D01*
G75*
G02*
X108406880Y-98313280I147500J0D01*
G01*
X108701880Y-98313280D01*
G75*
G02*
X108849380Y-98460780I0J-147500D01*
G01*
X108849380Y-98805780D01*
G75*
G02*
X108701880Y-98953280I-147500J0D01*
G01*
X108406880Y-98953280D01*
G75*
G02*
X108259380Y-98805780I0J147500D01*
G01*
G37*
%TD.AperFunction*%
%TD*%
%TO.P,R114,1*%
%TO.N,Net-(R110-Pad2)*%
%TA.AperFunction,SMDPad,CuDef*%
G36*
G01*
X149227180Y-87713600D02*
X149227180Y-87368600D01*
G75*
G02*
X149374680Y-87221100I147500J0D01*
G01*
X149669680Y-87221100D01*
G75*
G02*
X149817180Y-87368600I0J-147500D01*
G01*
X149817180Y-87713600D01*
G75*
G02*
X149669680Y-87861100I-147500J0D01*
G01*
X149374680Y-87861100D01*
G75*
G02*
X149227180Y-87713600I0J147500D01*
G01*
G37*
%TD.AperFunction*%
%TO.P,R114,2*%
%TO.N,Net-(R114-Pad2)*%
%TA.AperFunction,SMDPad,CuDef*%
G36*
G01*
X150197180Y-87713600D02*
X150197180Y-87368600D01*
G75*
G02*
X150344680Y-87221100I147500J0D01*
G01*
X150639680Y-87221100D01*
G75*
G02*
X150787180Y-87368600I0J-147500D01*
G01*
X150787180Y-87713600D01*
G75*
G02*
X150639680Y-87861100I-147500J0D01*
G01*
X150344680Y-87861100D01*
G75*
G02*
X150197180Y-87713600I0J147500D01*
G01*
G37*
%TD.AperFunction*%
%TD*%
%TO.P,R115,2*%
%TO.N,Net-(R111-Pad1)*%
%TA.AperFunction,SMDPad,CuDef*%
G36*
G01*
X148321981Y-80213861D02*
X148321981Y-79868861D01*
G75*
G02*
X148469481Y-79721361I147500J0D01*
G01*
X148764481Y-79721361D01*
G75*
G02*
X148911981Y-79868861I0J-147500D01*
G01*
X148911981Y-80213861D01*
G75*
G02*
X148764481Y-80361361I-147500J0D01*
G01*
X148469481Y-80361361D01*
G75*
G02*
X148321981Y-80213861I0J147500D01*
G01*
G37*
%TD.AperFunction*%
%TO.P,R115,1*%
%TO.N,Net-(R115-Pad1)*%
%TA.AperFunction,SMDPad,CuDef*%
G36*
G01*
X147351981Y-80213861D02*
X147351981Y-79868861D01*
G75*
G02*
X147499481Y-79721361I147500J0D01*
G01*
X147794481Y-79721361D01*
G75*
G02*
X147941981Y-79868861I0J-147500D01*
G01*
X147941981Y-80213861D01*
G75*
G02*
X147794481Y-80361361I-147500J0D01*
G01*
X147499481Y-80361361D01*
G75*
G02*
X147351981Y-80213861I0J147500D01*
G01*
G37*
%TD.AperFunction*%
%TD*%
%TO.P,R116,2*%
%TO.N,Net-(R116-Pad2)*%
%TA.AperFunction,SMDPad,CuDef*%
G36*
G01*
X124136081Y-89827401D02*
X124136081Y-89482401D01*
G75*
G02*
X124283581Y-89334901I147500J0D01*
G01*
X124578581Y-89334901D01*
G75*
G02*
X124726081Y-89482401I0J-147500D01*
G01*
X124726081Y-89827401D01*
G75*
G02*
X124578581Y-89974901I-147500J0D01*
G01*
X124283581Y-89974901D01*
G75*
G02*
X124136081Y-89827401I0J147500D01*
G01*
G37*
%TD.AperFunction*%
%TO.P,R116,1*%
%TO.N,Net-(R112-Pad2)*%
%TA.AperFunction,SMDPad,CuDef*%
G36*
G01*
X123166081Y-89827401D02*
X123166081Y-89482401D01*
G75*
G02*
X123313581Y-89334901I147500J0D01*
G01*
X123608581Y-89334901D01*
G75*
G02*
X123756081Y-89482401I0J-147500D01*
G01*
X123756081Y-89827401D01*
G75*
G02*
X123608581Y-89974901I-147500J0D01*
G01*
X123313581Y-89974901D01*
G75*
G02*
X123166081Y-89827401I0J147500D01*
G01*
G37*
%TD.AperFunction*%
%TD*%
%TO.P,R117,1*%
%TO.N,Net-(R115-Pad1)*%
%TA.AperFunction,SMDPad,CuDef*%
G36*
G01*
X154883900Y-79146180D02*
X154883900Y-78801180D01*
G75*
G02*
X155031400Y-78653680I147500J0D01*
G01*
X155326400Y-78653680D01*
G75*
G02*
X155473900Y-78801180I0J-147500D01*
G01*
X155473900Y-79146180D01*
G75*
G02*
X155326400Y-79293680I-147500J0D01*
G01*
X155031400Y-79293680D01*
G75*
G02*
X154883900Y-79146180I0J147500D01*
G01*
G37*
%TD.AperFunction*%
%TO.P,R117,2*%
%TO.N,Net-(R117-Pad2)*%
%TA.AperFunction,SMDPad,CuDef*%
G36*
G01*
X155853900Y-79146180D02*
X155853900Y-78801180D01*
G75*
G02*
X156001400Y-78653680I147500J0D01*
G01*
X156296400Y-78653680D01*
G75*
G02*
X156443900Y-78801180I0J-147500D01*
G01*
X156443900Y-79146180D01*
G75*
G02*
X156296400Y-79293680I-147500J0D01*
G01*
X156001400Y-79293680D01*
G75*
G02*
X155853900Y-79146180I0J147500D01*
G01*
G37*
%TD.AperFunction*%
%TD*%
%TO.P,R118,2*%
%TO.N,Net-(R118-Pad2)*%
%TA.AperFunction,SMDPad,CuDef*%
G36*
G01*
X90558120Y-80052960D02*
X90558120Y-79707960D01*
G75*
G02*
X90705620Y-79560460I147500J0D01*
G01*
X91000620Y-79560460D01*
G75*
G02*
X91148120Y-79707960I0J-147500D01*
G01*
X91148120Y-80052960D01*
G75*
G02*
X91000620Y-80200460I-147500J0D01*
G01*
X90705620Y-80200460D01*
G75*
G02*
X90558120Y-80052960I0J147500D01*
G01*
G37*
%TD.AperFunction*%
%TO.P,R118,1*%
%TO.N,Net-(R117-Pad2)*%
%TA.AperFunction,SMDPad,CuDef*%
G36*
G01*
X89588120Y-80052960D02*
X89588120Y-79707960D01*
G75*
G02*
X89735620Y-79560460I147500J0D01*
G01*
X90030620Y-79560460D01*
G75*
G02*
X90178120Y-79707960I0J-147500D01*
G01*
X90178120Y-80052960D01*
G75*
G02*
X90030620Y-80200460I-147500J0D01*
G01*
X89735620Y-80200460D01*
G75*
G02*
X89588120Y-80052960I0J147500D01*
G01*
G37*
%TD.AperFunction*%
%TD*%
%TO.P,R119,1*%
%TO.N,Net-(R118-Pad2)*%
%TA.AperFunction,SMDPad,CuDef*%
G36*
G01*
X142298200Y-91444860D02*
X142298200Y-91099860D01*
G75*
G02*
X142445700Y-90952360I147500J0D01*
G01*
X142740700Y-90952360D01*
G75*
G02*
X142888200Y-91099860I0J-147500D01*
G01*
X142888200Y-91444860D01*
G75*
G02*
X142740700Y-91592360I-147500J0D01*
G01*
X142445700Y-91592360D01*
G75*
G02*
X142298200Y-91444860I0J147500D01*
G01*
G37*
%TD.AperFunction*%
%TO.P,R119,2*%
%TO.N,Net-(R119-Pad2)*%
%TA.AperFunction,SMDPad,CuDef*%
G36*
G01*
X143268200Y-91444860D02*
X143268200Y-91099860D01*
G75*
G02*
X143415700Y-90952360I147500J0D01*
G01*
X143710700Y-90952360D01*
G75*
G02*
X143858200Y-91099860I0J-147500D01*
G01*
X143858200Y-91444860D01*
G75*
G02*
X143710700Y-91592360I-147500J0D01*
G01*
X143415700Y-91592360D01*
G75*
G02*
X143268200Y-91444860I0J147500D01*
G01*
G37*
%TD.AperFunction*%
%TD*%
%TO.P,R122,1*%
%TO.N,Net-(R121-Pad2)*%
%TA.AperFunction,SMDPad,CuDef*%
G36*
G01*
X112689280Y-44536140D02*
X112689280Y-44191140D01*
G75*
G02*
X112836780Y-44043640I147500J0D01*
G01*
X113131780Y-44043640D01*
G75*
G02*
X113279280Y-44191140I0J-147500D01*
G01*
X113279280Y-44536140D01*
G75*
G02*
X113131780Y-44683640I-147500J0D01*
G01*
X112836780Y-44683640D01*
G75*
G02*
X112689280Y-44536140I0J147500D01*
G01*
G37*
%TD.AperFunction*%
%TO.P,R122,2*%
%TO.N,Net-(R122-Pad2)*%
%TA.AperFunction,SMDPad,CuDef*%
G36*
G01*
X113659280Y-44536140D02*
X113659280Y-44191140D01*
G75*
G02*
X113806780Y-44043640I147500J0D01*
G01*
X114101780Y-44043640D01*
G75*
G02*
X114249280Y-44191140I0J-147500D01*
G01*
X114249280Y-44536140D01*
G75*
G02*
X114101780Y-44683640I-147500J0D01*
G01*
X113806780Y-44683640D01*
G75*
G02*
X113659280Y-44536140I0J147500D01*
G01*
G37*
%TD.AperFunction*%
%TD*%
%TO.P,R123,2*%
%TO.N,Net-(R123-Pad2)*%
%TA.AperFunction,SMDPad,CuDef*%
G36*
G01*
X108200960Y-83868040D02*
X108200960Y-83523040D01*
G75*
G02*
X108348460Y-83375540I147500J0D01*
G01*
X108643460Y-83375540D01*
G75*
G02*
X108790960Y-83523040I0J-147500D01*
G01*
X108790960Y-83868040D01*
G75*
G02*
X108643460Y-84015540I-147500J0D01*
G01*
X108348460Y-84015540D01*
G75*
G02*
X108200960Y-83868040I0J147500D01*
G01*
G37*
%TD.AperFunction*%
%TO.P,R123,1*%
%TO.N,Net-(R122-Pad2)*%
%TA.AperFunction,SMDPad,CuDef*%
G36*
G01*
X107230960Y-83868040D02*
X107230960Y-83523040D01*
G75*
G02*
X107378460Y-83375540I147500J0D01*
G01*
X107673460Y-83375540D01*
G75*
G02*
X107820960Y-83523040I0J-147500D01*
G01*
X107820960Y-83868040D01*
G75*
G02*
X107673460Y-84015540I-147500J0D01*
G01*
X107378460Y-84015540D01*
G75*
G02*
X107230960Y-83868040I0J147500D01*
G01*
G37*
%TD.AperFunction*%
%TD*%
%TO.P,R124,1*%
%TO.N,Net-(R123-Pad2)*%
%TA.AperFunction,SMDPad,CuDef*%
G36*
G01*
X135313200Y-28079480D02*
X135313200Y-27734480D01*
G75*
G02*
X135460700Y-27586980I147500J0D01*
G01*
X135755700Y-27586980D01*
G75*
G02*
X135903200Y-27734480I0J-147500D01*
G01*
X135903200Y-28079480D01*
G75*
G02*
X135755700Y-28226980I-147500J0D01*
G01*
X135460700Y-28226980D01*
G75*
G02*
X135313200Y-28079480I0J147500D01*
G01*
G37*
%TD.AperFunction*%
%TO.P,R124,2*%
%TO.N,Net-(R124-Pad2)*%
%TA.AperFunction,SMDPad,CuDef*%
G36*
G01*
X136283200Y-28079480D02*
X136283200Y-27734480D01*
G75*
G02*
X136430700Y-27586980I147500J0D01*
G01*
X136725700Y-27586980D01*
G75*
G02*
X136873200Y-27734480I0J-147500D01*
G01*
X136873200Y-28079480D01*
G75*
G02*
X136725700Y-28226980I-147500J0D01*
G01*
X136430700Y-28226980D01*
G75*
G02*
X136283200Y-28079480I0J147500D01*
G01*
G37*
%TD.AperFunction*%
%TD*%
%TO.P,R125,2*%
%TO.N,Net-(R125-Pad2)*%
%TA.AperFunction,SMDPad,CuDef*%
G36*
G01*
X150436080Y-46674820D02*
X150436080Y-46329820D01*
G75*
G02*
X150583580Y-46182320I147500J0D01*
G01*
X150878580Y-46182320D01*
G75*
G02*
X151026080Y-46329820I0J-147500D01*
G01*
X151026080Y-46674820D01*
G75*
G02*
X150878580Y-46822320I-147500J0D01*
G01*
X150583580Y-46822320D01*
G75*
G02*
X150436080Y-46674820I0J147500D01*
G01*
G37*
%TD.AperFunction*%
%TO.P,R125,1*%
%TO.N,Net-(R124-Pad2)*%
%TA.AperFunction,SMDPad,CuDef*%
G36*
G01*
X149466080Y-46674820D02*
X149466080Y-46329820D01*
G75*
G02*
X149613580Y-46182320I147500J0D01*
G01*
X149908580Y-46182320D01*
G75*
G02*
X150056080Y-46329820I0J-147500D01*
G01*
X150056080Y-46674820D01*
G75*
G02*
X149908580Y-46822320I-147500J0D01*
G01*
X149613580Y-46822320D01*
G75*
G02*
X149466080Y-46674820I0J147500D01*
G01*
G37*
%TD.AperFunction*%
%TD*%
%TO.P,R126,1*%
%TO.N,Net-(R125-Pad2)*%
%TA.AperFunction,SMDPad,CuDef*%
G36*
G01*
X138457720Y-97238600D02*
X138457720Y-96893600D01*
G75*
G02*
X138605220Y-96746100I147500J0D01*
G01*
X138900220Y-96746100D01*
G75*
G02*
X139047720Y-96893600I0J-147500D01*
G01*
X139047720Y-97238600D01*
G75*
G02*
X138900220Y-97386100I-147500J0D01*
G01*
X138605220Y-97386100D01*
G75*
G02*
X138457720Y-97238600I0J147500D01*
G01*
G37*
%TD.AperFunction*%
%TO.P,R126,2*%
%TO.N,Net-(R126-Pad2)*%
%TA.AperFunction,SMDPad,CuDef*%
G36*
G01*
X139427720Y-97238600D02*
X139427720Y-96893600D01*
G75*
G02*
X139575220Y-96746100I147500J0D01*
G01*
X139870220Y-96746100D01*
G75*
G02*
X140017720Y-96893600I0J-147500D01*
G01*
X140017720Y-97238600D01*
G75*
G02*
X139870220Y-97386100I-147500J0D01*
G01*
X139575220Y-97386100D01*
G75*
G02*
X139427720Y-97238600I0J147500D01*
G01*
G37*
%TD.AperFunction*%
%TD*%
%TO.P,R127,2*%
%TO.N,Net-(R127-Pad2)*%
%TA.AperFunction,SMDPad,CuDef*%
G36*
G01*
X129874780Y-94551280D02*
X129874780Y-94206280D01*
G75*
G02*
X130022280Y-94058780I147500J0D01*
G01*
X130317280Y-94058780D01*
G75*
G02*
X130464780Y-94206280I0J-147500D01*
G01*
X130464780Y-94551280D01*
G75*
G02*
X130317280Y-94698780I-147500J0D01*
G01*
X130022280Y-94698780D01*
G75*
G02*
X129874780Y-94551280I0J147500D01*
G01*
G37*
%TD.AperFunction*%
%TO.P,R127,1*%
%TO.N,Net-(R126-Pad2)*%
%TA.AperFunction,SMDPad,CuDef*%
G36*
G01*
X128904780Y-94551280D02*
X128904780Y-94206280D01*
G75*
G02*
X129052280Y-94058780I147500J0D01*
G01*
X129347280Y-94058780D01*
G75*
G02*
X129494780Y-94206280I0J-147500D01*
G01*
X129494780Y-94551280D01*
G75*
G02*
X129347280Y-94698780I-147500J0D01*
G01*
X129052280Y-94698780D01*
G75*
G02*
X128904780Y-94551280I0J147500D01*
G01*
G37*
%TD.AperFunction*%
%TD*%
%TO.P,R128,1*%
%TO.N,Net-(R127-Pad2)*%
%TA.AperFunction,SMDPad,CuDef*%
G36*
G01*
X110218000Y-50926780D02*
X110218000Y-50581780D01*
G75*
G02*
X110365500Y-50434280I147500J0D01*
G01*
X110660500Y-50434280D01*
G75*
G02*
X110808000Y-50581780I0J-147500D01*
G01*
X110808000Y-50926780D01*
G75*
G02*
X110660500Y-51074280I-147500J0D01*
G01*
X110365500Y-51074280D01*
G75*
G02*
X110218000Y-50926780I0J147500D01*
G01*
G37*
%TD.AperFunction*%
%TO.P,R128,2*%
%TO.N,Net-(R116-Pad2)*%
%TA.AperFunction,SMDPad,CuDef*%
G36*
G01*
X111188000Y-50926780D02*
X111188000Y-50581780D01*
G75*
G02*
X111335500Y-50434280I147500J0D01*
G01*
X111630500Y-50434280D01*
G75*
G02*
X111778000Y-50581780I0J-147500D01*
G01*
X111778000Y-50926780D01*
G75*
G02*
X111630500Y-51074280I-147500J0D01*
G01*
X111335500Y-51074280D01*
G75*
G02*
X111188000Y-50926780I0J147500D01*
G01*
G37*
%TD.AperFunction*%
%TD*%
%TO.P,R130,2*%
%TO.N,Net-(R130-Pad2)*%
%TA.AperFunction,SMDPad,CuDef*%
G36*
G01*
X157629360Y-57337740D02*
X157629360Y-56992740D01*
G75*
G02*
X157776860Y-56845240I147500J0D01*
G01*
X158071860Y-56845240D01*
G75*
G02*
X158219360Y-56992740I0J-147500D01*
G01*
X158219360Y-57337740D01*
G75*
G02*
X158071860Y-57485240I-147500J0D01*
G01*
X157776860Y-57485240D01*
G75*
G02*
X157629360Y-57337740I0J147500D01*
G01*
G37*
%TD.AperFunction*%
%TO.P,R130,1*%
%TO.N,Net-(R114-Pad2)*%
%TA.AperFunction,SMDPad,CuDef*%
G36*
G01*
X156659360Y-57337740D02*
X156659360Y-56992740D01*
G75*
G02*
X156806860Y-56845240I147500J0D01*
G01*
X157101860Y-56845240D01*
G75*
G02*
X157249360Y-56992740I0J-147500D01*
G01*
X157249360Y-57337740D01*
G75*
G02*
X157101860Y-57485240I-147500J0D01*
G01*
X156806860Y-57485240D01*
G75*
G02*
X156659360Y-57337740I0J147500D01*
G01*
G37*
%TD.AperFunction*%
%TD*%
%TO.P,R132,1*%
%TO.N,Net-(R130-Pad2)*%
%TA.AperFunction,SMDPad,CuDef*%
G36*
G01*
X142818900Y-36817080D02*
X142818900Y-36472080D01*
G75*
G02*
X142966400Y-36324580I147500J0D01*
G01*
X143261400Y-36324580D01*
G75*
G02*
X143408900Y-36472080I0J-147500D01*
G01*
X143408900Y-36817080D01*
G75*
G02*
X143261400Y-36964580I-147500J0D01*
G01*
X142966400Y-36964580D01*
G75*
G02*
X142818900Y-36817080I0J147500D01*
G01*
G37*
%TD.AperFunction*%
%TO.P,R132,2*%
%TO.N,Net-(R132-Pad2)*%
%TA.AperFunction,SMDPad,CuDef*%
G36*
G01*
X143788900Y-36817080D02*
X143788900Y-36472080D01*
G75*
G02*
X143936400Y-36324580I147500J0D01*
G01*
X144231400Y-36324580D01*
G75*
G02*
X144378900Y-36472080I0J-147500D01*
G01*
X144378900Y-36817080D01*
G75*
G02*
X144231400Y-36964580I-147500J0D01*
G01*
X143936400Y-36964580D01*
G75*
G02*
X143788900Y-36817080I0J147500D01*
G01*
G37*
%TD.AperFunction*%
%TD*%
%TO.P,R133,2*%
%TO.N,Net-(R133-Pad2)*%
%TA.AperFunction,SMDPad,CuDef*%
G36*
G01*
X114761780Y-101328000D02*
X114761780Y-100983000D01*
G75*
G02*
X114909280Y-100835500I147500J0D01*
G01*
X115204280Y-100835500D01*
G75*
G02*
X115351780Y-100983000I0J-147500D01*
G01*
X115351780Y-101328000D01*
G75*
G02*
X115204280Y-101475500I-147500J0D01*
G01*
X114909280Y-101475500D01*
G75*
G02*
X114761780Y-101328000I0J147500D01*
G01*
G37*
%TD.AperFunction*%
%TO.P,R133,1*%
%TO.N,Net-(R131-Pad1)*%
%TA.AperFunction,SMDPad,CuDef*%
G36*
G01*
X113791780Y-101328000D02*
X113791780Y-100983000D01*
G75*
G02*
X113939280Y-100835500I147500J0D01*
G01*
X114234280Y-100835500D01*
G75*
G02*
X114381780Y-100983000I0J-147500D01*
G01*
X114381780Y-101328000D01*
G75*
G02*
X114234280Y-101475500I-147500J0D01*
G01*
X113939280Y-101475500D01*
G75*
G02*
X113791780Y-101328000I0J147500D01*
G01*
G37*
%TD.AperFunction*%
%TD*%
%TO.P,R134,1*%
%TO.N,Net-(R133-Pad2)*%
%TA.AperFunction,SMDPad,CuDef*%
G36*
G01*
X105635840Y-90469500D02*
X105635840Y-90124500D01*
G75*
G02*
X105783340Y-89977000I147500J0D01*
G01*
X106078340Y-89977000D01*
G75*
G02*
X106225840Y-90124500I0J-147500D01*
G01*
X106225840Y-90469500D01*
G75*
G02*
X106078340Y-90617000I-147500J0D01*
G01*
X105783340Y-90617000D01*
G75*
G02*
X105635840Y-90469500I0J147500D01*
G01*
G37*
%TD.AperFunction*%
%TO.P,R134,2*%
%TO.N,Net-(R134-Pad2)*%
%TA.AperFunction,SMDPad,CuDef*%
G36*
G01*
X106605840Y-90469500D02*
X106605840Y-90124500D01*
G75*
G02*
X106753340Y-89977000I147500J0D01*
G01*
X107048340Y-89977000D01*
G75*
G02*
X107195840Y-90124500I0J-147500D01*
G01*
X107195840Y-90469500D01*
G75*
G02*
X107048340Y-90617000I-147500J0D01*
G01*
X106753340Y-90617000D01*
G75*
G02*
X106605840Y-90469500I0J147500D01*
G01*
G37*
%TD.AperFunction*%
%TD*%
%TO.P,R135,2*%
%TO.N,Net-(R135-Pad2)*%
%TA.AperFunction,SMDPad,CuDef*%
G36*
G01*
X139591981Y-79928500D02*
X139591981Y-79583500D01*
G75*
G02*
X139739481Y-79436000I147500J0D01*
G01*
X140034481Y-79436000D01*
G75*
G02*
X140181981Y-79583500I0J-147500D01*
G01*
X140181981Y-79928500D01*
G75*
G02*
X140034481Y-80076000I-147500J0D01*
G01*
X139739481Y-80076000D01*
G75*
G02*
X139591981Y-79928500I0J147500D01*
G01*
G37*
%TD.AperFunction*%
%TO.P,R135,1*%
%TO.N,Net-(R134-Pad2)*%
%TA.AperFunction,SMDPad,CuDef*%
G36*
G01*
X138621981Y-79928500D02*
X138621981Y-79583500D01*
G75*
G02*
X138769481Y-79436000I147500J0D01*
G01*
X139064481Y-79436000D01*
G75*
G02*
X139211981Y-79583500I0J-147500D01*
G01*
X139211981Y-79928500D01*
G75*
G02*
X139064481Y-80076000I-147500J0D01*
G01*
X138769481Y-80076000D01*
G75*
G02*
X138621981Y-79928500I0J147500D01*
G01*
G37*
%TD.AperFunction*%
%TD*%
%TO.P,R136,1*%
%TO.N,Net-(R135-Pad2)*%
%TA.AperFunction,SMDPad,CuDef*%
G36*
G01*
X119311200Y-46293820D02*
X119311200Y-45948820D01*
G75*
G02*
X119458700Y-45801320I147500J0D01*
G01*
X119753700Y-45801320D01*
G75*
G02*
X119901200Y-45948820I0J-147500D01*
G01*
X119901200Y-46293820D01*
G75*
G02*
X119753700Y-46441320I-147500J0D01*
G01*
X119458700Y-46441320D01*
G75*
G02*
X119311200Y-46293820I0J147500D01*
G01*
G37*
%TD.AperFunction*%
%TO.P,R136,2*%
%TO.N,Net-(R136-Pad2)*%
%TA.AperFunction,SMDPad,CuDef*%
G36*
G01*
X120281200Y-46293820D02*
X120281200Y-45948820D01*
G75*
G02*
X120428700Y-45801320I147500J0D01*
G01*
X120723700Y-45801320D01*
G75*
G02*
X120871200Y-45948820I0J-147500D01*
G01*
X120871200Y-46293820D01*
G75*
G02*
X120723700Y-46441320I-147500J0D01*
G01*
X120428700Y-46441320D01*
G75*
G02*
X120281200Y-46293820I0J147500D01*
G01*
G37*
%TD.AperFunction*%
%TD*%
%TO.P,R137,2*%
%TO.N,Net-(R137-Pad2)*%
%TA.AperFunction,SMDPad,CuDef*%
G36*
G01*
X135955400Y-85816220D02*
X135955400Y-85471220D01*
G75*
G02*
X136102900Y-85323720I147500J0D01*
G01*
X136397900Y-85323720D01*
G75*
G02*
X136545400Y-85471220I0J-147500D01*
G01*
X136545400Y-85816220D01*
G75*
G02*
X136397900Y-85963720I-147500J0D01*
G01*
X136102900Y-85963720D01*
G75*
G02*
X135955400Y-85816220I0J147500D01*
G01*
G37*
%TD.AperFunction*%
%TO.P,R137,1*%
%TO.N,Net-(R136-Pad2)*%
%TA.AperFunction,SMDPad,CuDef*%
G36*
G01*
X134985400Y-85816220D02*
X134985400Y-85471220D01*
G75*
G02*
X135132900Y-85323720I147500J0D01*
G01*
X135427900Y-85323720D01*
G75*
G02*
X135575400Y-85471220I0J-147500D01*
G01*
X135575400Y-85816220D01*
G75*
G02*
X135427900Y-85963720I-147500J0D01*
G01*
X135132900Y-85963720D01*
G75*
G02*
X134985400Y-85816220I0J147500D01*
G01*
G37*
%TD.AperFunction*%
%TD*%
%TO.P,R138,2*%
%TO.N,Net-(R138-Pad2)*%
%TA.AperFunction,SMDPad,CuDef*%
G36*
G01*
X117050320Y-62519340D02*
X117050320Y-62174340D01*
G75*
G02*
X117197820Y-62026840I147500J0D01*
G01*
X117492820Y-62026840D01*
G75*
G02*
X117640320Y-62174340I0J-147500D01*
G01*
X117640320Y-62519340D01*
G75*
G02*
X117492820Y-62666840I-147500J0D01*
G01*
X117197820Y-62666840D01*
G75*
G02*
X117050320Y-62519340I0J147500D01*
G01*
G37*
%TD.AperFunction*%
%TO.P,R138,1*%
%TO.N,Net-(R137-Pad2)*%
%TA.AperFunction,SMDPad,CuDef*%
G36*
G01*
X116080320Y-62519340D02*
X116080320Y-62174340D01*
G75*
G02*
X116227820Y-62026840I147500J0D01*
G01*
X116522820Y-62026840D01*
G75*
G02*
X116670320Y-62174340I0J-147500D01*
G01*
X116670320Y-62519340D01*
G75*
G02*
X116522820Y-62666840I-147500J0D01*
G01*
X116227820Y-62666840D01*
G75*
G02*
X116080320Y-62519340I0J147500D01*
G01*
G37*
%TD.AperFunction*%
%TD*%
%TO.P,R139,2*%
%TO.N,Net-(R139-Pad2)*%
%TA.AperFunction,SMDPad,CuDef*%
G36*
G01*
X121528340Y-103342220D02*
X121528340Y-102997220D01*
G75*
G02*
X121675840Y-102849720I147500J0D01*
G01*
X121970840Y-102849720D01*
G75*
G02*
X122118340Y-102997220I0J-147500D01*
G01*
X122118340Y-103342220D01*
G75*
G02*
X121970840Y-103489720I-147500J0D01*
G01*
X121675840Y-103489720D01*
G75*
G02*
X121528340Y-103342220I0J147500D01*
G01*
G37*
%TD.AperFunction*%
%TO.P,R139,1*%
%TO.N,Net-(R138-Pad2)*%
%TA.AperFunction,SMDPad,CuDef*%
G36*
G01*
X120558340Y-103342220D02*
X120558340Y-102997220D01*
G75*
G02*
X120705840Y-102849720I147500J0D01*
G01*
X121000840Y-102849720D01*
G75*
G02*
X121148340Y-102997220I0J-147500D01*
G01*
X121148340Y-103342220D01*
G75*
G02*
X121000840Y-103489720I-147500J0D01*
G01*
X120705840Y-103489720D01*
G75*
G02*
X120558340Y-103342220I0J147500D01*
G01*
G37*
%TD.AperFunction*%
%TD*%
%TO.P,R140,1*%
%TO.N,Net-(R139-Pad2)*%
%TA.AperFunction,SMDPad,CuDef*%
G36*
G01*
X116537520Y-82938400D02*
X116537520Y-82593400D01*
G75*
G02*
X116685020Y-82445900I147500J0D01*
G01*
X116980020Y-82445900D01*
G75*
G02*
X117127520Y-82593400I0J-147500D01*
G01*
X117127520Y-82938400D01*
G75*
G02*
X116980020Y-83085900I-147500J0D01*
G01*
X116685020Y-83085900D01*
G75*
G02*
X116537520Y-82938400I0J147500D01*
G01*
G37*
%TD.AperFunction*%
%TO.P,R140,2*%
%TO.N,Net-(R140-Pad2)*%
%TA.AperFunction,SMDPad,CuDef*%
G36*
G01*
X117507520Y-82938400D02*
X117507520Y-82593400D01*
G75*
G02*
X117655020Y-82445900I147500J0D01*
G01*
X117950020Y-82445900D01*
G75*
G02*
X118097520Y-82593400I0J-147500D01*
G01*
X118097520Y-82938400D01*
G75*
G02*
X117950020Y-83085900I-147500J0D01*
G01*
X117655020Y-83085900D01*
G75*
G02*
X117507520Y-82938400I0J147500D01*
G01*
G37*
%TD.AperFunction*%
%TD*%
%TO.P,R141,2*%
%TO.N,Net-(R141-Pad2)*%
%TA.AperFunction,SMDPad,CuDef*%
G36*
G01*
X126735340Y-80908940D02*
X126735340Y-80563940D01*
G75*
G02*
X126882840Y-80416440I147500J0D01*
G01*
X127177840Y-80416440D01*
G75*
G02*
X127325340Y-80563940I0J-147500D01*
G01*
X127325340Y-80908940D01*
G75*
G02*
X127177840Y-81056440I-147500J0D01*
G01*
X126882840Y-81056440D01*
G75*
G02*
X126735340Y-80908940I0J147500D01*
G01*
G37*
%TD.AperFunction*%
%TO.P,R141,1*%
%TO.N,Net-(R140-Pad2)*%
%TA.AperFunction,SMDPad,CuDef*%
G36*
G01*
X125765340Y-80908940D02*
X125765340Y-80563940D01*
G75*
G02*
X125912840Y-80416440I147500J0D01*
G01*
X126207840Y-80416440D01*
G75*
G02*
X126355340Y-80563940I0J-147500D01*
G01*
X126355340Y-80908940D01*
G75*
G02*
X126207840Y-81056440I-147500J0D01*
G01*
X125912840Y-81056440D01*
G75*
G02*
X125765340Y-80908940I0J147500D01*
G01*
G37*
%TD.AperFunction*%
%TD*%
%TO.P,R142,1*%
%TO.N,Net-(R141-Pad2)*%
%TA.AperFunction,SMDPad,CuDef*%
G36*
G01*
X133321840Y-101813140D02*
X133321840Y-101468140D01*
G75*
G02*
X133469340Y-101320640I147500J0D01*
G01*
X133764340Y-101320640D01*
G75*
G02*
X133911840Y-101468140I0J-147500D01*
G01*
X133911840Y-101813140D01*
G75*
G02*
X133764340Y-101960640I-147500J0D01*
G01*
X133469340Y-101960640D01*
G75*
G02*
X133321840Y-101813140I0J147500D01*
G01*
G37*
%TD.AperFunction*%
%TO.P,R142,2*%
%TO.N,Net-(R142-Pad2)*%
%TA.AperFunction,SMDPad,CuDef*%
G36*
G01*
X134291840Y-101813140D02*
X134291840Y-101468140D01*
G75*
G02*
X134439340Y-101320640I147500J0D01*
G01*
X134734340Y-101320640D01*
G75*
G02*
X134881840Y-101468140I0J-147500D01*
G01*
X134881840Y-101813140D01*
G75*
G02*
X134734340Y-101960640I-147500J0D01*
G01*
X134439340Y-101960640D01*
G75*
G02*
X134291840Y-101813140I0J147500D01*
G01*
G37*
%TD.AperFunction*%
%TD*%
%TO.P,R143,2*%
%TO.N,Net-(R143-Pad2)*%
%TA.AperFunction,SMDPad,CuDef*%
G36*
G01*
X94871040Y-41340820D02*
X94871040Y-40995820D01*
G75*
G02*
X95018540Y-40848320I147500J0D01*
G01*
X95313540Y-40848320D01*
G75*
G02*
X95461040Y-40995820I0J-147500D01*
G01*
X95461040Y-41340820D01*
G75*
G02*
X95313540Y-41488320I-147500J0D01*
G01*
X95018540Y-41488320D01*
G75*
G02*
X94871040Y-41340820I0J147500D01*
G01*
G37*
%TD.AperFunction*%
%TO.P,R143,1*%
%TO.N,Net-(R142-Pad2)*%
%TA.AperFunction,SMDPad,CuDef*%
G36*
G01*
X93901040Y-41340820D02*
X93901040Y-40995820D01*
G75*
G02*
X94048540Y-40848320I147500J0D01*
G01*
X94343540Y-40848320D01*
G75*
G02*
X94491040Y-40995820I0J-147500D01*
G01*
X94491040Y-41340820D01*
G75*
G02*
X94343540Y-41488320I-147500J0D01*
G01*
X94048540Y-41488320D01*
G75*
G02*
X93901040Y-41340820I0J147500D01*
G01*
G37*
%TD.AperFunction*%
%TD*%
%TO.P,R144,1*%
%TO.N,Net-(R143-Pad2)*%
%TA.AperFunction,SMDPad,CuDef*%
G36*
G01*
X101833460Y-72694580D02*
X101833460Y-72349580D01*
G75*
G02*
X101980960Y-72202080I147500J0D01*
G01*
X102275960Y-72202080D01*
G75*
G02*
X102423460Y-72349580I0J-147500D01*
G01*
X102423460Y-72694580D01*
G75*
G02*
X102275960Y-72842080I-147500J0D01*
G01*
X101980960Y-72842080D01*
G75*
G02*
X101833460Y-72694580I0J147500D01*
G01*
G37*
%TD.AperFunction*%
%TO.P,R144,2*%
%TO.N,Net-(R132-Pad2)*%
%TA.AperFunction,SMDPad,CuDef*%
G36*
G01*
X102803460Y-72694580D02*
X102803460Y-72349580D01*
G75*
G02*
X102950960Y-72202080I147500J0D01*
G01*
X103245960Y-72202080D01*
G75*
G02*
X103393460Y-72349580I0J-147500D01*
G01*
X103393460Y-72694580D01*
G75*
G02*
X103245960Y-72842080I-147500J0D01*
G01*
X102950960Y-72842080D01*
G75*
G02*
X102803460Y-72694580I0J147500D01*
G01*
G37*
%TD.AperFunction*%
%TD*%
M02*
