%TF.GenerationSoftware,KiCad,Pcbnew,8.0.0*%
%TF.CreationDate,2024-07-08T10:29:07+03:00*%
%TF.ProjectId,heater,68656174-6572-42e6-9b69-6361645f7063,rev?*%
%TF.SameCoordinates,Original*%
%TF.FileFunction,Copper,L2,Bot*%
%TF.FilePolarity,Positive*%
%FSLAX46Y46*%
G04 Gerber Fmt 4.6, Leading zero omitted, Abs format (unit mm)*
G04 Created by KiCad (PCBNEW 8.0.0) date 2024-07-08 10:29:07*
%MOMM*%
%LPD*%
G01*
G04 APERTURE LIST*
G04 Aperture macros list*
%AMRoundRect*
0 Rectangle with rounded corners*
0 $1 Rounding radius*
0 $2 $3 $4 $5 $6 $7 $8 $9 X,Y pos of 4 corners*
0 Add a 4 corners polygon primitive as box body*
4,1,4,$2,$3,$4,$5,$6,$7,$8,$9,$2,$3,0*
0 Add four circle primitives for the rounded corners*
1,1,$1+$1,$2,$3*
1,1,$1+$1,$4,$5*
1,1,$1+$1,$6,$7*
1,1,$1+$1,$8,$9*
0 Add four rect primitives between the rounded corners*
20,1,$1+$1,$2,$3,$4,$5,0*
20,1,$1+$1,$4,$5,$6,$7,0*
20,1,$1+$1,$6,$7,$8,$9,0*
20,1,$1+$1,$8,$9,$2,$3,0*%
G04 Aperture macros list end*
%TA.AperFunction,ComponentPad*%
%ADD10R,2.000000X1.905000*%
%TD*%
%TA.AperFunction,ComponentPad*%
%ADD11O,2.000000X1.905000*%
%TD*%
%TA.AperFunction,ComponentPad*%
%ADD12C,1.400000*%
%TD*%
%TA.AperFunction,ComponentPad*%
%ADD13O,1.400000X1.400000*%
%TD*%
%TA.AperFunction,ComponentPad*%
%ADD14R,1.905000X2.000000*%
%TD*%
%TA.AperFunction,ComponentPad*%
%ADD15O,1.905000X2.000000*%
%TD*%
%TA.AperFunction,ComponentPad*%
%ADD16C,2.400000*%
%TD*%
%TA.AperFunction,ComponentPad*%
%ADD17RoundRect,0.250000X1.000000X1.000000X-1.000000X1.000000X-1.000000X-1.000000X1.000000X-1.000000X0*%
%TD*%
%TA.AperFunction,ComponentPad*%
%ADD18R,1.600000X1.600000*%
%TD*%
%TA.AperFunction,ComponentPad*%
%ADD19C,1.600000*%
%TD*%
%TA.AperFunction,ComponentPad*%
%ADD20R,1.800000X1.800000*%
%TD*%
%TA.AperFunction,ComponentPad*%
%ADD21C,1.800000*%
%TD*%
%TA.AperFunction,ComponentPad*%
%ADD22C,1.524000*%
%TD*%
%TA.AperFunction,ComponentPad*%
%ADD23R,1.700000X1.700000*%
%TD*%
%TA.AperFunction,ComponentPad*%
%ADD24O,1.700000X1.700000*%
%TD*%
%TA.AperFunction,ComponentPad*%
%ADD25R,3.960000X1.980000*%
%TD*%
%TA.AperFunction,ComponentPad*%
%ADD26O,3.960000X1.980000*%
%TD*%
%TA.AperFunction,ComponentPad*%
%ADD27O,1.800000X1.800000*%
%TD*%
%TA.AperFunction,ComponentPad*%
%ADD28R,1.980000X3.960000*%
%TD*%
%TA.AperFunction,ComponentPad*%
%ADD29O,1.980000X3.960000*%
%TD*%
%TA.AperFunction,ViaPad*%
%ADD30C,2.000000*%
%TD*%
%TA.AperFunction,Conductor*%
%ADD31C,1.000000*%
%TD*%
%TA.AperFunction,Conductor*%
%ADD32C,0.550000*%
%TD*%
G04 APERTURE END LIST*
D10*
%TO.P,Q2,1,G*%
%TO.N,/BLUE*%
X109500000Y-95040000D03*
D11*
%TO.P,Q2,2,D*%
%TO.N,/BLUE_OUT*%
X109500000Y-92500000D03*
%TO.P,Q2,3,S*%
%TO.N,GND*%
X109500000Y-89960000D03*
%TD*%
D12*
%TO.P,R6,1*%
%TO.N,Net-(D1-K)*%
X122575000Y-130445000D03*
D13*
%TO.P,R6,2*%
%TO.N,Net-(J1-Pin_1)*%
X114955000Y-130445000D03*
%TD*%
D14*
%TO.P,U3,1,GND*%
%TO.N,Net-(J1-Pin_1)*%
X119735600Y-110439200D03*
D15*
%TO.P,U3,2,VO*%
%TO.N,VCC*%
X122275600Y-110439200D03*
%TO.P,U3,3,VI*%
%TO.N,+12V*%
X124815600Y-110439200D03*
%TD*%
D14*
%TO.P,Q5,1,G*%
%TO.N,/RELAY_ONE*%
X159181800Y-103851800D03*
D15*
%TO.P,Q5,2,D*%
%TO.N,Net-(D3-A)*%
X156641800Y-103851800D03*
%TO.P,Q5,3,S*%
%TO.N,GND*%
X154101800Y-103851800D03*
%TD*%
D16*
%TO.P,K3,11*%
%TO.N,/main*%
X156019300Y-89456800D03*
%TO.P,K3,12*%
%TO.N,/common 1*%
X150019300Y-75256800D03*
%TO.P,K3,14*%
%TO.N,Net-(J4-Pin_3)*%
X162019300Y-75256800D03*
D17*
%TO.P,K3,A1*%
%TO.N,Net-(D3-A)*%
X162019300Y-87456800D03*
D16*
%TO.P,K3,A2*%
%TO.N,+12V*%
X150019300Y-87456800D03*
%TD*%
D18*
%TO.P,C2,1*%
%TO.N,VCC*%
X127040000Y-119445000D03*
D19*
%TO.P,C2,2*%
%TO.N,Net-(J1-Pin_1)*%
X124540000Y-119445000D03*
%TD*%
D20*
%TO.P,D1,1,K*%
%TO.N,Net-(D1-K)*%
X125265000Y-130445000D03*
D21*
%TO.P,D1,2,A*%
%TO.N,VCC*%
X127805000Y-130445000D03*
%TD*%
D22*
%TO.P,U1,1,3V3*%
%TO.N,+3.3V*%
X117800000Y-57997500D03*
%TO.P,U1,2,GND*%
%TO.N,GND*%
X117800000Y-60537500D03*
%TO.P,U1,3,D15*%
%TO.N,unconnected-(U1-D15-Pad3)*%
X117800000Y-63077500D03*
%TO.P,U1,4,D2*%
%TO.N,/RED*%
X117800000Y-65617500D03*
%TO.P,U1,5,D4*%
%TO.N,/GREEN*%
X117800000Y-68157500D03*
%TO.P,U1,6,RX2*%
%TO.N,unconnected-(U1-RX2-Pad6)*%
X117800000Y-70697500D03*
%TO.P,U1,7,TX2*%
%TO.N,unconnected-(U1-TX2-Pad7)*%
X117800000Y-73237500D03*
%TO.P,U1,8,D5*%
%TO.N,/BLUE*%
X117800000Y-75777500D03*
%TO.P,U1,9,D18*%
%TO.N,unconnected-(U1-D18-Pad9)*%
X117800000Y-78317500D03*
%TO.P,U1,10,D19*%
%TO.N,unconnected-(U1-D19-Pad10)*%
X117800000Y-80857500D03*
%TO.P,U1,11,D21*%
%TO.N,unconnected-(U1-D21-Pad11)*%
X117800000Y-83397500D03*
%TO.P,U1,12,RX0*%
%TO.N,unconnected-(U1-RX0-Pad12)*%
X117800000Y-85937500D03*
%TO.P,U1,13,TX0*%
%TO.N,unconnected-(U1-TX0-Pad13)*%
X117800000Y-88477500D03*
%TO.P,U1,14,D22*%
%TO.N,/RELAY_ONE*%
X117800000Y-91017500D03*
%TO.P,U1,15,D23*%
%TO.N,/RELAY_TWO*%
X117800000Y-93557500D03*
%TO.P,U1,16,EN*%
%TO.N,unconnected-(U1-EN-Pad16)*%
X117800000Y-96097500D03*
%TO.P,U1,17,VP*%
%TO.N,unconnected-(U1-VP-Pad17)*%
X117800000Y-98637500D03*
%TO.P,U1,18,VN*%
%TO.N,unconnected-(U1-VN-Pad18)*%
X117800000Y-101177500D03*
%TO.P,U1,19,D34*%
%TO.N,unconnected-(U1-D34-Pad19)*%
X143200000Y-101177500D03*
%TO.P,U1,20,D35*%
%TO.N,unconnected-(U1-D35-Pad20)*%
X143200000Y-98637500D03*
%TO.P,U1,21,D32*%
%TO.N,unconnected-(U1-D32-Pad21)*%
X143200000Y-96097500D03*
%TO.P,U1,22,D33*%
%TO.N,unconnected-(U1-D33-Pad22)*%
X143200000Y-93557500D03*
%TO.P,U1,23,D25*%
%TO.N,unconnected-(U1-D25-Pad23)*%
X143200000Y-91017500D03*
%TO.P,U1,24,D26*%
%TO.N,unconnected-(U1-D26-Pad24)*%
X143200000Y-88477500D03*
%TO.P,U1,25,D27*%
%TO.N,unconnected-(U1-D27-Pad25)*%
X143200000Y-85937500D03*
%TO.P,U1,26,D14*%
%TO.N,unconnected-(U1-D14-Pad26)*%
X143200000Y-83397500D03*
%TO.P,U1,27,D12*%
%TO.N,unconnected-(U1-D12-Pad27)*%
X143200000Y-80857500D03*
%TO.P,U1,28,D13*%
%TO.N,unconnected-(U1-D13-Pad28)*%
X143200000Y-78317500D03*
%TO.P,U1,29,GND*%
%TO.N,GND*%
X143200000Y-75777500D03*
%TO.P,U1,30,VIN*%
%TO.N,VCC*%
X143200000Y-73237500D03*
%TO.P,U1,31*%
%TO.N,N/C*%
X143200000Y-70697500D03*
%TO.P,U1,32*%
X143200000Y-68157500D03*
%TO.P,U1,33*%
X143200000Y-65617500D03*
%TO.P,U1,34*%
X143200000Y-63077500D03*
%TO.P,U1,35*%
X143200000Y-60537500D03*
%TO.P,U1,36*%
X143200000Y-57997500D03*
%TD*%
D10*
%TO.P,Q4,1,G*%
%TO.N,/RED*%
X109445000Y-68540000D03*
D11*
%TO.P,Q4,2,D*%
%TO.N,/RED_OUT*%
X109445000Y-66000000D03*
%TO.P,Q4,3,S*%
%TO.N,GND*%
X109445000Y-63460000D03*
%TD*%
D18*
%TO.P,C1,1*%
%TO.N,+12V*%
X115540000Y-119445000D03*
D19*
%TO.P,C1,2*%
%TO.N,Net-(J1-Pin_1)*%
X118040000Y-119445000D03*
%TD*%
D23*
%TO.P,J3,1,Pin_1*%
%TO.N,/GREEN_OUT*%
X97500000Y-76500000D03*
D24*
%TO.P,J3,2,Pin_2*%
%TO.N,/RED_OUT*%
X97500000Y-79040000D03*
%TO.P,J3,3,Pin_3*%
%TO.N,/BLUE_OUT*%
X97500000Y-81580000D03*
%TO.P,J3,4,Pin_4*%
%TO.N,+12V*%
X97500000Y-84120000D03*
%TD*%
D25*
%TO.P,J1,1,Pin_1*%
%TO.N,Net-(J1-Pin_1)*%
X100730000Y-122755000D03*
D26*
%TO.P,J1,2,Pin_2*%
%TO.N,+12V*%
X100730000Y-117755000D03*
%TD*%
D10*
%TO.P,Q3,1,G*%
%TO.N,/GREEN*%
X109500000Y-81540000D03*
D11*
%TO.P,Q3,2,D*%
%TO.N,/GREEN_OUT*%
X109500000Y-79000000D03*
%TO.P,Q3,3,S*%
%TO.N,GND*%
X109500000Y-76460000D03*
%TD*%
D20*
%TO.P,D2,1,K*%
%TO.N,+12V*%
X170506800Y-96256800D03*
D27*
%TO.P,D2,2,A*%
%TO.N,Net-(D2-A)*%
X180666800Y-96256800D03*
%TD*%
D20*
%TO.P,D3,1,K*%
%TO.N,+12V*%
X151006800Y-96256800D03*
D27*
%TO.P,D3,2,A*%
%TO.N,Net-(D3-A)*%
X161166800Y-96256800D03*
%TD*%
D28*
%TO.P,J2,1,Pin_1*%
%TO.N,/common 2*%
X170241800Y-60701800D03*
D29*
%TO.P,J2,2,Pin_2*%
%TO.N,/main 2*%
X175241800Y-60701800D03*
%TO.P,J2,3,Pin_3*%
%TO.N,Net-(J2-Pin_3)*%
X180241800Y-60701800D03*
%TD*%
D14*
%TO.P,Q1,1,G*%
%TO.N,/RELAY_TWO*%
X178166800Y-103756800D03*
D15*
%TO.P,Q1,2,D*%
%TO.N,Net-(D2-A)*%
X175626800Y-103756800D03*
%TO.P,Q1,3,S*%
%TO.N,GND*%
X173086800Y-103756800D03*
%TD*%
D16*
%TO.P,K1,11*%
%TO.N,/main 2*%
X176019300Y-89456800D03*
%TO.P,K1,12*%
%TO.N,/common 2*%
X170019300Y-75256800D03*
%TO.P,K1,14*%
%TO.N,Net-(J2-Pin_3)*%
X182019300Y-75256800D03*
D17*
%TO.P,K1,A1*%
%TO.N,Net-(D2-A)*%
X182019300Y-87456800D03*
D16*
%TO.P,K1,A2*%
%TO.N,+12V*%
X170019300Y-87456800D03*
%TD*%
D28*
%TO.P,J4,1,Pin_1*%
%TO.N,/common 1*%
X151086800Y-60756800D03*
D29*
%TO.P,J4,2,Pin_2*%
%TO.N,/main*%
X156086800Y-60756800D03*
%TO.P,J4,3,Pin_3*%
%TO.N,Net-(J4-Pin_3)*%
X161086800Y-60756800D03*
%TD*%
D30*
%TO.N,VCC*%
X137718800Y-102666800D03*
X137617200Y-112979200D03*
%TO.N,GND*%
X160832800Y-99364800D03*
X104660000Y-68834000D03*
X104690000Y-76070000D03*
X152857200Y-99618800D03*
X104870000Y-63680000D03*
X104750000Y-81788000D03*
%TD*%
D31*
%TO.N,Net-(D3-A)*%
X160193200Y-96256800D02*
X156641800Y-99808200D01*
X161166800Y-96256800D02*
X160193200Y-96256800D01*
X156641800Y-99808200D02*
X156641800Y-103851800D01*
%TO.N,+12V*%
X115570000Y-109778800D02*
X115570000Y-119415000D01*
X115570000Y-119415000D02*
X115540000Y-119445000D01*
X123480000Y-107570000D02*
X117778800Y-107570000D01*
X117778800Y-107570000D02*
X115570000Y-109778800D01*
X124815600Y-108905600D02*
X123480000Y-107570000D01*
X124815600Y-110439200D02*
X124815600Y-108905600D01*
%TO.N,/RELAY_TWO*%
X178166800Y-105703600D02*
X178166800Y-103756800D01*
X175240400Y-108630000D02*
X178166800Y-105703600D01*
X132920000Y-108630000D02*
X175240400Y-108630000D01*
X117847500Y-93557500D02*
X132920000Y-108630000D01*
X117800000Y-93557500D02*
X117847500Y-93557500D01*
%TO.N,/RELAY_ONE*%
X159181800Y-104521000D02*
X159181800Y-103851800D01*
X157202800Y-106500000D02*
X159181800Y-104521000D01*
X134846400Y-106500000D02*
X157202800Y-106500000D01*
X119363900Y-91017500D02*
X134846400Y-106500000D01*
X117800000Y-91017500D02*
X119363900Y-91017500D01*
%TO.N,/BLUE_OUT*%
X109230000Y-92500000D02*
X98310000Y-81580000D01*
X109500000Y-92500000D02*
X109230000Y-92500000D01*
X98310000Y-81580000D02*
X97500000Y-81580000D01*
%TO.N,GND*%
X109500000Y-88100000D02*
X109500000Y-89960000D01*
X104690000Y-83290000D02*
X109500000Y-88100000D01*
X104690000Y-81848000D02*
X104690000Y-83290000D01*
X104750000Y-81788000D02*
X104690000Y-81848000D01*
%TO.N,+12V*%
X169050000Y-56530000D02*
X166740000Y-58840000D01*
X181340000Y-56530000D02*
X169050000Y-56530000D01*
X185240000Y-60430000D02*
X181340000Y-56530000D01*
X185240000Y-102990000D02*
X185240000Y-60430000D01*
X166740000Y-58840000D02*
X166740000Y-78780000D01*
X177790800Y-110439200D02*
X185240000Y-102990000D01*
X124815600Y-110439200D02*
X177790800Y-110439200D01*
X97500000Y-114770000D02*
X100485000Y-117755000D01*
X97500000Y-84165000D02*
X97500000Y-84120000D01*
X150019300Y-95269300D02*
X151006800Y-96256800D01*
X100485000Y-117755000D02*
X100730000Y-117755000D01*
X170506800Y-96256800D02*
X170506800Y-87944300D01*
X102420000Y-119445000D02*
X115540000Y-119445000D01*
X124815600Y-110439200D02*
X124968000Y-110286800D01*
X151006800Y-96256800D02*
X153833200Y-96256800D01*
X100730000Y-117755000D02*
X102420000Y-119445000D01*
X166740000Y-78780000D02*
X166740000Y-84177500D01*
X153833200Y-96256800D02*
X158800000Y-91290000D01*
X158800000Y-91290000D02*
X158800000Y-82740000D01*
X166740000Y-84177500D02*
X170019300Y-87456800D01*
X170506800Y-87944300D02*
X170019300Y-87456800D01*
X162760000Y-78780000D02*
X166740000Y-78780000D01*
X97500000Y-84120000D02*
X97500000Y-114770000D01*
X158800000Y-82740000D02*
X162760000Y-78780000D01*
X150019300Y-87456800D02*
X150019300Y-95269300D01*
%TO.N,Net-(J1-Pin_1)*%
X107040000Y-130445000D02*
X114955000Y-130445000D01*
X118040000Y-123514000D02*
X118040000Y-119445000D01*
X100730000Y-122755000D02*
X100730000Y-124135000D01*
X100730000Y-124135000D02*
X102495000Y-125900000D01*
X124540000Y-119445000D02*
X118040000Y-119445000D01*
X119735600Y-110439200D02*
X118040000Y-112134800D01*
X118040000Y-112134800D02*
X118040000Y-119445000D01*
X114955000Y-130445000D02*
X114955000Y-126599000D01*
X102495000Y-125900000D02*
X107040000Y-130445000D01*
X114955000Y-126599000D02*
X118040000Y-123514000D01*
%TO.N,VCC*%
X137668000Y-76632000D02*
X137668000Y-102616000D01*
X127805000Y-130445000D02*
X127805000Y-120210000D01*
X122377200Y-112979200D02*
X122275600Y-113080800D01*
X122275600Y-112064800D02*
X122275600Y-110439200D01*
X127805000Y-120210000D02*
X127040000Y-119445000D01*
X141062500Y-73237500D02*
X137668000Y-76632000D01*
X122275600Y-113080800D02*
X122275600Y-114680600D01*
X143114500Y-73152000D02*
X143200000Y-73237500D01*
X122275600Y-110439200D02*
X122275600Y-113080800D01*
X137668000Y-102616000D02*
X137718800Y-102666800D01*
X143200000Y-73237500D02*
X141062500Y-73237500D01*
X137617200Y-112979200D02*
X122377200Y-112979200D01*
X122275600Y-114680600D02*
X127040000Y-119445000D01*
%TO.N,Net-(D1-K)*%
X122575000Y-130445000D02*
X125265000Y-130445000D01*
%TO.N,Net-(D2-A)*%
X182019300Y-87456800D02*
X182019300Y-94904300D01*
X175626800Y-101296800D02*
X180666800Y-96256800D01*
X182019300Y-94904300D02*
X180666800Y-96256800D01*
X175626800Y-103756800D02*
X175626800Y-101296800D01*
%TO.N,Net-(D3-A)*%
X162019300Y-87456800D02*
X162019300Y-95404300D01*
X162019300Y-95404300D02*
X161166800Y-96256800D01*
%TO.N,/GREEN*%
X112500000Y-80000000D02*
X112500000Y-73457500D01*
X109500000Y-81540000D02*
X110960000Y-81540000D01*
X110960000Y-81540000D02*
X112500000Y-80000000D01*
X112500000Y-73457500D02*
X117800000Y-68157500D01*
%TO.N,/RED*%
X114882500Y-65617500D02*
X117800000Y-65617500D01*
X111960000Y-68540000D02*
X114882500Y-65617500D01*
X109445000Y-68540000D02*
X111960000Y-68540000D01*
%TO.N,/BLUE*%
X114500000Y-79077500D02*
X117800000Y-75777500D01*
X114500000Y-90040000D02*
X114500000Y-79077500D01*
X109500000Y-95040000D02*
X114500000Y-90040000D01*
%TO.N,GND*%
X112462500Y-60537500D02*
X117800000Y-60537500D01*
X104690000Y-68864000D02*
X104690000Y-76070000D01*
X104870000Y-63680000D02*
X109225000Y-63680000D01*
X109445000Y-63460000D02*
X109540000Y-63460000D01*
X160832800Y-99364800D02*
X169570400Y-99364800D01*
X143200000Y-75777500D02*
X146878900Y-75777500D01*
X104690000Y-76070000D02*
X109110000Y-76070000D01*
X169570400Y-99364800D02*
X173086800Y-102881200D01*
X149063800Y-103851800D02*
X154101800Y-103851800D01*
X109540000Y-63460000D02*
X112462500Y-60537500D01*
X146913600Y-58267600D02*
X146913600Y-101701600D01*
X104660000Y-68834000D02*
X104690000Y-68864000D01*
X144475200Y-55829200D02*
X146913600Y-58267600D01*
X152857200Y-99618800D02*
X152603200Y-99364800D01*
X117800000Y-60537500D02*
X122508300Y-55829200D01*
X122508300Y-55829200D02*
X144475200Y-55829200D01*
X146913600Y-101701600D02*
X149063800Y-103851800D01*
X152603200Y-99364800D02*
X146913600Y-99364800D01*
X109110000Y-76070000D02*
X109500000Y-76460000D01*
X109225000Y-63680000D02*
X109445000Y-63460000D01*
X173086800Y-102881200D02*
X173086800Y-103756800D01*
D32*
%TO.N,/RELAY_ONE*%
X159196300Y-103866300D02*
X159181800Y-103851800D01*
D31*
%TO.N,/GREEN_OUT*%
X109460000Y-79040000D02*
X109500000Y-79000000D01*
X100325200Y-76500000D02*
X97500000Y-76500000D01*
X109500000Y-79000000D02*
X102825200Y-79000000D01*
X102825200Y-79000000D02*
X100325200Y-76500000D01*
%TO.N,/RED_OUT*%
X101780800Y-65989200D02*
X109434200Y-65989200D01*
X94945200Y-77687281D02*
X94945200Y-72824800D01*
X94945200Y-72824800D02*
X101780800Y-65989200D01*
X109434200Y-65989200D02*
X109445000Y-66000000D01*
X97500000Y-79040000D02*
X96297919Y-79040000D01*
X96297919Y-79040000D02*
X94945200Y-77687281D01*
%TO.N,/common 2*%
X170241800Y-75034300D02*
X170241800Y-60601800D01*
X170019300Y-75256800D02*
X170241800Y-75034300D01*
%TO.N,/main 2*%
X178110000Y-87366100D02*
X178110000Y-63470000D01*
X178110000Y-63470000D02*
X175241800Y-60601800D01*
X176019300Y-89456800D02*
X178110000Y-87366100D01*
%TO.N,/common 1*%
X150019300Y-61824300D02*
X151086800Y-60756800D01*
X150019300Y-75256800D02*
X150019300Y-61824300D01*
%TO.N,/main*%
X156019300Y-60824300D02*
X156086800Y-60756800D01*
X156019300Y-89456800D02*
X156019300Y-60824300D01*
%TO.N,Net-(J2-Pin_3)*%
X182019300Y-62479300D02*
X180586800Y-61046800D01*
X182019300Y-75256800D02*
X182019300Y-62479300D01*
%TO.N,Net-(J4-Pin_3)*%
X159930000Y-61913600D02*
X161086800Y-60756800D01*
X159930000Y-73167500D02*
X159930000Y-61913600D01*
X162019300Y-75256800D02*
X159930000Y-73167500D01*
%TD*%
M02*
