G04 (created by PCBNEW-RS274X (2011-04-29 BZR 2986)-stable) date 6/3/2013 5:37:02 PM*
G01*
G70*
G90*
%MOIN*%
G04 Gerber Fmt 3.4, Leading zero omitted, Abs format*
%FSLAX34Y34*%
G04 APERTURE LIST*
%ADD10C,0.006000*%
%ADD11C,0.080000*%
%ADD12R,0.100000X0.100000*%
%ADD13C,0.090000*%
%ADD14R,0.090000X0.062000*%
%ADD15O,0.090000X0.062000*%
%ADD16O,0.062000X0.090000*%
%ADD17O,0.075000X0.085000*%
%ADD18R,0.080000X0.080000*%
%ADD19O,0.085000X0.075000*%
%ADD20C,0.100000*%
%ADD21C,0.200000*%
%ADD22O,0.065000X0.080000*%
%ADD23O,0.100000X0.190000*%
%ADD24C,0.070000*%
%ADD25C,0.040000*%
%ADD26C,0.030000*%
G04 APERTURE END LIST*
G54D10*
G54D11*
X68870Y-71580D03*
X67870Y-71580D03*
X66870Y-71580D03*
X62490Y-46540D03*
X62490Y-47540D03*
X62491Y-48536D03*
X65390Y-48540D03*
X65390Y-47540D03*
X65390Y-46540D03*
G54D12*
X36400Y-42800D03*
X47400Y-42800D03*
X47400Y-50800D03*
X47400Y-52800D03*
X36400Y-52800D03*
X47400Y-44800D03*
G54D13*
X83850Y-24200D03*
X82850Y-25381D03*
X81850Y-24200D03*
G54D14*
X50270Y-62880D03*
G54D15*
X50270Y-63880D03*
X50270Y-64880D03*
X50270Y-65880D03*
X50270Y-66880D03*
X50270Y-67880D03*
X50270Y-68880D03*
X50270Y-69880D03*
X50270Y-70880D03*
X53270Y-70880D03*
X53270Y-69880D03*
X53270Y-68880D03*
X53270Y-67880D03*
X53270Y-66880D03*
X53270Y-65880D03*
X53270Y-64880D03*
X53270Y-63880D03*
X53270Y-62880D03*
G54D14*
X67590Y-45548D03*
G54D15*
X67590Y-46548D03*
X67590Y-47548D03*
X67590Y-48548D03*
X67590Y-49548D03*
X67590Y-50548D03*
X67590Y-51548D03*
X67590Y-52548D03*
X67590Y-53548D03*
X70590Y-53548D03*
X70590Y-52548D03*
X70590Y-51548D03*
X70590Y-50548D03*
X70590Y-49548D03*
X70590Y-48548D03*
X70590Y-47548D03*
X70590Y-46548D03*
X70590Y-45548D03*
G54D11*
X53690Y-44440D03*
X51690Y-44440D03*
X51690Y-42440D03*
X53690Y-42440D03*
X53590Y-49640D03*
X51590Y-49640D03*
X51590Y-47640D03*
X53590Y-47640D03*
G54D16*
X66090Y-44540D03*
X65090Y-44540D03*
X61990Y-44540D03*
X62990Y-44540D03*
G54D17*
X68970Y-67263D03*
X66970Y-67263D03*
G54D11*
X60380Y-66940D03*
X60380Y-68940D03*
X72910Y-46225D03*
X72910Y-48225D03*
G54D18*
X68540Y-22840D03*
G54D11*
X65540Y-22840D03*
G54D18*
X60690Y-22890D03*
G54D11*
X57690Y-22890D03*
G54D18*
X52790Y-22940D03*
G54D11*
X49790Y-22940D03*
G54D18*
X36540Y-22990D03*
G54D11*
X33540Y-22990D03*
G54D18*
X45190Y-22990D03*
G54D11*
X42190Y-22990D03*
X66590Y-32298D03*
X66590Y-29298D03*
X67590Y-29298D03*
X67590Y-32298D03*
X58590Y-32298D03*
X58590Y-29298D03*
X59590Y-29298D03*
X59590Y-32298D03*
X50590Y-32298D03*
X50590Y-29298D03*
X51590Y-29298D03*
X51590Y-32298D03*
X43090Y-32298D03*
X43090Y-29298D03*
X44090Y-29298D03*
X44090Y-32298D03*
X34590Y-32298D03*
X34590Y-29298D03*
X35590Y-29298D03*
X35590Y-32298D03*
X59190Y-27740D03*
X59190Y-26740D03*
X67090Y-27798D03*
X67090Y-26798D03*
X51390Y-27790D03*
X51390Y-26790D03*
X43940Y-27790D03*
X43940Y-26790D03*
X34990Y-27840D03*
X34990Y-26840D03*
G54D17*
X60570Y-63480D03*
X58570Y-63480D03*
G54D19*
X64390Y-43140D03*
X64390Y-41140D03*
G54D18*
X69590Y-26048D03*
X69590Y-29048D03*
X55195Y-25920D03*
X55195Y-28920D03*
X47185Y-25845D03*
X47185Y-28845D03*
X38840Y-25798D03*
X38840Y-28798D03*
X62170Y-69780D03*
X62170Y-66780D03*
X55070Y-68880D03*
X58070Y-68880D03*
X55070Y-69880D03*
X58070Y-69880D03*
X70590Y-43840D03*
X67590Y-43840D03*
X37340Y-25798D03*
X37340Y-28798D03*
X34557Y-36743D03*
X34557Y-33743D03*
X43090Y-33798D03*
X43090Y-36798D03*
X50590Y-33798D03*
X50590Y-36798D03*
X58590Y-33798D03*
X58590Y-36798D03*
X55070Y-70880D03*
X58070Y-70880D03*
G54D20*
X28650Y-48000D03*
X28650Y-46000D03*
X65290Y-53240D03*
X63290Y-53240D03*
X62670Y-63680D03*
X64670Y-63680D03*
X66870Y-63680D03*
X68870Y-63680D03*
G54D11*
X53970Y-73180D03*
X54970Y-73180D03*
X55970Y-73180D03*
X56970Y-73180D03*
X57970Y-73180D03*
X58970Y-73180D03*
X59970Y-73180D03*
X60970Y-73180D03*
X67090Y-42640D03*
X71090Y-42640D03*
X63670Y-70080D03*
X63670Y-66080D03*
X65170Y-70080D03*
X65170Y-66080D03*
X67090Y-41340D03*
X71090Y-41340D03*
X73490Y-53540D03*
X71915Y-53540D03*
X71890Y-50340D03*
X73465Y-50340D03*
X73490Y-51940D03*
X71915Y-51940D03*
G54D13*
X35990Y-24240D03*
X34990Y-25421D03*
X33990Y-24240D03*
X44940Y-24190D03*
X43940Y-25371D03*
X42940Y-24190D03*
X52340Y-24240D03*
X51340Y-25421D03*
X50340Y-24240D03*
X60190Y-24240D03*
X59190Y-25421D03*
X58190Y-24240D03*
G54D20*
X57790Y-42040D03*
G54D12*
X57790Y-44040D03*
G54D20*
X57790Y-47740D03*
G54D12*
X57790Y-49740D03*
G54D11*
X57270Y-65880D03*
X55695Y-65880D03*
X55670Y-64380D03*
X57245Y-64380D03*
X55670Y-62880D03*
X57245Y-62880D03*
X68670Y-69980D03*
X67095Y-69980D03*
X65170Y-73080D03*
X63595Y-73080D03*
G54D21*
X31700Y-51650D03*
X31700Y-43150D03*
G54D20*
X61250Y-53250D03*
X59250Y-53250D03*
G54D11*
X82750Y-27800D03*
X82750Y-26800D03*
X75000Y-27800D03*
G54D22*
X75000Y-26800D03*
G54D11*
X74500Y-32300D03*
X74500Y-29300D03*
X75500Y-29300D03*
X75500Y-32300D03*
X82250Y-32300D03*
X82250Y-29300D03*
X83250Y-29300D03*
X83250Y-32300D03*
G54D18*
X76650Y-22900D03*
G54D11*
X73650Y-22900D03*
G54D18*
X84250Y-22900D03*
G54D11*
X81250Y-22900D03*
G54D13*
X68100Y-24200D03*
X67100Y-25381D03*
X66100Y-24200D03*
X76000Y-24200D03*
X75000Y-25381D03*
X74000Y-24200D03*
G54D18*
X66600Y-33800D03*
X66600Y-36800D03*
X74650Y-33600D03*
X74650Y-36600D03*
X82300Y-33700D03*
X82300Y-36700D03*
G54D17*
X55900Y-40050D03*
X51000Y-40050D03*
G54D18*
X55080Y-67880D03*
X58080Y-67880D03*
X77500Y-25800D03*
X77500Y-28800D03*
X85300Y-26100D03*
X85300Y-29100D03*
G54D20*
X73200Y-10800D03*
X75200Y-10800D03*
X77200Y-10800D03*
X65600Y-10800D03*
X67600Y-10800D03*
X69600Y-10800D03*
X57600Y-10800D03*
X59600Y-10800D03*
X61600Y-10800D03*
X49600Y-10800D03*
X51600Y-10800D03*
X53600Y-10800D03*
X41600Y-10800D03*
X43600Y-10800D03*
X45600Y-10800D03*
X33600Y-10800D03*
X35600Y-10800D03*
X37600Y-10800D03*
X81000Y-10800D03*
X83000Y-10800D03*
X85000Y-10800D03*
G54D23*
X77700Y-20300D03*
X73100Y-20300D03*
X73100Y-15300D03*
X77700Y-15300D03*
X75400Y-21300D03*
X85200Y-20300D03*
X80600Y-20300D03*
X80600Y-15300D03*
X85200Y-15300D03*
X82900Y-21300D03*
X37900Y-20300D03*
X33300Y-20300D03*
X33300Y-15300D03*
X37900Y-15300D03*
X35600Y-21300D03*
X45900Y-20300D03*
X41300Y-20300D03*
X41300Y-15300D03*
X45900Y-15300D03*
X43600Y-21300D03*
X53900Y-20300D03*
X49300Y-20300D03*
X49300Y-15300D03*
X53900Y-15300D03*
X51600Y-21300D03*
X61900Y-20300D03*
X57300Y-20300D03*
X57300Y-15300D03*
X61900Y-15300D03*
X59600Y-21300D03*
X69900Y-20300D03*
X65300Y-20300D03*
X65300Y-15300D03*
X69900Y-15300D03*
X67600Y-21300D03*
G54D24*
X74500Y-55100D03*
X78800Y-55100D03*
X72850Y-43300D03*
X72850Y-39250D03*
X78850Y-43250D03*
X74550Y-43250D03*
X62648Y-42059D03*
X73650Y-39250D03*
X73650Y-43300D03*
X62657Y-36800D03*
X61000Y-42100D03*
X61000Y-36800D03*
G54D25*
X74500Y-55100D02*
X75250Y-55100D01*
X75250Y-55100D02*
X78800Y-55100D01*
G54D26*
X72850Y-43300D02*
X72850Y-39250D01*
X74550Y-43250D02*
X78850Y-43250D01*
X62657Y-42050D02*
X62648Y-42059D01*
X73650Y-43300D02*
X73650Y-39250D01*
X62657Y-42050D02*
X62657Y-36800D01*
X61000Y-42100D02*
X61000Y-36800D01*
X61000Y-36800D02*
X61000Y-36800D01*
M02*
