G04 (created by PCBNEW-RS274X (2011-04-29 BZR 2986)-stable) date 6/3/2013 5:37:02 PM*
G01*
G70*
G90*
%MOIN*%
G04 Gerber Fmt 3.4, Leading zero omitted, Abs format*
%FSLAX34Y34*%
G04 APERTURE LIST*
%ADD10C,0.006000*%
%ADD11C,0.080000*%
%ADD12R,0.100000X0.100000*%
%ADD13C,0.090000*%
%ADD14R,0.090000X0.062000*%
%ADD15O,0.090000X0.062000*%
%ADD16O,0.062000X0.090000*%
%ADD17O,0.075000X0.085000*%
%ADD18R,0.080000X0.080000*%
%ADD19O,0.085000X0.075000*%
%ADD20C,0.100000*%
%ADD21C,0.200000*%
%ADD22O,0.065000X0.080000*%
%ADD23O,0.100000X0.190000*%
%ADD24C,0.070000*%
%ADD25C,0.040000*%
%ADD26C,0.020000*%
%ADD27C,0.015000*%
%ADD28C,0.030000*%
%ADD29C,0.025000*%
%ADD30C,0.120000*%
G04 APERTURE END LIST*
G54D10*
G54D11*
X68870Y-71580D03*
X67870Y-71580D03*
X66870Y-71580D03*
X62490Y-46540D03*
X62490Y-47540D03*
X62491Y-48536D03*
X65390Y-48540D03*
X65390Y-47540D03*
X65390Y-46540D03*
G54D12*
X36400Y-42800D03*
X47400Y-42800D03*
X47400Y-50800D03*
X47400Y-52800D03*
X36400Y-52800D03*
X47400Y-44800D03*
G54D13*
X83850Y-24200D03*
X82850Y-25381D03*
X81850Y-24200D03*
G54D14*
X50270Y-62880D03*
G54D15*
X50270Y-63880D03*
X50270Y-64880D03*
X50270Y-65880D03*
X50270Y-66880D03*
X50270Y-67880D03*
X50270Y-68880D03*
X50270Y-69880D03*
X50270Y-70880D03*
X53270Y-70880D03*
X53270Y-69880D03*
X53270Y-68880D03*
X53270Y-67880D03*
X53270Y-66880D03*
X53270Y-65880D03*
X53270Y-64880D03*
X53270Y-63880D03*
X53270Y-62880D03*
G54D14*
X67590Y-45548D03*
G54D15*
X67590Y-46548D03*
X67590Y-47548D03*
X67590Y-48548D03*
X67590Y-49548D03*
X67590Y-50548D03*
X67590Y-51548D03*
X67590Y-52548D03*
X67590Y-53548D03*
X70590Y-53548D03*
X70590Y-52548D03*
X70590Y-51548D03*
X70590Y-50548D03*
X70590Y-49548D03*
X70590Y-48548D03*
X70590Y-47548D03*
X70590Y-46548D03*
X70590Y-45548D03*
G54D11*
X53690Y-44440D03*
X51690Y-44440D03*
X51690Y-42440D03*
X53690Y-42440D03*
X53590Y-49640D03*
X51590Y-49640D03*
X51590Y-47640D03*
X53590Y-47640D03*
G54D16*
X66090Y-44540D03*
X65090Y-44540D03*
X61990Y-44540D03*
X62990Y-44540D03*
G54D17*
X68970Y-67263D03*
X66970Y-67263D03*
G54D11*
X60380Y-66940D03*
X60380Y-68940D03*
X72910Y-46225D03*
X72910Y-48225D03*
G54D18*
X68540Y-22840D03*
G54D11*
X65540Y-22840D03*
G54D18*
X60690Y-22890D03*
G54D11*
X57690Y-22890D03*
G54D18*
X52790Y-22940D03*
G54D11*
X49790Y-22940D03*
G54D18*
X36540Y-22990D03*
G54D11*
X33540Y-22990D03*
G54D18*
X45190Y-22990D03*
G54D11*
X42190Y-22990D03*
X66590Y-32298D03*
X66590Y-29298D03*
X67590Y-29298D03*
X67590Y-32298D03*
X58590Y-32298D03*
X58590Y-29298D03*
X59590Y-29298D03*
X59590Y-32298D03*
X50590Y-32298D03*
X50590Y-29298D03*
X51590Y-29298D03*
X51590Y-32298D03*
X43090Y-32298D03*
X43090Y-29298D03*
X44090Y-29298D03*
X44090Y-32298D03*
X34590Y-32298D03*
X34590Y-29298D03*
X35590Y-29298D03*
X35590Y-32298D03*
X59190Y-27740D03*
X59190Y-26740D03*
X67090Y-27798D03*
X67090Y-26798D03*
X51390Y-27790D03*
X51390Y-26790D03*
X43940Y-27790D03*
X43940Y-26790D03*
X34990Y-27840D03*
X34990Y-26840D03*
G54D17*
X60570Y-63480D03*
X58570Y-63480D03*
G54D19*
X64390Y-43140D03*
X64390Y-41140D03*
G54D18*
X69590Y-26048D03*
X69590Y-29048D03*
X55195Y-25920D03*
X55195Y-28920D03*
X47185Y-25845D03*
X47185Y-28845D03*
X38840Y-25798D03*
X38840Y-28798D03*
X62170Y-69780D03*
X62170Y-66780D03*
X55070Y-68880D03*
X58070Y-68880D03*
X55070Y-69880D03*
X58070Y-69880D03*
X70590Y-43840D03*
X67590Y-43840D03*
X37340Y-25798D03*
X37340Y-28798D03*
X34557Y-36743D03*
X34557Y-33743D03*
X43090Y-33798D03*
X43090Y-36798D03*
X50590Y-33798D03*
X50590Y-36798D03*
X58590Y-33798D03*
X58590Y-36798D03*
X55070Y-70880D03*
X58070Y-70880D03*
G54D20*
X28650Y-48000D03*
X28650Y-46000D03*
X65290Y-53240D03*
X63290Y-53240D03*
X62670Y-63680D03*
X64670Y-63680D03*
X66870Y-63680D03*
X68870Y-63680D03*
G54D11*
X53970Y-73180D03*
X54970Y-73180D03*
X55970Y-73180D03*
X56970Y-73180D03*
X57970Y-73180D03*
X58970Y-73180D03*
X59970Y-73180D03*
X60970Y-73180D03*
X67090Y-42640D03*
X71090Y-42640D03*
X63670Y-70080D03*
X63670Y-66080D03*
X65170Y-70080D03*
X65170Y-66080D03*
X67090Y-41340D03*
X71090Y-41340D03*
X73490Y-53540D03*
X71915Y-53540D03*
X71890Y-50340D03*
X73465Y-50340D03*
X73490Y-51940D03*
X71915Y-51940D03*
G54D13*
X35990Y-24240D03*
X34990Y-25421D03*
X33990Y-24240D03*
X44940Y-24190D03*
X43940Y-25371D03*
X42940Y-24190D03*
X52340Y-24240D03*
X51340Y-25421D03*
X50340Y-24240D03*
X60190Y-24240D03*
X59190Y-25421D03*
X58190Y-24240D03*
G54D20*
X57790Y-42040D03*
G54D12*
X57790Y-44040D03*
G54D20*
X57790Y-47740D03*
G54D12*
X57790Y-49740D03*
G54D11*
X57270Y-65880D03*
X55695Y-65880D03*
X55670Y-64380D03*
X57245Y-64380D03*
X55670Y-62880D03*
X57245Y-62880D03*
X68670Y-69980D03*
X67095Y-69980D03*
X65170Y-73080D03*
X63595Y-73080D03*
G54D21*
X31700Y-51650D03*
X31700Y-43150D03*
G54D20*
X61250Y-53250D03*
X59250Y-53250D03*
G54D11*
X82750Y-27800D03*
X82750Y-26800D03*
X75000Y-27800D03*
G54D22*
X75000Y-26800D03*
G54D11*
X74500Y-32300D03*
X74500Y-29300D03*
X75500Y-29300D03*
X75500Y-32300D03*
X82250Y-32300D03*
X82250Y-29300D03*
X83250Y-29300D03*
X83250Y-32300D03*
G54D18*
X76650Y-22900D03*
G54D11*
X73650Y-22900D03*
G54D18*
X84250Y-22900D03*
G54D11*
X81250Y-22900D03*
G54D13*
X68100Y-24200D03*
X67100Y-25381D03*
X66100Y-24200D03*
X76000Y-24200D03*
X75000Y-25381D03*
X74000Y-24200D03*
G54D18*
X66600Y-33800D03*
X66600Y-36800D03*
X74650Y-33600D03*
X74650Y-36600D03*
X82300Y-33700D03*
X82300Y-36700D03*
G54D17*
X55900Y-40050D03*
X51000Y-40050D03*
G54D18*
X55080Y-67880D03*
X58080Y-67880D03*
X77500Y-25800D03*
X77500Y-28800D03*
X85300Y-26100D03*
X85300Y-29100D03*
G54D20*
X73200Y-10800D03*
X75200Y-10800D03*
X77200Y-10800D03*
X65600Y-10800D03*
X67600Y-10800D03*
X69600Y-10800D03*
X57600Y-10800D03*
X59600Y-10800D03*
X61600Y-10800D03*
X49600Y-10800D03*
X51600Y-10800D03*
X53600Y-10800D03*
X41600Y-10800D03*
X43600Y-10800D03*
X45600Y-10800D03*
X33600Y-10800D03*
X35600Y-10800D03*
X37600Y-10800D03*
X81000Y-10800D03*
X83000Y-10800D03*
X85000Y-10800D03*
G54D23*
X77700Y-20300D03*
X73100Y-20300D03*
X73100Y-15300D03*
X77700Y-15300D03*
X75400Y-21300D03*
X85200Y-20300D03*
X80600Y-20300D03*
X80600Y-15300D03*
X85200Y-15300D03*
X82900Y-21300D03*
X37900Y-20300D03*
X33300Y-20300D03*
X33300Y-15300D03*
X37900Y-15300D03*
X35600Y-21300D03*
X45900Y-20300D03*
X41300Y-20300D03*
X41300Y-15300D03*
X45900Y-15300D03*
X43600Y-21300D03*
X53900Y-20300D03*
X49300Y-20300D03*
X49300Y-15300D03*
X53900Y-15300D03*
X51600Y-21300D03*
X61900Y-20300D03*
X57300Y-20300D03*
X57300Y-15300D03*
X61900Y-15300D03*
X59600Y-21300D03*
X69900Y-20300D03*
X65300Y-20300D03*
X65300Y-15300D03*
X69900Y-15300D03*
X67600Y-21300D03*
G54D24*
X74500Y-55100D03*
X78800Y-55100D03*
X72850Y-43300D03*
X72850Y-39250D03*
X78850Y-43250D03*
X74550Y-43250D03*
X62648Y-42059D03*
X73650Y-39250D03*
X73650Y-43300D03*
X62657Y-36800D03*
X61000Y-42100D03*
X61000Y-36800D03*
G54D25*
X37900Y-20300D02*
X37900Y-22930D01*
X37840Y-22990D02*
X37340Y-22990D01*
X37900Y-22930D02*
X37840Y-22990D01*
X39365Y-20265D02*
X37935Y-20265D01*
X37935Y-20265D02*
X37900Y-20300D01*
X39590Y-10190D02*
X39590Y-20040D01*
X47640Y-10240D02*
X46990Y-09590D01*
X46990Y-09590D02*
X40190Y-09590D01*
X40190Y-09590D02*
X39590Y-10190D01*
X47640Y-10340D02*
X47640Y-10240D01*
X39590Y-20040D02*
X39365Y-20265D01*
X39365Y-20265D02*
X39340Y-20290D01*
X45900Y-20300D02*
X45900Y-22990D01*
X47240Y-20290D02*
X45910Y-20290D01*
X47640Y-19890D02*
X47240Y-20290D01*
X47640Y-10340D02*
X47640Y-19890D01*
X45910Y-20290D02*
X45900Y-20300D01*
X45790Y-22990D02*
X45900Y-22990D01*
X45900Y-22990D02*
X45190Y-22990D01*
X53900Y-20300D02*
X53900Y-22940D01*
X53640Y-22940D02*
X52790Y-22940D01*
X53900Y-22940D02*
X53640Y-22940D01*
X55140Y-20290D02*
X53910Y-20290D01*
X55640Y-10340D02*
X55640Y-19790D01*
X55640Y-19790D02*
X55140Y-20290D01*
X53910Y-20290D02*
X53900Y-20300D01*
X61900Y-22600D02*
X61610Y-22890D01*
X62865Y-20265D02*
X61935Y-20265D01*
X61935Y-20265D02*
X61900Y-20300D01*
X69900Y-20300D02*
X69900Y-22600D01*
X69660Y-22840D02*
X69190Y-22840D01*
X69900Y-22600D02*
X69660Y-22840D01*
X71065Y-20265D02*
X69935Y-20265D01*
X69935Y-20265D02*
X69900Y-20300D01*
X86750Y-20200D02*
X85300Y-20200D01*
X85300Y-20200D02*
X85200Y-20300D01*
X76650Y-22900D02*
X77500Y-22900D01*
X77700Y-22700D02*
X77700Y-20300D01*
X77500Y-22900D02*
X77700Y-22700D01*
X78550Y-20250D02*
X77750Y-20250D01*
X77750Y-20250D02*
X77700Y-20300D01*
X79000Y-10300D02*
X79000Y-19800D01*
X79000Y-19800D02*
X78550Y-20250D01*
X84250Y-22900D02*
X84850Y-22900D01*
X84850Y-22900D02*
X85200Y-22550D01*
X85200Y-22550D02*
X85200Y-20300D01*
X85250Y-23300D02*
X85250Y-26050D01*
X85250Y-26050D02*
X85300Y-26100D01*
X84850Y-22900D02*
X85250Y-23300D01*
X60560Y-58350D02*
X57790Y-58350D01*
X60544Y-48536D02*
X57640Y-51440D01*
X57640Y-51440D02*
X57640Y-55540D01*
X60544Y-48536D02*
X62491Y-48536D01*
X57640Y-58200D02*
X57640Y-55540D01*
X57790Y-58350D02*
X57640Y-58200D01*
X84950Y-58350D02*
X60560Y-58350D01*
X60560Y-58350D02*
X60500Y-58350D01*
X86750Y-56550D02*
X86750Y-20200D01*
X86750Y-20200D02*
X86750Y-20050D01*
X86750Y-56550D02*
X84950Y-58350D01*
X79000Y-10300D02*
X79500Y-09800D01*
X79500Y-09800D02*
X85750Y-09800D01*
X85750Y-09800D02*
X86750Y-10800D01*
X86750Y-10800D02*
X86750Y-20050D01*
X77500Y-09840D02*
X78540Y-09840D01*
X78540Y-09840D02*
X79000Y-10300D01*
X76650Y-22900D02*
X77350Y-22900D01*
X77500Y-23050D02*
X77500Y-25800D01*
X77350Y-22900D02*
X77500Y-23050D01*
X77577Y-09840D02*
X77500Y-09840D01*
X77500Y-09840D02*
X75490Y-09840D01*
X75490Y-09840D02*
X71890Y-09840D01*
X71440Y-10290D02*
X71890Y-09840D01*
X48340Y-09590D02*
X47640Y-10290D01*
X61610Y-22890D02*
X60690Y-22890D01*
X63590Y-10290D02*
X63490Y-10290D01*
X55590Y-10340D02*
X54840Y-09590D01*
X56240Y-09640D02*
X55640Y-10240D01*
X62840Y-09640D02*
X56240Y-09640D01*
X54840Y-09590D02*
X48340Y-09590D01*
X63490Y-10290D02*
X62840Y-09640D01*
X63590Y-19540D02*
X62865Y-20265D01*
X62865Y-20265D02*
X62840Y-20290D01*
X63590Y-10140D02*
X63590Y-10290D01*
X47640Y-10290D02*
X47640Y-10340D01*
X69590Y-26048D02*
X69590Y-23240D01*
X69590Y-23240D02*
X69190Y-22840D01*
X71040Y-20290D02*
X71065Y-20265D01*
X71065Y-20265D02*
X71440Y-19890D01*
X71440Y-19890D02*
X71440Y-10290D01*
X71440Y-10290D02*
X70840Y-09690D01*
X70840Y-09690D02*
X64040Y-09690D01*
X64040Y-09690D02*
X63590Y-10140D01*
X69190Y-22840D02*
X68540Y-22840D01*
X63590Y-10290D02*
X63590Y-19540D01*
X55640Y-10340D02*
X55590Y-10340D01*
X37340Y-25798D02*
X38840Y-25798D01*
X55195Y-23545D02*
X55195Y-25920D01*
X54590Y-22940D02*
X55195Y-23545D01*
X52790Y-22940D02*
X54590Y-22940D01*
X55640Y-10240D02*
X55640Y-10340D01*
X37340Y-25798D02*
X37340Y-22990D01*
X37340Y-22990D02*
X36540Y-22990D01*
X47185Y-25845D02*
X47185Y-23335D01*
X46840Y-22990D02*
X45190Y-22990D01*
X47185Y-23335D02*
X46840Y-22990D01*
X61900Y-20300D02*
X61900Y-22600D01*
G54D26*
X58930Y-70090D02*
X59230Y-70390D01*
X58930Y-67190D02*
X58930Y-70090D01*
X58880Y-67140D02*
X58930Y-67190D01*
X53270Y-66880D02*
X53520Y-66880D01*
X53520Y-66880D02*
X53780Y-67140D01*
G54D25*
X65170Y-71980D02*
X65170Y-73080D01*
G54D27*
X65170Y-71980D02*
X65170Y-73080D01*
X64870Y-71680D02*
X65170Y-71980D01*
X62170Y-71680D02*
X64270Y-71680D01*
X64270Y-71680D02*
X64870Y-71680D01*
X62170Y-69780D02*
X62170Y-70390D01*
X62170Y-70390D02*
X62170Y-71680D01*
G54D25*
X61570Y-71680D02*
X61870Y-71680D01*
X61870Y-71680D02*
X64870Y-71680D01*
X64870Y-71680D02*
X65170Y-71980D01*
X62170Y-72180D02*
X62170Y-70280D01*
X62170Y-70280D02*
X62170Y-69780D01*
X66870Y-71580D02*
X66870Y-72880D01*
X66870Y-72880D02*
X66670Y-73080D01*
X66670Y-73080D02*
X65170Y-73080D01*
G54D26*
X59230Y-70390D02*
X62170Y-70390D01*
X53780Y-67140D02*
X58880Y-67140D01*
G54D25*
X58070Y-67880D02*
X58070Y-68880D01*
X58080Y-68870D02*
X58070Y-68880D01*
X58070Y-68880D02*
X58070Y-69880D01*
X58070Y-70880D02*
X61570Y-70880D01*
X62770Y-70880D02*
X62670Y-70880D01*
X61570Y-70880D02*
X62770Y-70880D01*
X58070Y-69880D02*
X58070Y-70880D01*
X58080Y-67880D02*
X58080Y-68870D01*
G54D26*
X52470Y-72980D02*
X52470Y-64080D01*
X52670Y-63880D02*
X53270Y-63880D01*
X52670Y-73180D02*
X52470Y-72980D01*
X52470Y-64080D02*
X52670Y-63880D01*
X53970Y-73180D02*
X52670Y-73180D01*
X54970Y-73453D02*
X54659Y-73764D01*
X54970Y-73180D02*
X54970Y-73453D01*
X52330Y-62880D02*
X52046Y-63164D01*
X52354Y-73764D02*
X54659Y-73764D01*
X53270Y-62880D02*
X52330Y-62880D01*
X52046Y-73456D02*
X52354Y-73764D01*
X52046Y-63164D02*
X52046Y-73456D01*
X50890Y-62880D02*
X51410Y-62880D01*
X51604Y-73714D02*
X51604Y-63004D01*
X50890Y-62880D02*
X51065Y-62880D01*
X55955Y-73900D02*
X55685Y-74170D01*
X51410Y-62880D02*
X51480Y-62880D01*
X55685Y-74170D02*
X55055Y-74170D01*
X55055Y-74175D02*
X55055Y-74170D01*
X51410Y-62880D02*
X51105Y-62880D01*
X54439Y-74170D02*
X52060Y-74170D01*
X55055Y-74170D02*
X54439Y-74170D01*
X50270Y-62880D02*
X50890Y-62880D01*
X52060Y-74170D02*
X51604Y-73714D01*
X51480Y-62880D02*
X51604Y-63004D01*
X55970Y-73900D02*
X55955Y-73900D01*
X55970Y-73180D02*
X55970Y-73900D01*
X51230Y-64150D02*
X51230Y-74320D01*
X56770Y-74580D02*
X56970Y-74380D01*
X50326Y-63936D02*
X50270Y-63880D01*
X56970Y-73180D02*
X56970Y-74380D01*
X51490Y-74580D02*
X56770Y-74580D01*
X51230Y-74320D02*
X51490Y-74580D01*
X51016Y-63936D02*
X51230Y-64150D01*
X51016Y-63936D02*
X50326Y-63936D01*
G54D27*
X57845Y-72480D02*
X55970Y-72480D01*
X57870Y-72480D02*
X57845Y-72480D01*
G54D26*
X55770Y-71080D02*
X55570Y-70880D01*
X55570Y-70880D02*
X55070Y-70880D01*
X55970Y-72480D02*
X55770Y-72280D01*
X57970Y-73180D02*
X57970Y-72605D01*
X57845Y-72505D02*
X57845Y-72480D01*
X57870Y-72505D02*
X57845Y-72505D01*
X57970Y-72605D02*
X57870Y-72505D01*
G54D25*
X53270Y-70880D02*
X55070Y-70880D01*
G54D26*
X55770Y-72280D02*
X55770Y-71080D01*
X58970Y-73180D02*
X58970Y-72480D01*
G54D27*
X58718Y-72228D02*
X56218Y-72228D01*
G54D26*
X56177Y-70087D02*
X55970Y-69880D01*
G54D25*
X53270Y-69880D02*
X55070Y-69880D01*
G54D27*
X56218Y-72228D02*
X56177Y-72187D01*
G54D26*
X56177Y-72187D02*
X56177Y-70087D01*
X58970Y-72480D02*
X58718Y-72228D01*
X55970Y-69880D02*
X55070Y-69880D01*
G54D25*
X53270Y-68880D02*
X55070Y-68880D01*
G54D26*
X56570Y-71780D02*
X56570Y-68980D01*
X56470Y-68880D02*
X55070Y-68880D01*
X59970Y-72080D02*
X59769Y-71879D01*
X59769Y-71879D02*
X56669Y-71879D01*
X56669Y-71879D02*
X56570Y-71780D01*
X59970Y-73180D02*
X59970Y-72080D01*
X56570Y-68980D02*
X56470Y-68880D01*
G54D27*
X55170Y-68780D02*
X55070Y-68880D01*
G54D26*
X60970Y-71780D02*
X60768Y-71578D01*
X56770Y-67880D02*
X55070Y-67880D01*
X57268Y-71578D02*
X57070Y-71380D01*
G54D25*
X55080Y-67880D02*
X53270Y-67880D01*
G54D26*
X60970Y-73180D02*
X60970Y-71780D01*
X57070Y-71380D02*
X57070Y-68180D01*
X60768Y-71578D02*
X57268Y-71578D01*
G54D25*
X53270Y-67880D02*
X55070Y-67880D01*
G54D26*
X57070Y-68180D02*
X56770Y-67880D01*
G54D28*
X69390Y-54935D02*
X69399Y-54944D01*
X69502Y-56050D02*
X75800Y-56050D01*
X75977Y-55873D02*
X75977Y-54636D01*
X69390Y-51790D02*
X69390Y-54935D01*
X69399Y-54944D02*
X69399Y-55947D01*
X69399Y-55947D02*
X69502Y-56050D01*
X69148Y-51548D02*
X69390Y-51790D01*
X75660Y-41340D02*
X71090Y-41340D01*
X75977Y-41657D02*
X75660Y-41340D01*
X75977Y-54636D02*
X75977Y-41657D01*
X75977Y-54636D02*
X75960Y-54636D01*
G54D25*
X65290Y-51740D02*
X65290Y-53240D01*
X67590Y-51548D02*
X65482Y-51548D01*
X65482Y-51548D02*
X65290Y-51740D01*
G54D28*
X75800Y-56050D02*
X75977Y-55873D01*
X67590Y-51548D02*
X69148Y-51548D01*
X49130Y-68880D02*
X50270Y-68880D01*
X62670Y-63680D02*
X62670Y-61470D01*
G54D25*
X63370Y-64780D02*
X62870Y-64780D01*
X63670Y-66080D02*
X63670Y-65080D01*
G54D28*
X70490Y-61398D02*
X70490Y-74970D01*
X70342Y-61250D02*
X70490Y-61398D01*
X70490Y-74970D02*
X70035Y-75425D01*
X62890Y-61250D02*
X70342Y-61250D01*
X62670Y-61470D02*
X62890Y-61250D01*
G54D25*
X63670Y-65080D02*
X63370Y-64780D01*
X62670Y-64580D02*
X62670Y-63680D01*
G54D28*
X70035Y-75425D02*
X48990Y-75425D01*
G54D25*
X62870Y-64780D02*
X62670Y-64580D01*
G54D28*
X48817Y-69193D02*
X49130Y-68880D01*
X48817Y-75252D02*
X48817Y-69193D01*
X48990Y-75425D02*
X48817Y-75252D01*
X67590Y-52548D02*
X68300Y-52548D01*
X68300Y-52548D02*
X68568Y-52816D01*
X68568Y-56500D02*
X68600Y-56500D01*
X63290Y-53240D02*
X63290Y-56390D01*
X76315Y-40473D02*
X76576Y-40734D01*
X76576Y-40734D02*
X76576Y-55287D01*
X76315Y-40473D02*
X75842Y-40473D01*
X76450Y-56500D02*
X76576Y-56374D01*
X63400Y-56500D02*
X68600Y-56500D01*
X68600Y-56500D02*
X76450Y-56500D01*
X63290Y-56390D02*
X63400Y-56500D01*
X71923Y-40473D02*
X75842Y-40473D01*
X75842Y-40473D02*
X75848Y-40473D01*
X71090Y-42640D02*
X70502Y-42640D01*
X70467Y-40473D02*
X71923Y-40473D01*
G54D26*
X71923Y-40473D02*
X71890Y-40440D01*
G54D28*
X70248Y-42386D02*
X70248Y-40692D01*
X70502Y-42640D02*
X70248Y-42386D01*
X70248Y-40692D02*
X70467Y-40473D01*
X68568Y-52816D02*
X68568Y-56500D01*
X76576Y-56374D02*
X76576Y-55287D01*
X69750Y-74960D02*
X49520Y-74960D01*
X49520Y-74960D02*
X49400Y-74840D01*
X49400Y-74840D02*
X49400Y-70040D01*
G54D25*
X64970Y-63680D02*
X64670Y-63680D01*
G54D28*
X70030Y-74190D02*
X70030Y-74680D01*
X70030Y-61987D02*
X70030Y-74190D01*
X65091Y-61827D02*
X69556Y-61827D01*
X64705Y-62213D02*
X64705Y-63645D01*
G54D25*
X65170Y-66080D02*
X65170Y-63880D01*
X65170Y-63880D02*
X64970Y-63680D01*
G54D28*
X64705Y-63645D02*
X64670Y-63680D01*
X64705Y-62213D02*
X65091Y-61827D01*
X69870Y-61827D02*
X70030Y-61987D01*
X50270Y-69880D02*
X49560Y-69880D01*
X49400Y-70040D02*
X49560Y-69880D01*
X70030Y-74680D02*
X69750Y-74960D01*
X69556Y-61827D02*
X69870Y-61827D01*
G54D25*
X47500Y-43450D02*
X53500Y-43450D01*
X47400Y-43350D02*
X47500Y-43450D01*
X47400Y-42800D02*
X47400Y-43350D01*
X53690Y-43260D02*
X53690Y-42440D01*
X53500Y-43450D02*
X53690Y-43260D01*
X51330Y-44800D02*
X51690Y-44440D01*
X47400Y-44800D02*
X51330Y-44800D01*
X53450Y-48650D02*
X53590Y-48510D01*
X53590Y-48510D02*
X53590Y-47640D01*
X47650Y-48650D02*
X53450Y-48650D01*
X47400Y-50800D02*
X47400Y-48900D01*
X47400Y-48900D02*
X47650Y-48650D01*
X51590Y-49640D02*
X51590Y-52510D01*
X51590Y-52510D02*
X51300Y-52800D01*
X51300Y-52800D02*
X47400Y-52800D01*
G54D28*
X57498Y-40298D02*
X57752Y-40298D01*
X57000Y-38050D02*
X57250Y-38300D01*
X42210Y-37730D02*
X48680Y-37730D01*
X48750Y-37800D02*
X49000Y-38050D01*
X57250Y-38300D02*
X57250Y-40050D01*
X57250Y-40050D02*
X57498Y-40298D01*
X67250Y-40298D02*
X57752Y-40298D01*
X57752Y-40298D02*
X57750Y-40300D01*
X67190Y-40298D02*
X67250Y-40298D01*
X67250Y-40298D02*
X68098Y-40298D01*
X68390Y-40590D02*
X68390Y-41498D01*
X68098Y-40298D02*
X68390Y-40590D01*
X67590Y-45548D02*
X68282Y-45548D01*
X68282Y-45548D02*
X68390Y-45440D01*
X68390Y-45440D02*
X68390Y-41498D01*
X42150Y-37730D02*
X42210Y-37730D01*
X34840Y-37730D02*
X34557Y-37447D01*
X34557Y-37447D02*
X34557Y-36743D01*
X42210Y-37730D02*
X34840Y-37730D01*
G54D25*
X34590Y-36776D02*
X34557Y-36743D01*
G54D28*
X49000Y-38050D02*
X57000Y-38050D01*
X48680Y-37730D02*
X48750Y-37800D01*
G54D25*
X70590Y-54990D02*
X70750Y-55150D01*
X78000Y-40100D02*
X77200Y-39300D01*
X77200Y-39300D02*
X75650Y-39300D01*
X75650Y-39300D02*
X75400Y-39050D01*
X75400Y-39050D02*
X75400Y-36800D01*
X75400Y-36800D02*
X75200Y-36600D01*
X74650Y-36600D02*
X75200Y-36600D01*
X70590Y-54990D02*
X70590Y-53548D01*
G54D28*
X74450Y-55150D02*
X74500Y-55100D01*
X78100Y-55100D02*
X78800Y-55100D01*
X78000Y-55000D02*
X78100Y-55100D01*
X70750Y-55150D02*
X74450Y-55150D01*
X78000Y-40100D02*
X78000Y-55000D01*
X70590Y-46548D02*
X71407Y-46548D01*
X71825Y-46130D02*
X71407Y-46548D01*
X71825Y-44990D02*
X71825Y-46130D01*
X71300Y-36800D02*
X66600Y-36800D01*
X71350Y-36850D02*
X71300Y-36800D01*
X71350Y-39200D02*
X71350Y-36850D01*
X71400Y-39250D02*
X71350Y-39200D01*
X72850Y-39250D02*
X71400Y-39250D01*
X72075Y-44740D02*
X71825Y-44990D01*
X72850Y-44500D02*
X72850Y-43300D01*
X72610Y-44740D02*
X72850Y-44500D01*
G54D25*
X66602Y-36798D02*
X66600Y-36800D01*
G54D26*
X70782Y-46548D02*
X70590Y-46548D01*
G54D28*
X72075Y-44740D02*
X72610Y-44740D01*
X79200Y-36700D02*
X82300Y-36700D01*
X78850Y-43250D02*
X78850Y-37050D01*
X78850Y-43250D02*
X78950Y-43150D01*
X74550Y-42700D02*
X74550Y-43250D01*
X74450Y-42600D02*
X74550Y-42700D01*
X72350Y-42600D02*
X74450Y-42600D01*
X72200Y-42750D02*
X72350Y-42600D01*
X72200Y-44200D02*
X72200Y-42750D01*
X72150Y-44250D02*
X72200Y-44200D01*
X71900Y-44250D02*
X72150Y-44250D01*
X71500Y-44650D02*
X71900Y-44250D01*
X70900Y-44650D02*
X71500Y-44650D01*
X70590Y-44960D02*
X70900Y-44650D01*
X78850Y-37050D02*
X79200Y-36700D01*
X70590Y-45548D02*
X70590Y-44960D01*
X67742Y-39650D02*
X58070Y-39650D01*
X68300Y-39650D02*
X67742Y-39650D01*
X49018Y-36798D02*
X43090Y-36798D01*
X57850Y-39650D02*
X58070Y-39650D01*
X57750Y-39550D02*
X57850Y-39650D01*
X57750Y-37800D02*
X57750Y-39550D01*
X57500Y-37550D02*
X57750Y-37800D01*
X49250Y-37550D02*
X57500Y-37550D01*
X49240Y-37540D02*
X49250Y-37550D01*
G54D26*
X68300Y-39660D02*
X68300Y-39650D01*
G54D28*
X68720Y-39660D02*
X68300Y-39660D01*
X68870Y-39810D02*
X68720Y-39660D01*
X68870Y-46330D02*
X68870Y-39810D01*
X68652Y-46548D02*
X68870Y-46330D01*
X68290Y-46548D02*
X68652Y-46548D01*
G54D27*
X68290Y-46548D02*
X67590Y-46548D01*
G54D28*
X68290Y-46548D02*
X67590Y-46548D01*
X68300Y-39650D02*
X68510Y-39650D01*
X49018Y-36798D02*
X49240Y-37020D01*
X49240Y-37020D02*
X49240Y-37540D01*
G54D25*
X68760Y-50290D02*
X68760Y-47220D01*
X68502Y-50548D02*
X68760Y-50290D01*
G54D26*
X69190Y-46760D02*
X69190Y-46790D01*
X69190Y-46790D02*
X69190Y-46760D01*
G54D28*
X59382Y-38940D02*
X68140Y-38940D01*
X58590Y-38148D02*
X59382Y-38940D01*
X58590Y-36798D02*
X58590Y-38148D01*
X68140Y-38940D02*
X68890Y-38940D01*
X69210Y-46760D02*
X69430Y-46540D01*
X69430Y-46540D02*
X69430Y-39090D01*
X69430Y-39090D02*
X69280Y-38940D01*
X69280Y-38940D02*
X68890Y-38940D01*
G54D26*
X69190Y-46760D02*
X69210Y-46760D01*
G54D28*
X68760Y-47220D02*
X69190Y-46790D01*
G54D25*
X67590Y-50548D02*
X68502Y-50548D01*
G54D28*
X77220Y-40237D02*
X77220Y-55905D01*
X76479Y-39930D02*
X76913Y-39930D01*
X62290Y-56890D02*
X62500Y-57100D01*
X62500Y-57100D02*
X77150Y-57100D01*
X77150Y-57100D02*
X77220Y-57030D01*
X77220Y-57030D02*
X77220Y-55905D01*
X64240Y-52340D02*
X64240Y-53640D01*
X62290Y-55490D02*
X62290Y-55224D01*
X67590Y-53548D02*
X67590Y-54240D01*
X64490Y-54490D02*
X64240Y-54240D01*
X64240Y-54240D02*
X64240Y-53640D01*
X64040Y-52140D02*
X64240Y-52340D01*
X62490Y-52140D02*
X64040Y-52140D01*
X76913Y-39930D02*
X77220Y-40237D01*
X62290Y-55224D02*
X62290Y-52340D01*
X67590Y-54240D02*
X67340Y-54490D01*
X67340Y-54490D02*
X64490Y-54490D01*
X62290Y-55490D02*
X62290Y-56890D01*
X70390Y-37590D02*
X65632Y-37590D01*
X70500Y-37700D02*
X70390Y-37590D01*
X70500Y-39800D02*
X70500Y-37700D01*
X70630Y-39930D02*
X70500Y-39800D01*
X63970Y-37590D02*
X64340Y-37590D01*
X62205Y-37590D02*
X62537Y-37590D01*
X62537Y-37590D02*
X62785Y-37590D01*
X61967Y-37580D02*
X62537Y-37580D01*
X62537Y-37580D02*
X62537Y-37590D01*
X76479Y-39930D02*
X70630Y-39930D01*
X50740Y-35740D02*
X61055Y-35740D01*
X50590Y-36798D02*
X50590Y-35890D01*
X50590Y-35890D02*
X50740Y-35740D01*
X61055Y-35750D02*
X61055Y-35740D01*
X61412Y-35750D02*
X61622Y-35960D01*
X61622Y-37007D02*
X61622Y-37235D01*
X64340Y-37590D02*
X65632Y-37590D01*
X65455Y-37590D02*
X65632Y-37590D01*
X62785Y-37590D02*
X65455Y-37590D01*
X61622Y-37235D02*
X61967Y-37580D01*
X62785Y-37590D02*
X64340Y-37590D01*
X62717Y-37590D02*
X62785Y-37590D01*
X61622Y-35960D02*
X61622Y-37007D01*
X62290Y-52340D02*
X62490Y-52140D01*
X61055Y-35750D02*
X61412Y-35750D01*
G54D25*
X60670Y-65880D02*
X57270Y-65880D01*
X61280Y-66490D02*
X60670Y-65880D01*
X61280Y-67590D02*
X61280Y-66490D01*
G54D28*
X61370Y-67680D02*
X61280Y-67590D01*
G54D25*
X65170Y-70080D02*
X66995Y-70080D01*
X66995Y-70080D02*
X67095Y-69980D01*
X67095Y-69980D02*
X67270Y-69980D01*
X67270Y-69980D02*
X67870Y-70580D01*
X67870Y-70580D02*
X67870Y-71580D01*
X61425Y-67680D02*
X61370Y-67680D01*
X67095Y-69980D02*
X67095Y-67388D01*
X63470Y-67680D02*
X63120Y-67680D01*
G54D28*
X61555Y-61710D02*
X61555Y-65150D01*
G54D25*
X66553Y-67680D02*
X66970Y-67263D01*
X67870Y-73580D02*
X67470Y-73980D01*
X67470Y-73980D02*
X63870Y-73980D01*
X63870Y-73980D02*
X63595Y-73705D01*
X63595Y-73705D02*
X63595Y-73080D01*
G54D28*
X50270Y-66880D02*
X49170Y-66880D01*
X48970Y-61430D02*
X60805Y-61430D01*
X60805Y-61430D02*
X60720Y-61430D01*
G54D25*
X66870Y-63680D02*
X66870Y-67163D01*
G54D28*
X48740Y-61660D02*
X48970Y-61430D01*
X49170Y-66880D02*
X48740Y-66450D01*
G54D26*
X63370Y-67680D02*
X63470Y-67680D01*
G54D25*
X63470Y-67680D02*
X66553Y-67680D01*
G54D27*
X62570Y-65380D02*
X62570Y-65380D01*
G54D28*
X61785Y-65380D02*
X62570Y-65380D01*
G54D25*
X66870Y-67163D02*
X66970Y-67263D01*
X63670Y-70080D02*
X65170Y-70080D01*
X67870Y-71580D02*
X67870Y-73580D01*
X57245Y-62880D02*
X57245Y-64380D01*
X57245Y-65855D02*
X57270Y-65880D01*
X57245Y-64380D02*
X57245Y-65855D01*
X57245Y-62880D02*
X58470Y-62880D01*
X58570Y-62980D02*
X58570Y-63480D01*
X58470Y-62880D02*
X58570Y-62980D01*
X62930Y-67490D02*
X63120Y-67680D01*
G54D28*
X62790Y-65380D02*
X62930Y-65520D01*
X62570Y-65380D02*
X62790Y-65380D01*
G54D26*
X62930Y-65520D02*
X62930Y-67490D01*
G54D28*
X61275Y-61430D02*
X61555Y-61710D01*
X61555Y-65150D02*
X61785Y-65380D01*
X60805Y-61430D02*
X61275Y-61430D01*
X48740Y-66450D02*
X48740Y-61660D01*
G54D25*
X63120Y-67680D02*
X61425Y-67680D01*
X67095Y-67388D02*
X66970Y-67263D01*
G54D29*
X63960Y-51440D02*
X64660Y-50740D01*
X61620Y-51440D02*
X63960Y-51440D01*
X61250Y-51810D02*
X61620Y-51440D01*
G54D28*
X47500Y-38300D02*
X39220Y-38300D01*
X33820Y-38280D02*
X33590Y-38050D01*
X33808Y-35112D02*
X33590Y-35330D01*
X33590Y-35330D02*
X33590Y-38050D01*
X33808Y-35112D02*
X35590Y-35112D01*
X39200Y-38280D02*
X33820Y-38280D01*
X39220Y-38300D02*
X39200Y-38280D01*
X48250Y-38550D02*
X47750Y-38550D01*
X57230Y-40780D02*
X56750Y-40300D01*
X56750Y-40300D02*
X56750Y-38800D01*
X56750Y-38800D02*
X56500Y-38550D01*
X56500Y-38550D02*
X48250Y-38550D01*
X59230Y-40780D02*
X59590Y-41140D01*
X59940Y-41490D02*
X59590Y-41140D01*
X59230Y-40780D02*
X57230Y-40780D01*
X47750Y-38550D02*
X47500Y-38300D01*
X47500Y-38300D02*
X47480Y-38280D01*
G54D25*
X75500Y-34900D02*
X75900Y-35300D01*
X83250Y-35050D02*
X83250Y-32300D01*
X83000Y-35300D02*
X83250Y-35050D01*
X75900Y-35300D02*
X83000Y-35300D01*
X67590Y-34980D02*
X67590Y-34990D01*
X75500Y-34900D02*
X75500Y-32300D01*
X75150Y-35250D02*
X75500Y-34900D01*
X67850Y-35250D02*
X75150Y-35250D01*
X67590Y-34990D02*
X67850Y-35250D01*
G54D28*
X60340Y-43690D02*
X59890Y-43240D01*
X60390Y-43740D02*
X60340Y-43690D01*
X62890Y-43740D02*
X60390Y-43740D01*
X62990Y-43840D02*
X62890Y-43740D01*
X64390Y-45240D02*
X64940Y-45240D01*
X64690Y-47540D02*
X64390Y-47240D01*
X65390Y-47540D02*
X64690Y-47540D01*
X64390Y-47240D02*
X64390Y-45240D01*
X65090Y-45090D02*
X65090Y-44540D01*
X64940Y-45240D02*
X65090Y-45090D01*
X62990Y-44540D02*
X65090Y-44540D01*
G54D27*
X69390Y-50840D02*
X69190Y-51040D01*
G54D25*
X64390Y-41140D02*
X66890Y-41140D01*
X66890Y-41140D02*
X67090Y-41340D01*
X57790Y-44040D02*
X54090Y-44040D01*
X54090Y-44040D02*
X53690Y-44440D01*
X67415Y-35155D02*
X67590Y-34980D01*
X35590Y-32298D02*
X35590Y-33798D01*
X35590Y-33798D02*
X35590Y-35112D01*
X35590Y-35112D02*
X35547Y-35155D01*
X35547Y-35155D02*
X44050Y-35155D01*
X71890Y-51915D02*
X71915Y-51940D01*
X44050Y-34910D02*
X44050Y-35155D01*
G54D28*
X62990Y-44540D02*
X62990Y-43840D01*
G54D25*
X44050Y-35155D02*
X51535Y-35155D01*
G54D27*
X70090Y-49040D02*
X69490Y-49040D01*
X66490Y-50740D02*
X66690Y-50740D01*
G54D25*
X44090Y-34870D02*
X44050Y-34910D01*
X51535Y-35165D02*
X51535Y-35155D01*
X51580Y-35165D02*
X51535Y-35165D01*
X51590Y-35155D02*
X51580Y-35165D01*
X59590Y-35155D02*
X59560Y-35155D01*
X51590Y-34715D02*
X51590Y-34798D01*
X51590Y-32298D02*
X51590Y-34715D01*
X44090Y-34295D02*
X44090Y-34298D01*
X44090Y-32298D02*
X44090Y-34295D01*
G54D28*
X65390Y-47540D02*
X66053Y-47540D01*
G54D25*
X59590Y-34760D02*
X59590Y-34798D01*
X59590Y-32298D02*
X59590Y-34760D01*
X59560Y-35155D02*
X67415Y-35155D01*
X67590Y-34980D02*
X67590Y-32298D01*
X51535Y-35155D02*
X59560Y-35155D01*
X44090Y-34295D02*
X44090Y-34870D01*
X51590Y-34715D02*
X51590Y-35155D01*
X59590Y-34760D02*
X59590Y-35155D01*
G54D28*
X71890Y-50340D02*
X71890Y-49440D01*
X71490Y-49040D02*
X71890Y-49440D01*
G54D25*
X71915Y-51940D02*
X71915Y-53540D01*
X66690Y-50540D02*
X66690Y-49940D01*
X59890Y-41540D02*
X59890Y-43240D01*
X59940Y-41490D02*
X59890Y-41540D01*
X59890Y-43240D02*
X59890Y-43540D01*
X59890Y-43540D02*
X59490Y-43940D01*
X59490Y-43940D02*
X57890Y-43940D01*
X57890Y-43940D02*
X57790Y-44040D01*
G54D27*
X70090Y-49040D02*
X71490Y-49040D01*
G54D25*
X71890Y-50340D02*
X71890Y-51915D01*
G54D27*
X69490Y-49040D02*
X69390Y-49140D01*
G54D28*
X66194Y-49344D02*
X66398Y-49548D01*
G54D27*
X66990Y-51040D02*
X69190Y-51040D01*
G54D25*
X67090Y-41340D02*
X67090Y-42640D01*
X66490Y-50740D02*
X66690Y-50540D01*
X64390Y-41140D02*
X63390Y-41140D01*
X63390Y-41140D02*
X60290Y-41140D01*
X60290Y-41140D02*
X59940Y-41490D01*
G54D27*
X66690Y-50740D02*
X66990Y-51040D01*
G54D28*
X69390Y-49140D02*
X69390Y-50840D01*
X66398Y-49548D02*
X67590Y-49548D01*
X66053Y-47540D02*
X66194Y-47681D01*
X66194Y-47681D02*
X66194Y-49344D01*
G54D25*
X67082Y-49548D02*
X67590Y-49548D01*
X66690Y-49940D02*
X67082Y-49548D01*
G54D29*
X61250Y-53250D02*
X61250Y-51810D01*
X64660Y-50740D02*
X66490Y-50740D01*
G54D25*
X58280Y-51820D02*
X59900Y-50200D01*
X59900Y-50200D02*
X62880Y-50200D01*
X62880Y-50200D02*
X63400Y-49680D01*
X63400Y-49680D02*
X63400Y-47800D01*
X63400Y-47800D02*
X63140Y-47540D01*
X62490Y-47540D02*
X63140Y-47540D01*
X62250Y-57650D02*
X84700Y-57650D01*
X84700Y-57650D02*
X85600Y-56750D01*
X86100Y-56250D02*
X85600Y-56750D01*
X83850Y-26700D02*
X84300Y-27150D01*
X84300Y-27150D02*
X85650Y-27150D01*
X85650Y-27150D02*
X86100Y-27600D01*
X86100Y-27600D02*
X86100Y-55950D01*
X83850Y-26700D02*
X83850Y-24200D01*
X86100Y-55950D02*
X86100Y-56250D01*
X58470Y-57650D02*
X62250Y-57650D01*
X58280Y-57460D02*
X58470Y-57650D01*
X59640Y-47540D02*
X58940Y-47540D01*
X58560Y-49740D02*
X57790Y-49740D01*
X58700Y-49600D02*
X58560Y-49740D01*
X58700Y-47780D02*
X58700Y-49600D01*
X58940Y-47540D02*
X58700Y-47780D01*
X62490Y-47540D02*
X62540Y-47540D01*
X32710Y-38920D02*
X45020Y-38920D01*
G54D28*
X32390Y-38340D02*
X32390Y-38600D01*
X32390Y-38600D02*
X32710Y-38920D01*
X34090Y-25240D02*
X33090Y-25240D01*
X33090Y-25240D02*
X32690Y-25240D01*
X32390Y-25540D02*
X32390Y-38340D01*
X35990Y-24240D02*
X35090Y-24240D01*
X35090Y-24240D02*
X34390Y-24940D01*
X34390Y-24940D02*
X34090Y-25240D01*
G54D25*
X53590Y-56070D02*
X53260Y-56400D01*
X53260Y-56400D02*
X46680Y-56400D01*
X53590Y-53600D02*
X53590Y-56070D01*
X53590Y-53600D02*
X53590Y-49640D01*
G54D28*
X32690Y-25240D02*
X32390Y-25540D01*
G54D25*
X45600Y-56400D02*
X46680Y-56400D01*
X45300Y-56100D02*
X45600Y-56400D01*
X45300Y-39200D02*
X45300Y-56100D01*
X45020Y-38920D02*
X45300Y-39200D01*
G54D28*
X59240Y-24240D02*
X60190Y-24240D01*
G54D25*
X60190Y-24740D02*
X60190Y-24240D01*
X60800Y-25350D02*
X60190Y-24740D01*
X66050Y-25350D02*
X60800Y-25350D01*
X67200Y-24200D02*
X66050Y-25350D01*
X76000Y-24200D02*
X76400Y-24200D01*
X76400Y-24200D02*
X76750Y-24550D01*
X76750Y-24550D02*
X76750Y-26550D01*
X76750Y-26550D02*
X77000Y-26800D01*
X77000Y-26800D02*
X78500Y-26800D01*
X78500Y-26800D02*
X78750Y-26550D01*
X78750Y-26550D02*
X78750Y-25300D01*
X78750Y-25300D02*
X79000Y-25050D01*
X79000Y-25050D02*
X82100Y-25050D01*
X82100Y-25050D02*
X82950Y-24200D01*
X82950Y-24200D02*
X83850Y-24200D01*
X68100Y-24200D02*
X68400Y-24200D01*
X75100Y-24200D02*
X76000Y-24200D01*
X73500Y-25800D02*
X75100Y-24200D01*
X73500Y-26550D02*
X73500Y-25800D01*
X72500Y-27550D02*
X73500Y-26550D01*
X69250Y-27550D02*
X72500Y-27550D01*
X68750Y-27050D02*
X69250Y-27550D01*
X68750Y-24550D02*
X68750Y-27050D01*
X68400Y-24200D02*
X68750Y-24550D01*
G54D28*
X46140Y-24640D02*
X46140Y-26690D01*
X46140Y-26690D02*
X46540Y-27090D01*
X46540Y-27090D02*
X50040Y-27090D01*
X50040Y-27090D02*
X50390Y-26740D01*
X50390Y-26740D02*
X50390Y-25290D01*
X50390Y-25290D02*
X51440Y-24240D01*
X51440Y-24240D02*
X52340Y-24240D01*
X42990Y-26590D02*
X42990Y-25240D01*
X42490Y-27090D02*
X42990Y-26590D01*
X54190Y-24690D02*
X54190Y-26640D01*
X53740Y-24240D02*
X54190Y-24690D01*
G54D25*
X68100Y-24200D02*
X67200Y-24200D01*
G54D28*
X54190Y-26640D02*
X54640Y-27090D01*
X54640Y-27090D02*
X57990Y-27090D01*
X57990Y-27090D02*
X58240Y-26840D01*
X58240Y-26840D02*
X58240Y-25240D01*
X58240Y-25240D02*
X59240Y-24240D01*
X52340Y-24240D02*
X53740Y-24240D01*
G54D25*
X62490Y-47540D02*
X59640Y-47540D01*
X59640Y-47540D02*
X59590Y-47540D01*
G54D28*
X35990Y-26740D02*
X36340Y-27090D01*
G54D25*
X57790Y-49740D02*
X53690Y-49740D01*
X53690Y-49740D02*
X53590Y-49640D01*
G54D28*
X44940Y-24190D02*
X45690Y-24190D01*
X35990Y-24240D02*
X35990Y-26740D01*
X44040Y-24190D02*
X44940Y-24190D01*
X42990Y-25240D02*
X44040Y-24190D01*
X45690Y-24190D02*
X46140Y-24640D01*
X36340Y-27090D02*
X42490Y-27090D01*
G54D25*
X58280Y-55380D02*
X58280Y-57460D01*
X58280Y-55380D02*
X58280Y-51820D01*
G54D26*
X59330Y-68840D02*
X59430Y-68940D01*
X55928Y-66838D02*
X59178Y-66838D01*
X55695Y-65880D02*
X55695Y-66605D01*
G54D25*
X55695Y-65880D02*
X53270Y-65880D01*
G54D26*
X59430Y-68940D02*
X60380Y-68940D01*
X55695Y-66605D02*
X55928Y-66838D01*
X59178Y-66838D02*
X59330Y-66990D01*
X59330Y-66990D02*
X59330Y-68840D01*
G54D30*
X28650Y-53050D02*
X29400Y-53800D01*
X28650Y-48000D02*
X28650Y-53050D01*
X36400Y-53400D02*
X36400Y-52800D01*
X36000Y-53800D02*
X36400Y-53400D01*
X29400Y-53800D02*
X36000Y-53800D01*
G54D26*
X59380Y-66490D02*
X56480Y-66490D01*
X56480Y-66490D02*
X56430Y-66440D01*
X56430Y-66440D02*
X56430Y-64590D01*
X56430Y-64590D02*
X56220Y-64380D01*
X56220Y-64380D02*
X55670Y-64380D01*
X60380Y-66940D02*
X59830Y-66940D01*
G54D25*
X55170Y-64880D02*
X55670Y-64380D01*
G54D26*
X59830Y-66940D02*
X59380Y-66490D01*
G54D25*
X53270Y-64880D02*
X55170Y-64880D01*
G54D28*
X67590Y-44540D02*
X67590Y-43840D01*
X62648Y-42059D02*
X62625Y-42036D01*
X62793Y-42204D02*
X62648Y-42059D01*
X67390Y-44740D02*
X67590Y-44540D01*
X64390Y-42457D02*
X64137Y-42204D01*
X64390Y-43140D02*
X64390Y-42457D01*
X66690Y-48240D02*
X66690Y-45040D01*
X65600Y-35900D02*
X65282Y-35900D01*
G54D29*
X64841Y-35900D02*
X64815Y-35926D01*
G54D28*
X65282Y-35900D02*
X64841Y-35900D01*
X74460Y-53540D02*
X74800Y-53200D01*
G54D25*
X62881Y-35900D02*
X62657Y-36124D01*
G54D28*
X64137Y-42204D02*
X62793Y-42204D01*
X66690Y-45040D02*
X66990Y-44740D01*
G54D25*
X65600Y-35900D02*
X62881Y-35900D01*
X66690Y-43840D02*
X67590Y-43840D01*
G54D28*
X66998Y-48548D02*
X66690Y-48240D01*
X66990Y-44740D02*
X67390Y-44740D01*
X67590Y-48548D02*
X66998Y-48548D01*
X74100Y-43900D02*
X73750Y-43900D01*
X74500Y-43900D02*
X74100Y-43900D01*
X74800Y-44200D02*
X74500Y-43900D01*
X74800Y-53200D02*
X74800Y-44200D01*
G54D25*
X65990Y-43140D02*
X66690Y-43840D01*
G54D28*
X73490Y-53540D02*
X74460Y-53540D01*
X73600Y-39200D02*
X73600Y-38550D01*
X73650Y-39250D02*
X73600Y-39200D01*
X73650Y-43800D02*
X73650Y-43300D01*
X73750Y-43900D02*
X73650Y-43800D01*
X65600Y-35900D02*
X71750Y-35900D01*
X72050Y-38550D02*
X73600Y-38550D01*
X71950Y-38450D02*
X72050Y-38550D01*
X71950Y-36100D02*
X71950Y-38450D01*
X71750Y-35900D02*
X71950Y-36100D01*
G54D25*
X64390Y-43140D02*
X65990Y-43140D01*
G54D28*
X62657Y-36124D02*
X62657Y-36800D01*
G54D25*
X75000Y-26800D02*
X75000Y-25381D01*
G54D30*
X73200Y-10800D02*
X73200Y-14900D01*
X73200Y-14900D02*
X72850Y-15250D01*
X73200Y-15200D02*
X73100Y-15300D01*
X73200Y-10800D02*
X73200Y-15200D01*
X77200Y-10800D02*
X77200Y-14800D01*
X77200Y-10800D02*
X77200Y-15250D01*
X77200Y-15250D02*
X77850Y-15250D01*
X77200Y-14800D02*
X77700Y-15300D01*
X75200Y-21100D02*
X75350Y-21250D01*
X75200Y-21100D02*
X75400Y-21300D01*
X75200Y-10800D02*
X75200Y-21100D01*
G54D25*
X74650Y-33600D02*
X74650Y-32450D01*
X74650Y-32450D02*
X74500Y-32300D01*
X75500Y-28050D02*
X75500Y-29300D01*
X75250Y-27800D02*
X75500Y-28050D01*
X75000Y-27800D02*
X75250Y-27800D01*
X74500Y-29300D02*
X74500Y-29800D01*
X74750Y-30050D02*
X77250Y-30050D01*
X77250Y-30050D02*
X77500Y-29800D01*
X77500Y-29050D02*
X77500Y-28800D01*
X77500Y-29800D02*
X77500Y-29050D01*
X74500Y-29800D02*
X74750Y-30050D01*
X51690Y-41240D02*
X51690Y-41640D01*
X51000Y-40550D02*
X51690Y-41240D01*
X51690Y-41640D02*
X51690Y-42440D01*
X51690Y-42440D02*
X51690Y-41640D01*
X51000Y-40050D02*
X51000Y-40550D01*
X68870Y-70180D02*
X68670Y-69980D01*
X68870Y-67163D02*
X68970Y-67263D01*
X68970Y-69680D02*
X68670Y-69980D01*
X68970Y-67263D02*
X68970Y-69680D01*
X68870Y-71580D02*
X68870Y-70180D01*
X68870Y-63680D02*
X68870Y-67163D01*
X49300Y-20300D02*
X49300Y-22450D01*
X49300Y-22450D02*
X49790Y-22940D01*
X49790Y-22940D02*
X49790Y-24140D01*
X49890Y-24240D02*
X50340Y-24240D01*
X49790Y-24140D02*
X49890Y-24240D01*
X59190Y-27740D02*
X59190Y-28440D01*
X59190Y-28440D02*
X59590Y-28840D01*
X59590Y-28840D02*
X59590Y-29298D01*
X50590Y-33798D02*
X50590Y-32298D01*
X51390Y-29098D02*
X51590Y-29298D01*
X51390Y-27790D02*
X51390Y-29098D01*
X43090Y-32298D02*
X43090Y-33798D01*
X34557Y-32331D02*
X34590Y-32298D01*
X34557Y-33743D02*
X34557Y-32331D01*
X35590Y-28040D02*
X35390Y-27840D01*
X35590Y-29298D02*
X35590Y-28040D01*
X35390Y-27840D02*
X34990Y-27840D01*
X37140Y-30140D02*
X37340Y-29940D01*
X37340Y-29940D02*
X37340Y-28798D01*
X34590Y-29298D02*
X34590Y-29890D01*
X34840Y-30140D02*
X37140Y-30140D01*
X34590Y-29890D02*
X34840Y-30140D01*
X33540Y-22990D02*
X33290Y-22990D01*
X33300Y-22980D02*
X33300Y-20300D01*
X33290Y-22990D02*
X33300Y-22980D01*
X33540Y-24140D02*
X33640Y-24240D01*
X33540Y-22990D02*
X33540Y-24140D01*
X33640Y-24240D02*
X33990Y-24240D01*
X57300Y-20300D02*
X57300Y-22500D01*
X57300Y-22500D02*
X57690Y-22890D01*
X57690Y-24140D02*
X57790Y-24240D01*
X57690Y-22890D02*
X57690Y-24140D01*
X57790Y-24240D02*
X58190Y-24240D01*
G54D30*
X49600Y-15000D02*
X49300Y-15300D01*
X49600Y-14544D02*
X48972Y-15172D01*
X49590Y-14554D02*
X48972Y-15172D01*
X49590Y-10798D02*
X49590Y-14554D01*
X49600Y-10800D02*
X49600Y-14544D01*
X49600Y-10800D02*
X49600Y-15000D01*
X51600Y-10800D02*
X51600Y-21300D01*
X51590Y-21215D02*
X51531Y-21274D01*
X51600Y-10800D02*
X51600Y-21205D01*
X51600Y-21205D02*
X51531Y-21274D01*
X51590Y-10798D02*
X51590Y-21215D01*
X53600Y-14682D02*
X54090Y-15172D01*
X54090Y-15172D02*
X53900Y-15300D01*
X53590Y-14672D02*
X54090Y-15172D01*
X53590Y-10798D02*
X53590Y-14672D01*
X53600Y-14682D02*
X54090Y-15172D01*
X53600Y-10800D02*
X53600Y-14682D01*
X41600Y-15000D02*
X41300Y-15300D01*
X41600Y-14544D02*
X40972Y-15172D01*
X41590Y-10798D02*
X41590Y-14554D01*
X41590Y-14554D02*
X40972Y-15172D01*
X41600Y-10800D02*
X41600Y-14544D01*
X41600Y-10800D02*
X41600Y-15000D01*
X43590Y-10798D02*
X43590Y-21215D01*
X43590Y-21215D02*
X43531Y-21274D01*
X43600Y-10800D02*
X43600Y-21205D01*
X43600Y-21205D02*
X43531Y-21274D01*
X43600Y-10800D02*
X43600Y-21300D01*
X45600Y-15000D02*
X45900Y-15300D01*
X45600Y-14682D02*
X46090Y-15172D01*
X45590Y-14672D02*
X46090Y-15172D01*
X45590Y-10798D02*
X45590Y-14672D01*
X45600Y-10800D02*
X45600Y-14682D01*
X45600Y-10800D02*
X45600Y-15000D01*
X33600Y-10800D02*
X33600Y-15000D01*
X33600Y-15000D02*
X33300Y-15300D01*
X33590Y-10798D02*
X33590Y-14554D01*
X33590Y-14554D02*
X32972Y-15172D01*
X33600Y-10800D02*
X33600Y-14544D01*
X33600Y-14544D02*
X32972Y-15172D01*
X35600Y-10800D02*
X35600Y-21205D01*
X35600Y-21205D02*
X35531Y-21274D01*
X35531Y-21274D02*
X35531Y-10857D01*
X35600Y-10800D02*
X35600Y-21300D01*
X35531Y-10857D02*
X35590Y-10798D01*
X37600Y-10800D02*
X37600Y-15000D01*
X37600Y-15000D02*
X37900Y-15300D01*
X37600Y-10800D02*
X37600Y-14682D01*
X37600Y-14682D02*
X38090Y-15172D01*
X37590Y-14672D02*
X38090Y-15172D01*
X37590Y-10798D02*
X37590Y-14672D01*
G54D25*
X34990Y-25421D02*
X34990Y-26840D01*
X41300Y-20300D02*
X41300Y-22800D01*
X41490Y-22990D02*
X42190Y-22990D01*
X41300Y-22800D02*
X41490Y-22990D01*
X42190Y-23990D02*
X42390Y-24190D01*
X42190Y-22990D02*
X42190Y-23990D01*
X42390Y-24190D02*
X42940Y-24190D01*
X51340Y-25421D02*
X51340Y-26740D01*
X51340Y-26740D02*
X51390Y-26790D01*
X59190Y-25421D02*
X59190Y-26740D01*
G54D28*
X73525Y-51905D02*
X73490Y-51940D01*
X72630Y-46225D02*
X72345Y-46510D01*
X72910Y-46225D02*
X72630Y-46225D01*
G54D29*
X73982Y-51905D02*
X73525Y-51905D01*
G54D28*
X72345Y-46510D02*
X72345Y-47300D01*
G54D29*
X72910Y-46225D02*
X73912Y-46225D01*
X74252Y-46565D02*
X74252Y-51635D01*
G54D28*
X72097Y-47548D02*
X70590Y-47548D01*
G54D29*
X74252Y-51635D02*
X73982Y-51905D01*
G54D28*
X72345Y-47300D02*
X72097Y-47548D01*
G54D29*
X73912Y-46225D02*
X74252Y-46565D01*
G54D25*
X43940Y-29148D02*
X44090Y-29298D01*
X43940Y-27790D02*
X43940Y-29148D01*
X43940Y-26790D02*
X43940Y-25371D01*
G54D30*
X35600Y-48200D02*
X36400Y-47400D01*
X31800Y-48200D02*
X35600Y-48200D01*
X31700Y-48300D02*
X31800Y-48200D01*
X31700Y-51650D02*
X31700Y-48300D01*
X36400Y-47400D02*
X36400Y-42800D01*
X31600Y-46000D02*
X31700Y-45900D01*
X28650Y-46000D02*
X31600Y-46000D01*
X31700Y-45900D02*
X31700Y-43150D01*
X57600Y-10800D02*
X57600Y-15000D01*
X57600Y-15000D02*
X57300Y-15300D01*
X57600Y-14544D02*
X56972Y-15172D01*
X57590Y-14554D02*
X56972Y-15172D01*
X57590Y-10798D02*
X57590Y-14554D01*
X57600Y-10800D02*
X57600Y-14544D01*
X59600Y-10800D02*
X59600Y-21205D01*
X59600Y-21205D02*
X59531Y-21274D01*
X59590Y-10798D02*
X59590Y-21215D01*
X59600Y-10800D02*
X59600Y-21300D01*
X59590Y-21215D02*
X59531Y-21274D01*
X61600Y-10800D02*
X61600Y-14682D01*
X61600Y-14682D02*
X62090Y-15172D01*
X62090Y-15172D02*
X61900Y-15300D01*
X61600Y-14682D02*
X62090Y-15172D01*
X61590Y-10798D02*
X61590Y-14672D01*
X61590Y-14672D02*
X62090Y-15172D01*
G54D25*
X82850Y-26700D02*
X82750Y-26800D01*
X82850Y-25381D02*
X82850Y-26700D01*
X67100Y-26788D02*
X67090Y-26798D01*
X67100Y-25381D02*
X67100Y-26788D01*
G54D30*
X65600Y-10800D02*
X65600Y-15000D01*
X65600Y-15000D02*
X65300Y-15300D01*
X65600Y-10800D02*
X65600Y-14544D01*
X65600Y-14544D02*
X64972Y-15172D01*
X69600Y-10800D02*
X69600Y-14682D01*
X69600Y-14682D02*
X70090Y-15172D01*
X70090Y-15172D02*
X69900Y-15300D01*
X69600Y-14682D02*
X70090Y-15172D01*
X67600Y-10800D02*
X67600Y-21300D01*
X67590Y-21215D02*
X67531Y-21274D01*
X67600Y-10800D02*
X67600Y-21205D01*
X67600Y-21205D02*
X67531Y-21274D01*
G54D25*
X65300Y-20300D02*
X65300Y-22600D01*
X65300Y-22600D02*
X65540Y-22840D01*
X65730Y-24200D02*
X66100Y-24200D01*
X65540Y-22840D02*
X65540Y-24010D01*
X65540Y-24010D02*
X65730Y-24200D01*
G54D28*
X66590Y-33790D02*
X66600Y-33800D01*
X66590Y-32298D02*
X66590Y-33790D01*
G54D25*
X67090Y-27798D02*
X67090Y-28048D01*
X67590Y-28548D02*
X67590Y-29298D01*
X67090Y-28048D02*
X67590Y-28548D01*
X58590Y-32298D02*
X58590Y-33798D01*
X66590Y-29990D02*
X66800Y-30200D01*
X66590Y-29298D02*
X66590Y-29990D01*
X69590Y-30010D02*
X69590Y-29048D01*
X69400Y-30200D02*
X69590Y-30010D01*
X66800Y-30200D02*
X69400Y-30200D01*
X55195Y-28920D02*
X55195Y-29120D01*
X55373Y-29298D02*
X58590Y-29298D01*
X55195Y-29120D02*
X55373Y-29298D01*
X47210Y-28845D02*
X47663Y-29298D01*
X47185Y-28845D02*
X47210Y-28845D01*
X47663Y-29298D02*
X48590Y-29298D01*
X48590Y-29298D02*
X50590Y-29298D01*
X38840Y-28798D02*
X42590Y-28798D01*
X42590Y-28798D02*
X43090Y-29298D01*
X82250Y-32300D02*
X82250Y-33650D01*
X82250Y-33650D02*
X82300Y-33700D01*
X82500Y-30050D02*
X85000Y-30050D01*
X85250Y-30050D02*
X85000Y-30050D01*
X85300Y-30000D02*
X85250Y-30050D01*
X85300Y-29100D02*
X85300Y-30000D01*
X82250Y-29800D02*
X82250Y-29300D01*
X82250Y-29800D02*
X82500Y-30050D01*
X81250Y-22900D02*
X80800Y-22900D01*
X80600Y-22700D02*
X80600Y-20300D01*
X80800Y-22900D02*
X80600Y-22700D01*
X81250Y-24050D02*
X81400Y-24200D01*
X81400Y-24200D02*
X81850Y-24200D01*
X81250Y-22900D02*
X81250Y-24050D01*
G54D30*
X80400Y-15250D02*
X80550Y-15250D01*
X80550Y-15250D02*
X81000Y-14800D01*
X81000Y-14800D02*
X81000Y-10800D01*
X81000Y-10800D02*
X81000Y-14900D01*
X81000Y-14900D02*
X80600Y-15300D01*
X85000Y-10800D02*
X85000Y-15100D01*
X85000Y-15100D02*
X85200Y-15300D01*
X85000Y-15050D02*
X85000Y-10800D01*
X85400Y-15250D02*
X85200Y-15250D01*
X85200Y-15250D02*
X85000Y-15050D01*
X83000Y-10800D02*
X83000Y-21200D01*
X83000Y-21200D02*
X82900Y-21300D01*
X83000Y-21150D02*
X82900Y-21250D01*
X83000Y-10800D02*
X83000Y-21150D01*
G54D25*
X83000Y-27800D02*
X83250Y-28050D01*
X82750Y-27800D02*
X83000Y-27800D01*
X83250Y-28050D02*
X83250Y-29300D01*
X61030Y-63490D02*
X61030Y-65340D01*
X61030Y-65340D02*
X61480Y-65790D01*
X61970Y-65980D02*
X61670Y-65980D01*
X62170Y-66780D02*
X62170Y-66180D01*
X61970Y-65980D02*
X62170Y-66180D01*
G54D28*
X55670Y-62880D02*
X55670Y-62280D01*
G54D25*
X61020Y-63480D02*
X60570Y-63480D01*
X61670Y-65980D02*
X61480Y-65790D01*
G54D28*
X60570Y-62180D02*
X60370Y-61980D01*
X60370Y-61980D02*
X55870Y-61980D01*
X49530Y-65880D02*
X50270Y-65880D01*
X49370Y-65720D02*
X49530Y-65880D01*
X49370Y-62280D02*
X49370Y-65720D01*
X49570Y-62080D02*
X49370Y-62280D01*
X55470Y-62080D02*
X49570Y-62080D01*
G54D27*
X55670Y-62280D02*
X55470Y-62080D01*
G54D28*
X55670Y-62180D02*
X55670Y-62880D01*
X55870Y-61980D02*
X55670Y-62180D01*
X61020Y-63480D02*
X61030Y-63490D01*
X60570Y-63480D02*
X60570Y-62180D01*
G54D25*
X73650Y-23850D02*
X74000Y-24200D01*
X73650Y-22900D02*
X73650Y-23850D01*
X73650Y-22900D02*
X73200Y-22900D01*
X73100Y-22800D02*
X73100Y-20300D01*
X73200Y-22900D02*
X73100Y-22800D01*
X62490Y-46540D02*
X57090Y-46540D01*
X51590Y-46940D02*
X51990Y-46540D01*
X57290Y-46540D02*
X57790Y-47040D01*
X51990Y-46540D02*
X57090Y-46540D01*
X57090Y-46540D02*
X57290Y-46540D01*
X57790Y-47040D02*
X57790Y-47740D01*
X51590Y-47640D02*
X51590Y-46940D01*
G54D28*
X64290Y-48540D02*
X64280Y-48540D01*
G54D29*
X63590Y-50310D02*
X63100Y-50800D01*
X63100Y-50800D02*
X60120Y-50800D01*
X60120Y-50800D02*
X59250Y-51670D01*
X59250Y-51670D02*
X59250Y-53250D01*
G54D28*
X63980Y-49920D02*
X63590Y-50310D01*
X63980Y-48840D02*
X63980Y-49920D01*
X64280Y-48540D02*
X63980Y-48840D01*
X63290Y-45390D02*
X63930Y-45390D01*
X62190Y-45340D02*
X61990Y-45140D01*
X61990Y-44540D02*
X61990Y-45140D01*
X64290Y-48540D02*
X65390Y-48540D01*
X63290Y-45390D02*
X62240Y-45390D01*
X62240Y-45390D02*
X62190Y-45340D01*
X64240Y-48540D02*
X64290Y-48540D01*
X63940Y-48240D02*
X64240Y-48540D01*
X63940Y-45400D02*
X63940Y-48240D01*
X63930Y-45390D02*
X63940Y-45400D01*
G54D25*
X46200Y-41800D02*
X46200Y-39350D01*
X61990Y-44540D02*
X61590Y-44540D01*
X60640Y-45540D02*
X60340Y-45840D01*
X60640Y-44740D02*
X60640Y-45540D01*
X60840Y-44540D02*
X60640Y-44740D01*
X47290Y-45840D02*
X60340Y-45840D01*
X61590Y-44540D02*
X60840Y-44540D01*
X46390Y-45840D02*
X47290Y-45840D01*
X46200Y-45650D02*
X46390Y-45840D01*
X46200Y-41800D02*
X46200Y-45650D01*
X55900Y-39450D02*
X55900Y-40050D01*
X55500Y-39050D02*
X55900Y-39450D01*
X46500Y-39050D02*
X55500Y-39050D01*
X46200Y-39350D02*
X46500Y-39050D01*
X55900Y-40050D02*
X55900Y-41700D01*
X55900Y-41700D02*
X56240Y-42040D01*
X56240Y-42040D02*
X57790Y-42040D01*
G54D28*
X72910Y-48225D02*
X71490Y-48225D01*
X71490Y-48225D02*
X71167Y-48548D01*
X73465Y-48315D02*
X73375Y-48225D01*
X73375Y-48225D02*
X72910Y-48225D01*
X71167Y-48548D02*
X70590Y-48548D01*
X73465Y-50340D02*
X73465Y-48315D01*
X61442Y-38240D02*
X61340Y-38240D01*
X64232Y-38240D02*
X61442Y-38240D01*
X61000Y-37900D02*
X61000Y-36800D01*
X61340Y-38240D02*
X61000Y-37900D01*
X61000Y-42100D02*
X61000Y-42355D01*
X61000Y-42355D02*
X61472Y-42827D01*
X61635Y-42990D02*
X62390Y-42990D01*
X63440Y-42990D02*
X63437Y-42990D01*
X62390Y-42990D02*
X63437Y-42990D01*
X61472Y-42827D02*
X61635Y-42990D01*
G54D26*
X69840Y-43790D02*
X69840Y-39090D01*
X69890Y-43840D02*
X69840Y-43790D01*
X70590Y-43840D02*
X69890Y-43840D01*
G54D28*
X61000Y-36800D02*
X61000Y-36800D01*
G54D26*
X66090Y-44340D02*
X65540Y-43790D01*
X65540Y-43790D02*
X64690Y-43790D01*
X64690Y-43790D02*
X64440Y-44040D01*
X64440Y-44040D02*
X63790Y-44040D01*
X63540Y-43790D02*
X63540Y-43090D01*
X63540Y-43090D02*
X63440Y-42990D01*
X66090Y-44340D02*
X66090Y-44540D01*
X69690Y-38240D02*
X68990Y-38240D01*
X69840Y-38390D02*
X69690Y-38240D01*
G54D28*
X65890Y-46540D02*
X66090Y-46340D01*
X66090Y-46340D02*
X66090Y-44540D01*
X65390Y-46540D02*
X65890Y-46540D01*
X64232Y-38240D02*
X64190Y-38240D01*
X68990Y-38240D02*
X64232Y-38240D01*
X63607Y-44040D02*
X64440Y-44040D01*
X63540Y-43973D02*
X63607Y-44040D01*
X63540Y-43090D02*
X63540Y-43973D01*
X63440Y-42990D02*
X63540Y-43090D01*
X71742Y-43840D02*
X71750Y-43832D01*
X71750Y-43832D02*
X71750Y-42230D01*
X71750Y-42230D02*
X71900Y-42080D01*
X74747Y-42080D02*
X74777Y-42080D01*
X71900Y-42080D02*
X74747Y-42080D01*
X70590Y-43840D02*
X71742Y-43840D01*
X74972Y-54363D02*
X71513Y-54363D01*
G54D27*
X71290Y-49840D02*
X71290Y-54140D01*
X70998Y-49548D02*
X71290Y-49840D01*
X70998Y-49548D02*
X70590Y-49548D01*
G54D28*
X75230Y-42080D02*
X75393Y-42243D01*
X75393Y-42243D02*
X75393Y-53942D01*
X75393Y-53942D02*
X74972Y-54363D01*
X74747Y-42080D02*
X75230Y-42080D01*
G54D29*
X71513Y-54363D02*
X71290Y-54140D01*
G54D26*
X69840Y-39090D02*
X69840Y-38390D01*
M02*
