M48
; DRILL file {KiCad (5.1.6)-1} date 04/13/21 13:36:23
; FORMAT={-:-/ absolute / metric / decimal}
; #@! TF.CreationDate,2021-04-13T13:36:23+02:00
; #@! TF.GenerationSoftware,Kicad,Pcbnew,(5.1.6)-1
; #@! TF.FileFunction,Plated,1,2,PTH
FMAT,2
METRIC
T1C0.762
T2C0.800
T3C0.900
T4C1.000
T5C1.100
T6C1.200
T7C1.300
T8C1.600
%
G90
G05
T2
X98.079Y-89.877
X99.187Y-92.075
X99.3Y-95.744
X102.616Y-89.916
X109.186Y-113.424
X111.012Y-95.744
X112.522Y-91.948
X114.006Y-113.384
X115.316Y-68.326
X115.316Y-61.722
X115.316Y-65.532
X116.582Y-120.654
X117.348Y-99.568
X117.348Y-106.962
X119.634Y-94.39
X119.888Y-99.568
X119.888Y-102.08
X120.142Y-106.962
X122.428Y-100.33
X122.682Y-106.962
X125.222Y-106.962
X125.476Y-68.072
X125.476Y-97.79
X129.264Y-120.681
X130.556Y-61.976
X130.556Y-124.792
X130.556Y-128.27
X130.556Y-70.358
X139.827Y-56.769
X139.954Y-70.612
X145.796Y-121.158
X147.574Y-133.604
X149.606Y-121.158
X150.114Y-86.614
X151.638Y-133.604
X152.4Y-91.694
X155.956Y-86.614
X158.242Y-91.694
X165.566Y-131.784
X165.608Y-137.16
X130.81Y-79.248
X130.81Y-89.408
X127.762Y-79.248
X127.762Y-89.408
X101.6Y-97.536
X106.6Y-97.536
X107.106Y-120.694
X112.106Y-120.694
X136.906Y-79.248
X136.906Y-89.408
X186.506Y-125.564
X186.506Y-135.724
X101.6Y-100.584
X106.6Y-100.584
X158.116Y-104.734
X160.116Y-104.734
X197.612Y-40.132
X197.612Y-50.292
X103.326Y-105.234
X108.326Y-105.234
X102.108Y-68.326
X112.268Y-68.326
X153.056Y-112.044
X153.056Y-117.044
X155.726Y-109.144
X160.726Y-109.144
X98.298Y-72.136
X98.298Y-82.296
X130.476Y-107.354
X140.636Y-107.354
X155.896Y-124.324
X159.396Y-124.324
X133.858Y-79.248
X133.858Y-89.408
X139.954Y-79.248
X139.954Y-89.408
X181.286Y-118.704
X181.286Y-123.704
X94.556Y-109.894
X94.556Y-117.514
X97.096Y-109.894
X97.096Y-117.514
X99.636Y-109.894
X99.636Y-117.514
X102.176Y-109.894
X102.176Y-117.514
X104.716Y-109.894
X104.716Y-117.514
X107.256Y-109.894
X107.256Y-117.514
X109.796Y-109.894
X109.796Y-117.514
X112.336Y-109.894
X112.336Y-117.514
X114.876Y-109.894
X114.876Y-117.514
X117.416Y-109.894
X117.416Y-117.514
X119.956Y-109.894
X119.956Y-117.514
X122.496Y-109.894
X122.496Y-117.514
X125.036Y-109.894
X125.036Y-117.514
X127.576Y-109.894
X127.576Y-117.514
X138.666Y-110.224
X138.666Y-115.224
X178.506Y-118.674
X178.506Y-123.674
T3
X130.556Y-73.66
X136.906Y-73.66
X182.626Y-73.66
X190.246Y-73.66
X180.266Y-127.034
X180.266Y-129.574
T4
X94.996Y-132.588
X97.536Y-132.588
X100.076Y-132.588
X102.616Y-132.588
X105.156Y-132.588
X107.696Y-132.588
X110.236Y-132.588
X112.776Y-132.588
X115.316Y-132.588
X117.856Y-132.588
X120.396Y-132.588
X122.936Y-132.588
X125.476Y-132.588
X128.016Y-132.588
X130.556Y-132.588
X87.122Y-82.296
X87.122Y-84.836
X87.122Y-87.376
X87.122Y-89.916
X87.122Y-92.456
X87.122Y-94.996
T5
X130.886Y-110.474
X130.886Y-116.974
X135.386Y-110.474
X135.386Y-116.974
X189.736Y-127.214
X189.736Y-129.754
X189.736Y-132.294
X196.088Y-53.073
X196.088Y-57.573
X202.588Y-53.073
X202.588Y-57.573
T6
X165.616Y-99.624
X165.616Y-125.024
X173.356Y-99.734
X173.356Y-125.134
T7
X188.076Y-98.284
X188.076Y-120.784
T8
X179.956Y-98.544
X179.956Y-113.784
T1
G00X197.104Y-69.711
M15
G01X197.104Y-68.973
M16
G05
G00X197.104Y-78.601
M15
G01X197.104Y-77.863
M16
G05
T4
G00X196.342Y-92.186
M15
G01X196.342Y-90.186
M16
G05
G00X200.342Y-86.486
M15
G01X198.342Y-86.486
M16
G05
G00X202.342Y-92.186
M15
G01X202.342Y-90.186
M16
G05
T0
M30
