%TF.GenerationSoftware,KiCad,Pcbnew,(5.1.6)-1*%
%TF.CreationDate,2021-04-13T13:36:20+02:00*%
%TF.ProjectId,_7SEG_CONTROL,5f375345-475f-4434-9f4e-54524f4c2e6b,rev?*%
%TF.SameCoordinates,Original*%
%TF.FileFunction,Soldermask,Bot*%
%TF.FilePolarity,Negative*%
%FSLAX46Y46*%
G04 Gerber Fmt 4.6, Leading zero omitted, Abs format (unit mm)*
G04 Created by KiCad (PCBNEW (5.1.6)-1) date 2021-04-13 13:36:20*
%MOMM*%
%LPD*%
G01*
G04 APERTURE LIST*
%ADD10C,2.100000*%
%ADD11R,1.100000X2.600000*%
%ADD12R,1.900000X1.100000*%
%ADD13R,1.800000X1.800000*%
%ADD14O,1.800000X1.800000*%
%ADD15C,1.700000*%
%ADD16R,1.700000X1.700000*%
%ADD17R,3.300000X3.300000*%
%ADD18O,3.300000X3.300000*%
%ADD19R,1.900000X1.900000*%
%ADD20C,1.900000*%
%ADD21C,3.100000*%
%ADD22C,2.800000*%
%ADD23R,3.600000X3.600000*%
%ADD24O,2.500000X2.500000*%
%ADD25C,2.500000*%
%ADD26O,1.700000X1.700000*%
%ADD27R,2.100000X2.005000*%
%ADD28O,2.100000X2.005000*%
%ADD29R,3.900000X2.100000*%
%ADD30R,1.600000X2.100000*%
%ADD31R,1.700000X2.500000*%
%ADD32O,1.700000X2.500000*%
%ADD33C,1.600000*%
%ADD34C,2.600000*%
G04 APERTURE END LIST*
D10*
%TO.C,SW2*%
X196088000Y-57573001D03*
X196088000Y-53073001D03*
X202588000Y-57573001D03*
X202588000Y-53073001D03*
%TD*%
D11*
%TO.C,U4*%
X109530000Y-72156000D03*
X111530000Y-72156000D03*
X113530000Y-72156000D03*
X115530000Y-72156000D03*
X117530000Y-72156000D03*
X119530000Y-72156000D03*
X121530000Y-72156000D03*
X123530000Y-72156000D03*
D12*
X125030000Y-74756000D03*
X125030000Y-76756000D03*
X125030000Y-78756000D03*
X125030000Y-80756000D03*
X125030000Y-82756000D03*
X125030000Y-84756000D03*
D11*
X123530000Y-87356000D03*
X121530000Y-87356000D03*
X119530000Y-87356000D03*
X117530000Y-87356000D03*
X115530000Y-87356000D03*
X113530000Y-87356000D03*
X111530000Y-87356000D03*
X109530000Y-87356000D03*
%TD*%
D13*
%TO.C,J4*%
X130556000Y-132588000D03*
D14*
X128016000Y-132588000D03*
X125476000Y-132588000D03*
X122936000Y-132588000D03*
X120396000Y-132588000D03*
X117856000Y-132588000D03*
X115316000Y-132588000D03*
X112776000Y-132588000D03*
X110236000Y-132588000D03*
X107696000Y-132588000D03*
X105156000Y-132588000D03*
X102616000Y-132588000D03*
X100076000Y-132588000D03*
X97536000Y-132588000D03*
X94996000Y-132588000D03*
%TD*%
D15*
%TO.C,C1*%
X178506000Y-118674000D03*
X178506000Y-123674000D03*
%TD*%
%TO.C,C2*%
X181286000Y-123704000D03*
X181286000Y-118704000D03*
%TD*%
%TO.C,C3*%
X160726000Y-109144000D03*
X155726000Y-109144000D03*
%TD*%
D16*
%TO.C,C4*%
X160116000Y-104734000D03*
D15*
X158116000Y-104734000D03*
%TD*%
%TO.C,C5*%
X106600000Y-100584000D03*
X101600000Y-100584000D03*
%TD*%
%TO.C,C6*%
X101600000Y-97536000D03*
X106600000Y-97536000D03*
%TD*%
%TO.C,C7*%
X138666000Y-115224000D03*
X138666000Y-110224000D03*
%TD*%
%TO.C,C8*%
X112106000Y-120694000D03*
X107106000Y-120694000D03*
%TD*%
D16*
%TO.C,C9*%
X159396000Y-124324000D03*
D15*
X155896000Y-124324000D03*
%TD*%
%TO.C,C10*%
X153056000Y-112044000D03*
X153056000Y-117044000D03*
%TD*%
D17*
%TO.C,D1*%
X179956000Y-113784000D03*
D18*
X179956000Y-98544000D03*
%TD*%
D19*
%TO.C,D2*%
X180266000Y-127034000D03*
D20*
X180266000Y-129574000D03*
%TD*%
D21*
%TO.C,F1*%
X188076000Y-98284000D03*
X188076000Y-120784000D03*
D22*
X188076000Y-109534000D03*
%TD*%
D23*
%TO.C,J1*%
X196342000Y-91186000D03*
G36*
G01*
X203892000Y-90161000D02*
X203892000Y-92211000D01*
G75*
G02*
X203117000Y-92986000I-775000J0D01*
G01*
X201567000Y-92986000D01*
G75*
G02*
X200792000Y-92211000I0J775000D01*
G01*
X200792000Y-90161000D01*
G75*
G02*
X201567000Y-89386000I775000J0D01*
G01*
X203117000Y-89386000D01*
G75*
G02*
X203892000Y-90161000I0J-775000D01*
G01*
G37*
G36*
G01*
X201142000Y-85586000D02*
X201142000Y-87386000D01*
G75*
G02*
X200242000Y-88286000I-900000J0D01*
G01*
X198442000Y-88286000D01*
G75*
G02*
X197542000Y-87386000I0J900000D01*
G01*
X197542000Y-85586000D01*
G75*
G02*
X198442000Y-84686000I900000J0D01*
G01*
X200242000Y-84686000D01*
G75*
G02*
X201142000Y-85586000I0J-900000D01*
G01*
G37*
%TD*%
D24*
%TO.C,R1*%
X173356000Y-99734000D03*
D25*
X173356000Y-125134000D03*
%TD*%
D26*
%TO.C,R2*%
X186506000Y-135724000D03*
D15*
X186506000Y-125564000D03*
%TD*%
D25*
%TO.C,R3*%
X165616000Y-99624000D03*
D24*
X165616000Y-125024000D03*
%TD*%
D15*
%TO.C,R4*%
X130476000Y-107354000D03*
D26*
X140636000Y-107354000D03*
%TD*%
D10*
%TO.C,SW1*%
X130886000Y-110474000D03*
X135386000Y-110474000D03*
X130886000Y-116974000D03*
X135386000Y-116974000D03*
%TD*%
D27*
%TO.C,U1*%
X189736000Y-127214000D03*
D28*
X189736000Y-129754000D03*
X189736000Y-132294000D03*
%TD*%
D29*
%TO.C,U2*%
X158336000Y-118344000D03*
D30*
X158336000Y-112044000D03*
X160636000Y-112044000D03*
X156036000Y-112044000D03*
%TD*%
D31*
%TO.C,U3*%
X127576000Y-109894000D03*
D32*
X94556000Y-117514000D03*
X125036000Y-109894000D03*
X97096000Y-117514000D03*
X122496000Y-109894000D03*
X99636000Y-117514000D03*
X119956000Y-109894000D03*
X102176000Y-117514000D03*
X117416000Y-109894000D03*
X104716000Y-117514000D03*
X114876000Y-109894000D03*
X107256000Y-117514000D03*
X112336000Y-109894000D03*
X109796000Y-117514000D03*
X109796000Y-109894000D03*
X112336000Y-117514000D03*
X107256000Y-109894000D03*
X114876000Y-117514000D03*
X104716000Y-109894000D03*
X117416000Y-117514000D03*
X102176000Y-109894000D03*
X119956000Y-117514000D03*
X99636000Y-109894000D03*
X122496000Y-117514000D03*
X97096000Y-109894000D03*
X125036000Y-117514000D03*
X94556000Y-109894000D03*
X127576000Y-117514000D03*
%TD*%
D33*
%TO.C,Y1*%
X108326000Y-105234000D03*
X103326000Y-105234000D03*
%TD*%
D15*
%TO.C,R5*%
X139954000Y-79248000D03*
D26*
X139954000Y-89408000D03*
%TD*%
%TO.C,R6*%
X136906000Y-79248000D03*
D15*
X136906000Y-89408000D03*
%TD*%
%TO.C,R7*%
X127762000Y-89408000D03*
D26*
X127762000Y-79248000D03*
%TD*%
D15*
%TO.C,R8*%
X98298000Y-72136000D03*
D26*
X98298000Y-82296000D03*
%TD*%
%TO.C,R9*%
X102108000Y-68326000D03*
D15*
X112268000Y-68326000D03*
%TD*%
%TO.C,R10*%
X133858000Y-89408000D03*
D26*
X133858000Y-79248000D03*
%TD*%
%TO.C,R11*%
X130810000Y-79248000D03*
D15*
X130810000Y-89408000D03*
%TD*%
D10*
%TO.C,U5*%
X182626000Y-73660000D03*
X190246000Y-73660000D03*
X136906000Y-73660000D03*
X130556000Y-73660000D03*
%TD*%
D34*
%TO.C,J2*%
X197104000Y-69342000D03*
X197104000Y-78232000D03*
X202184000Y-68072000D03*
X202184000Y-79502000D03*
%TD*%
D15*
%TO.C,R12*%
X197612000Y-50292000D03*
D26*
X197612000Y-40132000D03*
%TD*%
D13*
%TO.C,J3*%
X87122000Y-82296000D03*
D14*
X87122000Y-84836000D03*
X87122000Y-87376000D03*
X87122000Y-89916000D03*
X87122000Y-92456000D03*
X87122000Y-94996000D03*
%TD*%
M02*
