0
SECTION
2
HEADER
9
$ANGBASE
50
0.0
9
$ANGDIR
70
0
0
ENDSEC
0
SECTION
2
TABLES
0
TABLE
2
LTYPE
70
1
0
LTYPE
2
CONTINUOUS
70
0
3
Solid line
72
65
73
0
40
0.0
0
ENDTAB
0
TABLE
2
LAYER
70
24
0
LAYER
2
BLACK
70
0
62
1
6
CONTINUOUS
0
LAYER
2
BLUE
70
0
62
2
6
CONTINUOUS
0
LAYER
2
GREEN
70
0
62
3
6
CONTINUOUS
0
LAYER
2
CYAN
70
0
62
4
6
CONTINUOUS
0
LAYER
2
RED
70
0
62
5
6
CONTINUOUS
0
LAYER
2
MAGENTA
70
0
62
6
6
CONTINUOUS
0
LAYER
2
BROWN
70
0
62
7
6
CONTINUOUS
0
LAYER
2
GRAY
70
0
62
8
6
CONTINUOUS
0
LAYER
2
DARKGRAY
70
0
62
9
6
CONTINUOUS
0
LAYER
2
LIGHTBLUE
70
0
62
10
6
CONTINUOUS
0
LAYER
2
LIGHTGREEN
70
0
62
11
6
CONTINUOUS
0
LAYER
2
LIGHTCYAN
70
0
62
12
6
CONTINUOUS
0
LAYER
2
LIGHTRED
70
0
62
13
6
CONTINUOUS
0
LAYER
2
LIGHTMAGENTA
70
0
62
14
6
CONTINUOUS
0
LAYER
2
YELLOW
70
0
62
15
6
CONTINUOUS
0
LAYER
2
WHITE
70
0
62
16
6
CONTINUOUS
0
LAYER
2
DARKDARKGRAY
70
0
62
17
6
CONTINUOUS
0
LAYER
2
DARKBLUE
70
0
62
18
6
CONTINUOUS
0
LAYER
2
DARKGREEN
70
0
62
19
6
CONTINUOUS
0
LAYER
2
DARKCYAN
70
0
62
20
6
CONTINUOUS
0
LAYER
2
DARKRED
70
0
62
21
6
CONTINUOUS
0
LAYER
2
DARKMAGENTA
70
0
62
22
6
CONTINUOUS
0
LAYER
2
DARKBROWN
70
0
62
23
6
CONTINUOUS
0
LAYER
2
LIGHTYELLOW
70
0
62
24
6
CONTINUOUS
0
ENDTAB
0
ENDSEC
0
SECTION
2
ENTITIES
0
LINE
8
BLACK
10
77075.0
20
44670.0
11
77075.0
21
45170.0
0
LINE
8
BLACK
10
76925.0
20
44670.0
11
76925.0
21
45170.0
0
ARC
8
BLACK
10
77000.0
20
45170.0
40
75.0
50
360.0
51
540.0
0
ARC
8
BLACK
10
77000.0
20
44670.0
40
75.0
50
180.0
51
360.0
0
LINE
8
BLACK
10
110575.0
20
15420.0
11
110575.0
21
16420.0
0
LINE
8
BLACK
10
110425.0
20
15420.0
11
110425.0
21
16420.0
0
ARC
8
BLACK
10
110500.0
20
16420.0
40
75.0
50
360.0
51
540.0
0
ARC
8
BLACK
10
110500.0
20
15420.0
40
75.0
50
180.0
51
360.0
0
LINE
8
BLACK
10
58130.0
20
32170.0
11
58130.0
21
31070.0
0
LINE
8
BLACK
10
58130.0
20
31070.0
11
58750.0
21
31070.0
0
LINE
8
BLACK
10
58750.0
20
31070.0
11
58750.0
21
32170.0
0
LINE
8
BLACK
10
58750.0
20
32170.0
11
58130.0
21
32170.0
0
LINE
8
BLACK
10
59130.0
20
31860.0
11
59130.0
21
31380.0
0
LINE
8
BLACK
10
59750.0
20
31860.0
11
59750.0
21
31380.0
0
ARC
8
BLACK
10
59440.0
20
31380.0
40
310.0
50
180.0
51
360.0
0
ARC
8
BLACK
10
59440.0
20
31860.0
40
310.0
50
0.0
51
180.0
0
LINE
8
BLACK
10
60130.0
20
31860.0
11
60130.0
21
31380.0
0
LINE
8
BLACK
10
60750.0
20
31860.0
11
60750.0
21
31380.0
0
ARC
8
BLACK
10
60440.0
20
31380.0
40
310.0
50
180.0
51
360.0
0
ARC
8
BLACK
10
60440.0
20
31860.0
40
310.0
50
0.0
51
180.0
0
LINE
8
BLACK
10
61130.0
20
31860.0
11
61130.0
21
31380.0
0
LINE
8
BLACK
10
61750.0
20
31860.0
11
61750.0
21
31380.0
0
ARC
8
BLACK
10
61440.0
20
31380.0
40
310.0
50
180.0
51
360.0
0
ARC
8
BLACK
10
61440.0
20
31860.0
40
310.0
50
0.0
51
180.0
0
LINE
8
BLACK
10
62130.0
20
31860.0
11
62130.0
21
31380.0
0
LINE
8
BLACK
10
62750.0
20
31860.0
11
62750.0
21
31380.0
0
ARC
8
BLACK
10
62440.0
20
31380.0
40
310.0
50
180.0
51
360.0
0
ARC
8
BLACK
10
62440.0
20
31860.0
40
310.0
50
0.0
51
180.0
0
LINE
8
BLACK
10
63130.0
20
31860.0
11
63130.0
21
31380.0
0
LINE
8
BLACK
10
63750.0
20
31860.0
11
63750.0
21
31380.0
0
ARC
8
BLACK
10
63440.0
20
31380.0
40
310.0
50
180.0
51
360.0
0
ARC
8
BLACK
10
63440.0
20
31860.0
40
310.0
50
0.0
51
180.0
0
LINE
8
BLACK
10
64130.0
20
31860.0
11
64130.0
21
31380.0
0
LINE
8
BLACK
10
64750.0
20
31860.0
11
64750.0
21
31380.0
0
ARC
8
BLACK
10
64440.0
20
31380.0
40
310.0
50
180.0
51
360.0
0
ARC
8
BLACK
10
64440.0
20
31860.0
40
310.0
50
0.0
51
180.0
0
LINE
8
BLACK
10
65130.0
20
31860.0
11
65130.0
21
31380.0
0
LINE
8
BLACK
10
65750.0
20
31860.0
11
65750.0
21
31380.0
0
ARC
8
BLACK
10
65440.0
20
31380.0
40
310.0
50
180.0
51
360.0
0
ARC
8
BLACK
10
65440.0
20
31860.0
40
310.0
50
0.0
51
180.0
0
LINE
8
BLACK
10
66130.0
20
31860.0
11
66130.0
21
31380.0
0
LINE
8
BLACK
10
66750.0
20
31860.0
11
66750.0
21
31380.0
0
ARC
8
BLACK
10
66440.0
20
31380.0
40
310.0
50
180.0
51
360.0
0
ARC
8
BLACK
10
66440.0
20
31860.0
40
310.0
50
0.0
51
180.0
0
LINE
8
BLACK
10
67130.0
20
31860.0
11
67130.0
21
31380.0
0
LINE
8
BLACK
10
67750.0
20
31860.0
11
67750.0
21
31380.0
0
ARC
8
BLACK
10
67440.0
20
31380.0
40
310.0
50
180.0
51
360.0
0
ARC
8
BLACK
10
67440.0
20
31860.0
40
310.0
50
0.0
51
180.0
0
LINE
8
BLACK
10
68130.0
20
31860.0
11
68130.0
21
31380.0
0
LINE
8
BLACK
10
68750.0
20
31860.0
11
68750.0
21
31380.0
0
ARC
8
BLACK
10
68440.0
20
31380.0
40
310.0
50
180.0
51
360.0
0
ARC
8
BLACK
10
68440.0
20
31860.0
40
310.0
50
0.0
51
180.0
0
LINE
8
BLACK
10
69130.0
20
31860.0
11
69130.0
21
31380.0
0
LINE
8
BLACK
10
69750.0
20
31860.0
11
69750.0
21
31380.0
0
ARC
8
BLACK
10
69440.0
20
31380.0
40
310.0
50
180.0
51
360.0
0
ARC
8
BLACK
10
69440.0
20
31860.0
40
310.0
50
0.0
51
180.0
0
LINE
8
BLACK
10
70130.0
20
31860.0
11
70130.0
21
31380.0
0
LINE
8
BLACK
10
70750.0
20
31860.0
11
70750.0
21
31380.0
0
ARC
8
BLACK
10
70440.0
20
31380.0
40
310.0
50
180.0
51
360.0
0
ARC
8
BLACK
10
70440.0
20
31860.0
40
310.0
50
0.0
51
180.0
0
LINE
8
BLACK
10
71130.0
20
31860.0
11
71130.0
21
31380.0
0
LINE
8
BLACK
10
71750.0
20
31860.0
11
71750.0
21
31380.0
0
ARC
8
BLACK
10
71440.0
20
31380.0
40
310.0
50
180.0
51
360.0
0
ARC
8
BLACK
10
71440.0
20
31860.0
40
310.0
50
0.0
51
180.0
0
LINE
8
BLACK
10
72130.0
20
31860.0
11
72130.0
21
31380.0
0
LINE
8
BLACK
10
72750.0
20
31860.0
11
72750.0
21
31380.0
0
ARC
8
BLACK
10
72440.0
20
31380.0
40
310.0
50
180.0
51
360.0
0
ARC
8
BLACK
10
72440.0
20
31860.0
40
310.0
50
0.0
51
180.0
0
LINE
8
BLACK
10
73130.0
20
31860.0
11
73130.0
21
31380.0
0
LINE
8
BLACK
10
73750.0
20
31860.0
11
73750.0
21
31380.0
0
ARC
8
BLACK
10
73440.0
20
31380.0
40
310.0
50
180.0
51
360.0
0
ARC
8
BLACK
10
73440.0
20
31860.0
40
310.0
50
0.0
51
180.0
0
LINE
8
BLACK
10
74130.0
20
31860.0
11
74130.0
21
31380.0
0
LINE
8
BLACK
10
74750.0
20
31860.0
11
74750.0
21
31380.0
0
ARC
8
BLACK
10
74440.0
20
31380.0
40
310.0
50
180.0
51
360.0
0
ARC
8
BLACK
10
74440.0
20
31860.0
40
310.0
50
0.0
51
180.0
0
LINE
8
BLACK
10
75130.0
20
31860.0
11
75130.0
21
31380.0
0
LINE
8
BLACK
10
75750.0
20
31860.0
11
75750.0
21
31380.0
0
ARC
8
BLACK
10
75440.0
20
31380.0
40
310.0
50
180.0
51
360.0
0
ARC
8
BLACK
10
75440.0
20
31860.0
40
310.0
50
0.0
51
180.0
0
LINE
8
BLACK
10
76130.0
20
31860.0
11
76130.0
21
31380.0
0
LINE
8
BLACK
10
76750.0
20
31860.0
11
76750.0
21
31380.0
0
ARC
8
BLACK
10
76440.0
20
31380.0
40
310.0
50
180.0
51
360.0
0
ARC
8
BLACK
10
76440.0
20
31860.0
40
310.0
50
0.0
51
180.0
0
LINE
8
BLACK
10
77130.0
20
31860.0
11
77130.0
21
31380.0
0
LINE
8
BLACK
10
77750.0
20
31860.0
11
77750.0
21
31380.0
0
ARC
8
BLACK
10
77440.0
20
31380.0
40
310.0
50
180.0
51
360.0
0
ARC
8
BLACK
10
77440.0
20
31860.0
40
310.0
50
0.0
51
180.0
0
LINE
8
BLACK
10
77130.0
20
37860.0
11
77130.0
21
37380.0
0
LINE
8
BLACK
10
77750.0
20
37860.0
11
77750.0
21
37380.0
0
ARC
8
BLACK
10
77440.0
20
37380.0
40
310.0
50
180.0
51
360.0
0
ARC
8
BLACK
10
77440.0
20
37860.0
40
310.0
50
0.0
51
180.0
0
LINE
8
BLACK
10
76130.0
20
37860.0
11
76130.0
21
37380.0
0
LINE
8
BLACK
10
76750.0
20
37860.0
11
76750.0
21
37380.0
0
ARC
8
BLACK
10
76440.0
20
37380.0
40
310.0
50
180.0
51
360.0
0
ARC
8
BLACK
10
76440.0
20
37860.0
40
310.0
50
0.0
51
180.0
0
LINE
8
BLACK
10
75130.0
20
37860.0
11
75130.0
21
37380.0
0
LINE
8
BLACK
10
75750.0
20
37860.0
11
75750.0
21
37380.0
0
ARC
8
BLACK
10
75440.0
20
37380.0
40
310.0
50
180.0
51
360.0
0
ARC
8
BLACK
10
75440.0
20
37860.0
40
310.0
50
0.0
51
180.0
0
LINE
8
BLACK
10
74130.0
20
37860.0
11
74130.0
21
37380.0
0
LINE
8
BLACK
10
74750.0
20
37860.0
11
74750.0
21
37380.0
0
ARC
8
BLACK
10
74440.0
20
37380.0
40
310.0
50
180.0
51
360.0
0
ARC
8
BLACK
10
74440.0
20
37860.0
40
310.0
50
0.0
51
180.0
0
LINE
8
BLACK
10
73130.0
20
37860.0
11
73130.0
21
37380.0
0
LINE
8
BLACK
10
73750.0
20
37860.0
11
73750.0
21
37380.0
0
ARC
8
BLACK
10
73440.0
20
37380.0
40
310.0
50
180.0
51
360.0
0
ARC
8
BLACK
10
73440.0
20
37860.0
40
310.0
50
0.0
51
180.0
0
LINE
8
BLACK
10
72130.0
20
37860.0
11
72130.0
21
37380.0
0
LINE
8
BLACK
10
72750.0
20
37860.0
11
72750.0
21
37380.0
0
ARC
8
BLACK
10
72440.0
20
37380.0
40
310.0
50
180.0
51
360.0
0
ARC
8
BLACK
10
72440.0
20
37860.0
40
310.0
50
0.0
51
180.0
0
LINE
8
BLACK
10
71130.0
20
37860.0
11
71130.0
21
37380.0
0
LINE
8
BLACK
10
71750.0
20
37860.0
11
71750.0
21
37380.0
0
ARC
8
BLACK
10
71440.0
20
37380.0
40
310.0
50
180.0
51
360.0
0
ARC
8
BLACK
10
71440.0
20
37860.0
40
310.0
50
0.0
51
180.0
0
LINE
8
BLACK
10
70130.0
20
37860.0
11
70130.0
21
37380.0
0
LINE
8
BLACK
10
70750.0
20
37860.0
11
70750.0
21
37380.0
0
ARC
8
BLACK
10
70440.0
20
37380.0
40
310.0
50
180.0
51
360.0
0
ARC
8
BLACK
10
70440.0
20
37860.0
40
310.0
50
0.0
51
180.0
0
LINE
8
BLACK
10
69130.0
20
37860.0
11
69130.0
21
37380.0
0
LINE
8
BLACK
10
69750.0
20
37860.0
11
69750.0
21
37380.0
0
ARC
8
BLACK
10
69440.0
20
37380.0
40
310.0
50
180.0
51
360.0
0
ARC
8
BLACK
10
69440.0
20
37860.0
40
310.0
50
0.0
51
180.0
0
LINE
8
BLACK
10
68130.0
20
37860.0
11
68130.0
21
37380.0
0
LINE
8
BLACK
10
68750.0
20
37860.0
11
68750.0
21
37380.0
0
ARC
8
BLACK
10
68440.0
20
37380.0
40
310.0
50
180.0
51
360.0
0
ARC
8
BLACK
10
68440.0
20
37860.0
40
310.0
50
0.0
51
180.0
0
LINE
8
BLACK
10
67130.0
20
37860.0
11
67130.0
21
37380.0
0
LINE
8
BLACK
10
67750.0
20
37860.0
11
67750.0
21
37380.0
0
ARC
8
BLACK
10
67440.0
20
37380.0
40
310.0
50
180.0
51
360.0
0
ARC
8
BLACK
10
67440.0
20
37860.0
40
310.0
50
0.0
51
180.0
0
LINE
8
BLACK
10
66130.0
20
37860.0
11
66130.0
21
37380.0
0
LINE
8
BLACK
10
66750.0
20
37860.0
11
66750.0
21
37380.0
0
ARC
8
BLACK
10
66440.0
20
37380.0
40
310.0
50
180.0
51
360.0
0
ARC
8
BLACK
10
66440.0
20
37860.0
40
310.0
50
0.0
51
180.0
0
LINE
8
BLACK
10
65130.0
20
37860.0
11
65130.0
21
37380.0
0
LINE
8
BLACK
10
65750.0
20
37860.0
11
65750.0
21
37380.0
0
ARC
8
BLACK
10
65440.0
20
37380.0
40
310.0
50
180.0
51
360.0
0
ARC
8
BLACK
10
65440.0
20
37860.0
40
310.0
50
0.0
51
180.0
0
LINE
8
BLACK
10
64130.0
20
37860.0
11
64130.0
21
37380.0
0
LINE
8
BLACK
10
64750.0
20
37860.0
11
64750.0
21
37380.0
0
ARC
8
BLACK
10
64440.0
20
37380.0
40
310.0
50
180.0
51
360.0
0
ARC
8
BLACK
10
64440.0
20
37860.0
40
310.0
50
0.0
51
180.0
0
LINE
8
BLACK
10
63130.0
20
37860.0
11
63130.0
21
37380.0
0
LINE
8
BLACK
10
63750.0
20
37860.0
11
63750.0
21
37380.0
0
ARC
8
BLACK
10
63440.0
20
37380.0
40
310.0
50
180.0
51
360.0
0
ARC
8
BLACK
10
63440.0
20
37860.0
40
310.0
50
0.0
51
180.0
0
LINE
8
BLACK
10
62130.0
20
37860.0
11
62130.0
21
37380.0
0
LINE
8
BLACK
10
62750.0
20
37860.0
11
62750.0
21
37380.0
0
ARC
8
BLACK
10
62440.0
20
37380.0
40
310.0
50
180.0
51
360.0
0
ARC
8
BLACK
10
62440.0
20
37860.0
40
310.0
50
0.0
51
180.0
0
LINE
8
BLACK
10
61130.0
20
37860.0
11
61130.0
21
37380.0
0
LINE
8
BLACK
10
61750.0
20
37860.0
11
61750.0
21
37380.0
0
ARC
8
BLACK
10
61440.0
20
37380.0
40
310.0
50
180.0
51
360.0
0
ARC
8
BLACK
10
61440.0
20
37860.0
40
310.0
50
0.0
51
180.0
0
LINE
8
BLACK
10
60130.0
20
37860.0
11
60130.0
21
37380.0
0
LINE
8
BLACK
10
60750.0
20
37860.0
11
60750.0
21
37380.0
0
ARC
8
BLACK
10
60440.0
20
37380.0
40
310.0
50
180.0
51
360.0
0
ARC
8
BLACK
10
60440.0
20
37860.0
40
310.0
50
0.0
51
180.0
0
LINE
8
BLACK
10
59130.0
20
37860.0
11
59130.0
21
37380.0
0
LINE
8
BLACK
10
59750.0
20
37860.0
11
59750.0
21
37380.0
0
ARC
8
BLACK
10
59440.0
20
37380.0
40
310.0
50
180.0
51
360.0
0
ARC
8
BLACK
10
59440.0
20
37860.0
40
310.0
50
0.0
51
180.0
0
LINE
8
BLACK
10
58130.0
20
37860.0
11
58130.0
21
37380.0
0
LINE
8
BLACK
10
58750.0
20
37860.0
11
58750.0
21
37380.0
0
ARC
8
BLACK
10
58440.0
20
37380.0
40
310.0
50
180.0
51
360.0
0
ARC
8
BLACK
10
58440.0
20
37860.0
40
310.0
50
0.0
51
180.0
0
LINE
8
BLACK
10
33345.0
20
36295.0
11
33345.0
21
37395.0
0
LINE
8
BLACK
10
33345.0
20
37395.0
11
32725.0
21
37395.0
0
LINE
8
BLACK
10
32725.0
20
37395.0
11
32725.0
21
36295.0
0
LINE
8
BLACK
10
32725.0
20
36295.0
11
33345.0
21
36295.0
0
LINE
8
BLACK
10
32345.0
20
36605.0
11
32345.0
21
37085.0
0
LINE
8
BLACK
10
31725.0
20
36605.0
11
31725.0
21
37085.0
0
ARC
8
BLACK
10
32035.0
20
37085.0
40
310.0
50
360.0
51
540.0
0
ARC
8
BLACK
10
32035.0
20
36605.0
40
310.0
50
180.0
51
360.0
0
LINE
8
BLACK
10
31285.0
20
36745.0
11
31285.0
21
36945.0
0
LINE
8
BLACK
10
30785.0
20
36745.0
11
30785.0
21
36945.0
0
ARC
8
BLACK
10
31035.0
20
36945.0
40
250.0
50
360.0
51
540.0
0
ARC
8
BLACK
10
31035.0
20
36745.0
40
250.0
50
180.0
51
360.0
0
LINE
8
BLACK
10
30285.0
20
36645.0
11
30285.0
21
37045.0
0
LINE
8
BLACK
10
29785.0
20
36645.0
11
29785.0
21
37045.0
0
ARC
8
BLACK
10
30035.0
20
37045.0
40
250.0
50
360.0
51
540.0
0
ARC
8
BLACK
10
30035.0
20
36645.0
40
250.0
50
180.0
51
360.0
0
LINE
8
BLACK
10
29285.0
20
36645.0
11
29285.0
21
37045.0
0
LINE
8
BLACK
10
28785.0
20
36645.0
11
28785.0
21
37045.0
0
ARC
8
BLACK
10
29035.0
20
37045.0
40
250.0
50
360.0
51
540.0
0
ARC
8
BLACK
10
29035.0
20
36645.0
40
250.0
50
180.0
51
360.0
0
LINE
8
BLACK
10
28345.0
20
36605.0
11
28345.0
21
37085.0
0
LINE
8
BLACK
10
27725.0
20
36605.0
11
27725.0
21
37085.0
0
ARC
8
BLACK
10
28035.0
20
37085.0
40
310.0
50
360.0
51
540.0
0
ARC
8
BLACK
10
28035.0
20
36605.0
40
310.0
50
180.0
51
360.0
0
LINE
8
BLACK
10
27285.0
20
36645.0
11
27285.0
21
37045.0
0
LINE
8
BLACK
10
26785.0
20
36645.0
11
26785.0
21
37045.0
0
ARC
8
BLACK
10
27035.0
20
37045.0
40
250.0
50
360.0
51
540.0
0
ARC
8
BLACK
10
27035.0
20
36645.0
40
250.0
50
180.0
51
360.0
0
LINE
8
BLACK
10
26285.0
20
36645.0
11
26285.0
21
37045.0
0
LINE
8
BLACK
10
25785.0
20
36645.0
11
25785.0
21
37045.0
0
ARC
8
BLACK
10
26035.0
20
37045.0
40
250.0
50
360.0
51
540.0
0
ARC
8
BLACK
10
26035.0
20
36645.0
40
250.0
50
180.0
51
360.0
0
LINE
8
BLACK
10
25285.0
20
36645.0
11
25285.0
21
37045.0
0
LINE
8
BLACK
10
24785.0
20
36645.0
11
24785.0
21
37045.0
0
ARC
8
BLACK
10
25035.0
20
37045.0
40
250.0
50
360.0
51
540.0
0
ARC
8
BLACK
10
25035.0
20
36645.0
40
250.0
50
180.0
51
360.0
0
LINE
8
BLACK
10
24285.0
20
36645.0
11
24285.0
21
37045.0
0
LINE
8
BLACK
10
23785.0
20
36645.0
11
23785.0
21
37045.0
0
ARC
8
BLACK
10
24035.0
20
37045.0
40
250.0
50
360.0
51
540.0
0
ARC
8
BLACK
10
24035.0
20
36645.0
40
250.0
50
180.0
51
360.0
0
LINE
8
BLACK
10
23345.0
20
36605.0
11
23345.0
21
37085.0
0
LINE
8
BLACK
10
22725.0
20
36605.0
11
22725.0
21
37085.0
0
ARC
8
BLACK
10
23035.0
20
37085.0
40
310.0
50
360.0
51
540.0
0
ARC
8
BLACK
10
23035.0
20
36605.0
40
310.0
50
180.0
51
360.0
0
LINE
8
BLACK
10
22345.0
20
36605.0
11
22345.0
21
37085.0
0
LINE
8
BLACK
10
21725.0
20
36605.0
11
21725.0
21
37085.0
0
ARC
8
BLACK
10
22035.0
20
37085.0
40
310.0
50
360.0
51
540.0
0
ARC
8
BLACK
10
22035.0
20
36605.0
40
310.0
50
180.0
51
360.0
0
LINE
8
BLACK
10
21345.0
20
36605.0
11
21345.0
21
37085.0
0
LINE
8
BLACK
10
20725.0
20
36605.0
11
20725.0
21
37085.0
0
ARC
8
BLACK
10
21035.0
20
37085.0
40
310.0
50
360.0
51
540.0
0
ARC
8
BLACK
10
21035.0
20
36605.0
40
310.0
50
180.0
51
360.0
0
LINE
8
BLACK
10
20345.0
20
36605.0
11
20345.0
21
37085.0
0
LINE
8
BLACK
10
19725.0
20
36605.0
11
19725.0
21
37085.0
0
ARC
8
BLACK
10
20035.0
20
37085.0
40
310.0
50
360.0
51
540.0
0
ARC
8
BLACK
10
20035.0
20
36605.0
40
310.0
50
180.0
51
360.0
0
LINE
8
BLACK
10
19345.0
20
36605.0
11
19345.0
21
37085.0
0
LINE
8
BLACK
10
18725.0
20
36605.0
11
18725.0
21
37085.0
0
ARC
8
BLACK
10
19035.0
20
37085.0
40
310.0
50
360.0
51
540.0
0
ARC
8
BLACK
10
19035.0
20
36605.0
40
310.0
50
180.0
51
360.0
0
LINE
8
BLACK
10
18345.0
20
36605.0
11
18345.0
21
37085.0
0
LINE
8
BLACK
10
17725.0
20
36605.0
11
17725.0
21
37085.0
0
ARC
8
BLACK
10
18035.0
20
37085.0
40
310.0
50
360.0
51
540.0
0
ARC
8
BLACK
10
18035.0
20
36605.0
40
310.0
50
180.0
51
360.0
0
LINE
8
BLACK
10
17345.0
20
36605.0
11
17345.0
21
37085.0
0
LINE
8
BLACK
10
16725.0
20
36605.0
11
16725.0
21
37085.0
0
ARC
8
BLACK
10
17035.0
20
37085.0
40
310.0
50
360.0
51
540.0
0
ARC
8
BLACK
10
17035.0
20
36605.0
40
310.0
50
180.0
51
360.0
0
LINE
8
BLACK
10
16285.0
20
36645.0
11
16285.0
21
37045.0
0
LINE
8
BLACK
10
15785.0
20
36645.0
11
15785.0
21
37045.0
0
ARC
8
BLACK
10
16035.0
20
37045.0
40
250.0
50
360.0
51
540.0
0
ARC
8
BLACK
10
16035.0
20
36645.0
40
250.0
50
180.0
51
360.0
0
LINE
8
BLACK
10
15285.0
20
36645.0
11
15285.0
21
37045.0
0
LINE
8
BLACK
10
14785.0
20
36645.0
11
14785.0
21
37045.0
0
ARC
8
BLACK
10
15035.0
20
37045.0
40
250.0
50
360.0
51
540.0
0
ARC
8
BLACK
10
15035.0
20
36645.0
40
250.0
50
180.0
51
360.0
0
LINE
8
BLACK
10
14345.0
20
36605.0
11
14345.0
21
37085.0
0
LINE
8
BLACK
10
13725.0
20
36605.0
11
13725.0
21
37085.0
0
ARC
8
BLACK
10
14035.0
20
37085.0
40
310.0
50
360.0
51
540.0
0
ARC
8
BLACK
10
14035.0
20
36605.0
40
310.0
50
180.0
51
360.0
0
LINE
8
BLACK
10
14345.0
20
30605.0
11
14345.0
21
31085.0
0
LINE
8
BLACK
10
13725.0
20
30605.0
11
13725.0
21
31085.0
0
ARC
8
BLACK
10
14035.0
20
31085.0
40
310.0
50
360.0
51
540.0
0
ARC
8
BLACK
10
14035.0
20
30605.0
40
310.0
50
180.0
51
360.0
0
LINE
8
BLACK
10
15345.0
20
30605.0
11
15345.0
21
31085.0
0
LINE
8
BLACK
10
14725.0
20
30605.0
11
14725.0
21
31085.0
0
ARC
8
BLACK
10
15035.0
20
31085.0
40
310.0
50
360.0
51
540.0
0
ARC
8
BLACK
10
15035.0
20
30605.0
40
310.0
50
180.0
51
360.0
0
LINE
8
BLACK
10
16345.0
20
30605.0
11
16345.0
21
31085.0
0
LINE
8
BLACK
10
15725.0
20
30605.0
11
15725.0
21
31085.0
0
ARC
8
BLACK
10
16035.0
20
31085.0
40
310.0
50
360.0
51
540.0
0
ARC
8
BLACK
10
16035.0
20
30605.0
40
310.0
50
180.0
51
360.0
0
LINE
8
BLACK
10
17345.0
20
30605.0
11
17345.0
21
31085.0
0
LINE
8
BLACK
10
16725.0
20
30605.0
11
16725.0
21
31085.0
0
ARC
8
BLACK
10
17035.0
20
31085.0
40
310.0
50
360.0
51
540.0
0
ARC
8
BLACK
10
17035.0
20
30605.0
40
310.0
50
180.0
51
360.0
0
LINE
8
BLACK
10
18345.0
20
30605.0
11
18345.0
21
31085.0
0
LINE
8
BLACK
10
17725.0
20
30605.0
11
17725.0
21
31085.0
0
ARC
8
BLACK
10
18035.0
20
31085.0
40
310.0
50
360.0
51
540.0
0
ARC
8
BLACK
10
18035.0
20
30605.0
40
310.0
50
180.0
51
360.0
0
LINE
8
BLACK
10
19345.0
20
30605.0
11
19345.0
21
31085.0
0
LINE
8
BLACK
10
18725.0
20
30605.0
11
18725.0
21
31085.0
0
ARC
8
BLACK
10
19035.0
20
31085.0
40
310.0
50
360.0
51
540.0
0
ARC
8
BLACK
10
19035.0
20
30605.0
40
310.0
50
180.0
51
360.0
0
LINE
8
BLACK
10
20345.0
20
30605.0
11
20345.0
21
31085.0
0
LINE
8
BLACK
10
19725.0
20
30605.0
11
19725.0
21
31085.0
0
ARC
8
BLACK
10
20035.0
20
31085.0
40
310.0
50
360.0
51
540.0
0
ARC
8
BLACK
10
20035.0
20
30605.0
40
310.0
50
180.0
51
360.0
0
LINE
8
BLACK
10
21345.0
20
30605.0
11
21345.0
21
31085.0
0
LINE
8
BLACK
10
20725.0
20
30605.0
11
20725.0
21
31085.0
0
ARC
8
BLACK
10
21035.0
20
31085.0
40
310.0
50
360.0
51
540.0
0
ARC
8
BLACK
10
21035.0
20
30605.0
40
310.0
50
180.0
51
360.0
0
LINE
8
BLACK
10
22345.0
20
30605.0
11
22345.0
21
31085.0
0
LINE
8
BLACK
10
21725.0
20
30605.0
11
21725.0
21
31085.0
0
ARC
8
BLACK
10
22035.0
20
31085.0
40
310.0
50
360.0
51
540.0
0
ARC
8
BLACK
10
22035.0
20
30605.0
40
310.0
50
180.0
51
360.0
0
LINE
8
BLACK
10
23345.0
20
30605.0
11
23345.0
21
31085.0
0
LINE
8
BLACK
10
22725.0
20
30605.0
11
22725.0
21
31085.0
0
ARC
8
BLACK
10
23035.0
20
31085.0
40
310.0
50
360.0
51
540.0
0
ARC
8
BLACK
10
23035.0
20
30605.0
40
310.0
50
180.0
51
360.0
0
LINE
8
BLACK
10
24345.0
20
30605.0
11
24345.0
21
31085.0
0
LINE
8
BLACK
10
23725.0
20
30605.0
11
23725.0
21
31085.0
0
ARC
8
BLACK
10
24035.0
20
31085.0
40
310.0
50
360.0
51
540.0
0
ARC
8
BLACK
10
24035.0
20
30605.0
40
310.0
50
180.0
51
360.0
0
LINE
8
BLACK
10
25345.0
20
30605.0
11
25345.0
21
31085.0
0
LINE
8
BLACK
10
24725.0
20
30605.0
11
24725.0
21
31085.0
0
ARC
8
BLACK
10
25035.0
20
31085.0
40
310.0
50
360.0
51
540.0
0
ARC
8
BLACK
10
25035.0
20
30605.0
40
310.0
50
180.0
51
360.0
0
LINE
8
BLACK
10
26345.0
20
30605.0
11
26345.0
21
31085.0
0
LINE
8
BLACK
10
25725.0
20
30605.0
11
25725.0
21
31085.0
0
ARC
8
BLACK
10
26035.0
20
31085.0
40
310.0
50
360.0
51
540.0
0
ARC
8
BLACK
10
26035.0
20
30605.0
40
310.0
50
180.0
51
360.0
0
LINE
8
BLACK
10
27285.0
20
30745.0
11
27285.0
21
30945.0
0
LINE
8
BLACK
10
26785.0
20
30745.0
11
26785.0
21
30945.0
0
ARC
8
BLACK
10
27035.0
20
30945.0
40
250.0
50
360.0
51
540.0
0
ARC
8
BLACK
10
27035.0
20
30745.0
40
250.0
50
180.0
51
360.0
0
LINE
8
BLACK
10
28285.0
20
30745.0
11
28285.0
21
30945.0
0
LINE
8
BLACK
10
27785.0
20
30745.0
11
27785.0
21
30945.0
0
ARC
8
BLACK
10
28035.0
20
30945.0
40
250.0
50
360.0
51
540.0
0
ARC
8
BLACK
10
28035.0
20
30745.0
40
250.0
50
180.0
51
360.0
0
LINE
8
BLACK
10
29345.0
20
30605.0
11
29345.0
21
31085.0
0
LINE
8
BLACK
10
28725.0
20
30605.0
11
28725.0
21
31085.0
0
ARC
8
BLACK
10
29035.0
20
31085.0
40
310.0
50
360.0
51
540.0
0
ARC
8
BLACK
10
29035.0
20
30605.0
40
310.0
50
180.0
51
360.0
0
LINE
8
BLACK
10
30345.0
20
30605.0
11
30345.0
21
31085.0
0
LINE
8
BLACK
10
29725.0
20
30605.0
11
29725.0
21
31085.0
0
ARC
8
BLACK
10
30035.0
20
31085.0
40
310.0
50
360.0
51
540.0
0
ARC
8
BLACK
10
30035.0
20
30605.0
40
310.0
50
180.0
51
360.0
0
LINE
8
BLACK
10
31345.0
20
30605.0
11
31345.0
21
31085.0
0
LINE
8
BLACK
10
30725.0
20
30605.0
11
30725.0
21
31085.0
0
ARC
8
BLACK
10
31035.0
20
31085.0
40
310.0
50
360.0
51
540.0
0
ARC
8
BLACK
10
31035.0
20
30605.0
40
310.0
50
180.0
51
360.0
0
LINE
8
BLACK
10
32345.0
20
30605.0
11
32345.0
21
31085.0
0
LINE
8
BLACK
10
31725.0
20
30605.0
11
31725.0
21
31085.0
0
ARC
8
BLACK
10
32035.0
20
31085.0
40
310.0
50
360.0
51
540.0
0
ARC
8
BLACK
10
32035.0
20
30605.0
40
310.0
50
180.0
51
360.0
0
LINE
8
BLACK
10
33345.0
20
30605.0
11
33345.0
21
31085.0
0
LINE
8
BLACK
10
32725.0
20
30605.0
11
32725.0
21
31085.0
0
ARC
8
BLACK
10
33035.0
20
31085.0
40
310.0
50
360.0
51
540.0
0
ARC
8
BLACK
10
33035.0
20
30605.0
40
310.0
50
180.0
51
360.0
0
CIRCLE
8
BLACK
10
34035.0
20
28345.0
40
2
0
CIRCLE
8
BLACK
10
15035.0
20
39345.0
40
500
0
CIRCLE
8
BLACK
10
90470.0
20
49450.0
40
300
0
CIRCLE
8
BLACK
10
90470.0
20
46450.0
40
300
0
LINE
8
BLACK
10
89170.0
20
46750.0
11
89170.0
21
46150.0
0
LINE
8
BLACK
10
89170.0
20
46150.0
11
89770.0
21
46150.0
0
LINE
8
BLACK
10
89770.0
20
46150.0
11
89770.0
21
46750.0
0
LINE
8
BLACK
10
89770.0
20
46750.0
11
89170.0
21
46750.0
0
CIRCLE
8
BLACK
10
89470.0
20
49450.0
40
300
0
CIRCLE
8
BLACK
10
16310.0
20
45310.0
40
400
0
CIRCLE
8
BLACK
10
16310.0
20
46310.0
40
400
0
CIRCLE
8
BLACK
10
22900.0
20
65620.0
40
400
0
CIRCLE
8
BLACK
10
22900.0
20
66620.0
40
400
0
CIRCLE
8
BLACK
10
55120.0
20
58500.0
40
400
0
CIRCLE
8
BLACK
10
55120.0
20
59500.0
40
400
0
CIRCLE
8
BLACK
10
33560.0
20
61890.0
40
400
0
CIRCLE
8
BLACK
10
33560.0
20
62890.0
40
400
0
CIRCLE
8
BLACK
10
96220.0
20
68580.0
40
400
0
CIRCLE
8
BLACK
10
95220.0
20
68580.0
40
400
0
CIRCLE
8
BLACK
10
69845.0
20
42100.0
40
400
0
CIRCLE
8
BLACK
10
68845.0
20
42100.0
40
400
0
CIRCLE
8
BLACK
10
24785.0
20
39595.0
40
400
0
CIRCLE
8
BLACK
10
24785.0
20
40595.0
40
400
0
CIRCLE
8
BLACK
10
17120.0
20
40570.0
40
400
0
CIRCLE
8
BLACK
10
17120.0
20
39570.0
40
400
0
CIRCLE
8
BLACK
10
24160.0
20
21220.0
40
400
0
CIRCLE
8
BLACK
10
25160.0
20
21220.0
40
400
0
CIRCLE
8
BLACK
10
30910.0
20
21970.0
40
400
0
CIRCLE
8
BLACK
10
30910.0
20
20970.0
40
400
0
CIRCLE
8
BLACK
10
18720.0
20
40570.0
40
400
0
CIRCLE
8
BLACK
10
18720.0
20
39570.0
40
400
0
CIRCLE
8
BLACK
10
67940.0
20
38870.0
40
400
0
CIRCLE
8
BLACK
10
66940.0
20
38870.0
40
400
0
CIRCLE
8
BLACK
10
67920.0
20
26650.0
40
400
0
CIRCLE
8
BLACK
10
68920.0
20
26650.0
40
400
0
CIRCLE
8
BLACK
10
71320.0
20
26650.0
40
400
0
CIRCLE
8
BLACK
10
70320.0
20
26650.0
40
400
0
LINE
8
BLACK
10
21550.0
20
66470.0
11
21550.0
21
67270.0
0
LINE
8
BLACK
10
21550.0
20
67270.0
11
20750.0
21
67270.0
0
LINE
8
BLACK
10
20750.0
20
67270.0
11
20750.0
21
66470.0
0
LINE
8
BLACK
10
20750.0
20
66470.0
11
21550.0
21
66470.0
0
LINE
8
BLACK
10
18550.0
20
66470.0
11
18550.0
21
67270.0
0
LINE
8
BLACK
10
18550.0
20
67270.0
11
17750.0
21
67270.0
0
LINE
8
BLACK
10
17750.0
20
67270.0
11
17750.0
21
66470.0
0
LINE
8
BLACK
10
17750.0
20
66470.0
11
18550.0
21
66470.0
0
LINE
8
BLACK
10
21550.0
20
65220.0
11
21550.0
21
66020.0
0
LINE
8
BLACK
10
21550.0
20
66020.0
11
20750.0
21
66020.0
0
LINE
8
BLACK
10
20750.0
20
66020.0
11
20750.0
21
65220.0
0
LINE
8
BLACK
10
20750.0
20
65220.0
11
21550.0
21
65220.0
0
LINE
8
BLACK
10
18550.0
20
65220.0
11
18550.0
21
66020.0
0
LINE
8
BLACK
10
18550.0
20
66020.0
11
17750.0
21
66020.0
0
LINE
8
BLACK
10
17750.0
20
66020.0
11
17750.0
21
65220.0
0
LINE
8
BLACK
10
17750.0
20
65220.0
11
18550.0
21
65220.0
0
CIRCLE
8
BLACK
10
81490.0
20
68360.0
40
275
0
CIRCLE
8
BLACK
10
82498.0
20
68360.0
40
275
0
CIRCLE
8
BLACK
10
83490.0
20
68360.0
40
300
0
CIRCLE
8
BLACK
10
47130.0
20
40260.0
40
275
0
CIRCLE
8
BLACK
10
47130.0
20
41268.0
40
275
0
CIRCLE
8
BLACK
10
47130.0
20
42260.0
40
300
0
CIRCLE
8
BLACK
10
14150.0
20
65100.0
40
300
0
CIRCLE
8
BLACK
10
14150.0
20
66100.0
40
300
0
CIRCLE
8
BLACK
10
13363.0
20
66100.0
40
300
0
CIRCLE
8
BLACK
10
13363.0
20
65100.0
40
300
0
CIRCLE
8
BLACK
10
12300.0
20
63238.0
40
531
0
CIRCLE
8
BLACK
10
12300.0
20
67962.0
40
531
0
CIRCLE
8
BLACK
10
98380.0
20
68060.0
40
300
0
CIRCLE
8
BLACK
10
98880.0
20
68560.0
40
300
0
CIRCLE
8
BLACK
10
97880.0
20
68560.0
40
300
0
LINE
8
BLACK
10
92470.0
20
46650.0
11
92470.0
21
46250.0
0
LINE
8
BLACK
10
92970.0
20
46650.0
11
92970.0
21
46250.0
0
ARC
8
BLACK
10
92720.0
20
46250.0
40
250.0
50
180.0
51
360.0
0
ARC
8
BLACK
10
92720.0
20
46650.0
40
250.0
50
0.0
51
180.0
0
LINE
8
BLACK
10
93470.0
20
46650.0
11
93470.0
21
46250.0
0
LINE
8
BLACK
10
93970.0
20
46650.0
11
93970.0
21
46250.0
0
ARC
8
BLACK
10
93720.0
20
46250.0
40
250.0
50
180.0
51
360.0
0
ARC
8
BLACK
10
93720.0
20
46650.0
40
250.0
50
0.0
51
180.0
0
LINE
8
BLACK
10
94470.0
20
46650.0
11
94470.0
21
46250.0
0
LINE
8
BLACK
10
94970.0
20
46650.0
11
94970.0
21
46250.0
0
ARC
8
BLACK
10
94720.0
20
46250.0
40
250.0
50
180.0
51
360.0
0
ARC
8
BLACK
10
94720.0
20
46650.0
40
250.0
50
0.0
51
180.0
0
LINE
8
BLACK
10
95470.0
20
46650.0
11
95470.0
21
46250.0
0
LINE
8
BLACK
10
95970.0
20
46650.0
11
95970.0
21
46250.0
0
ARC
8
BLACK
10
95720.0
20
46250.0
40
250.0
50
180.0
51
360.0
0
ARC
8
BLACK
10
95720.0
20
46650.0
40
250.0
50
0.0
51
180.0
0
LINE
8
BLACK
10
96470.0
20
46650.0
11
96470.0
21
46250.0
0
LINE
8
BLACK
10
96970.0
20
46650.0
11
96970.0
21
46250.0
0
ARC
8
BLACK
10
96720.0
20
46250.0
40
250.0
50
180.0
51
360.0
0
ARC
8
BLACK
10
96720.0
20
46650.0
40
250.0
50
0.0
51
180.0
0
LINE
8
BLACK
10
97470.0
20
46650.0
11
97470.0
21
46250.0
0
LINE
8
BLACK
10
97970.0
20
46650.0
11
97970.0
21
46250.0
0
ARC
8
BLACK
10
97720.0
20
46250.0
40
250.0
50
180.0
51
360.0
0
ARC
8
BLACK
10
97720.0
20
46650.0
40
250.0
50
0.0
51
180.0
0
LINE
8
BLACK
10
98470.0
20
46650.0
11
98470.0
21
46250.0
0
LINE
8
BLACK
10
98970.0
20
46650.0
11
98970.0
21
46250.0
0
ARC
8
BLACK
10
98720.0
20
46250.0
40
250.0
50
180.0
51
360.0
0
ARC
8
BLACK
10
98720.0
20
46650.0
40
250.0
50
0.0
51
180.0
0
LINE
8
BLACK
10
99470.0
20
46650.0
11
99470.0
21
46250.0
0
LINE
8
BLACK
10
99970.0
20
46650.0
11
99970.0
21
46250.0
0
ARC
8
BLACK
10
99720.0
20
46250.0
40
250.0
50
180.0
51
360.0
0
ARC
8
BLACK
10
99720.0
20
46650.0
40
250.0
50
0.0
51
180.0
0
LINE
8
BLACK
10
99470.0
20
49650.0
11
99470.0
21
49250.0
0
LINE
8
BLACK
10
99970.0
20
49650.0
11
99970.0
21
49250.0
0
ARC
8
BLACK
10
99720.0
20
49250.0
40
250.0
50
180.0
51
360.0
0
ARC
8
BLACK
10
99720.0
20
49650.0
40
250.0
50
0.0
51
180.0
0
LINE
8
BLACK
10
98470.0
20
49650.0
11
98470.0
21
49250.0
0
LINE
8
BLACK
10
98970.0
20
49650.0
11
98970.0
21
49250.0
0
ARC
8
BLACK
10
98720.0
20
49250.0
40
250.0
50
180.0
51
360.0
0
ARC
8
BLACK
10
98720.0
20
49650.0
40
250.0
50
0.0
51
180.0
0
LINE
8
BLACK
10
97470.0
20
49650.0
11
97470.0
21
49250.0
0
LINE
8
BLACK
10
97970.0
20
49650.0
11
97970.0
21
49250.0
0
ARC
8
BLACK
10
97720.0
20
49250.0
40
250.0
50
180.0
51
360.0
0
ARC
8
BLACK
10
97720.0
20
49650.0
40
250.0
50
0.0
51
180.0
0
LINE
8
BLACK
10
96470.0
20
49650.0
11
96470.0
21
49250.0
0
LINE
8
BLACK
10
96970.0
20
49650.0
11
96970.0
21
49250.0
0
ARC
8
BLACK
10
96720.0
20
49250.0
40
250.0
50
180.0
51
360.0
0
ARC
8
BLACK
10
96720.0
20
49650.0
40
250.0
50
0.0
51
180.0
0
LINE
8
BLACK
10
95470.0
20
49650.0
11
95470.0
21
49250.0
0
LINE
8
BLACK
10
95970.0
20
49650.0
11
95970.0
21
49250.0
0
ARC
8
BLACK
10
95720.0
20
49250.0
40
250.0
50
180.0
51
360.0
0
ARC
8
BLACK
10
95720.0
20
49650.0
40
250.0
50
0.0
51
180.0
0
LINE
8
BLACK
10
94470.0
20
49650.0
11
94470.0
21
49250.0
0
LINE
8
BLACK
10
94970.0
20
49650.0
11
94970.0
21
49250.0
0
ARC
8
BLACK
10
94720.0
20
49250.0
40
250.0
50
180.0
51
360.0
0
ARC
8
BLACK
10
94720.0
20
49650.0
40
250.0
50
0.0
51
180.0
0
LINE
8
BLACK
10
93470.0
20
49650.0
11
93470.0
21
49250.0
0
LINE
8
BLACK
10
93970.0
20
49650.0
11
93970.0
21
49250.0
0
ARC
8
BLACK
10
93720.0
20
49250.0
40
250.0
50
180.0
51
360.0
0
ARC
8
BLACK
10
93720.0
20
49650.0
40
250.0
50
0.0
51
180.0
0
LINE
8
BLACK
10
92470.0
20
49650.0
11
92470.0
21
49250.0
0
LINE
8
BLACK
10
92970.0
20
49650.0
11
92970.0
21
49250.0
0
ARC
8
BLACK
10
92720.0
20
49250.0
40
250.0
50
180.0
51
360.0
0
ARC
8
BLACK
10
92720.0
20
49650.0
40
250.0
50
0.0
51
180.0
0
CIRCLE
8
BLACK
10
90780.0
20
22450.0
40
400
0
CIRCLE
8
BLACK
10
91780.0
20
22450.0
40
400
0
CIRCLE
8
BLACK
10
92780.0
20
22450.0
40
400
0
CIRCLE
8
BLACK
10
93780.0
20
22450.0
40
400
0
CIRCLE
8
BLACK
10
94780.0
20
22450.0
40
400
0
CIRCLE
8
BLACK
10
95780.0
20
22450.0
40
400
0
CIRCLE
8
BLACK
10
96780.0
20
22450.0
40
400
0
CIRCLE
8
BLACK
10
97780.0
20
22450.0
40
400
0
CIRCLE
8
BLACK
10
97780.0
20
25450.0
40
400
0
CIRCLE
8
BLACK
10
96780.0
20
25450.0
40
400
0
CIRCLE
8
BLACK
10
95780.0
20
25450.0
40
400
0
CIRCLE
8
BLACK
10
94780.0
20
25450.0
40
400
0
CIRCLE
8
BLACK
10
93780.0
20
25450.0
40
400
0
CIRCLE
8
BLACK
10
92780.0
20
25450.0
40
400
0
CIRCLE
8
BLACK
10
91780.0
20
25450.0
40
400
0
CIRCLE
8
BLACK
10
90780.0
20
25450.0
40
400
0
LINE
8
BLACK
10
63220.0
20
48050.0
11
63220.0
21
46950.0
0
LINE
8
BLACK
10
63220.0
20
46950.0
11
64020.0
21
46950.0
0
LINE
8
BLACK
10
64020.0
20
46950.0
11
64020.0
21
48050.0
0
LINE
8
BLACK
10
64020.0
20
48050.0
11
63220.0
21
48050.0
0
LINE
8
BLACK
10
64220.0
20
48050.0
11
64220.0
21
46950.0
0
LINE
8
BLACK
10
64220.0
20
46950.0
11
65020.0
21
46950.0
0
LINE
8
BLACK
10
65020.0
20
46950.0
11
65020.0
21
48050.0
0
LINE
8
BLACK
10
65020.0
20
48050.0
11
64220.0
21
48050.0
0
LINE
8
BLACK
10
65220.0
20
48050.0
11
65220.0
21
46950.0
0
LINE
8
BLACK
10
65220.0
20
46950.0
11
66020.0
21
46950.0
0
LINE
8
BLACK
10
66020.0
20
46950.0
11
66020.0
21
48050.0
0
LINE
8
BLACK
10
66020.0
20
48050.0
11
65220.0
21
48050.0
0
LINE
8
BLACK
10
66220.0
20
48050.0
11
66220.0
21
46950.0
0
LINE
8
BLACK
10
66220.0
20
46950.0
11
67020.0
21
46950.0
0
LINE
8
BLACK
10
67020.0
20
46950.0
11
67020.0
21
48050.0
0
LINE
8
BLACK
10
67020.0
20
48050.0
11
66220.0
21
48050.0
0
LINE
8
BLACK
10
67220.0
20
48050.0
11
67220.0
21
46950.0
0
LINE
8
BLACK
10
67220.0
20
46950.0
11
68020.0
21
46950.0
0
LINE
8
BLACK
10
68020.0
20
46950.0
11
68020.0
21
48050.0
0
LINE
8
BLACK
10
68020.0
20
48050.0
11
67220.0
21
48050.0
0
LINE
8
BLACK
10
68220.0
20
48050.0
11
68220.0
21
46950.0
0
LINE
8
BLACK
10
68220.0
20
46950.0
11
69020.0
21
46950.0
0
LINE
8
BLACK
10
69020.0
20
46950.0
11
69020.0
21
48050.0
0
LINE
8
BLACK
10
69020.0
20
48050.0
11
68220.0
21
48050.0
0
LINE
8
BLACK
10
68220.0
20
51050.0
11
68220.0
21
49950.0
0
LINE
8
BLACK
10
68220.0
20
49950.0
11
69020.0
21
49950.0
0
LINE
8
BLACK
10
69020.0
20
49950.0
11
69020.0
21
51050.0
0
LINE
8
BLACK
10
69020.0
20
51050.0
11
68220.0
21
51050.0
0
LINE
8
BLACK
10
67220.0
20
51050.0
11
67220.0
21
49950.0
0
LINE
8
BLACK
10
67220.0
20
49950.0
11
68020.0
21
49950.0
0
LINE
8
BLACK
10
68020.0
20
49950.0
11
68020.0
21
51050.0
0
LINE
8
BLACK
10
68020.0
20
51050.0
11
67220.0
21
51050.0
0
LINE
8
BLACK
10
66220.0
20
51050.0
11
66220.0
21
49950.0
0
LINE
8
BLACK
10
66220.0
20
49950.0
11
67020.0
21
49950.0
0
LINE
8
BLACK
10
67020.0
20
49950.0
11
67020.0
21
51050.0
0
LINE
8
BLACK
10
67020.0
20
51050.0
11
66220.0
21
51050.0
0
LINE
8
BLACK
10
65370.0
20
51050.0
11
65370.0
21
49950.0
0
LINE
8
BLACK
10
65370.0
20
49950.0
11
65870.0
21
49950.0
0
LINE
8
BLACK
10
65870.0
20
49950.0
11
65870.0
21
51050.0
0
LINE
8
BLACK
10
65870.0
20
51050.0
11
65370.0
21
51050.0
0
LINE
8
BLACK
10
64370.0
20
51050.0
11
64370.0
21
49950.0
0
LINE
8
BLACK
10
64370.0
20
49950.0
11
64870.0
21
49950.0
0
LINE
8
BLACK
10
64870.0
20
49950.0
11
64870.0
21
51050.0
0
LINE
8
BLACK
10
64870.0
20
51050.0
11
64370.0
21
51050.0
0
LINE
8
BLACK
10
63220.0
20
51050.0
11
63220.0
21
49950.0
0
LINE
8
BLACK
10
63220.0
20
49950.0
11
64020.0
21
49950.0
0
LINE
8
BLACK
10
64020.0
20
49950.0
11
64020.0
21
51050.0
0
LINE
8
BLACK
10
64020.0
20
51050.0
11
63220.0
21
51050.0
0
LINE
8
BLACK
10
44410.0
20
47150.0
11
44410.0
21
46550.0
0
LINE
8
BLACK
10
44410.0
20
46550.0
11
45010.0
21
46550.0
0
LINE
8
BLACK
10
45010.0
20
46550.0
11
45010.0
21
47150.0
0
LINE
8
BLACK
10
45010.0
20
47150.0
11
44410.0
21
47150.0
0
CIRCLE
8
BLACK
10
45710.0
20
46850.0
40
300
0
CIRCLE
8
BLACK
10
46710.0
20
46850.0
40
300
0
CIRCLE
8
BLACK
10
47710.0
20
46850.0
40
300
0
CIRCLE
8
BLACK
10
47710.0
20
49850.0
40
300
0
CIRCLE
8
BLACK
10
46710.0
20
49850.0
40
300
0
CIRCLE
8
BLACK
10
45710.0
20
49850.0
40
300
0
CIRCLE
8
BLACK
10
44710.0
20
49850.0
40
300
0
CIRCLE
8
BLACK
10
35600.0
20
56370.0
40
330
0
CIRCLE
8
BLACK
10
35600.0
20
59370.0
40
330
0
LINE
8
BLACK
10
36900.0
20
59070.0
11
36900.0
21
59670.0
0
LINE
8
BLACK
10
36900.0
20
59670.0
11
36300.0
21
59670.0
0
LINE
8
BLACK
10
36300.0
20
59670.0
11
36300.0
21
59070.0
0
LINE
8
BLACK
10
36300.0
20
59070.0
11
36900.0
21
59070.0
0
CIRCLE
8
BLACK
10
36600.0
20
56370.0
40
330
0
CIRCLE
8
BLACK
10
14640.0
20
53910.0
40
300
0
CIRCLE
8
BLACK
10
14640.0
20
56910.0
40
300
0
LINE
8
BLACK
10
15940.0
20
56610.0
11
15940.0
21
57210.0
0
LINE
8
BLACK
10
15940.0
20
57210.0
11
15340.0
21
57210.0
0
LINE
8
BLACK
10
15340.0
20
57210.0
11
15340.0
21
56610.0
0
LINE
8
BLACK
10
15340.0
20
56610.0
11
15940.0
21
56610.0
0
CIRCLE
8
BLACK
10
15640.0
20
53910.0
40
300
0
CIRCLE
8
BLACK
10
93470.0
20
37950.0
40
400
0
CIRCLE
8
BLACK
10
93470.0
20
35950.0
40
400
0
CIRCLE
8
BLACK
10
90470.0
20
37950.0
40
400
0
CIRCLE
8
BLACK
10
90470.0
20
35950.0
40
400
0
CIRCLE
8
BLACK
10
89220.0
20
37950.0
40
400
0
CIRCLE
8
BLACK
10
89220.0
20
35950.0
40
400
0
CIRCLE
8
BLACK
10
86220.0
20
37950.0
40
400
0
CIRCLE
8
BLACK
10
86220.0
20
35950.0
40
400
0
CIRCLE
8
BLACK
10
101970.0
20
34700.0
40
400
0
CIRCLE
8
BLACK
10
101970.0
20
32700.0
40
400
0
CIRCLE
8
BLACK
10
98970.0
20
34700.0
40
400
0
CIRCLE
8
BLACK
10
98970.0
20
32700.0
40
400
0
CIRCLE
8
BLACK
10
93470.0
20
41200.0
40
400
0
CIRCLE
8
BLACK
10
93470.0
20
39200.0
40
400
0
CIRCLE
8
BLACK
10
90470.0
20
41200.0
40
400
0
CIRCLE
8
BLACK
10
90470.0
20
39200.0
40
400
0
CIRCLE
8
BLACK
10
89220.0
20
41200.0
40
400
0
CIRCLE
8
BLACK
10
89220.0
20
39200.0
40
400
0
CIRCLE
8
BLACK
10
86220.0
20
41200.0
40
400
0
CIRCLE
8
BLACK
10
86220.0
20
39200.0
40
400
0
CIRCLE
8
BLACK
10
101970.0
20
37950.0
40
400
0
CIRCLE
8
BLACK
10
101970.0
20
35950.0
40
400
0
CIRCLE
8
BLACK
10
98970.0
20
37950.0
40
400
0
CIRCLE
8
BLACK
10
98970.0
20
35950.0
40
400
0
CIRCLE
8
BLACK
10
97720.0
20
37950.0
40
400
0
CIRCLE
8
BLACK
10
97720.0
20
35950.0
40
400
0
CIRCLE
8
BLACK
10
94720.0
20
37950.0
40
400
0
CIRCLE
8
BLACK
10
94720.0
20
35950.0
40
400
0
CIRCLE
8
BLACK
10
97720.0
20
34700.0
40
400
0
CIRCLE
8
BLACK
10
97720.0
20
32700.0
40
400
0
CIRCLE
8
BLACK
10
94720.0
20
34700.0
40
400
0
CIRCLE
8
BLACK
10
94720.0
20
32700.0
40
400
0
CIRCLE
8
BLACK
10
93470.0
20
34700.0
40
400
0
CIRCLE
8
BLACK
10
93470.0
20
32700.0
40
400
0
CIRCLE
8
BLACK
10
90470.0
20
34700.0
40
400
0
CIRCLE
8
BLACK
10
90470.0
20
32700.0
40
400
0
CIRCLE
8
BLACK
10
89220.0
20
34700.0
40
400
0
CIRCLE
8
BLACK
10
89220.0
20
32700.0
40
400
0
CIRCLE
8
BLACK
10
86220.0
20
34700.0
40
400
0
CIRCLE
8
BLACK
10
86220.0
20
32700.0
40
400
0
CIRCLE
8
BLACK
10
101970.0
20
31450.0
40
400
0
CIRCLE
8
BLACK
10
101970.0
20
29450.0
40
400
0
CIRCLE
8
BLACK
10
98970.0
20
31450.0
40
400
0
CIRCLE
8
BLACK
10
98970.0
20
29450.0
40
400
0
CIRCLE
8
BLACK
10
97720.0
20
31450.0
40
400
0
CIRCLE
8
BLACK
10
97720.0
20
29450.0
40
400
0
CIRCLE
8
BLACK
10
94720.0
20
31450.0
40
400
0
CIRCLE
8
BLACK
10
94720.0
20
29450.0
40
400
0
CIRCLE
8
BLACK
10
93470.0
20
31450.0
40
400
0
CIRCLE
8
BLACK
10
93470.0
20
29450.0
40
400
0
CIRCLE
8
BLACK
10
90470.0
20
31450.0
40
400
0
CIRCLE
8
BLACK
10
90470.0
20
29450.0
40
400
0
CIRCLE
8
BLACK
10
89220.0
20
31450.0
40
400
0
CIRCLE
8
BLACK
10
89220.0
20
29450.0
40
400
0
CIRCLE
8
BLACK
10
86220.0
20
31450.0
40
400
0
CIRCLE
8
BLACK
10
86220.0
20
29450.0
40
400
0
CIRCLE
8
BLACK
10
97720.0
20
41200.0
40
400
0
CIRCLE
8
BLACK
10
97720.0
20
39200.0
40
400
0
CIRCLE
8
BLACK
10
94720.0
20
41200.0
40
400
0
CIRCLE
8
BLACK
10
94720.0
20
39200.0
40
400
0
CIRCLE
8
BLACK
10
101970.0
20
41200.0
40
400
0
CIRCLE
8
BLACK
10
101970.0
20
39200.0
40
400
0
CIRCLE
8
BLACK
10
98970.0
20
41200.0
40
400
0
CIRCLE
8
BLACK
10
98970.0
20
39200.0
40
400
0
CIRCLE
8
BLACK
10
47340.0
20
31330.0
40
400
0
CIRCLE
8
BLACK
10
45340.0
20
31330.0
40
400
0
CIRCLE
8
BLACK
10
47340.0
20
34330.0
40
400
0
CIRCLE
8
BLACK
10
45340.0
20
34330.0
40
400
0
CIRCLE
8
BLACK
10
27650.0
20
62870.0
40
400
0
CIRCLE
8
BLACK
10
29650.0
20
62870.0
40
400
0
CIRCLE
8
BLACK
10
27650.0
20
61870.0
40
400
0
CIRCLE
8
BLACK
10
27650.0
20
60870.0
40
400
0
CIRCLE
8
BLACK
10
29650.0
20
60870.0
40
400
0
CIRCLE
8
BLACK
10
29650.0
20
61870.0
40
400
0
CIRCLE
8
BLACK
10
90810.0
20
26830.0
40
400
0
CIRCLE
8
BLACK
10
91810.0
20
26830.0
40
400
0
CIRCLE
8
BLACK
10
92810.0
20
26830.0
40
400
0
CIRCLE
8
BLACK
10
93810.0
20
26830.0
40
400
0
CIRCLE
8
BLACK
10
94810.0
20
26830.0
40
400
0
CIRCLE
8
BLACK
10
95810.0
20
26830.0
40
400
0
CIRCLE
8
BLACK
10
96810.0
20
26830.0
40
400
0
CIRCLE
8
BLACK
10
97810.0
20
26830.0
40
400
0
CIRCLE
8
BLACK
10
58440.0
20
28870.0
40
400
0
CIRCLE
8
BLACK
10
59440.0
20
28870.0
40
400
0
CIRCLE
8
BLACK
10
60440.0
20
28870.0
40
400
0
CIRCLE
8
BLACK
10
61440.0
20
28870.0
40
400
0
CIRCLE
8
BLACK
10
62440.0
20
28870.0
40
400
0
CIRCLE
8
BLACK
10
63440.0
20
28870.0
40
400
0
CIRCLE
8
BLACK
10
64440.0
20
28870.0
40
400
0
CIRCLE
8
BLACK
10
65440.0
20
28870.0
40
400
0
CIRCLE
8
BLACK
10
58440.0
20
40370.0
40
400
0
CIRCLE
8
BLACK
10
59440.0
20
40370.0
40
400
0
CIRCLE
8
BLACK
10
60440.0
20
40370.0
40
400
0
CIRCLE
8
BLACK
10
61440.0
20
40370.0
40
400
0
CIRCLE
8
BLACK
10
62440.0
20
40370.0
40
400
0
CIRCLE
8
BLACK
10
63440.0
20
40370.0
40
400
0
CIRCLE
8
BLACK
10
64440.0
20
40370.0
40
400
0
CIRCLE
8
BLACK
10
65440.0
20
40370.0
40
400
0
LINE
8
BLACK
10
70120.0
20
52300.0
11
70120.0
21
52700.0
0
LINE
8
BLACK
10
69620.0
20
52300.0
11
69620.0
21
52700.0
0
ARC
8
BLACK
10
69870.0
20
52700.0
40
250.0
50
360.0
51
540.0
0
ARC
8
BLACK
10
69870.0
20
52300.0
40
250.0
50
180.0
51
360.0
0
LINE
8
BLACK
10
69120.0
20
52300.0
11
69120.0
21
52700.0
0
LINE
8
BLACK
10
68620.0
20
52300.0
11
68620.0
21
52700.0
0
ARC
8
BLACK
10
68870.0
20
52700.0
40
250.0
50
360.0
51
540.0
0
ARC
8
BLACK
10
68870.0
20
52300.0
40
250.0
50
180.0
51
360.0
0
LINE
8
BLACK
10
68120.0
20
52300.0
11
68120.0
21
52700.0
0
LINE
8
BLACK
10
67620.0
20
52300.0
11
67620.0
21
52700.0
0
ARC
8
BLACK
10
67870.0
20
52700.0
40
250.0
50
360.0
51
540.0
0
ARC
8
BLACK
10
67870.0
20
52300.0
40
250.0
50
180.0
51
360.0
0
LINE
8
BLACK
10
67120.0
20
52300.0
11
67120.0
21
52700.0
0
LINE
8
BLACK
10
66620.0
20
52300.0
11
66620.0
21
52700.0
0
ARC
8
BLACK
10
66870.0
20
52700.0
40
250.0
50
360.0
51
540.0
0
ARC
8
BLACK
10
66870.0
20
52300.0
40
250.0
50
180.0
51
360.0
0
LINE
8
BLACK
10
66120.0
20
52300.0
11
66120.0
21
52700.0
0
LINE
8
BLACK
10
65620.0
20
52300.0
11
65620.0
21
52700.0
0
ARC
8
BLACK
10
65870.0
20
52700.0
40
250.0
50
360.0
51
540.0
0
ARC
8
BLACK
10
65870.0
20
52300.0
40
250.0
50
180.0
51
360.0
0
LINE
8
BLACK
10
65120.0
20
52300.0
11
65120.0
21
52700.0
0
LINE
8
BLACK
10
64620.0
20
52300.0
11
64620.0
21
52700.0
0
ARC
8
BLACK
10
64870.0
20
52700.0
40
250.0
50
360.0
51
540.0
0
ARC
8
BLACK
10
64870.0
20
52300.0
40
250.0
50
180.0
51
360.0
0
LINE
8
BLACK
10
64120.0
20
52300.0
11
64120.0
21
52700.0
0
LINE
8
BLACK
10
63620.0
20
52300.0
11
63620.0
21
52700.0
0
ARC
8
BLACK
10
63870.0
20
52700.0
40
250.0
50
360.0
51
540.0
0
ARC
8
BLACK
10
63870.0
20
52300.0
40
250.0
50
180.0
51
360.0
0
LINE
8
BLACK
10
63120.0
20
52300.0
11
63120.0
21
52700.0
0
LINE
8
BLACK
10
62620.0
20
52300.0
11
62620.0
21
52700.0
0
ARC
8
BLACK
10
62870.0
20
52700.0
40
250.0
50
360.0
51
540.0
0
ARC
8
BLACK
10
62870.0
20
52300.0
40
250.0
50
180.0
51
360.0
0
CIRCLE
8
BLACK
10
71440.0
20
28870.0
40
400
0
CIRCLE
8
BLACK
10
72440.0
20
28870.0
40
400
0
CIRCLE
8
BLACK
10
73440.0
20
28870.0
40
400
0
CIRCLE
8
BLACK
10
74440.0
20
28870.0
40
400
0
CIRCLE
8
BLACK
10
75440.0
20
28870.0
40
400
0
CIRCLE
8
BLACK
10
76440.0
20
28870.0
40
400
0
CIRCLE
8
BLACK
10
77440.0
20
28870.0
40
400
0
CIRCLE
8
BLACK
10
78440.0
20
28870.0
40
400
0
CIRCLE
8
BLACK
10
76440.0
20
40370.0
40
400
0
CIRCLE
8
BLACK
10
75440.0
20
40370.0
40
400
0
CIRCLE
8
BLACK
10
74440.0
20
40370.0
40
400
0
CIRCLE
8
BLACK
10
73440.0
20
40370.0
40
400
0
CIRCLE
8
BLACK
10
72440.0
20
40370.0
40
400
0
CIRCLE
8
BLACK
10
71440.0
20
40370.0
40
400
0
CIRCLE
8
BLACK
10
70440.0
20
40370.0
40
400
0
CIRCLE
8
BLACK
10
69440.0
20
40370.0
40
400
0
CIRCLE
8
BLACK
10
36285.0
20
28095.0
40
400
0
CIRCLE
8
BLACK
10
36285.0
20
27095.0
40
400
0
CIRCLE
8
BLACK
10
36285.0
20
26095.0
40
400
0
CIRCLE
8
BLACK
10
36285.0
20
25095.0
40
400
0
CIRCLE
8
BLACK
10
36285.0
20
24095.0
40
400
0
CIRCLE
8
BLACK
10
36285.0
20
23095.0
40
400
0
LINE
8
BLACK
10
48010.0
20
51800.0
11
48010.0
21
52400.0
0
LINE
8
BLACK
10
48010.0
20
52400.0
11
47410.0
21
52400.0
0
LINE
8
BLACK
10
47410.0
20
52400.0
11
47410.0
21
51800.0
0
LINE
8
BLACK
10
47410.0
20
51800.0
11
48010.0
21
51800.0
0
CIRCLE
8
BLACK
10
46710.0
20
52100.0
40
275
0
CIRCLE
8
BLACK
10
45710.0
20
52100.0
40
275
0
CIRCLE
8
BLACK
10
44710.0
20
52100.0
40
275
0
LINE
8
BLACK
10
49105.0
20
40025.0
11
49655.0
21
40025.0
0
LINE
8
BLACK
10
49655.0
20
40025.0
11
49655.0
21
40575.0
0
LINE
8
BLACK
10
49655.0
20
40575.0
11
49105.0
21
40575.0
0
LINE
8
BLACK
10
49105.0
20
40575.0
11
49105.0
21
40025.0
0
CIRCLE
8
BLACK
10
49380.0
20
41300.0
40
275
0
CIRCLE
8
BLACK
10
49380.0
20
42300.0
40
275
0
LINE
8
BLACK
10
28285.0
20
40295.0
11
28285.0
21
39895.0
0
LINE
8
BLACK
10
28785.0
20
40295.0
11
28785.0
21
39895.0
0
ARC
8
BLACK
10
28535.0
20
39895.0
40
250.0
50
180.0
51
360.0
0
ARC
8
BLACK
10
28535.0
20
40295.0
40
250.0
50
0.0
51
180.0
0
LINE
8
BLACK
10
29285.0
20
40295.0
11
29285.0
21
39895.0
0
LINE
8
BLACK
10
29785.0
20
40295.0
11
29785.0
21
39895.0
0
ARC
8
BLACK
10
29535.0
20
39895.0
40
250.0
50
180.0
51
360.0
0
ARC
8
BLACK
10
29535.0
20
40295.0
40
250.0
50
0.0
51
180.0
0
LINE
8
BLACK
10
30285.0
20
40295.0
11
30285.0
21
39895.0
0
LINE
8
BLACK
10
30785.0
20
40295.0
11
30785.0
21
39895.0
0
ARC
8
BLACK
10
30535.0
20
39895.0
40
250.0
50
180.0
51
360.0
0
ARC
8
BLACK
10
30535.0
20
40295.0
40
250.0
50
0.0
51
180.0
0
LINE
8
BLACK
10
14420.0
20
49750.0
11
14420.0
21
49150.0
0
LINE
8
BLACK
10
14420.0
20
49150.0
11
15020.0
21
49150.0
0
LINE
8
BLACK
10
15020.0
20
49150.0
11
15020.0
21
49750.0
0
LINE
8
BLACK
10
15020.0
20
49750.0
11
14420.0
21
49750.0
0
CIRCLE
8
BLACK
10
15720.0
20
49450.0
40
300
0
LINE
8
BLACK
10
14420.0
20
48750.0
11
14420.0
21
48150.0
0
LINE
8
BLACK
10
14420.0
20
48150.0
11
15020.0
21
48150.0
0
LINE
8
BLACK
10
15020.0
20
48150.0
11
15020.0
21
48750.0
0
LINE
8
BLACK
10
15020.0
20
48750.0
11
14420.0
21
48750.0
0
CIRCLE
8
BLACK
10
15720.0
20
48450.0
40
300
0
LINE
8
BLACK
10
66395.0
20
42375.0
11
66395.0
21
41825.0
0
LINE
8
BLACK
10
66395.0
20
41825.0
11
66945.0
21
41825.0
0
LINE
8
BLACK
10
66945.0
20
41825.0
11
66945.0
21
42375.0
0
LINE
8
BLACK
10
66945.0
20
42375.0
11
66395.0
21
42375.0
0
CIRCLE
8
BLACK
10
67670.0
20
42100.0
40
400
0
LINE
8
BLACK
10
80220.0
20
66900.0
11
80220.0
21
66500.0
0
LINE
8
BLACK
10
80720.0
20
66900.0
11
80720.0
21
66500.0
0
ARC
8
BLACK
10
80470.0
20
66500.0
40
250.0
50
180.0
51
360.0
0
ARC
8
BLACK
10
80470.0
20
66900.0
40
250.0
50
0.0
51
180.0
0
LINE
8
BLACK
10
81220.0
20
66900.0
11
81220.0
21
66500.0
0
LINE
8
BLACK
10
81720.0
20
66900.0
11
81720.0
21
66500.0
0
ARC
8
BLACK
10
81470.0
20
66500.0
40
250.0
50
180.0
51
360.0
0
ARC
8
BLACK
10
81470.0
20
66900.0
40
250.0
50
0.0
51
180.0
0
LINE
8
BLACK
10
82220.0
20
66900.0
11
82220.0
21
66500.0
0
LINE
8
BLACK
10
82720.0
20
66900.0
11
82720.0
21
66500.0
0
ARC
8
BLACK
10
82470.0
20
66500.0
40
250.0
50
180.0
51
360.0
0
ARC
8
BLACK
10
82470.0
20
66900.0
40
250.0
50
0.0
51
180.0
0
LINE
8
BLACK
10
83220.0
20
66900.0
11
83220.0
21
66500.0
0
LINE
8
BLACK
10
83720.0
20
66900.0
11
83720.0
21
66500.0
0
ARC
8
BLACK
10
83470.0
20
66500.0
40
250.0
50
180.0
51
360.0
0
ARC
8
BLACK
10
83470.0
20
66900.0
40
250.0
50
0.0
51
180.0
0
LINE
8
BLACK
10
84220.0
20
66900.0
11
84220.0
21
66500.0
0
LINE
8
BLACK
10
84720.0
20
66900.0
11
84720.0
21
66500.0
0
ARC
8
BLACK
10
84470.0
20
66500.0
40
250.0
50
180.0
51
360.0
0
ARC
8
BLACK
10
84470.0
20
66900.0
40
250.0
50
0.0
51
180.0
0
LINE
8
BLACK
10
85220.0
20
66900.0
11
85220.0
21
66500.0
0
LINE
8
BLACK
10
85720.0
20
66900.0
11
85720.0
21
66500.0
0
ARC
8
BLACK
10
85470.0
20
66500.0
40
250.0
50
180.0
51
360.0
0
ARC
8
BLACK
10
85470.0
20
66900.0
40
250.0
50
0.0
51
180.0
0
LINE
8
BLACK
10
86220.0
20
66900.0
11
86220.0
21
66500.0
0
LINE
8
BLACK
10
86720.0
20
66900.0
11
86720.0
21
66500.0
0
ARC
8
BLACK
10
86470.0
20
66500.0
40
250.0
50
180.0
51
360.0
0
ARC
8
BLACK
10
86470.0
20
66900.0
40
250.0
50
0.0
51
180.0
0
LINE
8
BLACK
10
87220.0
20
66900.0
11
87220.0
21
66500.0
0
LINE
8
BLACK
10
87720.0
20
66900.0
11
87720.0
21
66500.0
0
ARC
8
BLACK
10
87470.0
20
66500.0
40
250.0
50
180.0
51
360.0
0
ARC
8
BLACK
10
87470.0
20
66900.0
40
250.0
50
0.0
51
180.0
0
LINE
8
BLACK
10
88220.0
20
66900.0
11
88220.0
21
66500.0
0
LINE
8
BLACK
10
88720.0
20
66900.0
11
88720.0
21
66500.0
0
ARC
8
BLACK
10
88470.0
20
66500.0
40
250.0
50
180.0
51
360.0
0
ARC
8
BLACK
10
88470.0
20
66900.0
40
250.0
50
0.0
51
180.0
0
LINE
8
BLACK
10
89220.0
20
66900.0
11
89220.0
21
66500.0
0
LINE
8
BLACK
10
89720.0
20
66900.0
11
89720.0
21
66500.0
0
ARC
8
BLACK
10
89470.0
20
66500.0
40
250.0
50
180.0
51
360.0
0
ARC
8
BLACK
10
89470.0
20
66900.0
40
250.0
50
0.0
51
180.0
0
LINE
8
BLACK
10
90220.0
20
66900.0
11
90220.0
21
66500.0
0
LINE
8
BLACK
10
90720.0
20
66900.0
11
90720.0
21
66500.0
0
ARC
8
BLACK
10
90470.0
20
66500.0
40
250.0
50
180.0
51
360.0
0
ARC
8
BLACK
10
90470.0
20
66900.0
40
250.0
50
0.0
51
180.0
0
LINE
8
BLACK
10
91220.0
20
66900.0
11
91220.0
21
66500.0
0
LINE
8
BLACK
10
91720.0
20
66900.0
11
91720.0
21
66500.0
0
ARC
8
BLACK
10
91470.0
20
66500.0
40
250.0
50
180.0
51
360.0
0
ARC
8
BLACK
10
91470.0
20
66900.0
40
250.0
50
0.0
51
180.0
0
LINE
8
BLACK
10
92220.0
20
66900.0
11
92220.0
21
66500.0
0
LINE
8
BLACK
10
92720.0
20
66900.0
11
92720.0
21
66500.0
0
ARC
8
BLACK
10
92470.0
20
66500.0
40
250.0
50
180.0
51
360.0
0
ARC
8
BLACK
10
92470.0
20
66900.0
40
250.0
50
0.0
51
180.0
0
LINE
8
BLACK
10
93220.0
20
66900.0
11
93220.0
21
66500.0
0
LINE
8
BLACK
10
93720.0
20
66900.0
11
93720.0
21
66500.0
0
ARC
8
BLACK
10
93470.0
20
66500.0
40
250.0
50
180.0
51
360.0
0
ARC
8
BLACK
10
93470.0
20
66900.0
40
250.0
50
0.0
51
180.0
0
LINE
8
BLACK
10
94220.0
20
66900.0
11
94220.0
21
66500.0
0
LINE
8
BLACK
10
94720.0
20
66900.0
11
94720.0
21
66500.0
0
ARC
8
BLACK
10
94470.0
20
66500.0
40
250.0
50
180.0
51
360.0
0
ARC
8
BLACK
10
94470.0
20
66900.0
40
250.0
50
0.0
51
180.0
0
LINE
8
BLACK
10
95220.0
20
66900.0
11
95220.0
21
66500.0
0
LINE
8
BLACK
10
95720.0
20
66900.0
11
95720.0
21
66500.0
0
ARC
8
BLACK
10
95470.0
20
66500.0
40
250.0
50
180.0
51
360.0
0
ARC
8
BLACK
10
95470.0
20
66900.0
40
250.0
50
0.0
51
180.0
0
LINE
8
BLACK
10
33620.0
20
66750.0
11
33620.0
21
65950.0
0
LINE
8
BLACK
10
33620.0
20
65950.0
11
34420.0
21
65950.0
0
LINE
8
BLACK
10
34420.0
20
65950.0
11
34420.0
21
66750.0
0
LINE
8
BLACK
10
34420.0
20
66750.0
11
33620.0
21
66750.0
0
LINE
8
BLACK
10
36620.0
20
66750.0
11
36620.0
21
65950.0
0
LINE
8
BLACK
10
36620.0
20
65950.0
11
37420.0
21
65950.0
0
LINE
8
BLACK
10
37420.0
20
65950.0
11
37420.0
21
66750.0
0
LINE
8
BLACK
10
37420.0
20
66750.0
11
36620.0
21
66750.0
0
LINE
8
BLACK
10
44490.0
20
34730.0
11
43690.0
21
34730.0
0
LINE
8
BLACK
10
43690.0
20
34730.0
11
43690.0
21
33930.0
0
LINE
8
BLACK
10
43690.0
20
33930.0
11
44490.0
21
33930.0
0
LINE
8
BLACK
10
44490.0
20
33930.0
11
44490.0
21
34730.0
0
LINE
8
BLACK
10
44490.0
20
31730.0
11
43690.0
21
31730.0
0
LINE
8
BLACK
10
43690.0
20
31730.0
11
43690.0
21
30930.0
0
LINE
8
BLACK
10
43690.0
20
30930.0
11
44490.0
21
30930.0
0
LINE
8
BLACK
10
44490.0
20
30930.0
11
44490.0
21
31730.0
0
LINE
8
BLACK
10
17685.0
20
23195.0
11
17685.0
21
23995.0
0
LINE
8
BLACK
10
17685.0
20
23995.0
11
16885.0
21
23995.0
0
LINE
8
BLACK
10
16885.0
20
23995.0
11
16885.0
21
23195.0
0
LINE
8
BLACK
10
16885.0
20
23195.0
11
17685.0
21
23195.0
0
LINE
8
BLACK
10
14685.0
20
23195.0
11
14685.0
21
23995.0
0
LINE
8
BLACK
10
14685.0
20
23995.0
11
13885.0
21
23995.0
0
LINE
8
BLACK
10
13885.0
20
23995.0
11
13885.0
21
23195.0
0
LINE
8
BLACK
10
13885.0
20
23195.0
11
14685.0
21
23195.0
0
LINE
8
BLACK
10
17685.0
20
26195.0
11
17685.0
21
26995.0
0
LINE
8
BLACK
10
17685.0
20
26995.0
11
16885.0
21
26995.0
0
LINE
8
BLACK
10
16885.0
20
26995.0
11
16885.0
21
26195.0
0
LINE
8
BLACK
10
16885.0
20
26195.0
11
17685.0
21
26195.0
0
LINE
8
BLACK
10
14685.0
20
26195.0
11
14685.0
21
26995.0
0
LINE
8
BLACK
10
14685.0
20
26995.0
11
13885.0
21
26995.0
0
LINE
8
BLACK
10
13885.0
20
26995.0
11
13885.0
21
26195.0
0
LINE
8
BLACK
10
13885.0
20
26195.0
11
14685.0
21
26195.0
0
LINE
8
BLACK
10
33620.0
20
65550.0
11
33620.0
21
64750.0
0
LINE
8
BLACK
10
33620.0
20
64750.0
11
34420.0
21
64750.0
0
LINE
8
BLACK
10
34420.0
20
64750.0
11
34420.0
21
65550.0
0
LINE
8
BLACK
10
34420.0
20
65550.0
11
33620.0
21
65550.0
0
LINE
8
BLACK
10
36620.0
20
65550.0
11
36620.0
21
64750.0
0
LINE
8
BLACK
10
36620.0
20
64750.0
11
37420.0
21
64750.0
0
LINE
8
BLACK
10
37420.0
20
64750.0
11
37420.0
21
65550.0
0
LINE
8
BLACK
10
37420.0
20
65550.0
11
36620.0
21
65550.0
0
LINE
8
BLACK
10
100120.0
20
66300.0
11
100120.0
21
67100.0
0
LINE
8
BLACK
10
100120.0
20
67100.0
11
99320.0
21
67100.0
0
LINE
8
BLACK
10
99320.0
20
67100.0
11
99320.0
21
66300.0
0
LINE
8
BLACK
10
99320.0
20
66300.0
11
100120.0
21
66300.0
0
LINE
8
BLACK
10
97120.0
20
66300.0
11
97120.0
21
67100.0
0
LINE
8
BLACK
10
97120.0
20
67100.0
11
96320.0
21
67100.0
0
LINE
8
BLACK
10
96320.0
20
67100.0
11
96320.0
21
66300.0
0
LINE
8
BLACK
10
96320.0
20
66300.0
11
97120.0
21
66300.0
0
LINE
8
BLACK
10
68220.0
20
65350.0
11
69020.0
21
65350.0
0
LINE
8
BLACK
10
69020.0
20
65350.0
11
69020.0
21
66150.0
0
LINE
8
BLACK
10
69020.0
20
66150.0
11
68220.0
21
66150.0
0
LINE
8
BLACK
10
68220.0
20
66150.0
11
68220.0
21
65350.0
0
LINE
8
BLACK
10
68220.0
20
68350.0
11
69020.0
21
68350.0
0
LINE
8
BLACK
10
69020.0
20
68350.0
11
69020.0
21
69150.0
0
LINE
8
BLACK
10
69020.0
20
69150.0
11
68220.0
21
69150.0
0
LINE
8
BLACK
10
68220.0
20
69150.0
11
68220.0
21
68350.0
0
LINE
8
BLACK
10
73220.0
20
65350.0
11
74020.0
21
65350.0
0
LINE
8
BLACK
10
74020.0
20
65350.0
11
74020.0
21
66150.0
0
LINE
8
BLACK
10
74020.0
20
66150.0
11
73220.0
21
66150.0
0
LINE
8
BLACK
10
73220.0
20
66150.0
11
73220.0
21
65350.0
0
LINE
8
BLACK
10
73220.0
20
68350.0
11
74020.0
21
68350.0
0
LINE
8
BLACK
10
74020.0
20
68350.0
11
74020.0
21
69150.0
0
LINE
8
BLACK
10
74020.0
20
69150.0
11
73220.0
21
69150.0
0
LINE
8
BLACK
10
73220.0
20
69150.0
11
73220.0
21
68350.0
0
LINE
8
BLACK
10
64020.0
20
57100.0
11
64020.0
21
57900.0
0
LINE
8
BLACK
10
64020.0
20
57900.0
11
63220.0
21
57900.0
0
LINE
8
BLACK
10
63220.0
20
57900.0
11
63220.0
21
57100.0
0
LINE
8
BLACK
10
63220.0
20
57100.0
11
64020.0
21
57100.0
0
LINE
8
BLACK
10
61020.0
20
57100.0
11
61020.0
21
57900.0
0
LINE
8
BLACK
10
61020.0
20
57900.0
11
60220.0
21
57900.0
0
LINE
8
BLACK
10
60220.0
20
57900.0
11
60220.0
21
57100.0
0
LINE
8
BLACK
10
60220.0
20
57100.0
11
61020.0
21
57100.0
0
LINE
8
BLACK
10
64020.0
20
58100.0
11
64020.0
21
58900.0
0
LINE
8
BLACK
10
64020.0
20
58900.0
11
63220.0
21
58900.0
0
LINE
8
BLACK
10
63220.0
20
58900.0
11
63220.0
21
58100.0
0
LINE
8
BLACK
10
63220.0
20
58100.0
11
64020.0
21
58100.0
0
LINE
8
BLACK
10
61020.0
20
58100.0
11
61020.0
21
58900.0
0
LINE
8
BLACK
10
61020.0
20
58900.0
11
60220.0
21
58900.0
0
LINE
8
BLACK
10
60220.0
20
58900.0
11
60220.0
21
58100.0
0
LINE
8
BLACK
10
60220.0
20
58100.0
11
61020.0
21
58100.0
0
LINE
8
BLACK
10
64020.0
20
59100.0
11
64020.0
21
59900.0
0
LINE
8
BLACK
10
64020.0
20
59900.0
11
63220.0
21
59900.0
0
LINE
8
BLACK
10
63220.0
20
59900.0
11
63220.0
21
59100.0
0
LINE
8
BLACK
10
63220.0
20
59100.0
11
64020.0
21
59100.0
0
LINE
8
BLACK
10
61020.0
20
59100.0
11
61020.0
21
59900.0
0
LINE
8
BLACK
10
61020.0
20
59900.0
11
60220.0
21
59900.0
0
LINE
8
BLACK
10
60220.0
20
59900.0
11
60220.0
21
59100.0
0
LINE
8
BLACK
10
60220.0
20
59100.0
11
61020.0
21
59100.0
0
LINE
8
BLACK
10
64020.0
20
60100.0
11
64020.0
21
60900.0
0
LINE
8
BLACK
10
64020.0
20
60900.0
11
63220.0
21
60900.0
0
LINE
8
BLACK
10
63220.0
20
60900.0
11
63220.0
21
60100.0
0
LINE
8
BLACK
10
63220.0
20
60100.0
11
64020.0
21
60100.0
0
LINE
8
BLACK
10
61020.0
20
60100.0
11
61020.0
21
60900.0
0
LINE
8
BLACK
10
61020.0
20
60900.0
11
60220.0
21
60900.0
0
LINE
8
BLACK
10
60220.0
20
60900.0
11
60220.0
21
60100.0
0
LINE
8
BLACK
10
60220.0
20
60100.0
11
61020.0
21
60100.0
0
LINE
8
BLACK
10
17010.0
20
21620.0
11
17010.0
21
20820.0
0
LINE
8
BLACK
10
17010.0
20
20820.0
11
17810.0
21
20820.0
0
LINE
8
BLACK
10
17810.0
20
20820.0
11
17810.0
21
21620.0
0
LINE
8
BLACK
10
17810.0
20
21620.0
11
17010.0
21
21620.0
0
LINE
8
BLACK
10
20010.0
20
21620.0
11
20010.0
21
20820.0
0
LINE
8
BLACK
10
20010.0
20
20820.0
11
20810.0
21
20820.0
0
LINE
8
BLACK
10
20810.0
20
20820.0
11
20810.0
21
21620.0
0
LINE
8
BLACK
10
20810.0
20
21620.0
11
20010.0
21
21620.0
0
LINE
8
BLACK
10
17720.0
20
68750.0
11
17720.0
21
67950.0
0
LINE
8
BLACK
10
17720.0
20
67950.0
11
18520.0
21
67950.0
0
LINE
8
BLACK
10
18520.0
20
67950.0
11
18520.0
21
68750.0
0
LINE
8
BLACK
10
18520.0
20
68750.0
11
17720.0
21
68750.0
0
LINE
8
BLACK
10
20720.0
20
68750.0
11
20720.0
21
67950.0
0
LINE
8
BLACK
10
20720.0
20
67950.0
11
21520.0
21
67950.0
0
LINE
8
BLACK
10
21520.0
20
67950.0
11
21520.0
21
68750.0
0
LINE
8
BLACK
10
21520.0
20
68750.0
11
20720.0
21
68750.0
0
LINE
8
BLACK
10
17750.0
20
63520.0
11
17750.0
21
62720.0
0
LINE
8
BLACK
10
17750.0
20
62720.0
11
18550.0
21
62720.0
0
LINE
8
BLACK
10
18550.0
20
62720.0
11
18550.0
21
63520.0
0
LINE
8
BLACK
10
18550.0
20
63520.0
11
17750.0
21
63520.0
0
LINE
8
BLACK
10
20750.0
20
63520.0
11
20750.0
21
62720.0
0
LINE
8
BLACK
10
20750.0
20
62720.0
11
21550.0
21
62720.0
0
LINE
8
BLACK
10
21550.0
20
62720.0
11
21550.0
21
63520.0
0
LINE
8
BLACK
10
21550.0
20
63520.0
11
20750.0
21
63520.0
0
LINE
8
BLACK
10
17750.0
20
64770.0
11
17750.0
21
63970.0
0
LINE
8
BLACK
10
17750.0
20
63970.0
11
18550.0
21
63970.0
0
LINE
8
BLACK
10
18550.0
20
63970.0
11
18550.0
21
64770.0
0
LINE
8
BLACK
10
18550.0
20
64770.0
11
17750.0
21
64770.0
0
LINE
8
BLACK
10
20750.0
20
64770.0
11
20750.0
21
63970.0
0
LINE
8
BLACK
10
20750.0
20
63970.0
11
21550.0
21
63970.0
0
LINE
8
BLACK
10
21550.0
20
63970.0
11
21550.0
21
64770.0
0
LINE
8
BLACK
10
21550.0
20
64770.0
11
20750.0
21
64770.0
0
LINE
8
BLACK
10
64020.0
20
61100.0
11
64020.0
21
61900.0
0
LINE
8
BLACK
10
64020.0
20
61900.0
11
63220.0
21
61900.0
0
LINE
8
BLACK
10
63220.0
20
61900.0
11
63220.0
21
61100.0
0
LINE
8
BLACK
10
63220.0
20
61100.0
11
64020.0
21
61100.0
0
LINE
8
BLACK
10
61020.0
20
61100.0
11
61020.0
21
61900.0
0
LINE
8
BLACK
10
61020.0
20
61900.0
11
60220.0
21
61900.0
0
LINE
8
BLACK
10
60220.0
20
61900.0
11
60220.0
21
61100.0
0
LINE
8
BLACK
10
60220.0
20
61100.0
11
61020.0
21
61100.0
0
LINE
8
BLACK
10
64020.0
20
63100.0
11
64020.0
21
63900.0
0
LINE
8
BLACK
10
64020.0
20
63900.0
11
63220.0
21
63900.0
0
LINE
8
BLACK
10
63220.0
20
63900.0
11
63220.0
21
63100.0
0
LINE
8
BLACK
10
63220.0
20
63100.0
11
64020.0
21
63100.0
0
LINE
8
BLACK
10
61020.0
20
63100.0
11
61020.0
21
63900.0
0
LINE
8
BLACK
10
61020.0
20
63900.0
11
60220.0
21
63900.0
0
LINE
8
BLACK
10
60220.0
20
63900.0
11
60220.0
21
63100.0
0
LINE
8
BLACK
10
60220.0
20
63100.0
11
61020.0
21
63100.0
0
LINE
8
BLACK
10
64020.0
20
62100.0
11
64020.0
21
62900.0
0
LINE
8
BLACK
10
64020.0
20
62900.0
11
63220.0
21
62900.0
0
LINE
8
BLACK
10
63220.0
20
62900.0
11
63220.0
21
62100.0
0
LINE
8
BLACK
10
63220.0
20
62100.0
11
64020.0
21
62100.0
0
LINE
8
BLACK
10
61020.0
20
62100.0
11
61020.0
21
62900.0
0
LINE
8
BLACK
10
61020.0
20
62900.0
11
60220.0
21
62900.0
0
LINE
8
BLACK
10
60220.0
20
62900.0
11
60220.0
21
62100.0
0
LINE
8
BLACK
10
60220.0
20
62100.0
11
61020.0
21
62100.0
0
LINE
8
BLACK
10
42610.0
20
60000.0
11
41810.0
21
60000.0
0
LINE
8
BLACK
10
41810.0
20
60000.0
11
41810.0
21
59200.0
0
LINE
8
BLACK
10
41810.0
20
59200.0
11
42610.0
21
59200.0
0
LINE
8
BLACK
10
42610.0
20
59200.0
11
42610.0
21
60000.0
0
LINE
8
BLACK
10
42610.0
20
57000.0
11
41810.0
21
57000.0
0
LINE
8
BLACK
10
41810.0
20
57000.0
11
41810.0
21
56200.0
0
LINE
8
BLACK
10
41810.0
20
56200.0
11
42610.0
21
56200.0
0
LINE
8
BLACK
10
42610.0
20
56200.0
11
42610.0
21
57000.0
0
LINE
8
BLACK
10
45110.0
20
60000.0
11
44310.0
21
60000.0
0
LINE
8
BLACK
10
44310.0
20
60000.0
11
44310.0
21
59200.0
0
LINE
8
BLACK
10
44310.0
20
59200.0
11
45110.0
21
59200.0
0
LINE
8
BLACK
10
45110.0
20
59200.0
11
45110.0
21
60000.0
0
LINE
8
BLACK
10
45110.0
20
57000.0
11
44310.0
21
57000.0
0
LINE
8
BLACK
10
44310.0
20
57000.0
11
44310.0
21
56200.0
0
LINE
8
BLACK
10
44310.0
20
56200.0
11
45110.0
21
56200.0
0
LINE
8
BLACK
10
45110.0
20
56200.0
11
45110.0
21
57000.0
0
LINE
8
BLACK
10
47860.0
20
60000.0
11
47060.0
21
60000.0
0
LINE
8
BLACK
10
47060.0
20
60000.0
11
47060.0
21
59200.0
0
LINE
8
BLACK
10
47060.0
20
59200.0
11
47860.0
21
59200.0
0
LINE
8
BLACK
10
47860.0
20
59200.0
11
47860.0
21
60000.0
0
LINE
8
BLACK
10
47860.0
20
57000.0
11
47060.0
21
57000.0
0
LINE
8
BLACK
10
47060.0
20
57000.0
11
47060.0
21
56200.0
0
LINE
8
BLACK
10
47060.0
20
56200.0
11
47860.0
21
56200.0
0
LINE
8
BLACK
10
47860.0
20
56200.0
11
47860.0
21
57000.0
0
LINE
8
BLACK
10
50360.0
20
60000.0
11
49560.0
21
60000.0
0
LINE
8
BLACK
10
49560.0
20
60000.0
11
49560.0
21
59200.0
0
LINE
8
BLACK
10
49560.0
20
59200.0
11
50360.0
21
59200.0
0
LINE
8
BLACK
10
50360.0
20
59200.0
11
50360.0
21
60000.0
0
LINE
8
BLACK
10
50360.0
20
57000.0
11
49560.0
21
57000.0
0
LINE
8
BLACK
10
49560.0
20
57000.0
11
49560.0
21
56200.0
0
LINE
8
BLACK
10
49560.0
20
56200.0
11
50360.0
21
56200.0
0
LINE
8
BLACK
10
50360.0
20
56200.0
11
50360.0
21
57000.0
0
LINE
8
BLACK
10
27250.0
20
64470.0
11
28050.0
21
64470.0
0
LINE
8
BLACK
10
28050.0
20
64470.0
11
28050.0
21
65270.0
0
LINE
8
BLACK
10
28050.0
20
65270.0
11
27250.0
21
65270.0
0
LINE
8
BLACK
10
27250.0
20
65270.0
11
27250.0
21
64470.0
0
LINE
8
BLACK
10
27250.0
20
67470.0
11
28050.0
21
67470.0
0
LINE
8
BLACK
10
28050.0
20
67470.0
11
28050.0
21
68270.0
0
LINE
8
BLACK
10
28050.0
20
68270.0
11
27250.0
21
68270.0
0
LINE
8
BLACK
10
27250.0
20
68270.0
11
27250.0
21
67470.0
0
LINE
8
BLACK
10
49370.0
20
66850.0
11
48570.0
21
66850.0
0
LINE
8
BLACK
10
48570.0
20
66850.0
11
48570.0
21
66050.0
0
LINE
8
BLACK
10
48570.0
20
66050.0
11
49370.0
21
66050.0
0
LINE
8
BLACK
10
49370.0
20
66050.0
11
49370.0
21
66850.0
0
LINE
8
BLACK
10
49370.0
20
63850.0
11
48570.0
21
63850.0
0
LINE
8
BLACK
10
48570.0
20
63850.0
11
48570.0
21
63050.0
0
LINE
8
BLACK
10
48570.0
20
63050.0
11
49370.0
21
63050.0
0
LINE
8
BLACK
10
49370.0
20
63050.0
11
49370.0
21
63850.0
0
CIRCLE
8
BLACK
10
12035.0
20
26595.0
40
330
0
CIRCLE
8
BLACK
10
13035.0
20
26595.0
40
330
0
CIRCLE
8
BLACK
10
12035.0
20
23845.0
40
330
0
CIRCLE
8
BLACK
10
13035.0
20
23845.0
40
330
0
CIRCLE
8
BLACK
10
42210.0
20
55400.0
40
330
0
CIRCLE
8
BLACK
10
42210.0
20
54400.0
40
330
0
CIRCLE
8
BLACK
10
44810.0
20
55400.0
40
330
0
CIRCLE
8
BLACK
10
44810.0
20
54400.0
40
330
0
CIRCLE
8
BLACK
10
47460.0
20
55400.0
40
330
0
CIRCLE
8
BLACK
10
47460.0
20
54400.0
40
330
0
CIRCLE
8
BLACK
10
50060.0
20
55400.0
40
330
0
CIRCLE
8
BLACK
10
50060.0
20
54400.0
40
330
0
CIRCLE
8
BLACK
10
29650.0
20
66870.0
40
330
0
CIRCLE
8
BLACK
10
29650.0
20
65870.0
40
330
0
CIRCLE
8
BLACK
10
80470.0
20
63716.0
40
400
0
CIRCLE
8
BLACK
10
81470.0
20
63700.0
40
400
0
CIRCLE
8
BLACK
10
82470.0
20
63700.0
40
400
0
CIRCLE
8
BLACK
10
83470.0
20
63700.0
40
400
0
CIRCLE
8
BLACK
10
84470.0
20
63700.0
40
400
0
CIRCLE
8
BLACK
10
85470.0
20
63700.0
40
400
0
CIRCLE
8
BLACK
10
86470.0
20
63700.0
40
400
0
CIRCLE
8
BLACK
10
87470.0
20
63700.0
40
400
0
CIRCLE
8
BLACK
10
88470.0
20
63700.0
40
400
0
CIRCLE
8
BLACK
10
89470.0
20
63700.0
40
400
0
CIRCLE
8
BLACK
10
90470.0
20
63700.0
40
400
0
CIRCLE
8
BLACK
10
91470.0
20
63700.0
40
400
0
CIRCLE
8
BLACK
10
92470.0
20
63700.0
40
400
0
LINE
8
BLACK
10
93220.0
20
63900.0
11
93220.0
21
63500.0
0
LINE
8
BLACK
10
93720.0
20
63900.0
11
93720.0
21
63500.0
0
ARC
8
BLACK
10
93470.0
20
63500.0
40
250.0
50
180.0
51
360.0
0
ARC
8
BLACK
10
93470.0
20
63900.0
40
250.0
50
0.0
51
180.0
0
LINE
8
BLACK
10
94220.0
20
63900.0
11
94220.0
21
63500.0
0
LINE
8
BLACK
10
94720.0
20
63900.0
11
94720.0
21
63500.0
0
ARC
8
BLACK
10
94470.0
20
63500.0
40
250.0
50
180.0
51
360.0
0
ARC
8
BLACK
10
94470.0
20
63900.0
40
250.0
50
0.0
51
180.0
0
LINE
8
BLACK
10
95220.0
20
63900.0
11
95220.0
21
63500.0
0
LINE
8
BLACK
10
95720.0
20
63900.0
11
95720.0
21
63500.0
0
ARC
8
BLACK
10
95470.0
20
63500.0
40
250.0
50
180.0
51
360.0
0
ARC
8
BLACK
10
95470.0
20
63900.0
40
250.0
50
0.0
51
180.0
0
CIRCLE
8
BLACK
10
78305.0
20
63700.0
40
886
0
CIRCLE
8
BLACK
10
78305.0
20
51495.0
40
886
0
CIRCLE
8
BLACK
10
107832.0
20
63700.0
40
886
0
CIRCLE
8
BLACK
10
107832.0
20
51495.0
40
886
0
CIRCLE
8
BLACK
10
27035.0
20
21845.0
40
400
0
CIRCLE
8
BLACK
10
29035.0
20
21845.0
40
400
0
CIRCLE
8
BLACK
10
67440.0
20
28620.0
40
400
0
CIRCLE
8
BLACK
10
69440.0
20
28620.0
40
400
0
CIRCLE
8
BLACK
10
22785.0
20
40095.0
40
400
0
CIRCLE
8
BLACK
10
20785.0
20
40095.0
40
400
0
CIRCLE
8
BLACK
10
23510.0
20
60670.0
40
500
0
CIRCLE
8
BLACK
10
15010.0
20
60670.0
40
500
0
LINE
8
BLACK
10
66577.0
20
63655.0
11
66577.0
21
63455.0
0
LINE
8
BLACK
10
67277.0
20
63655.0
11
67277.0
21
63455.0
0
ARC
8
BLACK
10
66927.0
20
63455.0
40
350.0
50
180.0
51
360.0
0
ARC
8
BLACK
10
66927.0
20
63655.0
40
350.0
50
0.0
51
180.0
0
LINE
8
BLACK
10
67577.0
20
63655.0
11
67577.0
21
63455.0
0
LINE
8
BLACK
10
68277.0
20
63655.0
11
68277.0
21
63455.0
0
ARC
8
BLACK
10
67927.0
20
63455.0
40
350.0
50
180.0
51
360.0
0
ARC
8
BLACK
10
67927.0
20
63655.0
40
350.0
50
0.0
51
180.0
0
LINE
8
BLACK
10
68577.0
20
63655.0
11
68577.0
21
63455.0
0
LINE
8
BLACK
10
69277.0
20
63655.0
11
69277.0
21
63455.0
0
ARC
8
BLACK
10
68927.0
20
63455.0
40
350.0
50
180.0
51
360.0
0
ARC
8
BLACK
10
68927.0
20
63655.0
40
350.0
50
0.0
51
180.0
0
LINE
8
BLACK
10
69577.0
20
63655.0
11
69577.0
21
63455.0
0
LINE
8
BLACK
10
70277.0
20
63655.0
11
70277.0
21
63455.0
0
ARC
8
BLACK
10
69927.0
20
63455.0
40
350.0
50
180.0
51
360.0
0
ARC
8
BLACK
10
69927.0
20
63655.0
40
350.0
50
0.0
51
180.0
0
LINE
8
BLACK
10
70580.0
20
63655.0
11
70580.0
21
63455.0
0
LINE
8
BLACK
10
71280.0
20
63655.0
11
71280.0
21
63455.0
0
ARC
8
BLACK
10
70930.0
20
63455.0
40
350.0
50
180.0
51
360.0
0
ARC
8
BLACK
10
70930.0
20
63655.0
40
350.0
50
0.0
51
180.0
0
LINE
8
BLACK
10
71580.0
20
63655.0
11
71580.0
21
63455.0
0
LINE
8
BLACK
10
72280.0
20
63655.0
11
72280.0
21
63455.0
0
ARC
8
BLACK
10
71930.0
20
63455.0
40
350.0
50
180.0
51
360.0
0
ARC
8
BLACK
10
71930.0
20
63655.0
40
350.0
50
0.0
51
180.0
0
LINE
8
BLACK
10
72580.0
20
63655.0
11
72580.0
21
63455.0
0
LINE
8
BLACK
10
73280.0
20
63655.0
11
73280.0
21
63455.0
0
ARC
8
BLACK
10
72930.0
20
63455.0
40
350.0
50
180.0
51
360.0
0
ARC
8
BLACK
10
72930.0
20
63655.0
40
350.0
50
0.0
51
180.0
0
LINE
8
BLACK
10
73580.0
20
63655.0
11
73580.0
21
63455.0
0
LINE
8
BLACK
10
74280.0
20
63655.0
11
74280.0
21
63455.0
0
ARC
8
BLACK
10
73930.0
20
63455.0
40
350.0
50
180.0
51
360.0
0
ARC
8
BLACK
10
73930.0
20
63655.0
40
350.0
50
0.0
51
180.0
0
LINE
8
BLACK
10
66567.0
20
57995.0
11
66567.0
21
57095.0
0
LINE
8
BLACK
10
66567.0
20
57095.0
11
67267.0
21
57095.0
0
LINE
8
BLACK
10
67267.0
20
57095.0
11
67267.0
21
57995.0
0
LINE
8
BLACK
10
67267.0
20
57995.0
11
66567.0
21
57995.0
0
LINE
8
BLACK
10
67570.0
20
57645.0
11
67570.0
21
57445.0
0
LINE
8
BLACK
10
68270.0
20
57645.0
11
68270.0
21
57445.0
0
ARC
8
BLACK
10
67920.0
20
57445.0
40
350.0
50
180.0
51
360.0
0
ARC
8
BLACK
10
67920.0
20
57645.0
40
350.0
50
0.0
51
180.0
0
LINE
8
BLACK
10
68570.0
20
57645.0
11
68570.0
21
57445.0
0
LINE
8
BLACK
10
69270.0
20
57645.0
11
69270.0
21
57445.0
0
ARC
8
BLACK
10
68920.0
20
57445.0
40
350.0
50
180.0
51
360.0
0
ARC
8
BLACK
10
68920.0
20
57645.0
40
350.0
50
0.0
51
180.0
0
LINE
8
BLACK
10
69570.0
20
57645.0
11
69570.0
21
57445.0
0
LINE
8
BLACK
10
70270.0
20
57645.0
11
70270.0
21
57445.0
0
ARC
8
BLACK
10
69920.0
20
57445.0
40
350.0
50
180.0
51
360.0
0
ARC
8
BLACK
10
69920.0
20
57645.0
40
350.0
50
0.0
51
180.0
0
LINE
8
BLACK
10
70670.0
20
57645.0
11
70670.0
21
57445.0
0
LINE
8
BLACK
10
71170.0
20
57645.0
11
71170.0
21
57445.0
0
ARC
8
BLACK
10
70920.0
20
57445.0
40
250.0
50
180.0
51
360.0
0
ARC
8
BLACK
10
70920.0
20
57645.0
40
250.0
50
0.0
51
180.0
0
LINE
8
BLACK
10
71670.0
20
57645.0
11
71670.0
21
57445.0
0
LINE
8
BLACK
10
72170.0
20
57645.0
11
72170.0
21
57445.0
0
ARC
8
BLACK
10
71920.0
20
57445.0
40
250.0
50
180.0
51
360.0
0
ARC
8
BLACK
10
71920.0
20
57645.0
40
250.0
50
0.0
51
180.0
0
LINE
8
BLACK
10
72570.0
20
57645.0
11
72570.0
21
57445.0
0
LINE
8
BLACK
10
73270.0
20
57645.0
11
73270.0
21
57445.0
0
ARC
8
BLACK
10
72920.0
20
57445.0
40
350.0
50
180.0
51
360.0
0
ARC
8
BLACK
10
72920.0
20
57645.0
40
350.0
50
0.0
51
180.0
0
LINE
8
BLACK
10
73570.0
20
57645.0
11
73570.0
21
57445.0
0
LINE
8
BLACK
10
74270.0
20
57645.0
11
74270.0
21
57445.0
0
ARC
8
BLACK
10
73920.0
20
57445.0
40
350.0
50
180.0
51
360.0
0
ARC
8
BLACK
10
73920.0
20
57645.0
40
350.0
50
0.0
51
180.0
0
LINE
8
BLACK
10
74580.0
20
63655.0
11
74580.0
21
63455.0
0
LINE
8
BLACK
10
75280.0
20
63655.0
11
75280.0
21
63455.0
0
ARC
8
BLACK
10
74930.0
20
63455.0
40
350.0
50
180.0
51
360.0
0
ARC
8
BLACK
10
74930.0
20
63655.0
40
350.0
50
0.0
51
180.0
0
LINE
8
BLACK
10
74570.0
20
57645.0
11
74570.0
21
57445.0
0
LINE
8
BLACK
10
75270.0
20
57645.0
11
75270.0
21
57445.0
0
ARC
8
BLACK
10
74920.0
20
57445.0
40
350.0
50
180.0
51
360.0
0
ARC
8
BLACK
10
74920.0
20
57645.0
40
350.0
50
0.0
51
180.0
0
LINE
8
BLACK
10
50420.0
20
65350.0
11
51420.0
21
65350.0
0
LINE
8
BLACK
10
51420.0
20
65350.0
11
51420.0
21
66350.0
0
LINE
8
BLACK
10
51420.0
20
66350.0
11
50420.0
21
66350.0
0
LINE
8
BLACK
10
50420.0
20
66350.0
11
50420.0
21
65350.0
0
LINE
8
BLACK
10
50420.0
20
61350.0
11
51420.0
21
61350.0
0
LINE
8
BLACK
10
51420.0
20
61350.0
11
51420.0
21
62350.0
0
LINE
8
BLACK
10
51420.0
20
62350.0
11
50420.0
21
62350.0
0
LINE
8
BLACK
10
50420.0
20
62350.0
11
50420.0
21
61350.0
0
LINE
8
BLACK
10
44130.0
20
42800.0
11
45130.0
21
42800.0
0
LINE
8
BLACK
10
45130.0
20
42800.0
11
45130.0
21
43800.0
0
LINE
8
BLACK
10
45130.0
20
43800.0
11
44130.0
21
43800.0
0
LINE
8
BLACK
10
44130.0
20
43800.0
11
44130.0
21
42800.0
0
LINE
8
BLACK
10
44130.0
20
38800.0
11
45130.0
21
38800.0
0
LINE
8
BLACK
10
45130.0
20
38800.0
11
45130.0
21
39800.0
0
LINE
8
BLACK
10
45130.0
20
39800.0
11
44130.0
21
39800.0
0
LINE
8
BLACK
10
44130.0
20
39800.0
11
44130.0
21
38800.0
0
LINE
8
BLACK
10
34500.0
20
61340.0
11
34500.0
21
60440.0
0
LINE
8
BLACK
10
34500.0
20
60440.0
11
35120.0
21
60440.0
0
LINE
8
BLACK
10
35120.0
20
60440.0
11
35120.0
21
61340.0
0
LINE
8
BLACK
10
35120.0
20
61340.0
11
34500.0
21
61340.0
0
LINE
8
BLACK
10
35500.0
20
61030.0
11
35500.0
21
60750.0
0
LINE
8
BLACK
10
36120.0
20
61030.0
11
36120.0
21
60750.0
0
ARC
8
BLACK
10
35810.0
20
60750.0
40
310.0
50
180.0
51
360.0
0
ARC
8
BLACK
10
35810.0
20
61030.0
40
310.0
50
0.0
51
180.0
0
LINE
8
BLACK
10
36500.0
20
61030.0
11
36500.0
21
60750.0
0
LINE
8
BLACK
10
37120.0
20
61030.0
11
37120.0
21
60750.0
0
ARC
8
BLACK
10
36810.0
20
60750.0
40
310.0
50
180.0
51
360.0
0
ARC
8
BLACK
10
36810.0
20
61030.0
40
310.0
50
0.0
51
180.0
0
LINE
8
BLACK
10
37500.0
20
61030.0
11
37500.0
21
60750.0
0
LINE
8
BLACK
10
38120.0
20
61030.0
11
38120.0
21
60750.0
0
ARC
8
BLACK
10
37810.0
20
60750.0
40
310.0
50
180.0
51
360.0
0
ARC
8
BLACK
10
37810.0
20
61030.0
40
310.0
50
0.0
51
180.0
0
LINE
8
BLACK
10
37500.0
20
64030.0
11
37500.0
21
63750.0
0
LINE
8
BLACK
10
38120.0
20
64030.0
11
38120.0
21
63750.0
0
ARC
8
BLACK
10
37810.0
20
63750.0
40
310.0
50
180.0
51
360.0
0
ARC
8
BLACK
10
37810.0
20
64030.0
40
310.0
50
0.0
51
180.0
0
LINE
8
BLACK
10
36500.0
20
64030.0
11
36500.0
21
63750.0
0
LINE
8
BLACK
10
37120.0
20
64030.0
11
37120.0
21
63750.0
0
ARC
8
BLACK
10
36810.0
20
63750.0
40
310.0
50
180.0
51
360.0
0
ARC
8
BLACK
10
36810.0
20
64030.0
40
310.0
50
0.0
51
180.0
0
LINE
8
BLACK
10
35500.0
20
64030.0
11
35500.0
21
63750.0
0
LINE
8
BLACK
10
36120.0
20
64030.0
11
36120.0
21
63750.0
0
ARC
8
BLACK
10
35810.0
20
63750.0
40
310.0
50
180.0
51
360.0
0
ARC
8
BLACK
10
35810.0
20
64030.0
40
310.0
50
0.0
51
180.0
0
LINE
8
BLACK
10
34500.0
20
64030.0
11
34500.0
21
63750.0
0
LINE
8
BLACK
10
35120.0
20
64030.0
11
35120.0
21
63750.0
0
ARC
8
BLACK
10
34810.0
20
63750.0
40
310.0
50
180.0
51
360.0
0
ARC
8
BLACK
10
34810.0
20
64030.0
40
310.0
50
0.0
51
180.0
0
LINE
8
BLACK
10
20225.0
20
23735.0
11
20225.0
21
23455.0
0
LINE
8
BLACK
10
20845.0
20
23735.0
11
20845.0
21
23455.0
0
ARC
8
BLACK
10
20535.0
20
23455.0
40
310.0
50
180.0
51
360.0
0
ARC
8
BLACK
10
20535.0
20
23735.0
40
310.0
50
0.0
51
180.0
0
LINE
8
BLACK
10
21225.0
20
23735.0
11
21225.0
21
23455.0
0
LINE
8
BLACK
10
21845.0
20
23735.0
11
21845.0
21
23455.0
0
ARC
8
BLACK
10
21535.0
20
23455.0
40
310.0
50
180.0
51
360.0
0
ARC
8
BLACK
10
21535.0
20
23735.0
40
310.0
50
0.0
51
180.0
0
LINE
8
BLACK
10
22225.0
20
23735.0
11
22225.0
21
23455.0
0
LINE
8
BLACK
10
22845.0
20
23735.0
11
22845.0
21
23455.0
0
ARC
8
BLACK
10
22535.0
20
23455.0
40
310.0
50
180.0
51
360.0
0
ARC
8
BLACK
10
22535.0
20
23735.0
40
310.0
50
0.0
51
180.0
0
LINE
8
BLACK
10
23285.0
20
23695.0
11
23285.0
21
23495.0
0
LINE
8
BLACK
10
23785.0
20
23695.0
11
23785.0
21
23495.0
0
ARC
8
BLACK
10
23535.0
20
23495.0
40
250.0
50
180.0
51
360.0
0
ARC
8
BLACK
10
23535.0
20
23695.0
40
250.0
50
0.0
51
180.0
0
LINE
8
BLACK
10
24285.0
20
23695.0
11
24285.0
21
23495.0
0
LINE
8
BLACK
10
24785.0
20
23695.0
11
24785.0
21
23495.0
0
ARC
8
BLACK
10
24535.0
20
23495.0
40
250.0
50
180.0
51
360.0
0
ARC
8
BLACK
10
24535.0
20
23695.0
40
250.0
50
0.0
51
180.0
0
LINE
8
BLACK
10
25225.0
20
23735.0
11
25225.0
21
23455.0
0
LINE
8
BLACK
10
25845.0
20
23735.0
11
25845.0
21
23455.0
0
ARC
8
BLACK
10
25535.0
20
23455.0
40
310.0
50
180.0
51
360.0
0
ARC
8
BLACK
10
25535.0
20
23735.0
40
310.0
50
0.0
51
180.0
0
LINE
8
BLACK
10
26225.0
20
23735.0
11
26225.0
21
23455.0
0
LINE
8
BLACK
10
26845.0
20
23735.0
11
26845.0
21
23455.0
0
ARC
8
BLACK
10
26535.0
20
23455.0
40
310.0
50
180.0
51
360.0
0
ARC
8
BLACK
10
26535.0
20
23735.0
40
310.0
50
0.0
51
180.0
0
LINE
8
BLACK
10
27225.0
20
23735.0
11
27225.0
21
23455.0
0
LINE
8
BLACK
10
27845.0
20
23735.0
11
27845.0
21
23455.0
0
ARC
8
BLACK
10
27535.0
20
23455.0
40
310.0
50
180.0
51
360.0
0
ARC
8
BLACK
10
27535.0
20
23735.0
40
310.0
50
0.0
51
180.0
0
LINE
8
BLACK
10
28225.0
20
23735.0
11
28225.0
21
23455.0
0
LINE
8
BLACK
10
28845.0
20
23735.0
11
28845.0
21
23455.0
0
ARC
8
BLACK
10
28535.0
20
23455.0
40
310.0
50
180.0
51
360.0
0
ARC
8
BLACK
10
28535.0
20
23735.0
40
310.0
50
0.0
51
180.0
0
LINE
8
BLACK
10
29285.0
20
23695.0
11
29285.0
21
23495.0
0
LINE
8
BLACK
10
29785.0
20
23695.0
11
29785.0
21
23495.0
0
ARC
8
BLACK
10
29535.0
20
23495.0
40
250.0
50
180.0
51
360.0
0
ARC
8
BLACK
10
29535.0
20
23695.0
40
250.0
50
0.0
51
180.0
0
LINE
8
BLACK
10
30285.0
20
23695.0
11
30285.0
21
23495.0
0
LINE
8
BLACK
10
30785.0
20
23695.0
11
30785.0
21
23495.0
0
ARC
8
BLACK
10
30535.0
20
23495.0
40
250.0
50
180.0
51
360.0
0
ARC
8
BLACK
10
30535.0
20
23695.0
40
250.0
50
0.0
51
180.0
0
LINE
8
BLACK
10
31335.0
20
23695.0
11
31335.0
21
23495.0
0
LINE
8
BLACK
10
31735.0
20
23695.0
11
31735.0
21
23495.0
0
ARC
8
BLACK
10
31535.0
20
23495.0
40
200.0
50
180.0
51
360.0
0
ARC
8
BLACK
10
31535.0
20
23695.0
40
200.0
50
0.0
51
180.0
0
LINE
8
BLACK
10
32225.0
20
23735.0
11
32225.0
21
23455.0
0
LINE
8
BLACK
10
32845.0
20
23735.0
11
32845.0
21
23455.0
0
ARC
8
BLACK
10
32535.0
20
23455.0
40
310.0
50
180.0
51
360.0
0
ARC
8
BLACK
10
32535.0
20
23735.0
40
310.0
50
0.0
51
180.0
0
LINE
8
BLACK
10
19225.0
20
24045.0
11
19225.0
21
23145.0
0
LINE
8
BLACK
10
19225.0
20
23145.0
11
19845.0
21
23145.0
0
LINE
8
BLACK
10
19845.0
20
23145.0
11
19845.0
21
24045.0
0
LINE
8
BLACK
10
19845.0
20
24045.0
11
19225.0
21
24045.0
0
LINE
8
BLACK
10
32225.0
20
26735.0
11
32225.0
21
26455.0
0
LINE
8
BLACK
10
32845.0
20
26735.0
11
32845.0
21
26455.0
0
ARC
8
BLACK
10
32535.0
20
26455.0
40
310.0
50
180.0
51
360.0
0
ARC
8
BLACK
10
32535.0
20
26735.0
40
310.0
50
0.0
51
180.0
0
LINE
8
BLACK
10
31285.0
20
26795.0
11
31285.0
21
26395.0
0
LINE
8
BLACK
10
31785.0
20
26795.0
11
31785.0
21
26395.0
0
ARC
8
BLACK
10
31535.0
20
26395.0
40
250.0
50
180.0
51
360.0
0
ARC
8
BLACK
10
31535.0
20
26795.0
40
250.0
50
0.0
51
180.0
0
LINE
8
BLACK
10
30285.0
20
26795.0
11
30285.0
21
26395.0
0
LINE
8
BLACK
10
30785.0
20
26795.0
11
30785.0
21
26395.0
0
ARC
8
BLACK
10
30535.0
20
26395.0
40
250.0
50
180.0
51
360.0
0
ARC
8
BLACK
10
30535.0
20
26795.0
40
250.0
50
0.0
51
180.0
0
LINE
8
BLACK
10
29285.0
20
26795.0
11
29285.0
21
26395.0
0
LINE
8
BLACK
10
29785.0
20
26795.0
11
29785.0
21
26395.0
0
ARC
8
BLACK
10
29535.0
20
26395.0
40
250.0
50
180.0
51
360.0
0
ARC
8
BLACK
10
29535.0
20
26795.0
40
250.0
50
0.0
51
180.0
0
LINE
8
BLACK
10
28285.0
20
26795.0
11
28285.0
21
26395.0
0
LINE
8
BLACK
10
28785.0
20
26795.0
11
28785.0
21
26395.0
0
ARC
8
BLACK
10
28535.0
20
26395.0
40
250.0
50
180.0
51
360.0
0
ARC
8
BLACK
10
28535.0
20
26795.0
40
250.0
50
0.0
51
180.0
0
LINE
8
BLACK
10
27225.0
20
26735.0
11
27225.0
21
26455.0
0
LINE
8
BLACK
10
27845.0
20
26735.0
11
27845.0
21
26455.0
0
ARC
8
BLACK
10
27535.0
20
26455.0
40
310.0
50
180.0
51
360.0
0
ARC
8
BLACK
10
27535.0
20
26735.0
40
310.0
50
0.0
51
180.0
0
LINE
8
BLACK
10
26285.0
20
26695.0
11
26285.0
21
26495.0
0
LINE
8
BLACK
10
26785.0
20
26695.0
11
26785.0
21
26495.0
0
ARC
8
BLACK
10
26535.0
20
26495.0
40
250.0
50
180.0
51
360.0
0
ARC
8
BLACK
10
26535.0
20
26695.0
40
250.0
50
0.0
51
180.0
0
LINE
8
BLACK
10
25225.0
20
26735.0
11
25225.0
21
26455.0
0
LINE
8
BLACK
10
25845.0
20
26735.0
11
25845.0
21
26455.0
0
ARC
8
BLACK
10
25535.0
20
26455.0
40
310.0
50
180.0
51
360.0
0
ARC
8
BLACK
10
25535.0
20
26735.0
40
310.0
50
0.0
51
180.0
0
LINE
8
BLACK
10
24225.0
20
26735.0
11
24225.0
21
26455.0
0
LINE
8
BLACK
10
24845.0
20
26735.0
11
24845.0
21
26455.0
0
ARC
8
BLACK
10
24535.0
20
26455.0
40
310.0
50
180.0
51
360.0
0
ARC
8
BLACK
10
24535.0
20
26735.0
40
310.0
50
0.0
51
180.0
0
LINE
8
BLACK
10
23225.0
20
26735.0
11
23225.0
21
26455.0
0
LINE
8
BLACK
10
23845.0
20
26735.0
11
23845.0
21
26455.0
0
ARC
8
BLACK
10
23535.0
20
26455.0
40
310.0
50
180.0
51
360.0
0
ARC
8
BLACK
10
23535.0
20
26735.0
40
310.0
50
0.0
51
180.0
0
LINE
8
BLACK
10
22225.0
20
26735.0
11
22225.0
21
26455.0
0
LINE
8
BLACK
10
22845.0
20
26735.0
11
22845.0
21
26455.0
0
ARC
8
BLACK
10
22535.0
20
26455.0
40
310.0
50
180.0
51
360.0
0
ARC
8
BLACK
10
22535.0
20
26735.0
40
310.0
50
0.0
51
180.0
0
LINE
8
BLACK
10
21225.0
20
26735.0
11
21225.0
21
26455.0
0
LINE
8
BLACK
10
21845.0
20
26735.0
11
21845.0
21
26455.0
0
ARC
8
BLACK
10
21535.0
20
26455.0
40
310.0
50
180.0
51
360.0
0
ARC
8
BLACK
10
21535.0
20
26735.0
40
310.0
50
0.0
51
180.0
0
LINE
8
BLACK
10
20225.0
20
26735.0
11
20225.0
21
26455.0
0
LINE
8
BLACK
10
20845.0
20
26735.0
11
20845.0
21
26455.0
0
ARC
8
BLACK
10
20535.0
20
26455.0
40
310.0
50
180.0
51
360.0
0
ARC
8
BLACK
10
20535.0
20
26735.0
40
310.0
50
0.0
51
180.0
0
LINE
8
BLACK
10
19225.0
20
26735.0
11
19225.0
21
26455.0
0
LINE
8
BLACK
10
19845.0
20
26735.0
11
19845.0
21
26455.0
0
ARC
8
BLACK
10
19535.0
20
26455.0
40
310.0
50
180.0
51
360.0
0
ARC
8
BLACK
10
19535.0
20
26735.0
40
310.0
50
0.0
51
180.0
0
LINE
8
BLACK
10
20110.0
20
47500.0
11
21010.0
21
47500.0
0
LINE
8
BLACK
10
21010.0
20
47500.0
11
21010.0
21
48120.0
0
LINE
8
BLACK
10
21010.0
20
48120.0
11
20110.0
21
48120.0
0
LINE
8
BLACK
10
20110.0
20
48120.0
11
20110.0
21
47500.0
0
LINE
8
BLACK
10
20420.0
20
48500.0
11
20700.0
21
48500.0
0
LINE
8
BLACK
10
20420.0
20
49120.0
11
20700.0
21
49120.0
0
ARC
8
BLACK
10
20700.0
20
48810.0
40
310.0
50
270.0
51
450.0
0
ARC
8
BLACK
10
20420.0
20
48810.0
40
310.0
50
90.0
51
270.0
0
LINE
8
BLACK
10
20420.0
20
49500.0
11
20700.0
21
49500.0
0
LINE
8
BLACK
10
20420.0
20
50120.0
11
20700.0
21
50120.0
0
ARC
8
BLACK
10
20700.0
20
49810.0
40
310.0
50
270.0
51
450.0
0
ARC
8
BLACK
10
20420.0
20
49810.0
40
310.0
50
90.0
51
270.0
0
LINE
8
BLACK
10
20420.0
20
50500.0
11
20700.0
21
50500.0
0
LINE
8
BLACK
10
20420.0
20
51120.0
11
20700.0
21
51120.0
0
ARC
8
BLACK
10
20700.0
20
50810.0
40
310.0
50
270.0
51
450.0
0
ARC
8
BLACK
10
20420.0
20
50810.0
40
310.0
50
90.0
51
270.0
0
LINE
8
BLACK
10
20420.0
20
51500.0
11
20700.0
21
51500.0
0
LINE
8
BLACK
10
20420.0
20
52120.0
11
20700.0
21
52120.0
0
ARC
8
BLACK
10
20700.0
20
51810.0
40
310.0
50
270.0
51
450.0
0
ARC
8
BLACK
10
20420.0
20
51810.0
40
310.0
50
90.0
51
270.0
0
LINE
8
BLACK
10
20420.0
20
52500.0
11
20700.0
21
52500.0
0
LINE
8
BLACK
10
20420.0
20
53120.0
11
20700.0
21
53120.0
0
ARC
8
BLACK
10
20700.0
20
52810.0
40
310.0
50
270.0
51
450.0
0
ARC
8
BLACK
10
20420.0
20
52810.0
40
310.0
50
90.0
51
270.0
0
LINE
8
BLACK
10
20460.0
20
53560.0
11
20660.0
21
53560.0
0
LINE
8
BLACK
10
20460.0
20
54060.0
11
20660.0
21
54060.0
0
ARC
8
BLACK
10
20660.0
20
53810.0
40
250.0
50
270.0
51
450.0
0
ARC
8
BLACK
10
20460.0
20
53810.0
40
250.0
50
90.0
51
270.0
0
LINE
8
BLACK
10
20460.0
20
54560.0
11
20660.0
21
54560.0
0
LINE
8
BLACK
10
20460.0
20
55060.0
11
20660.0
21
55060.0
0
ARC
8
BLACK
10
20660.0
20
54810.0
40
250.0
50
270.0
51
450.0
0
ARC
8
BLACK
10
20460.0
20
54810.0
40
250.0
50
90.0
51
270.0
0
LINE
8
BLACK
10
17420.0
20
54500.0
11
17700.0
21
54500.0
0
LINE
8
BLACK
10
17420.0
20
55120.0
11
17700.0
21
55120.0
0
ARC
8
BLACK
10
17700.0
20
54810.0
40
310.0
50
270.0
51
450.0
0
ARC
8
BLACK
10
17420.0
20
54810.0
40
310.0
50
90.0
51
270.0
0
LINE
8
BLACK
10
17420.0
20
53500.0
11
17700.0
21
53500.0
0
LINE
8
BLACK
10
17420.0
20
54120.0
11
17700.0
21
54120.0
0
ARC
8
BLACK
10
17700.0
20
53810.0
40
310.0
50
270.0
51
450.0
0
ARC
8
BLACK
10
17420.0
20
53810.0
40
310.0
50
90.0
51
270.0
0
LINE
8
BLACK
10
17420.0
20
52500.0
11
17700.0
21
52500.0
0
LINE
8
BLACK
10
17420.0
20
53120.0
11
17700.0
21
53120.0
0
ARC
8
BLACK
10
17700.0
20
52810.0
40
310.0
50
270.0
51
450.0
0
ARC
8
BLACK
10
17420.0
20
52810.0
40
310.0
50
90.0
51
270.0
0
LINE
8
BLACK
10
17360.0
20
51560.0
11
17760.0
21
51560.0
0
LINE
8
BLACK
10
17360.0
20
52060.0
11
17760.0
21
52060.0
0
ARC
8
BLACK
10
17760.0
20
51810.0
40
250.0
50
270.0
51
450.0
0
ARC
8
BLACK
10
17360.0
20
51810.0
40
250.0
50
90.0
51
270.0
0
LINE
8
BLACK
10
17360.0
20
50560.0
11
17760.0
21
50560.0
0
LINE
8
BLACK
10
17360.0
20
51060.0
11
17760.0
21
51060.0
0
ARC
8
BLACK
10
17760.0
20
50810.0
40
250.0
50
270.0
51
450.0
0
ARC
8
BLACK
10
17360.0
20
50810.0
40
250.0
50
90.0
51
270.0
0
LINE
8
BLACK
10
17360.0
20
49560.0
11
17760.0
21
49560.0
0
LINE
8
BLACK
10
17360.0
20
50060.0
11
17760.0
21
50060.0
0
ARC
8
BLACK
10
17760.0
20
49810.0
40
250.0
50
270.0
51
450.0
0
ARC
8
BLACK
10
17360.0
20
49810.0
40
250.0
50
90.0
51
270.0
0
LINE
8
BLACK
10
17360.0
20
48560.0
11
17760.0
21
48560.0
0
LINE
8
BLACK
10
17360.0
20
49060.0
11
17760.0
21
49060.0
0
ARC
8
BLACK
10
17760.0
20
48810.0
40
250.0
50
270.0
51
450.0
0
ARC
8
BLACK
10
17360.0
20
48810.0
40
250.0
50
90.0
51
270.0
0
LINE
8
BLACK
10
17420.0
20
47500.0
11
17700.0
21
47500.0
0
LINE
8
BLACK
10
17420.0
20
48120.0
11
17700.0
21
48120.0
0
ARC
8
BLACK
10
17700.0
20
47810.0
40
310.0
50
270.0
51
450.0
0
ARC
8
BLACK
10
17420.0
20
47810.0
40
310.0
50
90.0
51
270.0
0
LINE
8
BLACK
10
56820.0
20
64810.0
11
55920.0
21
64810.0
0
LINE
8
BLACK
10
55920.0
20
64810.0
11
55920.0
21
64190.0
0
LINE
8
BLACK
10
55920.0
20
64190.0
11
56820.0
21
64190.0
0
LINE
8
BLACK
10
56820.0
20
64190.0
11
56820.0
21
64810.0
0
LINE
8
BLACK
10
56510.0
20
63810.0
11
56230.0
21
63810.0
0
LINE
8
BLACK
10
56510.0
20
63190.0
11
56230.0
21
63190.0
0
ARC
8
BLACK
10
56230.0
20
63500.0
40
310.0
50
450.0
51
630.0
0
ARC
8
BLACK
10
56510.0
20
63500.0
40
310.0
50
270.0
51
450.0
0
LINE
8
BLACK
10
56510.0
20
62810.0
11
56230.0
21
62810.0
0
LINE
8
BLACK
10
56510.0
20
62190.0
11
56230.0
21
62190.0
0
ARC
8
BLACK
10
56230.0
20
62500.0
40
310.0
50
450.0
51
630.0
0
ARC
8
BLACK
10
56510.0
20
62500.0
40
310.0
50
270.0
51
450.0
0
LINE
8
BLACK
10
56510.0
20
61810.0
11
56230.0
21
61810.0
0
LINE
8
BLACK
10
56510.0
20
61190.0
11
56230.0
21
61190.0
0
ARC
8
BLACK
10
56230.0
20
61500.0
40
310.0
50
450.0
51
630.0
0
ARC
8
BLACK
10
56510.0
20
61500.0
40
310.0
50
270.0
51
450.0
0
LINE
8
BLACK
10
56510.0
20
60810.0
11
56230.0
21
60810.0
0
LINE
8
BLACK
10
56510.0
20
60190.0
11
56230.0
21
60190.0
0
ARC
8
BLACK
10
56230.0
20
60500.0
40
310.0
50
450.0
51
630.0
0
ARC
8
BLACK
10
56510.0
20
60500.0
40
310.0
50
270.0
51
450.0
0
LINE
8
BLACK
10
56510.0
20
59810.0
11
56230.0
21
59810.0
0
LINE
8
BLACK
10
56510.0
20
59190.0
11
56230.0
21
59190.0
0
ARC
8
BLACK
10
56230.0
20
59500.0
40
310.0
50
450.0
51
630.0
0
ARC
8
BLACK
10
56510.0
20
59500.0
40
310.0
50
270.0
51
450.0
0
LINE
8
BLACK
10
56510.0
20
58810.0
11
56230.0
21
58810.0
0
LINE
8
BLACK
10
56510.0
20
58190.0
11
56230.0
21
58190.0
0
ARC
8
BLACK
10
56230.0
20
58500.0
40
310.0
50
450.0
51
630.0
0
ARC
8
BLACK
10
56510.0
20
58500.0
40
310.0
50
270.0
51
450.0
0
LINE
8
BLACK
10
56510.0
20
57810.0
11
56230.0
21
57810.0
0
LINE
8
BLACK
10
56510.0
20
57190.0
11
56230.0
21
57190.0
0
ARC
8
BLACK
10
56230.0
20
57500.0
40
310.0
50
450.0
51
630.0
0
ARC
8
BLACK
10
56510.0
20
57500.0
40
310.0
50
270.0
51
450.0
0
LINE
8
BLACK
10
59510.0
20
57810.0
11
59230.0
21
57810.0
0
LINE
8
BLACK
10
59510.0
20
57190.0
11
59230.0
21
57190.0
0
ARC
8
BLACK
10
59230.0
20
57500.0
40
310.0
50
450.0
51
630.0
0
ARC
8
BLACK
10
59510.0
20
57500.0
40
310.0
50
270.0
51
450.0
0
LINE
8
BLACK
10
59510.0
20
58810.0
11
59230.0
21
58810.0
0
LINE
8
BLACK
10
59510.0
20
58190.0
11
59230.0
21
58190.0
0
ARC
8
BLACK
10
59230.0
20
58500.0
40
310.0
50
450.0
51
630.0
0
ARC
8
BLACK
10
59510.0
20
58500.0
40
310.0
50
270.0
51
450.0
0
LINE
8
BLACK
10
59510.0
20
59810.0
11
59230.0
21
59810.0
0
LINE
8
BLACK
10
59510.0
20
59190.0
11
59230.0
21
59190.0
0
ARC
8
BLACK
10
59230.0
20
59500.0
40
310.0
50
450.0
51
630.0
0
ARC
8
BLACK
10
59510.0
20
59500.0
40
310.0
50
270.0
51
450.0
0
LINE
8
BLACK
10
59510.0
20
60810.0
11
59230.0
21
60810.0
0
LINE
8
BLACK
10
59510.0
20
60190.0
11
59230.0
21
60190.0
0
ARC
8
BLACK
10
59230.0
20
60500.0
40
310.0
50
450.0
51
630.0
0
ARC
8
BLACK
10
59510.0
20
60500.0
40
310.0
50
270.0
51
450.0
0
LINE
8
BLACK
10
59510.0
20
61810.0
11
59230.0
21
61810.0
0
LINE
8
BLACK
10
59510.0
20
61190.0
11
59230.0
21
61190.0
0
ARC
8
BLACK
10
59230.0
20
61500.0
40
310.0
50
450.0
51
630.0
0
ARC
8
BLACK
10
59510.0
20
61500.0
40
310.0
50
270.0
51
450.0
0
LINE
8
BLACK
10
59510.0
20
62810.0
11
59230.0
21
62810.0
0
LINE
8
BLACK
10
59510.0
20
62190.0
11
59230.0
21
62190.0
0
ARC
8
BLACK
10
59230.0
20
62500.0
40
310.0
50
450.0
51
630.0
0
ARC
8
BLACK
10
59510.0
20
62500.0
40
310.0
50
270.0
51
450.0
0
LINE
8
BLACK
10
59510.0
20
63810.0
11
59230.0
21
63810.0
0
LINE
8
BLACK
10
59510.0
20
63190.0
11
59230.0
21
63190.0
0
ARC
8
BLACK
10
59230.0
20
63500.0
40
310.0
50
450.0
51
630.0
0
ARC
8
BLACK
10
59510.0
20
63500.0
40
310.0
50
270.0
51
450.0
0
LINE
8
BLACK
10
59510.0
20
64810.0
11
59230.0
21
64810.0
0
LINE
8
BLACK
10
59510.0
20
64190.0
11
59230.0
21
64190.0
0
ARC
8
BLACK
10
59230.0
20
64500.0
40
310.0
50
450.0
51
630.0
0
ARC
8
BLACK
10
59510.0
20
64500.0
40
310.0
50
270.0
51
450.0
0
CIRCLE
8
BLACK
10
12050.0
20
55720.0
40
750
0
CIRCLE
8
BLACK
10
12050.0
20
45870.0
40
750
0
LINE
8
BLACK
10
12900.0
20
53270.0
11
12300.0
21
53270.0
0
LINE
8
BLACK
10
12300.0
20
53270.0
11
12300.0
21
52670.0
0
LINE
8
BLACK
10
12300.0
20
52670.0
11
12900.0
21
52670.0
0
LINE
8
BLACK
10
12900.0
20
52670.0
11
12900.0
21
53270.0
0
CIRCLE
8
BLACK
10
12600.0
20
51870.0
40
300
0
CIRCLE
8
BLACK
10
12600.0
20
50820.0
40
300
0
CIRCLE
8
BLACK
10
12600.0
20
49720.0
40
300
0
CIRCLE
8
BLACK
10
12600.0
20
48670.0
40
300
0
CIRCLE
8
BLACK
10
11500.0
20
52420.0
40
300
0
CIRCLE
8
BLACK
10
11500.0
20
51320.0
40
300
0
CIRCLE
8
BLACK
10
11500.0
20
50270.0
40
300
0
CIRCLE
8
BLACK
10
11500.0
20
49170.0
40
300
0
LINE
8
BLACK
10
68215.0
20
40095.0
11
68215.0
21
40645.0
0
LINE
8
BLACK
10
68215.0
20
40645.0
11
67665.0
21
40645.0
0
LINE
8
BLACK
10
67665.0
20
40645.0
11
67665.0
21
40095.0
0
LINE
8
BLACK
10
67665.0
20
40095.0
11
68215.0
21
40095.0
0
CIRCLE
8
BLACK
10
66940.0
20
40370.0
40
400
0
LINE
8
BLACK
10
26260.0
20
39320.0
11
26810.0
21
39320.0
0
LINE
8
BLACK
10
26810.0
20
39320.0
11
26810.0
21
39870.0
0
LINE
8
BLACK
10
26810.0
20
39870.0
11
26260.0
21
39870.0
0
LINE
8
BLACK
10
26260.0
20
39870.0
11
26260.0
21
39320.0
0
CIRCLE
8
BLACK
10
26535.0
20
40595.0
40
275
0
CIRCLE
8
BLACK
10
45720.0
20
63650.0
40
400
0
CIRCLE
8
BLACK
10
45720.0
20
66209.0
40
400
0
LINE
8
BLACK
10
15895.0
20
24995.0
11
15895.0
21
25195.0
0
LINE
8
BLACK
10
15175.0
20
24995.0
11
15175.0
21
25195.0
0
ARC
8
BLACK
10
15535.0
20
25195.0
40
360.0
50
360.0
51
540.0
0
ARC
8
BLACK
10
15535.0
20
24995.0
40
360.0
50
180.0
51
360.0
0
LINE
8
BLACK
10
16895.0
20
24995.0
11
16895.0
21
25195.0
0
LINE
8
BLACK
10
16175.0
20
24995.0
11
16175.0
21
25195.0
0
ARC
8
BLACK
10
16535.0
20
25195.0
40
360.0
50
360.0
51
540.0
0
ARC
8
BLACK
10
16535.0
20
24995.0
40
360.0
50
180.0
51
360.0
0
LINE
8
BLACK
10
23185.0
20
20945.0
11
23185.0
21
21495.0
0
LINE
8
BLACK
10
23185.0
20
21495.0
11
22635.0
21
21495.0
0
LINE
8
BLACK
10
22635.0
20
21495.0
11
22635.0
21
20945.0
0
LINE
8
BLACK
10
22635.0
20
20945.0
11
23185.0
21
20945.0
0
CIRCLE
8
BLACK
10
21910.0
20
21220.0
40
275
0
LINE
8
BLACK
10
38085.0
20
26395.0
11
37485.0
21
26395.0
0
LINE
8
BLACK
10
37485.0
20
26395.0
11
37485.0
21
25795.0
0
LINE
8
BLACK
10
37485.0
20
25795.0
11
38085.0
21
25795.0
0
LINE
8
BLACK
10
38085.0
20
25795.0
11
38085.0
21
26395.0
0
CIRCLE
8
BLACK
10
37785.0
20
27095.0
40
300
0
CIRCLE
8
BLACK
10
37785.0
20
28095.0
40
300
0
CIRCLE
8
BLACK
10
40785.0
20
26095.0
40
300
0
CIRCLE
8
BLACK
10
40785.0
20
27095.0
40
300
0
CIRCLE
8
BLACK
10
40785.0
20
28095.0
40
300
0
LINE
8
BLACK
10
42245.0
20
65975.0
11
41695.0
21
65975.0
0
LINE
8
BLACK
10
41695.0
20
65975.0
11
41695.0
21
65425.0
0
LINE
8
BLACK
10
41695.0
20
65425.0
11
42245.0
21
65425.0
0
LINE
8
BLACK
10
42245.0
20
65425.0
11
42245.0
21
65975.0
0
LINE
8
BLACK
10
42020.0
20
65075.0
11
41920.0
21
65075.0
0
LINE
8
BLACK
10
42020.0
20
64325.0
11
41920.0
21
64325.0
0
ARC
8
BLACK
10
41920.0
20
64700.0
40
375.0
50
450.0
51
630.0
0
ARC
8
BLACK
10
42020.0
20
64700.0
40
375.0
50
270.0
51
450.0
0
LINE
8
BLACK
10
42020.0
20
64075.0
11
41920.0
21
64075.0
0
LINE
8
BLACK
10
42020.0
20
63325.0
11
41920.0
21
63325.0
0
ARC
8
BLACK
10
41920.0
20
63700.0
40
375.0
50
450.0
51
630.0
0
ARC
8
BLACK
10
42020.0
20
63700.0
40
375.0
50
270.0
51
450.0
0
LINE
8
BLACK
10
15930.0
20
51480.0
11
15930.0
21
52080.0
0
LINE
8
BLACK
10
15930.0
20
52080.0
11
15330.0
21
52080.0
0
LINE
8
BLACK
10
15330.0
20
52080.0
11
15330.0
21
51480.0
0
LINE
8
BLACK
10
15330.0
20
51480.0
11
15930.0
21
51480.0
0
CIRCLE
8
BLACK
10
14630.0
20
51780.0
40
300
0
LINE
8
BLACK
10
14510.0
20
44935.0
11
14610.0
21
44935.0
0
LINE
8
BLACK
10
14510.0
20
45685.0
11
14610.0
21
45685.0
0
ARC
8
BLACK
10
14610.0
20
45310.0
40
375.0
50
270.0
51
450.0
0
ARC
8
BLACK
10
14510.0
20
45310.0
40
375.0
50
90.0
51
270.0
0
LINE
8
BLACK
10
14510.0
20
45935.0
11
14610.0
21
45935.0
0
LINE
8
BLACK
10
14510.0
20
46685.0
11
14610.0
21
46685.0
0
ARC
8
BLACK
10
14610.0
20
46310.0
40
375.0
50
270.0
51
450.0
0
ARC
8
BLACK
10
14510.0
20
46310.0
40
375.0
50
90.0
51
270.0
0
LINE
8
BLACK
10
25090.0
20
66265.0
11
25190.0
21
66265.0
0
LINE
8
BLACK
10
25090.0
20
67015.0
11
25190.0
21
67015.0
0
ARC
8
BLACK
10
25190.0
20
66640.0
40
375.0
50
270.0
51
450.0
0
ARC
8
BLACK
10
25090.0
20
66640.0
40
375.0
50
90.0
51
270.0
0
LINE
8
BLACK
10
25090.0
20
67265.0
11
25190.0
21
67265.0
0
LINE
8
BLACK
10
25090.0
20
68015.0
11
25190.0
21
68015.0
0
ARC
8
BLACK
10
25190.0
20
67640.0
40
375.0
50
270.0
51
450.0
0
ARC
8
BLACK
10
25090.0
20
67640.0
40
375.0
50
90.0
51
270.0
0
LINE
8
BLACK
10
25150.0
20
65355.0
11
25050.0
21
65355.0
0
LINE
8
BLACK
10
25150.0
20
64605.0
11
25050.0
21
64605.0
0
ARC
8
BLACK
10
25050.0
20
64980.0
40
375.0
50
450.0
51
630.0
0
ARC
8
BLACK
10
25150.0
20
64980.0
40
375.0
50
270.0
51
450.0
0
LINE
8
BLACK
10
25150.0
20
64355.0
11
25050.0
21
64355.0
0
LINE
8
BLACK
10
25150.0
20
63605.0
11
25050.0
21
63605.0
0
ARC
8
BLACK
10
25050.0
20
63980.0
40
375.0
50
450.0
51
630.0
0
ARC
8
BLACK
10
25150.0
20
63980.0
40
375.0
50
270.0
51
450.0
0
LINE
8
BLACK
10
22510.0
20
52935.0
11
22610.0
21
52935.0
0
LINE
8
BLACK
10
22510.0
20
53685.0
11
22610.0
21
53685.0
0
ARC
8
BLACK
10
22610.0
20
53310.0
40
375.0
50
270.0
51
450.0
0
ARC
8
BLACK
10
22510.0
20
53310.0
40
375.0
50
90.0
51
270.0
0
LINE
8
BLACK
10
22510.0
20
53935.0
11
22610.0
21
53935.0
0
LINE
8
BLACK
10
22510.0
20
54685.0
11
22610.0
21
54685.0
0
ARC
8
BLACK
10
22610.0
20
54310.0
40
375.0
50
270.0
51
450.0
0
ARC
8
BLACK
10
22510.0
20
54310.0
40
375.0
50
90.0
51
270.0
0
LINE
8
BLACK
10
22510.0
20
50435.0
11
22610.0
21
50435.0
0
LINE
8
BLACK
10
22510.0
20
51185.0
11
22610.0
21
51185.0
0
ARC
8
BLACK
10
22610.0
20
50810.0
40
375.0
50
270.0
51
450.0
0
ARC
8
BLACK
10
22510.0
20
50810.0
40
375.0
50
90.0
51
270.0
0
LINE
8
BLACK
10
22510.0
20
51435.0
11
22610.0
21
51435.0
0
LINE
8
BLACK
10
22510.0
20
52185.0
11
22610.0
21
52185.0
0
ARC
8
BLACK
10
22610.0
20
51810.0
40
375.0
50
270.0
51
450.0
0
ARC
8
BLACK
10
22510.0
20
51810.0
40
375.0
50
90.0
51
270.0
0
LINE
8
BLACK
10
18145.0
20
45400.0
11
18145.0
21
45300.0
0
LINE
8
BLACK
10
18895.0
20
45400.0
11
18895.0
21
45300.0
0
ARC
8
BLACK
10
18520.0
20
45300.0
40
375.0
50
180.0
51
360.0
0
ARC
8
BLACK
10
18520.0
20
45400.0
40
375.0
50
0.0
51
180.0
0
LINE
8
BLACK
10
19145.0
20
45400.0
11
19145.0
21
45300.0
0
LINE
8
BLACK
10
19895.0
20
45400.0
11
19895.0
21
45300.0
0
ARC
8
BLACK
10
19520.0
20
45300.0
40
375.0
50
180.0
51
360.0
0
ARC
8
BLACK
10
19520.0
20
45400.0
40
375.0
50
0.0
51
180.0
0
LINE
8
BLACK
10
22510.0
20
47685.0
11
22610.0
21
47685.0
0
LINE
8
BLACK
10
22510.0
20
48435.0
11
22610.0
21
48435.0
0
ARC
8
BLACK
10
22610.0
20
48060.0
40
375.0
50
270.0
51
450.0
0
ARC
8
BLACK
10
22510.0
20
48060.0
40
375.0
50
90.0
51
270.0
0
LINE
8
BLACK
10
22510.0
20
48685.0
11
22610.0
21
48685.0
0
LINE
8
BLACK
10
22510.0
20
49435.0
11
22610.0
21
49435.0
0
ARC
8
BLACK
10
22610.0
20
49060.0
40
375.0
50
270.0
51
450.0
0
ARC
8
BLACK
10
22510.0
20
49060.0
40
375.0
50
90.0
51
270.0
0
CIRCLE
8
BLACK
10
72167.0
20
66413.0
40
400
0
CIRCLE
8
BLACK
10
71773.0
20
67200.0
40
400
0
CIRCLE
8
BLACK
10
72167.0
20
67987.0
40
400
0
CIRCLE
8
BLACK
10
44933.0
20
68503.0
40
400
0
CIRCLE
8
BLACK
10
45720.0
20
68897.0
40
400
0
CIRCLE
8
BLACK
10
46507.0
20
68503.0
40
400
0
CIRCLE
8
BLACK
10
70417.0
20
66413.0
40
400
0
CIRCLE
8
BLACK
10
70023.0
20
67200.0
40
400
0
CIRCLE
8
BLACK
10
70417.0
20
67987.0
40
400
0
CIRCLE
8
BLACK
10
109500.0
20
72670.0
40
800
0
CIRCLE
8
BLACK
10
109500.0
20
16420.0
40
800
0
CIRCLE
8
BLACK
10
7750.0
20
72670.0
40
800
0
CIRCLE
8
BLACK
10
7750.0
20
16420.0
40
800
0
CIRCLE
8
BLACK
10
58750.0
20
72420.0
40
800
0
CIRCLE
8
BLACK
10
11220.0
20
60850.0
40
300
0
CIRCLE
8
BLACK
10
9050.0
20
60860.0
40
300
0
CIRCLE
8
BLACK
10
40320.0
20
24650.0
40
300
0
CIRCLE
8
BLACK
10
38420.0
20
24650.0
40
300
0
CIRCLE
8
BLACK
10
27035.0
20
33595.0
40
300
0
CIRCLE
8
BLACK
10
27035.0
20
35595.0
40
300
0
CIRCLE
8
BLACK
10
34285.0
20
31095.0
40
300
0
CIRCLE
8
BLACK
10
20040.0
20
33510.0
40
350
0
CIRCLE
8
BLACK
10
20030.0
20
32040.0
40
350
0
CIRCLE
8
BLACK
10
35535.0
20
31095.0
40
300
0
CIRCLE
8
BLACK
10
70370.0
20
58500.0
40
300
0
CIRCLE
8
BLACK
10
72620.0
20
58500.0
40
300
0
CIRCLE
8
BLACK
10
78230.0
20
37150.0
40
300
0
CIRCLE
8
BLACK
10
78250.0
20
34940.0
40
300
0
CIRCLE
8
BLACK
10
40120.0
20
66550.0
40
300
0
CIRCLE
8
BLACK
10
40020.0
20
67950.0
40
300
0
CIRCLE
8
BLACK
10
40920.0
20
66650.0
40
300
0
CIRCLE
8
BLACK
10
40920.0
20
67950.0
40
300
0
CIRCLE
8
BLACK
10
35530.0
20
35550.0
40
300
0
CIRCLE
8
BLACK
10
35530.0
20
33850.0
40
300
0
CIRCLE
8
BLACK
10
19035.0
20
34345.0
40
300
0
CIRCLE
8
BLACK
10
19035.0
20
32095.0
40
300
0
CIRCLE
8
BLACK
10
32410.0
20
68040.0
40
300
0
CIRCLE
8
BLACK
10
32410.0
20
66760.0
40
300
0
CIRCLE
8
BLACK
10
13285.0
20
36845.0
40
300
0
CIRCLE
8
BLACK
10
11535.0
20
36845.0
40
300
0
CIRCLE
8
BLACK
10
31035.0
20
24595.0
40
300
0
CIRCLE
8
BLACK
10
33035.0
20
24595.0
40
300
0
CIRCLE
8
BLACK
10
104350.0
20
23590.0
40
300
0
CIRCLE
8
BLACK
10
105520.0
20
23680.0
40
300
0
CIRCLE
8
BLACK
10
67070.0
20
36820.0
40
300
0
CIRCLE
8
BLACK
10
66990.0
20
33880.0
40
300
0
CIRCLE
8
BLACK
10
88370.0
20
70060.0
40
300
0
CIRCLE
8
BLACK
10
88400.0
20
69010.0
40
300
0
CIRCLE
8
BLACK
10
79360.0
20
70130.0
40
300
0
CIRCLE
8
BLACK
10
79380.0
20
68870.0
40
300
0
CIRCLE
8
BLACK
10
48220.0
20
38550.0
40
300
0
CIRCLE
8
BLACK
10
48220.0
20
36550.0
40
300
0
CIRCLE
8
BLACK
10
55120.0
20
54450.0
40
300
0
CIRCLE
8
BLACK
10
55120.0
20
51850.0
40
300
0
CIRCLE
8
BLACK
10
32920.0
20
53150.0
40
300
0
CIRCLE
8
BLACK
10
32920.0
20
50950.0
40
300
0
CIRCLE
8
BLACK
10
27540.0
20
42320.0
40
300
0
CIRCLE
8
BLACK
10
27540.0
20
41070.0
40
300
0
CIRCLE
8
BLACK
10
25035.0
20
25345.0
40
300
0
CIRCLE
8
BLACK
10
26535.0
20
25345.0
40
300
0
CIRCLE
8
BLACK
10
75680.0
20
68010.0
40
300
0
CIRCLE
8
BLACK
10
77410.0
20
67990.0
40
300
0
CIRCLE
8
BLACK
10
58490.0
20
55590.0
40
300
0
CIRCLE
8
BLACK
10
57130.0
20
55580.0
40
300
0
CIRCLE
8
BLACK
10
35200.0
20
68000.0
40
300
0
CIRCLE
8
BLACK
10
35180.0
20
66310.0
40
300
0
CIRCLE
8
BLACK
10
75130.0
20
45720.0
40
300
0
CIRCLE
8
BLACK
10
76760.0
20
45700.0
40
300
0
CIRCLE
8
BLACK
10
47120.0
20
38550.0
40
300
0
CIRCLE
8
BLACK
10
47120.0
20
36550.0
40
300
0
CIRCLE
8
BLACK
10
34220.0
20
50950.0
40
300
0
CIRCLE
8
BLACK
10
34220.0
20
53250.0
40
300
0
LINE
8
BLACK
10
11221.0
20
60949.0
11
9051.0
21
60961.0
0
LINE
8
BLACK
10
11219.0
20
60749.0
11
9049.0
21
60761.0
0
ARC
8
BLACK
10
9050.0
20
60861.0
40
100.0
50
449.0
51
629.0
0
ARC
8
BLACK
10
11220.0
20
60849.0
40
100.0
50
269.0
51
449.0
0
LINE
8
BLACK
10
38420.0
20
24550.0
11
40320.0
21
24550.0
0
LINE
8
BLACK
10
38420.0
20
24750.0
11
40320.0
21
24750.0
0
ARC
8
BLACK
10
40320.0
20
24650.0
40
100.0
50
270.0
51
450.0
0
ARC
8
BLACK
10
38420.0
20
24650.0
40
100.0
50
90.0
51
270.0
0
LINE
8
BLACK
10
27110.0
20
33595.0
11
27110.0
21
35595.0
0
LINE
8
BLACK
10
26960.0
20
33595.0
11
26960.0
21
35595.0
0
ARC
8
BLACK
10
27035.0
20
35595.0
40
75.0
50
360.0
51
540.0
0
ARC
8
BLACK
10
27035.0
20
33595.0
40
75.0
50
180.0
51
360.0
0
LINE
8
BLACK
10
34285.0
20
31020.0
11
35535.0
21
31020.0
0
LINE
8
BLACK
10
34285.0
20
31170.0
11
35535.0
21
31170.0
0
ARC
8
BLACK
10
35535.0
20
31095.0
40
75.0
50
270.0
51
450.0
0
ARC
8
BLACK
10
34285.0
20
31095.0
40
75.0
50
90.0
51
270.0
0
LINE
8
BLACK
10
20083.0
20
31987.0
11
20093.0
21
31997.0
0
LINE
8
BLACK
10
19977.0
20
32093.0
11
19987.0
21
32103.0
0
ARC
8
BLACK
10
20040.0
20
32050.0
40
75.0
50
315.0
51
495.0
0
ARC
8
BLACK
10
20030.0
20
32040.0
40
75.0
50
135.0
51
315.0
0
LINE
8
BLACK
10
20115.0
20
32050.0
11
20115.0
21
33510.0
0
LINE
8
BLACK
10
19965.0
20
32050.0
11
19965.0
21
33510.0
0
ARC
8
BLACK
10
20040.0
20
33510.0
40
75.0
50
360.0
51
540.0
0
ARC
8
BLACK
10
20040.0
20
32050.0
40
75.0
50
180.0
51
360.0
0
LINE
8
BLACK
10
70370.0
20
58425.0
11
72620.0
21
58425.0
0
LINE
8
BLACK
10
70370.0
20
58575.0
11
72620.0
21
58575.0
0
ARC
8
BLACK
10
72620.0
20
58500.0
40
75.0
50
270.0
51
450.0
0
ARC
8
BLACK
10
70370.0
20
58500.0
40
75.0
50
90.0
51
270.0
0
LINE
8
BLACK
10
78195.0
20
37115.0
11
78215.0
21
37095.0
0
LINE
8
BLACK
10
78265.0
20
37185.0
11
78285.0
21
37165.0
0
ARC
8
BLACK
10
78250.0
20
37130.0
40
50.0
50
225.0
51
405.0
0
ARC
8
BLACK
10
78230.0
20
37150.0
40
50.0
50
45.0
51
225.0
0
LINE
8
BLACK
10
78300.0
20
34940.0
11
78300.0
21
37130.0
0
LINE
8
BLACK
10
78200.0
20
34940.0
11
78200.0
21
37130.0
0
ARC
8
BLACK
10
78250.0
20
37130.0
40
50.0
50
360.0
51
540.0
0
ARC
8
BLACK
10
78250.0
20
34940.0
40
50.0
50
180.0
51
360.0
0
LINE
8
BLACK
10
40070.0
20
66650.0
11
40070.0
21
67950.0
0
LINE
8
BLACK
10
39970.0
20
66650.0
11
39970.0
21
67950.0
0
ARC
8
BLACK
10
40020.0
20
67950.0
40
50.0
50
360.0
51
540.0
0
ARC
8
BLACK
10
40020.0
20
66650.0
40
50.0
50
180.0
51
360.0
0
LINE
8
BLACK
10
40155.0
20
66586.0
11
40056.0
21
66685.0
0
LINE
8
BLACK
10
40084.0
20
66515.0
11
39985.0
21
66614.0
0
ARC
8
BLACK
10
40021.0
20
66649.0
40
50.0
50
405.0
51
585.0
0
ARC
8
BLACK
10
40119.0
20
66551.0
40
50.0
50
225.0
51
405.0
0
LINE
8
BLACK
10
40970.0
20
66650.0
11
40970.0
21
67950.0
0
LINE
8
BLACK
10
40870.0
20
66650.0
11
40870.0
21
67950.0
0
ARC
8
BLACK
10
40920.0
20
67950.0
40
50.0
50
360.0
51
540.0
0
ARC
8
BLACK
10
40920.0
20
66650.0
40
50.0
50
180.0
51
360.0
0
LINE
8
BLACK
10
35605.0
20
33850.0
11
35605.0
21
35550.0
0
LINE
8
BLACK
10
35455.0
20
33850.0
11
35455.0
21
35550.0
0
ARC
8
BLACK
10
35530.0
20
35550.0
40
75.0
50
360.0
51
540.0
0
ARC
8
BLACK
10
35530.0
20
33850.0
40
75.0
50
180.0
51
360.0
0
LINE
8
BLACK
10
19110.0
20
32095.0
11
19110.0
21
34345.0
0
LINE
8
BLACK
10
18960.0
20
32095.0
11
18960.0
21
34345.0
0
ARC
8
BLACK
10
19035.0
20
34345.0
40
75.0
50
360.0
51
540.0
0
ARC
8
BLACK
10
19035.0
20
32095.0
40
75.0
50
180.0
51
360.0
0
LINE
8
BLACK
10
32510.0
20
66760.0
11
32510.0
21
68040.0
0
LINE
8
BLACK
10
32310.0
20
66760.0
11
32310.0
21
68040.0
0
ARC
8
BLACK
10
32410.0
20
68040.0
40
100.0
50
360.0
51
540.0
0
ARC
8
BLACK
10
32410.0
20
66760.0
40
100.0
50
180.0
51
360.0
0
LINE
8
BLACK
10
11535.0
20
36770.0
11
13285.0
21
36770.0
0
LINE
8
BLACK
10
11535.0
20
36920.0
11
13285.0
21
36920.0
0
ARC
8
BLACK
10
13285.0
20
36845.0
40
75.0
50
270.0
51
450.0
0
ARC
8
BLACK
10
11535.0
20
36845.0
40
75.0
50
90.0
51
270.0
0
LINE
8
BLACK
10
31035.0
20
24520.0
11
33035.0
21
24520.0
0
LINE
8
BLACK
10
31035.0
20
24670.0
11
33035.0
21
24670.0
0
ARC
8
BLACK
10
33035.0
20
24595.0
40
75.0
50
270.0
51
450.0
0
ARC
8
BLACK
10
31035.0
20
24595.0
40
75.0
50
90.0
51
270.0
0
LINE
8
BLACK
10
104421.0
20
23520.0
11
104510.0
21
23609.0
0
LINE
8
BLACK
10
104280.0
20
23661.0
11
104369.0
21
23750.0
0
ARC
8
BLACK
10
104440.0
20
23680.0
40
100.0
50
315.0
51
495.0
0
ARC
8
BLACK
10
104350.0
20
23590.0
40
100.0
50
135.0
51
315.0
0
LINE
8
BLACK
10
104440.0
20
23580.0
11
105520.0
21
23580.0
0
LINE
8
BLACK
10
104440.0
20
23780.0
11
105520.0
21
23780.0
0
ARC
8
BLACK
10
105520.0
20
23680.0
40
100.0
50
270.0
51
450.0
0
ARC
8
BLACK
10
104440.0
20
23680.0
40
100.0
50
90.0
51
270.0
0
LINE
8
BLACK
10
67145.0
20
33960.0
11
67145.0
21
36820.0
0
LINE
8
BLACK
10
66995.0
20
33960.0
11
66995.0
21
36820.0
0
ARC
8
BLACK
10
67070.0
20
36820.0
40
75.0
50
360.0
51
540.0
0
ARC
8
BLACK
10
67070.0
20
33960.0
40
75.0
50
180.0
51
360.0
0
LINE
8
BLACK
10
67043.0
20
33827.0
11
67123.0
21
33907.0
0
LINE
8
BLACK
10
66937.0
20
33933.0
11
67017.0
21
34013.0
0
ARC
8
BLACK
10
67070.0
20
33960.0
40
75.0
50
315.0
51
495.0
0
ARC
8
BLACK
10
66990.0
20
33880.0
40
75.0
50
135.0
51
315.0
0
LINE
8
BLACK
10
88420.0
20
69040.0
11
88420.0
21
70060.0
0
LINE
8
BLACK
10
88320.0
20
69040.0
11
88320.0
21
70060.0
0
ARC
8
BLACK
10
88370.0
20
70060.0
40
50.0
50
360.0
51
540.0
0
ARC
8
BLACK
10
88370.0
20
69040.0
40
50.0
50
180.0
51
360.0
0
LINE
8
BLACK
10
88435.0
20
69046.0
11
88406.0
21
69075.0
0
LINE
8
BLACK
10
88364.0
20
68975.0
11
88335.0
21
69004.0
0
ARC
8
BLACK
10
88370.0
20
69040.0
40
50.0
50
405.0
51
585.0
0
ARC
8
BLACK
10
88400.0
20
69010.0
40
50.0
50
225.0
51
405.0
0
LINE
8
BLACK
10
79460.0
20
68890.0
11
79460.0
21
70130.0
0
LINE
8
BLACK
10
79260.0
20
68890.0
11
79260.0
21
70130.0
0
ARC
8
BLACK
10
79360.0
20
70130.0
40
100.0
50
360.0
51
540.0
0
ARC
8
BLACK
10
79360.0
20
68890.0
40
100.0
50
180.0
51
360.0
0
LINE
8
BLACK
10
79451.0
20
68941.0
11
79431.0
21
68961.0
0
LINE
8
BLACK
10
79309.0
20
68799.0
11
79289.0
21
68819.0
0
ARC
8
BLACK
10
79360.0
20
68890.0
40
100.0
50
405.0
51
585.0
0
ARC
8
BLACK
10
79380.0
20
68870.0
40
100.0
50
225.0
51
405.0
0
LINE
8
BLACK
10
48320.0
20
36550.0
11
48320.0
21
38550.0
0
LINE
8
BLACK
10
48120.0
20
36550.0
11
48120.0
21
38550.0
0
ARC
8
BLACK
10
48220.0
20
38550.0
40
100.0
50
360.0
51
540.0
0
ARC
8
BLACK
10
48220.0
20
36550.0
40
100.0
50
180.0
51
360.0
0
LINE
8
BLACK
10
55195.0
20
51850.0
11
55195.0
21
54450.0
0
LINE
8
BLACK
10
55045.0
20
51850.0
11
55045.0
21
54450.0
0
ARC
8
BLACK
10
55120.0
20
54450.0
40
75.0
50
360.0
51
540.0
0
ARC
8
BLACK
10
55120.0
20
51850.0
40
75.0
50
180.0
51
360.0
0
LINE
8
BLACK
10
33020.0
20
50950.0
11
33020.0
21
53150.0
0
LINE
8
BLACK
10
32820.0
20
50950.0
11
32820.0
21
53150.0
0
ARC
8
BLACK
10
32920.0
20
53150.0
40
100.0
50
360.0
51
540.0
0
ARC
8
BLACK
10
32920.0
20
50950.0
40
100.0
50
180.0
51
360.0
0
LINE
8
BLACK
10
27615.0
20
41070.0
11
27615.0
21
42320.0
0
LINE
8
BLACK
10
27465.0
20
41070.0
11
27465.0
21
42320.0
0
ARC
8
BLACK
10
27540.0
20
42320.0
40
75.0
50
360.0
51
540.0
0
ARC
8
BLACK
10
27540.0
20
41070.0
40
75.0
50
180.0
51
360.0
0
LINE
8
BLACK
10
25035.0
20
25270.0
11
26535.0
21
25270.0
0
LINE
8
BLACK
10
25035.0
20
25420.0
11
26535.0
21
25420.0
0
ARC
8
BLACK
10
26535.0
20
25345.0
40
75.0
50
270.0
51
450.0
0
ARC
8
BLACK
10
25035.0
20
25345.0
40
75.0
50
90.0
51
270.0
0
LINE
8
BLACK
10
75661.0
20
67912.0
11
75810.0
21
67882.0
0
LINE
8
BLACK
10
75700.0
20
68108.0
11
75849.0
21
68078.0
0
ARC
8
BLACK
10
75830.0
20
67980.0
40
100.0
50
258.0
51
438.0
0
ARC
8
BLACK
10
75680.0
20
68010.0
40
100.0
50
78.0
51
258.0
0
LINE
8
BLACK
10
75831.0
20
67881.0
11
77411.0
21
67889.0
0
LINE
8
BLACK
10
75829.0
20
68081.0
11
77409.0
21
68089.0
0
ARC
8
BLACK
10
77410.0
20
67989.0
40
100.0
50
270.0
51
450.0
0
ARC
8
BLACK
10
75830.0
20
67981.0
40
100.0
50
90.0
51
270.0
0
LINE
8
BLACK
10
57140.0
20
55490.0
11
58490.0
21
55490.0
0
LINE
8
BLACK
10
57140.0
20
55690.0
11
58490.0
21
55690.0
0
ARC
8
BLACK
10
58490.0
20
55590.0
40
100.0
50
270.0
51
450.0
0
ARC
8
BLACK
10
57140.0
20
55590.0
40
100.0
50
90.0
51
270.0
0
LINE
8
BLACK
10
57201.0
20
55509.0
11
57211.0
21
55519.0
0
LINE
8
BLACK
10
57059.0
20
55651.0
11
57069.0
21
55661.0
0
ARC
8
BLACK
10
57140.0
20
55590.0
40
100.0
50
315.0
51
495.0
0
ARC
8
BLACK
10
57130.0
20
55580.0
40
100.0
50
135.0
51
315.0
0
LINE
8
BLACK
10
35299.0
20
68013.0
11
35279.0
21
68172.0
0
LINE
8
BLACK
10
35101.0
20
67988.0
11
35081.0
21
68147.0
0
ARC
8
BLACK
10
35180.0
20
68159.0
40
100.0
50
367.0
51
547.0
0
ARC
8
BLACK
10
35200.0
20
68001.0
40
100.0
50
187.0
51
367.0
0
LINE
8
BLACK
10
35280.0
20
66310.0
11
35280.0
21
68160.0
0
LINE
8
BLACK
10
35080.0
20
66310.0
11
35080.0
21
68160.0
0
ARC
8
BLACK
10
35180.0
20
68160.0
40
100.0
50
360.0
51
540.0
0
ARC
8
BLACK
10
35180.0
20
66310.0
40
100.0
50
180.0
51
360.0
0
LINE
8
BLACK
10
75130.0
20
45645.0
11
76740.0
21
45645.0
0
LINE
8
BLACK
10
75130.0
20
45795.0
11
76740.0
21
45795.0
0
ARC
8
BLACK
10
76740.0
20
45720.0
40
75.0
50
270.0
51
450.0
0
ARC
8
BLACK
10
75130.0
20
45720.0
40
75.0
50
90.0
51
270.0
0
LINE
8
BLACK
10
76813.0
20
45753.0
11
76793.0
21
45773.0
0
LINE
8
BLACK
10
76707.0
20
45647.0
11
76687.0
21
45667.0
0
ARC
8
BLACK
10
76740.0
20
45720.0
40
75.0
50
405.0
51
585.0
0
ARC
8
BLACK
10
76760.0
20
45700.0
40
75.0
50
225.0
51
405.0
0
LINE
8
BLACK
10
47220.0
20
36550.0
11
47220.0
21
38550.0
0
LINE
8
BLACK
10
47020.0
20
36550.0
11
47020.0
21
38550.0
0
ARC
8
BLACK
10
47120.0
20
38550.0
40
100.0
50
360.0
51
540.0
0
ARC
8
BLACK
10
47120.0
20
36550.0
40
100.0
50
180.0
51
360.0
0
LINE
8
BLACK
10
34320.0
20
50950.0
11
34320.0
21
53250.0
0
LINE
8
BLACK
10
34120.0
20
50950.0
11
34120.0
21
53250.0
0
ARC
8
BLACK
10
34220.0
20
53250.0
40
100.0
50
360.0
51
540.0
0
ARC
8
BLACK
10
34220.0
20
50950.0
40
100.0
50
180.0
51
360.0
0
ENDSEC
0
EOF
