G04 (created by PCBNEW-RS274X (2011-04-29 BZR 2986)-stable) date 10/21/2013 1:04:31 PM*
G01*
G70*
G90*
%MOIN*%
G04 Gerber Fmt 3.4, Leading zero omitted, Abs format*
%FSLAX34Y34*%
G04 APERTURE LIST*
%ADD10C,0.006000*%
%ADD11R,0.062000X0.110000*%
%ADD12O,0.062000X0.110000*%
%ADD13O,0.050000X0.070000*%
%ADD14O,0.050000X0.090000*%
%ADD15C,0.000400*%
%ADD16C,0.100000*%
%ADD17C,0.060000*%
%ADD18R,0.060000X0.060000*%
%ADD19C,0.080000*%
%ADD20R,0.080000X0.080000*%
%ADD21C,0.055000*%
%ADD22C,0.106300*%
%ADD23R,0.080000X0.110000*%
%ADD24R,0.050000X0.110000*%
%ADD25C,0.066000*%
%ADD26R,0.055000X0.055000*%
%ADD27C,0.177200*%
%ADD28O,0.070000X0.090000*%
%ADD29R,0.070000X0.090000*%
%ADD30R,0.100000X0.100000*%
%ADD31R,0.062000X0.090000*%
%ADD32O,0.062000X0.090000*%
%ADD33O,0.040000X0.060000*%
%ADD34R,0.090000X0.062000*%
%ADD35O,0.090000X0.062000*%
%ADD36O,0.070000X0.050000*%
%ADD37O,0.090000X0.050000*%
%ADD38C,0.150000*%
%ADD39O,0.072000X0.092000*%
%ADD40O,0.085000X0.075000*%
%ADD41O,0.075000X0.085000*%
%ADD42C,0.160000*%
%ADD43C,0.070000*%
%ADD44C,0.020000*%
%ADD45C,0.015000*%
%ADD46C,0.010000*%
G04 APERTURE END LIST*
G54D10*
G54D11*
X58440Y-51050D03*
G54D12*
X59440Y-51050D03*
X60440Y-51050D03*
X61440Y-51050D03*
X62440Y-51050D03*
X63440Y-51050D03*
X64440Y-51050D03*
X65440Y-51050D03*
X66440Y-51050D03*
X67440Y-51050D03*
X68440Y-51050D03*
X69440Y-51050D03*
X70440Y-51050D03*
X71440Y-51050D03*
X72440Y-51050D03*
X73440Y-51050D03*
X74440Y-51050D03*
X75440Y-51050D03*
X76440Y-51050D03*
X77440Y-51050D03*
X77440Y-45050D03*
X76440Y-45050D03*
X75440Y-45050D03*
X74440Y-45050D03*
X73440Y-45050D03*
X72440Y-45050D03*
X71440Y-45050D03*
X70440Y-45050D03*
X69440Y-45050D03*
X68440Y-45050D03*
X67440Y-45050D03*
X66440Y-45050D03*
X65440Y-45050D03*
X64440Y-45050D03*
X63440Y-45050D03*
X62440Y-45050D03*
X61440Y-45050D03*
X60440Y-45050D03*
X59440Y-45050D03*
X58440Y-45050D03*
G54D11*
X33035Y-45825D03*
G54D12*
X32035Y-45825D03*
G54D13*
X31035Y-45825D03*
G54D14*
X30035Y-45825D03*
X29035Y-45825D03*
G54D12*
X28035Y-45825D03*
G54D14*
X27035Y-45825D03*
X26035Y-45825D03*
X25035Y-45825D03*
X24035Y-45825D03*
G54D12*
X23035Y-45825D03*
X22035Y-45825D03*
X21035Y-45825D03*
X20035Y-45825D03*
X19035Y-45825D03*
X18035Y-45825D03*
X17035Y-45825D03*
G54D14*
X16035Y-45825D03*
X15035Y-45825D03*
G54D12*
X14035Y-45825D03*
X14035Y-51825D03*
X15035Y-51825D03*
X16035Y-51825D03*
X17035Y-51825D03*
X18035Y-51825D03*
X19035Y-51825D03*
X20035Y-51825D03*
X21035Y-51825D03*
X22035Y-51825D03*
X23035Y-51825D03*
X24035Y-51825D03*
X25035Y-51825D03*
X26035Y-51825D03*
G54D13*
X27035Y-51825D03*
X28035Y-51825D03*
G54D12*
X29035Y-51825D03*
X30035Y-51825D03*
X31035Y-51825D03*
X32035Y-51825D03*
X33035Y-51825D03*
G54D15*
X34035Y-54325D03*
G54D16*
X15035Y-43325D03*
G54D17*
X90470Y-33220D03*
X90470Y-36220D03*
G54D18*
X89470Y-36220D03*
G54D17*
X89470Y-33220D03*
G54D19*
X16310Y-37360D03*
X16310Y-36360D03*
X22900Y-17050D03*
X22900Y-16050D03*
X55120Y-24170D03*
X55120Y-23170D03*
X33560Y-20780D03*
X33560Y-19780D03*
X96220Y-14090D03*
X95220Y-14090D03*
X69845Y-40570D03*
X68845Y-40570D03*
X24785Y-43075D03*
X24785Y-42075D03*
X17120Y-42100D03*
X17120Y-43100D03*
X24160Y-61450D03*
X25160Y-61450D03*
X30910Y-60700D03*
X30910Y-61700D03*
X18720Y-42100D03*
X18720Y-43100D03*
X67940Y-43800D03*
X66940Y-43800D03*
X67920Y-56020D03*
X68920Y-56020D03*
X71320Y-56020D03*
X70320Y-56020D03*
G54D20*
X21150Y-15800D03*
X18150Y-15800D03*
X21150Y-17050D03*
X18150Y-17050D03*
G54D21*
X81490Y-14310D03*
X82498Y-14310D03*
G54D17*
X83490Y-14310D03*
G54D21*
X47130Y-42410D03*
X47130Y-41402D03*
G54D17*
X47130Y-40410D03*
X14150Y-17570D03*
X14150Y-16570D03*
X13363Y-16570D03*
X13363Y-17570D03*
G54D22*
X12300Y-19432D03*
X12300Y-14708D03*
G54D17*
X98380Y-14610D03*
X98880Y-14110D03*
X97880Y-14110D03*
G54D14*
X92720Y-36220D03*
X93720Y-36220D03*
X94720Y-36220D03*
X95720Y-36220D03*
X96720Y-36220D03*
X97720Y-36220D03*
X98720Y-36220D03*
X99720Y-36220D03*
X99720Y-33220D03*
X98720Y-33220D03*
X97720Y-33220D03*
X96720Y-33220D03*
X95720Y-33220D03*
X94720Y-33220D03*
X93720Y-33220D03*
X92720Y-33220D03*
G54D19*
X90780Y-60220D03*
X91780Y-60220D03*
X92780Y-60220D03*
X93780Y-60220D03*
X94780Y-60220D03*
X95780Y-60220D03*
X96780Y-60220D03*
X97780Y-60220D03*
X97780Y-57220D03*
X96780Y-57220D03*
X95780Y-57220D03*
X94780Y-57220D03*
X93780Y-57220D03*
X92780Y-57220D03*
X91780Y-57220D03*
X90780Y-57220D03*
G54D23*
X63620Y-35170D03*
X64620Y-35170D03*
X65620Y-35170D03*
X66620Y-35170D03*
X67620Y-35170D03*
X68620Y-35170D03*
X68620Y-32170D03*
X67620Y-32170D03*
X66620Y-32170D03*
G54D24*
X65620Y-32170D03*
X64620Y-32170D03*
G54D23*
X63620Y-32170D03*
G54D18*
X44710Y-35820D03*
G54D17*
X45710Y-35820D03*
X46710Y-35820D03*
X47710Y-35820D03*
X47710Y-32820D03*
X46710Y-32820D03*
X45710Y-32820D03*
X44710Y-32820D03*
G54D25*
X35600Y-26300D03*
X35600Y-23300D03*
G54D18*
X36600Y-23300D03*
G54D25*
X36600Y-26300D03*
G54D17*
X14640Y-28760D03*
X14640Y-25760D03*
G54D18*
X15640Y-25760D03*
G54D17*
X15640Y-28760D03*
G54D19*
X93470Y-44720D03*
X93470Y-46720D03*
X90470Y-44720D03*
X90470Y-46720D03*
X89220Y-44720D03*
X89220Y-46720D03*
X86220Y-44720D03*
X86220Y-46720D03*
X101970Y-47970D03*
X101970Y-49970D03*
X98970Y-47970D03*
X98970Y-49970D03*
X93470Y-41470D03*
X93470Y-43470D03*
X90470Y-41470D03*
X90470Y-43470D03*
X89220Y-41470D03*
X89220Y-43470D03*
X86220Y-41470D03*
X86220Y-43470D03*
X101970Y-44720D03*
X101970Y-46720D03*
X98970Y-44720D03*
X98970Y-46720D03*
X97720Y-44720D03*
X97720Y-46720D03*
X94720Y-44720D03*
X94720Y-46720D03*
X97720Y-47970D03*
X97720Y-49970D03*
X94720Y-47970D03*
X94720Y-49970D03*
X93470Y-47970D03*
X93470Y-49970D03*
X90470Y-47970D03*
X90470Y-49970D03*
X89220Y-47970D03*
X89220Y-49970D03*
X86220Y-47970D03*
X86220Y-49970D03*
X101970Y-51220D03*
X101970Y-53220D03*
X98970Y-51220D03*
X98970Y-53220D03*
X97720Y-51220D03*
X97720Y-53220D03*
X94720Y-51220D03*
X94720Y-53220D03*
X93470Y-51220D03*
X93470Y-53220D03*
X90470Y-51220D03*
X90470Y-53220D03*
X89220Y-51220D03*
X89220Y-53220D03*
X86220Y-51220D03*
X86220Y-53220D03*
X97720Y-41470D03*
X97720Y-43470D03*
X94720Y-41470D03*
X94720Y-43470D03*
X101970Y-41470D03*
X101970Y-43470D03*
X98970Y-41470D03*
X98970Y-43470D03*
X47340Y-51340D03*
X45340Y-51340D03*
X47340Y-48340D03*
X45340Y-48340D03*
X27650Y-19800D03*
X29650Y-19800D03*
X27650Y-20800D03*
X27650Y-21800D03*
X29650Y-21800D03*
X29650Y-20800D03*
X90810Y-55840D03*
X91810Y-55840D03*
X92810Y-55840D03*
X93810Y-55840D03*
X94810Y-55840D03*
X95810Y-55840D03*
X96810Y-55840D03*
X97810Y-55840D03*
X58440Y-53800D03*
X59440Y-53800D03*
X60440Y-53800D03*
X61440Y-53800D03*
X62440Y-53800D03*
X63440Y-53800D03*
X64440Y-53800D03*
X65440Y-53800D03*
X58440Y-42300D03*
X59440Y-42300D03*
X60440Y-42300D03*
X61440Y-42300D03*
X62440Y-42300D03*
X63440Y-42300D03*
X64440Y-42300D03*
X65440Y-42300D03*
G54D14*
X69870Y-30170D03*
X68870Y-30170D03*
X67870Y-30170D03*
X66870Y-30170D03*
X65870Y-30170D03*
X64870Y-30170D03*
X63870Y-30170D03*
X62870Y-30170D03*
G54D19*
X71440Y-53800D03*
X72440Y-53800D03*
X73440Y-53800D03*
X74440Y-53800D03*
X75440Y-53800D03*
X76440Y-53800D03*
X77440Y-53800D03*
X78440Y-53800D03*
X76440Y-42300D03*
X75440Y-42300D03*
X74440Y-42300D03*
X73440Y-42300D03*
X72440Y-42300D03*
X71440Y-42300D03*
X70440Y-42300D03*
X69440Y-42300D03*
X36285Y-54575D03*
X36285Y-55575D03*
X36285Y-56575D03*
X36285Y-57575D03*
X36285Y-58575D03*
X36285Y-59575D03*
G54D18*
X47710Y-30570D03*
G54D21*
X46710Y-30570D03*
X45710Y-30570D03*
X44710Y-30570D03*
G54D26*
X49380Y-42370D03*
G54D21*
X49380Y-41370D03*
X49380Y-40370D03*
G54D14*
X28535Y-42575D03*
X29535Y-42575D03*
X30535Y-42575D03*
G54D18*
X14720Y-33220D03*
G54D17*
X15720Y-33220D03*
G54D18*
X14720Y-34220D03*
G54D17*
X15720Y-34220D03*
G54D26*
X66670Y-40570D03*
G54D19*
X67670Y-40570D03*
G54D14*
X80470Y-15970D03*
X81470Y-15970D03*
X82470Y-15970D03*
X83470Y-15970D03*
X84470Y-15970D03*
X85470Y-15970D03*
X86470Y-15970D03*
X87470Y-15970D03*
X88470Y-15970D03*
X89470Y-15970D03*
X90470Y-15970D03*
X91470Y-15970D03*
X92470Y-15970D03*
X93470Y-15970D03*
X94470Y-15970D03*
X95470Y-15970D03*
G54D20*
X34020Y-16320D03*
X37020Y-16320D03*
X44090Y-48340D03*
X44090Y-51340D03*
X17285Y-59075D03*
X14285Y-59075D03*
X17285Y-56075D03*
X14285Y-56075D03*
X34020Y-17520D03*
X37020Y-17520D03*
X99720Y-15970D03*
X96720Y-15970D03*
X68620Y-16920D03*
X68620Y-13920D03*
X73620Y-16920D03*
X73620Y-13920D03*
X63620Y-25170D03*
X60620Y-25170D03*
X63620Y-24170D03*
X60620Y-24170D03*
X63620Y-23170D03*
X60620Y-23170D03*
X63620Y-22170D03*
X60620Y-22170D03*
X17410Y-61450D03*
X20410Y-61450D03*
X18120Y-14320D03*
X21120Y-14320D03*
X18150Y-19550D03*
X21150Y-19550D03*
X18150Y-18300D03*
X21150Y-18300D03*
X63620Y-21170D03*
X60620Y-21170D03*
X63620Y-19170D03*
X60620Y-19170D03*
X63620Y-20170D03*
X60620Y-20170D03*
X42210Y-23070D03*
X42210Y-26070D03*
X44710Y-23070D03*
X44710Y-26070D03*
X47460Y-23070D03*
X47460Y-26070D03*
X49960Y-23070D03*
X49960Y-26070D03*
X27650Y-17800D03*
X27650Y-14800D03*
X48970Y-16220D03*
X48970Y-19220D03*
G54D25*
X12035Y-56075D03*
X13035Y-56075D03*
X12035Y-58825D03*
X13035Y-58825D03*
X42210Y-27270D03*
X42210Y-28270D03*
X44810Y-27270D03*
X44810Y-28270D03*
X47460Y-27270D03*
X47460Y-28270D03*
X50060Y-27270D03*
X50060Y-28270D03*
X29650Y-15800D03*
X29650Y-16800D03*
G54D19*
X80470Y-18954D03*
X81470Y-18970D03*
X82470Y-18970D03*
X83470Y-18970D03*
X84470Y-18970D03*
X85470Y-18970D03*
X86470Y-18970D03*
X87470Y-18970D03*
X88470Y-18970D03*
X89470Y-18970D03*
X90470Y-18970D03*
X91470Y-18970D03*
X92470Y-18970D03*
G54D14*
X93470Y-18970D03*
X94470Y-18970D03*
X95470Y-18970D03*
G54D27*
X78305Y-18970D03*
X78305Y-31175D03*
X107832Y-18970D03*
X107832Y-31175D03*
G54D19*
X27035Y-60825D03*
X29035Y-60825D03*
X67440Y-54050D03*
X69440Y-54050D03*
X22785Y-42575D03*
X20785Y-42575D03*
G54D16*
X23510Y-22000D03*
X15010Y-22000D03*
G54D28*
X66927Y-19115D03*
X67927Y-19115D03*
X68927Y-19115D03*
X69927Y-19115D03*
X70930Y-19115D03*
X71930Y-19115D03*
X72930Y-19115D03*
X73930Y-19115D03*
G54D29*
X66917Y-25125D03*
G54D28*
X67920Y-25125D03*
X68920Y-25125D03*
X69920Y-25125D03*
G54D13*
X70920Y-25125D03*
X71920Y-25125D03*
G54D28*
X72920Y-25125D03*
X73920Y-25125D03*
X74930Y-19115D03*
X74920Y-25125D03*
G54D30*
X50920Y-16820D03*
X50920Y-20820D03*
X44630Y-39370D03*
X44630Y-43370D03*
G54D31*
X34810Y-21780D03*
G54D32*
X35810Y-21780D03*
X36810Y-21780D03*
X37810Y-21780D03*
X37810Y-18780D03*
X36810Y-18780D03*
X35810Y-18780D03*
X34810Y-18780D03*
X20535Y-59075D03*
X21535Y-59075D03*
X22535Y-59075D03*
G54D13*
X23535Y-59075D03*
X24535Y-59075D03*
G54D32*
X25535Y-59075D03*
X26535Y-59075D03*
X27535Y-59075D03*
X28535Y-59075D03*
G54D13*
X29535Y-59075D03*
X30535Y-59075D03*
G54D33*
X31535Y-59075D03*
G54D32*
X32535Y-59075D03*
G54D31*
X19535Y-59075D03*
G54D32*
X32535Y-56075D03*
G54D14*
X31535Y-56075D03*
X30535Y-56075D03*
X29535Y-56075D03*
X28535Y-56075D03*
G54D32*
X27535Y-56075D03*
G54D13*
X26535Y-56075D03*
G54D32*
X25535Y-56075D03*
X24535Y-56075D03*
X23535Y-56075D03*
X22535Y-56075D03*
X21535Y-56075D03*
X20535Y-56075D03*
X19535Y-56075D03*
G54D34*
X20560Y-34860D03*
G54D35*
X20560Y-33860D03*
X20560Y-32860D03*
X20560Y-31860D03*
X20560Y-30860D03*
X20560Y-29860D03*
G54D36*
X20560Y-28860D03*
X20560Y-27860D03*
G54D35*
X17560Y-27860D03*
X17560Y-28860D03*
X17560Y-29860D03*
G54D37*
X17560Y-30860D03*
X17560Y-31860D03*
X17560Y-32860D03*
X17560Y-33860D03*
G54D35*
X17560Y-34860D03*
G54D34*
X56370Y-18170D03*
G54D35*
X56370Y-19170D03*
X56370Y-20170D03*
X56370Y-21170D03*
X56370Y-22170D03*
X56370Y-23170D03*
X56370Y-24170D03*
X56370Y-25170D03*
X59370Y-25170D03*
X59370Y-24170D03*
X59370Y-23170D03*
X59370Y-22170D03*
X59370Y-21170D03*
X59370Y-20170D03*
X59370Y-19170D03*
X59370Y-18170D03*
G54D38*
X12050Y-26950D03*
X12050Y-36800D03*
G54D18*
X12600Y-29700D03*
G54D17*
X12600Y-30800D03*
X12600Y-31850D03*
X12600Y-32950D03*
X12600Y-34000D03*
X11500Y-30250D03*
X11500Y-31350D03*
X11500Y-32400D03*
X11500Y-33500D03*
G54D26*
X67940Y-42300D03*
G54D19*
X66940Y-42300D03*
G54D26*
X26535Y-43075D03*
G54D21*
X26535Y-42075D03*
G54D19*
X45720Y-19020D03*
X45720Y-16461D03*
G54D39*
X15535Y-57575D03*
X16535Y-57575D03*
G54D26*
X22910Y-61450D03*
G54D21*
X21910Y-61450D03*
G54D18*
X37785Y-56575D03*
G54D17*
X37785Y-55575D03*
X37785Y-54575D03*
X40785Y-56575D03*
X40785Y-55575D03*
X40785Y-54575D03*
G54D26*
X41970Y-16970D03*
G54D40*
X41970Y-17970D03*
X41970Y-18970D03*
G54D18*
X15630Y-30890D03*
G54D17*
X14630Y-30890D03*
G54D40*
X14560Y-37360D03*
X14560Y-36360D03*
X25140Y-16030D03*
X25140Y-15030D03*
X25100Y-17690D03*
X25100Y-18690D03*
X22560Y-29360D03*
X22560Y-28360D03*
X22560Y-31860D03*
X22560Y-30860D03*
G54D41*
X18520Y-37320D03*
X19520Y-37320D03*
G54D40*
X22560Y-34610D03*
X22560Y-33610D03*
G54D19*
X72167Y-16257D03*
X71773Y-15470D03*
X72167Y-14683D03*
X44933Y-14167D03*
X45720Y-13773D03*
X46507Y-14167D03*
X70417Y-16257D03*
X70023Y-15470D03*
X70417Y-14683D03*
G54D42*
X109500Y-10000D03*
X109500Y-66250D03*
X07750Y-10000D03*
X07750Y-66250D03*
X58750Y-10250D03*
G54D17*
X11220Y-21820D03*
X09050Y-21810D03*
X40320Y-58020D03*
X38420Y-58020D03*
X27035Y-49075D03*
X27035Y-47075D03*
X34285Y-51575D03*
G54D43*
X20040Y-49160D03*
X20030Y-50630D03*
G54D17*
X35535Y-51575D03*
X70370Y-24170D03*
X72620Y-24170D03*
X78230Y-45520D03*
X78250Y-47730D03*
X40120Y-16120D03*
X40020Y-14720D03*
X40920Y-16020D03*
X40920Y-14720D03*
X35530Y-47120D03*
X35530Y-48820D03*
X19035Y-48325D03*
X19035Y-50575D03*
X32410Y-14630D03*
X32410Y-15910D03*
X13285Y-45825D03*
X11535Y-45825D03*
X31035Y-58075D03*
X33035Y-58075D03*
X104350Y-59080D03*
X105520Y-58990D03*
X67070Y-45850D03*
X66990Y-48790D03*
X88370Y-12610D03*
X88400Y-13660D03*
X79360Y-12540D03*
X79380Y-13800D03*
X48220Y-44120D03*
X48220Y-46120D03*
X55120Y-28220D03*
X55120Y-30820D03*
X32920Y-29520D03*
X32920Y-31720D03*
X27540Y-40350D03*
X27540Y-41600D03*
X25035Y-57325D03*
X26535Y-57325D03*
X75680Y-14660D03*
X77410Y-14680D03*
X58490Y-27080D03*
X57130Y-27090D03*
X35200Y-14670D03*
X35180Y-16360D03*
X75130Y-36950D03*
X76760Y-36970D03*
X47120Y-44120D03*
X47120Y-46120D03*
X34220Y-31720D03*
X34220Y-29420D03*
G54D44*
X11220Y-21820D02*
X09050Y-21810D01*
X40320Y-58020D02*
X38420Y-58020D01*
G54D45*
X27035Y-49075D02*
X27035Y-47075D01*
X35535Y-51575D02*
X34285Y-51575D01*
X20030Y-50630D02*
X20040Y-50620D01*
X20040Y-50620D02*
X20040Y-49160D01*
X72620Y-24170D02*
X70370Y-24170D01*
G54D46*
X78230Y-45520D02*
X78250Y-45540D01*
X78250Y-45540D02*
X78250Y-47730D01*
X40020Y-16020D02*
X40020Y-14720D01*
X40120Y-16120D02*
X40020Y-16020D01*
X40920Y-16020D02*
X40920Y-14720D01*
G54D45*
X35530Y-48820D02*
X35530Y-47120D01*
X19035Y-50575D02*
X19035Y-48325D01*
G54D44*
X32410Y-15910D02*
X32410Y-14630D01*
G54D45*
X13285Y-45825D02*
X11535Y-45825D01*
X33035Y-58075D02*
X31035Y-58075D01*
G54D44*
X104350Y-59080D02*
X104440Y-58990D01*
X104440Y-58990D02*
X105520Y-58990D01*
G54D45*
X67070Y-48710D02*
X67070Y-45850D01*
X66990Y-48790D02*
X67070Y-48710D01*
G54D46*
X88370Y-13630D02*
X88370Y-12610D01*
X88400Y-13660D02*
X88370Y-13630D01*
G54D44*
X79360Y-13780D02*
X79360Y-12540D01*
X79380Y-13800D02*
X79360Y-13780D01*
X48220Y-46120D02*
X48220Y-44120D01*
G54D45*
X55120Y-28220D02*
X55120Y-30820D01*
G54D44*
X32920Y-31720D02*
X32920Y-29520D01*
G54D45*
X27540Y-40350D02*
X27540Y-41600D01*
X26535Y-57325D02*
X25035Y-57325D01*
G54D44*
X75680Y-14660D02*
X75830Y-14690D01*
X75830Y-14690D02*
X77410Y-14680D01*
X57140Y-27080D02*
X58490Y-27080D01*
X57130Y-27090D02*
X57140Y-27080D01*
X35200Y-14670D02*
X35180Y-14510D01*
X35180Y-14510D02*
X35180Y-16360D01*
G54D45*
X76740Y-36950D02*
X75130Y-36950D01*
X76760Y-36970D02*
X76740Y-36950D01*
G54D44*
X47120Y-44120D02*
X47120Y-46120D01*
X34220Y-31720D02*
X34220Y-29420D01*
M02*
