%TF.GenerationSoftware,KiCad,Pcbnew,(5.1.6)-1*%
%TF.CreationDate,2020-12-15T19:54:30+02:00*%
%TF.ProjectId,ThePlatform_MothedahFarm,54686550-6c61-4746-966f-726d5f4d6f74,rev?*%
%TF.SameCoordinates,Original*%
%TF.FileFunction,Soldermask,Bot*%
%TF.FilePolarity,Negative*%
%FSLAX46Y46*%
G04 Gerber Fmt 4.6, Leading zero omitted, Abs format (unit mm)*
G04 Created by KiCad (PCBNEW (5.1.6)-1) date 2020-12-15 19:54:30*
%MOMM*%
%LPD*%
G01*
G04 APERTURE LIST*
%ADD10O,2.180000X3.700000*%
%ADD11R,2.600000X2.600000*%
%ADD12O,2.600000X2.600000*%
%ADD13C,1.600000*%
%ADD14R,1.600000X1.600000*%
%ADD15R,1.700000X2.500000*%
%ADD16O,1.700000X2.500000*%
%ADD17C,3.100000*%
%ADD18R,3.100000X3.100000*%
%ADD19R,1.800000X1.800000*%
%ADD20O,1.800000X2.200000*%
%ADD21R,2.500000X2.500000*%
%ADD22O,2.500000X2.500000*%
%ADD23O,1.700000X1.700000*%
%ADD24C,1.700000*%
%ADD25R,1.700000X1.700000*%
%ADD26O,3.300000X3.300000*%
%ADD27R,3.300000X3.300000*%
%ADD28R,1.900000X1.900000*%
%ADD29C,1.900000*%
%ADD30C,2.800000*%
%ADD31R,3.600000X3.600000*%
%ADD32O,3.700000X2.180000*%
%ADD33C,2.500000*%
%ADD34C,2.100000*%
%ADD35R,2.100000X2.005000*%
%ADD36O,2.100000X2.005000*%
%ADD37R,3.900000X2.100000*%
%ADD38R,1.600000X2.100000*%
%ADD39O,2.500000X1.700000*%
%ADD40R,2.500000X1.700000*%
%ADD41O,2.200000X1.800000*%
%ADD42C,1.540000*%
%ADD43C,6.100000*%
%ADD44C,1.624000*%
G04 APERTURE END LIST*
D10*
%TO.C,J20*%
X234196920Y-223857280D03*
X229116920Y-223857280D03*
G36*
G01*
X222946920Y-225445262D02*
X222946920Y-222269298D01*
G75*
G02*
X223208938Y-222007280I262018J0D01*
G01*
X224864902Y-222007280D01*
G75*
G02*
X225126920Y-222269298I0J-262018D01*
G01*
X225126920Y-225445262D01*
G75*
G02*
X224864902Y-225707280I-262018J0D01*
G01*
X223208938Y-225707280D01*
G75*
G02*
X222946920Y-225445262I0J262018D01*
G01*
G37*
%TD*%
D11*
%TO.C,K18*%
X290092160Y-204375480D03*
D12*
X288092160Y-198375480D03*
X275892160Y-198375480D03*
X275892160Y-210375480D03*
X288092160Y-210375480D03*
%TD*%
D13*
%TO.C,Q19*%
X251461300Y-199732360D03*
X254001300Y-197192360D03*
D14*
X254001300Y-202272360D03*
%TD*%
%TO.C,J39*%
G36*
G01*
X260607500Y-225402082D02*
X260607500Y-222226118D01*
G75*
G02*
X260869518Y-221964100I262018J0D01*
G01*
X262525482Y-221964100D01*
G75*
G02*
X262787500Y-222226118I0J-262018D01*
G01*
X262787500Y-225402082D01*
G75*
G02*
X262525482Y-225664100I-262018J0D01*
G01*
X260869518Y-225664100D01*
G75*
G02*
X260607500Y-225402082I0J262018D01*
G01*
G37*
D10*
X266777500Y-223814100D03*
X271857500Y-223814100D03*
X276937500Y-223814100D03*
X282017500Y-223814100D03*
%TD*%
D15*
%TO.C,U3*%
X221220060Y-178985640D03*
D16*
X172960060Y-194225640D03*
X218680060Y-178985640D03*
X175500060Y-194225640D03*
X216140060Y-178985640D03*
X178040060Y-194225640D03*
X213600060Y-178985640D03*
X180580060Y-194225640D03*
X211060060Y-178985640D03*
X183120060Y-194225640D03*
X208520060Y-178985640D03*
X185660060Y-194225640D03*
X205980060Y-178985640D03*
X188200060Y-194225640D03*
X203440060Y-178985640D03*
X190740060Y-194225640D03*
X200900060Y-178985640D03*
X193280060Y-194225640D03*
X198360060Y-178985640D03*
X195820060Y-194225640D03*
X195820060Y-178985640D03*
X198360060Y-194225640D03*
X193280060Y-178985640D03*
X200900060Y-194225640D03*
X190740060Y-178985640D03*
X203440060Y-194225640D03*
X188200060Y-178985640D03*
X205980060Y-194225640D03*
X185660060Y-178985640D03*
X208520060Y-194225640D03*
X183120060Y-178985640D03*
X211060060Y-194225640D03*
X180580060Y-178985640D03*
X213600060Y-194225640D03*
X178040060Y-178985640D03*
X216140060Y-194225640D03*
X175500060Y-178985640D03*
X218680060Y-194225640D03*
X172960060Y-178985640D03*
X221220060Y-194225640D03*
%TD*%
%TO.C,J27*%
G36*
G01*
X129439360Y-225557022D02*
X129439360Y-222381058D01*
G75*
G02*
X129701378Y-222119040I262018J0D01*
G01*
X131357342Y-222119040D01*
G75*
G02*
X131619360Y-222381058I0J-262018D01*
G01*
X131619360Y-225557022D01*
G75*
G02*
X131357342Y-225819040I-262018J0D01*
G01*
X129701378Y-225819040D01*
G75*
G02*
X129439360Y-225557022I0J262018D01*
G01*
G37*
D10*
X135609360Y-223969040D03*
X140689360Y-223969040D03*
%TD*%
%TO.C,J36*%
X159526000Y-223877600D03*
X154446000Y-223877600D03*
G36*
G01*
X148276000Y-225465582D02*
X148276000Y-222289618D01*
G75*
G02*
X148538018Y-222027600I262018J0D01*
G01*
X150193982Y-222027600D01*
G75*
G02*
X150456000Y-222289618I0J-262018D01*
G01*
X150456000Y-225465582D01*
G75*
G02*
X150193982Y-225727600I-262018J0D01*
G01*
X148538018Y-225727600D01*
G75*
G02*
X148276000Y-225465582I0J262018D01*
G01*
G37*
%TD*%
%TO.C,J35*%
G36*
G01*
X167326000Y-225465582D02*
X167326000Y-222289618D01*
G75*
G02*
X167588018Y-222027600I262018J0D01*
G01*
X169243982Y-222027600D01*
G75*
G02*
X169506000Y-222289618I0J-262018D01*
G01*
X169506000Y-225465582D01*
G75*
G02*
X169243982Y-225727600I-262018J0D01*
G01*
X167588018Y-225727600D01*
G75*
G02*
X167326000Y-225465582I0J262018D01*
G01*
G37*
X173496000Y-223877600D03*
X178576000Y-223877600D03*
%TD*%
D17*
%TO.C,BT1*%
X170579900Y-207606360D03*
D18*
X150089900Y-207606360D03*
%TD*%
D15*
%TO.C,U25*%
X144146300Y-195973160D03*
D16*
X151766300Y-188353160D03*
X146686300Y-195973160D03*
X149226300Y-188353160D03*
X149226300Y-195973160D03*
X146686300Y-188353160D03*
X151766300Y-195973160D03*
X144146300Y-188353160D03*
%TD*%
D19*
%TO.C,J28*%
X356873840Y-118157720D03*
D20*
X359413840Y-118157720D03*
%TD*%
D15*
%TO.C,U24*%
X315421040Y-177700400D03*
D16*
X333201040Y-170080400D03*
X317961040Y-177700400D03*
X330661040Y-170080400D03*
X320501040Y-177700400D03*
X328121040Y-170080400D03*
X323041040Y-177700400D03*
X325581040Y-170080400D03*
X325581040Y-177700400D03*
X323041040Y-170080400D03*
X328121040Y-177700400D03*
X320501040Y-170080400D03*
X330661040Y-177700400D03*
X317961040Y-170080400D03*
X333201040Y-177700400D03*
X315421040Y-170080400D03*
%TD*%
D20*
%TO.C,U26*%
X112030000Y-151420000D03*
X109490000Y-151420000D03*
X106950000Y-151420000D03*
X104410000Y-151420000D03*
X101870000Y-151420000D03*
X99330000Y-151420000D03*
X96790000Y-151420000D03*
X94250000Y-151420000D03*
X91710000Y-151420000D03*
X89170000Y-151420000D03*
X86630000Y-151420000D03*
X84090000Y-151420000D03*
X81550000Y-151420000D03*
X79010000Y-151420000D03*
X76470000Y-151420000D03*
X112030000Y-176820000D03*
X109490000Y-176820000D03*
X106950000Y-176820000D03*
X104410000Y-176820000D03*
X101870000Y-176820000D03*
X99330000Y-176820000D03*
X96790000Y-176820000D03*
X94250000Y-176820000D03*
X91710000Y-176820000D03*
X89170000Y-176820000D03*
X86630000Y-176820000D03*
X84090000Y-176820000D03*
X81550000Y-176820000D03*
X79010000Y-176820000D03*
X76470000Y-176820000D03*
%TD*%
D11*
%TO.C,K5*%
X357567260Y-82592640D03*
D12*
X363567260Y-80592640D03*
X363567260Y-68392640D03*
X351567260Y-68392640D03*
X351567260Y-80592640D03*
%TD*%
D21*
%TO.C,D3*%
X333107060Y-87786940D03*
D22*
X345807060Y-87786940D03*
%TD*%
%TO.C,J5*%
G36*
G01*
X345182560Y-58004958D02*
X345182560Y-61180922D01*
G75*
G02*
X344920542Y-61442940I-262018J0D01*
G01*
X343264578Y-61442940D01*
G75*
G02*
X343002560Y-61180922I0J262018D01*
G01*
X343002560Y-58004958D01*
G75*
G02*
X343264578Y-57742940I262018J0D01*
G01*
X344920542Y-57742940D01*
G75*
G02*
X345182560Y-58004958I0J-262018D01*
G01*
G37*
D10*
X339012560Y-59592940D03*
X333932560Y-59592940D03*
%TD*%
D23*
%TO.C,R6*%
X334758060Y-94327440D03*
D24*
X334758060Y-104487440D03*
%TD*%
%TO.C,R16*%
X347712060Y-106138440D03*
D23*
X337552060Y-106138440D03*
%TD*%
D11*
%TO.C,K1*%
X339139560Y-82643440D03*
D12*
X345139560Y-80643440D03*
X345139560Y-68443440D03*
X333139560Y-68443440D03*
X333139560Y-80643440D03*
%TD*%
D13*
%TO.C,Q2*%
X340028560Y-100042440D03*
X342568560Y-102582440D03*
D14*
X337488560Y-102582440D03*
%TD*%
D24*
%TO.C,R15*%
X334313560Y-91596940D03*
D23*
X344473560Y-91596940D03*
%TD*%
D25*
%TO.C,U4*%
X337552060Y-94835440D03*
D23*
X345172060Y-97375440D03*
X337552060Y-97375440D03*
X345172060Y-94835440D03*
%TD*%
D24*
%TO.C,C1*%
X114946460Y-188584300D03*
X114946460Y-183584300D03*
%TD*%
%TO.C,C2*%
X118096060Y-183584300D03*
X118096060Y-188584300D03*
%TD*%
%TO.C,C3*%
X132450000Y-208150000D03*
X137450000Y-208150000D03*
%TD*%
%TO.C,C5*%
X197750460Y-169562240D03*
X192750460Y-169562240D03*
%TD*%
%TO.C,C6*%
X190075860Y-169562240D03*
X185075860Y-169562240D03*
%TD*%
%TO.C,C7*%
X227646260Y-184704440D03*
X227646260Y-189704440D03*
%TD*%
%TO.C,C8*%
X227379560Y-194306920D03*
X232379560Y-194306920D03*
%TD*%
%TO.C,C10*%
X137410000Y-195990000D03*
X132410000Y-195990000D03*
%TD*%
D26*
%TO.C,D1*%
X113879660Y-201411300D03*
D27*
X113879660Y-216651300D03*
%TD*%
D28*
%TO.C,D2*%
X105269060Y-189016100D03*
D29*
X102729060Y-189016100D03*
%TD*%
D17*
%TO.C,F1*%
X105675460Y-194248500D03*
X105675460Y-216748500D03*
D30*
X105675460Y-205498500D03*
%TD*%
D31*
%TO.C,J1*%
X105573860Y-220816900D03*
G36*
G01*
X106598860Y-228366900D02*
X104548860Y-228366900D01*
G75*
G02*
X103773860Y-227591900I0J775000D01*
G01*
X103773860Y-226041900D01*
G75*
G02*
X104548860Y-225266900I775000J0D01*
G01*
X106598860Y-225266900D01*
G75*
G02*
X107373860Y-226041900I0J-775000D01*
G01*
X107373860Y-227591900D01*
G75*
G02*
X106598860Y-228366900I-775000J0D01*
G01*
G37*
G36*
G01*
X111173860Y-225616900D02*
X109373860Y-225616900D01*
G75*
G02*
X108473860Y-224716900I0J900000D01*
G01*
X108473860Y-222916900D01*
G75*
G02*
X109373860Y-222016900I900000J0D01*
G01*
X111173860Y-222016900D01*
G75*
G02*
X112073860Y-222916900I0J-900000D01*
G01*
X112073860Y-224716900D01*
G75*
G02*
X111173860Y-225616900I-900000J0D01*
G01*
G37*
%TD*%
D10*
%TO.C,J4*%
X352512660Y-59605640D03*
X357592660Y-59605640D03*
G36*
G01*
X363762660Y-58017658D02*
X363762660Y-61193622D01*
G75*
G02*
X363500642Y-61455640I-262018J0D01*
G01*
X361844678Y-61455640D01*
G75*
G02*
X361582660Y-61193622I0J262018D01*
G01*
X361582660Y-58017658D01*
G75*
G02*
X361844678Y-57755640I262018J0D01*
G01*
X363500642Y-57755640D01*
G75*
G02*
X363762660Y-58017658I0J-262018D01*
G01*
G37*
%TD*%
%TO.C,J6*%
X315263560Y-59592940D03*
X320343560Y-59592940D03*
G36*
G01*
X326513560Y-58004958D02*
X326513560Y-61180922D01*
G75*
G02*
X326251542Y-61442940I-262018J0D01*
G01*
X324595578Y-61442940D01*
G75*
G02*
X324333560Y-61180922I0J262018D01*
G01*
X324333560Y-58004958D01*
G75*
G02*
X324595578Y-57742940I262018J0D01*
G01*
X326251542Y-57742940D01*
G75*
G02*
X326513560Y-58004958I0J-262018D01*
G01*
G37*
%TD*%
%TO.C,J7*%
G36*
G01*
X307908060Y-58004958D02*
X307908060Y-61180922D01*
G75*
G02*
X307646042Y-61442940I-262018J0D01*
G01*
X305990078Y-61442940D01*
G75*
G02*
X305728060Y-61180922I0J262018D01*
G01*
X305728060Y-58004958D01*
G75*
G02*
X305990078Y-57742940I262018J0D01*
G01*
X307646042Y-57742940D01*
G75*
G02*
X307908060Y-58004958I0J-262018D01*
G01*
G37*
X301738060Y-59592940D03*
X296658060Y-59592940D03*
%TD*%
%TO.C,J8*%
X278116060Y-59592940D03*
X283196060Y-59592940D03*
G36*
G01*
X289366060Y-58004958D02*
X289366060Y-61180922D01*
G75*
G02*
X289104042Y-61442940I-262018J0D01*
G01*
X287448078Y-61442940D01*
G75*
G02*
X287186060Y-61180922I0J262018D01*
G01*
X287186060Y-58004958D01*
G75*
G02*
X287448078Y-57742940I262018J0D01*
G01*
X289104042Y-57742940D01*
G75*
G02*
X289366060Y-58004958I0J-262018D01*
G01*
G37*
%TD*%
%TO.C,J9*%
X259574060Y-59592940D03*
X264654060Y-59592940D03*
G36*
G01*
X270824060Y-58004958D02*
X270824060Y-61180922D01*
G75*
G02*
X270562042Y-61442940I-262018J0D01*
G01*
X268906078Y-61442940D01*
G75*
G02*
X268644060Y-61180922I0J262018D01*
G01*
X268644060Y-58004958D01*
G75*
G02*
X268906078Y-57742940I262018J0D01*
G01*
X270562042Y-57742940D01*
G75*
G02*
X270824060Y-58004958I0J-262018D01*
G01*
G37*
%TD*%
%TO.C,J10*%
G36*
G01*
X252218560Y-58004958D02*
X252218560Y-61180922D01*
G75*
G02*
X251956542Y-61442940I-262018J0D01*
G01*
X250300578Y-61442940D01*
G75*
G02*
X250038560Y-61180922I0J262018D01*
G01*
X250038560Y-58004958D01*
G75*
G02*
X250300578Y-57742940I262018J0D01*
G01*
X251956542Y-57742940D01*
G75*
G02*
X252218560Y-58004958I0J-262018D01*
G01*
G37*
X246048560Y-59592940D03*
X240968560Y-59592940D03*
%TD*%
%TO.C,J11*%
X222426560Y-59592940D03*
X227506560Y-59592940D03*
G36*
G01*
X233676560Y-58004958D02*
X233676560Y-61180922D01*
G75*
G02*
X233414542Y-61442940I-262018J0D01*
G01*
X231758578Y-61442940D01*
G75*
G02*
X231496560Y-61180922I0J262018D01*
G01*
X231496560Y-58004958D01*
G75*
G02*
X231758578Y-57742940I262018J0D01*
G01*
X233414542Y-57742940D01*
G75*
G02*
X233676560Y-58004958I0J-262018D01*
G01*
G37*
%TD*%
%TO.C,J12*%
X203948060Y-59592940D03*
X209028060Y-59592940D03*
G36*
G01*
X215198060Y-58004958D02*
X215198060Y-61180922D01*
G75*
G02*
X214936042Y-61442940I-262018J0D01*
G01*
X213280078Y-61442940D01*
G75*
G02*
X213018060Y-61180922I0J262018D01*
G01*
X213018060Y-58004958D01*
G75*
G02*
X213280078Y-57742940I262018J0D01*
G01*
X214936042Y-57742940D01*
G75*
G02*
X215198060Y-58004958I0J-262018D01*
G01*
G37*
%TD*%
%TO.C,J13*%
G36*
G01*
X196719560Y-58004958D02*
X196719560Y-61180922D01*
G75*
G02*
X196457542Y-61442940I-262018J0D01*
G01*
X194801578Y-61442940D01*
G75*
G02*
X194539560Y-61180922I0J262018D01*
G01*
X194539560Y-58004958D01*
G75*
G02*
X194801578Y-57742940I262018J0D01*
G01*
X196457542Y-57742940D01*
G75*
G02*
X196719560Y-58004958I0J-262018D01*
G01*
G37*
X190549560Y-59592940D03*
X185469560Y-59592940D03*
%TD*%
%TO.C,J14*%
X166927560Y-59592940D03*
X172007560Y-59592940D03*
G36*
G01*
X178177560Y-58004958D02*
X178177560Y-61180922D01*
G75*
G02*
X177915542Y-61442940I-262018J0D01*
G01*
X176259578Y-61442940D01*
G75*
G02*
X175997560Y-61180922I0J262018D01*
G01*
X175997560Y-58004958D01*
G75*
G02*
X176259578Y-57742940I262018J0D01*
G01*
X177915542Y-57742940D01*
G75*
G02*
X178177560Y-58004958I0J-262018D01*
G01*
G37*
%TD*%
%TO.C,J15*%
G36*
G01*
X159787960Y-57966858D02*
X159787960Y-61142822D01*
G75*
G02*
X159525942Y-61404840I-262018J0D01*
G01*
X157869978Y-61404840D01*
G75*
G02*
X157607960Y-61142822I0J262018D01*
G01*
X157607960Y-57966858D01*
G75*
G02*
X157869978Y-57704840I262018J0D01*
G01*
X159525942Y-57704840D01*
G75*
G02*
X159787960Y-57966858I0J-262018D01*
G01*
G37*
X153617960Y-59554840D03*
X148537960Y-59554840D03*
%TD*%
%TO.C,J16*%
G36*
G01*
X141372960Y-57966858D02*
X141372960Y-61142822D01*
G75*
G02*
X141110942Y-61404840I-262018J0D01*
G01*
X139454978Y-61404840D01*
G75*
G02*
X139192960Y-61142822I0J262018D01*
G01*
X139192960Y-57966858D01*
G75*
G02*
X139454978Y-57704840I262018J0D01*
G01*
X141110942Y-57704840D01*
G75*
G02*
X141372960Y-57966858I0J-262018D01*
G01*
G37*
X135202960Y-59554840D03*
X130122960Y-59554840D03*
%TD*%
%TO.C,J17*%
X111720660Y-59542140D03*
X116800660Y-59542140D03*
G36*
G01*
X122970660Y-57954158D02*
X122970660Y-61130122D01*
G75*
G02*
X122708642Y-61392140I-262018J0D01*
G01*
X121052678Y-61392140D01*
G75*
G02*
X120790660Y-61130122I0J262018D01*
G01*
X120790660Y-57954158D01*
G75*
G02*
X121052678Y-57692140I262018J0D01*
G01*
X122708642Y-57692140D01*
G75*
G02*
X122970660Y-57954158I0J-262018D01*
G01*
G37*
%TD*%
%TO.C,J18*%
G36*
G01*
X104555660Y-57966858D02*
X104555660Y-61142822D01*
G75*
G02*
X104293642Y-61404840I-262018J0D01*
G01*
X102637678Y-61404840D01*
G75*
G02*
X102375660Y-61142822I0J262018D01*
G01*
X102375660Y-57966858D01*
G75*
G02*
X102637678Y-57704840I262018J0D01*
G01*
X104293642Y-57704840D01*
G75*
G02*
X104555660Y-57966858I0J-262018D01*
G01*
G37*
X98385660Y-59554840D03*
X93305660Y-59554840D03*
%TD*%
%TO.C,J19*%
X74890660Y-59554840D03*
X79970660Y-59554840D03*
G36*
G01*
X86140660Y-57966858D02*
X86140660Y-61142822D01*
G75*
G02*
X85878642Y-61404840I-262018J0D01*
G01*
X84222678Y-61404840D01*
G75*
G02*
X83960660Y-61142822I0J262018D01*
G01*
X83960660Y-57966858D01*
G75*
G02*
X84222678Y-57704840I262018J0D01*
G01*
X85878642Y-57704840D01*
G75*
G02*
X86140660Y-57966858I0J-262018D01*
G01*
G37*
%TD*%
%TO.C,J21*%
G36*
G01*
X354697542Y-202529240D02*
X351521578Y-202529240D01*
G75*
G02*
X351259560Y-202267222I0J262018D01*
G01*
X351259560Y-200611258D01*
G75*
G02*
X351521578Y-200349240I262018J0D01*
G01*
X354697542Y-200349240D01*
G75*
G02*
X354959560Y-200611258I0J-262018D01*
G01*
X354959560Y-202267222D01*
G75*
G02*
X354697542Y-202529240I-262018J0D01*
G01*
G37*
D32*
X353109560Y-196359240D03*
X353109560Y-191279240D03*
X353109560Y-186199240D03*
X353109560Y-181119240D03*
X353109560Y-176039240D03*
X353109560Y-170959240D03*
X353109560Y-165879240D03*
X353109560Y-160799240D03*
X353109560Y-155719240D03*
X353109560Y-150639240D03*
X353109560Y-145559240D03*
%TD*%
%TO.C,J22*%
G36*
G01*
X67636760Y-57954158D02*
X67636760Y-61130122D01*
G75*
G02*
X67374742Y-61392140I-262018J0D01*
G01*
X65718778Y-61392140D01*
G75*
G02*
X65456760Y-61130122I0J262018D01*
G01*
X65456760Y-57954158D01*
G75*
G02*
X65718778Y-57692140I262018J0D01*
G01*
X67374742Y-57692140D01*
G75*
G02*
X67636760Y-57954158I0J-262018D01*
G01*
G37*
D10*
X61466760Y-59542140D03*
X56386760Y-59542140D03*
%TD*%
%TO.C,J23*%
X252998000Y-223877600D03*
X247918000Y-223877600D03*
G36*
G01*
X241748000Y-225465582D02*
X241748000Y-222289618D01*
G75*
G02*
X242010018Y-222027600I262018J0D01*
G01*
X243665982Y-222027600D01*
G75*
G02*
X243928000Y-222289618I0J-262018D01*
G01*
X243928000Y-225465582D01*
G75*
G02*
X243665982Y-225727600I-262018J0D01*
G01*
X242010018Y-225727600D01*
G75*
G02*
X241748000Y-225465582I0J262018D01*
G01*
G37*
%TD*%
%TO.C,J24*%
G36*
G01*
X186104220Y-225465582D02*
X186104220Y-222289618D01*
G75*
G02*
X186366238Y-222027600I262018J0D01*
G01*
X188022202Y-222027600D01*
G75*
G02*
X188284220Y-222289618I0J-262018D01*
G01*
X188284220Y-225465582D01*
G75*
G02*
X188022202Y-225727600I-262018J0D01*
G01*
X186366238Y-225727600D01*
G75*
G02*
X186104220Y-225465582I0J262018D01*
G01*
G37*
X192274220Y-223877600D03*
X197354220Y-223877600D03*
%TD*%
%TO.C,J25*%
G36*
G01*
X204267760Y-225440182D02*
X204267760Y-222264218D01*
G75*
G02*
X204529778Y-222002200I262018J0D01*
G01*
X206185742Y-222002200D01*
G75*
G02*
X206447760Y-222264218I0J-262018D01*
G01*
X206447760Y-225440182D01*
G75*
G02*
X206185742Y-225702200I-262018J0D01*
G01*
X204529778Y-225702200D01*
G75*
G02*
X204267760Y-225440182I0J262018D01*
G01*
G37*
X210437760Y-223852200D03*
X215517760Y-223852200D03*
%TD*%
D11*
%TO.C,K2*%
X320280060Y-82452940D03*
D12*
X326280060Y-80452940D03*
X326280060Y-68252940D03*
X314280060Y-68252940D03*
X314280060Y-80452940D03*
%TD*%
%TO.C,K3*%
X295611060Y-80706940D03*
X295611060Y-68506940D03*
X307611060Y-68506940D03*
X307611060Y-80706940D03*
D11*
X301611060Y-82706940D03*
%TD*%
%TO.C,K4*%
X264654060Y-82770440D03*
D12*
X270654060Y-80770440D03*
X270654060Y-68570440D03*
X258654060Y-68570440D03*
X258654060Y-80770440D03*
%TD*%
D11*
%TO.C,K6*%
X283196060Y-82516440D03*
D12*
X289196060Y-80516440D03*
X289196060Y-68316440D03*
X277196060Y-68316440D03*
X277196060Y-80516440D03*
%TD*%
D11*
%TO.C,K7*%
X246048560Y-82643440D03*
D12*
X252048560Y-80643440D03*
X252048560Y-68443440D03*
X240048560Y-68443440D03*
X240048560Y-80643440D03*
%TD*%
%TO.C,K8*%
X221506560Y-80643440D03*
X221506560Y-68443440D03*
X233506560Y-68443440D03*
X233506560Y-80643440D03*
D11*
X227506560Y-82643440D03*
%TD*%
%TO.C,K9*%
X209028060Y-82706940D03*
D12*
X215028060Y-80706940D03*
X215028060Y-68506940D03*
X203028060Y-68506940D03*
X203028060Y-80706940D03*
%TD*%
%TO.C,K10*%
X55466760Y-80656140D03*
X55466760Y-68456140D03*
X67466760Y-68456140D03*
X67466760Y-80656140D03*
D11*
X61466760Y-82656140D03*
%TD*%
D12*
%TO.C,K11*%
X73970660Y-80719640D03*
X73970660Y-68519640D03*
X85970660Y-68519640D03*
X85970660Y-80719640D03*
D11*
X79970660Y-82719640D03*
%TD*%
%TO.C,K12*%
X98487260Y-82618040D03*
D12*
X104487260Y-80618040D03*
X104487260Y-68418040D03*
X92487260Y-68418040D03*
X92487260Y-80618040D03*
%TD*%
%TO.C,K13*%
X129202960Y-80668840D03*
X129202960Y-68468840D03*
X141202960Y-68468840D03*
X141202960Y-80668840D03*
D11*
X135202960Y-82668840D03*
%TD*%
%TO.C,K14*%
X116902260Y-82757740D03*
D12*
X122902260Y-80757740D03*
X122902260Y-68557740D03*
X110902260Y-68557740D03*
X110902260Y-80757740D03*
%TD*%
%TO.C,K15*%
X147617960Y-80859340D03*
X147617960Y-68659340D03*
X159617960Y-68659340D03*
X159617960Y-80859340D03*
D11*
X153617960Y-82859340D03*
%TD*%
%TO.C,K16*%
X172007560Y-82643440D03*
D12*
X178007560Y-80643440D03*
X178007560Y-68443440D03*
X166007560Y-68443440D03*
X166007560Y-80643440D03*
%TD*%
%TO.C,K17*%
X184613060Y-80706940D03*
X184613060Y-68506940D03*
X196613060Y-68506940D03*
X196613060Y-80706940D03*
D11*
X190613060Y-82706940D03*
%TD*%
D14*
%TO.C,Q1*%
X354671660Y-102709440D03*
D13*
X359751660Y-102709440D03*
X357211660Y-100169440D03*
%TD*%
D14*
%TO.C,Q3*%
X318375060Y-102328440D03*
D13*
X323455060Y-102328440D03*
X320915060Y-99788440D03*
%TD*%
%TO.C,Q4*%
X302182560Y-99851940D03*
X304722560Y-102391940D03*
D14*
X299642560Y-102391940D03*
%TD*%
D13*
%TO.C,Q5*%
X264400060Y-100042440D03*
X266940060Y-102582440D03*
D14*
X261860060Y-102582440D03*
%TD*%
D13*
%TO.C,Q6*%
X357211660Y-105706640D03*
X359751660Y-108246640D03*
D14*
X354671660Y-108246640D03*
%TD*%
%TO.C,Q7*%
X280402060Y-102264940D03*
D13*
X285482060Y-102264940D03*
X282942060Y-99724940D03*
%TD*%
%TO.C,Q8*%
X245794560Y-99851940D03*
X248334560Y-102391940D03*
D14*
X243254560Y-102391940D03*
%TD*%
%TO.C,Q9*%
X224649060Y-102518940D03*
D13*
X229729060Y-102518940D03*
X227189060Y-99978940D03*
%TD*%
%TO.C,Q10*%
X208710560Y-100169440D03*
X211250560Y-102709440D03*
D14*
X206170560Y-102709440D03*
%TD*%
%TO.C,Q11*%
X58647360Y-102341140D03*
D13*
X63727360Y-102341140D03*
X61187360Y-99801140D03*
%TD*%
%TO.C,Q12*%
X79615060Y-99839240D03*
X82155060Y-102379240D03*
D14*
X77075060Y-102379240D03*
%TD*%
D13*
%TO.C,Q13*%
X98182460Y-99788440D03*
X100722460Y-102328440D03*
D14*
X95642460Y-102328440D03*
%TD*%
%TO.C,Q14*%
X132307360Y-102328440D03*
D13*
X137387360Y-102328440D03*
X134847360Y-99788440D03*
%TD*%
D14*
%TO.C,Q15*%
X114057460Y-102468140D03*
D13*
X119137460Y-102468140D03*
X116597460Y-99928140D03*
%TD*%
D14*
%TO.C,Q16*%
X150735060Y-102480840D03*
D13*
X155815060Y-102480840D03*
X153275060Y-99940840D03*
%TD*%
%TO.C,Q17*%
X171690060Y-99851940D03*
X174230060Y-102391940D03*
D14*
X169150060Y-102391940D03*
%TD*%
D13*
%TO.C,Q18*%
X190359060Y-99788440D03*
X192899060Y-102328440D03*
D14*
X187819060Y-102328440D03*
%TD*%
D33*
%TO.C,R1*%
X120483660Y-191708500D03*
D22*
X120483660Y-217108500D03*
%TD*%
D23*
%TO.C,R2*%
X96015840Y-184060560D03*
D24*
X106175840Y-184060560D03*
%TD*%
D22*
%TO.C,R3*%
X127500000Y-217100000D03*
D33*
X127500000Y-191700000D03*
%TD*%
D24*
%TO.C,R4*%
X224471260Y-184497440D03*
D23*
X224471260Y-194657440D03*
%TD*%
D24*
%TO.C,R5*%
X362571060Y-110380240D03*
D23*
X362571060Y-100220240D03*
%TD*%
D24*
%TO.C,R7*%
X315708060Y-104233440D03*
D23*
X315708060Y-94073440D03*
%TD*%
D24*
%TO.C,R8*%
X296912060Y-104233440D03*
D23*
X296912060Y-94073440D03*
%TD*%
%TO.C,R9*%
X259129560Y-94263940D03*
D24*
X259129560Y-104423940D03*
%TD*%
%TO.C,R10*%
X351979260Y-104462040D03*
D23*
X351979260Y-94302040D03*
%TD*%
%TO.C,R11*%
X277608060Y-93882940D03*
D24*
X277608060Y-104042940D03*
%TD*%
%TO.C,R12*%
X240524060Y-104233440D03*
D23*
X240524060Y-94073440D03*
%TD*%
D24*
%TO.C,R13*%
X221918560Y-104360440D03*
D23*
X221918560Y-94200440D03*
%TD*%
%TO.C,R14*%
X203440060Y-94327440D03*
D24*
X203440060Y-104487440D03*
%TD*%
D23*
%TO.C,R17*%
X325360060Y-91279440D03*
D24*
X315200060Y-91279440D03*
%TD*%
%TO.C,R18*%
X328598560Y-105757440D03*
D23*
X318438560Y-105757440D03*
%TD*%
%TO.C,R19*%
X306691060Y-91406440D03*
D24*
X296531060Y-91406440D03*
%TD*%
%TO.C,R20*%
X309802560Y-105947940D03*
D23*
X299642560Y-105947940D03*
%TD*%
D24*
%TO.C,R21*%
X258685060Y-91596940D03*
D23*
X268845060Y-91596940D03*
%TD*%
D24*
%TO.C,R22*%
X272020060Y-106074940D03*
D23*
X261860060Y-106074940D03*
%TD*%
%TO.C,R23*%
X361707460Y-91381040D03*
D24*
X351547460Y-91381040D03*
%TD*%
D23*
%TO.C,R24*%
X352919060Y-113047240D03*
D24*
X363079060Y-113047240D03*
%TD*%
D23*
%TO.C,R25*%
X287323560Y-91152440D03*
D24*
X277163560Y-91152440D03*
%TD*%
%TO.C,R26*%
X290562060Y-105820940D03*
D23*
X280402060Y-105820940D03*
%TD*%
%TO.C,R27*%
X250239560Y-91342940D03*
D24*
X240079560Y-91342940D03*
%TD*%
D23*
%TO.C,R28*%
X243254560Y-105947940D03*
D24*
X253414560Y-105947940D03*
%TD*%
%TO.C,R29*%
X221474060Y-91469940D03*
D23*
X231634060Y-91469940D03*
%TD*%
%TO.C,R30*%
X224712560Y-106074940D03*
D24*
X234872560Y-106074940D03*
%TD*%
D23*
%TO.C,R31*%
X213155560Y-91596940D03*
D24*
X202995560Y-91596940D03*
%TD*%
D23*
%TO.C,R32*%
X206234060Y-106328940D03*
D24*
X216394060Y-106328940D03*
%TD*%
D23*
%TO.C,R33*%
X55980360Y-94060740D03*
D24*
X55980360Y-104220740D03*
%TD*%
D23*
%TO.C,R34*%
X74433460Y-94098840D03*
D24*
X74433460Y-104258840D03*
%TD*%
D23*
%TO.C,R35*%
X92950060Y-94048040D03*
D24*
X92950060Y-104208040D03*
%TD*%
%TO.C,R36*%
X129665760Y-104208040D03*
D23*
X129665760Y-94048040D03*
%TD*%
%TO.C,R37*%
X111365060Y-94187740D03*
D24*
X111365060Y-104347740D03*
%TD*%
D23*
%TO.C,R38*%
X148093460Y-94149640D03*
D24*
X148093460Y-104309640D03*
%TD*%
%TO.C,R39*%
X166483060Y-104233440D03*
D23*
X166483060Y-94073440D03*
%TD*%
D24*
%TO.C,R40*%
X185088560Y-104233440D03*
D23*
X185088560Y-94073440D03*
%TD*%
%TO.C,R41*%
X65683160Y-91393740D03*
D24*
X55523160Y-91393740D03*
%TD*%
%TO.C,R42*%
X68858160Y-105846340D03*
D23*
X58698160Y-105846340D03*
%TD*%
D24*
%TO.C,R43*%
X73976260Y-91406440D03*
D23*
X84136260Y-91406440D03*
%TD*%
D24*
%TO.C,R44*%
X87285860Y-105884440D03*
D23*
X77125860Y-105884440D03*
%TD*%
D24*
%TO.C,R45*%
X92492860Y-91355640D03*
D23*
X102652860Y-91355640D03*
%TD*%
%TO.C,R46*%
X95642460Y-105833640D03*
D24*
X105802460Y-105833640D03*
%TD*%
%TO.C,R47*%
X129208560Y-91406440D03*
D23*
X139368560Y-91406440D03*
%TD*%
D24*
%TO.C,R48*%
X142518160Y-105782840D03*
D23*
X132358160Y-105782840D03*
%TD*%
%TO.C,R49*%
X121067860Y-91495340D03*
D24*
X110907860Y-91495340D03*
%TD*%
D23*
%TO.C,R50*%
X114108260Y-105973340D03*
D24*
X124268260Y-105973340D03*
%TD*%
%TO.C,R51*%
X147636260Y-91508040D03*
D23*
X157796260Y-91508040D03*
%TD*%
%TO.C,R52*%
X150785860Y-105986040D03*
D24*
X160945860Y-105986040D03*
%TD*%
%TO.C,R53*%
X166038560Y-91406440D03*
D23*
X176198560Y-91406440D03*
%TD*%
%TO.C,R54*%
X169213560Y-105947940D03*
D24*
X179373560Y-105947940D03*
%TD*%
D23*
%TO.C,R55*%
X194804060Y-91342940D03*
D24*
X184644060Y-91342940D03*
%TD*%
%TO.C,R56*%
X198042560Y-105884440D03*
D23*
X187882560Y-105884440D03*
%TD*%
D24*
%TO.C,R57*%
X153341100Y-181901560D03*
D23*
X143181100Y-181901560D03*
%TD*%
D24*
%TO.C,R58*%
X153290300Y-185076560D03*
D23*
X143130300Y-185076560D03*
%TD*%
D34*
%TO.C,SW1*%
X237298260Y-184925040D03*
X237298260Y-189425040D03*
X230798260Y-184925040D03*
X230798260Y-189425040D03*
%TD*%
D35*
%TO.C,U1*%
X110882460Y-189473300D03*
D36*
X110882460Y-186933300D03*
X110882460Y-184393300D03*
%TD*%
D37*
%TO.C,U2*%
X134790000Y-198890000D03*
D38*
X134790000Y-205190000D03*
X132490000Y-205190000D03*
X137090000Y-205190000D03*
%TD*%
D25*
%TO.C,U5*%
X318438560Y-94581440D03*
D23*
X326058560Y-97121440D03*
X318438560Y-97121440D03*
X326058560Y-94581440D03*
%TD*%
D25*
%TO.C,U6*%
X299706060Y-94581440D03*
D23*
X307326060Y-97121440D03*
X299706060Y-97121440D03*
X307326060Y-94581440D03*
%TD*%
D25*
%TO.C,U7*%
X261923560Y-94771940D03*
D23*
X269543560Y-97311940D03*
X261923560Y-97311940D03*
X269543560Y-94771940D03*
%TD*%
%TO.C,U8*%
X362444060Y-94860840D03*
X354824060Y-97400840D03*
X362444060Y-97400840D03*
D25*
X354824060Y-94860840D03*
%TD*%
D23*
%TO.C,U9*%
X288085560Y-94390940D03*
X280465560Y-96930940D03*
X288085560Y-96930940D03*
D25*
X280465560Y-94390940D03*
%TD*%
D23*
%TO.C,U10*%
X250938060Y-94581440D03*
X243318060Y-97121440D03*
X250938060Y-97121440D03*
D25*
X243318060Y-94581440D03*
%TD*%
%TO.C,U11*%
X224712560Y-94708440D03*
D23*
X232332560Y-97248440D03*
X224712560Y-97248440D03*
X232332560Y-94708440D03*
%TD*%
%TO.C,U12*%
X213854060Y-94835440D03*
X206234060Y-97375440D03*
X213854060Y-97375440D03*
D25*
X206234060Y-94835440D03*
%TD*%
%TO.C,U13*%
X58748960Y-94568740D03*
D23*
X66368960Y-97108740D03*
X58748960Y-97108740D03*
X66368960Y-94568740D03*
%TD*%
%TO.C,U14*%
X84796660Y-94606840D03*
X77176660Y-97146840D03*
X84796660Y-97146840D03*
D25*
X77176660Y-94606840D03*
%TD*%
%TO.C,U15*%
X95744060Y-94556040D03*
D23*
X103364060Y-97096040D03*
X95744060Y-97096040D03*
X103364060Y-94556040D03*
%TD*%
D25*
%TO.C,U16*%
X132408960Y-94556040D03*
D23*
X140028960Y-97096040D03*
X132408960Y-97096040D03*
X140028960Y-94556040D03*
%TD*%
D25*
%TO.C,U17*%
X114159060Y-94695740D03*
D23*
X121779060Y-97235740D03*
X114159060Y-97235740D03*
X121779060Y-94695740D03*
%TD*%
%TO.C,U18*%
X158456660Y-94657640D03*
X150836660Y-97197640D03*
X158456660Y-97197640D03*
D25*
X150836660Y-94657640D03*
%TD*%
%TO.C,U19*%
X169213560Y-94581440D03*
D23*
X176833560Y-97121440D03*
X169213560Y-97121440D03*
X176833560Y-94581440D03*
%TD*%
%TO.C,U20*%
X195502560Y-94581440D03*
X187882560Y-97121440D03*
X195502560Y-97121440D03*
D25*
X187882560Y-94581440D03*
%TD*%
D16*
%TO.C,U21*%
X102665560Y-122140440D03*
X122985560Y-129760440D03*
X105205560Y-122140440D03*
X120445560Y-129760440D03*
X107745560Y-122140440D03*
X117905560Y-129760440D03*
X110285560Y-122140440D03*
X115365560Y-129760440D03*
X112825560Y-122140440D03*
X112825560Y-129760440D03*
X115365560Y-122140440D03*
X110285560Y-129760440D03*
X117905560Y-122140440D03*
X107745560Y-129760440D03*
X120445560Y-122140440D03*
X105205560Y-129760440D03*
X122985560Y-122140440D03*
D15*
X102665560Y-129760440D03*
%TD*%
%TO.C,U22*%
X284148560Y-130268440D03*
D16*
X304468560Y-122648440D03*
X286688560Y-130268440D03*
X301928560Y-122648440D03*
X289228560Y-130268440D03*
X299388560Y-122648440D03*
X291768560Y-130268440D03*
X296848560Y-122648440D03*
X294308560Y-130268440D03*
X294308560Y-122648440D03*
X296848560Y-130268440D03*
X291768560Y-122648440D03*
X299388560Y-130268440D03*
X289228560Y-122648440D03*
X301928560Y-130268440D03*
X286688560Y-122648440D03*
X304468560Y-130268440D03*
X284148560Y-122648440D03*
%TD*%
D39*
%TO.C,U23*%
X338949060Y-183595740D03*
X346569060Y-165815740D03*
X338949060Y-181055740D03*
X346569060Y-168355740D03*
X338949060Y-178515740D03*
X346569060Y-170895740D03*
X338949060Y-175975740D03*
X346569060Y-173435740D03*
X338949060Y-173435740D03*
X346569060Y-175975740D03*
X338949060Y-170895740D03*
X346569060Y-178515740D03*
X338949060Y-168355740D03*
X346569060Y-181055740D03*
X338949060Y-165815740D03*
D40*
X346569060Y-183595740D03*
%TD*%
D13*
%TO.C,Y1*%
X186040000Y-174330000D03*
X191040000Y-174330000D03*
%TD*%
%TO.C,Y2*%
X150547100Y-200824560D03*
X145547100Y-200824560D03*
%TD*%
%TO.C,J2*%
G36*
G01*
X115913860Y-225605282D02*
X115913860Y-222429318D01*
G75*
G02*
X116175878Y-222167300I262018J0D01*
G01*
X117831842Y-222167300D01*
G75*
G02*
X118093860Y-222429318I0J-262018D01*
G01*
X118093860Y-225605282D01*
G75*
G02*
X117831842Y-225867300I-262018J0D01*
G01*
X116175878Y-225867300D01*
G75*
G02*
X115913860Y-225605282I0J262018D01*
G01*
G37*
D10*
X122083860Y-224017300D03*
%TD*%
D21*
%TO.C,D4*%
X314057060Y-87596440D03*
D22*
X326757060Y-87596440D03*
%TD*%
%TO.C,D7*%
X364247460Y-87672640D03*
D21*
X351547460Y-87672640D03*
%TD*%
D19*
%TO.C,J3*%
X308278560Y-156430440D03*
D41*
X308278560Y-158970440D03*
X308278560Y-161510440D03*
X308278560Y-164050440D03*
X308278560Y-166590440D03*
X308278560Y-169130440D03*
X308278560Y-171670440D03*
X308278560Y-174210440D03*
X308278560Y-176750440D03*
X308278560Y-179290440D03*
X308278560Y-181830440D03*
X308278560Y-184370440D03*
X308278560Y-186910440D03*
X308278560Y-189450440D03*
X308278560Y-191990440D03*
X308278560Y-194530440D03*
%TD*%
D19*
%TO.C,J41*%
X203363860Y-198600000D03*
D20*
X205903860Y-198600000D03*
X208443860Y-198600000D03*
X210983860Y-198600000D03*
X213523860Y-198600000D03*
X216063860Y-198600000D03*
X218603860Y-198600000D03*
X221143860Y-198600000D03*
%TD*%
D24*
%TO.C,R59*%
X260503700Y-205218760D03*
D23*
X260503700Y-195058760D03*
%TD*%
%TO.C,R60*%
X257328700Y-195058760D03*
D24*
X257328700Y-205218760D03*
%TD*%
%TO.C,R61*%
X252140000Y-215040000D03*
D23*
X252140000Y-204880000D03*
%TD*%
D24*
%TO.C,R62*%
X195058060Y-166242460D03*
D23*
X184898060Y-166242460D03*
%TD*%
%TO.C,R63*%
X195062761Y-163089061D03*
D24*
X184902761Y-163089061D03*
%TD*%
D40*
%TO.C,U27*%
X180516560Y-127118840D03*
D39*
X188136560Y-144898840D03*
X180516560Y-129658840D03*
X188136560Y-142358840D03*
X180516560Y-132198840D03*
X188136560Y-139818840D03*
X180516560Y-134738840D03*
X188136560Y-137278840D03*
X180516560Y-137278840D03*
X188136560Y-134738840D03*
X180516560Y-139818840D03*
X188136560Y-132198840D03*
X180516560Y-142358840D03*
X188136560Y-129658840D03*
X180516560Y-144898840D03*
X188136560Y-127118840D03*
%TD*%
%TO.C,U28*%
X212520560Y-145051240D03*
X220140560Y-127271240D03*
X212520560Y-142511240D03*
X220140560Y-129811240D03*
X212520560Y-139971240D03*
X220140560Y-132351240D03*
X212520560Y-137431240D03*
X220140560Y-134891240D03*
X212520560Y-134891240D03*
X220140560Y-137431240D03*
X212520560Y-132351240D03*
X220140560Y-139971240D03*
X212520560Y-129811240D03*
X220140560Y-142511240D03*
X212520560Y-127271240D03*
D40*
X220140560Y-145051240D03*
%TD*%
D25*
%TO.C,U29*%
X263805700Y-204075760D03*
D23*
X266345700Y-196455760D03*
X266345700Y-204075760D03*
X263805700Y-196455760D03*
%TD*%
D22*
%TO.C,D5*%
X307961060Y-87723440D03*
D21*
X295261060Y-87723440D03*
%TD*%
D22*
%TO.C,D6*%
X271385060Y-87850440D03*
D21*
X258685060Y-87850440D03*
%TD*%
%TO.C,D8*%
X277163560Y-87469440D03*
D22*
X289863560Y-87469440D03*
%TD*%
D21*
%TO.C,D9*%
X240079560Y-87659940D03*
D22*
X252779560Y-87659940D03*
%TD*%
%TO.C,D10*%
X234174060Y-87786940D03*
D21*
X221474060Y-87786940D03*
%TD*%
%TO.C,D11*%
X202995560Y-87850440D03*
D22*
X215695560Y-87850440D03*
%TD*%
%TO.C,D12*%
X68223160Y-87710740D03*
D21*
X55523160Y-87710740D03*
%TD*%
%TO.C,D13*%
X73976260Y-87748840D03*
D22*
X86676260Y-87748840D03*
%TD*%
D21*
%TO.C,D14*%
X92492860Y-87647240D03*
D22*
X105192860Y-87647240D03*
%TD*%
D21*
%TO.C,D15*%
X129208560Y-87698040D03*
D22*
X141908560Y-87698040D03*
%TD*%
%TO.C,D16*%
X123607860Y-87786940D03*
D21*
X110907860Y-87786940D03*
%TD*%
D22*
%TO.C,D17*%
X160336260Y-87850440D03*
D21*
X147636260Y-87850440D03*
%TD*%
%TO.C,D18*%
X166038560Y-87723440D03*
D22*
X178738560Y-87723440D03*
%TD*%
%TO.C,D19*%
X197344060Y-87659940D03*
D21*
X184644060Y-87659940D03*
%TD*%
D42*
%TO.C,RV1*%
X300790000Y-159000000D03*
X300790000Y-161540000D03*
X300790000Y-164080000D03*
%TD*%
D19*
%TO.C,J29*%
X284339060Y-133887940D03*
D20*
X286879060Y-133887940D03*
X289419060Y-133887940D03*
X291959060Y-133887940D03*
X294499060Y-133887940D03*
X297039060Y-133887940D03*
X299579060Y-133887940D03*
X302119060Y-133887940D03*
%TD*%
%TO.C,J30*%
X120636060Y-133316440D03*
X118096060Y-133316440D03*
X115556060Y-133316440D03*
X113016060Y-133316440D03*
X110476060Y-133316440D03*
X107936060Y-133316440D03*
X105396060Y-133316440D03*
D19*
X102856060Y-133316440D03*
%TD*%
D41*
%TO.C,J32*%
X156325600Y-182269860D03*
D19*
X156325600Y-184809860D03*
%TD*%
%TO.C,J34*%
X185703240Y-159519080D03*
D20*
X188243240Y-159519080D03*
%TD*%
D19*
%TO.C,J37*%
X264300000Y-216730000D03*
D20*
X266840000Y-216730000D03*
%TD*%
%TO.C,J38*%
X266841000Y-219305600D03*
D19*
X264301000Y-219305600D03*
%TD*%
D20*
%TO.C,J26*%
X356890000Y-120710000D03*
D19*
X359430000Y-120710000D03*
%TD*%
%TO.C,J31*%
X223696560Y-130141440D03*
%TD*%
%TO.C,J33*%
X167820000Y-159351440D03*
D41*
X167820000Y-161891440D03*
X167820000Y-164431440D03*
X167820000Y-166971440D03*
%TD*%
%TO.C,J42*%
G36*
G01*
X289550800Y-225414782D02*
X289550800Y-222238818D01*
G75*
G02*
X289812818Y-221976800I262018J0D01*
G01*
X291468782Y-221976800D01*
G75*
G02*
X291730800Y-222238818I0J-262018D01*
G01*
X291730800Y-225414782D01*
G75*
G02*
X291468782Y-225676800I-262018J0D01*
G01*
X289812818Y-225676800D01*
G75*
G02*
X289550800Y-225414782I0J262018D01*
G01*
G37*
D10*
X295720800Y-223826800D03*
%TD*%
D25*
%TO.C,C4*%
X132900000Y-212660000D03*
D24*
X134900000Y-212660000D03*
%TD*%
D25*
%TO.C,C9*%
X133550000Y-190140000D03*
D24*
X137050000Y-190140000D03*
%TD*%
D43*
%TO.C,J43*%
X163336000Y-174754000D03*
%TD*%
%TO.C,J44*%
X290100000Y-174750000D03*
%TD*%
%TO.C,J45*%
X328944000Y-137162000D03*
%TD*%
%TO.C,J46*%
X321578000Y-195836000D03*
%TD*%
%TO.C,J47*%
X73166000Y-137162000D03*
%TD*%
%TO.C,J48*%
X212104000Y-210568000D03*
%TD*%
D19*
%TO.C,J40*%
X208680000Y-174700000D03*
D20*
X206140000Y-174700000D03*
X203600000Y-174700000D03*
X201060000Y-174700000D03*
X198520000Y-174700000D03*
X195980000Y-174700000D03*
%TD*%
D44*
%TO.C,J49*%
X119630000Y-175580000D03*
%TD*%
M02*
