M48
; DRILL file {KiCad (5.1.6)-1} date 12/15/20 20:55:35
; FORMAT={-:-/ absolute / metric / decimal}
; #@! TF.CreationDate,2020-12-15T20:55:35+02:00
; #@! TF.GenerationSoftware,Kicad,Pcbnew,(5.1.6)-1
; #@! TF.FileFunction,Plated,1,2,PTH
FMAT,2
METRIC
T1C0.700
T2C0.800
T3C0.900
T4C1.000
T5C1.100
T6C1.200
T7C1.300
T8C1.400
T9C1.500
T10C1.600
T11C3.300
%
G90
G05
T1
X119.63Y-175.58
T2
X71.614Y-107.345
X71.614Y-115.409
X74.433Y-107.637
X74.433Y-111.204
X89.902Y-107.281
X89.902Y-115.219
X92.95Y-107.281
X92.95Y-111.204
X96.95Y-140.76
X105.396Y-140.746
X107.01Y-173.19
X107.409Y-157.36
X107.44Y-155.16
X108.508Y-106.011
X108.635Y-115.536
X111.365Y-107.472
X111.365Y-111.204
X111.56Y-155.2
X112.8Y-173.13
X113.26Y-157.35
X126.796Y-106.71
X126.796Y-114.901
X129.59Y-111.204
X129.666Y-107.332
X136.04Y-157.04
X136.04Y-170.5
X136.3Y-220.17
X138.698Y-175.008
X141.238Y-177.294
X143.016Y-214.366
X145.02Y-115.219
X145.084Y-106.9
X145.302Y-174.754
X146.57Y-220.17
X146.73Y-214.62
X147.334Y-177.294
X148.093Y-107.193
X148.093Y-111.204
X150.812Y-154.682
X150.812Y-172.849
X159.369Y-131.35
X159.369Y-147.053
X163.562Y-107.408
X163.626Y-115.917
X166.483Y-106.9
X166.483Y-111.204
X177.789Y-170.919
X177.87Y-159.58
X180.94Y-208.52
X182.041Y-107.408
X182.168Y-116.108
X185.025Y-107.027
X185.025Y-111.204
X185.424Y-131.544
X185.506Y-127.088
X187.98Y-197.81
X187.98Y-202.69
X188.645Y-110.964
X188.772Y-115.867
X190.199Y-156.522
X192.891Y-159.692
X194.192Y-186.042
X198.25Y-208.93
X198.317Y-186.326
X198.769Y-159.666
X200.519Y-115.917
X200.583Y-107.472
X200.633Y-139.108
X200.659Y-134.891
X201.421Y-184.528
X202.39Y-162.41
X203.44Y-106.964
X203.44Y-111.204
X203.463Y-132.473
X203.57Y-141.825
X203.57Y-152.96
X203.836Y-145.097
X204.332Y-186.804
X204.382Y-190.832
X207.994Y-184.503
X209.234Y-145.097
X213.8Y-162.28
X214.94Y-148.14
X215.01Y-137.558
X217.29Y-148.26
X217.367Y-142.807
X218.934Y-107.472
X218.934Y-114.965
X220.237Y-152.966
X220.445Y-156.395
X221.919Y-106.964
X221.919Y-111.204
X226.414Y-110.888
X226.612Y-126.966
X237.476Y-107.154
X237.476Y-114.901
X240.397Y-111.204
X240.461Y-107.281
X241.67Y-189.09
X250.217Y-189.323
X256.209Y-106.964
X256.209Y-115.155
X257.21Y-214.9
X257.29Y-207.34
X257.346Y-182.994
X257.346Y-191.919
X259.13Y-107.027
X259.13Y-111.204
X274.624Y-106.837
X274.624Y-114.823
X277.608Y-106.9
X277.608Y-111.204
X293.61Y-106.71
X293.674Y-115.092
X296.912Y-106.9
X296.912Y-111.204
X305.987Y-151.132
X311.448Y-123.365
X312.597Y-107.091
X312.597Y-115.092
X315.708Y-107.154
X315.708Y-111.204
X316.722Y-151.132
X317.641Y-123.365
X318.515Y-165.778
X330.209Y-165.778
X331.583Y-106.964
X331.583Y-115.092
X333.16Y-163.314
X333.252Y-167.478
X334.758Y-106.964
X334.758Y-111.204
X349.858Y-117.015
X349.96Y-111.041
X356.777Y-134.668
X357.224Y-131.066
X357.255Y-128.226
X361.626Y-128.226
X363.666Y-131.066
X363.668Y-134.668
X132.307Y-102.328
X134.847Y-99.788
X137.387Y-102.328
X58.749Y-94.569
X58.749Y-97.109
X66.369Y-94.569
X66.369Y-97.109
X354.672Y-102.709
X357.212Y-100.169
X359.752Y-102.709
X251.461Y-199.732
X254.001Y-197.192
X254.001Y-202.272
X243.318Y-94.581
X243.318Y-97.121
X250.938Y-94.581
X250.938Y-97.121
X186.04Y-174.33
X191.04Y-174.33
X77.126Y-105.884
X87.286Y-105.884
X260.504Y-195.059
X260.504Y-205.219
X114.108Y-105.973
X124.268Y-105.973
X299.706Y-94.581
X299.706Y-97.121
X307.326Y-94.581
X307.326Y-97.121
X185.089Y-94.073
X185.089Y-104.233
X185.076Y-169.562
X190.076Y-169.562
X55.98Y-94.061
X55.98Y-104.221
X334.314Y-91.597
X344.474Y-91.597
X243.255Y-105.948
X253.415Y-105.948
X203.44Y-94.327
X203.44Y-104.487
X206.234Y-106.329
X216.394Y-106.329
X96.016Y-184.061
X106.176Y-184.061
X224.649Y-102.519
X227.189Y-99.979
X229.729Y-102.519
X338.949Y-165.816
X338.949Y-168.356
X338.949Y-170.896
X338.949Y-173.436
X338.949Y-175.976
X338.949Y-178.516
X338.949Y-181.056
X338.949Y-183.596
X346.569Y-165.816
X346.569Y-168.356
X346.569Y-170.896
X346.569Y-173.436
X346.569Y-175.976
X346.569Y-178.516
X346.569Y-181.056
X346.569Y-183.596
X280.402Y-102.265
X282.942Y-99.725
X285.482Y-102.265
X132.409Y-94.556
X132.409Y-97.096
X140.029Y-94.556
X140.029Y-97.096
X300.79Y-159.0
X300.79Y-161.54
X300.79Y-164.08
X77.177Y-94.607
X77.177Y-97.147
X84.797Y-94.607
X84.797Y-97.147
X184.644Y-91.343
X194.804Y-91.343
X95.642Y-105.834
X105.802Y-105.834
X284.149Y-122.648
X284.149Y-130.268
X286.689Y-122.648
X286.689Y-130.268
X289.229Y-122.648
X289.229Y-130.268
X291.769Y-122.648
X291.769Y-130.268
X294.309Y-122.648
X294.309Y-130.268
X296.849Y-122.648
X296.849Y-130.268
X299.389Y-122.648
X299.389Y-130.268
X301.929Y-122.648
X301.929Y-130.268
X304.469Y-122.648
X304.469Y-130.268
X55.523Y-91.394
X65.683Y-91.394
X337.552Y-94.835
X337.552Y-97.375
X345.172Y-94.835
X345.172Y-97.375
X132.45Y-208.15
X137.45Y-208.15
X166.483Y-94.073
X166.483Y-104.233
X337.552Y-106.138
X347.712Y-106.138
X92.95Y-94.048
X92.95Y-104.208
X318.439Y-105.757
X328.599Y-105.757
X129.666Y-94.048
X129.666Y-104.208
X258.685Y-91.597
X268.845Y-91.597
X318.375Y-102.328
X320.915Y-99.788
X323.455Y-102.328
X95.744Y-94.556
X95.744Y-97.096
X103.364Y-94.556
X103.364Y-97.096
X206.171Y-102.709
X208.711Y-100.169
X211.251Y-102.709
X172.96Y-178.986
X172.96Y-194.226
X175.5Y-178.986
X175.5Y-194.226
X178.04Y-178.986
X178.04Y-194.226
X180.58Y-178.986
X180.58Y-194.226
X183.12Y-178.986
X183.12Y-194.226
X185.66Y-178.986
X185.66Y-194.226
X188.2Y-178.986
X188.2Y-194.226
X190.74Y-178.986
X190.74Y-194.226
X193.28Y-178.986
X193.28Y-194.226
X195.82Y-178.986
X195.82Y-194.226
X198.36Y-178.986
X198.36Y-194.226
X200.9Y-178.986
X200.9Y-194.226
X203.44Y-178.986
X203.44Y-194.226
X205.98Y-178.986
X205.98Y-194.226
X208.52Y-178.986
X208.52Y-194.226
X211.06Y-178.986
X211.06Y-194.226
X213.6Y-178.986
X213.6Y-194.226
X216.14Y-178.986
X216.14Y-194.226
X218.68Y-178.986
X218.68Y-194.226
X221.22Y-178.986
X221.22Y-194.226
X184.903Y-163.089
X195.063Y-163.089
X187.883Y-94.581
X187.883Y-97.121
X195.503Y-94.581
X195.503Y-97.121
X169.214Y-105.948
X179.374Y-105.948
X261.924Y-94.772
X261.924Y-97.312
X269.544Y-94.772
X269.544Y-97.312
X133.55Y-190.14
X137.05Y-190.14
X110.908Y-91.495
X121.068Y-91.495
X143.181Y-181.902
X153.341Y-181.902
X337.489Y-102.582
X340.029Y-100.042
X342.569Y-102.582
X118.096Y-183.584
X118.096Y-188.584
X74.433Y-94.099
X74.433Y-104.259
X221.474Y-91.47
X231.634Y-91.47
X221.919Y-94.2
X221.919Y-104.36
X261.86Y-106.075
X272.02Y-106.075
X277.608Y-93.883
X277.608Y-104.043
X261.86Y-102.582
X264.4Y-100.042
X266.94Y-102.582
X145.547Y-200.825
X150.547Y-200.825
X299.643Y-102.392
X302.183Y-99.852
X304.723Y-102.392
X77.075Y-102.379
X79.615Y-99.839
X82.155Y-102.379
X184.898Y-166.242
X195.058Y-166.242
X212.521Y-127.271
X212.521Y-129.811
X212.521Y-132.351
X212.521Y-134.891
X212.521Y-137.431
X212.521Y-139.971
X212.521Y-142.511
X212.521Y-145.051
X220.141Y-127.271
X220.141Y-129.811
X220.141Y-132.351
X220.141Y-134.891
X220.141Y-137.431
X220.141Y-139.971
X220.141Y-142.511
X220.141Y-145.051
X114.159Y-94.696
X114.159Y-97.236
X121.779Y-94.696
X121.779Y-97.236
X166.039Y-91.406
X176.199Y-91.406
X132.9Y-212.66
X134.9Y-212.66
X58.698Y-105.846
X68.858Y-105.846
X206.234Y-94.835
X206.234Y-97.375
X213.854Y-94.835
X213.854Y-97.375
X263.806Y-196.456
X263.806Y-204.076
X266.346Y-196.456
X266.346Y-204.076
X187.883Y-105.884
X198.043Y-105.884
X132.41Y-195.99
X137.41Y-195.99
X334.758Y-94.327
X334.758Y-104.487
X280.402Y-105.821
X290.562Y-105.821
X299.643Y-105.948
X309.803Y-105.948
X240.08Y-91.343
X250.24Y-91.343
X351.979Y-94.302
X351.979Y-104.462
X224.471Y-184.497
X224.471Y-194.657
X187.819Y-102.328
X190.359Y-99.788
X192.899Y-102.328
X102.666Y-122.14
X102.666Y-129.76
X105.206Y-122.14
X105.206Y-129.76
X107.746Y-122.14
X107.746Y-129.76
X110.286Y-122.14
X110.286Y-129.76
X112.826Y-122.14
X112.826Y-129.76
X115.366Y-122.14
X115.366Y-129.76
X117.906Y-122.14
X117.906Y-129.76
X120.446Y-122.14
X120.446Y-129.76
X122.986Y-122.14
X122.986Y-129.76
X95.642Y-102.328
X98.182Y-99.788
X100.722Y-102.328
X354.824Y-94.861
X354.824Y-97.401
X362.444Y-94.861
X362.444Y-97.401
X243.255Y-102.392
X245.795Y-99.852
X248.335Y-102.392
X144.146Y-188.353
X144.146Y-195.973
X146.686Y-188.353
X146.686Y-195.973
X149.226Y-188.353
X149.226Y-195.973
X151.766Y-188.353
X151.766Y-195.973
X224.713Y-94.708
X224.713Y-97.248
X232.333Y-94.708
X232.333Y-97.248
X318.439Y-94.581
X318.439Y-97.121
X326.059Y-94.581
X326.059Y-97.121
X129.209Y-91.406
X139.369Y-91.406
X73.976Y-91.406
X84.136Y-91.406
X192.75Y-169.562
X197.75Y-169.562
X352.919Y-113.047
X363.079Y-113.047
X296.531Y-91.406
X306.691Y-91.406
X148.093Y-94.15
X148.093Y-104.31
X240.524Y-94.073
X240.524Y-104.233
X150.735Y-102.481
X153.275Y-99.941
X155.815Y-102.481
X169.214Y-94.581
X169.214Y-97.121
X176.834Y-94.581
X176.834Y-97.121
X58.647Y-102.341
X61.187Y-99.801
X63.727Y-102.341
X315.421Y-170.08
X315.421Y-177.7
X317.961Y-170.08
X317.961Y-177.7
X320.501Y-170.08
X320.501Y-177.7
X323.041Y-170.08
X323.041Y-177.7
X325.581Y-170.08
X325.581Y-177.7
X328.121Y-170.08
X328.121Y-177.7
X330.661Y-170.08
X330.661Y-177.7
X333.201Y-170.08
X333.201Y-177.7
X150.837Y-94.658
X150.837Y-97.198
X158.457Y-94.658
X158.457Y-97.198
X252.14Y-204.88
X252.14Y-215.04
X147.636Y-91.508
X157.796Y-91.508
X132.358Y-105.783
X142.518Y-105.783
X227.38Y-194.307
X232.38Y-194.307
X114.946Y-183.584
X114.946Y-188.584
X351.547Y-91.381
X361.707Y-91.381
X315.2Y-91.279
X325.36Y-91.279
X111.365Y-94.188
X111.365Y-104.348
X296.912Y-94.073
X296.912Y-104.233
X362.571Y-100.22
X362.571Y-110.38
X114.057Y-102.468
X116.597Y-99.928
X119.137Y-102.468
X280.466Y-94.391
X280.466Y-96.931
X288.086Y-94.391
X288.086Y-96.931
X354.672Y-108.247
X357.212Y-105.707
X359.752Y-108.247
X143.13Y-185.077
X153.29Y-185.077
X169.15Y-102.392
X171.69Y-99.852
X174.23Y-102.392
X257.329Y-195.059
X257.329Y-205.219
X180.517Y-127.119
X180.517Y-129.659
X180.517Y-132.199
X180.517Y-134.739
X180.517Y-137.279
X180.517Y-139.819
X180.517Y-142.359
X180.517Y-144.899
X188.137Y-127.119
X188.137Y-129.659
X188.137Y-132.199
X188.137Y-134.739
X188.137Y-137.279
X188.137Y-139.819
X188.137Y-142.359
X188.137Y-144.899
X150.786Y-105.986
X160.946Y-105.986
X92.493Y-91.356
X102.653Y-91.356
X227.646Y-184.704
X227.646Y-189.704
X224.713Y-106.075
X234.873Y-106.075
X277.164Y-91.152
X287.324Y-91.152
X202.996Y-91.597
X213.156Y-91.597
X315.708Y-94.073
X315.708Y-104.233
X259.13Y-94.264
X259.13Y-104.424
T3
X102.729Y-189.016
X105.269Y-189.016
T4
X264.301Y-219.306
X284.339Y-133.888
X203.364Y-198.6
X264.3Y-216.73
X208.68Y-174.7
X156.326Y-184.81
X308.279Y-156.43
X185.703Y-159.519
X102.856Y-133.316
X359.43Y-120.71
X167.82Y-159.351
X356.874Y-118.158
X223.697Y-130.141
T5
X110.882Y-184.393
X110.882Y-186.933
X110.882Y-189.473
X230.798Y-184.925
X230.798Y-189.425
X237.298Y-184.925
X237.298Y-189.425
T6
X184.644Y-87.66
X197.344Y-87.66
X258.685Y-87.85
X271.385Y-87.85
X166.039Y-87.723
X178.739Y-87.723
X333.107Y-87.787
X345.807Y-87.787
X120.484Y-191.708
X120.484Y-217.108
X92.493Y-87.647
X105.193Y-87.647
X314.057Y-87.596
X326.757Y-87.596
X147.636Y-87.85
X160.336Y-87.85
X73.976Y-87.749
X86.676Y-87.749
X129.209Y-87.698
X141.909Y-87.698
X55.523Y-87.711
X68.223Y-87.711
X221.474Y-87.787
X234.174Y-87.787
X351.547Y-87.673
X364.247Y-87.673
X110.908Y-87.787
X123.608Y-87.787
X127.5Y-191.7
X127.5Y-217.1
X277.164Y-87.469
X289.864Y-87.469
X202.996Y-87.85
X215.696Y-87.85
X295.261Y-87.723
X307.961Y-87.723
X240.08Y-87.66
X252.78Y-87.66
T7
X147.618Y-68.659
X147.618Y-80.859
X153.618Y-82.859
X159.618Y-68.659
X159.618Y-80.859
X73.971Y-68.52
X73.971Y-80.72
X79.971Y-82.72
X85.971Y-68.52
X85.971Y-80.72
X92.487Y-68.418
X92.487Y-80.618
X98.487Y-82.618
X104.487Y-68.418
X104.487Y-80.618
X55.467Y-68.456
X55.467Y-80.656
X61.467Y-82.656
X67.467Y-68.456
X67.467Y-80.656
X221.507Y-68.443
X221.507Y-80.643
X227.507Y-82.643
X233.507Y-68.443
X233.507Y-80.643
X110.902Y-68.558
X110.902Y-80.758
X116.902Y-82.758
X122.902Y-68.558
X122.902Y-80.758
X258.654Y-68.57
X258.654Y-80.77
X264.654Y-82.77
X270.654Y-68.57
X270.654Y-80.77
X184.613Y-68.507
X184.613Y-80.707
X190.613Y-82.707
X196.613Y-68.507
X196.613Y-80.707
X166.008Y-68.443
X166.008Y-80.643
X172.008Y-82.643
X178.008Y-68.443
X178.008Y-80.643
X314.28Y-68.253
X314.28Y-80.453
X320.28Y-82.453
X326.28Y-68.253
X326.28Y-80.453
X333.14Y-68.443
X333.14Y-80.643
X339.14Y-82.643
X345.14Y-68.443
X345.14Y-80.643
X295.611Y-68.507
X295.611Y-80.707
X301.611Y-82.707
X307.611Y-68.507
X307.611Y-80.707
X275.892Y-198.375
X275.892Y-210.375
X288.092Y-198.375
X288.092Y-210.375
X290.092Y-204.375
X351.567Y-68.393
X351.567Y-80.593
X357.567Y-82.593
X363.567Y-68.393
X363.567Y-80.593
X240.049Y-68.443
X240.049Y-80.643
X246.049Y-82.643
X252.049Y-68.443
X252.049Y-80.643
X277.196Y-68.316
X277.196Y-80.516
X283.196Y-82.516
X289.196Y-68.316
X289.196Y-80.516
X203.028Y-68.507
X203.028Y-80.707
X209.028Y-82.707
X215.028Y-68.507
X215.028Y-80.707
X129.203Y-68.469
X129.203Y-80.669
X135.203Y-82.669
X141.203Y-68.469
X141.203Y-80.669
X105.675Y-194.248
X105.675Y-216.748
T8
X352.513Y-59.606
X357.593Y-59.606
X362.673Y-59.606
X315.264Y-59.593
X320.344Y-59.593
X325.424Y-59.593
X259.574Y-59.593
X264.654Y-59.593
X269.734Y-59.593
X130.123Y-59.555
X135.203Y-59.555
X140.283Y-59.555
X93.306Y-59.555
X98.386Y-59.555
X103.466Y-59.555
X296.658Y-59.593
X301.738Y-59.593
X306.818Y-59.593
X187.194Y-223.878
X192.274Y-223.878
X197.354Y-223.878
X333.933Y-59.593
X339.013Y-59.593
X344.093Y-59.593
X278.116Y-59.593
X283.196Y-59.593
X288.276Y-59.593
X261.697Y-223.814
X266.777Y-223.814
X271.858Y-223.814
X276.938Y-223.814
X282.017Y-223.814
X130.529Y-223.969
X135.609Y-223.969
X140.689Y-223.969
X111.721Y-59.542
X116.801Y-59.542
X121.881Y-59.542
X224.037Y-223.857
X229.117Y-223.857
X234.197Y-223.857
X168.416Y-223.878
X173.496Y-223.878
X178.576Y-223.878
X242.838Y-223.878
X247.918Y-223.878
X252.998Y-223.878
X290.641Y-223.827
X295.721Y-223.827
X148.538Y-59.555
X153.618Y-59.555
X158.698Y-59.555
X166.928Y-59.593
X172.008Y-59.593
X177.088Y-59.593
X149.366Y-223.878
X154.446Y-223.878
X159.526Y-223.878
X117.004Y-224.017
X122.084Y-224.017
X222.427Y-59.593
X227.507Y-59.593
X232.587Y-59.593
X74.891Y-59.555
X79.971Y-59.555
X85.051Y-59.555
X185.47Y-59.593
X190.55Y-59.593
X195.63Y-59.593
X56.387Y-59.542
X61.467Y-59.542
X66.547Y-59.542
X240.969Y-59.593
X246.049Y-59.593
X251.129Y-59.593
X353.11Y-145.559
X353.11Y-150.639
X353.11Y-155.719
X353.11Y-160.799
X353.11Y-165.879
X353.11Y-170.959
X353.11Y-176.039
X353.11Y-181.119
X353.11Y-186.199
X353.11Y-191.279
X353.11Y-196.359
X353.11Y-201.439
X203.948Y-59.593
X209.028Y-59.593
X214.108Y-59.593
X205.358Y-223.852
X210.438Y-223.852
X215.518Y-223.852
T9
X150.09Y-207.606
X170.58Y-207.606
T10
X113.88Y-201.411
X113.88Y-216.651
T11
X328.944Y-137.162
X163.336Y-174.754
X290.1Y-174.75
X212.104Y-210.568
X321.578Y-195.836
X73.166Y-137.162
T4
G00X104.574Y-220.817
M15
G01X106.574Y-220.817
M16
G05
G00X104.574Y-226.817
M15
G01X106.574Y-226.817
M16
G05
G00X110.274Y-224.817
M15
G01X110.274Y-222.817
M16
G05
G00X266.841Y-219.306
M15
G01X266.841Y-219.306
M16
G05
G00X286.879Y-133.888
M15
G01X286.879Y-133.888
M16
G05
G00X289.419Y-133.888
M15
G01X289.419Y-133.888
M16
G05
G00X291.959Y-133.888
M15
G01X291.959Y-133.888
M16
G05
G00X294.499Y-133.888
M15
G01X294.499Y-133.888
M16
G05
G00X297.039Y-133.888
M15
G01X297.039Y-133.888
M16
G05
G00X299.579Y-133.888
M15
G01X299.579Y-133.888
M16
G05
G00X302.119Y-133.888
M15
G01X302.119Y-133.888
M16
G05
G00X76.47Y-151.42
M15
G01X76.47Y-151.42
M16
G05
G00X76.47Y-176.82
M15
G01X76.47Y-176.82
M16
G05
G00X79.01Y-151.42
M15
G01X79.01Y-151.42
M16
G05
G00X79.01Y-176.82
M15
G01X79.01Y-176.82
M16
G05
G00X81.55Y-151.42
M15
G01X81.55Y-151.42
M16
G05
G00X81.55Y-176.82
M15
G01X81.55Y-176.82
M16
G05
G00X84.09Y-151.42
M15
G01X84.09Y-151.42
M16
G05
G00X84.09Y-176.82
M15
G01X84.09Y-176.82
M16
G05
G00X86.63Y-151.42
M15
G01X86.63Y-151.42
M16
G05
G00X86.63Y-176.82
M15
G01X86.63Y-176.82
M16
G05
G00X89.17Y-151.42
M15
G01X89.17Y-151.42
M16
G05
G00X89.17Y-176.82
M15
G01X89.17Y-176.82
M16
G05
G00X91.71Y-151.42
M15
G01X91.71Y-151.42
M16
G05
G00X91.71Y-176.82
M15
G01X91.71Y-176.82
M16
G05
G00X94.25Y-151.42
M15
G01X94.25Y-151.42
M16
G05
G00X94.25Y-176.82
M15
G01X94.25Y-176.82
M16
G05
G00X96.79Y-151.42
M15
G01X96.79Y-151.42
M16
G05
G00X96.79Y-176.82
M15
G01X96.79Y-176.82
M16
G05
G00X99.33Y-151.42
M15
G01X99.33Y-151.42
M16
G05
G00X99.33Y-176.82
M15
G01X99.33Y-176.82
M16
G05
G00X101.87Y-151.42
M15
G01X101.87Y-151.42
M16
G05
G00X101.87Y-176.82
M15
G01X101.87Y-176.82
M16
G05
G00X104.41Y-151.42
M15
G01X104.41Y-151.42
M16
G05
G00X104.41Y-176.82
M15
G01X104.41Y-176.82
M16
G05
G00X106.95Y-151.42
M15
G01X106.95Y-151.42
M16
G05
G00X106.95Y-176.82
M15
G01X106.95Y-176.82
M16
G05
G00X109.49Y-151.42
M15
G01X109.49Y-151.42
M16
G05
G00X109.49Y-176.82
M15
G01X109.49Y-176.82
M16
G05
G00X112.03Y-151.42
M15
G01X112.03Y-151.42
M16
G05
G00X112.03Y-176.82
M15
G01X112.03Y-176.82
M16
G05
G00X205.904Y-198.6
M15
G01X205.904Y-198.6
M16
G05
G00X208.444Y-198.6
M15
G01X208.444Y-198.6
M16
G05
G00X210.984Y-198.6
M15
G01X210.984Y-198.6
M16
G05
G00X213.524Y-198.6
M15
G01X213.524Y-198.6
M16
G05
G00X216.064Y-198.6
M15
G01X216.064Y-198.6
M16
G05
G00X218.604Y-198.6
M15
G01X218.604Y-198.6
M16
G05
G00X221.144Y-198.6
M15
G01X221.144Y-198.6
M16
G05
G00X266.84Y-216.73
M15
G01X266.84Y-216.73
M16
G05
G00X195.98Y-174.7
M15
G01X195.98Y-174.7
M16
G05
G00X198.52Y-174.7
M15
G01X198.52Y-174.7
M16
G05
G00X201.06Y-174.7
M15
G01X201.06Y-174.7
M16
G05
G00X203.6Y-174.7
M15
G01X203.6Y-174.7
M16
G05
G00X206.14Y-174.7
M15
G01X206.14Y-174.7
M16
G05
G00X156.326Y-182.27
M15
G01X156.326Y-182.27
M16
G05
G00X308.279Y-158.97
M15
G01X308.279Y-158.97
M16
G05
G00X308.279Y-161.51
M15
G01X308.279Y-161.51
M16
G05
G00X308.279Y-164.05
M15
G01X308.279Y-164.05
M16
G05
G00X308.279Y-166.59
M15
G01X308.279Y-166.59
M16
G05
G00X308.279Y-169.13
M15
G01X308.279Y-169.13
M16
G05
G00X308.279Y-171.67
M15
G01X308.279Y-171.67
M16
G05
G00X308.279Y-174.21
M15
G01X308.279Y-174.21
M16
G05
G00X308.279Y-176.75
M15
G01X308.279Y-176.75
M16
G05
G00X308.279Y-179.29
M15
G01X308.279Y-179.29
M16
G05
G00X308.279Y-181.83
M15
G01X308.279Y-181.83
M16
G05
G00X308.279Y-184.37
M15
G01X308.279Y-184.37
M16
G05
G00X308.279Y-186.91
M15
G01X308.279Y-186.91
M16
G05
G00X308.279Y-189.45
M15
G01X308.279Y-189.45
M16
G05
G00X308.279Y-191.99
M15
G01X308.279Y-191.99
M16
G05
G00X308.279Y-194.53
M15
G01X308.279Y-194.53
M16
G05
G00X188.243Y-159.519
M15
G01X188.243Y-159.519
M16
G05
G00X105.396Y-133.316
M15
G01X105.396Y-133.316
M16
G05
G00X107.936Y-133.316
M15
G01X107.936Y-133.316
M16
G05
G00X110.476Y-133.316
M15
G01X110.476Y-133.316
M16
G05
G00X113.016Y-133.316
M15
G01X113.016Y-133.316
M16
G05
G00X115.556Y-133.316
M15
G01X115.556Y-133.316
M16
G05
G00X118.096Y-133.316
M15
G01X118.096Y-133.316
M16
G05
G00X120.636Y-133.316
M15
G01X120.636Y-133.316
M16
G05
G00X356.89Y-120.71
M15
G01X356.89Y-120.71
M16
G05
G00X167.82Y-161.891
M15
G01X167.82Y-161.891
M16
G05
G00X167.82Y-164.431
M15
G01X167.82Y-164.431
M16
G05
G00X167.82Y-166.971
M15
G01X167.82Y-166.971
M16
G05
G00X359.414Y-118.158
M15
G01X359.414Y-118.158
M16
G05
T0
M30
