G04 #@! TF.GenerationSoftware,KiCad,Pcbnew,(5.1.5)-3*
G04 #@! TF.CreationDate,2020-06-25T00:50:39+02:00*
G04 #@! TF.ProjectId,Distr_PCB,44697374-725f-4504-9342-2e6b69636164,rev?*
G04 #@! TF.SameCoordinates,Original*
G04 #@! TF.FileFunction,Copper,L2,Bot*
G04 #@! TF.FilePolarity,Positive*
%FSLAX46Y46*%
G04 Gerber Fmt 4.6, Leading zero omitted, Abs format (unit mm)*
G04 Created by KiCad (PCBNEW (5.1.5)-3) date 2020-06-25 00:50:39*
%MOMM*%
%LPD*%
G04 APERTURE LIST*
%ADD10C,3.000000*%
%ADD11R,3.000000X3.000000*%
%ADD12O,1.700000X1.700000*%
%ADD13R,1.700000X1.700000*%
%ADD14C,1.600000*%
%ADD15R,3.200000X3.200000*%
%ADD16O,3.200000X3.200000*%
%ADD17R,1.800000X1.800000*%
%ADD18C,1.800000*%
%ADD19R,3.500000X3.500000*%
%ADD20C,0.100000*%
%ADD21C,2.400000*%
%ADD22O,2.400000X2.400000*%
%ADD23O,1.600000X1.600000*%
%ADD24R,2.000000X1.905000*%
%ADD25O,2.000000X1.905000*%
%ADD26R,3.800000X2.000000*%
%ADD27R,1.500000X2.000000*%
%ADD28C,2.000000*%
%ADD29R,1.600000X1.600000*%
%ADD30C,1.500000*%
%ADD31C,1.200000*%
%ADD32C,1.000000*%
G04 APERTURE END LIST*
D10*
X144145000Y-58905000D03*
X121645000Y-58905000D03*
X136345000Y-117005000D03*
X141345000Y-117005000D03*
D11*
X146345000Y-117005000D03*
D12*
X163710000Y-76280000D03*
D13*
X161170000Y-76280000D03*
D14*
X173702000Y-66180000D03*
X168702000Y-66180000D03*
X135602000Y-85484000D03*
X135602000Y-80484000D03*
D15*
X163542000Y-58052000D03*
D16*
X148302000Y-58052000D03*
D17*
X165574000Y-66180000D03*
D18*
X163034000Y-66180000D03*
D19*
X134030000Y-69100000D03*
G04 #@! TA.AperFunction,ComponentPad*
D20*
G36*
X128853513Y-67353611D02*
G01*
X128926318Y-67364411D01*
X128997714Y-67382295D01*
X129067013Y-67407090D01*
X129133548Y-67438559D01*
X129196678Y-67476398D01*
X129255795Y-67520242D01*
X129310330Y-67569670D01*
X129359758Y-67624205D01*
X129403602Y-67683322D01*
X129441441Y-67746452D01*
X129472910Y-67812987D01*
X129497705Y-67882286D01*
X129515589Y-67953682D01*
X129526389Y-68026487D01*
X129530000Y-68100000D01*
X129530000Y-70100000D01*
X129526389Y-70173513D01*
X129515589Y-70246318D01*
X129497705Y-70317714D01*
X129472910Y-70387013D01*
X129441441Y-70453548D01*
X129403602Y-70516678D01*
X129359758Y-70575795D01*
X129310330Y-70630330D01*
X129255795Y-70679758D01*
X129196678Y-70723602D01*
X129133548Y-70761441D01*
X129067013Y-70792910D01*
X128997714Y-70817705D01*
X128926318Y-70835589D01*
X128853513Y-70846389D01*
X128780000Y-70850000D01*
X127280000Y-70850000D01*
X127206487Y-70846389D01*
X127133682Y-70835589D01*
X127062286Y-70817705D01*
X126992987Y-70792910D01*
X126926452Y-70761441D01*
X126863322Y-70723602D01*
X126804205Y-70679758D01*
X126749670Y-70630330D01*
X126700242Y-70575795D01*
X126656398Y-70516678D01*
X126618559Y-70453548D01*
X126587090Y-70387013D01*
X126562295Y-70317714D01*
X126544411Y-70246318D01*
X126533611Y-70173513D01*
X126530000Y-70100000D01*
X126530000Y-68100000D01*
X126533611Y-68026487D01*
X126544411Y-67953682D01*
X126562295Y-67882286D01*
X126587090Y-67812987D01*
X126618559Y-67746452D01*
X126656398Y-67683322D01*
X126700242Y-67624205D01*
X126749670Y-67569670D01*
X126804205Y-67520242D01*
X126863322Y-67476398D01*
X126926452Y-67438559D01*
X126992987Y-67407090D01*
X127062286Y-67382295D01*
X127133682Y-67364411D01*
X127206487Y-67353611D01*
X127280000Y-67350000D01*
X128780000Y-67350000D01*
X128853513Y-67353611D01*
G37*
G04 #@! TD.AperFunction*
G04 #@! TA.AperFunction,ComponentPad*
G36*
X131990765Y-72054213D02*
G01*
X132075704Y-72066813D01*
X132158999Y-72087677D01*
X132239848Y-72116605D01*
X132317472Y-72153319D01*
X132391124Y-72197464D01*
X132460094Y-72248616D01*
X132523718Y-72306282D01*
X132581384Y-72369906D01*
X132632536Y-72438876D01*
X132676681Y-72512528D01*
X132713395Y-72590152D01*
X132742323Y-72671001D01*
X132763187Y-72754296D01*
X132775787Y-72839235D01*
X132780000Y-72925000D01*
X132780000Y-74675000D01*
X132775787Y-74760765D01*
X132763187Y-74845704D01*
X132742323Y-74928999D01*
X132713395Y-75009848D01*
X132676681Y-75087472D01*
X132632536Y-75161124D01*
X132581384Y-75230094D01*
X132523718Y-75293718D01*
X132460094Y-75351384D01*
X132391124Y-75402536D01*
X132317472Y-75446681D01*
X132239848Y-75483395D01*
X132158999Y-75512323D01*
X132075704Y-75533187D01*
X131990765Y-75545787D01*
X131905000Y-75550000D01*
X130155000Y-75550000D01*
X130069235Y-75545787D01*
X129984296Y-75533187D01*
X129901001Y-75512323D01*
X129820152Y-75483395D01*
X129742528Y-75446681D01*
X129668876Y-75402536D01*
X129599906Y-75351384D01*
X129536282Y-75293718D01*
X129478616Y-75230094D01*
X129427464Y-75161124D01*
X129383319Y-75087472D01*
X129346605Y-75009848D01*
X129317677Y-74928999D01*
X129296813Y-74845704D01*
X129284213Y-74760765D01*
X129280000Y-74675000D01*
X129280000Y-72925000D01*
X129284213Y-72839235D01*
X129296813Y-72754296D01*
X129317677Y-72671001D01*
X129346605Y-72590152D01*
X129383319Y-72512528D01*
X129427464Y-72438876D01*
X129478616Y-72369906D01*
X129536282Y-72306282D01*
X129599906Y-72248616D01*
X129668876Y-72197464D01*
X129742528Y-72153319D01*
X129820152Y-72116605D01*
X129901001Y-72087677D01*
X129984296Y-72066813D01*
X130069235Y-72054213D01*
X130155000Y-72050000D01*
X131905000Y-72050000D01*
X131990765Y-72054213D01*
G37*
G04 #@! TD.AperFunction*
D11*
X127220000Y-80150000D03*
D10*
X127220000Y-85150000D03*
D21*
X192970000Y-58180000D03*
D22*
X167570000Y-58180000D03*
D14*
X148810000Y-64656000D03*
D23*
X158970000Y-64656000D03*
D24*
X141190000Y-66688000D03*
D25*
X141190000Y-69228000D03*
X141190000Y-71768000D03*
D14*
X173702000Y-69736000D03*
X168702000Y-69736000D03*
X173622000Y-73292000D03*
X168622000Y-73292000D03*
D21*
X176750000Y-66180000D03*
D22*
X202150000Y-66180000D03*
D26*
X153890000Y-76950000D03*
D27*
X153890000Y-70650000D03*
X156190000Y-70650000D03*
X151590000Y-70650000D03*
D14*
X176295000Y-116330000D03*
X171295000Y-116330000D03*
X171295000Y-119505000D03*
X176295000Y-119505000D03*
X168795000Y-116655000D03*
X163795000Y-116655000D03*
X163645000Y-119805000D03*
X168645000Y-119805000D03*
D10*
X126720000Y-91130000D03*
X126720000Y-96130000D03*
D11*
X126720000Y-101130000D03*
D12*
X152611000Y-113144000D03*
X155151000Y-113144000D03*
X157691000Y-113144000D03*
D13*
X160231000Y-113144000D03*
X183395000Y-112380000D03*
D12*
X185935000Y-112380000D03*
X188475000Y-112380000D03*
X191015000Y-112380000D03*
X193555000Y-112380000D03*
X196095000Y-112380000D03*
X198635000Y-112380000D03*
X201175000Y-112380000D03*
D13*
X183395000Y-116005000D03*
D12*
X185935000Y-116005000D03*
D11*
X126595000Y-117155000D03*
D10*
X126595000Y-112155000D03*
X126595000Y-107155000D03*
D12*
X185630000Y-80505000D03*
D13*
X188170000Y-80505000D03*
D12*
X170391000Y-84188000D03*
X172931000Y-84188000D03*
X175471000Y-84188000D03*
X178011000Y-84188000D03*
X180551000Y-84188000D03*
X183091000Y-84188000D03*
X185631000Y-84188000D03*
D13*
X188171000Y-84188000D03*
X177299000Y-73405000D03*
D12*
X179839000Y-73405000D03*
D13*
X141695000Y-107905000D03*
D12*
X144235000Y-107905000D03*
X146775000Y-107905000D03*
X149315000Y-107905000D03*
X151855000Y-107905000D03*
X154395000Y-107905000D03*
X156935000Y-107905000D03*
X159475000Y-107905000D03*
D13*
X174480000Y-80480000D03*
D12*
X177020000Y-80480000D03*
X199639000Y-72171000D03*
D13*
X197099000Y-72171000D03*
D12*
X160231000Y-84188000D03*
X157691000Y-84188000D03*
X155151000Y-84188000D03*
X152611000Y-84188000D03*
X150071000Y-84188000D03*
X147531000Y-84188000D03*
X144991000Y-84188000D03*
D13*
X142451000Y-84188000D03*
D23*
X161395000Y-116630000D03*
D14*
X151235000Y-116630000D03*
D28*
X168320000Y-113605000D03*
X163820000Y-113605000D03*
X168320000Y-107105000D03*
X163820000Y-107105000D03*
D23*
X142451000Y-88760000D03*
X190711000Y-104000000D03*
X144991000Y-88760000D03*
X188171000Y-104000000D03*
X147531000Y-88760000D03*
X185631000Y-104000000D03*
X150071000Y-88760000D03*
X183091000Y-104000000D03*
X152611000Y-88760000D03*
X180551000Y-104000000D03*
X155151000Y-88760000D03*
X178011000Y-104000000D03*
X157691000Y-88760000D03*
X175471000Y-104000000D03*
X160231000Y-88760000D03*
X172931000Y-104000000D03*
X162771000Y-88760000D03*
X170391000Y-104000000D03*
X165311000Y-88760000D03*
X167851000Y-104000000D03*
X167851000Y-88760000D03*
X165311000Y-104000000D03*
X170391000Y-88760000D03*
X162771000Y-104000000D03*
X172931000Y-88760000D03*
X160231000Y-104000000D03*
X175471000Y-88760000D03*
X157691000Y-104000000D03*
X178011000Y-88760000D03*
X155151000Y-104000000D03*
X180551000Y-88760000D03*
X152611000Y-104000000D03*
X183091000Y-88760000D03*
X150071000Y-104000000D03*
X185631000Y-88760000D03*
X147531000Y-104000000D03*
X188171000Y-88760000D03*
X144991000Y-104000000D03*
X190711000Y-88760000D03*
D29*
X142451000Y-104000000D03*
D30*
X178045000Y-111630000D03*
X173045000Y-111630000D03*
D28*
X167845000Y-101780000D03*
X167845000Y-93580000D03*
X139295000Y-106855000D03*
X170720000Y-81355000D03*
X138595000Y-81280000D03*
X139470000Y-94380000D03*
D31*
X141190000Y-66688000D02*
X143190000Y-66688000D01*
X147762000Y-62116000D02*
X166590000Y-62116000D01*
X143190000Y-66688000D02*
X147762000Y-62116000D01*
X174501999Y-65380001D02*
X173702000Y-66180000D01*
X181702000Y-58180000D02*
X174501999Y-65380001D01*
X192970000Y-58180000D02*
X181702000Y-58180000D01*
X169638000Y-62116000D02*
X173702000Y-66180000D01*
X166590000Y-62116000D02*
X169638000Y-62116000D01*
X168702000Y-66180000D02*
X165574000Y-66180000D01*
X128030000Y-70800000D02*
X131030000Y-73800000D01*
D32*
X128030000Y-69100000D02*
X128030000Y-70800000D01*
X135268000Y-85150000D02*
X135602000Y-85484000D01*
X131872000Y-85150000D02*
X135268000Y-85150000D01*
X127220000Y-85150000D02*
X131872000Y-85150000D01*
X141698000Y-69736000D02*
X141190000Y-69228000D01*
X131030000Y-73800000D02*
X131030000Y-75550000D01*
D31*
X168702000Y-66180000D02*
X168702000Y-69736000D01*
D32*
X151590000Y-70900000D02*
X151590000Y-70650000D01*
D31*
X130240000Y-76340000D02*
X131030000Y-75550000D01*
X127220000Y-85150000D02*
X125098680Y-85150000D01*
X124426000Y-84477320D02*
X124426000Y-77864000D01*
X124426000Y-77864000D02*
X125950000Y-76340000D01*
X125098680Y-85150000D02*
X124426000Y-84477320D01*
X125950000Y-76340000D02*
X130240000Y-76340000D01*
X138990000Y-69228000D02*
X136110000Y-72108000D01*
X141190000Y-69228000D02*
X138990000Y-69228000D01*
X136110000Y-72108000D02*
X136110000Y-76848000D01*
X131872000Y-81086000D02*
X131872000Y-85150000D01*
X136110000Y-76848000D02*
X131872000Y-81086000D01*
X151590000Y-70650000D02*
X151590000Y-68650000D01*
X151590000Y-68650000D02*
X150720001Y-67780001D01*
D32*
X150720001Y-67780001D02*
X149902001Y-67780001D01*
D31*
X163973999Y-67780001D02*
X149902001Y-67780001D01*
D32*
X165574000Y-66180000D02*
X163973999Y-67780001D01*
D31*
X149840000Y-72650000D02*
X151590000Y-70900000D01*
X149840000Y-77723001D02*
X149840000Y-72650000D01*
X151504999Y-79388000D02*
X149840000Y-77723001D01*
X167526000Y-79388000D02*
X151504999Y-79388000D01*
X165311000Y-81603000D02*
X165311000Y-88760000D01*
X167526000Y-79388000D02*
X165311000Y-81603000D01*
X179839000Y-73405000D02*
X177299000Y-73405000D01*
X167526000Y-76999000D02*
X167526000Y-79388000D01*
X173622000Y-73292000D02*
X171233000Y-73292000D01*
X171233000Y-73292000D02*
X167526000Y-76999000D01*
X177186000Y-73292000D02*
X177299000Y-73405000D01*
X173622000Y-73292000D02*
X177186000Y-73292000D01*
X168320000Y-104469000D02*
X167851000Y-104000000D01*
X168320000Y-107105000D02*
X168320000Y-104469000D01*
X168320000Y-113605000D02*
X168320000Y-107105000D01*
D32*
X171295000Y-116330000D02*
X171295000Y-119505000D01*
X168520000Y-113805000D02*
X168320000Y-113605000D01*
X171070000Y-113805000D02*
X168520000Y-113805000D01*
X171295000Y-116330000D02*
X171295000Y-114030000D01*
X171295000Y-114030000D02*
X171070000Y-113805000D01*
X170970000Y-116655000D02*
X171295000Y-116330000D01*
X168795000Y-116655000D02*
X170970000Y-116655000D01*
X170995000Y-119805000D02*
X171295000Y-119505000D01*
X168645000Y-119805000D02*
X170995000Y-119805000D01*
D31*
X127220000Y-90630000D02*
X126720000Y-91130000D01*
X127220000Y-85150000D02*
X127220000Y-90630000D01*
X134845001Y-115505001D02*
X136345000Y-117005000D01*
X123920000Y-109830000D02*
X123920000Y-112884002D01*
X126595000Y-107155000D02*
X123920000Y-109830000D01*
X133895000Y-114555000D02*
X134845001Y-115505001D01*
X123920000Y-112884002D02*
X125590998Y-114555000D01*
X125590998Y-114555000D02*
X133895000Y-114555000D01*
X146420000Y-76605000D02*
X137541000Y-85484000D01*
X146420000Y-71655000D02*
X146420000Y-76605000D01*
X137541000Y-85484000D02*
X135602000Y-85484000D01*
X149902001Y-67780001D02*
X149902001Y-68172999D01*
X149902001Y-68172999D02*
X146420000Y-71655000D01*
X122995000Y-103555000D02*
X125095001Y-105655001D01*
X126720000Y-91130000D02*
X122995000Y-94855000D01*
X125095001Y-105655001D02*
X126595000Y-107155000D01*
X122995000Y-94855000D02*
X122995000Y-103555000D01*
D32*
X167851000Y-102868630D02*
X167845000Y-102862630D01*
X167851000Y-104000000D02*
X167851000Y-102868630D01*
X167845000Y-102862630D02*
X167845000Y-101780000D01*
X165311000Y-89891370D02*
X167845000Y-92425370D01*
X165311000Y-88760000D02*
X165311000Y-89891370D01*
X167845000Y-92425370D02*
X167845000Y-93580000D01*
D31*
X141190000Y-74896000D02*
X141190000Y-71768000D01*
X135602000Y-80484000D02*
X141190000Y-74896000D01*
D32*
X148810000Y-65787370D02*
X148810000Y-64656000D01*
X148810000Y-66148000D02*
X148810000Y-65787370D01*
X143190000Y-71768000D02*
X148810000Y-66148000D01*
X141190000Y-71768000D02*
X143190000Y-71768000D01*
X163645000Y-119805000D02*
X161845000Y-119805000D01*
X158670000Y-116630000D02*
X151235000Y-116630000D01*
X161845000Y-119805000D02*
X158670000Y-116630000D01*
D31*
X126720000Y-101130000D02*
X126720000Y-101730000D01*
X144044999Y-119305001D02*
X146345000Y-117005000D01*
X131445001Y-119305001D02*
X144044999Y-119305001D01*
X129295000Y-117155000D02*
X131445001Y-119305001D01*
X126595000Y-117155000D02*
X129295000Y-117155000D01*
X141010999Y-102399999D02*
X139320000Y-104090998D01*
X165311000Y-104000000D02*
X163710999Y-102399999D01*
X163710999Y-102399999D02*
X141010999Y-102399999D01*
X139320000Y-109980000D02*
X146345000Y-117005000D01*
X150860000Y-117005000D02*
X151235000Y-116630000D01*
X146345000Y-117005000D02*
X150860000Y-117005000D01*
X126720000Y-101130000D02*
X129420000Y-101130000D01*
X129420000Y-101130000D02*
X134245000Y-101130000D01*
X177020000Y-80480000D02*
X174480000Y-80480000D01*
X167851000Y-84224000D02*
X167851000Y-87628630D01*
X174480000Y-80480000D02*
X171595000Y-80480000D01*
X167851000Y-87628630D02*
X167851000Y-88760000D01*
X171595000Y-80480000D02*
X170720000Y-81355000D01*
X165311000Y-101964000D02*
X165311000Y-104000000D01*
X173645000Y-97805000D02*
X171995000Y-99455000D01*
X167851000Y-89891370D02*
X169364630Y-91405000D01*
X171995000Y-99455000D02*
X167820000Y-99455000D01*
X171695000Y-91405000D02*
X173645000Y-93355000D01*
X167820000Y-99455000D02*
X165311000Y-101964000D01*
X167851000Y-88760000D02*
X167851000Y-89891370D01*
X169364630Y-91405000D02*
X171695000Y-91405000D01*
X173645000Y-93355000D02*
X173645000Y-97805000D01*
D32*
X139320000Y-104905000D02*
X139320000Y-106830000D01*
X139320000Y-106830000D02*
X139295000Y-106855000D01*
D31*
X139320000Y-104905000D02*
X139320000Y-109980000D01*
X139320000Y-104090998D02*
X139320000Y-104905000D01*
D32*
X136401999Y-81283999D02*
X138591001Y-81283999D01*
X135602000Y-80484000D02*
X136401999Y-81283999D01*
D31*
X170720000Y-81355000D02*
X167851000Y-84224000D01*
D32*
X138591001Y-81283999D02*
X138595000Y-81280000D01*
D31*
X134245000Y-100980000D02*
X136670000Y-98555000D01*
D32*
X134245000Y-101130000D02*
X134245000Y-100980000D01*
D31*
X136670000Y-98555000D02*
X136670000Y-97055000D01*
X136670000Y-97055000D02*
X138745000Y-94980000D01*
D32*
X138870000Y-94980000D02*
X139470000Y-94380000D01*
X138745000Y-94980000D02*
X138870000Y-94980000D01*
D31*
X202150000Y-69660000D02*
X199639000Y-72171000D01*
X202150000Y-66180000D02*
X202150000Y-69660000D01*
X199639000Y-72171000D02*
X197099000Y-72171000D01*
X163542000Y-58052000D02*
X163467000Y-58052000D01*
X163595000Y-58180000D02*
X167570000Y-58180000D01*
X163467000Y-58052000D02*
X163595000Y-58180000D01*
X198170000Y-66180000D02*
X202150000Y-66180000D01*
X167570000Y-58180000D02*
X169267056Y-58180000D01*
X195420000Y-63430000D02*
X198170000Y-66180000D01*
X172117056Y-55330000D02*
X194520000Y-55330000D01*
X169267056Y-58180000D02*
X172117056Y-55330000D01*
X194520000Y-55330000D02*
X195420000Y-56230000D01*
X195420000Y-56230000D02*
X195420000Y-63430000D01*
X144998000Y-58052000D02*
X144145000Y-58905000D01*
X148302000Y-58052000D02*
X144998000Y-58052000D01*
X160494000Y-66180000D02*
X158970000Y-64656000D01*
X163034000Y-66180000D02*
X160494000Y-66180000D01*
D32*
X134030000Y-71850000D02*
X134078000Y-71898000D01*
X134030000Y-69100000D02*
X134030000Y-71850000D01*
X129720000Y-80150000D02*
X127220000Y-80150000D01*
X134078000Y-75792000D02*
X129720000Y-80150000D01*
X134078000Y-71898000D02*
X134078000Y-75792000D01*
D31*
X121645000Y-58905000D02*
X125020000Y-62280000D01*
X134030000Y-66150000D02*
X134030000Y-69100000D01*
X130160000Y-62280000D02*
X134030000Y-66150000D01*
X125020000Y-62280000D02*
X130160000Y-62280000D01*
X172201999Y-71236001D02*
X172902001Y-70535999D01*
X157940000Y-70650000D02*
X158526001Y-71236001D01*
D32*
X172902001Y-70535999D02*
X173702000Y-69736000D01*
D31*
X158526001Y-71236001D02*
X172201999Y-71236001D01*
X156190000Y-70650000D02*
X157940000Y-70650000D01*
X176750000Y-66688000D02*
X173702000Y-69736000D01*
D32*
X176750000Y-66180000D02*
X176750000Y-66688000D01*
D31*
X153890000Y-70650000D02*
X153890000Y-76950000D01*
D32*
X167490630Y-73292000D02*
X168622000Y-73292000D01*
D31*
X154532000Y-73292000D02*
X167490630Y-73292000D01*
D32*
X153890000Y-72650000D02*
X154532000Y-73292000D01*
X153890000Y-70650000D02*
X153890000Y-72650000D01*
D31*
X161170000Y-76280000D02*
X163710000Y-76280000D01*
X165634000Y-76280000D02*
X168622000Y-73292000D01*
X163710000Y-76280000D02*
X165634000Y-76280000D01*
X170391000Y-108976000D02*
X173045000Y-111630000D01*
X170391000Y-104000000D02*
X170391000Y-108976000D01*
D32*
X176295000Y-114880000D02*
X173045000Y-111630000D01*
X176295000Y-116330000D02*
X176295000Y-114880000D01*
D31*
X172931000Y-106516000D02*
X178045000Y-111630000D01*
X172931000Y-104000000D02*
X172931000Y-106516000D01*
D32*
X178045000Y-117755000D02*
X176295000Y-119505000D01*
X178045000Y-111630000D02*
X178045000Y-117755000D01*
D31*
X163820000Y-105049000D02*
X162771000Y-104000000D01*
X163820000Y-107105000D02*
X163820000Y-105049000D01*
X163820000Y-113605000D02*
X163820000Y-107105000D01*
D32*
X162745000Y-113605000D02*
X163820000Y-113605000D01*
X161395000Y-116630000D02*
X161395000Y-114955000D01*
X161395000Y-114955000D02*
X162745000Y-113605000D01*
X161420000Y-116655000D02*
X161395000Y-116630000D01*
X163795000Y-116655000D02*
X161420000Y-116655000D01*
D31*
X152611000Y-84188000D02*
X152611000Y-88760000D01*
D32*
X152611000Y-89891370D02*
X151122370Y-91380000D01*
X152611000Y-88760000D02*
X152611000Y-89891370D01*
D31*
X151122370Y-91380000D02*
X144220000Y-91380000D01*
X131470000Y-91380000D02*
X144220000Y-91380000D01*
X126720000Y-96130000D02*
X131470000Y-91380000D01*
X159475000Y-104756000D02*
X160231000Y-104000000D01*
X159475000Y-107905000D02*
X159475000Y-104756000D01*
X160231000Y-108661000D02*
X159475000Y-107905000D01*
X160231000Y-113144000D02*
X160231000Y-108661000D01*
X156935000Y-104756000D02*
X157691000Y-104000000D01*
X156935000Y-107905000D02*
X156935000Y-104756000D01*
X157691000Y-108661000D02*
X156935000Y-107905000D01*
X157691000Y-113144000D02*
X157691000Y-108661000D01*
X154395000Y-104756000D02*
X155151000Y-104000000D01*
X154395000Y-107905000D02*
X154395000Y-104756000D01*
X155151000Y-108661000D02*
X154395000Y-107905000D01*
X155151000Y-113144000D02*
X155151000Y-108661000D01*
X151855000Y-104756000D02*
X152611000Y-104000000D01*
X151855000Y-107905000D02*
X151855000Y-104756000D01*
X152611000Y-108661000D02*
X151855000Y-107905000D01*
X152611000Y-113144000D02*
X152611000Y-108661000D01*
D32*
X190711000Y-100713919D02*
X190711000Y-89891370D01*
X190711000Y-89891370D02*
X190711000Y-88760000D01*
X201175000Y-111177919D02*
X190711000Y-100713919D01*
X201175000Y-112380000D02*
X201175000Y-111177919D01*
X198635000Y-111924000D02*
X198635000Y-112380000D01*
X190711000Y-104000000D02*
X198635000Y-111924000D01*
X196095000Y-111924000D02*
X196095000Y-112380000D01*
X188171000Y-104000000D02*
X196095000Y-111924000D01*
X193555000Y-111924000D02*
X193555000Y-112380000D01*
X185631000Y-104000000D02*
X193555000Y-111924000D01*
X187120000Y-107930000D02*
X191015000Y-111825000D01*
X191015000Y-111825000D02*
X191015000Y-112380000D01*
X185495000Y-107930000D02*
X187120000Y-107930000D01*
X183091000Y-104000000D02*
X183091000Y-105526000D01*
X183091000Y-105526000D02*
X185495000Y-107930000D01*
X186602081Y-109305000D02*
X188475000Y-111177919D01*
X188475000Y-111177919D02*
X188475000Y-112380000D01*
X182795000Y-109305000D02*
X186602081Y-109305000D01*
X180551000Y-104000000D02*
X180551000Y-105131370D01*
X180595000Y-105175370D02*
X180595000Y-107105000D01*
X180551000Y-105131370D02*
X180595000Y-105175370D01*
X180595000Y-107105000D02*
X182795000Y-109305000D01*
X178011000Y-104000000D02*
X178011000Y-107446000D01*
X178270000Y-107705000D02*
X178320000Y-107705000D01*
X178011000Y-107446000D02*
X178270000Y-107705000D01*
X178320000Y-107705000D02*
X181370000Y-110755000D01*
X185935000Y-111177919D02*
X185935000Y-112380000D01*
X185512081Y-110755000D02*
X185935000Y-111177919D01*
X181370000Y-110755000D02*
X185512081Y-110755000D01*
X185935000Y-112380000D02*
X185935000Y-116005000D01*
X180941002Y-112380000D02*
X183395000Y-112380000D01*
X175471000Y-104000000D02*
X175471000Y-106909998D01*
X175471000Y-106909998D02*
X180941002Y-112380000D01*
X183395000Y-112380000D02*
X183395000Y-116005000D01*
D31*
X155151000Y-84188000D02*
X155151000Y-88760000D01*
X136045001Y-102704999D02*
X136045001Y-101454999D01*
D32*
X155151000Y-88760000D02*
X155151000Y-89891370D01*
X151787370Y-93255000D02*
X144245000Y-93255000D01*
X144245000Y-93255000D02*
X144145000Y-93355000D01*
D31*
X136045001Y-101454999D02*
X144145000Y-93355000D01*
X126595000Y-112155000D02*
X136045001Y-102704999D01*
D32*
X155151000Y-89891370D02*
X151787370Y-93255000D01*
D31*
X188171000Y-84188000D02*
X188171000Y-88760000D01*
X188170000Y-84187000D02*
X188171000Y-84188000D01*
X188170000Y-80505000D02*
X188170000Y-84187000D01*
X185631000Y-84188000D02*
X185631000Y-88760000D01*
X185631000Y-80506000D02*
X185630000Y-80505000D01*
X185631000Y-84188000D02*
X185631000Y-80506000D01*
X157691000Y-84188000D02*
X157691000Y-88760000D01*
X137519999Y-102105001D02*
X144370000Y-95255000D01*
X137519999Y-113179999D02*
X137519999Y-102105001D01*
X141345000Y-117005000D02*
X137519999Y-113179999D01*
D32*
X144595000Y-95030000D02*
X144370000Y-95255000D01*
X157691000Y-88760000D02*
X157691000Y-89891370D01*
X152552370Y-95030000D02*
X144595000Y-95030000D01*
X157691000Y-89891370D02*
X152552370Y-95030000D01*
D31*
X183091000Y-84188000D02*
X183091000Y-88760000D01*
X180551000Y-84188000D02*
X180551000Y-88760000D01*
X178011000Y-84188000D02*
X178011000Y-88760000D01*
X175471000Y-84188000D02*
X175471000Y-88760000D01*
X172931000Y-84188000D02*
X172931000Y-88760000D01*
X170391000Y-84188000D02*
X170391000Y-88760000D01*
X149315000Y-104756000D02*
X150071000Y-104000000D01*
X149315000Y-107905000D02*
X149315000Y-104756000D01*
X146775000Y-104756000D02*
X147531000Y-104000000D01*
X146775000Y-107905000D02*
X146775000Y-104756000D01*
X144235000Y-104756000D02*
X144991000Y-104000000D01*
X144235000Y-107905000D02*
X144235000Y-104756000D01*
X141695000Y-104756000D02*
X142451000Y-104000000D01*
X141695000Y-107905000D02*
X141695000Y-104756000D01*
X142451000Y-84188000D02*
X142451000Y-88760000D01*
X144991000Y-84188000D02*
X144991000Y-88760000D01*
X147531000Y-84188000D02*
X147531000Y-88760000D01*
X150071000Y-84188000D02*
X150071000Y-88760000D01*
X160231000Y-84188000D02*
X160231000Y-88760000D01*
M02*
