G04 #@! TF.GenerationSoftware,KiCad,Pcbnew,(5.1.5)-3*
G04 #@! TF.CreationDate,2020-06-25T00:50:39+02:00*
G04 #@! TF.ProjectId,Distr_PCB,44697374-725f-4504-9342-2e6b69636164,rev?*
G04 #@! TF.SameCoordinates,Original*
G04 #@! TF.FileFunction,Legend,Top*
G04 #@! TF.FilePolarity,Positive*
%FSLAX46Y46*%
G04 Gerber Fmt 4.6, Leading zero omitted, Abs format (unit mm)*
G04 Created by KiCad (PCBNEW (5.1.5)-3) date 2020-06-25 00:50:39*
%MOMM*%
%LPD*%
G04 APERTURE LIST*
%ADD10C,0.120000*%
%ADD11C,0.150000*%
G04 APERTURE END LIST*
D10*
X121535000Y-53995000D02*
X121535000Y-57155000D01*
X121535000Y-60655000D02*
X121535000Y-63815000D01*
X144255000Y-60655000D02*
X144255000Y-63815000D01*
X144255000Y-63815000D02*
X121535000Y-63815000D01*
X144255000Y-53995000D02*
X121535000Y-53995000D01*
X144255000Y-53995000D02*
X144255000Y-57155000D01*
X148965000Y-123125000D02*
X148965000Y-110385000D01*
X148965000Y-110385000D02*
X133725000Y-110385000D01*
X133725000Y-123125000D02*
X133725000Y-110385000D01*
X148965000Y-123125000D02*
X133725000Y-123125000D01*
X148965000Y-123125000D02*
X148965000Y-110385000D01*
X148965000Y-110385000D02*
X133725000Y-110385000D01*
X133725000Y-123125000D02*
X133725000Y-110385000D01*
X148965000Y-123125000D02*
X133725000Y-123125000D01*
X149345000Y-123505000D02*
X146345000Y-123505000D01*
X149345000Y-120505000D02*
X149345000Y-123505000D01*
X159840000Y-77610000D02*
X159840000Y-76280000D01*
X161170000Y-77610000D02*
X159840000Y-77610000D01*
X162440000Y-77610000D02*
X162440000Y-74950000D01*
X162440000Y-74950000D02*
X165040000Y-74950000D01*
X162440000Y-77610000D02*
X165040000Y-77610000D01*
X165040000Y-77610000D02*
X165040000Y-74950000D01*
X174822000Y-67550000D02*
X167582000Y-67550000D01*
X174822000Y-64810000D02*
X167582000Y-64810000D01*
X174822000Y-67550000D02*
X174822000Y-64810000D01*
X167582000Y-67550000D02*
X167582000Y-64810000D01*
X136972000Y-86604000D02*
X134232000Y-86604000D01*
X136972000Y-79364000D02*
X134232000Y-79364000D01*
X134232000Y-79364000D02*
X134232000Y-86604000D01*
X136972000Y-79364000D02*
X136972000Y-86604000D01*
X160792000Y-60772000D02*
X160792000Y-55332000D01*
X160792000Y-55332000D02*
X151052000Y-55332000D01*
X151052000Y-55332000D02*
X151052000Y-60772000D01*
X151052000Y-60772000D02*
X160792000Y-60772000D01*
X161702000Y-58052000D02*
X160792000Y-58052000D01*
X150142000Y-58052000D02*
X151052000Y-58052000D01*
X159247000Y-60772000D02*
X159247000Y-55332000D01*
X159127000Y-60772000D02*
X159127000Y-55332000D01*
X159367000Y-60772000D02*
X159367000Y-55332000D01*
X161314000Y-66179538D02*
G75*
G03X166864000Y-67724830I2990000J-462D01*
G01*
X161314000Y-66180462D02*
G75*
G02X166864000Y-64635170I2990000J462D01*
G01*
X166804000Y-66180000D02*
G75*
G03X166804000Y-66180000I-2500000J0D01*
G01*
X166864000Y-67725000D02*
X166864000Y-64635000D01*
X135130000Y-65350000D02*
X135130000Y-64300000D01*
X134080000Y-64300000D02*
X135130000Y-64300000D01*
X129030000Y-73700000D02*
X120230000Y-73700000D01*
X120230000Y-73700000D02*
X120230000Y-64500000D01*
X134930000Y-71000000D02*
X134930000Y-73700000D01*
X134930000Y-73700000D02*
X133030000Y-73700000D01*
X120230000Y-64500000D02*
X134930000Y-64500000D01*
X134930000Y-64500000D02*
X134930000Y-67100000D01*
X130720000Y-77150000D02*
X133720000Y-77150000D01*
X133720000Y-77150000D02*
X133720000Y-80150000D01*
X133340000Y-77530000D02*
X133340000Y-87770000D01*
X133340000Y-87770000D02*
X120600000Y-87770000D01*
X120600000Y-77530000D02*
X120600000Y-87770000D01*
X133340000Y-77530000D02*
X120600000Y-77530000D01*
X133340000Y-77530000D02*
X133340000Y-87770000D01*
X133340000Y-87770000D02*
X120600000Y-87770000D01*
X120600000Y-77530000D02*
X120600000Y-87770000D01*
X133340000Y-77530000D02*
X120600000Y-77530000D01*
X190390000Y-61500000D02*
X190390000Y-54860000D01*
X190390000Y-54860000D02*
X170150000Y-54860000D01*
X170150000Y-54860000D02*
X170150000Y-61500000D01*
X170150000Y-61500000D02*
X190390000Y-61500000D01*
X191530000Y-58180000D02*
X190390000Y-58180000D01*
X169010000Y-58180000D02*
X170150000Y-58180000D01*
X150620000Y-63286000D02*
X150620000Y-66026000D01*
X150620000Y-66026000D02*
X157160000Y-66026000D01*
X157160000Y-66026000D02*
X157160000Y-63286000D01*
X157160000Y-63286000D02*
X150620000Y-63286000D01*
X149850000Y-64656000D02*
X150620000Y-64656000D01*
X157930000Y-64656000D02*
X157160000Y-64656000D01*
X144460000Y-64108000D02*
X144460000Y-74348000D01*
X139819000Y-64108000D02*
X139819000Y-74348000D01*
X144460000Y-64108000D02*
X139819000Y-64108000D01*
X144460000Y-74348000D02*
X139819000Y-74348000D01*
X142950000Y-64108000D02*
X142950000Y-74348000D01*
X144460000Y-67378000D02*
X142950000Y-67378000D01*
X144460000Y-71079000D02*
X142950000Y-71079000D01*
X174822000Y-71106000D02*
X167582000Y-71106000D01*
X174822000Y-68366000D02*
X167582000Y-68366000D01*
X174822000Y-71106000D02*
X174822000Y-68366000D01*
X167582000Y-71106000D02*
X167582000Y-68366000D01*
X174742000Y-71922000D02*
X174742000Y-74662000D01*
X167502000Y-71922000D02*
X167502000Y-74662000D01*
X167502000Y-74662000D02*
X174742000Y-74662000D01*
X167502000Y-71922000D02*
X174742000Y-71922000D01*
X179330000Y-62860000D02*
X179330000Y-69500000D01*
X179330000Y-69500000D02*
X199570000Y-69500000D01*
X199570000Y-69500000D02*
X199570000Y-62860000D01*
X199570000Y-62860000D02*
X179330000Y-62860000D01*
X178190000Y-66180000D02*
X179330000Y-66180000D01*
X200710000Y-66180000D02*
X199570000Y-66180000D01*
X177415000Y-117700000D02*
X170175000Y-117700000D01*
X177415000Y-114960000D02*
X170175000Y-114960000D01*
X177415000Y-117700000D02*
X177415000Y-114960000D01*
X170175000Y-117700000D02*
X170175000Y-114960000D01*
X170175000Y-120875000D02*
X170175000Y-118135000D01*
X177415000Y-120875000D02*
X177415000Y-118135000D01*
X177415000Y-118135000D02*
X170175000Y-118135000D01*
X177415000Y-120875000D02*
X170175000Y-120875000D01*
X169915000Y-115285000D02*
X169915000Y-118025000D01*
X162675000Y-115285000D02*
X162675000Y-118025000D01*
X162675000Y-118025000D02*
X169915000Y-118025000D01*
X162675000Y-115285000D02*
X169915000Y-115285000D01*
X162525000Y-118435000D02*
X169765000Y-118435000D01*
X162525000Y-121175000D02*
X169765000Y-121175000D01*
X162525000Y-118435000D02*
X162525000Y-121175000D01*
X169765000Y-118435000D02*
X169765000Y-121175000D01*
X120600000Y-103750000D02*
X133340000Y-103750000D01*
X133340000Y-103750000D02*
X133340000Y-88510000D01*
X120600000Y-88510000D02*
X133340000Y-88510000D01*
X120600000Y-103750000D02*
X120600000Y-88510000D01*
X120600000Y-103750000D02*
X133340000Y-103750000D01*
X133340000Y-103750000D02*
X133340000Y-88510000D01*
X120600000Y-88510000D02*
X133340000Y-88510000D01*
X120600000Y-103750000D02*
X120600000Y-88510000D01*
X120220000Y-104130000D02*
X120220000Y-101130000D01*
X123220000Y-104130000D02*
X120220000Y-104130000D01*
X161561000Y-111814000D02*
X161561000Y-113144000D01*
X160231000Y-111814000D02*
X161561000Y-111814000D01*
X158961000Y-111814000D02*
X158961000Y-114474000D01*
X158961000Y-114474000D02*
X151281000Y-114474000D01*
X158961000Y-111814000D02*
X151281000Y-111814000D01*
X151281000Y-111814000D02*
X151281000Y-114474000D01*
X202505000Y-113710000D02*
X202505000Y-111050000D01*
X184665000Y-113710000D02*
X202505000Y-113710000D01*
X184665000Y-111050000D02*
X202505000Y-111050000D01*
X184665000Y-113710000D02*
X184665000Y-111050000D01*
X183395000Y-113710000D02*
X182065000Y-113710000D01*
X182065000Y-113710000D02*
X182065000Y-112380000D01*
X187265000Y-117335000D02*
X187265000Y-114675000D01*
X184665000Y-117335000D02*
X187265000Y-117335000D01*
X184665000Y-114675000D02*
X187265000Y-114675000D01*
X184665000Y-117335000D02*
X184665000Y-114675000D01*
X183395000Y-117335000D02*
X182065000Y-117335000D01*
X182065000Y-117335000D02*
X182065000Y-116005000D01*
X123095000Y-120155000D02*
X120095000Y-120155000D01*
X120095000Y-120155000D02*
X120095000Y-117155000D01*
X120475000Y-119775000D02*
X120475000Y-104535000D01*
X120475000Y-104535000D02*
X133215000Y-104535000D01*
X133215000Y-119775000D02*
X133215000Y-104535000D01*
X120475000Y-119775000D02*
X133215000Y-119775000D01*
X120475000Y-119775000D02*
X120475000Y-104535000D01*
X120475000Y-104535000D02*
X133215000Y-104535000D01*
X133215000Y-119775000D02*
X133215000Y-104535000D01*
X120475000Y-119775000D02*
X133215000Y-119775000D01*
X189500000Y-79175000D02*
X189500000Y-80505000D01*
X188170000Y-79175000D02*
X189500000Y-79175000D01*
X186900000Y-79175000D02*
X186900000Y-81835000D01*
X186900000Y-81835000D02*
X184300000Y-81835000D01*
X186900000Y-79175000D02*
X184300000Y-79175000D01*
X184300000Y-79175000D02*
X184300000Y-81835000D01*
X189501000Y-82858000D02*
X189501000Y-84188000D01*
X188171000Y-82858000D02*
X189501000Y-82858000D01*
X186901000Y-82858000D02*
X186901000Y-85518000D01*
X186901000Y-85518000D02*
X169061000Y-85518000D01*
X186901000Y-82858000D02*
X169061000Y-82858000D01*
X169061000Y-82858000D02*
X169061000Y-85518000D01*
X181169000Y-74735000D02*
X181169000Y-72075000D01*
X178569000Y-74735000D02*
X181169000Y-74735000D01*
X178569000Y-72075000D02*
X181169000Y-72075000D01*
X178569000Y-74735000D02*
X178569000Y-72075000D01*
X177299000Y-74735000D02*
X175969000Y-74735000D01*
X175969000Y-74735000D02*
X175969000Y-73405000D01*
X160805000Y-109235000D02*
X160805000Y-106575000D01*
X142965000Y-109235000D02*
X160805000Y-109235000D01*
X142965000Y-106575000D02*
X160805000Y-106575000D01*
X142965000Y-109235000D02*
X142965000Y-106575000D01*
X141695000Y-109235000D02*
X140365000Y-109235000D01*
X140365000Y-109235000D02*
X140365000Y-107905000D01*
X178350000Y-81810000D02*
X178350000Y-79150000D01*
X175750000Y-81810000D02*
X178350000Y-81810000D01*
X175750000Y-79150000D02*
X178350000Y-79150000D01*
X175750000Y-81810000D02*
X175750000Y-79150000D01*
X174480000Y-81810000D02*
X173150000Y-81810000D01*
X173150000Y-81810000D02*
X173150000Y-80480000D01*
X195769000Y-73501000D02*
X195769000Y-72171000D01*
X197099000Y-73501000D02*
X195769000Y-73501000D01*
X198369000Y-73501000D02*
X198369000Y-70841000D01*
X198369000Y-70841000D02*
X200969000Y-70841000D01*
X198369000Y-73501000D02*
X200969000Y-73501000D01*
X200969000Y-73501000D02*
X200969000Y-70841000D01*
X141121000Y-85518000D02*
X141121000Y-84188000D01*
X142451000Y-85518000D02*
X141121000Y-85518000D01*
X143721000Y-85518000D02*
X143721000Y-82858000D01*
X143721000Y-82858000D02*
X161561000Y-82858000D01*
X143721000Y-85518000D02*
X161561000Y-85518000D01*
X161561000Y-85518000D02*
X161561000Y-82858000D01*
X160355000Y-116630000D02*
X159585000Y-116630000D01*
X152275000Y-116630000D02*
X153045000Y-116630000D01*
X159585000Y-115260000D02*
X153045000Y-115260000D01*
X159585000Y-118000000D02*
X159585000Y-115260000D01*
X153045000Y-118000000D02*
X159585000Y-118000000D01*
X153045000Y-115260000D02*
X153045000Y-118000000D01*
X165320000Y-113855000D02*
X166820000Y-113855000D01*
X169320000Y-112605000D02*
X169320000Y-108105000D01*
X166820000Y-106855000D02*
X165320000Y-106855000D01*
X162820000Y-108105000D02*
X162820000Y-112605000D01*
X141121000Y-89920000D02*
X141121000Y-95380000D01*
X192041000Y-89920000D02*
X141121000Y-89920000D01*
X192041000Y-102840000D02*
X192041000Y-89920000D01*
X141121000Y-102840000D02*
X192041000Y-102840000D01*
X141121000Y-97380000D02*
X141121000Y-102840000D01*
X141121000Y-95380000D02*
G75*
G02X141121000Y-97380000I0J-1000000D01*
G01*
X178045000Y-114330000D02*
G75*
G03X178045000Y-108930000I0J2700000D01*
G01*
X173045000Y-114330000D02*
G75*
G02X173045000Y-108930000I0J2700000D01*
G01*
X173045000Y-114330000D02*
X178045000Y-114330000D01*
X173045000Y-108930000D02*
X178045000Y-108930000D01*
D11*
X132561666Y-64833571D02*
X132228333Y-64833571D01*
X132228333Y-65357380D02*
X132228333Y-64357380D01*
X132704523Y-64357380D01*
X133609285Y-65357380D02*
X133037857Y-65357380D01*
X133323571Y-65357380D02*
X133323571Y-64357380D01*
X133228333Y-64500238D01*
X133133095Y-64595476D01*
X133037857Y-64643095D01*
X146011666Y-123657380D02*
X146011666Y-124371666D01*
X145964047Y-124514523D01*
X145868809Y-124609761D01*
X145725952Y-124657380D01*
X145630714Y-124657380D01*
X146535476Y-124657380D02*
X146725952Y-124657380D01*
X146821190Y-124609761D01*
X146868809Y-124562142D01*
X146964047Y-124419285D01*
X147011666Y-124228809D01*
X147011666Y-123847857D01*
X146964047Y-123752619D01*
X146916428Y-123705000D01*
X146821190Y-123657380D01*
X146630714Y-123657380D01*
X146535476Y-123705000D01*
X146487857Y-123752619D01*
X146440238Y-123847857D01*
X146440238Y-124085952D01*
X146487857Y-124181190D01*
X146535476Y-124228809D01*
X146630714Y-124276428D01*
X146821190Y-124276428D01*
X146916428Y-124228809D01*
X146964047Y-124181190D01*
X147011666Y-124085952D01*
X158292380Y-77089523D02*
X159006666Y-77089523D01*
X159149523Y-77137142D01*
X159244761Y-77232380D01*
X159292380Y-77375238D01*
X159292380Y-77470476D01*
X159292380Y-76089523D02*
X159292380Y-76660952D01*
X159292380Y-76375238D02*
X158292380Y-76375238D01*
X158435238Y-76470476D01*
X158530476Y-76565714D01*
X158578095Y-76660952D01*
X158387619Y-75708571D02*
X158340000Y-75660952D01*
X158292380Y-75565714D01*
X158292380Y-75327619D01*
X158340000Y-75232380D01*
X158387619Y-75184761D01*
X158482857Y-75137142D01*
X158578095Y-75137142D01*
X158720952Y-75184761D01*
X159292380Y-75756190D01*
X159292380Y-75137142D01*
X171035333Y-69037142D02*
X170987714Y-69084761D01*
X170844857Y-69132380D01*
X170749619Y-69132380D01*
X170606761Y-69084761D01*
X170511523Y-68989523D01*
X170463904Y-68894285D01*
X170416285Y-68703809D01*
X170416285Y-68560952D01*
X170463904Y-68370476D01*
X170511523Y-68275238D01*
X170606761Y-68180000D01*
X170749619Y-68132380D01*
X170844857Y-68132380D01*
X170987714Y-68180000D01*
X171035333Y-68227619D01*
X171987714Y-69132380D02*
X171416285Y-69132380D01*
X171702000Y-69132380D02*
X171702000Y-68132380D01*
X171606761Y-68275238D01*
X171511523Y-68370476D01*
X171416285Y-68418095D01*
X138459142Y-83150666D02*
X138506761Y-83198285D01*
X138554380Y-83341142D01*
X138554380Y-83436380D01*
X138506761Y-83579238D01*
X138411523Y-83674476D01*
X138316285Y-83722095D01*
X138125809Y-83769714D01*
X137982952Y-83769714D01*
X137792476Y-83722095D01*
X137697238Y-83674476D01*
X137602000Y-83579238D01*
X137554380Y-83436380D01*
X137554380Y-83341142D01*
X137602000Y-83198285D01*
X137649619Y-83150666D01*
X137649619Y-82769714D02*
X137602000Y-82722095D01*
X137554380Y-82626857D01*
X137554380Y-82388761D01*
X137602000Y-82293523D01*
X137649619Y-82245904D01*
X137744857Y-82198285D01*
X137840095Y-82198285D01*
X137982952Y-82245904D01*
X138554380Y-82817333D01*
X138554380Y-82198285D01*
X155183904Y-62224380D02*
X155183904Y-61224380D01*
X155422000Y-61224380D01*
X155564857Y-61272000D01*
X155660095Y-61367238D01*
X155707714Y-61462476D01*
X155755333Y-61652952D01*
X155755333Y-61795809D01*
X155707714Y-61986285D01*
X155660095Y-62081523D01*
X155564857Y-62176761D01*
X155422000Y-62224380D01*
X155183904Y-62224380D01*
X156707714Y-62224380D02*
X156136285Y-62224380D01*
X156422000Y-62224380D02*
X156422000Y-61224380D01*
X156326761Y-61367238D01*
X156231523Y-61462476D01*
X156136285Y-61510095D01*
X163280095Y-61104380D02*
X163280095Y-60104380D01*
X163851523Y-61104380D02*
X163422952Y-60532952D01*
X163851523Y-60104380D02*
X163280095Y-60675809D01*
X163565904Y-70592380D02*
X163565904Y-69592380D01*
X163804000Y-69592380D01*
X163946857Y-69640000D01*
X164042095Y-69735238D01*
X164089714Y-69830476D01*
X164137333Y-70020952D01*
X164137333Y-70163809D01*
X164089714Y-70354285D01*
X164042095Y-70449523D01*
X163946857Y-70544761D01*
X163804000Y-70592380D01*
X163565904Y-70592380D01*
X164518285Y-69687619D02*
X164565904Y-69640000D01*
X164661142Y-69592380D01*
X164899238Y-69592380D01*
X164994476Y-69640000D01*
X165042095Y-69687619D01*
X165089714Y-69782857D01*
X165089714Y-69878095D01*
X165042095Y-70020952D01*
X164470666Y-70592380D01*
X165089714Y-70592380D01*
X125246666Y-74302380D02*
X125246666Y-75016666D01*
X125199047Y-75159523D01*
X125103809Y-75254761D01*
X124960952Y-75302380D01*
X124865714Y-75302380D01*
X126246666Y-75302380D02*
X125675238Y-75302380D01*
X125960952Y-75302380D02*
X125960952Y-74302380D01*
X125865714Y-74445238D01*
X125770476Y-74540476D01*
X125675238Y-74588095D01*
X133872380Y-80483333D02*
X134586666Y-80483333D01*
X134729523Y-80530952D01*
X134824761Y-80626190D01*
X134872380Y-80769047D01*
X134872380Y-80864285D01*
X133967619Y-80054761D02*
X133920000Y-80007142D01*
X133872380Y-79911904D01*
X133872380Y-79673809D01*
X133920000Y-79578571D01*
X133967619Y-79530952D01*
X134062857Y-79483333D01*
X134158095Y-79483333D01*
X134300952Y-79530952D01*
X134872380Y-80102380D01*
X134872380Y-79483333D01*
X180103333Y-62952380D02*
X179770000Y-62476190D01*
X179531904Y-62952380D02*
X179531904Y-61952380D01*
X179912857Y-61952380D01*
X180008095Y-62000000D01*
X180055714Y-62047619D01*
X180103333Y-62142857D01*
X180103333Y-62285714D01*
X180055714Y-62380952D01*
X180008095Y-62428571D01*
X179912857Y-62476190D01*
X179531904Y-62476190D01*
X181055714Y-62952380D02*
X180484285Y-62952380D01*
X180770000Y-62952380D02*
X180770000Y-61952380D01*
X180674761Y-62095238D01*
X180579523Y-62190476D01*
X180484285Y-62238095D01*
X153723333Y-62738380D02*
X153390000Y-62262190D01*
X153151904Y-62738380D02*
X153151904Y-61738380D01*
X153532857Y-61738380D01*
X153628095Y-61786000D01*
X153675714Y-61833619D01*
X153723333Y-61928857D01*
X153723333Y-62071714D01*
X153675714Y-62166952D01*
X153628095Y-62214571D01*
X153532857Y-62262190D01*
X153151904Y-62262190D01*
X154104285Y-61833619D02*
X154151904Y-61786000D01*
X154247142Y-61738380D01*
X154485238Y-61738380D01*
X154580476Y-61786000D01*
X154628095Y-61833619D01*
X154675714Y-61928857D01*
X154675714Y-62024095D01*
X154628095Y-62166952D01*
X154056666Y-62738380D01*
X154675714Y-62738380D01*
X144912380Y-69989904D02*
X145721904Y-69989904D01*
X145817142Y-69942285D01*
X145864761Y-69894666D01*
X145912380Y-69799428D01*
X145912380Y-69608952D01*
X145864761Y-69513714D01*
X145817142Y-69466095D01*
X145721904Y-69418476D01*
X144912380Y-69418476D01*
X145912380Y-68418476D02*
X145912380Y-68989904D01*
X145912380Y-68704190D02*
X144912380Y-68704190D01*
X145055238Y-68799428D01*
X145150476Y-68894666D01*
X145198095Y-68989904D01*
X171035333Y-72593142D02*
X170987714Y-72640761D01*
X170844857Y-72688380D01*
X170749619Y-72688380D01*
X170606761Y-72640761D01*
X170511523Y-72545523D01*
X170463904Y-72450285D01*
X170416285Y-72259809D01*
X170416285Y-72116952D01*
X170463904Y-71926476D01*
X170511523Y-71831238D01*
X170606761Y-71736000D01*
X170749619Y-71688380D01*
X170844857Y-71688380D01*
X170987714Y-71736000D01*
X171035333Y-71783619D01*
X171368666Y-71688380D02*
X171987714Y-71688380D01*
X171654380Y-72069333D01*
X171797238Y-72069333D01*
X171892476Y-72116952D01*
X171940095Y-72164571D01*
X171987714Y-72259809D01*
X171987714Y-72497904D01*
X171940095Y-72593142D01*
X171892476Y-72640761D01*
X171797238Y-72688380D01*
X171511523Y-72688380D01*
X171416285Y-72640761D01*
X171368666Y-72593142D01*
X170955333Y-71149142D02*
X170907714Y-71196761D01*
X170764857Y-71244380D01*
X170669619Y-71244380D01*
X170526761Y-71196761D01*
X170431523Y-71101523D01*
X170383904Y-71006285D01*
X170336285Y-70815809D01*
X170336285Y-70672952D01*
X170383904Y-70482476D01*
X170431523Y-70387238D01*
X170526761Y-70292000D01*
X170669619Y-70244380D01*
X170764857Y-70244380D01*
X170907714Y-70292000D01*
X170955333Y-70339619D01*
X171812476Y-70577714D02*
X171812476Y-71244380D01*
X171574380Y-70196761D02*
X171336285Y-70911047D01*
X171955333Y-70911047D01*
X189283333Y-62312380D02*
X188950000Y-61836190D01*
X188711904Y-62312380D02*
X188711904Y-61312380D01*
X189092857Y-61312380D01*
X189188095Y-61360000D01*
X189235714Y-61407619D01*
X189283333Y-61502857D01*
X189283333Y-61645714D01*
X189235714Y-61740952D01*
X189188095Y-61788571D01*
X189092857Y-61836190D01*
X188711904Y-61836190D01*
X189616666Y-61312380D02*
X190235714Y-61312380D01*
X189902380Y-61693333D01*
X190045238Y-61693333D01*
X190140476Y-61740952D01*
X190188095Y-61788571D01*
X190235714Y-61883809D01*
X190235714Y-62121904D01*
X190188095Y-62217142D01*
X190140476Y-62264761D01*
X190045238Y-62312380D01*
X189759523Y-62312380D01*
X189664285Y-62264761D01*
X189616666Y-62217142D01*
X173628333Y-119187142D02*
X173580714Y-119234761D01*
X173437857Y-119282380D01*
X173342619Y-119282380D01*
X173199761Y-119234761D01*
X173104523Y-119139523D01*
X173056904Y-119044285D01*
X173009285Y-118853809D01*
X173009285Y-118710952D01*
X173056904Y-118520476D01*
X173104523Y-118425238D01*
X173199761Y-118330000D01*
X173342619Y-118282380D01*
X173437857Y-118282380D01*
X173580714Y-118330000D01*
X173628333Y-118377619D01*
X174533095Y-118282380D02*
X174056904Y-118282380D01*
X174009285Y-118758571D01*
X174056904Y-118710952D01*
X174152142Y-118663333D01*
X174390238Y-118663333D01*
X174485476Y-118710952D01*
X174533095Y-118758571D01*
X174580714Y-118853809D01*
X174580714Y-119091904D01*
X174533095Y-119187142D01*
X174485476Y-119234761D01*
X174390238Y-119282380D01*
X174152142Y-119282380D01*
X174056904Y-119234761D01*
X174009285Y-119187142D01*
X173628333Y-122362142D02*
X173580714Y-122409761D01*
X173437857Y-122457380D01*
X173342619Y-122457380D01*
X173199761Y-122409761D01*
X173104523Y-122314523D01*
X173056904Y-122219285D01*
X173009285Y-122028809D01*
X173009285Y-121885952D01*
X173056904Y-121695476D01*
X173104523Y-121600238D01*
X173199761Y-121505000D01*
X173342619Y-121457380D01*
X173437857Y-121457380D01*
X173580714Y-121505000D01*
X173628333Y-121552619D01*
X174485476Y-121457380D02*
X174295000Y-121457380D01*
X174199761Y-121505000D01*
X174152142Y-121552619D01*
X174056904Y-121695476D01*
X174009285Y-121885952D01*
X174009285Y-122266904D01*
X174056904Y-122362142D01*
X174104523Y-122409761D01*
X174199761Y-122457380D01*
X174390238Y-122457380D01*
X174485476Y-122409761D01*
X174533095Y-122362142D01*
X174580714Y-122266904D01*
X174580714Y-122028809D01*
X174533095Y-121933571D01*
X174485476Y-121885952D01*
X174390238Y-121838333D01*
X174199761Y-121838333D01*
X174104523Y-121885952D01*
X174056904Y-121933571D01*
X174009285Y-122028809D01*
X166128333Y-114512142D02*
X166080714Y-114559761D01*
X165937857Y-114607380D01*
X165842619Y-114607380D01*
X165699761Y-114559761D01*
X165604523Y-114464523D01*
X165556904Y-114369285D01*
X165509285Y-114178809D01*
X165509285Y-114035952D01*
X165556904Y-113845476D01*
X165604523Y-113750238D01*
X165699761Y-113655000D01*
X165842619Y-113607380D01*
X165937857Y-113607380D01*
X166080714Y-113655000D01*
X166128333Y-113702619D01*
X166461666Y-113607380D02*
X167128333Y-113607380D01*
X166699761Y-114607380D01*
X165978333Y-117662142D02*
X165930714Y-117709761D01*
X165787857Y-117757380D01*
X165692619Y-117757380D01*
X165549761Y-117709761D01*
X165454523Y-117614523D01*
X165406904Y-117519285D01*
X165359285Y-117328809D01*
X165359285Y-117185952D01*
X165406904Y-116995476D01*
X165454523Y-116900238D01*
X165549761Y-116805000D01*
X165692619Y-116757380D01*
X165787857Y-116757380D01*
X165930714Y-116805000D01*
X165978333Y-116852619D01*
X166549761Y-117185952D02*
X166454523Y-117138333D01*
X166406904Y-117090714D01*
X166359285Y-116995476D01*
X166359285Y-116947857D01*
X166406904Y-116852619D01*
X166454523Y-116805000D01*
X166549761Y-116757380D01*
X166740238Y-116757380D01*
X166835476Y-116805000D01*
X166883095Y-116852619D01*
X166930714Y-116947857D01*
X166930714Y-116995476D01*
X166883095Y-117090714D01*
X166835476Y-117138333D01*
X166740238Y-117185952D01*
X166549761Y-117185952D01*
X166454523Y-117233571D01*
X166406904Y-117281190D01*
X166359285Y-117376428D01*
X166359285Y-117566904D01*
X166406904Y-117662142D01*
X166454523Y-117709761D01*
X166549761Y-117757380D01*
X166740238Y-117757380D01*
X166835476Y-117709761D01*
X166883095Y-117662142D01*
X166930714Y-117566904D01*
X166930714Y-117376428D01*
X166883095Y-117281190D01*
X166835476Y-117233571D01*
X166740238Y-117185952D01*
X118972380Y-101463333D02*
X119686666Y-101463333D01*
X119829523Y-101510952D01*
X119924761Y-101606190D01*
X119972380Y-101749047D01*
X119972380Y-101844285D01*
X118972380Y-101082380D02*
X118972380Y-100463333D01*
X119353333Y-100796666D01*
X119353333Y-100653809D01*
X119400952Y-100558571D01*
X119448571Y-100510952D01*
X119543809Y-100463333D01*
X119781904Y-100463333D01*
X119877142Y-100510952D01*
X119924761Y-100558571D01*
X119972380Y-100653809D01*
X119972380Y-100939523D01*
X119924761Y-101034761D01*
X119877142Y-101082380D01*
X162013380Y-113477333D02*
X162727666Y-113477333D01*
X162870523Y-113524952D01*
X162965761Y-113620190D01*
X163013380Y-113763047D01*
X163013380Y-113858285D01*
X162346714Y-112572571D02*
X163013380Y-112572571D01*
X161965761Y-112810666D02*
X162680047Y-113048761D01*
X162680047Y-112429714D01*
X180517380Y-112713333D02*
X181231666Y-112713333D01*
X181374523Y-112760952D01*
X181469761Y-112856190D01*
X181517380Y-112999047D01*
X181517380Y-113094285D01*
X180517380Y-111760952D02*
X180517380Y-112237142D01*
X180993571Y-112284761D01*
X180945952Y-112237142D01*
X180898333Y-112141904D01*
X180898333Y-111903809D01*
X180945952Y-111808571D01*
X180993571Y-111760952D01*
X181088809Y-111713333D01*
X181326904Y-111713333D01*
X181422142Y-111760952D01*
X181469761Y-111808571D01*
X181517380Y-111903809D01*
X181517380Y-112141904D01*
X181469761Y-112237142D01*
X181422142Y-112284761D01*
X180517380Y-116338333D02*
X181231666Y-116338333D01*
X181374523Y-116385952D01*
X181469761Y-116481190D01*
X181517380Y-116624047D01*
X181517380Y-116719285D01*
X180517380Y-115433571D02*
X180517380Y-115624047D01*
X180565000Y-115719285D01*
X180612619Y-115766904D01*
X180755476Y-115862142D01*
X180945952Y-115909761D01*
X181326904Y-115909761D01*
X181422142Y-115862142D01*
X181469761Y-115814523D01*
X181517380Y-115719285D01*
X181517380Y-115528809D01*
X181469761Y-115433571D01*
X181422142Y-115385952D01*
X181326904Y-115338333D01*
X181088809Y-115338333D01*
X180993571Y-115385952D01*
X180945952Y-115433571D01*
X180898333Y-115528809D01*
X180898333Y-115719285D01*
X180945952Y-115814523D01*
X180993571Y-115862142D01*
X181088809Y-115909761D01*
X118847380Y-117488333D02*
X119561666Y-117488333D01*
X119704523Y-117535952D01*
X119799761Y-117631190D01*
X119847380Y-117774047D01*
X119847380Y-117869285D01*
X118847380Y-117107380D02*
X118847380Y-116440714D01*
X119847380Y-116869285D01*
X189952380Y-80838333D02*
X190666666Y-80838333D01*
X190809523Y-80885952D01*
X190904761Y-80981190D01*
X190952380Y-81124047D01*
X190952380Y-81219285D01*
X190380952Y-80219285D02*
X190333333Y-80314523D01*
X190285714Y-80362142D01*
X190190476Y-80409761D01*
X190142857Y-80409761D01*
X190047619Y-80362142D01*
X190000000Y-80314523D01*
X189952380Y-80219285D01*
X189952380Y-80028809D01*
X190000000Y-79933571D01*
X190047619Y-79885952D01*
X190142857Y-79838333D01*
X190190476Y-79838333D01*
X190285714Y-79885952D01*
X190333333Y-79933571D01*
X190380952Y-80028809D01*
X190380952Y-80219285D01*
X190428571Y-80314523D01*
X190476190Y-80362142D01*
X190571428Y-80409761D01*
X190761904Y-80409761D01*
X190857142Y-80362142D01*
X190904761Y-80314523D01*
X190952380Y-80219285D01*
X190952380Y-80028809D01*
X190904761Y-79933571D01*
X190857142Y-79885952D01*
X190761904Y-79838333D01*
X190571428Y-79838333D01*
X190476190Y-79885952D01*
X190428571Y-79933571D01*
X190380952Y-80028809D01*
X189953380Y-84997523D02*
X190667666Y-84997523D01*
X190810523Y-85045142D01*
X190905761Y-85140380D01*
X190953380Y-85283238D01*
X190953380Y-85378476D01*
X190953380Y-83997523D02*
X190953380Y-84568952D01*
X190953380Y-84283238D02*
X189953380Y-84283238D01*
X190096238Y-84378476D01*
X190191476Y-84473714D01*
X190239095Y-84568952D01*
X189953380Y-83378476D02*
X189953380Y-83283238D01*
X190001000Y-83188000D01*
X190048619Y-83140380D01*
X190143857Y-83092761D01*
X190334333Y-83045142D01*
X190572428Y-83045142D01*
X190762904Y-83092761D01*
X190858142Y-83140380D01*
X190905761Y-83188000D01*
X190953380Y-83283238D01*
X190953380Y-83378476D01*
X190905761Y-83473714D01*
X190858142Y-83521333D01*
X190762904Y-83568952D01*
X190572428Y-83616571D01*
X190334333Y-83616571D01*
X190143857Y-83568952D01*
X190048619Y-83521333D01*
X190001000Y-83473714D01*
X189953380Y-83378476D01*
X174421380Y-74214523D02*
X175135666Y-74214523D01*
X175278523Y-74262142D01*
X175373761Y-74357380D01*
X175421380Y-74500238D01*
X175421380Y-74595476D01*
X175421380Y-73214523D02*
X175421380Y-73785952D01*
X175421380Y-73500238D02*
X174421380Y-73500238D01*
X174564238Y-73595476D01*
X174659476Y-73690714D01*
X174707095Y-73785952D01*
X175421380Y-72262142D02*
X175421380Y-72833571D01*
X175421380Y-72547857D02*
X174421380Y-72547857D01*
X174564238Y-72643095D01*
X174659476Y-72738333D01*
X174707095Y-72833571D01*
X138817380Y-108714523D02*
X139531666Y-108714523D01*
X139674523Y-108762142D01*
X139769761Y-108857380D01*
X139817380Y-109000238D01*
X139817380Y-109095476D01*
X139817380Y-107714523D02*
X139817380Y-108285952D01*
X139817380Y-108000238D02*
X138817380Y-108000238D01*
X138960238Y-108095476D01*
X139055476Y-108190714D01*
X139103095Y-108285952D01*
X138817380Y-107381190D02*
X138817380Y-106762142D01*
X139198333Y-107095476D01*
X139198333Y-106952619D01*
X139245952Y-106857380D01*
X139293571Y-106809761D01*
X139388809Y-106762142D01*
X139626904Y-106762142D01*
X139722142Y-106809761D01*
X139769761Y-106857380D01*
X139817380Y-106952619D01*
X139817380Y-107238333D01*
X139769761Y-107333571D01*
X139722142Y-107381190D01*
X171602380Y-81289523D02*
X172316666Y-81289523D01*
X172459523Y-81337142D01*
X172554761Y-81432380D01*
X172602380Y-81575238D01*
X172602380Y-81670476D01*
X172602380Y-80289523D02*
X172602380Y-80860952D01*
X172602380Y-80575238D02*
X171602380Y-80575238D01*
X171745238Y-80670476D01*
X171840476Y-80765714D01*
X171888095Y-80860952D01*
X171935714Y-79432380D02*
X172602380Y-79432380D01*
X171554761Y-79670476D02*
X172269047Y-79908571D01*
X172269047Y-79289523D01*
X194221380Y-72980523D02*
X194935666Y-72980523D01*
X195078523Y-73028142D01*
X195173761Y-73123380D01*
X195221380Y-73266238D01*
X195221380Y-73361476D01*
X195221380Y-71980523D02*
X195221380Y-72551952D01*
X195221380Y-72266238D02*
X194221380Y-72266238D01*
X194364238Y-72361476D01*
X194459476Y-72456714D01*
X194507095Y-72551952D01*
X194221380Y-71075761D02*
X194221380Y-71551952D01*
X194697571Y-71599571D01*
X194649952Y-71551952D01*
X194602333Y-71456714D01*
X194602333Y-71218619D01*
X194649952Y-71123380D01*
X194697571Y-71075761D01*
X194792809Y-71028142D01*
X195030904Y-71028142D01*
X195126142Y-71075761D01*
X195173761Y-71123380D01*
X195221380Y-71218619D01*
X195221380Y-71456714D01*
X195173761Y-71551952D01*
X195126142Y-71599571D01*
X139573380Y-84997523D02*
X140287666Y-84997523D01*
X140430523Y-85045142D01*
X140525761Y-85140380D01*
X140573380Y-85283238D01*
X140573380Y-85378476D01*
X140573380Y-83997523D02*
X140573380Y-84568952D01*
X140573380Y-84283238D02*
X139573380Y-84283238D01*
X139716238Y-84378476D01*
X139811476Y-84473714D01*
X139859095Y-84568952D01*
X139573380Y-83140380D02*
X139573380Y-83330857D01*
X139621000Y-83426095D01*
X139668619Y-83473714D01*
X139811476Y-83568952D01*
X140001952Y-83616571D01*
X140382904Y-83616571D01*
X140478142Y-83568952D01*
X140525761Y-83521333D01*
X140573380Y-83426095D01*
X140573380Y-83235619D01*
X140525761Y-83140380D01*
X140478142Y-83092761D01*
X140382904Y-83045142D01*
X140144809Y-83045142D01*
X140049571Y-83092761D01*
X140001952Y-83140380D01*
X139954333Y-83235619D01*
X139954333Y-83426095D01*
X140001952Y-83521333D01*
X140049571Y-83568952D01*
X140144809Y-83616571D01*
X156148333Y-114712380D02*
X155815000Y-114236190D01*
X155576904Y-114712380D02*
X155576904Y-113712380D01*
X155957857Y-113712380D01*
X156053095Y-113760000D01*
X156100714Y-113807619D01*
X156148333Y-113902857D01*
X156148333Y-114045714D01*
X156100714Y-114140952D01*
X156053095Y-114188571D01*
X155957857Y-114236190D01*
X155576904Y-114236190D01*
X157005476Y-114045714D02*
X157005476Y-114712380D01*
X156767380Y-113664761D02*
X156529285Y-114379047D01*
X157148333Y-114379047D01*
X170724761Y-111688333D02*
X170772380Y-111545476D01*
X170772380Y-111307380D01*
X170724761Y-111212142D01*
X170677142Y-111164523D01*
X170581904Y-111116904D01*
X170486666Y-111116904D01*
X170391428Y-111164523D01*
X170343809Y-111212142D01*
X170296190Y-111307380D01*
X170248571Y-111497857D01*
X170200952Y-111593095D01*
X170153333Y-111640714D01*
X170058095Y-111688333D01*
X169962857Y-111688333D01*
X169867619Y-111640714D01*
X169820000Y-111593095D01*
X169772380Y-111497857D01*
X169772380Y-111259761D01*
X169820000Y-111116904D01*
X169772380Y-110783571D02*
X170772380Y-110545476D01*
X170058095Y-110355000D01*
X170772380Y-110164523D01*
X169772380Y-109926428D01*
X170772380Y-109021666D02*
X170772380Y-109593095D01*
X170772380Y-109307380D02*
X169772380Y-109307380D01*
X169915238Y-109402619D01*
X170010476Y-109497857D01*
X170058095Y-109593095D01*
X139573380Y-97141904D02*
X140382904Y-97141904D01*
X140478142Y-97094285D01*
X140525761Y-97046666D01*
X140573380Y-96951428D01*
X140573380Y-96760952D01*
X140525761Y-96665714D01*
X140478142Y-96618095D01*
X140382904Y-96570476D01*
X139573380Y-96570476D01*
X139573380Y-96189523D02*
X139573380Y-95570476D01*
X139954333Y-95903809D01*
X139954333Y-95760952D01*
X140001952Y-95665714D01*
X140049571Y-95618095D01*
X140144809Y-95570476D01*
X140382904Y-95570476D01*
X140478142Y-95618095D01*
X140525761Y-95665714D01*
X140573380Y-95760952D01*
X140573380Y-96046666D01*
X140525761Y-96141904D01*
X140478142Y-96189523D01*
X175068809Y-107906190D02*
X175068809Y-108382380D01*
X174735476Y-107382380D02*
X175068809Y-107906190D01*
X175402142Y-107382380D01*
X176259285Y-108382380D02*
X175687857Y-108382380D01*
X175973571Y-108382380D02*
X175973571Y-107382380D01*
X175878333Y-107525238D01*
X175783095Y-107620476D01*
X175687857Y-107668095D01*
M02*
