%FSLAX45Y45*%
G04 Gerber Fmt 4.5, Leading zero omitted, Abs format (unit mm)*
G04 Created by KiCad (PCBNEW (5.1.6)-1) date 2021-09-02 16:18:52*
%MOMM*%
%LPD*%
G01*
G04 APERTURE LIST*
%TA.AperFunction,Profile*%
%ADD10C,0.300000*%
%TD*%
%ADD11C,0.200000*%
%ADD12C,0.300000*%
G04 APERTURE END LIST*
D10*
X11659108Y-10307066D02*
X16923512Y-10307066D01*
X11659108Y-8858758D02*
X11659108Y-10307066D01*
X10284206Y-8858758D02*
X11659108Y-8858758D01*
X10284206Y-4984496D02*
X10284206Y-8858758D01*
X18371312Y-4984496D02*
X10284206Y-4984496D01*
X18371312Y-7035292D02*
X18371312Y-4984496D01*
X16923512Y-7035292D02*
X18371312Y-7035292D01*
X16923512Y-10307066D02*
X16923512Y-7035292D01*
D11*
X11964104Y-5819286D02*
X12064104Y-5919286D01*
X12064104Y-5819286D02*
X11964104Y-5919286D01*
X11974104Y-5869286D02*
X11974104Y-5869286D01*
X12054104Y-5869286D02*
X12054104Y-5869286D01*
X11974104Y-5869286D02*
G75*
G03*
X12054104Y-5869286I40000J0D01*
G01*
X12054104Y-5869286D02*
G75*
G03*
X11974104Y-5869286I-40000J0D01*
G01*
X11964104Y-6327286D02*
X12064104Y-6427286D01*
X12064104Y-6327286D02*
X11964104Y-6427286D01*
X11974104Y-6377286D02*
X11974104Y-6377286D01*
X12054104Y-6377286D02*
X12054104Y-6377286D01*
X11974104Y-6377286D02*
G75*
G03*
X12054104Y-6377286I40000J0D01*
G01*
X12054104Y-6377286D02*
G75*
G03*
X11974104Y-6377286I-40000J0D01*
G01*
X11964104Y-7089286D02*
X12064104Y-7189286D01*
X12064104Y-7089286D02*
X11964104Y-7189286D01*
X11974104Y-7139286D02*
X11974104Y-7139286D01*
X12054104Y-7139286D02*
X12054104Y-7139286D01*
X11974104Y-7139286D02*
G75*
G03*
X12054104Y-7139286I40000J0D01*
G01*
X12054104Y-7139286D02*
G75*
G03*
X11974104Y-7139286I-40000J0D01*
G01*
X11964104Y-7597286D02*
X12064104Y-7697286D01*
X12064104Y-7597286D02*
X11964104Y-7697286D01*
X11974104Y-7647286D02*
X11974104Y-7647286D01*
X12054104Y-7647286D02*
X12054104Y-7647286D01*
X11974104Y-7647286D02*
G75*
G03*
X12054104Y-7647286I40000J0D01*
G01*
X12054104Y-7647286D02*
G75*
G03*
X11974104Y-7647286I-40000J0D01*
G01*
X11964104Y-8359286D02*
X12064104Y-8459286D01*
X12064104Y-8359286D02*
X11964104Y-8459286D01*
X11974104Y-8409286D02*
X11974104Y-8409286D01*
X12054104Y-8409286D02*
X12054104Y-8409286D01*
X11974104Y-8409286D02*
G75*
G03*
X12054104Y-8409286I40000J0D01*
G01*
X12054104Y-8409286D02*
G75*
G03*
X11974104Y-8409286I-40000J0D01*
G01*
X16536104Y-6327286D02*
X16636104Y-6427286D01*
X16636104Y-6327286D02*
X16536104Y-6427286D01*
X16546104Y-6377286D02*
X16546104Y-6377286D01*
X16626104Y-6377286D02*
X16626104Y-6377286D01*
X16546104Y-6377286D02*
G75*
G03*
X16626104Y-6377286I40000J0D01*
G01*
X16626104Y-6377286D02*
G75*
G03*
X16546104Y-6377286I-40000J0D01*
G01*
X16536104Y-7343286D02*
X16636104Y-7443286D01*
X16636104Y-7343286D02*
X16536104Y-7443286D01*
X16546104Y-7393286D02*
X16546104Y-7393286D01*
X16626104Y-7393286D02*
X16626104Y-7393286D01*
X16546104Y-7393286D02*
G75*
G03*
X16626104Y-7393286I40000J0D01*
G01*
X16626104Y-7393286D02*
G75*
G03*
X16546104Y-7393286I-40000J0D01*
G01*
X16536104Y-7851286D02*
X16636104Y-7951286D01*
X16636104Y-7851286D02*
X16536104Y-7951286D01*
X16546104Y-7901286D02*
X16546104Y-7901286D01*
X16626104Y-7901286D02*
X16626104Y-7901286D01*
X16546104Y-7901286D02*
G75*
G03*
X16626104Y-7901286I40000J0D01*
G01*
X16626104Y-7901286D02*
G75*
G03*
X16546104Y-7901286I-40000J0D01*
G01*
X11466726Y-5512308D02*
G75*
G03*
X11466726Y-5512308I-70000J0D01*
G01*
X11466726Y-6020308D02*
G75*
G03*
X11466726Y-6020308I-70000J0D01*
G01*
X11466726Y-6528308D02*
G75*
G03*
X11466726Y-6528308I-70000J0D01*
G01*
X17268594Y-5504434D02*
G75*
G03*
X17268594Y-5504434I-70000J0D01*
G01*
X17268594Y-6012434D02*
G75*
G03*
X17268594Y-6012434I-70000J0D01*
G01*
X17268594Y-6520434D02*
G75*
G03*
X17268594Y-6520434I-70000J0D01*
G01*
X11451740Y-7811262D02*
G75*
G03*
X11451740Y-7811262I-70000J0D01*
G01*
X11451740Y-8319262D02*
G75*
G03*
X11451740Y-8319262I-70000J0D01*
G01*
D12*
X10555634Y-10787780D02*
X10555634Y-10487780D01*
X10627063Y-10487780D01*
X10669920Y-10502066D01*
X10698492Y-10530638D01*
X10712777Y-10559209D01*
X10727063Y-10616352D01*
X10727063Y-10659209D01*
X10712777Y-10716352D01*
X10698492Y-10744923D01*
X10669920Y-10773495D01*
X10627063Y-10787780D01*
X10555634Y-10787780D01*
X10855634Y-10787780D02*
X10855634Y-10587780D01*
X10855634Y-10644923D02*
X10869920Y-10616352D01*
X10884206Y-10602066D01*
X10912777Y-10587780D01*
X10941349Y-10587780D01*
X11041349Y-10787780D02*
X11041349Y-10587780D01*
X11041349Y-10487780D02*
X11027063Y-10502066D01*
X11041349Y-10516352D01*
X11055634Y-10502066D01*
X11041349Y-10487780D01*
X11041349Y-10516352D01*
X11227063Y-10787780D02*
X11198492Y-10773495D01*
X11184206Y-10744923D01*
X11184206Y-10487780D01*
X11384206Y-10787780D02*
X11355634Y-10773495D01*
X11341349Y-10744923D01*
X11341349Y-10487780D01*
X11727063Y-10787780D02*
X11727063Y-10487780D01*
X11827063Y-10702066D01*
X11927063Y-10487780D01*
X11927063Y-10787780D01*
X12198492Y-10787780D02*
X12198492Y-10630638D01*
X12184206Y-10602066D01*
X12155634Y-10587780D01*
X12098492Y-10587780D01*
X12069920Y-10602066D01*
X12198492Y-10773495D02*
X12169920Y-10787780D01*
X12098492Y-10787780D01*
X12069920Y-10773495D01*
X12055634Y-10744923D01*
X12055634Y-10716352D01*
X12069920Y-10687780D01*
X12098492Y-10673495D01*
X12169920Y-10673495D01*
X12198492Y-10659209D01*
X12341349Y-10587780D02*
X12341349Y-10887780D01*
X12341349Y-10602066D02*
X12369920Y-10587780D01*
X12427063Y-10587780D01*
X12455634Y-10602066D01*
X12469920Y-10616352D01*
X12484206Y-10644923D01*
X12484206Y-10730638D01*
X12469920Y-10759209D01*
X12455634Y-10773495D01*
X12427063Y-10787780D01*
X12369920Y-10787780D01*
X12341349Y-10773495D01*
X12612777Y-10759209D02*
X12627063Y-10773495D01*
X12612777Y-10787780D01*
X12598492Y-10773495D01*
X12612777Y-10759209D01*
X12612777Y-10787780D01*
X12612777Y-10602066D02*
X12627063Y-10616352D01*
X12612777Y-10630638D01*
X12598492Y-10616352D01*
X12612777Y-10602066D01*
X12612777Y-10630638D01*
X10169206Y-11232066D02*
X10269206Y-11332066D01*
X10269206Y-11232066D02*
X10169206Y-11332066D01*
X10712777Y-11417780D02*
X10541349Y-11417780D01*
X10627063Y-11417780D02*
X10627063Y-11117780D01*
X10598492Y-11160638D01*
X10569920Y-11189209D01*
X10541349Y-11203495D01*
X10841349Y-11389209D02*
X10855634Y-11403495D01*
X10841349Y-11417780D01*
X10827063Y-11403495D01*
X10841349Y-11389209D01*
X10841349Y-11417780D01*
X11041349Y-11117780D02*
X11069920Y-11117780D01*
X11098492Y-11132066D01*
X11112777Y-11146352D01*
X11127063Y-11174923D01*
X11141349Y-11232066D01*
X11141349Y-11303495D01*
X11127063Y-11360637D01*
X11112777Y-11389209D01*
X11098492Y-11403495D01*
X11069920Y-11417780D01*
X11041349Y-11417780D01*
X11012777Y-11403495D01*
X10998492Y-11389209D01*
X10984206Y-11360637D01*
X10969920Y-11303495D01*
X10969920Y-11232066D01*
X10984206Y-11174923D01*
X10998492Y-11146352D01*
X11012777Y-11132066D01*
X11041349Y-11117780D01*
X11327063Y-11117780D02*
X11355634Y-11117780D01*
X11384206Y-11132066D01*
X11398492Y-11146352D01*
X11412777Y-11174923D01*
X11427063Y-11232066D01*
X11427063Y-11303495D01*
X11412777Y-11360637D01*
X11398492Y-11389209D01*
X11384206Y-11403495D01*
X11355634Y-11417780D01*
X11327063Y-11417780D01*
X11298492Y-11403495D01*
X11284206Y-11389209D01*
X11269920Y-11360637D01*
X11255634Y-11303495D01*
X11255634Y-11232066D01*
X11269920Y-11174923D01*
X11284206Y-11146352D01*
X11298492Y-11132066D01*
X11327063Y-11117780D01*
X11555634Y-11417780D02*
X11555634Y-11217780D01*
X11555634Y-11246352D02*
X11569920Y-11232066D01*
X11598492Y-11217780D01*
X11641349Y-11217780D01*
X11669920Y-11232066D01*
X11684206Y-11260637D01*
X11684206Y-11417780D01*
X11684206Y-11260637D02*
X11698492Y-11232066D01*
X11727063Y-11217780D01*
X11769920Y-11217780D01*
X11798492Y-11232066D01*
X11812777Y-11260637D01*
X11812777Y-11417780D01*
X11955634Y-11417780D02*
X11955634Y-11217780D01*
X11955634Y-11246352D02*
X11969920Y-11232066D01*
X11998492Y-11217780D01*
X12041349Y-11217780D01*
X12069920Y-11232066D01*
X12084206Y-11260637D01*
X12084206Y-11417780D01*
X12084206Y-11260637D02*
X12098492Y-11232066D01*
X12127063Y-11217780D01*
X12169920Y-11217780D01*
X12198492Y-11232066D01*
X12212777Y-11260637D01*
X12212777Y-11417780D01*
X12798492Y-11103495D02*
X12541349Y-11489209D01*
X13184206Y-11117780D02*
X13212777Y-11117780D01*
X13241349Y-11132066D01*
X13255634Y-11146352D01*
X13269920Y-11174923D01*
X13284206Y-11232066D01*
X13284206Y-11303495D01*
X13269920Y-11360637D01*
X13255634Y-11389209D01*
X13241349Y-11403495D01*
X13212777Y-11417780D01*
X13184206Y-11417780D01*
X13155634Y-11403495D01*
X13141349Y-11389209D01*
X13127063Y-11360637D01*
X13112777Y-11303495D01*
X13112777Y-11232066D01*
X13127063Y-11174923D01*
X13141349Y-11146352D01*
X13155634Y-11132066D01*
X13184206Y-11117780D01*
X13412777Y-11389209D02*
X13427063Y-11403495D01*
X13412777Y-11417780D01*
X13398492Y-11403495D01*
X13412777Y-11389209D01*
X13412777Y-11417780D01*
X13612777Y-11117780D02*
X13641349Y-11117780D01*
X13669920Y-11132066D01*
X13684206Y-11146352D01*
X13698492Y-11174923D01*
X13712777Y-11232066D01*
X13712777Y-11303495D01*
X13698492Y-11360637D01*
X13684206Y-11389209D01*
X13669920Y-11403495D01*
X13641349Y-11417780D01*
X13612777Y-11417780D01*
X13584206Y-11403495D01*
X13569920Y-11389209D01*
X13555634Y-11360637D01*
X13541349Y-11303495D01*
X13541349Y-11232066D01*
X13555634Y-11174923D01*
X13569920Y-11146352D01*
X13584206Y-11132066D01*
X13612777Y-11117780D01*
X13812777Y-11117780D02*
X13998492Y-11117780D01*
X13898492Y-11232066D01*
X13941349Y-11232066D01*
X13969920Y-11246352D01*
X13984206Y-11260637D01*
X13998492Y-11289209D01*
X13998492Y-11360637D01*
X13984206Y-11389209D01*
X13969920Y-11403495D01*
X13941349Y-11417780D01*
X13855634Y-11417780D01*
X13827063Y-11403495D01*
X13812777Y-11389209D01*
X14141349Y-11417780D02*
X14198492Y-11417780D01*
X14227063Y-11403495D01*
X14241349Y-11389209D01*
X14269920Y-11346352D01*
X14284206Y-11289209D01*
X14284206Y-11174923D01*
X14269920Y-11146352D01*
X14255634Y-11132066D01*
X14227063Y-11117780D01*
X14169920Y-11117780D01*
X14141349Y-11132066D01*
X14127063Y-11146352D01*
X14112777Y-11174923D01*
X14112777Y-11246352D01*
X14127063Y-11274923D01*
X14141349Y-11289209D01*
X14169920Y-11303495D01*
X14227063Y-11303495D01*
X14255634Y-11289209D01*
X14269920Y-11274923D01*
X14284206Y-11246352D01*
X14398492Y-11117780D02*
X14398492Y-11174923D01*
X14512777Y-11117780D02*
X14512777Y-11174923D01*
X14955634Y-11532066D02*
X14941349Y-11517780D01*
X14912777Y-11474923D01*
X14898492Y-11446352D01*
X14884206Y-11403495D01*
X14869920Y-11332066D01*
X14869920Y-11274923D01*
X14884206Y-11203495D01*
X14898492Y-11160638D01*
X14912777Y-11132066D01*
X14941349Y-11089209D01*
X14955634Y-11074923D01*
X15127063Y-11117780D02*
X15155634Y-11117780D01*
X15184206Y-11132066D01*
X15198492Y-11146352D01*
X15212777Y-11174923D01*
X15227063Y-11232066D01*
X15227063Y-11303495D01*
X15212777Y-11360637D01*
X15198492Y-11389209D01*
X15184206Y-11403495D01*
X15155634Y-11417780D01*
X15127063Y-11417780D01*
X15098492Y-11403495D01*
X15084206Y-11389209D01*
X15069920Y-11360637D01*
X15055634Y-11303495D01*
X15055634Y-11232066D01*
X15069920Y-11174923D01*
X15084206Y-11146352D01*
X15098492Y-11132066D01*
X15127063Y-11117780D01*
X15584206Y-11417780D02*
X15584206Y-11117780D01*
X15712777Y-11417780D02*
X15712777Y-11260637D01*
X15698492Y-11232066D01*
X15669920Y-11217780D01*
X15627063Y-11217780D01*
X15598492Y-11232066D01*
X15584206Y-11246352D01*
X15898492Y-11417780D02*
X15869920Y-11403495D01*
X15855634Y-11389209D01*
X15841349Y-11360637D01*
X15841349Y-11274923D01*
X15855634Y-11246352D01*
X15869920Y-11232066D01*
X15898492Y-11217780D01*
X15941349Y-11217780D01*
X15969920Y-11232066D01*
X15984206Y-11246352D01*
X15998492Y-11274923D01*
X15998492Y-11360637D01*
X15984206Y-11389209D01*
X15969920Y-11403495D01*
X15941349Y-11417780D01*
X15898492Y-11417780D01*
X16169920Y-11417780D02*
X16141349Y-11403495D01*
X16127063Y-11374923D01*
X16127063Y-11117780D01*
X16398492Y-11403495D02*
X16369920Y-11417780D01*
X16312777Y-11417780D01*
X16284206Y-11403495D01*
X16269920Y-11374923D01*
X16269920Y-11260637D01*
X16284206Y-11232066D01*
X16312777Y-11217780D01*
X16369920Y-11217780D01*
X16398492Y-11232066D01*
X16412777Y-11260637D01*
X16412777Y-11289209D01*
X16269920Y-11317780D01*
X16527063Y-11403495D02*
X16555634Y-11417780D01*
X16612777Y-11417780D01*
X16641349Y-11403495D01*
X16655634Y-11374923D01*
X16655634Y-11360637D01*
X16641349Y-11332066D01*
X16612777Y-11317780D01*
X16569920Y-11317780D01*
X16541349Y-11303495D01*
X16527063Y-11274923D01*
X16527063Y-11260637D01*
X16541349Y-11232066D01*
X16569920Y-11217780D01*
X16612777Y-11217780D01*
X16641349Y-11232066D01*
X17012777Y-11303495D02*
X17241349Y-11303495D01*
X17127063Y-11417780D02*
X17127063Y-11189209D01*
X17655634Y-11246352D02*
X17627063Y-11232066D01*
X17612777Y-11217780D01*
X17598492Y-11189209D01*
X17598492Y-11174923D01*
X17612777Y-11146352D01*
X17627063Y-11132066D01*
X17655634Y-11117780D01*
X17712777Y-11117780D01*
X17741349Y-11132066D01*
X17755634Y-11146352D01*
X17769920Y-11174923D01*
X17769920Y-11189209D01*
X17755634Y-11217780D01*
X17741349Y-11232066D01*
X17712777Y-11246352D01*
X17655634Y-11246352D01*
X17627063Y-11260637D01*
X17612777Y-11274923D01*
X17598492Y-11303495D01*
X17598492Y-11360637D01*
X17612777Y-11389209D01*
X17627063Y-11403495D01*
X17655634Y-11417780D01*
X17712777Y-11417780D01*
X17741349Y-11403495D01*
X17755634Y-11389209D01*
X17769920Y-11360637D01*
X17769920Y-11303495D01*
X17755634Y-11274923D01*
X17741349Y-11260637D01*
X17712777Y-11246352D01*
X18112777Y-11403495D02*
X18141349Y-11417780D01*
X18198492Y-11417780D01*
X18227063Y-11403495D01*
X18241349Y-11374923D01*
X18241349Y-11360637D01*
X18227063Y-11332066D01*
X18198492Y-11317780D01*
X18155634Y-11317780D01*
X18127063Y-11303495D01*
X18112777Y-11274923D01*
X18112777Y-11260637D01*
X18127063Y-11232066D01*
X18155634Y-11217780D01*
X18198492Y-11217780D01*
X18227063Y-11232066D01*
X18412777Y-11417780D02*
X18384206Y-11403495D01*
X18369920Y-11374923D01*
X18369920Y-11117780D01*
X18569920Y-11417780D02*
X18541349Y-11403495D01*
X18527063Y-11389209D01*
X18512777Y-11360637D01*
X18512777Y-11274923D01*
X18527063Y-11246352D01*
X18541349Y-11232066D01*
X18569920Y-11217780D01*
X18612777Y-11217780D01*
X18641349Y-11232066D01*
X18655634Y-11246352D01*
X18669920Y-11274923D01*
X18669920Y-11360637D01*
X18655634Y-11389209D01*
X18641349Y-11403495D01*
X18612777Y-11417780D01*
X18569920Y-11417780D01*
X18755634Y-11217780D02*
X18869920Y-11217780D01*
X18798492Y-11117780D02*
X18798492Y-11374923D01*
X18812777Y-11403495D01*
X18841349Y-11417780D01*
X18869920Y-11417780D01*
X18955634Y-11403495D02*
X18984206Y-11417780D01*
X19041349Y-11417780D01*
X19069920Y-11403495D01*
X19084206Y-11374923D01*
X19084206Y-11360637D01*
X19069920Y-11332066D01*
X19041349Y-11317780D01*
X18998492Y-11317780D01*
X18969920Y-11303495D01*
X18955634Y-11274923D01*
X18955634Y-11260637D01*
X18969920Y-11232066D01*
X18998492Y-11217780D01*
X19041349Y-11217780D01*
X19069920Y-11232066D01*
X19184206Y-11532066D02*
X19198492Y-11517780D01*
X19227063Y-11474923D01*
X19241349Y-11446352D01*
X19255634Y-11403495D01*
X19269920Y-11332066D01*
X19269920Y-11274923D01*
X19255634Y-11203495D01*
X19241349Y-11160638D01*
X19227063Y-11132066D01*
X19198492Y-11089209D01*
X19184206Y-11074923D01*
X10269206Y-11678066D02*
G75*
G03*
X10269206Y-11678066I-70000J0D01*
G01*
X10712777Y-11813780D02*
X10541349Y-11813780D01*
X10627063Y-11813780D02*
X10627063Y-11513780D01*
X10598492Y-11556637D01*
X10569920Y-11585209D01*
X10541349Y-11599495D01*
X10841349Y-11785209D02*
X10855634Y-11799495D01*
X10841349Y-11813780D01*
X10827063Y-11799495D01*
X10841349Y-11785209D01*
X10841349Y-11813780D01*
X11112777Y-11613780D02*
X11112777Y-11813780D01*
X11041349Y-11499495D02*
X10969920Y-11713780D01*
X11155634Y-11713780D01*
X11327063Y-11513780D02*
X11355634Y-11513780D01*
X11384206Y-11528066D01*
X11398492Y-11542352D01*
X11412777Y-11570923D01*
X11427063Y-11628066D01*
X11427063Y-11699495D01*
X11412777Y-11756637D01*
X11398492Y-11785209D01*
X11384206Y-11799495D01*
X11355634Y-11813780D01*
X11327063Y-11813780D01*
X11298492Y-11799495D01*
X11284206Y-11785209D01*
X11269920Y-11756637D01*
X11255634Y-11699495D01*
X11255634Y-11628066D01*
X11269920Y-11570923D01*
X11284206Y-11542352D01*
X11298492Y-11528066D01*
X11327063Y-11513780D01*
X11555634Y-11813780D02*
X11555634Y-11613780D01*
X11555634Y-11642352D02*
X11569920Y-11628066D01*
X11598492Y-11613780D01*
X11641349Y-11613780D01*
X11669920Y-11628066D01*
X11684206Y-11656637D01*
X11684206Y-11813780D01*
X11684206Y-11656637D02*
X11698492Y-11628066D01*
X11727063Y-11613780D01*
X11769920Y-11613780D01*
X11798492Y-11628066D01*
X11812777Y-11656637D01*
X11812777Y-11813780D01*
X11955634Y-11813780D02*
X11955634Y-11613780D01*
X11955634Y-11642352D02*
X11969920Y-11628066D01*
X11998492Y-11613780D01*
X12041349Y-11613780D01*
X12069920Y-11628066D01*
X12084206Y-11656637D01*
X12084206Y-11813780D01*
X12084206Y-11656637D02*
X12098492Y-11628066D01*
X12127063Y-11613780D01*
X12169920Y-11613780D01*
X12198492Y-11628066D01*
X12212777Y-11656637D01*
X12212777Y-11813780D01*
X12798492Y-11499495D02*
X12541349Y-11885209D01*
X13184206Y-11513780D02*
X13212777Y-11513780D01*
X13241349Y-11528066D01*
X13255634Y-11542352D01*
X13269920Y-11570923D01*
X13284206Y-11628066D01*
X13284206Y-11699495D01*
X13269920Y-11756637D01*
X13255634Y-11785209D01*
X13241349Y-11799495D01*
X13212777Y-11813780D01*
X13184206Y-11813780D01*
X13155634Y-11799495D01*
X13141349Y-11785209D01*
X13127063Y-11756637D01*
X13112777Y-11699495D01*
X13112777Y-11628066D01*
X13127063Y-11570923D01*
X13141349Y-11542352D01*
X13155634Y-11528066D01*
X13184206Y-11513780D01*
X13412777Y-11785209D02*
X13427063Y-11799495D01*
X13412777Y-11813780D01*
X13398492Y-11799495D01*
X13412777Y-11785209D01*
X13412777Y-11813780D01*
X13612777Y-11513780D02*
X13641349Y-11513780D01*
X13669920Y-11528066D01*
X13684206Y-11542352D01*
X13698492Y-11570923D01*
X13712777Y-11628066D01*
X13712777Y-11699495D01*
X13698492Y-11756637D01*
X13684206Y-11785209D01*
X13669920Y-11799495D01*
X13641349Y-11813780D01*
X13612777Y-11813780D01*
X13584206Y-11799495D01*
X13569920Y-11785209D01*
X13555634Y-11756637D01*
X13541349Y-11699495D01*
X13541349Y-11628066D01*
X13555634Y-11570923D01*
X13569920Y-11542352D01*
X13584206Y-11528066D01*
X13612777Y-11513780D01*
X13984206Y-11513780D02*
X13841349Y-11513780D01*
X13827063Y-11656637D01*
X13841349Y-11642352D01*
X13869920Y-11628066D01*
X13941349Y-11628066D01*
X13969920Y-11642352D01*
X13984206Y-11656637D01*
X13998492Y-11685209D01*
X13998492Y-11756637D01*
X13984206Y-11785209D01*
X13969920Y-11799495D01*
X13941349Y-11813780D01*
X13869920Y-11813780D01*
X13841349Y-11799495D01*
X13827063Y-11785209D01*
X14269920Y-11513780D02*
X14127063Y-11513780D01*
X14112777Y-11656637D01*
X14127063Y-11642352D01*
X14155634Y-11628066D01*
X14227063Y-11628066D01*
X14255634Y-11642352D01*
X14269920Y-11656637D01*
X14284206Y-11685209D01*
X14284206Y-11756637D01*
X14269920Y-11785209D01*
X14255634Y-11799495D01*
X14227063Y-11813780D01*
X14155634Y-11813780D01*
X14127063Y-11799495D01*
X14112777Y-11785209D01*
X14398492Y-11513780D02*
X14398492Y-11570923D01*
X14512777Y-11513780D02*
X14512777Y-11570923D01*
X14955634Y-11928066D02*
X14941349Y-11913780D01*
X14912777Y-11870923D01*
X14898492Y-11842352D01*
X14884206Y-11799495D01*
X14869920Y-11728066D01*
X14869920Y-11670923D01*
X14884206Y-11599495D01*
X14898492Y-11556637D01*
X14912777Y-11528066D01*
X14941349Y-11485209D01*
X14955634Y-11470923D01*
X15112777Y-11642352D02*
X15084206Y-11628066D01*
X15069920Y-11613780D01*
X15055634Y-11585209D01*
X15055634Y-11570923D01*
X15069920Y-11542352D01*
X15084206Y-11528066D01*
X15112777Y-11513780D01*
X15169920Y-11513780D01*
X15198492Y-11528066D01*
X15212777Y-11542352D01*
X15227063Y-11570923D01*
X15227063Y-11585209D01*
X15212777Y-11613780D01*
X15198492Y-11628066D01*
X15169920Y-11642352D01*
X15112777Y-11642352D01*
X15084206Y-11656637D01*
X15069920Y-11670923D01*
X15055634Y-11699495D01*
X15055634Y-11756637D01*
X15069920Y-11785209D01*
X15084206Y-11799495D01*
X15112777Y-11813780D01*
X15169920Y-11813780D01*
X15198492Y-11799495D01*
X15212777Y-11785209D01*
X15227063Y-11756637D01*
X15227063Y-11699495D01*
X15212777Y-11670923D01*
X15198492Y-11656637D01*
X15169920Y-11642352D01*
X15584206Y-11813780D02*
X15584206Y-11513780D01*
X15712777Y-11813780D02*
X15712777Y-11656637D01*
X15698492Y-11628066D01*
X15669920Y-11613780D01*
X15627063Y-11613780D01*
X15598492Y-11628066D01*
X15584206Y-11642352D01*
X15898492Y-11813780D02*
X15869920Y-11799495D01*
X15855634Y-11785209D01*
X15841349Y-11756637D01*
X15841349Y-11670923D01*
X15855634Y-11642352D01*
X15869920Y-11628066D01*
X15898492Y-11613780D01*
X15941349Y-11613780D01*
X15969920Y-11628066D01*
X15984206Y-11642352D01*
X15998492Y-11670923D01*
X15998492Y-11756637D01*
X15984206Y-11785209D01*
X15969920Y-11799495D01*
X15941349Y-11813780D01*
X15898492Y-11813780D01*
X16169920Y-11813780D02*
X16141349Y-11799495D01*
X16127063Y-11770923D01*
X16127063Y-11513780D01*
X16398492Y-11799495D02*
X16369920Y-11813780D01*
X16312777Y-11813780D01*
X16284206Y-11799495D01*
X16269920Y-11770923D01*
X16269920Y-11656637D01*
X16284206Y-11628066D01*
X16312777Y-11613780D01*
X16369920Y-11613780D01*
X16398492Y-11628066D01*
X16412777Y-11656637D01*
X16412777Y-11685209D01*
X16269920Y-11713780D01*
X16527063Y-11799495D02*
X16555634Y-11813780D01*
X16612777Y-11813780D01*
X16641349Y-11799495D01*
X16655634Y-11770923D01*
X16655634Y-11756637D01*
X16641349Y-11728066D01*
X16612777Y-11713780D01*
X16569920Y-11713780D01*
X16541349Y-11699495D01*
X16527063Y-11670923D01*
X16527063Y-11656637D01*
X16541349Y-11628066D01*
X16569920Y-11613780D01*
X16612777Y-11613780D01*
X16641349Y-11628066D01*
X16755634Y-11928066D02*
X16769920Y-11913780D01*
X16798492Y-11870923D01*
X16812777Y-11842352D01*
X16827063Y-11799495D01*
X16841349Y-11728066D01*
X16841349Y-11670923D01*
X16827063Y-11599495D01*
X16812777Y-11556637D01*
X16798492Y-11528066D01*
X16769920Y-11485209D01*
X16755634Y-11470923D01*
M02*
