%TF.GenerationSoftware,KiCad,Pcbnew,(5.1.6)-1*%
%TF.CreationDate,2021-04-21T16:58:09+02:00*%
%TF.ProjectId,_7SEG_CONTROL,5f375345-475f-4434-9f4e-54524f4c2e6b,rev?*%
%TF.SameCoordinates,Original*%
%TF.FileFunction,Legend,Bot*%
%TF.FilePolarity,Positive*%
%FSLAX46Y46*%
G04 Gerber Fmt 4.6, Leading zero omitted, Abs format (unit mm)*
G04 Created by KiCad (PCBNEW (5.1.6)-1) date 2021-04-21 16:58:09*
%MOMM*%
%LPD*%
G01*
G04 APERTURE LIST*
%ADD10C,0.120000*%
%ADD11C,0.150000*%
G04 APERTURE END LIST*
D10*
%TO.C,U4*%
X100910000Y-71636000D02*
X100910000Y-87876000D01*
X100910000Y-87876000D02*
X108530000Y-87876000D01*
X124530000Y-87876000D02*
X125150000Y-87876000D01*
X125150000Y-87876000D02*
X125150000Y-85756000D01*
X125150000Y-73756000D02*
X125150000Y-71636000D01*
X125150000Y-71636000D02*
X124530000Y-71636000D01*
X108530000Y-71636000D02*
X100910000Y-71636000D01*
X108530000Y-71636000D02*
X108530000Y-71026000D01*
%TO.C,U2*%
X154926000Y-111094000D02*
X154926000Y-117104000D01*
X161746000Y-113344000D02*
X161746000Y-117104000D01*
X154926000Y-117104000D02*
X156186000Y-117104000D01*
X161746000Y-117104000D02*
X160486000Y-117104000D01*
%TO.C,U4*%
D11*
X107222380Y-68434095D02*
X108031904Y-68434095D01*
X108127142Y-68481714D01*
X108174761Y-68529333D01*
X108222380Y-68624571D01*
X108222380Y-68815047D01*
X108174761Y-68910285D01*
X108127142Y-68957904D01*
X108031904Y-69005523D01*
X107222380Y-69005523D01*
X107555714Y-69910285D02*
X108222380Y-69910285D01*
X107174761Y-69672190D02*
X107889047Y-69434095D01*
X107889047Y-70053142D01*
%TO.C,U2*%
X153288380Y-114432095D02*
X154097904Y-114432095D01*
X154193142Y-114479714D01*
X154240761Y-114527333D01*
X154288380Y-114622571D01*
X154288380Y-114813047D01*
X154240761Y-114908285D01*
X154193142Y-114955904D01*
X154097904Y-115003523D01*
X153288380Y-115003523D01*
X153383619Y-115432095D02*
X153336000Y-115479714D01*
X153288380Y-115574952D01*
X153288380Y-115813047D01*
X153336000Y-115908285D01*
X153383619Y-115955904D01*
X153478857Y-116003523D01*
X153574095Y-116003523D01*
X153716952Y-115955904D01*
X154288380Y-115384476D01*
X154288380Y-116003523D01*
%TD*%
M02*
