M48
; DRILL file {KiCad 9.0.2} date 2025-07-05T15:36:12+0300
; FORMAT={-:-/ absolute / metric / decimal}
; #@! TF.CreationDate,2025-07-05T15:36:12+03:00
; #@! TF.GenerationSoftware,Kicad,Pcbnew,9.0.2
; #@! TF.FileFunction,Plated,1,2,PTH
FMAT,2
METRIC
; #@! TA.AperFunction,Plated,PTH,ComponentDrill
T1C0.700
; #@! TA.AperFunction,Plated,PTH,ComponentDrill
T2C0.750
; #@! TA.AperFunction,Plated,PTH,ComponentDrill
T3C0.800
; #@! TA.AperFunction,Plated,PTH,ComponentDrill
T4C0.900
; #@! TA.AperFunction,Plated,PTH,ViaDrill
T5C1.000
; #@! TA.AperFunction,Plated,PTH,ComponentDrill
T6C1.000
; #@! TA.AperFunction,Plated,PTH,ComponentDrill
T7C1.020
; #@! TA.AperFunction,Plated,PTH,ComponentDrill
T8C1.100
; #@! TA.AperFunction,Plated,PTH,ComponentDrill
T9C1.200
; #@! TA.AperFunction,Plated,PTH,ComponentDrill
T10C1.320
%
G90
G05
T1
X84.5Y-84.635
X84.5Y-92.255
X136.58Y-57.94
X138.96Y-83.875
X144.2Y-57.94
X146.58Y-83.875
X152.05Y-50.275
X155.0Y-91.5
X155.0Y-99.12
X159.67Y-50.275
T2
X136.64Y-63.95
X137.91Y-62.69
X137.91Y-65.23
X139.0Y-89.385
X140.27Y-88.125
X140.27Y-90.665
T3
X76.0Y-91.5
X76.0Y-94.0
X76.267Y-82.0
X78.767Y-82.0
X157.39Y-83.72
X157.39Y-86.26
X157.39Y-88.8
X159.62Y-54.15
X159.62Y-56.69
X159.62Y-59.23
X165.01Y-83.72
X165.01Y-86.26
X165.01Y-88.8
X167.24Y-54.15
X167.24Y-56.69
X167.24Y-59.23
T4
X82.843Y-97.245
X85.382Y-97.245
T5
X73.1Y-66.1
X73.29Y-55.21
X81.7Y-55.21
X81.8Y-65.99
X123.87Y-75.52
X123.885Y-70.1
X129.03Y-68.32
X129.03Y-75.52
X141.23Y-65.39
X145.3Y-65.39
T6
X66.9Y-57.33
X66.9Y-59.87
X66.9Y-62.41
X66.9Y-64.95
X136.665Y-51.6
X136.665Y-54.14
X139.205Y-51.6
X139.205Y-54.14
X140.13Y-76.485
X140.13Y-79.025
X142.67Y-76.485
X142.67Y-79.025
T7
X92.427Y-49.355
X92.427Y-51.895
X92.427Y-54.435
X92.427Y-56.975
X92.427Y-59.515
X92.427Y-62.055
X92.427Y-64.595
X92.427Y-67.135
X92.427Y-69.675
X92.427Y-72.215
X92.427Y-74.755
X92.427Y-77.295
X92.427Y-79.835
X92.427Y-82.375
X92.427Y-84.915
X117.828Y-49.355
X117.828Y-51.895
X117.828Y-54.435
X117.828Y-56.975
X117.828Y-59.515
X117.828Y-62.055
X117.828Y-64.595
X117.828Y-67.135
X117.828Y-69.675
X117.828Y-72.215
X117.828Y-74.755
X117.828Y-77.295
X117.828Y-79.835
X117.828Y-82.375
X117.828Y-84.915
T8
X63.0Y-96.0
X65.54Y-96.0
X68.08Y-96.0
X76.805Y-47.49
X76.805Y-50.03
X76.805Y-52.57
X76.815Y-58.16
X76.815Y-60.7
X76.815Y-63.24
X76.915Y-68.965
X76.915Y-71.505
X76.915Y-74.045
X148.395Y-56.035
X148.395Y-58.575
X148.395Y-61.115
X149.995Y-84.345
X149.995Y-86.885
X149.995Y-89.425
X172.135Y-83.605
X172.135Y-86.145
X172.135Y-88.685
X173.165Y-53.99
X173.165Y-56.53
X173.165Y-59.07
T9
X59.0Y-46.3
X59.0Y-71.7
T10
X63.0Y-81.0
X68.0Y-81.0
X184.84Y-83.985
X184.84Y-88.985
X185.02Y-54.01
X185.02Y-59.01
M30
