<?xml version="1.0" standalone="no"?>
 <!DOCTYPE svg PUBLIC "-//W3C//DTD SVG 1.1//EN" 
 "http://www.w3.org/Graphics/SVG/1.1/DTD/svg11.dtd"> 
<svg
  xmlns:svg="http://www.w3.org/2000/svg"
  xmlns="http://www.w3.org/2000/svg"
  xmlns:xlink="http://www.w3.org/1999/xlink"
  version="1.1"
  width="29.700220cm" height="21.000720cm" viewBox="0 0 116930 82680">
<title>SVG Picture created as PCB_shield-F_SilkS.svg date 2020/09/01 17:13:22 </title>
  <desc>Picture generated by PCBNEW </desc>
<g style="fill:#000000; fill-opacity:1;stroke:#000000; stroke-opacity:1;
stroke-linecap:round; stroke-linejoin:round;"
 transform="translate(0 0) scale(1 1)">
</g>
<g style="fill:#000000; fill-opacity:0.0; 
stroke:#000000; stroke-width:-0.000393701; stroke-opacity:1; 
stroke-linecap:round; stroke-linejoin:round;">
</g>
<g style="fill:#000000; fill-opacity:0.0; 
stroke:#000000; stroke-width:47.2441; stroke-opacity:1; 
stroke-linecap:round; stroke-linejoin:round;">
<path d="M63808 34463
L64808 33463
" />
<path d="M63808 38963
L63808 34463
" />
<path d="M63159 39612
L63808 38963
" />
<path d="M37706 39612
L63159 39612
" />
<path d="M37706 35861
L37706 39612
" />
<path d="M35206 35861
L37706 35861
" />
<path d="M35206 31262
L35206 35861
" />
<path d="M37706 31262
L35206 31262
" />
<path d="M37706 23361
L37706 31262
" />
<path d="M36958 23361
L37706 23361
" />
<path d="M36958 19762
L36958 23361
" />
<path d="M37706 19762
L36958 19762
" />
<path d="M37706 18510
L37706 19762
" />
<path d="M63808 18510
L37706 18510
" />
<path d="M63808 19561
L63808 18510
" />
<path d="M64808 20561
L63808 19561
" />
<path d="M64808 33463
L64808 20561
" />
<path d="M51192 25041
L50669 25041
" />
<path d="M51192 24517
L51192 25041
" />
<path d="M51192 24017
L50145 24017
" />
<path d="M50145 24017
L50145 20994
" />
<path d="M51192 24017
L51192 20994
" />
<path d="M51192 20994
L50145 20994
" />
<path d="M54842 34460
L54842 33413
" />
<path d="M51818 34460
L54842 34460
" />
<path d="M51818 33413
L54842 33413
" />
<path d="M51818 34460
L51818 33413
" />
<path d="M51318 34460
L50795 34460
" />
<path d="M50795 34460
L50795 33937
" />
<circle cx="45580.7" cy="21250" r="2401.57" /> 
<path d="M44870 36334.6 A1177.17 1177.17 0.0 0 0 44261.6 34149.6" />
<path d="M44262 34149.6 A1177.17 1177.17 0.0 0 0 43653.6 36334.6" />
<circle cx="44261.8" cy="35326.8" r="984.252" /> 
<path d="M43653 36334
L44870 36334
" />
<path d="M60940 42704
L60940 41488
" />
<circle cx="59933.1" cy="42096.5" r="984.252" /> 
<path d="M58755.9 42096.3 A1177.17 1177.17 0.0 0 0 60940.9 42704.7" />
<path d="M60940.9 41488.3 A1177.17 1177.17 0.0 0 0 58755.9 42096.6" />
<path d="M52791.3 41448.9 A1177.17 1177.17 0.0 0 0 50606.3 42057.3" />
<path d="M50606.3 42056.9 A1177.17 1177.17 0.0 0 0 52791.3 42665.3" />
<circle cx="51783.5" cy="42057.1" r="984.252" /> 
<path d="M52791 42665
L52791 41448
" />
<path d="M56807 42724
L56807 41507
" />
<circle cx="55799.2" cy="42116.1" r="984.252" /> 
<path d="M54622 42116 A1177.17 1177.17 0.0 0 0 56807.1 42724.3" />
<path d="M56807.1 41507.9 A1177.17 1177.17 0.0 0 0 54622 42116.3" />
<path d="M42894 33935
L42894 34171
" />
<path d="M42658 34053
L42894 33935
" />
<path d="M42894 34171
L42658 34053
" />
<path d="M38359 37758
L37768 37659
" />
<path d="M38359 38348
L38359 37758
" />
<path d="M37768 38447
L38359 38348
" />
<path d="M37768 37659
L37768 38447
" />
<path d="M38359 35758
L37768 35659
" />
<path d="M38359 36348
L38359 35758
" />
<path d="M37768 36447
L38359 36348
" />
<path d="M37768 35659
L37768 36447
" />
<path d="M38359 33758
L37768 33659
" />
<path d="M38359 34348
L38359 33758
" />
<path d="M37768 34447
L38359 34348
" />
<path d="M37768 33659
L37768 34447
" />
<path d="M38359 39490
L38359 32616
" />
<path d="M39068 39490
L38359 39490
" />
<path d="M39068 32616
L39068 39490
" />
<path d="M38359 32616
L39068 32616
" />
<path d="M42579 39490
L42579 32616
" />
<path d="M37768 39490
L42579 39490
" />
<path d="M37768 32616
L37768 39490
" />
<path d="M42579 32616
L37768 32616
" />
<path d="M46828 37303
L46525 37303
" />
<path d="M43647 37303
L43950 37303
" />
<path d="M46525 36763
L43950 36763
" />
<path d="M46525 37842
L46525 36763
" />
<path d="M43950 37842
L46525 37842
" />
<path d="M43950 36763
L43950 37842
" />
<path d="M42887 19881
L42887 20118
" />
<path d="M42651 20000
L42887 19881
" />
<path d="M42887 20118
L42651 20000
" />
<path d="M38352 23704
L37761 23606
" />
<path d="M38352 24295
L38352 23704
" />
<path d="M37761 24393
L38352 24295
" />
<path d="M37761 23606
L37761 24393
" />
<path d="M38352 21704
L37761 21606
" />
<path d="M38352 22295
L38352 21704
" />
<path d="M37761 22393
L38352 22295
" />
<path d="M37761 21606
L37761 22393
" />
<path d="M38352 19704
L37761 19606
" />
<path d="M38352 20295
L38352 19704
" />
<path d="M37761 20393
L38352 20295
" />
<path d="M37761 19606
L37761 20393
" />
<path d="M38352 25437
L38352 18562
" />
<path d="M39061 25437
L38352 25437
" />
<path d="M39061 18562
L39061 25437
" />
<path d="M38352 18562
L39061 18562
" />
<path d="M42572 25437
L42572 18562
" />
<path d="M37761 25437
L42572 25437
" />
<path d="M37761 18562
L37761 25437
" />
<path d="M42572 18562
L37761 18562
" />
<path d="M67913 48226
L67913 47923
" />
<path d="M67913 45045
L67913 45348
" />
<path d="M68452 47923
L68452 45348
" />
<path d="M67374 47923
L68452 47923
" />
<path d="M67374 45348
L67374 47923
" />
<path d="M68452 45348
L67374 45348
" />
<path d="M51293 45907
L51293 46986
" />
<path d="M51293 46986
L53868 46986
" />
<path d="M53868 46986
L53868 45907
" />
<path d="M53868 45907
L51293 45907
" />
<path d="M50990 46446
L51293 46446
" />
<path d="M54171 46446
L53868 46446
" />
<path d="M59112 46505
L58809 46505
" />
<path d="M55931 46505
L56234 46505
" />
<path d="M58809 45966
L56234 45966
" />
<path d="M58809 47045
L58809 45966
" />
<path d="M56234 47045
L58809 47045
" />
<path d="M56234 45966
L56234 47045
" />
<path d="M61204 45907
L61204 46986
" />
<path d="M61204 46986
L63779 46986
" />
<path d="M63779 46986
L63779 45907
" />
<path d="M63779 45907
L61204 45907
" />
<path d="M60901 46446
L61204 46446
" />
<path d="M64082 46446
L63779 46446
" />
<path d="M53730 44771
L53730 44468
" />
<path d="M53730 41590
L53730 41893
" />
<path d="M54269 44468
L54269 41893
" />
<path d="M53190 44468
L54269 44468
" />
<path d="M53190 41893
L53190 44468
" />
<path d="M54269 41893
L53190 41893
" />
<path d="M58472 41903
L57393 41903
" />
<path d="M57393 41903
L57393 44478
" />
<path d="M57393 44478
L58472 44478
" />
<path d="M58472 44478
L58472 41903
" />
<path d="M57933 41600
L57933 41903
" />
<path d="M57933 44781
L57933 44478
" />
<path d="M62155 44791
L62155 44488
" />
<path d="M62155 41610
L62155 41913
" />
<path d="M62694 44488
L62694 41913
" />
<path d="M61616 44488
L62694 44488
" />
<path d="M61616 41913
L61616 44488
" />
<path d="M62694 41913
L61616 41913
" />
</g>
<g style="fill:#000000; fill-opacity:0.0; 
stroke:#000000; stroke-width:59.0551; stroke-opacity:1; 
stroke-linecap:round; stroke-linejoin:round;">
<text x="49257.5" y="18258.7"
textLength="789.183" font-size="524.934" lengthAdjust="spacingAndGlyphs"
text-anchor="middle" opacity="0">A1</text>
<path d="M48976 18127
L49163 18127
" />
<path d="M48938 18239
L49070 17846
L49201 18239
" />
<path d="M49538 18239
L49313 18239
" />
<path d="M49426 18239
L49426 17846
L49388 17902
L49351 17939
L49313 17958
" />
<text x="50669.3" y="25631.9"
textLength="751.687" font-size="524.934" lengthAdjust="spacingAndGlyphs"
text-anchor="middle" opacity="0">J1</text>
<path d="M50538 25219
L50538 25500
L50519 25556
L50481 25594
L50425 25613
L50388 25613
" />
<path d="M50931 25613
L50706 25613
" />
<path d="M50819 25613
L50819 25219
L50781 25275
L50744 25313
L50706 25331
" />
<g transform="rotate(-90 50401.6 33937)">
<text x="50401.6" y="34133.9"
textLength="751.687" font-size="524.934" lengthAdjust="spacingAndGlyphs"
text-anchor="middle" opacity="0">J2</text>
</g>
<path d="M50185 34068
L50467 34068
L50523 34086
L50560 34124
L50579 34180
L50579 34218
" />
<path d="M50223 33899
L50204 33880
L50185 33843
L50185 33749
L50204 33712
L50223 33693
L50260 33674
L50298 33674
L50354 33693
L50579 33918
L50579 33674
" />
<g transform="rotate(-90 48415.4 21250)">
<text x="48415.4" y="21446.9"
textLength="1220.38" font-size="524.934" lengthAdjust="spacingAndGlyphs"
text-anchor="middle" opacity="0">BZ1</text>
</g>
<path d="M48387 21596
L48405 21540
L48424 21521
L48462 21503
L48518 21503
L48555 21521
L48574 21540
L48593 21578
L48593 21728
L48199 21728
L48199 21596
L48218 21559
L48237 21540
L48274 21521
L48312 21521
L48349 21540
L48368 21559
L48387 21596
L48387 21728
" />
<path d="M48199 21371
L48199 21109
L48593 21371
L48593 21109
" />
<path d="M48593 20753
L48593 20978
" />
<path d="M48593 20865
L48199 20865
L48255 20903
L48293 20940
L48312 20978
" />
<g transform="rotate(-90 46580.7 19750)">
<text x="46580.7" y="19946.9"
textLength="564.211" font-size="524.934" lengthAdjust="spacingAndGlyphs"
text-anchor="middle" opacity="0">+</text>
</g>
<path d="M46608 19899
L46608 19600
" />
<path d="M46758 19750
L46458 19750
" />
<g transform="rotate(-90 42702.8 35326.8)">
<text x="42702.8" y="35523.6"
textLength="845.426" font-size="524.934" lengthAdjust="spacingAndGlyphs"
text-anchor="middle" opacity="0">D1</text>
</g>
<path d="M42880 35617
L42487 35617
L42487 35523
L42505 35467
L42543 35429
L42580 35411
L42655 35392
L42712 35392
L42787 35411
L42824 35429
L42862 35467
L42880 35523
L42880 35617
" />
<path d="M42880 35017
L42880 35242
" />
<path d="M42880 35129
L42487 35129
L42543 35167
L42580 35204
L42599 35242
" />
<text x="59933.1" y="43852.4"
textLength="845.426" font-size="524.934" lengthAdjust="spacingAndGlyphs"
text-anchor="middle" opacity="0">D2</text>
<path d="M59642 43833
L59642 43439
L59736 43439
L59792 43458
L59829 43496
L59848 43533
L59867 43608
L59867 43664
L59848 43739
L59829 43777
L59792 43814
L59736 43833
L59642 43833
" />
<path d="M60017 43477
L60036 43458
L60073 43439
L60167 43439
L60204 43458
L60223 43477
L60242 43514
L60242 43552
L60223 43608
L59998 43833
L60242 43833
" />
<text x="51783.5" y="43813"
textLength="845.426" font-size="524.934" lengthAdjust="spacingAndGlyphs"
text-anchor="middle" opacity="0">D3</text>
<path d="M51492 43794
L51492 43400
L51586 43400
L51642 43419
L51680 43456
L51699 43494
L51717 43569
L51717 43625
L51699 43700
L51680 43738
L51642 43775
L51586 43794
L51492 43794
" />
<path d="M51849 43400
L52092 43400
L51961 43550
L52017 43550
L52055 43569
L52074 43588
L52092 43625
L52092 43719
L52074 43756
L52055 43775
L52017 43794
L51905 43794
L51867 43775
L51849 43756
" />
<text x="55799.2" y="43872"
textLength="845.426" font-size="524.934" lengthAdjust="spacingAndGlyphs"
text-anchor="middle" opacity="0">D4</text>
<path d="M55508 43853
L55508 43459
L55602 43459
L55658 43478
L55696 43515
L55714 43553
L55733 43628
L55733 43684
L55714 43759
L55696 43797
L55658 43834
L55602 43853
L55508 43853
" />
<path d="M56071 43590
L56071 43853
" />
<path d="M55977 43440
L55883 43722
L56127 43722
" />
<g transform="rotate(-90 43009.1 36053.5)">
<text x="43009.1" y="36250.4"
textLength="751.687" font-size="524.934" lengthAdjust="spacingAndGlyphs"
text-anchor="middle" opacity="0">J3</text>
</g>
<path d="M42793 36184
L43074 36184
L43130 36203
L43168 36241
L43187 36297
L43187 36334
" />
<path d="M42793 36034
L42793 35791
L42943 35922
L42943 35866
L42962 35828
L42980 35809
L43018 35791
L43112 35791
L43149 35809
L43168 35828
L43187 35866
L43187 35978
L43168 36016
L43149 36034
" />
<text x="45238.2" y="36566.9"
textLength="845.426" font-size="524.934" lengthAdjust="spacingAndGlyphs"
text-anchor="middle" opacity="0">R1</text>
<path d="M45172 36548
L45041 36360
" />
<path d="M44947 36548
L44947 36154
L45097 36154
L45135 36173
L45153 36191
L45172 36229
L45172 36285
L45153 36323
L45135 36341
L45097 36360
L44947 36360
" />
<path d="M45547 36548
L45322 36548
" />
<path d="M45435 36548
L45435 36154
L45397 36210
L45360 36248
L45322 36266
" />
<g transform="rotate(-90 43002 22000)">
<text x="43002" y="22196.9"
textLength="751.687" font-size="524.934" lengthAdjust="spacingAndGlyphs"
text-anchor="middle" opacity="0">J4</text>
</g>
<path d="M42786 22131
L43067 22131
L43123 22149
L43161 22187
L43180 22243
L43180 22281
" />
<path d="M42917 21775
L43180 21775
" />
<path d="M42767 21868
L43048 21962
L43048 21718
" />
<g transform="rotate(-90 68846.5 46635.8)">
<text x="68846.5" y="46832.7"
textLength="845.426" font-size="524.934" lengthAdjust="spacingAndGlyphs"
text-anchor="middle" opacity="0">R2</text>
</g>
<path d="M69024 46701
L68837 46832
" />
<path d="M69024 46926
L68630 46926
L68630 46776
L68649 46738
L68668 46720
L68705 46701
L68762 46701
L68799 46720
L68818 46738
L68837 46776
L68837 46926
" />
<path d="M68668 46551
L68649 46532
L68630 46495
L68630 46401
L68649 46363
L68668 46345
L68705 46326
L68743 46326
L68799 46345
L69024 46570
L69024 46326
" />
<text x="52580.7" y="45710.6"
textLength="845.426" font-size="524.934" lengthAdjust="spacingAndGlyphs"
text-anchor="middle" opacity="0">R3</text>
<path d="M52515 45691
L52383 45504
" />
<path d="M52290 45691
L52290 45298
L52440 45298
L52477 45316
L52496 45335
L52515 45373
L52515 45429
L52496 45466
L52477 45485
L52440 45504
L52290 45504
" />
<path d="M52646 45298
L52890 45298
L52758 45448
L52815 45448
L52852 45466
L52871 45485
L52890 45523
L52890 45616
L52871 45654
L52852 45673
L52815 45691
L52702 45691
L52665 45673
L52646 45654
" />
<text x="57521.7" y="45769.7"
textLength="845.426" font-size="524.934" lengthAdjust="spacingAndGlyphs"
text-anchor="middle" opacity="0">R4</text>
<path d="M57456 45750
L57324 45563
" />
<path d="M57231 45750
L57231 45357
L57381 45357
L57418 45375
L57437 45394
L57456 45432
L57456 45488
L57437 45525
L57418 45544
L57381 45563
L57231 45563
" />
<path d="M57793 45488
L57793 45750
" />
<path d="M57699 45338
L57606 45619
L57849 45619
" />
<text x="62492.1" y="45710.6"
textLength="845.426" font-size="524.934" lengthAdjust="spacingAndGlyphs"
text-anchor="middle" opacity="0">R5</text>
<path d="M62426 45691
L62295 45504
" />
<path d="M62201 45691
L62201 45298
L62351 45298
L62389 45316
L62407 45335
L62426 45373
L62426 45429
L62407 45466
L62389 45485
L62351 45504
L62201 45504
" />
<path d="M62782 45298
L62595 45298
L62576 45485
L62595 45466
L62632 45448
L62726 45448
L62763 45466
L62782 45485
L62801 45523
L62801 45616
L62782 45654
L62763 45673
L62726 45691
L62632 45691
L62595 45673
L62576 45654
" />
<g transform="rotate(-90 54663.4 43181.1)">
<text x="54663.4" y="43378"
textLength="845.426" font-size="524.934" lengthAdjust="spacingAndGlyphs"
text-anchor="middle" opacity="0">R6</text>
</g>
<path d="M54841 43246
L54654 43377
" />
<path d="M54841 43471
L54447 43471
L54447 43321
L54466 43284
L54485 43265
L54522 43246
L54579 43246
L54616 43265
L54635 43284
L54654 43321
L54654 43471
" />
<path d="M54447 42909
L54447 42984
L54466 43021
L54485 43040
L54541 43077
L54616 43096
L54766 43096
L54803 43077
L54822 43059
L54841 43021
L54841 42946
L54822 42909
L54803 42890
L54766 42871
L54672 42871
L54635 42890
L54616 42909
L54597 42946
L54597 43021
L54616 43059
L54635 43077
L54672 43096
" />
<g transform="rotate(-90 58866.1 43190.9)">
<text x="58866.1" y="43387.8"
textLength="845.426" font-size="524.934" lengthAdjust="spacingAndGlyphs"
text-anchor="middle" opacity="0">R7</text>
</g>
<path d="M59044 43256
L58856 43387
" />
<path d="M59044 43481
L58650 43481
L58650 43331
L58669 43294
L58688 43275
L58725 43256
L58781 43256
L58819 43275
L58838 43294
L58856 43331
L58856 43481
" />
<path d="M58650 43125
L58650 42862
L59044 43031
" />
<g transform="rotate(-90 63088.6 43200.8)">
<text x="63088.6" y="43397.6"
textLength="845.426" font-size="524.934" lengthAdjust="spacingAndGlyphs"
text-anchor="middle" opacity="0">R8</text>
</g>
<path d="M63266 43266
L63079 43397
" />
<path d="M63266 43491
L62872 43491
L62872 43341
L62891 43303
L62910 43285
L62947 43266
L63004 43266
L63041 43285
L63060 43303
L63079 43341
L63079 43491
" />
<path d="M63041 43041
L63022 43078
L63004 43097
L62966 43116
L62947 43116
L62910 43097
L62891 43078
L62872 43041
L62872 42966
L62891 42928
L62910 42910
L62947 42891
L62966 42891
L63004 42910
L63022 42928
L63041 42966
L63041 43041
L63060 43078
L63079 43097
L63116 43116
L63191 43116
L63229 43097
L63247 43078
L63266 43041
L63266 42966
L63247 42928
L63229 42910
L63191 42891
L63116 42891
L63079 42910
L63060 42928
L63041 42966
" />
<g >
</g>
</g> 
</svg>
