<?xml version="1.0" standalone="no"?>
 <!DOCTYPE svg PUBLIC "-//W3C//DTD SVG 1.1//EN" 
 "http://www.w3.org/Graphics/SVG/1.1/DTD/svg11.dtd"> 
<svg
  xmlns:svg="http://www.w3.org/2000/svg"
  xmlns="http://www.w3.org/2000/svg"
  xmlns:xlink="http://www.w3.org/1999/xlink"
  version="1.1"
  width="29.700220cm" height="21.000720cm" viewBox="0 0 116930 82680">
<title>SVG Picture created as PCB_shield-B_SilkS.svg date 2020/09/01 17:13:22 </title>
  <desc>Picture generated by PCBNEW </desc>
<g style="fill:#000000; fill-opacity:1;stroke:#000000; stroke-opacity:1;
stroke-linecap:round; stroke-linejoin:round;"
 transform="translate(0 0) scale(1 1)">
</g>
<g style="fill:#000000; fill-opacity:0.0; 
stroke:#000000; stroke-width:-0.000393701; stroke-opacity:1; 
stroke-linecap:round; stroke-linejoin:round;">
</g>
<g style="fill:#000000; fill-opacity:0.0; 
stroke:#000000; stroke-width:47.2441; stroke-opacity:1; 
stroke-linecap:round; stroke-linejoin:round;">
<path d="M40754 32163
L40754 31568
" />
<path d="M39297 32163
L39297 31568
" />
<path d="M38009 31568
L42041 31568
" />
<path d="M42041 32163
L42041 30336
" />
<path d="M38009 32163
L38009 30336
" />
<path d="M38009 30336
L42041 30336
" />
<path d="M38009 32163
L42041 32163
" />
<path d="M63533 43533
L65049 43533
" />
<path d="M63533.5 43533.5 A1015.53 1015.53 0.0 0 0 63382.8 43761" />
<path d="M63372.9 44633.8 A1019.88 1019.88 0.0 0 0 63868.1 45128" />
<path d="M64714.6 45128 A1014.96 1014.96 0.0 0 0 65217.1 44631.7" />
<path d="M65203.7 43764.9 A1006.68 1006.68 0.0 0 0 65049.2 43533.5" />
<path d="M52556.1 43774.7 A1006.68 1006.68 0.0 0 0 52401.6 43543.3" />
<path d="M52066.9 45137.8 A1014.96 1014.96 0.0 0 0 52569.5 44641.5" />
<path d="M50725.3 44643.6 A1019.88 1019.88 0.0 0 0 51220.5 45137.8" />
<path d="M50885.8 43543.3 A1015.53 1015.53 0.0 0 0 50735.2 43770.8" />
<path d="M50885 43543
L52401 43543
" />
<path d="M55068 43553
L56584 43553
" />
<path d="M55068.9 43553.1 A1015.53 1015.53 0.0 0 0 54918.3 43780.7" />
<path d="M54908.4 44653.5 A1019.88 1019.88 0.0 0 0 55403.5 45147.6" />
<path d="M56250 45147.6 A1014.96 1014.96 0.0 0 0 56752.5 44651.4" />
<path d="M56739.1 43784.5 A1006.68 1006.68 0.0 0 0 56584.6 43553.1" />
<path d="M60892.7 43755 A1006.68 1006.68 0.0 0 0 60738.2 43523.6" />
<path d="M60403.5 45118.1 A1014.96 1014.96 0.0 0 0 60906.1 44621.9" />
<path d="M59061.9 44623.9 A1019.88 1019.88 0.0 0 0 59557.1 45118.1" />
<path d="M59222.4 43523.6 A1015.53 1015.53 0.0 0 0 59071.8 43751.2" />
<path d="M59222 43523
L60738 43523
" />
</g>
<g style="fill:#000000; fill-opacity:0.0; 
stroke:#000000; stroke-width:59.0551; stroke-opacity:1; 
stroke-linecap:round; stroke-linejoin:round;">
<text x="40025.6" y="32753.9"
textLength="710.63" font-size="524.934" lengthAdjust="spacingAndGlyphs"
text-anchor="middle" opacity="0">Q1</text>
<path d="M40063 32772
L40100 32753
L40138 32716
L40194 32660
L40231 32641
L40269 32641
" />
<path d="M40250 32735
L40288 32716
L40325 32678
L40344 32603
L40344 32472
L40325 32397
L40288 32360
L40250 32341
L40175 32341
L40138 32360
L40100 32397
L40081 32472
L40081 32603
L40100 32678
L40138 32716
L40175 32735
L40250 32735
" />
<path d="M39706 32735
L39931 32735
" />
<path d="M39819 32735
L39819 32341
L39856 32397
L39894 32435
L39931 32453
" />
<text x="64301.2" y="46033.5"
textLength="710.63" font-size="524.934" lengthAdjust="spacingAndGlyphs"
text-anchor="middle" opacity="0">Q2</text>
<path d="M64338 46052
L64376 46033
L64413 45995
L64469 45939
L64507 45920
L64544 45920
" />
<path d="M64526 46014
L64563 45995
L64601 45958
L64619 45883
L64619 45752
L64601 45677
L64563 45639
L64526 45621
L64451 45621
L64413 45639
L64376 45677
L64357 45752
L64357 45883
L64376 45958
L64413 45995
L64451 46014
L64526 46014
" />
<path d="M64207 45658
L64188 45639
L64151 45621
L64057 45621
L64019 45639
L64001 45658
L63982 45696
L63982 45733
L64001 45789
L64226 46014
L63982 46014
" />
<text x="51653.5" y="46043.3"
textLength="710.63" font-size="524.934" lengthAdjust="spacingAndGlyphs"
text-anchor="middle" opacity="0">Q3</text>
<path d="M51691 46062
L51728 46043
L51766 46005
L51822 45949
L51859 45930
L51897 45930
" />
<path d="M51878 46024
L51916 46005
L51953 45968
L51972 45893
L51972 45762
L51953 45687
L51916 45649
L51878 45630
L51803 45630
L51766 45649
L51728 45687
L51709 45762
L51709 45893
L51728 45968
L51766 46005
L51803 46024
L51878 46024
" />
<path d="M51578 45630
L51334 45630
L51466 45780
L51409 45780
L51372 45799
L51353 45818
L51334 45855
L51334 45949
L51353 45987
L51372 46005
L51409 46024
L51522 46024
L51559 46005
L51578 45987
" />
<text x="55836.6" y="46053.1"
textLength="710.63" font-size="524.934" lengthAdjust="spacingAndGlyphs"
text-anchor="middle" opacity="0">Q4</text>
<path d="M55874 46071
L55911 46053
L55949 46015
L56005 45959
L56042 45940
L56080 45940
" />
<path d="M56061 46034
L56099 46015
L56136 45978
L56155 45903
L56155 45771
L56136 45696
L56099 45659
L56061 45640
L55986 45640
L55949 45659
L55911 45696
L55892 45771
L55892 45903
L55911 45978
L55949 46015
L55986 46034
L56061 46034
" />
<path d="M55555 45771
L55555 46034
" />
<path d="M55649 45621
L55742 45903
L55499 45903
" />
<text x="59990.2" y="46023.6"
textLength="710.63" font-size="524.934" lengthAdjust="spacingAndGlyphs"
text-anchor="middle" opacity="0">Q5</text>
<path d="M60027 46042
L60065 46023
L60102 45986
L60158 45929
L60196 45911
L60233 45911
" />
<path d="M60215 46004
L60252 45986
L60290 45948
L60308 45873
L60308 45742
L60290 45667
L60252 45629
L60215 45611
L60140 45611
L60102 45629
L60065 45667
L60046 45742
L60046 45873
L60065 45948
L60102 45986
L60140 46004
L60215 46004
" />
<path d="M59690 45611
L59877 45611
L59896 45798
L59877 45779
L59840 45761
L59746 45761
L59708 45779
L59690 45798
L59671 45836
L59671 45929
L59690 45967
L59708 45986
L59746 46004
L59840 46004
L59877 45986
L59896 45967
" />
<g >
</g>
</g> 
</svg>
