M48
; DRILL file {KiCad (5.1.6)-1} date 07/15/21 17:16:22
; FORMAT={-:-/ absolute / metric / decimal}
; #@! TF.CreationDate,2021-07-15T17:16:22+02:00
; #@! TF.GenerationSoftware,Kicad,Pcbnew,(5.1.6)-1
; #@! TF.FileFunction,Plated,1,2,PTH
FMAT,2
METRIC
T1C0.762
T2C0.800
T3C1.000
T4C1.016
T5C1.400
T6C1.600
%
G90
G05
T1
X145.087Y-37.348
X145.087Y-65.288
X147.627Y-37.348
X147.627Y-65.288
X150.167Y-37.348
X150.167Y-65.288
X152.707Y-37.348
X152.707Y-65.288
X155.247Y-37.348
X155.247Y-65.288
X157.787Y-37.348
X157.787Y-65.288
X160.327Y-37.348
X160.327Y-65.288
X162.867Y-37.348
X162.867Y-65.288
X165.407Y-37.348
X165.407Y-65.288
X167.947Y-37.348
X167.947Y-65.288
X170.487Y-37.348
X170.487Y-65.288
X173.027Y-37.348
X173.027Y-65.288
X175.567Y-37.348
X175.567Y-65.288
X178.107Y-37.348
X178.107Y-65.288
X180.647Y-37.348
X180.647Y-65.288
T2
X69.003Y-96.543
X72.403Y-96.451
X78.367Y-61.356
X78.438Y-65.683
X80.678Y-59.715
X80.889Y-65.728
X81.186Y-83.807
X81.3Y-96.073
X86.172Y-130.251
X86.269Y-119.355
X91.925Y-119.24
X91.925Y-124.473
X91.999Y-97.579
X92.032Y-90.597
X92.199Y-134.373
X102.124Y-123.767
X104.104Y-121.079
X106.502Y-118.679
X110.048Y-134.582
X119.029Y-71.046
X119.134Y-74.526
X120.053Y-123.843
X123.462Y-121.079
X126.174Y-118.679
X127.163Y-97.028
X127.343Y-91.117
X128.044Y-88.006
X129.167Y-85.504
X130.334Y-58.222
X130.334Y-61.003
X134.008Y-58.387
X134.165Y-61.064
X138.773Y-88.247
X141.138Y-85.819
X142.302Y-133.917
X142.387Y-138.852
X165.872Y-123.853
X166.093Y-121.061
X166.164Y-118.656
X178.3Y-72.926
X179.466Y-77.47
X183.774Y-123.848
X184.053Y-121.054
X184.605Y-77.785
X185.969Y-118.656
X188.331Y-72.657
X197.756Y-56.723
X200.297Y-133.365
X200.368Y-137.825
X201.486Y-56.805
X168.572Y-72.794
X171.112Y-72.794
X173.652Y-72.794
T3
X134.831Y-77.401
X137.371Y-77.401
X139.911Y-77.401
X142.451Y-77.401
X144.991Y-77.401
X147.531Y-77.401
X150.071Y-77.401
X152.611Y-77.401
X155.151Y-77.401
X157.691Y-77.401
X160.231Y-77.401
X162.771Y-77.401
X165.311Y-77.401
X167.851Y-77.401
X170.391Y-77.401
X172.931Y-77.401
X203.136Y-132.85
X203.136Y-135.39
X203.136Y-137.93
X197.658Y-132.88
X197.658Y-135.42
X197.658Y-137.96
T4
X115.633Y-82.009
X118.173Y-82.009
X120.713Y-82.009
X123.253Y-82.009
X125.793Y-82.009
X128.333Y-82.009
X130.874Y-82.009
X132.398Y-130.269
X133.413Y-82.009
X135.953Y-82.009
X138.493Y-82.009
X142.558Y-82.009
X142.558Y-130.269
X145.097Y-82.009
X147.637Y-82.009
X150.177Y-82.009
X152.718Y-82.009
X155.257Y-82.009
X157.797Y-82.009
X160.338Y-82.009
X167.957Y-82.009
X170.498Y-82.009
X173.037Y-82.009
X175.577Y-82.009
X178.117Y-82.009
X180.657Y-82.009
X183.197Y-82.009
X190.817Y-82.009
X190.817Y-84.549
X190.817Y-87.089
X190.817Y-89.629
X190.817Y-92.169
X190.817Y-94.709
X190.817Y-97.249
X190.817Y-99.789
X190.817Y-102.329
X190.817Y-104.869
X190.817Y-107.409
X190.817Y-109.949
X190.817Y-112.489
X190.817Y-115.029
X190.817Y-120.109
X190.817Y-122.649
X190.817Y-125.189
X193.357Y-82.009
X193.357Y-84.549
X193.357Y-87.089
X193.357Y-89.629
X193.357Y-92.169
X193.357Y-94.709
X193.357Y-97.249
X193.357Y-99.789
X193.357Y-102.329
X193.357Y-104.869
X193.357Y-107.409
X193.357Y-109.949
X193.357Y-112.489
X193.357Y-115.029
X193.357Y-117.569
X193.357Y-120.109
X193.357Y-122.649
X193.357Y-125.189
T5
X211.585Y-62.258
X211.585Y-67.338
X211.585Y-72.418
X211.585Y-77.498
X211.539Y-86.304
X211.539Y-91.384
X211.539Y-96.464
X211.539Y-101.544
X199.456Y-68.707
X204.536Y-68.707
X189.474Y-142.4
X194.554Y-142.4
X199.634Y-142.4
X204.714Y-142.4
X75.105Y-104.95
X75.105Y-110.03
X75.105Y-115.11
X75.105Y-120.19
X75.105Y-125.27
X75.105Y-130.35
X75.105Y-135.43
X166.007Y-142.397
X171.087Y-142.397
X176.167Y-142.397
X181.247Y-142.397
X211.358Y-133.594
X211.358Y-138.674
X211.358Y-143.754
X211.358Y-148.834
X118.948Y-142.42
X124.028Y-142.42
X129.108Y-142.42
X134.188Y-142.42
X85.105Y-72.758
X90.185Y-72.758
X95.265Y-72.758
X103.53Y-72.746
X108.61Y-72.746
X113.69Y-72.746
X142.397Y-142.436
X147.477Y-142.436
X152.557Y-142.436
X157.637Y-142.436
X95.501Y-142.415
X100.581Y-142.415
X105.661Y-142.415
X110.741Y-142.415
X71.829Y-142.38
X76.909Y-142.38
X81.989Y-142.38
X87.069Y-142.38
X75.131Y-66.078
X75.131Y-71.158
X75.131Y-76.238
X75.131Y-81.318
X75.131Y-86.398
X75.131Y-91.478
X75.131Y-96.558
X211.534Y-109.901
X211.534Y-114.981
X211.534Y-120.061
X211.534Y-125.141
T6
X132.034Y-72.113
X147.274Y-72.113
T3
X120.128Y-67.173G85X120.128Y-69.173
G05
X125.828Y-65.173G85X123.828Y-65.173
G05
X125.828Y-71.173G85X123.828Y-71.173
G05
T0
M30
