%FSLAX45Y45*%
G04 Gerber Fmt 4.5, Leading zero omitted, Abs format (unit mm)*
G04 Created by KiCad (PCBNEW (5.1.6)-1) date 2021-07-15 17:16:27*
%MOMM*%
%LPD*%
G01*
G04 APERTURE LIST*
%TA.AperFunction,Profile*%
%ADD10C,0.300000*%
%TD*%
%ADD11C,0.200000*%
%ADD12C,0.300000*%
G04 APERTURE END LIST*
D10*
X6363462Y-15400782D02*
X22314916Y-15400782D01*
X6363462Y-5508244D02*
X6363462Y-15400782D01*
X12841224Y-5508244D02*
X6363462Y-5508244D01*
X12841224Y-4062984D02*
X12841224Y-5508244D01*
X13578586Y-3325622D02*
X12841224Y-4062984D01*
X19359880Y-3325622D02*
X13578586Y-3325622D01*
X20247356Y-4213098D02*
X19359880Y-3325622D01*
X20247356Y-5464302D02*
X20247356Y-4213098D01*
X22314916Y-5464302D02*
X20247356Y-5464302D01*
X22314916Y-15400782D02*
X22314916Y-5464302D01*
D11*
D12*
X6634890Y-15881496D02*
X6634890Y-15581496D01*
X6706319Y-15581496D01*
X6749176Y-15595782D01*
X6777748Y-15624353D01*
X6792033Y-15652925D01*
X6806319Y-15710068D01*
X6806319Y-15752925D01*
X6792033Y-15810068D01*
X6777748Y-15838639D01*
X6749176Y-15867211D01*
X6706319Y-15881496D01*
X6634890Y-15881496D01*
X6934890Y-15881496D02*
X6934890Y-15681496D01*
X6934890Y-15738639D02*
X6949176Y-15710068D01*
X6963462Y-15695782D01*
X6992033Y-15681496D01*
X7020605Y-15681496D01*
X7120605Y-15881496D02*
X7120605Y-15681496D01*
X7120605Y-15581496D02*
X7106319Y-15595782D01*
X7120605Y-15610068D01*
X7134890Y-15595782D01*
X7120605Y-15581496D01*
X7120605Y-15610068D01*
X7306319Y-15881496D02*
X7277748Y-15867211D01*
X7263462Y-15838639D01*
X7263462Y-15581496D01*
X7463462Y-15881496D02*
X7434890Y-15867211D01*
X7420605Y-15838639D01*
X7420605Y-15581496D01*
X7806319Y-15881496D02*
X7806319Y-15581496D01*
X7906319Y-15795782D01*
X8006319Y-15581496D01*
X8006319Y-15881496D01*
X8277748Y-15881496D02*
X8277748Y-15724353D01*
X8263462Y-15695782D01*
X8234890Y-15681496D01*
X8177748Y-15681496D01*
X8149176Y-15695782D01*
X8277748Y-15867211D02*
X8249176Y-15881496D01*
X8177748Y-15881496D01*
X8149176Y-15867211D01*
X8134890Y-15838639D01*
X8134890Y-15810068D01*
X8149176Y-15781496D01*
X8177748Y-15767211D01*
X8249176Y-15767211D01*
X8277748Y-15752925D01*
X8420605Y-15681496D02*
X8420605Y-15981496D01*
X8420605Y-15695782D02*
X8449176Y-15681496D01*
X8506319Y-15681496D01*
X8534890Y-15695782D01*
X8549176Y-15710068D01*
X8563462Y-15738639D01*
X8563462Y-15824353D01*
X8549176Y-15852925D01*
X8534890Y-15867211D01*
X8506319Y-15881496D01*
X8449176Y-15881496D01*
X8420605Y-15867211D01*
X8692033Y-15852925D02*
X8706319Y-15867211D01*
X8692033Y-15881496D01*
X8677748Y-15867211D01*
X8692033Y-15852925D01*
X8692033Y-15881496D01*
X8692033Y-15695782D02*
X8706319Y-15710068D01*
X8692033Y-15724353D01*
X8677748Y-15710068D01*
X8692033Y-15695782D01*
X8692033Y-15724353D01*
M02*
