%TF.GenerationSoftware,KiCad,Pcbnew,(5.1.6)-1*%
%TF.CreationDate,2021-07-15T17:15:11+02:00*%
%TF.ProjectId,future_uni,66757475-7265-45f7-956e-692e6b696361,rev?*%
%TF.SameCoordinates,Original*%
%TF.FileFunction,Copper,L2,Bot*%
%TF.FilePolarity,Positive*%
%FSLAX46Y46*%
G04 Gerber Fmt 4.6, Leading zero omitted, Abs format (unit mm)*
G04 Created by KiCad (PCBNEW (5.1.6)-1) date 2021-07-15 17:15:11*
%MOMM*%
%LPD*%
G01*
G04 APERTURE LIST*
%TA.AperFunction,ComponentPad*%
%ADD10O,1.727200X1.727200*%
%TD*%
%TA.AperFunction,ComponentPad*%
%ADD11R,1.700000X1.700000*%
%TD*%
%TA.AperFunction,ComponentPad*%
%ADD12O,1.700000X1.700000*%
%TD*%
%TA.AperFunction,ComponentPad*%
%ADD13O,2.080000X3.600000*%
%TD*%
%TA.AperFunction,ComponentPad*%
%ADD14O,3.600000X2.080000*%
%TD*%
%TA.AperFunction,ComponentPad*%
%ADD15R,3.500000X3.500000*%
%TD*%
%TA.AperFunction,ComponentPad*%
%ADD16C,1.440000*%
%TD*%
%TA.AperFunction,ComponentPad*%
%ADD17C,1.524000*%
%TD*%
%TA.AperFunction,ComponentPad*%
%ADD18R,3.200000X3.200000*%
%TD*%
%TA.AperFunction,ComponentPad*%
%ADD19O,3.200000X3.200000*%
%TD*%
%TA.AperFunction,ViaPad*%
%ADD20C,2.000000*%
%TD*%
%TA.AperFunction,Conductor*%
%ADD21C,1.000000*%
%TD*%
%TA.AperFunction,Conductor*%
%ADD22C,0.250000*%
%TD*%
G04 APERTURE END LIST*
D10*
%TO.P,XA1,VIN*%
%TO.N,/5V*%
X142557500Y-130268980D03*
%TO.P,XA1,3V3*%
%TO.N,/3.3V*%
X132397500Y-130268980D03*
%TO.P,XA1,D21*%
%TO.N,Net-(XA1-PadD21)*%
X183197500Y-82008980D03*
%TO.P,XA1,D20*%
%TO.N,Net-(XA1-PadD20)*%
X180657500Y-82008980D03*
%TO.P,XA1,D19*%
%TO.N,/RST_ESP*%
X178117500Y-82008980D03*
%TO.P,XA1,D18*%
%TO.N,/EN_ESP*%
X175577500Y-82008980D03*
%TO.P,XA1,D17*%
%TO.N,Net-(XA1-PadD17)*%
X173037500Y-82008980D03*
%TO.P,XA1,D16*%
%TO.N,Net-(XA1-PadD16)*%
X170497500Y-82008980D03*
%TO.P,XA1,D15*%
%TO.N,Net-(XA1-PadD15)*%
X167957500Y-82008980D03*
%TO.P,XA1,D0*%
%TO.N,/RX_MCU*%
X160337500Y-82008980D03*
%TO.P,XA1,D1*%
%TO.N,/TX_MCU*%
X157797500Y-82008980D03*
%TO.P,XA1,D2*%
%TO.N,/RS*%
X155257500Y-82008980D03*
%TO.P,XA1,D3*%
%TO.N,/E*%
X152717500Y-82008980D03*
%TO.P,XA1,D4*%
%TO.N,/DB4*%
X150177500Y-82008980D03*
%TO.P,XA1,D5*%
%TO.N,/DB5*%
X147637500Y-82008980D03*
%TO.P,XA1,D6*%
%TO.N,/DB6*%
X145097500Y-82008980D03*
%TO.P,XA1,D7*%
%TO.N,/DB7*%
X142557500Y-82008980D03*
%TO.P,XA1,GND1*%
%TO.N,/GND*%
X123253500Y-82008980D03*
%TO.P,XA1,D8*%
%TO.N,/RST*%
X138493500Y-82008980D03*
%TO.P,XA1,D9*%
%TO.N,/SDA\u005CSS_1*%
X135953500Y-82008980D03*
%TO.P,XA1,D10*%
%TO.N,/SDA\u005CSS_2*%
X133413500Y-82008980D03*
%TO.P,XA1,SCL*%
%TO.N,Net-(XA1-PadSCL)*%
X115633500Y-82008980D03*
%TO.P,XA1,SDA*%
%TO.N,Net-(XA1-PadSDA)*%
X118173500Y-82008980D03*
%TO.P,XA1,AREF*%
%TO.N,Net-(XA1-PadAREF)*%
X120713500Y-82008980D03*
%TO.P,XA1,D13*%
%TO.N,Net-(XA1-PadD13)*%
X125793500Y-82008980D03*
%TO.P,XA1,D12*%
%TO.N,/Signal_2*%
X128333500Y-82008980D03*
%TO.P,XA1,D11*%
%TO.N,/Signal_1*%
X130873500Y-82008980D03*
%TO.P,XA1,5V3*%
%TO.N,Net-(XA1-Pad5V3)*%
X190817500Y-82008980D03*
%TO.P,XA1,5V4*%
%TO.N,Net-(XA1-Pad5V4)*%
X193357500Y-82008980D03*
%TO.P,XA1,D22*%
%TO.N,/TRIG_10*%
X190817500Y-84548980D03*
%TO.P,XA1,D23*%
%TO.N,/ECHO_1*%
X193357500Y-84548980D03*
%TO.P,XA1,D24*%
%TO.N,/ECHO_10*%
X190817500Y-87088980D03*
%TO.P,XA1,D25*%
%TO.N,/TRIG_1*%
X193357500Y-87088980D03*
%TO.P,XA1,D26*%
%TO.N,/TRIG_9*%
X190817500Y-89628980D03*
%TO.P,XA1,D27*%
%TO.N,/ECHO_2*%
X193357500Y-89628980D03*
%TO.P,XA1,D28*%
%TO.N,/ECHO_9*%
X190817500Y-92168980D03*
%TO.P,XA1,D29*%
%TO.N,/TRIG_2*%
X193357500Y-92168980D03*
%TO.P,XA1,D30*%
%TO.N,/TRIG_8*%
X190817500Y-94708980D03*
%TO.P,XA1,D31*%
%TO.N,/ECHO_3*%
X193357500Y-94708980D03*
%TO.P,XA1,D32*%
%TO.N,/ECHO_8*%
X190817500Y-97248980D03*
%TO.P,XA1,D33*%
%TO.N,/TRIG_3*%
X193357500Y-97248980D03*
%TO.P,XA1,D34*%
%TO.N,/TRIG_7*%
X190817500Y-99788980D03*
%TO.P,XA1,D35*%
%TO.N,/ECHO_4*%
X193357500Y-99788980D03*
%TO.P,XA1,D36*%
%TO.N,/ECHO_7*%
X190817500Y-102328980D03*
%TO.P,XA1,D37*%
%TO.N,/TRIG_4*%
X193357500Y-102328980D03*
%TO.P,XA1,D38*%
%TO.N,/TRIG_6*%
X190817500Y-104868980D03*
%TO.P,XA1,D39*%
%TO.N,Net-(XA1-PadD39)*%
X193357500Y-104868980D03*
%TO.P,XA1,D40*%
%TO.N,/ECHO_6*%
X190817500Y-107408980D03*
%TO.P,XA1,D41*%
%TO.N,Net-(XA1-PadD41)*%
X193357500Y-107408980D03*
%TO.P,XA1,D42*%
%TO.N,/TRIG_5*%
X190817500Y-109948980D03*
%TO.P,XA1,D43*%
%TO.N,/GREEN_2*%
X193357500Y-109948980D03*
%TO.P,XA1,D44*%
%TO.N,/ECHO_5*%
X190817500Y-112488980D03*
%TO.P,XA1,D45*%
%TO.N,/RED_2*%
X193357500Y-112488980D03*
%TO.P,XA1,D46*%
%TO.N,Net-(XA1-PadD46)*%
X190817500Y-115028980D03*
%TO.P,XA1,D47*%
%TO.N,/GREEN_1*%
X193357500Y-115028980D03*
%TO.P,XA1,D49*%
%TO.N,/RED_1*%
X193357500Y-117568980D03*
%TO.P,XA1,D50*%
%TO.N,/MISO*%
X190817500Y-120108980D03*
%TO.P,XA1,D51*%
%TO.N,/MOSI*%
X193357500Y-120108980D03*
%TO.P,XA1,D52*%
%TO.N,/SCK*%
X190817500Y-122648980D03*
%TO.P,XA1,D53*%
%TO.N,Net-(XA1-PadD53)*%
X193357500Y-122648980D03*
%TO.P,XA1,GND5*%
%TO.N,Net-(XA1-PadGND5)*%
X190817500Y-125188980D03*
%TO.P,XA1,GND6*%
%TO.N,Net-(XA1-PadGND6)*%
X193357500Y-125188980D03*
%TD*%
D11*
%TO.P,J6,1*%
%TO.N,/RED_2*%
X203136500Y-137929620D03*
D12*
%TO.P,J6,2*%
%TO.N,/GND*%
X203136500Y-135389620D03*
%TO.P,J6,3*%
%TO.N,/GREEN_2*%
X203136500Y-132849620D03*
%TD*%
%TO.P,J14,1*%
%TO.N,/5V*%
%TA.AperFunction,ComponentPad*%
G36*
G01*
X117908200Y-143970341D02*
X117908200Y-140870339D01*
G75*
G02*
X118158199Y-140620340I249999J0D01*
G01*
X119738201Y-140620340D01*
G75*
G02*
X119988200Y-140870339I0J-249999D01*
G01*
X119988200Y-143970341D01*
G75*
G02*
X119738201Y-144220340I-249999J0D01*
G01*
X118158199Y-144220340D01*
G75*
G02*
X117908200Y-143970341I0J249999D01*
G01*
G37*
%TD.AperFunction*%
D13*
%TO.P,J14,2*%
%TO.N,/TRIG_8*%
X124028200Y-142420340D03*
%TO.P,J14,3*%
%TO.N,/ECHO_8*%
X129108200Y-142420340D03*
%TO.P,J14,4*%
%TO.N,/GND*%
X134188200Y-142420340D03*
%TD*%
%TO.P,J8,4*%
%TO.N,/GND*%
X87068660Y-142379700D03*
%TO.P,J8,3*%
%TO.N,/ECHO_10*%
X81988660Y-142379700D03*
%TO.P,J8,2*%
%TO.N,/TRIG_10*%
X76908660Y-142379700D03*
%TO.P,J8,1*%
%TO.N,/5V*%
%TA.AperFunction,ComponentPad*%
G36*
G01*
X70788660Y-143929701D02*
X70788660Y-140829699D01*
G75*
G02*
X71038659Y-140579700I249999J0D01*
G01*
X72618661Y-140579700D01*
G75*
G02*
X72868660Y-140829699I0J-249999D01*
G01*
X72868660Y-143929701D01*
G75*
G02*
X72618661Y-144179700I-249999J0D01*
G01*
X71038659Y-144179700D01*
G75*
G02*
X70788660Y-143929701I0J249999D01*
G01*
G37*
%TD.AperFunction*%
%TD*%
D14*
%TO.P,J1,7*%
%TO.N,/GND*%
X75105260Y-135430260D03*
%TO.P,J1,6*%
%TO.N,/RST*%
X75105260Y-130350260D03*
%TO.P,J1,5*%
%TO.N,/SDA\u005CSS_2*%
X75105260Y-125270260D03*
%TO.P,J1,4*%
%TO.N,/SCK*%
X75105260Y-120190260D03*
%TO.P,J1,3*%
%TO.N,/MISO*%
X75105260Y-115110260D03*
%TO.P,J1,2*%
%TO.N,/MOSI*%
X75105260Y-110030260D03*
%TO.P,J1,1*%
%TO.N,/3.3V*%
%TA.AperFunction,ComponentPad*%
G36*
G01*
X73555259Y-103910260D02*
X76655261Y-103910260D01*
G75*
G02*
X76905260Y-104160259I0J-249999D01*
G01*
X76905260Y-105740261D01*
G75*
G02*
X76655261Y-105990260I-249999J0D01*
G01*
X73555259Y-105990260D01*
G75*
G02*
X73305260Y-105740261I0J249999D01*
G01*
X73305260Y-104160259D01*
G75*
G02*
X73555259Y-103910260I249999J0D01*
G01*
G37*
%TD.AperFunction*%
%TD*%
%TO.P,J2,1*%
%TO.N,/VIN*%
%TA.AperFunction,ComponentPad*%
G36*
G01*
X114730400Y-71195599D02*
X114730400Y-74295601D01*
G75*
G02*
X114480401Y-74545600I-249999J0D01*
G01*
X112900399Y-74545600D01*
G75*
G02*
X112650400Y-74295601I0J249999D01*
G01*
X112650400Y-71195599D01*
G75*
G02*
X112900399Y-70945600I249999J0D01*
G01*
X114480401Y-70945600D01*
G75*
G02*
X114730400Y-71195599I0J-249999D01*
G01*
G37*
%TD.AperFunction*%
D13*
%TO.P,J2,2*%
%TO.N,/Signal_1*%
X108610400Y-72745600D03*
%TO.P,J2,3*%
%TO.N,/GND*%
X103530400Y-72745600D03*
%TD*%
D11*
%TO.P,J3,1*%
%TO.N,/GND*%
X172930820Y-77401420D03*
D12*
%TO.P,J3,2*%
%TO.N,/5V*%
X170390820Y-77401420D03*
%TO.P,J3,3*%
%TO.N,/VO*%
X167850820Y-77401420D03*
%TO.P,J3,4*%
%TO.N,/RS*%
X165310820Y-77401420D03*
%TO.P,J3,5*%
%TO.N,/GND*%
X162770820Y-77401420D03*
%TO.P,J3,6*%
%TO.N,/E*%
X160230820Y-77401420D03*
%TO.P,J3,7*%
%TO.N,Net-(J3-Pad7)*%
X157690820Y-77401420D03*
%TO.P,J3,8*%
%TO.N,Net-(J3-Pad8)*%
X155150820Y-77401420D03*
%TO.P,J3,9*%
%TO.N,Net-(J3-Pad9)*%
X152610820Y-77401420D03*
%TO.P,J3,10*%
%TO.N,Net-(J3-Pad10)*%
X150070820Y-77401420D03*
%TO.P,J3,11*%
%TO.N,/DB4*%
X147530820Y-77401420D03*
%TO.P,J3,12*%
%TO.N,/DB5*%
X144990820Y-77401420D03*
%TO.P,J3,13*%
%TO.N,/DB6*%
X142450820Y-77401420D03*
%TO.P,J3,14*%
%TO.N,/DB7*%
X139910820Y-77401420D03*
%TO.P,J3,15*%
%TO.N,/5V*%
X137370820Y-77401420D03*
%TO.P,J3,16*%
%TO.N,/GND*%
X134830820Y-77401420D03*
%TD*%
D13*
%TO.P,J4,3*%
%TO.N,/GND*%
X85105240Y-72758300D03*
%TO.P,J4,2*%
%TO.N,/Signal_2*%
X90185240Y-72758300D03*
%TO.P,J4,1*%
%TO.N,/VIN*%
%TA.AperFunction,ComponentPad*%
G36*
G01*
X96305240Y-71208299D02*
X96305240Y-74308301D01*
G75*
G02*
X96055241Y-74558300I-249999J0D01*
G01*
X94475239Y-74558300D01*
G75*
G02*
X94225240Y-74308301I0J249999D01*
G01*
X94225240Y-71208299D01*
G75*
G02*
X94475239Y-70958300I249999J0D01*
G01*
X96055241Y-70958300D01*
G75*
G02*
X96305240Y-71208299I0J-249999D01*
G01*
G37*
%TD.AperFunction*%
%TD*%
D12*
%TO.P,J5,3*%
%TO.N,/GREEN_1*%
X197657720Y-132880100D03*
%TO.P,J5,2*%
%TO.N,/GND*%
X197657720Y-135420100D03*
D11*
%TO.P,J5,1*%
%TO.N,/RED_1*%
X197657720Y-137960100D03*
%TD*%
%TO.P,J7,1*%
%TO.N,/3.3V*%
%TA.AperFunction,ComponentPad*%
G36*
G01*
X73580659Y-65038100D02*
X76680661Y-65038100D01*
G75*
G02*
X76930660Y-65288099I0J-249999D01*
G01*
X76930660Y-66868101D01*
G75*
G02*
X76680661Y-67118100I-249999J0D01*
G01*
X73580659Y-67118100D01*
G75*
G02*
X73330660Y-66868101I0J249999D01*
G01*
X73330660Y-65288099D01*
G75*
G02*
X73580659Y-65038100I249999J0D01*
G01*
G37*
%TD.AperFunction*%
D14*
%TO.P,J7,2*%
%TO.N,/MOSI*%
X75130660Y-71158100D03*
%TO.P,J7,3*%
%TO.N,/MISO*%
X75130660Y-76238100D03*
%TO.P,J7,4*%
%TO.N,/SCK*%
X75130660Y-81318100D03*
%TO.P,J7,5*%
%TO.N,/SDA\u005CSS_1*%
X75130660Y-86398100D03*
%TO.P,J7,6*%
%TO.N,/RST*%
X75130660Y-91478100D03*
%TO.P,J7,7*%
%TO.N,/GND*%
X75130660Y-96558100D03*
%TD*%
%TO.P,J9,1*%
%TO.N,/5V*%
%TA.AperFunction,ComponentPad*%
G36*
G01*
X94461460Y-143965261D02*
X94461460Y-140865259D01*
G75*
G02*
X94711459Y-140615260I249999J0D01*
G01*
X96291461Y-140615260D01*
G75*
G02*
X96541460Y-140865259I0J-249999D01*
G01*
X96541460Y-143965261D01*
G75*
G02*
X96291461Y-144215260I-249999J0D01*
G01*
X94711459Y-144215260D01*
G75*
G02*
X94461460Y-143965261I0J249999D01*
G01*
G37*
%TD.AperFunction*%
D13*
%TO.P,J9,2*%
%TO.N,/TRIG_9*%
X100581460Y-142415260D03*
%TO.P,J9,3*%
%TO.N,/ECHO_9*%
X105661460Y-142415260D03*
%TO.P,J9,4*%
%TO.N,/GND*%
X110741460Y-142415260D03*
%TD*%
D15*
%TO.P,J10,1*%
%TO.N,/VIN*%
X124828300Y-71173340D03*
%TO.P,J10,2*%
%TO.N,/GND*%
%TA.AperFunction,ComponentPad*%
G36*
G01*
X123828300Y-63673340D02*
X125828300Y-63673340D01*
G75*
G02*
X126578300Y-64423340I0J-750000D01*
G01*
X126578300Y-65923340D01*
G75*
G02*
X125828300Y-66673340I-750000J0D01*
G01*
X123828300Y-66673340D01*
G75*
G02*
X123078300Y-65923340I0J750000D01*
G01*
X123078300Y-64423340D01*
G75*
G02*
X123828300Y-63673340I750000J0D01*
G01*
G37*
%TD.AperFunction*%
%TO.P,J10,3*%
%TA.AperFunction,ComponentPad*%
G36*
G01*
X119253300Y-66423340D02*
X121003300Y-66423340D01*
G75*
G02*
X121878300Y-67298340I0J-875000D01*
G01*
X121878300Y-69048340D01*
G75*
G02*
X121003300Y-69923340I-875000J0D01*
G01*
X119253300Y-69923340D01*
G75*
G02*
X118378300Y-69048340I0J875000D01*
G01*
X118378300Y-67298340D01*
G75*
G02*
X119253300Y-66423340I875000J0D01*
G01*
G37*
%TD.AperFunction*%
%TD*%
%TO.P,J11,1*%
%TO.N,/GND*%
%TA.AperFunction,ComponentPad*%
G36*
G01*
X205576040Y-67156999D02*
X205576040Y-70257001D01*
G75*
G02*
X205326041Y-70507000I-249999J0D01*
G01*
X203746039Y-70507000D01*
G75*
G02*
X203496040Y-70257001I0J249999D01*
G01*
X203496040Y-67156999D01*
G75*
G02*
X203746039Y-66907000I249999J0D01*
G01*
X205326041Y-66907000D01*
G75*
G02*
X205576040Y-67156999I0J-249999D01*
G01*
G37*
%TD.AperFunction*%
D13*
%TO.P,J11,2*%
%TO.N,/VIN*%
X199456040Y-68707000D03*
%TD*%
%TO.P,J12,1*%
%TO.N,/5V*%
%TA.AperFunction,ComponentPad*%
G36*
G01*
X164966780Y-143947481D02*
X164966780Y-140847479D01*
G75*
G02*
X165216779Y-140597480I249999J0D01*
G01*
X166796781Y-140597480D01*
G75*
G02*
X167046780Y-140847479I0J-249999D01*
G01*
X167046780Y-143947481D01*
G75*
G02*
X166796781Y-144197480I-249999J0D01*
G01*
X165216779Y-144197480D01*
G75*
G02*
X164966780Y-143947481I0J249999D01*
G01*
G37*
%TD.AperFunction*%
%TO.P,J12,2*%
%TO.N,/TRIG_6*%
X171086780Y-142397480D03*
%TO.P,J12,3*%
%TO.N,/ECHO_6*%
X176166780Y-142397480D03*
%TO.P,J12,4*%
%TO.N,/GND*%
X181246780Y-142397480D03*
%TD*%
%TO.P,J13,4*%
%TO.N,/GND*%
X157637480Y-142435580D03*
%TO.P,J13,3*%
%TO.N,/ECHO_7*%
X152557480Y-142435580D03*
%TO.P,J13,2*%
%TO.N,/TRIG_7*%
X147477480Y-142435580D03*
%TO.P,J13,1*%
%TO.N,/5V*%
%TA.AperFunction,ComponentPad*%
G36*
G01*
X141357480Y-143985581D02*
X141357480Y-140885579D01*
G75*
G02*
X141607479Y-140635580I249999J0D01*
G01*
X143187481Y-140635580D01*
G75*
G02*
X143437480Y-140885579I0J-249999D01*
G01*
X143437480Y-143985581D01*
G75*
G02*
X143187481Y-144235580I-249999J0D01*
G01*
X141607479Y-144235580D01*
G75*
G02*
X141357480Y-143985581I0J249999D01*
G01*
G37*
%TD.AperFunction*%
%TD*%
%TO.P,J15,4*%
%TO.N,/GND*%
X204713840Y-142400020D03*
%TO.P,J15,3*%
%TO.N,/ECHO_5*%
X199633840Y-142400020D03*
%TO.P,J15,2*%
%TO.N,/TRIG_5*%
X194553840Y-142400020D03*
%TO.P,J15,1*%
%TO.N,/5V*%
%TA.AperFunction,ComponentPad*%
G36*
G01*
X188433840Y-143950021D02*
X188433840Y-140850019D01*
G75*
G02*
X188683839Y-140600020I249999J0D01*
G01*
X190263841Y-140600020D01*
G75*
G02*
X190513840Y-140850019I0J-249999D01*
G01*
X190513840Y-143950021D01*
G75*
G02*
X190263841Y-144200020I-249999J0D01*
G01*
X188683839Y-144200020D01*
G75*
G02*
X188433840Y-143950021I0J249999D01*
G01*
G37*
%TD.AperFunction*%
%TD*%
%TO.P,J16,1*%
%TO.N,/5V*%
%TA.AperFunction,ComponentPad*%
G36*
G01*
X213088821Y-102584120D02*
X209988819Y-102584120D01*
G75*
G02*
X209738820Y-102334121I0J249999D01*
G01*
X209738820Y-100754119D01*
G75*
G02*
X209988819Y-100504120I249999J0D01*
G01*
X213088821Y-100504120D01*
G75*
G02*
X213338820Y-100754119I0J-249999D01*
G01*
X213338820Y-102334121D01*
G75*
G02*
X213088821Y-102584120I-249999J0D01*
G01*
G37*
%TD.AperFunction*%
D14*
%TO.P,J16,2*%
%TO.N,/TRIG_2*%
X211538820Y-96464120D03*
%TO.P,J16,3*%
%TO.N,/ECHO_2*%
X211538820Y-91384120D03*
%TO.P,J16,4*%
%TO.N,/GND*%
X211538820Y-86304120D03*
%TD*%
%TO.P,J17,4*%
%TO.N,/GND*%
X211533740Y-109900720D03*
%TO.P,J17,3*%
%TO.N,/ECHO_3*%
X211533740Y-114980720D03*
%TO.P,J17,2*%
%TO.N,/TRIG_3*%
X211533740Y-120060720D03*
%TO.P,J17,1*%
%TO.N,/5V*%
%TA.AperFunction,ComponentPad*%
G36*
G01*
X213083741Y-126180720D02*
X209983739Y-126180720D01*
G75*
G02*
X209733740Y-125930721I0J249999D01*
G01*
X209733740Y-124350719D01*
G75*
G02*
X209983739Y-124100720I249999J0D01*
G01*
X213083741Y-124100720D01*
G75*
G02*
X213333740Y-124350719I0J-249999D01*
G01*
X213333740Y-125930721D01*
G75*
G02*
X213083741Y-126180720I-249999J0D01*
G01*
G37*
%TD.AperFunction*%
%TD*%
%TO.P,J18,1*%
%TO.N,/5V*%
%TA.AperFunction,ComponentPad*%
G36*
G01*
X212908481Y-149873840D02*
X209808479Y-149873840D01*
G75*
G02*
X209558480Y-149623841I0J249999D01*
G01*
X209558480Y-148043839D01*
G75*
G02*
X209808479Y-147793840I249999J0D01*
G01*
X212908481Y-147793840D01*
G75*
G02*
X213158480Y-148043839I0J-249999D01*
G01*
X213158480Y-149623841D01*
G75*
G02*
X212908481Y-149873840I-249999J0D01*
G01*
G37*
%TD.AperFunction*%
%TO.P,J18,2*%
%TO.N,/TRIG_4*%
X211358480Y-143753840D03*
%TO.P,J18,3*%
%TO.N,/ECHO_4*%
X211358480Y-138673840D03*
%TO.P,J18,4*%
%TO.N,/GND*%
X211358480Y-133593840D03*
%TD*%
%TO.P,J19,4*%
%TO.N,/GND*%
X211584540Y-62257940D03*
%TO.P,J19,3*%
%TO.N,/ECHO_1*%
X211584540Y-67337940D03*
%TO.P,J19,2*%
%TO.N,/TRIG_1*%
X211584540Y-72417940D03*
%TO.P,J19,1*%
%TO.N,/5V*%
%TA.AperFunction,ComponentPad*%
G36*
G01*
X213134541Y-78537940D02*
X210034539Y-78537940D01*
G75*
G02*
X209784540Y-78287941I0J249999D01*
G01*
X209784540Y-76707939D01*
G75*
G02*
X210034539Y-76457940I249999J0D01*
G01*
X213134541Y-76457940D01*
G75*
G02*
X213384540Y-76707939I0J-249999D01*
G01*
X213384540Y-78287941D01*
G75*
G02*
X213134541Y-78537940I-249999J0D01*
G01*
G37*
%TD.AperFunction*%
%TD*%
D16*
%TO.P,RV1,1*%
%TO.N,/5V*%
X173652180Y-72793860D03*
%TO.P,RV1,2*%
%TO.N,/VO*%
X171112180Y-72793860D03*
%TO.P,RV1,3*%
%TO.N,/GND*%
X168572180Y-72793860D03*
%TD*%
D17*
%TO.P,U1,1*%
%TO.N,Net-(U1-Pad1)*%
X180647340Y-37348160D03*
%TO.P,U1,2*%
%TO.N,Net-(U1-Pad2)*%
X178107340Y-37348160D03*
%TO.P,U1,3*%
%TO.N,Net-(U1-Pad3)*%
X175567340Y-37348160D03*
%TO.P,U1,4*%
%TO.N,Net-(U1-Pad4)*%
X173027340Y-37348160D03*
%TO.P,U1,5*%
%TO.N,Net-(U1-Pad5)*%
X170487340Y-37348160D03*
%TO.P,U1,6*%
%TO.N,Net-(U1-Pad6)*%
X167947340Y-37348160D03*
%TO.P,U1,7*%
%TO.N,Net-(U1-Pad7)*%
X165407340Y-37348160D03*
%TO.P,U1,8*%
%TO.N,Net-(U1-Pad8)*%
X162867340Y-37348160D03*
%TO.P,U1,9*%
%TO.N,Net-(U1-Pad9)*%
X160327340Y-37348160D03*
%TO.P,U1,10*%
%TO.N,Net-(U1-Pad10)*%
X157787340Y-37348160D03*
%TO.P,U1,11*%
%TO.N,Net-(U1-Pad11)*%
X155247340Y-37348160D03*
%TO.P,U1,12*%
%TO.N,/EN_ESP*%
X152707340Y-37348160D03*
%TO.P,U1,13*%
%TO.N,/RST_ESP*%
X150167340Y-37348160D03*
%TO.P,U1,14*%
%TO.N,Net-(U1-Pad14)*%
X147627340Y-37348160D03*
%TO.P,U1,15*%
%TO.N,/VIN*%
X145087340Y-37348160D03*
%TO.P,U1,16*%
%TO.N,Net-(U1-Pad16)*%
X145087340Y-65288160D03*
%TO.P,U1,17*%
%TO.N,/GND*%
X147627340Y-65288160D03*
%TO.P,U1,18*%
%TO.N,/RX_MCU*%
X150167340Y-65288160D03*
%TO.P,U1,19*%
%TO.N,/TX_MCU*%
X152707340Y-65288160D03*
%TO.P,U1,20*%
%TO.N,Net-(U1-Pad20)*%
X155247340Y-65288160D03*
%TO.P,U1,21*%
%TO.N,Net-(U1-Pad21)*%
X157787340Y-65288160D03*
%TO.P,U1,22*%
%TO.N,Net-(U1-Pad22)*%
X160327340Y-65288160D03*
%TO.P,U1,23*%
%TO.N,Net-(U1-Pad23)*%
X162867340Y-65288160D03*
%TO.P,U1,24*%
%TO.N,Net-(U1-Pad24)*%
X165407340Y-65288160D03*
%TO.P,U1,25*%
%TO.N,Net-(U1-Pad25)*%
X167947340Y-65288160D03*
%TO.P,U1,26*%
%TO.N,Net-(U1-Pad26)*%
X170487340Y-65288160D03*
%TO.P,U1,27*%
%TO.N,Net-(U1-Pad27)*%
X173027340Y-65288160D03*
%TO.P,U1,28*%
%TO.N,Net-(U1-Pad28)*%
X175567340Y-65288160D03*
%TO.P,U1,29*%
%TO.N,Net-(U1-Pad29)*%
X178107340Y-65288160D03*
%TO.P,U1,30*%
%TO.N,Net-(U1-Pad30)*%
X180647340Y-65288160D03*
%TD*%
D18*
%TO.P,D1,1*%
%TO.N,/5V*%
X147274280Y-72113140D03*
D19*
%TO.P,D1,2*%
%TO.N,/VIN*%
X132034280Y-72113140D03*
%TD*%
D20*
%TO.N,/GND*%
X119133620Y-74526140D03*
X119029480Y-71045600D03*
X178300380Y-72925940D03*
X188330840Y-72656700D03*
X72403440Y-96451420D03*
X69003440Y-96542860D03*
%TO.N,/RST*%
X86172040Y-130251200D03*
X86268560Y-119354600D03*
%TO.N,/SDA\u005CSS_2*%
X127342900Y-91117420D03*
X127162560Y-97028000D03*
%TO.N,/SCK*%
X183774080Y-123847860D03*
X165872160Y-123852940D03*
X120053100Y-123842780D03*
X102123848Y-123767188D03*
X92031820Y-90596720D03*
X91998800Y-97579180D03*
X91925140Y-119240300D03*
X91925140Y-124473450D03*
%TO.N,/MISO*%
X184053480Y-121053860D03*
X166093140Y-121061480D03*
X123461780Y-121079260D03*
X104104440Y-121079260D03*
X81186020Y-83807300D03*
X81300320Y-96072960D03*
%TO.N,/MOSI*%
X166163520Y-118656100D03*
X126174500Y-118678960D03*
X106502200Y-118678960D03*
X185968640Y-118656100D03*
%TO.N,/3.3V*%
X92199460Y-134372872D03*
X110048040Y-134581900D03*
%TO.N,/5V*%
X201485500Y-56804560D03*
X197756040Y-56723280D03*
X142301568Y-133917028D03*
X142387320Y-138852390D03*
%TO.N,/RED_2*%
X200296780Y-133365240D03*
X200367900Y-137825480D03*
%TO.N,/EN_ESP*%
X184604660Y-77784960D03*
X179466240Y-77470000D03*
%TO.N,/RX_MCU*%
X134165340Y-61064140D03*
X130334280Y-61003180D03*
X138772900Y-88247220D03*
X78366620Y-61356240D03*
X78437814Y-65683276D03*
X128043940Y-88005920D03*
%TO.N,/TX_MCU*%
X134007860Y-58386980D03*
X130334280Y-58221880D03*
X141137640Y-85818980D03*
X80888840Y-65727580D03*
X80678020Y-59715400D03*
X129166620Y-85504020D03*
%TD*%
D21*
%TO.N,/GND*%
X204536040Y-68707000D02*
X204536040Y-63685420D01*
X204536040Y-63685420D02*
X206204820Y-62016640D01*
X211343240Y-62016640D02*
X211584540Y-62257940D01*
X206204820Y-62016640D02*
X211343240Y-62016640D01*
X110741460Y-140289280D02*
X110741460Y-142415260D01*
X120520460Y-139087860D02*
X111942880Y-139087860D01*
X111942880Y-139087860D02*
X110741460Y-140289280D01*
X121589800Y-140157200D02*
X120520460Y-139087860D01*
X134188200Y-144170400D02*
X132168900Y-146189700D01*
X134188200Y-142420340D02*
X134188200Y-144170400D01*
X132168900Y-146189700D02*
X123418600Y-146189700D01*
X123418600Y-146189700D02*
X121589800Y-144360900D01*
X121589800Y-144360900D02*
X121589800Y-140157200D01*
X213166960Y-133593840D02*
X216042240Y-136469120D01*
X216042240Y-144686020D02*
X214149940Y-146578320D01*
X211358480Y-133593840D02*
X213166960Y-133593840D01*
X216042240Y-136469120D02*
X216042240Y-144686020D01*
X209410300Y-146578320D02*
X214149940Y-146578320D01*
X209392520Y-146596100D02*
X209410300Y-146578320D01*
X204713840Y-146517360D02*
X204635100Y-146596100D01*
X204713840Y-142400020D02*
X204713840Y-146517360D01*
X204635100Y-146596100D02*
X209392520Y-146596100D01*
X213629240Y-62257940D02*
X211584540Y-62257940D01*
X215071960Y-63700660D02*
X213629240Y-62257940D01*
X215071960Y-73050400D02*
X215071960Y-63700660D01*
X212907880Y-75214480D02*
X215071960Y-73050400D01*
X208752440Y-76018360D02*
X209556320Y-75214480D01*
X209556320Y-75214480D02*
X212907880Y-75214480D01*
X211538820Y-80530700D02*
X211056220Y-80048100D01*
X211538820Y-86304120D02*
X211538820Y-80530700D01*
X211056220Y-80048100D02*
X209565240Y-80048100D01*
X209565240Y-80048100D02*
X208752440Y-79235300D01*
X208752440Y-79235300D02*
X208752440Y-76018360D01*
X85105240Y-72758300D02*
X85105240Y-69466460D01*
X103530400Y-72745600D02*
X103530400Y-68356480D01*
X103530400Y-68356480D02*
X103347260Y-68173340D01*
X103347260Y-68173340D02*
X120128300Y-68173340D01*
X85539320Y-68173340D02*
X85105240Y-67739260D01*
X103347260Y-68173340D02*
X85539320Y-68173340D01*
X85105240Y-67739260D02*
X85105240Y-72758300D01*
X146204940Y-62890400D02*
X147627340Y-64312800D01*
X138325860Y-62890400D02*
X146204940Y-62890400D01*
X134940040Y-66276220D02*
X138325860Y-62890400D01*
X147627340Y-64312800D02*
X147627340Y-65288160D01*
X213878160Y-86304120D02*
X211538820Y-86304120D01*
X215473280Y-87899240D02*
X213878160Y-86304120D01*
X213845140Y-98958400D02*
X215473280Y-97330260D01*
X209369660Y-98958400D02*
X213845140Y-98958400D01*
X215473280Y-97330260D02*
X215473280Y-87899240D01*
X208394300Y-99933760D02*
X209369660Y-98958400D01*
X208394300Y-103461820D02*
X208394300Y-99933760D01*
X211533740Y-106575860D02*
X210776820Y-105818940D01*
X211533740Y-109900720D02*
X211533740Y-106575860D01*
X210776820Y-105818940D02*
X210751420Y-105818940D01*
X210751420Y-105818940D02*
X208394300Y-103461820D01*
X157637480Y-139397740D02*
X157637480Y-142435580D01*
X168523920Y-139771120D02*
X167322500Y-138569700D01*
X181246780Y-144241520D02*
X179941220Y-145547080D01*
X167322500Y-138569700D02*
X158465520Y-138569700D01*
X181246780Y-142397480D02*
X181246780Y-144241520D01*
X158465520Y-138569700D02*
X157637480Y-139397740D01*
X169349420Y-145547080D02*
X168523920Y-144721580D01*
X179941220Y-145547080D02*
X169349420Y-145547080D01*
X168523920Y-144721580D02*
X168523920Y-139771120D01*
X134940040Y-77292200D02*
X134830820Y-77401420D01*
X134940040Y-66276220D02*
X134940040Y-77292200D01*
X168572180Y-72793860D02*
X165615620Y-72793860D01*
X162770820Y-75638660D02*
X162770820Y-77401420D01*
X165615620Y-72793860D02*
X162770820Y-75638660D01*
X120128300Y-66587100D02*
X120128300Y-68173340D01*
X124828300Y-65173340D02*
X121542060Y-65173340D01*
X121542060Y-65173340D02*
X120128300Y-66587100D01*
X197688200Y-135389620D02*
X197657720Y-135420100D01*
X203136500Y-135389620D02*
X197688200Y-135389620D01*
X215765380Y-111332360D02*
X214333740Y-109900720D01*
X215765380Y-121493280D02*
X215765380Y-111332360D01*
X208780380Y-131015740D02*
X208780380Y-123713240D01*
X208780380Y-123713240D02*
X210121500Y-122372120D01*
X211358480Y-133593840D02*
X208780380Y-131015740D01*
X210121500Y-122372120D02*
X214886540Y-122372120D01*
X214333740Y-109900720D02*
X211533740Y-109900720D01*
X214886540Y-122372120D02*
X215765380Y-121493280D01*
X185872120Y-139486640D02*
X182961280Y-142397480D01*
X204635100Y-146596100D02*
X193233040Y-146596100D01*
X182961280Y-142397480D02*
X181246780Y-142397480D01*
X192280540Y-145643600D02*
X192280540Y-141277340D01*
X193233040Y-146596100D02*
X192280540Y-145643600D01*
X192280540Y-141277340D02*
X190489840Y-139486640D01*
X190489840Y-139486640D02*
X185872120Y-139486640D01*
X205966060Y-136408160D02*
X204947520Y-135389620D01*
X204947520Y-135389620D02*
X203136500Y-135389620D01*
X205966060Y-139402820D02*
X205966060Y-136408160D01*
X204713840Y-142400020D02*
X204713840Y-140655040D01*
X204713840Y-140655040D02*
X205966060Y-139402820D01*
X134830820Y-77401420D02*
X130937000Y-77401420D01*
X130937000Y-77401420D02*
X128061720Y-74526140D01*
X128061720Y-74526140D02*
X119133620Y-74526140D01*
X119029480Y-69272160D02*
X120128300Y-68173340D01*
X119029480Y-71045600D02*
X119029480Y-69272160D01*
X87068660Y-140766800D02*
X87068660Y-142379700D01*
X88630760Y-139204700D02*
X87068660Y-140766800D01*
X96723200Y-139204700D02*
X88630760Y-139204700D01*
X98102420Y-140583920D02*
X96723200Y-139204700D01*
X110741460Y-145215260D02*
X109546040Y-146410680D01*
X110741460Y-142415260D02*
X110741460Y-145215260D01*
X109546040Y-146410680D02*
X100401120Y-146410680D01*
X100401120Y-146410680D02*
X98102420Y-144111980D01*
X98102420Y-144111980D02*
X98102420Y-140583920D01*
X88783160Y-80058260D02*
X85105240Y-76380340D01*
X122374660Y-80058260D02*
X88783160Y-80058260D01*
X123253500Y-82008980D02*
X123253500Y-80937100D01*
X85105240Y-76380340D02*
X85105240Y-72758300D01*
X123253500Y-80937100D02*
X122374660Y-80058260D01*
X204536040Y-70891400D02*
X204536040Y-68707000D01*
X188330840Y-72656700D02*
X202770740Y-72656700D01*
X202770740Y-72656700D02*
X204536040Y-70891400D01*
X82105500Y-63182500D02*
X70982840Y-63182500D01*
X76591160Y-146395440D02*
X85102700Y-146395440D01*
X87068660Y-144429480D02*
X87068660Y-142379700D01*
X70982840Y-63182500D02*
X67647820Y-66517520D01*
X85105240Y-67739260D02*
X85105240Y-66182240D01*
X85105240Y-66182240D02*
X82105500Y-63182500D01*
X74452480Y-140314680D02*
X74452480Y-144256760D01*
X74452480Y-144256760D02*
X76591160Y-146395440D01*
X85102700Y-146395440D02*
X87068660Y-144429480D01*
X74261980Y-140258800D02*
X74317860Y-140314680D01*
X75105260Y-135430260D02*
X69446140Y-135430260D01*
X69446140Y-135430260D02*
X69439790Y-135436610D01*
X67647820Y-133644640D02*
X69439790Y-135436610D01*
X69439790Y-135436610D02*
X74317860Y-140314680D01*
X176443640Y-72925940D02*
X178300380Y-72925940D01*
X172930820Y-77401420D02*
X172930820Y-76438760D01*
X172930820Y-76438760D02*
X176443640Y-72925940D01*
X74513440Y-96558100D02*
X75130660Y-96558100D01*
X75130660Y-96558100D02*
X72510120Y-96558100D01*
X72510120Y-96558100D02*
X72403440Y-96451420D01*
X68828180Y-96367600D02*
X67647820Y-96367600D01*
X69003440Y-96542860D02*
X68828180Y-96367600D01*
X67647820Y-66517520D02*
X67647820Y-96367600D01*
X67647820Y-96367600D02*
X67647820Y-133644640D01*
X139456160Y-137152380D02*
X134188200Y-142420340D01*
X144299940Y-137152380D02*
X139456160Y-137152380D01*
X145046700Y-137899140D02*
X144299940Y-137152380D01*
X157637480Y-142435580D02*
X157637480Y-145235580D01*
X157637480Y-145235580D02*
X156703680Y-146169380D01*
X156703680Y-146169380D02*
X147213320Y-146169380D01*
X147213320Y-146169380D02*
X145046700Y-144002760D01*
X145046700Y-144002760D02*
X145046700Y-137899140D01*
X169933620Y-70637400D02*
X177495200Y-70637400D01*
X177495200Y-70637400D02*
X178300380Y-71442580D01*
X168572180Y-72793860D02*
X168572180Y-71998840D01*
X178300380Y-71442580D02*
X178300380Y-72925940D01*
X168572180Y-71998840D02*
X169933620Y-70637400D01*
%TO.N,/RST*%
X75105260Y-130350260D02*
X75105260Y-130304540D01*
X75105260Y-130350260D02*
X86072980Y-130350260D01*
X86072980Y-130350260D02*
X86172040Y-130251200D01*
X86268560Y-119354600D02*
X86268560Y-94980760D01*
X138493500Y-82008980D02*
X138493500Y-85892640D01*
X138493500Y-85892640D02*
X129184400Y-95201740D01*
X129184400Y-95201740D02*
X86489540Y-95201740D01*
X84472780Y-91478100D02*
X75130660Y-91478100D01*
X86268560Y-94980760D02*
X86268560Y-93273880D01*
X86268560Y-93273880D02*
X84472780Y-91478100D01*
%TO.N,/SDA\u005CSS_2*%
X76217780Y-127861060D02*
X100434140Y-127861060D01*
X127162560Y-101132640D02*
X127162560Y-97028000D01*
X100434140Y-127861060D02*
X127162560Y-101132640D01*
X75105260Y-125270260D02*
X75105260Y-126748540D01*
X75105260Y-126748540D02*
X76217780Y-127861060D01*
X128402080Y-91117420D02*
X127342900Y-91117420D01*
X133413500Y-82008980D02*
X133413500Y-86106000D01*
X133413500Y-86106000D02*
X128402080Y-91117420D01*
%TO.N,/SCK*%
X165872160Y-123852940D02*
X120063260Y-123852940D01*
X120063260Y-123852940D02*
X120053100Y-123842780D01*
X187162440Y-123847860D02*
X183774080Y-123847860D01*
X190817500Y-122648980D02*
X188361320Y-122648980D01*
X188361320Y-122648980D02*
X187162440Y-123847860D01*
X102123848Y-123767188D02*
X99780036Y-126111000D01*
X75130660Y-81318100D02*
X81196180Y-87383620D01*
X81196180Y-87383620D02*
X86992460Y-87383620D01*
X86992460Y-87383620D02*
X90124280Y-90515440D01*
X90124280Y-90515440D02*
X92326460Y-90515440D01*
X91925140Y-126111000D02*
X91981020Y-126166880D01*
X91112340Y-126111000D02*
X91925140Y-126111000D01*
X99780036Y-126111000D02*
X91112340Y-126111000D01*
X91925140Y-98104960D02*
X91925140Y-119240300D01*
X92443300Y-97586800D02*
X91925140Y-98104960D01*
X78394560Y-120190260D02*
X75105260Y-120190260D01*
X91112340Y-126111000D02*
X84315300Y-126111000D01*
X84315300Y-126111000D02*
X78394560Y-120190260D01*
X91925140Y-126111000D02*
X91925140Y-124473450D01*
%TO.N,/MISO*%
X166093140Y-121061480D02*
X123479560Y-121061480D01*
X123479560Y-121061480D02*
X123461780Y-121079260D01*
X184147460Y-120959880D02*
X184053480Y-121053860D01*
X188648340Y-120959880D02*
X184147460Y-120959880D01*
X190817500Y-120108980D02*
X189499240Y-120108980D01*
X189499240Y-120108980D02*
X188648340Y-120959880D01*
X81186020Y-83251040D02*
X81186020Y-83807300D01*
X75130660Y-76238100D02*
X75130660Y-77195680D01*
X75130660Y-77195680D02*
X81186020Y-83251040D01*
X72377300Y-112382300D02*
X75105260Y-115110260D01*
X81300320Y-106164380D02*
X80035400Y-107429300D01*
X73802240Y-107429300D02*
X72377300Y-108854240D01*
X81300320Y-96072960D02*
X81300320Y-106164380D01*
X80035400Y-107429300D02*
X73802240Y-107429300D01*
X72377300Y-108854240D02*
X72377300Y-112382300D01*
X101297740Y-121079260D02*
X104104440Y-121079260D01*
X99603560Y-122773440D02*
X101297740Y-121079260D01*
X84005420Y-122773440D02*
X99603560Y-122773440D01*
X75105260Y-115110260D02*
X76342240Y-115110260D01*
X76342240Y-115110260D02*
X84005420Y-122773440D01*
%TO.N,/MOSI*%
X166163520Y-118656100D02*
X126197360Y-118656100D01*
X126197360Y-118656100D02*
X126174500Y-118678960D01*
X193357500Y-120108980D02*
X190904613Y-117656093D01*
X186968647Y-117656093D02*
X185968640Y-118656100D01*
X190904613Y-117656093D02*
X186968647Y-117656093D01*
X72402700Y-73886060D02*
X72402700Y-93050360D01*
X82677000Y-93972380D02*
X84358480Y-95653860D01*
X75130660Y-71158100D02*
X72402700Y-73886060D01*
X72402700Y-93050360D02*
X73324720Y-93972380D01*
X73324720Y-93972380D02*
X82677000Y-93972380D01*
X84223860Y-110030260D02*
X84358480Y-109895640D01*
X75105260Y-110030260D02*
X84223860Y-110030260D01*
X84358480Y-95653860D02*
X84358480Y-109895640D01*
X98541840Y-121168160D02*
X101031040Y-118678960D01*
X85318600Y-121168160D02*
X98541840Y-121168160D01*
X84358480Y-109895640D02*
X84358480Y-120208040D01*
X101031040Y-118678960D02*
X106502200Y-118678960D01*
X84358480Y-120208040D02*
X85318600Y-121168160D01*
%TO.N,/3.3V*%
X92191092Y-134381240D02*
X92199460Y-134372872D01*
X92047808Y-134221220D02*
X83324700Y-134221220D01*
X92199460Y-134372872D02*
X92047808Y-134221220D01*
X83324700Y-134221220D02*
X82252820Y-133149340D01*
X72798940Y-133149340D02*
X70703440Y-131053840D01*
X82252820Y-133149340D02*
X72798940Y-133149340D01*
X75130660Y-66078100D02*
X72133460Y-66078100D01*
X72133460Y-66078100D02*
X70703440Y-67508120D01*
X70703440Y-131053840D02*
X70703440Y-107734100D01*
X70703440Y-107734100D02*
X70703440Y-106464100D01*
X71173340Y-104950260D02*
X70703440Y-105420160D01*
X75105260Y-104950260D02*
X71173340Y-104950260D01*
X70703440Y-67508120D02*
X70703440Y-105420160D01*
X70703440Y-105420160D02*
X70703440Y-107734100D01*
X132397500Y-130268980D02*
X132397500Y-131737100D01*
X129552700Y-134581900D02*
X110048040Y-134581900D01*
X132397500Y-131737100D02*
X129552700Y-134581900D01*
%TO.N,/5V*%
X71828660Y-142379700D02*
X71828660Y-146060160D01*
X71828660Y-146060160D02*
X74602340Y-148833840D01*
X189473840Y-148760180D02*
X189400180Y-148833840D01*
X189473840Y-142400020D02*
X189473840Y-148760180D01*
X189400180Y-148833840D02*
X211358480Y-148833840D01*
X166006780Y-148755100D02*
X165928040Y-148833840D01*
X166006780Y-142397480D02*
X166006780Y-148755100D01*
X165928040Y-148833840D02*
X189400180Y-148833840D01*
X118948200Y-148717000D02*
X119065040Y-148833840D01*
X118948200Y-142420340D02*
X118948200Y-148717000D01*
X142397480Y-142435580D02*
X142397480Y-148640800D01*
X142397480Y-148640800D02*
X142204440Y-148833840D01*
X119065040Y-148833840D02*
X142204440Y-148833840D01*
X142204440Y-148833840D02*
X165928040Y-148833840D01*
X95501460Y-142415260D02*
X95501460Y-148402040D01*
X95501460Y-148402040D02*
X95933260Y-148833840D01*
X74602340Y-148833840D02*
X95933260Y-148833840D01*
X95933260Y-148833840D02*
X119065040Y-148833840D01*
X211358480Y-148833840D02*
X215717120Y-148833840D01*
X215717120Y-148833840D02*
X220479620Y-144071340D01*
X220157040Y-101544120D02*
X220479620Y-101221540D01*
X211538820Y-101544120D02*
X220157040Y-101544120D01*
X220479620Y-101221540D02*
X220479620Y-80540860D01*
X220444060Y-125140720D02*
X220479620Y-125176280D01*
X220479620Y-144071340D02*
X220479620Y-125176280D01*
X211533740Y-125140720D02*
X220444060Y-125140720D01*
X220479620Y-125176280D02*
X220479620Y-101221540D01*
X220479620Y-65328800D02*
X220479620Y-65206880D01*
X220479620Y-65206880D02*
X212077300Y-56804560D01*
X212077300Y-56804560D02*
X201485500Y-56804560D01*
X220479620Y-80540860D02*
X220479620Y-77370940D01*
X220352620Y-77497940D02*
X220479620Y-77370940D01*
X211584540Y-77497940D02*
X220352620Y-77497940D01*
X220479620Y-77370940D02*
X220479620Y-65328800D01*
X137370820Y-77401420D02*
X137370820Y-74470260D01*
X139727940Y-72113140D02*
X147274280Y-72113140D01*
X137370820Y-74470260D02*
X139727940Y-72113140D01*
X170390820Y-76055220D02*
X170390820Y-77401420D01*
X173652180Y-72793860D02*
X170390820Y-76055220D01*
X170324780Y-79994760D02*
X167797480Y-79994760D01*
X170390820Y-77401420D02*
X170390820Y-79928720D01*
X170390820Y-79928720D02*
X170324780Y-79994760D01*
X142301568Y-130524912D02*
X142557500Y-130268980D01*
X142301568Y-133917028D02*
X142301568Y-130524912D01*
X142397480Y-142435580D02*
X142397480Y-138862550D01*
X142397480Y-138862550D02*
X142387320Y-138852390D01*
X197570620Y-56908700D02*
X197756040Y-56723280D01*
X165811200Y-83472020D02*
X166880540Y-84541360D01*
X186532520Y-81612740D02*
X186532520Y-71432420D01*
X191670940Y-60792360D02*
X195554600Y-56908700D01*
X165811200Y-80810100D02*
X165811200Y-83472020D01*
X167797480Y-79994760D02*
X166626540Y-79994760D01*
X166880540Y-84541360D02*
X183603900Y-84541360D01*
X166626540Y-79994760D02*
X165811200Y-80810100D01*
X183603900Y-84541360D02*
X186532520Y-81612740D01*
X186532520Y-71432420D02*
X191670940Y-66294000D01*
X191670940Y-66294000D02*
X191670940Y-60792360D01*
X195554600Y-56908700D02*
X197570620Y-56908700D01*
X180594000Y-73687940D02*
X174287180Y-79994760D01*
X147274280Y-72113140D02*
X163489640Y-72113140D01*
X174287180Y-79994760D02*
X167797480Y-79994760D01*
X178338480Y-68961000D02*
X180594000Y-71216520D01*
X163489640Y-72113140D02*
X166641780Y-68961000D01*
X166641780Y-68961000D02*
X178338480Y-68961000D01*
X180594000Y-71216520D02*
X180594000Y-73687940D01*
%TO.N,/Signal_1*%
X130980180Y-81902300D02*
X130873500Y-82008980D01*
X108610400Y-75534520D02*
X109880400Y-76804520D01*
X126222760Y-76804520D02*
X130980180Y-81561940D01*
X108610400Y-72745600D02*
X108610400Y-75534520D01*
X109880400Y-76804520D02*
X126222760Y-76804520D01*
X130980180Y-81561940D02*
X130980180Y-81902300D01*
%TO.N,/VO*%
X167850820Y-76055220D02*
X167850820Y-77401420D01*
X171112180Y-72793860D02*
X167850820Y-76055220D01*
%TO.N,/RS*%
X155257500Y-82008980D02*
X156902289Y-80364191D01*
X156902289Y-80364191D02*
X162348049Y-80364191D01*
X162348049Y-80364191D02*
X165310820Y-77401420D01*
%TO.N,/E*%
X160230820Y-78701900D02*
X160230820Y-77401420D01*
X159768540Y-79164180D02*
X160230820Y-78701900D01*
X155536900Y-79164180D02*
X159768540Y-79164180D01*
X152717500Y-82008980D02*
X152717500Y-81983580D01*
X152717500Y-81983580D02*
X155536900Y-79164180D01*
%TO.N,/DB4*%
X147530820Y-77401420D02*
X147530820Y-78386940D01*
X150177500Y-81033620D02*
X150177500Y-82008980D01*
X147530820Y-78386940D02*
X150177500Y-81033620D01*
%TO.N,/DB5*%
X147637500Y-81170780D02*
X147637500Y-82008980D01*
X144990820Y-77401420D02*
X144990820Y-78524100D01*
X144990820Y-78524100D02*
X147637500Y-81170780D01*
%TO.N,/DB6*%
X142450820Y-77401420D02*
X142450820Y-78244700D01*
X145097500Y-80891380D02*
X145097500Y-82008980D01*
X142450820Y-78244700D02*
X145097500Y-80891380D01*
%TO.N,/DB7*%
X142557500Y-80886300D02*
X142557500Y-82008980D01*
X139910820Y-77401420D02*
X139910820Y-78239620D01*
X139910820Y-78239620D02*
X142557500Y-80886300D01*
%TO.N,/Signal_2*%
X90185240Y-75940920D02*
X90185240Y-72758300D01*
X125026420Y-78343760D02*
X92588080Y-78343760D01*
X92588080Y-78343760D02*
X90185240Y-75940920D01*
X128333500Y-82008980D02*
X128333500Y-81650840D01*
X128333500Y-81650840D02*
X125026420Y-78343760D01*
%TO.N,/GREEN_1*%
X197068440Y-132290820D02*
X197657720Y-132880100D01*
X193357500Y-115028980D02*
X195168520Y-115028980D01*
X197068440Y-116928900D02*
X197068440Y-132290820D01*
X195168520Y-115028980D02*
X197068440Y-116928900D01*
%TO.N,/RED_1*%
X195496180Y-135798560D02*
X197657720Y-137960100D01*
X195496180Y-118770400D02*
X195496180Y-135798560D01*
X193357500Y-117568980D02*
X194294760Y-117568980D01*
X194294760Y-117568980D02*
X195496180Y-118770400D01*
%TO.N,/RED_2*%
X200472040Y-137929620D02*
X200367900Y-137825480D01*
X203136500Y-137929620D02*
X200472040Y-137929620D01*
X196603620Y-112488980D02*
X193357500Y-112488980D01*
X198701660Y-123337320D02*
X198701660Y-114587020D01*
X200296780Y-133365240D02*
X200296780Y-124932440D01*
X198701660Y-114587020D02*
X196603620Y-112488980D01*
X200296780Y-124932440D02*
X198701660Y-123337320D01*
%TO.N,/GREEN_2*%
X200304400Y-113261140D02*
X196992240Y-109948980D01*
X196992240Y-109948980D02*
X193357500Y-109948980D01*
X200304400Y-122265440D02*
X200304400Y-113261140D01*
X203136500Y-132849620D02*
X203136500Y-125097540D01*
X203136500Y-125097540D02*
X200304400Y-122265440D01*
%TO.N,/SDA\u005CSS_1*%
X77812900Y-89080340D02*
X75130660Y-86398100D01*
X135953500Y-86037420D02*
X129059940Y-92930980D01*
X135953500Y-82008980D02*
X135953500Y-86037420D01*
X129059940Y-92930980D02*
X89166700Y-92930980D01*
X89166700Y-92930980D02*
X85316060Y-89080340D01*
X85316060Y-89080340D02*
X77812900Y-89080340D01*
%TO.N,/TRIG_10*%
X76908660Y-139579700D02*
X76908660Y-142379700D01*
X77489400Y-138998960D02*
X76908660Y-139579700D01*
X79936340Y-138998960D02*
X77489400Y-138998960D01*
X82653398Y-136281902D02*
X79936340Y-138998960D01*
X94936838Y-136281902D02*
X82653398Y-136281902D01*
X178310540Y-92123260D02*
X139095480Y-92123260D01*
X185884820Y-84548980D02*
X178310540Y-92123260D01*
X139095480Y-92123260D02*
X94936838Y-136281902D01*
X185884820Y-84548980D02*
X190817500Y-84548980D01*
%TO.N,/ECHO_10*%
X81988660Y-139579700D02*
X81988660Y-142379700D01*
X83741260Y-137718800D02*
X81988660Y-139471400D01*
X81988660Y-139471400D02*
X81988660Y-139579700D01*
X185846720Y-87088980D02*
X178379120Y-94556580D01*
X190817500Y-87088980D02*
X185846720Y-87088980D01*
X97335340Y-137718800D02*
X83741260Y-137718800D01*
X178379120Y-94556580D02*
X140497560Y-94556580D01*
X140497560Y-94556580D02*
X97335340Y-137718800D01*
%TO.N,/ECHO_9*%
X105709720Y-142367000D02*
X105661460Y-142415260D01*
X186656980Y-92168980D02*
X179509420Y-99316540D01*
X190817500Y-92168980D02*
X186656980Y-92168980D01*
X179509420Y-99316540D02*
X142158720Y-99316540D01*
X142158720Y-99316540D02*
X105709720Y-135765540D01*
X105709720Y-135765540D02*
X105709720Y-142367000D01*
%TO.N,/TRIG_9*%
X100644960Y-142351760D02*
X100581460Y-142415260D01*
X186230260Y-89628980D02*
X178927760Y-96931480D01*
X190817500Y-89628980D02*
X186230260Y-89628980D01*
X178927760Y-96931480D02*
X141041120Y-96931480D01*
X141041120Y-96931480D02*
X100644960Y-137327640D01*
X100644960Y-137327640D02*
X100644960Y-142351760D01*
%TO.N,/ECHO_6*%
X178142900Y-117718840D02*
X188452760Y-107408980D01*
X188452760Y-107408980D02*
X190817500Y-107408980D01*
X178142900Y-141351000D02*
X178142900Y-117718840D01*
X176166780Y-142397480D02*
X177096420Y-142397480D01*
X177096420Y-142397480D02*
X178142900Y-141351000D01*
%TO.N,/TRIG_6*%
X171168060Y-142316200D02*
X171086780Y-142397480D01*
X176128680Y-116931440D02*
X188191140Y-104868980D01*
X176128680Y-137749280D02*
X176128680Y-116931440D01*
X188191140Y-104868980D02*
X190817500Y-104868980D01*
X171086780Y-142397480D02*
X171480480Y-142397480D01*
X171480480Y-142397480D02*
X176128680Y-137749280D01*
%TO.N,/TRIG_7*%
X172239940Y-115209320D02*
X187660280Y-99788980D01*
X187660280Y-99788980D02*
X190817500Y-99788980D01*
X148447760Y-142435580D02*
X156212540Y-134670800D01*
X156212540Y-134670800D02*
X169491660Y-134670800D01*
X147477480Y-142435580D02*
X148447760Y-142435580D01*
X169491660Y-134670800D02*
X172239940Y-131922520D01*
X172239940Y-131922520D02*
X172239940Y-115209320D01*
%TO.N,/ECHO_7*%
X188107320Y-102328980D02*
X190817500Y-102328980D01*
X171267120Y-136624060D02*
X174218600Y-133672580D01*
X152557480Y-142435580D02*
X158369000Y-136624060D01*
X174218600Y-133672580D02*
X174218600Y-116217700D01*
X158369000Y-136624060D02*
X171267120Y-136624060D01*
X174218600Y-116217700D02*
X188107320Y-102328980D01*
%TO.N,/ECHO_8*%
X187487560Y-97248980D02*
X190817500Y-97248980D01*
X170063160Y-130517900D02*
X170063160Y-114673380D01*
X168028620Y-132552440D02*
X170063160Y-130517900D01*
X130081020Y-142420340D02*
X136796113Y-135705247D01*
X170063160Y-114673380D02*
X187487560Y-97248980D01*
X136796113Y-135705247D02*
X151721153Y-135705247D01*
X129108200Y-142420340D02*
X130081020Y-142420340D01*
X151721153Y-135705247D02*
X154873960Y-132552440D01*
X154873960Y-132552440D02*
X168028620Y-132552440D01*
%TO.N,/TRIG_8*%
X124028200Y-141668500D02*
X124028200Y-142420340D01*
X164531040Y-128381760D02*
X167863520Y-125049280D01*
X141328140Y-128381760D02*
X164531040Y-128381760D01*
X139931140Y-129778760D02*
X141328140Y-128381760D01*
X187325000Y-94708980D02*
X190817500Y-94708980D01*
X124028200Y-142420340D02*
X125163580Y-142420340D01*
X139931140Y-132445760D02*
X139931140Y-129778760D01*
X167863520Y-114170460D02*
X187325000Y-94708980D01*
X167863520Y-125049280D02*
X167863520Y-114170460D01*
X125163580Y-142420340D02*
X133601460Y-133982460D01*
X133601460Y-133982460D02*
X138394440Y-133982460D01*
X138394440Y-133982460D02*
X139931140Y-132445760D01*
D22*
%TO.N,/TRIG_5*%
X194553840Y-141620240D02*
X194553840Y-142400020D01*
D21*
X194553840Y-141561820D02*
X194553840Y-142400020D01*
X190187580Y-137195560D02*
X194553840Y-141561820D01*
X189062360Y-109948980D02*
X180139340Y-118872000D01*
X190817500Y-109948980D02*
X189062360Y-109948980D01*
X180139340Y-118872000D02*
X180139340Y-134272020D01*
X183062880Y-137195560D02*
X190187580Y-137195560D01*
X180139340Y-134272020D02*
X183062880Y-137195560D01*
%TO.N,/ECHO_5*%
X197004940Y-141505940D02*
X197899020Y-142400020D01*
X191300100Y-135425180D02*
X197004940Y-141130020D01*
X189420500Y-112488980D02*
X181858920Y-120050560D01*
X197899020Y-142400020D02*
X199633840Y-142400020D01*
X190817500Y-112488980D02*
X189420500Y-112488980D01*
X197004940Y-141130020D02*
X197004940Y-141505940D01*
X181858920Y-131386580D02*
X185897520Y-135425180D01*
X185897520Y-135425180D02*
X191300100Y-135425180D01*
X181858920Y-120050560D02*
X181858920Y-131386580D01*
%TO.N,/ECHO_2*%
X204632560Y-91384120D02*
X211538820Y-91384120D01*
X193357500Y-89628980D02*
X202877420Y-89628980D01*
X202877420Y-89628980D02*
X204632560Y-91384120D01*
%TO.N,/TRIG_2*%
X206344520Y-96464120D02*
X211538820Y-96464120D01*
X193357500Y-92168980D02*
X202049380Y-92168980D01*
X202049380Y-92168980D02*
X206344520Y-96464120D01*
%TO.N,/TRIG_3*%
X208117440Y-120060720D02*
X211533740Y-120060720D01*
X204962760Y-101368860D02*
X204962760Y-116906040D01*
X193357500Y-97248980D02*
X200842880Y-97248980D01*
X204962760Y-116906040D02*
X208117440Y-120060720D01*
X200842880Y-97248980D02*
X204962760Y-101368860D01*
%TO.N,/ECHO_3*%
X193629280Y-94980760D02*
X193357500Y-94708980D01*
X207886300Y-114980720D02*
X206636620Y-113731040D01*
X211533740Y-114980720D02*
X207886300Y-114980720D01*
X206636620Y-113731040D02*
X206636620Y-99634040D01*
X206636620Y-99634040D02*
X201983340Y-94980760D01*
X201983340Y-94980760D02*
X193629280Y-94980760D01*
%TO.N,/ECHO_4*%
X207205580Y-133311900D02*
X211358480Y-137464800D01*
X199804020Y-99788980D02*
X203253340Y-103238300D01*
X193357500Y-99788980D02*
X199804020Y-99788980D01*
X211358480Y-137464800D02*
X211358480Y-138673840D01*
X207205580Y-123428760D02*
X207205580Y-133311900D01*
X203253340Y-103238300D02*
X203253340Y-119476520D01*
X203253340Y-119476520D02*
X207205580Y-123428760D01*
%TO.N,/TRIG_4*%
X196626480Y-102328980D02*
X193357500Y-102328980D01*
X201772520Y-107475020D02*
X196626480Y-102328980D01*
X201772520Y-120964960D02*
X201772520Y-107475020D01*
X205610460Y-124802900D02*
X201772520Y-120964960D01*
X211358480Y-143009620D02*
X208051400Y-139702540D01*
X208051400Y-139702540D02*
X208051400Y-136420860D01*
X211358480Y-143753840D02*
X211358480Y-143009620D01*
X208051400Y-136420860D02*
X205610460Y-133979920D01*
X205610460Y-133979920D02*
X205610460Y-124802900D01*
%TO.N,/TRIG_1*%
X209519520Y-72417940D02*
X211584540Y-72417940D01*
X193357500Y-87088980D02*
X194848480Y-87088980D01*
X194848480Y-87088980D02*
X209519520Y-72417940D01*
%TO.N,/ECHO_1*%
X194190620Y-84548980D02*
X193357500Y-84548980D01*
X207058260Y-71681340D02*
X194190620Y-84548980D01*
X207058260Y-69796660D02*
X207058260Y-71681340D01*
X211584540Y-67337940D02*
X209516980Y-67337940D01*
X209516980Y-67337940D02*
X207058260Y-69796660D01*
%TO.N,/EN_ESP*%
X182532020Y-61076840D02*
X184604660Y-63149480D01*
X174454820Y-61076840D02*
X182532020Y-61076840D01*
X152707340Y-37348160D02*
X152707340Y-39329360D01*
X184604660Y-63149480D02*
X184604660Y-77784960D01*
X152707340Y-39329360D02*
X174454820Y-61076840D01*
X179097940Y-77470000D02*
X179466240Y-77470000D01*
X175577500Y-82008980D02*
X175577500Y-80990440D01*
X175577500Y-80990440D02*
X179097940Y-77470000D01*
%TO.N,/RST_ESP*%
X182476140Y-77025500D02*
X178117500Y-81384140D01*
X150167340Y-37348160D02*
X150167340Y-39982140D01*
X178117500Y-81384140D02*
X178117500Y-82008980D01*
X173141640Y-62956440D02*
X181256940Y-62956440D01*
X150167340Y-39982140D02*
X173141640Y-62956440D01*
X181256940Y-62956440D02*
X182476140Y-64175640D01*
X182476140Y-64175640D02*
X182476140Y-77025500D01*
%TO.N,/RX_MCU*%
X150167340Y-65288160D02*
X150167340Y-62806580D01*
X150167340Y-62806580D02*
X148424900Y-61064140D01*
X148424900Y-61064140D02*
X134165340Y-61064140D01*
X154099260Y-88247220D02*
X160337500Y-82008980D01*
X138772900Y-88247220D02*
X154099260Y-88247220D01*
X78595962Y-61585582D02*
X78366620Y-61356240D01*
X130334280Y-61003180D02*
X129751878Y-61585582D01*
X129751878Y-61585582D02*
X78595962Y-61585582D01*
X89217500Y-87266780D02*
X127304800Y-87266780D01*
X79080360Y-77129640D02*
X89217500Y-87266780D01*
X78437814Y-65683276D02*
X79080360Y-66325822D01*
X127304800Y-87266780D02*
X128043940Y-88005920D01*
X79080360Y-66325822D02*
X79080360Y-77129640D01*
%TO.N,/TX_MCU*%
X149237700Y-58386980D02*
X134007860Y-58386980D01*
X152707340Y-65288160D02*
X152707340Y-61856620D01*
X152707340Y-61856620D02*
X149237700Y-58386980D01*
X157797500Y-82008980D02*
X153987500Y-85818980D01*
X153987500Y-85818980D02*
X141137640Y-85818980D01*
X80688180Y-59725560D02*
X80678020Y-59715400D01*
X130334280Y-58221880D02*
X86804500Y-58221880D01*
X85300820Y-59725560D02*
X80688180Y-59725560D01*
X86804500Y-58221880D02*
X85300820Y-59725560D01*
X80888840Y-75178920D02*
X91213940Y-85504020D01*
X91213940Y-85504020D02*
X129166620Y-85504020D01*
X80888840Y-65727580D02*
X80888840Y-75178920D01*
%TO.N,/VIN*%
X145087340Y-36019740D02*
X145087340Y-37348160D01*
X145745200Y-35361880D02*
X145087340Y-36019740D01*
X191048640Y-35361880D02*
X145745200Y-35361880D01*
X199456040Y-68707000D02*
X199456040Y-43769280D01*
X199456040Y-43769280D02*
X191048640Y-35361880D01*
X131094480Y-71173340D02*
X132034280Y-72113140D01*
X124828300Y-71173340D02*
X131094480Y-71173340D01*
X123256040Y-72745600D02*
X124828300Y-71173340D01*
X113690400Y-72745600D02*
X123256040Y-72745600D01*
X138109960Y-37327840D02*
X132034280Y-43403520D01*
X144518380Y-37327840D02*
X138109960Y-37327840D01*
X145087340Y-37348160D02*
X144538700Y-37348160D01*
X132034280Y-43403520D02*
X132034280Y-72113140D01*
X144538700Y-37348160D02*
X144518380Y-37327840D01*
X99151440Y-72758300D02*
X95265240Y-72758300D01*
X102120700Y-75727560D02*
X99151440Y-72758300D01*
X106055160Y-74477880D02*
X104805480Y-75727560D01*
X113690400Y-70977760D02*
X112519460Y-69806820D01*
X113690400Y-72745600D02*
X113690400Y-70977760D01*
X112519460Y-69806820D02*
X107563920Y-69806820D01*
X104805480Y-75727560D02*
X102120700Y-75727560D01*
X107563920Y-69806820D02*
X106055160Y-71315580D01*
X106055160Y-71315580D02*
X106055160Y-74477880D01*
%TD*%
M02*
