M48
;DRILL file {PCBnew (2011-04-29 BZR 2986)-stable} date 12/28/2014 4:01:52 PM
;FORMAT={-:-/ absolute / inch / decimal}
FMAT,2
INCH,TZ
T1C0.025
T2C0.030
T3C0.032
T4C0.040
T5C0.045
T6C0.050
T7C0.120
%
G90
G05
M72
T1
X3.040Y5.610
X3.300Y5.610
X3.650Y4.084
X3.686Y4.698
X3.720Y3.170
X4.260Y3.170
X4.260Y4.090
X4.260Y4.700
X4.400Y3.150
X4.712Y3.148
T2
X2.988Y3.594
X2.988Y3.994
X2.988Y4.694
X2.988Y5.094
X3.038Y2.474
X3.038Y2.874
X3.288Y3.594
X3.288Y3.994
X3.288Y4.694
X3.288Y5.094
X3.338Y2.474
X3.338Y2.874
X3.438Y2.624
X3.438Y3.794
X3.438Y4.844
X3.538Y2.742
X3.538Y3.912
X3.538Y4.962
X3.638Y2.624
X3.638Y3.794
X3.638Y4.844
X4.000Y2.560
X4.100Y2.560
X4.510Y4.470
X4.510Y4.570
X4.700Y2.675
X4.700Y3.920
X4.700Y4.120
X4.710Y5.650
X4.800Y2.675
X4.800Y4.675
X4.800Y4.975
X4.810Y4.470
X4.810Y4.570
X4.892Y5.350
X5.010Y5.250
X5.010Y5.450
X5.010Y5.650
X5.142Y5.350
X5.160Y5.650
X5.260Y5.250
X5.260Y5.450
X5.392Y5.350
X5.460Y5.650
X5.510Y5.250
X5.510Y5.450
X5.610Y5.650
X5.630Y4.570
X5.630Y4.670
X5.640Y2.770
X5.640Y2.870
X5.640Y2.970
X5.640Y3.070
X5.640Y3.170
X5.640Y3.270
X5.640Y3.370
X5.640Y3.470
X5.640Y3.570
X5.640Y3.770
X5.640Y3.870
X5.640Y3.970
X5.640Y4.070
X5.640Y4.170
X5.640Y4.270
X5.640Y4.370
X5.640Y4.470
X5.675Y2.325
X5.675Y2.625
X5.910Y5.650
X5.930Y4.570
X5.930Y4.670
X5.940Y2.770
X5.940Y2.870
X5.940Y2.970
X5.940Y3.070
X5.940Y3.170
X5.940Y3.270
X5.940Y3.370
X5.940Y3.470
X5.940Y3.570
X5.940Y3.770
X5.940Y3.870
X5.940Y3.970
X5.940Y4.070
X5.940Y4.170
X5.940Y4.270
X5.940Y4.370
X5.940Y4.470
T3
X1.896Y2.482
X1.896Y2.682
X1.896Y2.882
X1.908Y3.714
X1.908Y3.914
X1.908Y4.114
X1.912Y4.778
X1.912Y4.978
X1.912Y5.178
X2.988Y3.744
X2.988Y3.844
X2.988Y4.844
X2.988Y4.944
X3.038Y2.624
X3.038Y2.724
X3.670Y3.400
X3.875Y5.950
X3.875Y6.200
X3.875Y6.450
X3.975Y2.075
X3.975Y2.225
X4.470Y3.400
X4.530Y3.850
X4.530Y3.950
X4.530Y4.100
X4.530Y4.200
X4.850Y2.025
X4.850Y2.225
X4.920Y2.770
X4.920Y2.870
X4.920Y2.970
X4.920Y3.070
X4.920Y3.170
X4.920Y3.270
X4.920Y3.370
X4.920Y3.470
X4.920Y3.570
X4.920Y3.670
X4.920Y3.770
X4.920Y3.870
X4.920Y3.970
X4.920Y4.070
X4.920Y4.170
X4.920Y4.270
X4.920Y4.370
X4.920Y4.470
X4.920Y4.570
X4.920Y4.670
X5.075Y6.725
X5.260Y5.950
X5.260Y6.200
X5.260Y6.450
X5.275Y6.725
X5.425Y2.350
X5.425Y2.450
X5.475Y6.725
X5.510Y5.950
X5.510Y6.200
X5.510Y6.450
X5.520Y2.770
X5.520Y2.870
X5.520Y2.970
X5.520Y3.070
X5.520Y3.170
X5.520Y3.270
X5.520Y3.370
X5.520Y3.470
X5.520Y3.570
X5.520Y3.670
X5.520Y3.770
X5.520Y3.870
X5.520Y3.970
X5.520Y4.070
X5.520Y4.170
X5.520Y4.270
X5.520Y4.370
X5.520Y4.470
X5.520Y4.570
X5.520Y4.670
X8.880Y2.060
X8.880Y2.260
X8.880Y2.460
X8.880Y2.660
X8.880Y2.860
X8.880Y3.060
X8.880Y3.260
X8.880Y3.460
X8.880Y3.660
X8.880Y3.860
X8.880Y4.060
X8.880Y4.260
X8.880Y4.460
X8.880Y4.660
X8.880Y4.860
X8.880Y5.060
T4
X6.575Y2.525
X6.600Y5.850
X6.675Y2.525
X6.675Y3.475
X6.700Y5.850
X6.775Y2.525
X6.775Y3.475
X6.800Y5.850
X6.850Y5.050
X6.875Y3.475
X6.950Y5.050
X7.000Y2.325
X7.050Y5.050
X7.050Y6.075
X7.100Y2.325
X7.150Y3.100
X7.150Y6.075
X7.200Y2.325
X7.250Y3.100
X7.250Y6.075
X7.273Y4.013
X7.325Y5.225
X7.350Y3.100
X7.373Y4.013
X7.425Y2.125
X7.425Y5.225
X7.473Y4.013
X7.500Y6.275
X7.525Y2.125
X7.525Y5.225
X7.600Y6.275
X7.625Y2.125
X7.700Y6.275
X7.725Y2.900
X7.825Y2.900
X7.850Y1.925
X7.925Y2.900
X7.950Y1.925
X7.950Y6.500
X8.050Y1.925
X8.050Y6.500
X8.150Y6.500
X8.300Y1.650
X8.400Y1.650
X8.425Y6.700
X8.500Y1.650
X8.525Y6.700
X8.625Y6.700
T5
X4.850Y2.125
T6
X2.154Y4.300
X2.156Y3.498
X2.158Y3.764
X2.158Y4.032
X2.158Y4.614
X2.158Y5.142
X2.158Y5.408
X2.162Y2.814
X2.162Y4.876
X2.164Y2.280
X2.164Y2.548
X2.164Y3.084
X2.754Y4.300
X2.756Y3.498
X2.758Y3.764
X2.758Y4.032
X2.758Y4.614
X2.758Y5.142
X2.758Y5.408
X2.762Y2.814
X2.762Y4.876
X2.764Y2.280
X2.764Y2.548
X2.764Y3.084
X2.888Y2.274
X2.888Y3.394
X2.888Y4.444
X3.488Y2.274
X3.488Y3.394
X3.488Y4.444
T7
X1.610Y5.790
X1.610Y6.730
X1.630Y1.850
X2.000Y3.300
X2.000Y4.450
X5.575Y4.900
X5.600Y2.100
X6.925Y3.950
X9.052Y5.370
X9.054Y6.607
X9.067Y1.840
T0
M30
