G04 (created by PCBNEW-RS274X (2011-04-29 BZR 2986)-stable) date 5/7/2013 1:39:26 PM*
G01*
G70*
G90*
%MOIN*%
G04 Gerber Fmt 3.4, Leading zero omitted, Abs format*
%FSLAX34Y34*%
G04 APERTURE LIST*
%ADD10C,0.006000*%
%ADD11C,0.080000*%
%ADD12C,0.065000*%
%ADD13C,0.075000*%
%ADD14C,0.040000*%
%ADD15C,0.008000*%
G04 APERTURE END LIST*
G54D10*
G54D11*
X163500Y-182000D03*
X164500Y-182000D03*
G54D12*
X113500Y-127000D03*
X113500Y-130000D03*
X112000Y-139000D03*
X112000Y-142000D03*
X117000Y-130000D03*
X117000Y-127000D03*
G54D11*
X115250Y-152000D03*
X115250Y-153000D03*
X115250Y-146000D03*
X115250Y-147000D03*
X112000Y-125000D03*
X112000Y-126000D03*
X112000Y-131000D03*
X112000Y-132000D03*
X112000Y-137000D03*
X112000Y-138000D03*
X115250Y-140000D03*
X115250Y-141000D03*
X112000Y-154750D03*
X112000Y-155750D03*
X115250Y-134000D03*
X115250Y-135000D03*
X112000Y-148750D03*
X112000Y-149750D03*
X112000Y-143000D03*
X112000Y-144000D03*
X115250Y-128000D03*
X115250Y-129000D03*
X146320Y-168370D03*
X147320Y-168370D03*
X148320Y-168370D03*
X149320Y-168370D03*
X150320Y-168370D03*
X151320Y-168370D03*
X152320Y-168370D03*
X153320Y-168370D03*
X154320Y-168370D03*
X155320Y-168370D03*
X156320Y-168370D03*
X157320Y-168370D03*
X158320Y-168370D03*
X159320Y-168370D03*
X160320Y-168370D03*
X161320Y-168370D03*
X162320Y-168370D03*
X163320Y-168370D03*
G54D12*
X132250Y-182750D03*
X132250Y-179750D03*
X97500Y-154500D03*
X100500Y-154500D03*
X113500Y-173000D03*
X116500Y-173000D03*
X93000Y-99500D03*
X96000Y-99500D03*
X103500Y-80750D03*
X106500Y-80750D03*
X111000Y-113500D03*
X111000Y-116500D03*
X112000Y-104250D03*
X112000Y-101250D03*
X88750Y-118000D03*
X91750Y-118000D03*
X90000Y-137250D03*
X93000Y-137250D03*
X148750Y-101250D03*
X148750Y-104250D03*
X150000Y-92250D03*
X150000Y-89250D03*
X183500Y-65250D03*
X183500Y-68250D03*
X119500Y-65500D03*
X119500Y-62500D03*
X129000Y-122000D03*
X132000Y-122000D03*
X214000Y-100000D03*
X211000Y-100000D03*
X202500Y-81000D03*
X199500Y-81000D03*
X144000Y-123500D03*
X141000Y-123500D03*
X147500Y-56250D03*
X147500Y-59250D03*
X165000Y-58000D03*
X165000Y-61000D03*
X131750Y-84500D03*
X128750Y-84500D03*
X116750Y-83250D03*
X119750Y-83250D03*
X105500Y-77000D03*
X102500Y-77000D03*
X126500Y-62500D03*
X126500Y-65500D03*
X199000Y-92500D03*
X199000Y-89500D03*
X197750Y-101750D03*
X197750Y-104750D03*
X177750Y-122000D03*
X180750Y-122000D03*
X193000Y-123500D03*
X190000Y-123500D03*
X161000Y-104500D03*
X161000Y-101500D03*
X181000Y-84500D03*
X178000Y-84500D03*
X166000Y-83500D03*
X169000Y-83500D03*
X162390Y-113950D03*
X162390Y-116950D03*
X161250Y-143000D03*
X161250Y-140000D03*
X189750Y-120500D03*
X192750Y-120500D03*
X160000Y-151750D03*
X160000Y-154750D03*
X166240Y-113990D03*
X166240Y-116990D03*
X198500Y-130500D03*
X198500Y-127500D03*
X196500Y-130500D03*
X196500Y-127500D03*
X197250Y-140000D03*
X197250Y-143000D03*
X163200Y-150300D03*
X166200Y-150300D03*
X177500Y-160000D03*
X180500Y-160000D03*
X193000Y-161000D03*
X190000Y-161000D03*
X196500Y-92500D03*
X196500Y-89500D03*
X191400Y-154400D03*
X191400Y-151400D03*
X144250Y-161750D03*
X141250Y-161750D03*
X129500Y-160000D03*
X132500Y-160000D03*
X169000Y-85500D03*
X166000Y-85500D03*
X151400Y-140200D03*
X148400Y-140200D03*
X150000Y-130000D03*
X150000Y-127000D03*
X154000Y-186750D03*
X154000Y-183750D03*
X113000Y-113500D03*
X113000Y-116500D03*
X172750Y-184000D03*
X172750Y-181000D03*
X154000Y-187500D03*
X154000Y-190500D03*
X88500Y-130000D03*
X85500Y-130000D03*
X146900Y-131400D03*
X143900Y-131400D03*
X89500Y-112000D03*
X86500Y-112000D03*
X138000Y-185500D03*
X138000Y-188500D03*
X216500Y-136000D03*
X213500Y-136000D03*
X191500Y-174250D03*
X191500Y-171250D03*
X93500Y-148000D03*
X90500Y-148000D03*
X104500Y-166000D03*
X101500Y-166000D03*
X121500Y-180000D03*
X118500Y-180000D03*
X217250Y-118000D03*
X214250Y-118000D03*
X142800Y-154400D03*
X142800Y-151400D03*
X94500Y-93000D03*
X91500Y-93000D03*
X141000Y-120500D03*
X144000Y-120500D03*
X119750Y-85750D03*
X116750Y-85750D03*
X209250Y-154000D03*
X206250Y-154000D03*
X147750Y-92250D03*
X147750Y-89250D03*
G54D11*
X170500Y-160000D03*
X169500Y-160000D03*
X176500Y-160000D03*
X175500Y-160000D03*
X164500Y-160000D03*
X163500Y-160000D03*
X197250Y-144000D03*
X197250Y-145000D03*
X197250Y-150250D03*
X197250Y-151250D03*
X197250Y-156000D03*
X197250Y-157000D03*
X119250Y-156750D03*
X118250Y-156750D03*
X145500Y-90250D03*
X145500Y-91250D03*
X145500Y-96250D03*
X145500Y-97250D03*
X145500Y-102250D03*
X145500Y-103250D03*
X182750Y-160000D03*
X181750Y-160000D03*
X188750Y-160000D03*
X187750Y-160000D03*
X195000Y-160000D03*
X194000Y-160000D03*
X146500Y-160000D03*
X145500Y-160000D03*
X140500Y-160000D03*
X139500Y-160000D03*
X134500Y-160000D03*
X133500Y-160000D03*
X145500Y-108250D03*
X145500Y-109250D03*
X128500Y-160000D03*
X127500Y-160000D03*
X122500Y-160000D03*
X121500Y-160000D03*
X116500Y-160000D03*
X115500Y-160000D03*
X141750Y-87750D03*
X142750Y-87750D03*
X197750Y-99750D03*
X197750Y-100750D03*
X197750Y-118000D03*
X197750Y-119000D03*
X197750Y-112000D03*
X197750Y-113000D03*
X135750Y-87750D03*
X136750Y-87750D03*
X197750Y-105750D03*
X197750Y-106750D03*
X161000Y-100500D03*
X161000Y-99500D03*
X161000Y-94500D03*
X161000Y-93500D03*
X161000Y-88500D03*
X161000Y-87500D03*
X161000Y-106500D03*
X161000Y-105500D03*
X129750Y-87750D03*
X130750Y-87750D03*
X123750Y-87750D03*
X124750Y-87750D03*
X117750Y-87750D03*
X118750Y-87750D03*
X161000Y-112750D03*
X161000Y-111750D03*
X161000Y-118750D03*
X161000Y-117750D03*
X161250Y-138750D03*
X161250Y-137750D03*
X161250Y-132500D03*
X161250Y-131500D03*
X143500Y-156750D03*
X142500Y-156750D03*
X161250Y-126250D03*
X161250Y-125250D03*
X137250Y-156750D03*
X136250Y-156750D03*
X161250Y-145000D03*
X161250Y-144000D03*
X131250Y-156750D03*
X130250Y-156750D03*
X161250Y-151000D03*
X161250Y-150000D03*
X161250Y-157000D03*
X161250Y-156000D03*
X197250Y-125250D03*
X197250Y-126250D03*
X197250Y-131500D03*
X197250Y-132500D03*
X125250Y-156750D03*
X124250Y-156750D03*
X197250Y-137750D03*
X197250Y-138750D03*
X148750Y-111250D03*
X148750Y-112250D03*
X148750Y-117500D03*
X148750Y-118500D03*
X148750Y-99250D03*
X148750Y-100250D03*
X145500Y-152250D03*
X145500Y-153250D03*
X148750Y-93250D03*
X148750Y-94250D03*
X148750Y-87250D03*
X148750Y-88250D03*
X116000Y-122000D03*
X115000Y-122000D03*
X122000Y-122000D03*
X121000Y-122000D03*
X128000Y-122000D03*
X127000Y-122000D03*
X115250Y-91500D03*
X115250Y-90500D03*
X115250Y-97500D03*
X115250Y-96500D03*
X115250Y-103500D03*
X115250Y-102500D03*
X134000Y-122000D03*
X133000Y-122000D03*
X140000Y-122000D03*
X139000Y-122000D03*
X146000Y-122000D03*
X145000Y-122000D03*
X144750Y-84500D03*
X145750Y-84500D03*
X138750Y-84500D03*
X139750Y-84500D03*
X115250Y-109500D03*
X115250Y-108500D03*
X115250Y-115500D03*
X115250Y-114500D03*
X132750Y-84500D03*
X133750Y-84500D03*
X126750Y-84500D03*
X127750Y-84500D03*
X120750Y-84500D03*
X121750Y-84500D03*
X114750Y-84500D03*
X115750Y-84500D03*
X119000Y-118750D03*
X118000Y-118750D03*
X143000Y-118750D03*
X142000Y-118750D03*
X137000Y-118750D03*
X136000Y-118750D03*
X131000Y-118750D03*
X130000Y-118750D03*
X125000Y-118750D03*
X124000Y-118750D03*
X148750Y-143000D03*
X148750Y-144000D03*
X148750Y-149000D03*
X148750Y-150000D03*
X145500Y-114250D03*
X145500Y-115250D03*
X148750Y-155000D03*
X148750Y-156000D03*
X148750Y-137000D03*
X148750Y-138000D03*
X148750Y-131000D03*
X148750Y-132000D03*
X148750Y-125000D03*
X148750Y-126000D03*
X112000Y-118500D03*
X112000Y-117500D03*
X112000Y-112500D03*
X112000Y-111500D03*
X145500Y-128000D03*
X145500Y-129000D03*
X145500Y-134000D03*
X145500Y-135000D03*
X112000Y-106500D03*
X112000Y-105500D03*
X112000Y-88250D03*
X112000Y-87250D03*
X145500Y-140000D03*
X145500Y-141000D03*
X112000Y-94250D03*
X112000Y-93250D03*
X112000Y-100250D03*
X112000Y-99250D03*
X145500Y-146250D03*
X145500Y-147250D03*
X148750Y-105250D03*
X148750Y-106250D03*
X148500Y-61000D03*
X149500Y-61000D03*
X154500Y-61000D03*
X155500Y-61000D03*
X160500Y-61000D03*
X161500Y-61000D03*
X178500Y-66000D03*
X179500Y-66000D03*
X172500Y-64000D03*
X173500Y-64000D03*
X166500Y-62000D03*
X167500Y-62000D03*
X105500Y-73000D03*
X106500Y-73000D03*
X110500Y-68000D03*
X111500Y-68000D03*
X115500Y-64000D03*
X116500Y-64000D03*
X142500Y-62000D03*
X143500Y-62000D03*
X135500Y-64000D03*
X136500Y-64000D03*
X129500Y-66000D03*
X130500Y-66000D03*
X98500Y-163000D03*
X99500Y-163000D03*
X94500Y-157000D03*
X95500Y-157000D03*
X90500Y-150000D03*
X91500Y-150000D03*
X85500Y-132000D03*
X86500Y-132000D03*
X86500Y-138000D03*
X87500Y-138000D03*
X93500Y-110000D03*
X94500Y-110000D03*
X95250Y-104000D03*
X96250Y-104000D03*
X92500Y-122000D03*
X93500Y-122000D03*
X92500Y-128000D03*
X93500Y-128000D03*
X93500Y-134000D03*
X94500Y-134000D03*
X184500Y-69000D03*
X185500Y-69000D03*
X190500Y-74000D03*
X191500Y-74000D03*
X196500Y-79000D03*
X197500Y-79000D03*
X133500Y-56000D03*
X134500Y-56000D03*
X127500Y-58000D03*
X128500Y-58000D03*
X121500Y-61000D03*
X122500Y-61000D03*
X210500Y-103000D03*
X211500Y-103000D03*
X212500Y-109000D03*
X213500Y-109000D03*
X213500Y-115000D03*
X214500Y-115000D03*
X208500Y-97000D03*
X209500Y-97000D03*
X205500Y-91000D03*
X206500Y-91000D03*
X201500Y-85000D03*
X202500Y-85000D03*
X109500Y-175000D03*
X110500Y-175000D03*
X103500Y-169000D03*
X104500Y-169000D03*
X121500Y-183000D03*
X122500Y-183000D03*
X127500Y-185000D03*
X128500Y-185000D03*
X133500Y-188000D03*
X134500Y-188000D03*
X203500Y-157000D03*
X204500Y-157000D03*
X198500Y-163000D03*
X199500Y-163000D03*
X192500Y-168000D03*
X193500Y-168000D03*
X174500Y-179000D03*
X175500Y-179000D03*
X180500Y-176000D03*
X181500Y-176000D03*
X186500Y-173000D03*
X187500Y-173000D03*
X211500Y-139000D03*
X212500Y-139000D03*
X209500Y-145000D03*
X210500Y-145000D03*
X206500Y-151000D03*
X207500Y-151000D03*
X213500Y-133000D03*
X214500Y-133000D03*
X214250Y-126750D03*
X215250Y-126750D03*
X214500Y-121000D03*
X215500Y-121000D03*
X88500Y-144000D03*
X89500Y-144000D03*
X86500Y-108000D03*
X87500Y-108000D03*
X88500Y-101000D03*
X89500Y-101000D03*
X90500Y-95000D03*
X91500Y-95000D03*
X85500Y-114000D03*
X86500Y-114000D03*
X84750Y-120000D03*
X85750Y-120000D03*
X85000Y-126250D03*
X86000Y-126250D03*
X100500Y-78000D03*
X101500Y-78000D03*
X97500Y-83000D03*
X98500Y-83000D03*
X93500Y-89000D03*
X94500Y-89000D03*
X168500Y-181000D03*
X169500Y-181000D03*
X157500Y-183000D03*
X158500Y-183000D03*
X139500Y-189250D03*
X140500Y-189250D03*
X145500Y-190000D03*
X146500Y-190000D03*
X151500Y-190000D03*
X152500Y-190000D03*
X115500Y-179000D03*
X116500Y-179000D03*
X173750Y-118750D03*
X172750Y-118750D03*
X167750Y-118750D03*
X166750Y-118750D03*
X164250Y-115750D03*
X164250Y-114750D03*
X164250Y-110000D03*
X164250Y-109000D03*
X164250Y-103750D03*
X164250Y-102750D03*
X164250Y-97750D03*
X164250Y-96750D03*
X164250Y-91500D03*
X164250Y-90500D03*
X194000Y-153000D03*
X194000Y-154000D03*
X194000Y-146750D03*
X194000Y-147750D03*
X194000Y-140500D03*
X194000Y-141500D03*
X194000Y-134250D03*
X194000Y-135250D03*
X194000Y-128500D03*
X194000Y-129500D03*
X164750Y-153750D03*
X164750Y-152750D03*
X164750Y-147500D03*
X164750Y-146500D03*
X164750Y-141500D03*
X164750Y-140500D03*
X164750Y-135500D03*
X164750Y-134500D03*
X164750Y-129500D03*
X164750Y-128500D03*
X197750Y-93500D03*
X197750Y-94500D03*
X197750Y-87500D03*
X197750Y-88500D03*
X164750Y-122000D03*
X163750Y-122000D03*
X170750Y-122000D03*
X169750Y-122000D03*
X176500Y-122000D03*
X175500Y-122000D03*
X182750Y-122000D03*
X181750Y-122000D03*
X188750Y-122000D03*
X187750Y-122000D03*
X194750Y-122000D03*
X193750Y-122000D03*
X193750Y-84500D03*
X194750Y-84500D03*
X188000Y-84500D03*
X189000Y-84500D03*
X182000Y-84500D03*
X183000Y-84500D03*
X176000Y-84500D03*
X177000Y-84500D03*
X170000Y-84500D03*
X171000Y-84500D03*
X164000Y-84500D03*
X165000Y-84500D03*
X191750Y-118750D03*
X190750Y-118750D03*
X186000Y-118750D03*
X185000Y-118750D03*
X179750Y-118750D03*
X178750Y-118750D03*
X139500Y-181000D03*
X140500Y-181000D03*
X121500Y-174000D03*
X122500Y-174000D03*
X127500Y-177000D03*
X128500Y-177000D03*
X133500Y-179000D03*
X134500Y-179000D03*
X100500Y-152000D03*
X101500Y-152000D03*
X97500Y-146000D03*
X98500Y-146000D03*
X95500Y-140000D03*
X96500Y-140000D03*
X104500Y-158000D03*
X105500Y-158000D03*
X109500Y-164000D03*
X110500Y-164000D03*
X115500Y-170000D03*
X116500Y-170000D03*
X97500Y-98000D03*
X98500Y-98000D03*
X100500Y-92000D03*
X101500Y-92000D03*
X104500Y-86000D03*
X105500Y-86000D03*
X122500Y-69000D03*
X123500Y-69000D03*
X115500Y-74000D03*
X116500Y-74000D03*
X108500Y-80000D03*
X109500Y-80000D03*
X92500Y-116000D03*
X93500Y-116000D03*
X194500Y-114750D03*
X194500Y-115750D03*
X194500Y-108500D03*
X194500Y-109500D03*
X194500Y-102500D03*
X194500Y-103500D03*
X194500Y-96500D03*
X194500Y-97500D03*
X194500Y-90500D03*
X194500Y-91500D03*
X167500Y-156750D03*
X166500Y-156750D03*
X173750Y-156750D03*
X172750Y-156750D03*
X180000Y-156750D03*
X179000Y-156750D03*
X186000Y-156750D03*
X185000Y-156750D03*
X192000Y-156750D03*
X191000Y-156750D03*
X167000Y-87500D03*
X168000Y-87500D03*
X173000Y-87500D03*
X174000Y-87500D03*
X178500Y-87500D03*
X179500Y-87500D03*
X185000Y-87500D03*
X186000Y-87500D03*
X191000Y-87500D03*
X192000Y-87500D03*
X151750Y-183000D03*
X152750Y-183000D03*
X145500Y-182000D03*
X146500Y-182000D03*
G54D12*
X136000Y-58500D03*
X136000Y-55500D03*
X154000Y-56500D03*
X154000Y-53500D03*
X172000Y-58500D03*
X172000Y-55500D03*
X191000Y-67500D03*
X191000Y-64500D03*
X204500Y-81000D03*
X207500Y-81000D03*
X215500Y-100000D03*
X218500Y-100000D03*
X218500Y-118000D03*
X221500Y-118000D03*
X217500Y-136000D03*
X220500Y-136000D03*
X210500Y-154000D03*
X213500Y-154000D03*
X198500Y-172000D03*
X201500Y-172000D03*
X179000Y-182500D03*
X179000Y-185500D03*
G54D11*
X207500Y-164000D03*
X208500Y-164000D03*
X189500Y-180000D03*
X190500Y-180000D03*
X166500Y-189000D03*
X167500Y-189000D03*
X202500Y-170000D03*
X203500Y-170000D03*
X182500Y-184000D03*
X183500Y-184000D03*
X159500Y-190000D03*
X160500Y-190000D03*
X139500Y-54000D03*
X140500Y-54000D03*
X157500Y-53000D03*
X158500Y-53000D03*
X175500Y-57000D03*
X176500Y-57000D03*
X194500Y-67000D03*
X195500Y-67000D03*
X210500Y-85000D03*
X211500Y-85000D03*
X219500Y-103000D03*
X220500Y-103000D03*
X221500Y-122000D03*
X222500Y-122000D03*
X219500Y-140000D03*
X220500Y-140000D03*
X145500Y-53000D03*
X146500Y-53000D03*
X163500Y-54000D03*
X164500Y-54000D03*
X182500Y-60000D03*
X183500Y-60000D03*
X200500Y-72000D03*
X201500Y-72000D03*
X214500Y-91000D03*
X215500Y-91000D03*
X220500Y-109000D03*
X221500Y-109000D03*
X221500Y-128000D03*
X222500Y-128000D03*
X217500Y-146000D03*
X218500Y-146000D03*
X151500Y-53000D03*
X152500Y-53000D03*
X169500Y-55000D03*
X170500Y-55000D03*
X188500Y-63000D03*
X189500Y-63000D03*
X206500Y-79000D03*
X207500Y-79000D03*
X217500Y-97000D03*
X218500Y-97000D03*
X221500Y-116000D03*
X222500Y-116000D03*
X220500Y-134000D03*
X221500Y-134000D03*
X214500Y-152000D03*
X215500Y-152000D03*
X211500Y-158000D03*
X212500Y-158000D03*
X196500Y-175000D03*
X197500Y-175000D03*
X173500Y-187000D03*
X174500Y-187000D03*
G54D13*
X147500Y-81200D03*
X147500Y-83200D03*
X199200Y-157000D03*
X201000Y-157000D03*
X158400Y-164500D03*
X158400Y-160700D03*
X184000Y-125200D03*
X184000Y-122750D03*
X185200Y-159000D03*
X185100Y-162700D03*
X112700Y-160700D03*
X112700Y-163500D03*
X113900Y-164300D03*
X113900Y-160700D03*
X149000Y-157750D03*
X152000Y-157750D03*
X110250Y-91000D03*
X107750Y-91000D03*
X151300Y-120200D03*
X153200Y-120200D03*
X196800Y-81400D03*
X196800Y-84200D03*
X200750Y-119750D03*
X199250Y-119750D03*
X156500Y-177250D03*
X160000Y-177250D03*
X104600Y-82300D03*
X102300Y-82200D03*
X152700Y-84000D03*
X156400Y-84000D03*
X153300Y-103000D03*
X157200Y-103000D03*
X142000Y-125900D03*
X144600Y-125900D03*
X158900Y-124400D03*
X158900Y-126500D03*
X194750Y-124000D03*
X196750Y-124000D03*
X161500Y-161600D03*
X161500Y-165400D03*
X152700Y-86000D03*
X156400Y-86000D03*
G54D14*
X145750Y-84500D02*
X146750Y-84500D01*
X146320Y-165070D02*
X146320Y-168370D01*
X144500Y-163250D02*
X146320Y-165070D01*
X140250Y-163250D02*
X144500Y-163250D01*
X139500Y-162500D02*
X140250Y-163250D01*
X112000Y-162500D02*
X139500Y-162500D01*
X108500Y-159000D02*
X112000Y-162500D01*
X108500Y-85700D02*
X108500Y-159000D01*
X113200Y-81000D02*
X108500Y-85700D01*
X147000Y-81000D02*
X113200Y-81000D01*
X147500Y-81200D02*
X147000Y-81000D01*
X147500Y-83750D02*
X147500Y-83200D01*
X146750Y-84500D02*
X147500Y-83750D01*
X127750Y-84500D02*
X127750Y-85250D01*
X142500Y-87500D02*
X142750Y-87750D01*
X142500Y-86250D02*
X142500Y-87500D01*
X142000Y-85750D02*
X142500Y-86250D01*
X128250Y-85750D02*
X142000Y-85750D01*
X127750Y-85250D02*
X128250Y-85750D01*
X145750Y-86750D02*
X144750Y-87750D01*
X145750Y-84500D02*
X145750Y-86750D01*
X144750Y-87750D02*
X142750Y-87750D01*
X161250Y-125250D02*
X162250Y-125250D01*
X162750Y-125750D02*
X162750Y-128500D01*
X162250Y-125250D02*
X162750Y-125750D01*
X157400Y-161700D02*
X159900Y-161700D01*
X157600Y-158200D02*
X157100Y-157700D01*
X160100Y-158200D02*
X157600Y-158200D01*
X160500Y-158600D02*
X160100Y-158200D01*
X160500Y-161100D02*
X160500Y-158600D01*
X159900Y-161700D02*
X160500Y-161100D01*
X155320Y-162180D02*
X155320Y-162680D01*
X155800Y-161700D02*
X155320Y-162180D01*
X157400Y-161700D02*
X155800Y-161700D01*
X155320Y-168370D02*
X155320Y-162680D01*
X157950Y-125250D02*
X161250Y-125250D01*
X157100Y-126100D02*
X157950Y-125250D01*
X157100Y-157700D02*
X157100Y-126100D01*
X162750Y-128500D02*
X164750Y-128500D01*
X162750Y-143250D02*
X162750Y-128500D01*
X161250Y-144000D02*
X162000Y-144000D01*
X162000Y-144000D02*
X162750Y-143250D01*
X156320Y-164000D02*
X156320Y-163380D01*
X163500Y-162000D02*
X163500Y-160000D01*
X162800Y-162700D02*
X163500Y-162000D01*
X157000Y-162700D02*
X162800Y-162700D01*
X156320Y-163380D02*
X157000Y-162700D01*
X156320Y-168370D02*
X156320Y-164000D01*
X166500Y-157750D02*
X166500Y-156750D01*
X167500Y-158750D02*
X166500Y-157750D01*
X181250Y-158750D02*
X167500Y-158750D01*
X181750Y-159250D02*
X181250Y-158750D01*
X166500Y-156750D02*
X165250Y-156750D01*
X163500Y-158500D02*
X163500Y-160000D01*
X165250Y-156750D02*
X163500Y-158500D01*
X181750Y-160000D02*
X181750Y-159250D01*
X190100Y-163500D02*
X189900Y-163500D01*
X179500Y-163500D02*
X179200Y-163500D01*
X179900Y-163500D02*
X179500Y-163500D01*
X180300Y-163100D02*
X179900Y-163500D01*
X180300Y-162100D02*
X180300Y-163100D01*
X180500Y-161900D02*
X180300Y-162100D01*
X189000Y-161900D02*
X180500Y-161900D01*
X189200Y-162100D02*
X189000Y-161900D01*
X189200Y-162800D02*
X189200Y-162100D01*
X189900Y-163500D02*
X189200Y-162800D01*
X157320Y-168370D02*
X157320Y-163930D01*
X157320Y-163930D02*
X157750Y-163500D01*
X157750Y-163500D02*
X179200Y-163500D01*
X199200Y-157000D02*
X197250Y-157000D01*
X201000Y-158250D02*
X201000Y-157000D01*
X195750Y-163500D02*
X201000Y-158250D01*
X190100Y-163500D02*
X195750Y-163500D01*
X195500Y-157000D02*
X194000Y-155500D01*
X197250Y-138750D02*
X196000Y-138750D01*
X195500Y-139250D02*
X195500Y-157000D01*
X196000Y-138750D02*
X195500Y-139250D01*
X197250Y-157000D02*
X195500Y-157000D01*
X194000Y-155500D02*
X194000Y-154000D01*
X159200Y-105500D02*
X156400Y-105500D01*
X159300Y-105500D02*
X159200Y-105500D01*
X156400Y-105500D02*
X156200Y-105300D01*
X156200Y-108500D02*
X156200Y-105300D01*
X156200Y-108500D02*
X156200Y-122400D01*
X156200Y-126700D02*
X156200Y-160100D01*
X156800Y-160700D02*
X158400Y-160700D01*
X156200Y-160100D02*
X156800Y-160700D01*
X156200Y-122400D02*
X156200Y-126700D01*
X156200Y-105300D02*
X156200Y-87900D01*
X156200Y-87900D02*
X156600Y-87500D01*
X156600Y-87500D02*
X159800Y-87500D01*
X158400Y-164500D02*
X158320Y-164580D01*
X158320Y-164580D02*
X158320Y-165980D01*
X158320Y-165980D02*
X158300Y-166000D01*
X158300Y-166000D02*
X158320Y-166000D01*
X158320Y-168370D02*
X158320Y-166000D01*
X158320Y-166000D02*
X158320Y-165780D01*
X161000Y-87500D02*
X159800Y-87500D01*
X159800Y-87500D02*
X159300Y-87500D01*
X159250Y-105500D02*
X159300Y-105500D01*
X159300Y-105500D02*
X161000Y-105500D01*
X163250Y-87500D02*
X161000Y-87500D01*
X164250Y-88500D02*
X164000Y-88250D01*
X164000Y-88250D02*
X163250Y-87500D01*
X164250Y-90500D02*
X164250Y-88500D01*
X159320Y-165930D02*
X159320Y-164780D01*
X184600Y-164300D02*
X185100Y-163800D01*
X159800Y-164300D02*
X184600Y-164300D01*
X159320Y-164780D02*
X159800Y-164300D01*
X186000Y-158500D02*
X185700Y-158500D01*
X184000Y-122750D02*
X182000Y-122750D01*
X182000Y-122750D02*
X181750Y-122500D01*
X181750Y-122500D02*
X181750Y-122000D01*
X188800Y-125200D02*
X190600Y-127000D01*
X190600Y-127000D02*
X190600Y-148500D01*
X190600Y-148500D02*
X190300Y-148800D01*
X190300Y-148800D02*
X190300Y-152600D01*
X190300Y-152600D02*
X190600Y-152900D01*
X190600Y-152900D02*
X192500Y-152900D01*
X192500Y-152900D02*
X192800Y-153200D01*
X192800Y-153200D02*
X192800Y-154900D01*
X192800Y-154900D02*
X193200Y-155300D01*
X193200Y-155300D02*
X193200Y-157300D01*
X184000Y-125200D02*
X188800Y-125200D01*
X193200Y-158100D02*
X192800Y-158500D01*
X192800Y-158500D02*
X186000Y-158500D01*
X193200Y-157300D02*
X193200Y-158100D01*
X185700Y-158500D02*
X185200Y-159000D01*
X185100Y-162700D02*
X185100Y-163800D01*
X181750Y-122000D02*
X181750Y-121120D01*
X181102Y-120472D02*
X165278Y-120472D01*
X181750Y-121120D02*
X181102Y-120472D01*
X159320Y-168370D02*
X159320Y-165930D01*
X166750Y-118750D02*
X166750Y-119000D01*
X166750Y-119000D02*
X165278Y-120472D01*
X165278Y-120472D02*
X163750Y-122000D01*
X148750Y-118500D02*
X151700Y-118500D01*
X151500Y-156400D02*
X151000Y-156400D01*
X152200Y-155700D02*
X151500Y-156400D01*
X152200Y-119000D02*
X152200Y-155700D01*
X151700Y-118500D02*
X152200Y-119000D01*
X147320Y-163880D02*
X151000Y-160200D01*
X147320Y-163880D02*
X147320Y-168370D01*
X151000Y-160200D02*
X151000Y-156400D01*
X145500Y-115250D02*
X145500Y-118100D01*
X145900Y-118500D02*
X148750Y-118500D01*
X145500Y-118100D02*
X145900Y-118500D01*
X148750Y-100250D02*
X148000Y-100250D01*
X146500Y-115250D02*
X145500Y-115250D01*
X147500Y-114250D02*
X146500Y-115250D01*
X147500Y-100750D02*
X147500Y-114250D01*
X148000Y-100250D02*
X147500Y-100750D01*
X111000Y-155750D02*
X111000Y-159000D01*
X111000Y-159000D02*
X112700Y-160700D01*
X148320Y-169430D02*
X148320Y-168370D01*
X112700Y-163500D02*
X113750Y-163500D01*
X113750Y-163500D02*
X139000Y-163500D01*
X139000Y-163500D02*
X145000Y-169500D01*
X145000Y-169500D02*
X148250Y-169500D01*
X148250Y-169500D02*
X148320Y-169430D01*
X112000Y-138000D02*
X111000Y-138000D01*
X110750Y-155750D02*
X111000Y-155750D01*
X111000Y-155750D02*
X112000Y-155750D01*
X110500Y-155500D02*
X110750Y-155750D01*
X110500Y-138500D02*
X110500Y-155500D01*
X111000Y-138000D02*
X110500Y-138500D01*
X114500Y-155750D02*
X113500Y-155750D01*
X113500Y-155750D02*
X112000Y-155750D01*
X115250Y-155000D02*
X114500Y-155750D01*
X115250Y-153000D02*
X115250Y-155000D01*
X113900Y-164300D02*
X138550Y-164300D01*
X138800Y-164500D02*
X138800Y-164550D01*
X138750Y-164500D02*
X138800Y-164500D01*
X138550Y-164300D02*
X138750Y-164500D01*
X115500Y-160000D02*
X114400Y-160000D01*
X114400Y-160000D02*
X113900Y-159500D01*
X113900Y-160700D02*
X113900Y-159500D01*
X113900Y-159500D02*
X113900Y-157500D01*
X113900Y-157500D02*
X114650Y-156750D01*
X114650Y-156750D02*
X118250Y-156750D01*
X113900Y-160000D02*
X113900Y-160700D01*
X149320Y-168370D02*
X149320Y-169680D01*
X149320Y-169680D02*
X148500Y-170500D01*
X148500Y-170500D02*
X144750Y-170500D01*
X144750Y-170500D02*
X138800Y-164550D01*
X138800Y-164550D02*
X138598Y-164348D01*
X132750Y-158500D02*
X115500Y-158500D01*
X133500Y-159250D02*
X132750Y-158500D01*
X118250Y-156750D02*
X117250Y-156750D01*
X115500Y-158500D02*
X115500Y-160000D01*
X133500Y-160000D02*
X133500Y-159250D01*
X150320Y-168370D02*
X150320Y-162080D01*
X148750Y-157500D02*
X148750Y-156000D01*
X149000Y-157750D02*
X148750Y-157500D01*
X152000Y-160400D02*
X152000Y-157750D01*
X150320Y-162080D02*
X152000Y-160400D01*
X148750Y-138000D02*
X147150Y-138000D01*
X146750Y-153250D02*
X145500Y-153250D01*
X146750Y-138400D02*
X146750Y-153250D01*
X147150Y-138000D02*
X146750Y-138400D01*
X148750Y-156000D02*
X147500Y-156000D01*
X145500Y-155750D02*
X145500Y-153250D01*
X145750Y-156000D02*
X145500Y-155750D01*
X147500Y-156000D02*
X145750Y-156000D01*
X151320Y-168370D02*
X151320Y-170480D01*
X110250Y-87250D02*
X112000Y-87250D01*
X110250Y-91000D02*
X110250Y-87250D01*
X107750Y-160250D02*
X107750Y-91000D01*
X113000Y-165500D02*
X107750Y-160250D01*
X138250Y-165500D02*
X113000Y-165500D01*
X144000Y-171250D02*
X138250Y-165500D01*
X150550Y-171250D02*
X144000Y-171250D01*
X151320Y-170480D02*
X150550Y-171250D01*
X114500Y-90500D02*
X115250Y-90500D01*
X114000Y-91000D02*
X114500Y-90500D01*
X114000Y-103750D02*
X114000Y-91000D01*
X112250Y-105500D02*
X114000Y-103750D01*
X112000Y-87250D02*
X114750Y-87250D01*
X115250Y-87750D02*
X115250Y-90500D01*
X114750Y-87250D02*
X115250Y-87750D01*
X112000Y-105500D02*
X112250Y-105500D01*
X144500Y-118300D02*
X144500Y-119000D01*
X153200Y-123500D02*
X153000Y-123700D01*
X119000Y-116400D02*
X118000Y-117400D01*
X143800Y-116400D02*
X119000Y-116400D01*
X144500Y-117100D02*
X143800Y-116400D01*
X144500Y-118300D02*
X144500Y-117100D01*
X118000Y-118750D02*
X118000Y-117400D01*
X153000Y-123700D02*
X153000Y-157700D01*
X153200Y-120200D02*
X153200Y-123500D01*
X151300Y-120000D02*
X151300Y-120200D01*
X150800Y-119500D02*
X151300Y-120000D01*
X145000Y-119500D02*
X150800Y-119500D01*
X144500Y-119000D02*
X145000Y-119500D01*
X152320Y-161580D02*
X153000Y-160900D01*
X153000Y-160900D02*
X153000Y-157700D01*
X152320Y-161580D02*
X152320Y-168370D01*
X153000Y-157700D02*
X153000Y-157500D01*
X115000Y-122000D02*
X115000Y-122250D01*
X118000Y-120250D02*
X118000Y-118750D01*
X133000Y-122000D02*
X133000Y-121750D01*
X133000Y-121750D02*
X132000Y-120750D01*
X132000Y-120750D02*
X118500Y-120750D01*
X118500Y-120750D02*
X118000Y-120250D01*
X118000Y-118750D02*
X115750Y-118750D01*
X115750Y-118750D02*
X115000Y-119500D01*
X115000Y-119500D02*
X115000Y-122000D01*
X177000Y-85500D02*
X177000Y-85600D01*
X177000Y-85600D02*
X177400Y-86000D01*
X178250Y-86000D02*
X191500Y-86000D01*
X191500Y-86000D02*
X192000Y-86500D01*
X192000Y-86500D02*
X192000Y-87500D01*
X177400Y-86000D02*
X178250Y-86000D01*
X194750Y-84500D02*
X196500Y-84500D01*
X183600Y-80700D02*
X170400Y-80700D01*
X184300Y-81400D02*
X183600Y-80700D01*
X192400Y-81400D02*
X184300Y-81400D01*
X196800Y-81400D02*
X192400Y-81400D01*
X196500Y-84500D02*
X196800Y-84200D01*
X177000Y-84500D02*
X177000Y-85500D01*
X171790Y-80730D02*
X173330Y-80730D01*
X171700Y-80700D02*
X171790Y-80730D01*
X170400Y-80700D02*
X171700Y-80700D01*
X153320Y-161580D02*
X154400Y-160500D01*
X153320Y-168370D02*
X153320Y-161580D01*
X155550Y-80700D02*
X170400Y-80700D01*
X154400Y-81850D02*
X155550Y-80700D01*
X154400Y-160500D02*
X154400Y-81850D01*
X192000Y-87500D02*
X194000Y-87500D01*
X194750Y-86750D02*
X194750Y-84500D01*
X194000Y-87500D02*
X194750Y-86750D01*
X177000Y-84500D02*
X177000Y-84750D01*
X196800Y-82250D02*
X199450Y-82250D01*
X199450Y-82250D02*
X199900Y-82700D01*
X200200Y-85300D02*
X200200Y-83000D01*
X200200Y-85300D02*
X200750Y-85850D01*
X200750Y-85850D02*
X200750Y-119750D01*
X199250Y-119750D02*
X198500Y-119000D01*
X198500Y-119000D02*
X197750Y-119000D01*
X200200Y-83000D02*
X199900Y-82700D01*
X181800Y-82250D02*
X170450Y-82250D01*
X170450Y-82250D02*
X170300Y-82100D01*
X160750Y-81502D02*
X169702Y-81502D01*
X169702Y-81502D02*
X170300Y-82100D01*
X154320Y-162180D02*
X155250Y-161250D01*
X155250Y-161250D02*
X155250Y-82500D01*
X155250Y-82500D02*
X156248Y-81502D01*
X156248Y-81502D02*
X160750Y-81502D01*
X154320Y-168370D02*
X154320Y-162180D01*
X181750Y-82250D02*
X181800Y-82250D01*
X181800Y-82250D02*
X196800Y-82250D01*
X195000Y-115750D02*
X194500Y-115750D01*
X196000Y-114750D02*
X195000Y-115750D01*
X196000Y-102250D02*
X196000Y-114750D01*
X197500Y-100750D02*
X196000Y-102250D01*
X194500Y-115750D02*
X194500Y-118000D01*
X195500Y-119000D02*
X197750Y-119000D01*
X194500Y-118000D02*
X195500Y-119000D01*
X197750Y-100750D02*
X197500Y-100750D01*
X196200Y-80500D02*
X195800Y-80500D01*
X191800Y-76500D02*
X187500Y-76500D01*
X195800Y-80500D02*
X191800Y-76500D01*
X104600Y-82300D02*
X105400Y-82300D01*
X105400Y-82300D02*
X105500Y-82400D01*
X123500Y-65250D02*
X122250Y-65250D01*
X122250Y-65250D02*
X109000Y-78500D01*
X109000Y-78500D02*
X106500Y-78500D01*
X106500Y-78500D02*
X105500Y-79500D01*
X105500Y-79500D02*
X105500Y-82400D01*
X105500Y-82400D02*
X105500Y-86000D01*
X144000Y-59750D02*
X136500Y-59750D01*
X123500Y-65250D02*
X123500Y-69000D01*
X125500Y-63250D02*
X123500Y-65250D01*
X133000Y-63250D02*
X125500Y-63250D01*
X136500Y-59750D02*
X133000Y-63250D01*
X162000Y-59500D02*
X152250Y-59500D01*
X143500Y-60250D02*
X143500Y-62000D01*
X145750Y-58000D02*
X144000Y-59750D01*
X144000Y-59750D02*
X143500Y-60250D01*
X150750Y-58000D02*
X145750Y-58000D01*
X152250Y-59500D02*
X150750Y-58000D01*
X180750Y-66750D02*
X180750Y-65000D01*
X161500Y-60000D02*
X161500Y-61000D01*
X162250Y-59250D02*
X162000Y-59500D01*
X162000Y-59500D02*
X161500Y-60000D01*
X167750Y-59250D02*
X162250Y-59250D01*
X169750Y-61250D02*
X167750Y-59250D01*
X177000Y-61250D02*
X169750Y-61250D01*
X180750Y-65000D02*
X177000Y-61250D01*
X199500Y-79000D02*
X199500Y-78500D01*
X180250Y-66750D02*
X179500Y-66000D01*
X187750Y-66750D02*
X180750Y-66750D01*
X180750Y-66750D02*
X180250Y-66750D01*
X199500Y-78500D02*
X187750Y-66750D01*
X211250Y-97000D02*
X211250Y-93750D01*
X200250Y-79000D02*
X199500Y-79000D01*
X199500Y-79000D02*
X197500Y-79000D01*
X200500Y-79250D02*
X200250Y-79000D01*
X200500Y-80250D02*
X200500Y-79250D01*
X203500Y-83250D02*
X200500Y-80250D01*
X203500Y-86000D02*
X203500Y-83250D01*
X211250Y-93750D02*
X203500Y-86000D01*
X216250Y-116000D02*
X216250Y-106250D01*
X211250Y-97000D02*
X209500Y-97000D01*
X212500Y-98250D02*
X211250Y-97000D01*
X212500Y-102500D02*
X212500Y-98250D01*
X216250Y-106250D02*
X212500Y-102500D01*
X214500Y-133000D02*
X214500Y-132500D01*
X215250Y-115000D02*
X214500Y-115000D01*
X216250Y-116000D02*
X215250Y-115000D01*
X216250Y-130750D02*
X216250Y-116000D01*
X214500Y-132500D02*
X216250Y-130750D01*
X207500Y-151000D02*
X209000Y-151000D01*
X214500Y-145500D02*
X214500Y-133000D01*
X209000Y-151000D02*
X214500Y-145500D01*
X193500Y-168000D02*
X196000Y-168000D01*
X207000Y-151500D02*
X207500Y-151000D01*
X207000Y-158000D02*
X207000Y-151500D01*
X197000Y-168000D02*
X207000Y-158000D01*
X196000Y-168000D02*
X197000Y-168000D01*
X175500Y-179000D02*
X179750Y-179000D01*
X193500Y-171250D02*
X193500Y-168000D01*
X192500Y-172250D02*
X193500Y-171250D01*
X190250Y-172250D02*
X192500Y-172250D01*
X186750Y-175750D02*
X190250Y-172250D01*
X184250Y-175750D02*
X186750Y-175750D01*
X181000Y-179000D02*
X184250Y-175750D01*
X179750Y-179000D02*
X181000Y-179000D01*
X157625Y-179625D02*
X167625Y-179625D01*
X175500Y-179750D02*
X175500Y-179000D01*
X174750Y-180500D02*
X175500Y-179750D01*
X174250Y-180500D02*
X174750Y-180500D01*
X173000Y-179250D02*
X174250Y-180500D01*
X168000Y-179250D02*
X173000Y-179250D01*
X167625Y-179625D02*
X168000Y-179250D01*
X158500Y-183000D02*
X158500Y-183250D01*
X156500Y-177250D02*
X155500Y-177250D01*
X156500Y-180750D02*
X157625Y-179625D01*
X157625Y-179625D02*
X160000Y-177250D01*
X156500Y-183000D02*
X156500Y-180750D01*
X157500Y-184000D02*
X156500Y-183000D01*
X157750Y-184000D02*
X157500Y-184000D01*
X158500Y-183250D02*
X157750Y-184000D01*
X122500Y-174000D02*
X131500Y-174000D01*
X136250Y-178750D02*
X142250Y-178750D01*
X131500Y-174000D02*
X136250Y-178750D01*
X105500Y-86000D02*
X105500Y-85500D01*
X102300Y-82200D02*
X101500Y-81250D01*
X101500Y-81250D02*
X101500Y-78000D01*
X96500Y-139000D02*
X97750Y-139000D01*
X105500Y-153250D02*
X105500Y-158000D01*
X100750Y-148500D02*
X105500Y-153250D01*
X100750Y-142000D02*
X100750Y-148500D01*
X97750Y-139000D02*
X100750Y-142000D01*
X94750Y-121500D02*
X94750Y-131250D01*
X96500Y-133000D02*
X96500Y-139000D01*
X96500Y-139000D02*
X96500Y-140000D01*
X94750Y-131250D02*
X96500Y-133000D01*
X97250Y-103500D02*
X97250Y-119000D01*
X94250Y-122000D02*
X93500Y-122000D01*
X97250Y-119000D02*
X94750Y-121500D01*
X94750Y-121500D02*
X94250Y-122000D01*
X105500Y-86000D02*
X105500Y-87750D01*
X105500Y-87750D02*
X102500Y-90750D01*
X102500Y-90750D02*
X102500Y-93750D01*
X102500Y-93750D02*
X99500Y-96750D01*
X99500Y-96750D02*
X99500Y-101250D01*
X99500Y-101250D02*
X97250Y-103500D01*
X96750Y-104000D02*
X96250Y-104000D01*
X97250Y-103500D02*
X96750Y-104000D01*
X123500Y-69000D02*
X123500Y-69250D01*
X106750Y-86000D02*
X105500Y-86000D01*
X123500Y-69250D02*
X106750Y-86000D01*
X145125Y-63625D02*
X139875Y-63625D01*
X139875Y-63625D02*
X135500Y-68000D01*
X135500Y-68000D02*
X124500Y-68000D01*
X124500Y-68000D02*
X123500Y-69000D01*
X178250Y-67750D02*
X178750Y-67750D01*
X178750Y-67750D02*
X187500Y-76500D01*
X196200Y-80500D02*
X196750Y-80500D01*
X196750Y-80500D02*
X197500Y-79750D01*
X197500Y-79750D02*
X197500Y-79000D01*
X161500Y-63250D02*
X164750Y-63250D01*
X179500Y-66500D02*
X179500Y-66000D01*
X178250Y-67750D02*
X179500Y-66500D01*
X169250Y-67750D02*
X178250Y-67750D01*
X164750Y-63250D02*
X169250Y-67750D01*
X143500Y-62000D02*
X145125Y-63625D01*
X145125Y-63625D02*
X145250Y-63750D01*
X161500Y-63250D02*
X161500Y-61000D01*
X161000Y-63750D02*
X161500Y-63250D01*
X145250Y-63750D02*
X161000Y-63750D01*
X160320Y-168370D02*
X160320Y-172430D01*
X140500Y-180500D02*
X140500Y-181000D01*
X142250Y-178750D02*
X140500Y-180500D01*
X154000Y-178750D02*
X142250Y-178750D01*
X160320Y-172430D02*
X155500Y-177250D01*
X155500Y-177250D02*
X154000Y-178750D01*
X170500Y-53750D02*
X181500Y-53750D01*
X189500Y-61750D02*
X189500Y-63000D01*
X181500Y-53750D02*
X189500Y-61750D01*
X151500Y-51250D02*
X168000Y-51250D01*
X170500Y-53750D02*
X170500Y-55000D01*
X168000Y-51250D02*
X170500Y-53750D01*
X135250Y-53375D02*
X135375Y-53375D01*
X152500Y-52250D02*
X152500Y-53000D01*
X151500Y-51250D02*
X152500Y-52250D01*
X137500Y-51250D02*
X151500Y-51250D01*
X135375Y-53375D02*
X137500Y-51250D01*
X116750Y-61750D02*
X125250Y-53250D01*
X135250Y-55250D02*
X134500Y-56000D01*
X135250Y-53500D02*
X135250Y-53375D01*
X135250Y-53375D02*
X135250Y-55250D01*
X135000Y-53250D02*
X135250Y-53500D01*
X125250Y-53250D02*
X135000Y-53250D01*
X100500Y-76500D02*
X100500Y-75500D01*
X117250Y-63250D02*
X116500Y-64000D01*
X117250Y-62250D02*
X117250Y-63250D01*
X116750Y-61750D02*
X117250Y-62250D01*
X114250Y-61750D02*
X116750Y-61750D01*
X100500Y-75500D02*
X114250Y-61750D01*
X89750Y-94000D02*
X89750Y-90250D01*
X101500Y-76750D02*
X101500Y-78000D01*
X100500Y-76500D02*
X101250Y-76500D01*
X101250Y-76500D02*
X101500Y-76750D01*
X95750Y-81250D02*
X100500Y-76500D01*
X95750Y-84250D02*
X95750Y-81250D01*
X89750Y-90250D02*
X95750Y-84250D01*
X83500Y-113750D02*
X83500Y-107250D01*
X90500Y-94000D02*
X91500Y-95000D01*
X89750Y-94000D02*
X90500Y-94000D01*
X87500Y-96250D02*
X89750Y-94000D01*
X87500Y-103250D02*
X87500Y-96250D01*
X83500Y-107250D02*
X87500Y-103250D01*
X84500Y-132000D02*
X84500Y-130750D01*
X86500Y-113500D02*
X86500Y-114000D01*
X85750Y-112750D02*
X86500Y-113500D01*
X84500Y-112750D02*
X85750Y-112750D01*
X83500Y-113750D02*
X84500Y-112750D01*
X83500Y-129750D02*
X83500Y-113750D01*
X84500Y-130750D02*
X83500Y-129750D01*
X89125Y-150125D02*
X89125Y-147875D01*
X85750Y-131250D02*
X86500Y-132000D01*
X85000Y-131250D02*
X85750Y-131250D01*
X84500Y-131750D02*
X85000Y-131250D01*
X84500Y-143250D02*
X84500Y-132000D01*
X84500Y-132000D02*
X84500Y-131750D01*
X89125Y-147875D02*
X84500Y-143250D01*
X102000Y-170000D02*
X102000Y-169750D01*
X90750Y-149250D02*
X91500Y-150000D01*
X90000Y-149250D02*
X90750Y-149250D01*
X89000Y-150250D02*
X89125Y-150125D01*
X89125Y-150125D02*
X90000Y-149250D01*
X89000Y-153500D02*
X89000Y-150250D01*
X96500Y-161000D02*
X89000Y-153500D01*
X96500Y-164250D02*
X96500Y-161000D01*
X102000Y-169750D02*
X96500Y-164250D01*
X122000Y-185750D02*
X117750Y-185750D01*
X105750Y-169000D02*
X104500Y-169000D01*
X105750Y-168250D02*
X105750Y-169000D01*
X104500Y-167000D02*
X105750Y-168250D01*
X103750Y-167000D02*
X104500Y-167000D01*
X102000Y-168750D02*
X103750Y-167000D01*
X102000Y-170000D02*
X102000Y-168750D01*
X117750Y-185750D02*
X102000Y-170000D01*
X141250Y-192750D02*
X129000Y-192750D01*
X122750Y-183000D02*
X122500Y-183000D01*
X123500Y-183000D02*
X122750Y-183000D01*
X123750Y-182750D02*
X123500Y-183000D01*
X123750Y-182000D02*
X123750Y-182750D01*
X123000Y-181250D02*
X123750Y-182000D01*
X121250Y-181250D02*
X123000Y-181250D01*
X120500Y-182000D02*
X121250Y-181250D01*
X120500Y-184250D02*
X120500Y-182000D01*
X129000Y-192750D02*
X122000Y-185750D01*
X122000Y-185750D02*
X120500Y-184250D01*
X160500Y-192750D02*
X141250Y-192750D01*
X140500Y-188500D02*
X140500Y-189250D01*
X139000Y-188500D02*
X140500Y-188500D01*
X138750Y-188750D02*
X139000Y-188500D01*
X138750Y-190250D02*
X138750Y-188750D01*
X141250Y-192750D02*
X138750Y-190250D01*
X160500Y-190000D02*
X160750Y-189750D01*
X182500Y-187000D02*
X176750Y-192750D01*
X176750Y-192750D02*
X160500Y-192750D01*
X160500Y-192750D02*
X158250Y-190500D01*
X158250Y-190500D02*
X158250Y-188500D01*
X158250Y-188500D02*
X158750Y-188000D01*
X158750Y-188000D02*
X160750Y-188000D01*
X182500Y-187000D02*
X182500Y-186000D01*
X160750Y-189750D02*
X160750Y-188000D01*
X203500Y-170000D02*
X203500Y-171250D01*
X181250Y-183250D02*
X182250Y-182250D01*
X181250Y-185250D02*
X181250Y-183250D01*
X182000Y-186000D02*
X181250Y-185250D01*
X188750Y-186000D02*
X182500Y-186000D01*
X182500Y-186000D02*
X182000Y-186000D01*
X203500Y-171250D02*
X188750Y-186000D01*
X223000Y-132500D02*
X223000Y-144500D01*
X223000Y-144500D02*
X215500Y-152000D01*
X222500Y-116000D02*
X223500Y-116000D01*
X224250Y-131250D02*
X223000Y-132500D01*
X223000Y-132500D02*
X221500Y-134000D01*
X224250Y-116750D02*
X224250Y-131250D01*
X223500Y-116000D02*
X224250Y-116750D01*
X218500Y-97000D02*
X219250Y-97000D01*
X222500Y-100250D02*
X222500Y-116000D01*
X219250Y-97000D02*
X222500Y-100250D01*
X208500Y-77250D02*
X214250Y-83000D01*
X218500Y-90000D02*
X218500Y-97000D01*
X214250Y-85750D02*
X218500Y-90000D01*
X214250Y-83000D02*
X214250Y-85750D01*
X189500Y-63000D02*
X194250Y-63000D01*
X194250Y-63000D02*
X208500Y-77250D01*
X208500Y-78000D02*
X207500Y-79000D01*
X208500Y-77250D02*
X208500Y-78000D01*
X203500Y-170000D02*
X204250Y-170000D01*
X204250Y-170000D02*
X214500Y-159750D01*
X214500Y-159750D02*
X214500Y-155500D01*
X214500Y-155500D02*
X215500Y-154500D01*
X215500Y-154500D02*
X215500Y-152000D01*
X183500Y-184000D02*
X183500Y-183500D01*
X183500Y-183500D02*
X182250Y-182250D01*
X190000Y-161000D02*
X190000Y-162000D01*
X190500Y-162500D02*
X191100Y-162500D01*
X190000Y-162000D02*
X190500Y-162500D01*
X191900Y-162500D02*
X191100Y-162500D01*
X196500Y-83000D02*
X198900Y-83000D01*
X199300Y-85550D02*
X199400Y-85650D01*
X199300Y-83400D02*
X199300Y-85550D01*
X198900Y-83000D02*
X199300Y-83400D01*
X162300Y-82250D02*
X157050Y-82250D01*
X156400Y-82900D02*
X156400Y-84000D01*
X157050Y-82250D02*
X156400Y-82900D01*
X150800Y-82250D02*
X153150Y-82250D01*
X153700Y-82800D02*
X153700Y-84700D01*
X153150Y-82250D02*
X153700Y-82800D01*
X152450Y-92250D02*
X153250Y-92250D01*
X153250Y-92250D02*
X153700Y-91800D01*
X150000Y-92250D02*
X152450Y-92250D01*
X152700Y-84000D02*
X153400Y-84000D01*
X153700Y-84300D02*
X153700Y-84700D01*
X153400Y-84000D02*
X153700Y-84300D01*
X153700Y-84700D02*
X153700Y-91800D01*
X161000Y-103400D02*
X161000Y-104500D01*
X153700Y-102600D02*
X153300Y-103000D01*
X153700Y-91800D02*
X153700Y-102600D01*
X157200Y-103000D02*
X160600Y-103000D01*
X160600Y-103000D02*
X161000Y-103400D01*
X151400Y-140200D02*
X150000Y-140200D01*
X149900Y-140400D02*
X150000Y-140400D01*
X149900Y-140300D02*
X149900Y-140400D01*
X150000Y-140200D02*
X149900Y-140300D01*
X147800Y-124000D02*
X147200Y-124600D01*
X151100Y-130000D02*
X151300Y-129800D01*
X151300Y-129800D02*
X151300Y-124200D01*
X151300Y-124200D02*
X151100Y-124000D01*
X151100Y-124000D02*
X147800Y-124000D01*
X150000Y-130000D02*
X151100Y-130000D01*
X142000Y-125900D02*
X141000Y-125900D01*
X146700Y-125900D02*
X144600Y-125900D01*
X147200Y-125400D02*
X146700Y-125900D01*
X147200Y-124600D02*
X147200Y-125400D01*
X150000Y-139000D02*
X150000Y-138900D01*
X161250Y-143000D02*
X158300Y-143000D01*
X162390Y-115390D02*
X162390Y-113950D01*
X162800Y-115800D02*
X162390Y-115390D01*
X162900Y-115800D02*
X162800Y-115800D01*
X163300Y-116200D02*
X162900Y-115800D01*
X163300Y-118700D02*
X163300Y-116200D01*
X162200Y-119800D02*
X163300Y-118700D01*
X159400Y-119800D02*
X162200Y-119800D01*
X158900Y-120300D02*
X159400Y-119800D01*
X158900Y-124400D02*
X158900Y-120300D01*
X158700Y-126500D02*
X158900Y-126500D01*
X158500Y-126500D02*
X158700Y-126500D01*
X158000Y-127000D02*
X158500Y-126500D01*
X158000Y-142700D02*
X158000Y-127000D01*
X158300Y-143000D02*
X158000Y-142700D01*
X110600Y-104250D02*
X109250Y-104250D01*
X110000Y-113500D02*
X109250Y-113500D01*
X168500Y-82250D02*
X162300Y-82250D01*
X162300Y-82250D02*
X161950Y-82250D01*
X169000Y-83500D02*
X169000Y-82750D01*
X169000Y-82750D02*
X168500Y-82250D01*
X150950Y-82250D02*
X150800Y-82250D01*
X150800Y-82250D02*
X149300Y-82250D01*
X163320Y-168370D02*
X184880Y-168370D01*
X201500Y-154250D02*
X200000Y-154250D01*
X201750Y-154500D02*
X201500Y-154250D01*
X201750Y-158750D02*
X201750Y-154500D01*
X196000Y-164500D02*
X201750Y-158750D01*
X188750Y-164500D02*
X196000Y-164500D01*
X184880Y-168370D02*
X188750Y-164500D01*
X141000Y-125900D02*
X141000Y-123500D01*
X198500Y-130500D02*
X198500Y-128750D01*
X190000Y-124000D02*
X190000Y-123500D01*
X190750Y-124750D02*
X190000Y-124000D01*
X194000Y-124750D02*
X190750Y-124750D01*
X194750Y-124000D02*
X194000Y-124750D01*
X199000Y-124000D02*
X196750Y-124000D01*
X199250Y-124250D02*
X199000Y-124000D01*
X199250Y-128000D02*
X199250Y-124250D01*
X198500Y-128750D02*
X199250Y-128000D01*
X200000Y-129750D02*
X200000Y-154250D01*
X200000Y-154250D02*
X200000Y-157950D01*
X195450Y-162500D02*
X191900Y-162500D01*
X191900Y-162500D02*
X191500Y-162500D01*
X200000Y-157950D02*
X195450Y-162500D01*
X200000Y-91500D02*
X200000Y-129750D01*
X199250Y-130500D02*
X198500Y-130500D01*
X200000Y-129750D02*
X199250Y-130500D01*
X178000Y-84500D02*
X178000Y-83500D01*
X200000Y-91500D02*
X199000Y-92500D01*
X200000Y-86250D02*
X200000Y-91500D01*
X199400Y-85650D02*
X200000Y-86250D01*
X178500Y-83000D02*
X196500Y-83000D01*
X178000Y-83500D02*
X178500Y-83000D01*
X111000Y-113500D02*
X110000Y-113500D01*
X140500Y-161750D02*
X140500Y-162500D01*
X150000Y-143000D02*
X150000Y-140400D01*
X150000Y-140400D02*
X150000Y-138900D01*
X150000Y-145750D02*
X150000Y-143000D01*
X150000Y-160250D02*
X150000Y-145750D01*
X147750Y-162500D02*
X150000Y-160250D01*
X145500Y-162500D02*
X147750Y-162500D01*
X140500Y-162500D02*
X145500Y-162500D01*
X150000Y-138900D02*
X150000Y-138000D01*
X119500Y-82250D02*
X149300Y-82250D01*
X149300Y-82250D02*
X149500Y-82250D01*
X133750Y-161750D02*
X112500Y-161750D01*
X109250Y-158500D02*
X109250Y-120250D01*
X112500Y-161750D02*
X109250Y-158500D01*
X109250Y-103000D02*
X109250Y-104250D01*
X119500Y-82250D02*
X113250Y-82250D01*
X113250Y-82250D02*
X109250Y-86250D01*
X109250Y-86250D02*
X109250Y-103000D01*
X109250Y-104250D02*
X109250Y-113500D01*
X109250Y-113500D02*
X109250Y-120250D01*
X113500Y-124500D02*
X113500Y-127000D01*
X109250Y-120250D02*
X113500Y-124500D01*
X119750Y-83250D02*
X119750Y-82500D01*
X110500Y-104250D02*
X110600Y-104250D01*
X110600Y-104250D02*
X112000Y-104250D01*
X119750Y-82500D02*
X119500Y-82250D01*
X190000Y-123500D02*
X181500Y-123500D01*
X181500Y-123500D02*
X180750Y-122750D01*
X180750Y-122750D02*
X180750Y-122000D01*
X161000Y-104500D02*
X161500Y-104500D01*
X161500Y-104500D02*
X162390Y-105390D01*
X162390Y-105390D02*
X162390Y-113950D01*
X169000Y-83500D02*
X177250Y-83500D01*
X178000Y-84250D02*
X178000Y-84500D01*
X177250Y-83500D02*
X178000Y-84250D01*
X197750Y-101750D02*
X198000Y-101750D01*
X198000Y-101750D02*
X199000Y-100750D01*
X199000Y-100750D02*
X199000Y-92500D01*
X160000Y-151750D02*
X160000Y-145750D01*
X160000Y-145750D02*
X160000Y-143500D01*
X160000Y-143500D02*
X160500Y-143000D01*
X160500Y-143000D02*
X161250Y-143000D01*
X198500Y-130500D02*
X198500Y-139500D01*
X198500Y-139500D02*
X198000Y-140000D01*
X198000Y-140000D02*
X197250Y-140000D01*
X190000Y-161000D02*
X181500Y-161000D01*
X181500Y-161000D02*
X181000Y-161000D01*
X180500Y-160500D02*
X180500Y-160000D01*
X181000Y-161000D02*
X180500Y-160500D01*
X148750Y-101250D02*
X149500Y-101250D01*
X150000Y-100750D02*
X150000Y-100400D01*
X149500Y-101250D02*
X150000Y-100750D01*
X150000Y-100400D02*
X150000Y-92250D01*
X119750Y-83250D02*
X128250Y-83250D01*
X128750Y-83750D02*
X128750Y-84500D01*
X128250Y-83250D02*
X128750Y-83750D01*
X141000Y-123500D02*
X133250Y-123500D01*
X133250Y-123500D02*
X132000Y-122250D01*
X132000Y-122250D02*
X132000Y-122000D01*
X150000Y-130000D02*
X150000Y-138000D01*
X150000Y-138000D02*
X150000Y-138250D01*
X132500Y-160000D02*
X132500Y-161000D01*
X133250Y-161750D02*
X133750Y-161750D01*
X133750Y-161750D02*
X140500Y-161750D01*
X140500Y-161750D02*
X141250Y-161750D01*
X132500Y-161000D02*
X133250Y-161750D01*
X112000Y-139000D02*
X112750Y-139000D01*
X112750Y-139000D02*
X113500Y-138250D01*
X113500Y-138250D02*
X113500Y-131250D01*
X113500Y-131250D02*
X114250Y-130500D01*
X114250Y-130500D02*
X114250Y-127500D01*
X114250Y-127500D02*
X113750Y-127000D01*
X113750Y-127000D02*
X113500Y-127000D01*
X162320Y-168370D02*
X162320Y-165720D01*
X162320Y-165720D02*
X162000Y-165400D01*
X162000Y-165400D02*
X161500Y-165400D01*
X161500Y-165400D02*
X162000Y-165400D01*
X166100Y-154600D02*
X165900Y-154600D01*
X165900Y-154600D02*
X165625Y-154875D01*
X166100Y-154600D02*
X167000Y-153700D01*
X167000Y-127000D02*
X167000Y-125000D01*
X167000Y-150700D02*
X167000Y-127000D01*
X167000Y-125000D02*
X166200Y-124200D01*
X163900Y-124200D02*
X166200Y-124200D01*
X166200Y-124200D02*
X189200Y-124200D01*
X189200Y-124200D02*
X190700Y-125700D01*
X191500Y-126500D02*
X191500Y-128200D01*
X190700Y-125700D02*
X191500Y-126500D01*
X189800Y-124800D02*
X190700Y-125700D01*
X191400Y-151400D02*
X191400Y-148500D01*
X191400Y-148500D02*
X191500Y-148400D01*
X116750Y-88500D02*
X117500Y-89250D01*
X147250Y-89250D02*
X117500Y-89250D01*
X116250Y-116500D02*
X113000Y-116500D01*
X117000Y-126000D02*
X115950Y-124950D01*
X143250Y-126900D02*
X139400Y-126900D01*
X142800Y-151400D02*
X142800Y-149550D01*
X166200Y-150300D02*
X166600Y-150300D01*
X166600Y-150300D02*
X166800Y-150500D01*
X165625Y-154875D02*
X163225Y-154875D01*
X116200Y-124700D02*
X115950Y-124950D01*
X138200Y-124700D02*
X116200Y-124700D01*
X138900Y-125400D02*
X138200Y-124700D01*
X138900Y-126400D02*
X138900Y-125400D01*
X139400Y-126900D02*
X138900Y-126400D01*
X162500Y-120625D02*
X160475Y-120625D01*
X160200Y-124200D02*
X163900Y-124200D01*
X163900Y-124200D02*
X164100Y-124200D01*
X159800Y-123800D02*
X160200Y-124200D01*
X159800Y-121300D02*
X159800Y-123800D01*
X160475Y-120625D02*
X159800Y-121300D01*
X166000Y-85500D02*
X166000Y-112250D01*
X167250Y-113500D02*
X167250Y-115980D01*
X162500Y-120750D02*
X162500Y-120625D01*
X166600Y-150300D02*
X166800Y-150500D01*
X166800Y-150500D02*
X167000Y-150700D01*
X162500Y-155500D02*
X162600Y-155500D01*
X162600Y-155500D02*
X163225Y-154875D01*
X162500Y-158000D02*
X162500Y-155500D01*
X143250Y-148250D02*
X143250Y-131800D01*
X142800Y-149550D02*
X143250Y-149100D01*
X143250Y-149100D02*
X143250Y-148250D01*
X143900Y-131400D02*
X143250Y-131400D01*
X147000Y-123750D02*
X147000Y-123800D01*
X147000Y-122000D02*
X147000Y-123750D01*
X147000Y-121250D02*
X147000Y-122000D01*
X146250Y-120500D02*
X147000Y-121250D01*
X144000Y-120500D02*
X146250Y-120500D01*
X143200Y-126300D02*
X143250Y-126300D01*
X143200Y-124900D02*
X143200Y-126300D01*
X143700Y-124400D02*
X143200Y-124900D01*
X146400Y-124400D02*
X143700Y-124400D01*
X147000Y-123800D02*
X146400Y-124400D01*
X161500Y-161600D02*
X161500Y-158500D01*
X161500Y-158500D02*
X161750Y-158250D01*
X162250Y-158250D02*
X162500Y-158000D01*
X161750Y-158250D02*
X162250Y-158250D01*
X166000Y-85500D02*
X165750Y-85500D01*
X147250Y-86500D02*
X147250Y-89250D01*
X147750Y-86000D02*
X147250Y-86500D01*
X152700Y-86000D02*
X147750Y-86000D01*
X165250Y-86000D02*
X156400Y-86000D01*
X165750Y-85500D02*
X165250Y-86000D01*
X166000Y-85500D02*
X166000Y-85750D01*
X166240Y-116990D02*
X166240Y-117010D01*
X167000Y-150700D02*
X167000Y-153700D01*
X166240Y-117010D02*
X162500Y-120750D01*
X195750Y-127000D02*
X192000Y-127000D01*
X192000Y-127000D02*
X191500Y-127500D01*
X191500Y-127500D02*
X191500Y-128200D01*
X191500Y-128200D02*
X191500Y-148400D01*
X192750Y-120500D02*
X195750Y-120500D01*
X196250Y-127500D02*
X196500Y-127500D01*
X195750Y-127000D02*
X196250Y-127500D01*
X195750Y-120500D02*
X195750Y-127000D01*
X192750Y-120500D02*
X192750Y-89750D01*
X192750Y-89750D02*
X192750Y-89500D01*
X196500Y-89500D02*
X192750Y-89500D01*
X192750Y-89500D02*
X166250Y-89500D01*
X167250Y-115980D02*
X166240Y-116990D01*
X166000Y-112250D02*
X167250Y-113500D01*
X143250Y-131800D02*
X143250Y-131400D01*
X143250Y-131400D02*
X143250Y-127450D01*
X143250Y-127450D02*
X143250Y-126900D01*
X143250Y-126900D02*
X143250Y-126300D01*
X143250Y-126300D02*
X143250Y-126000D01*
X147750Y-89250D02*
X147250Y-89250D01*
X117000Y-127000D02*
X117000Y-126000D01*
X113000Y-122000D02*
X113000Y-116500D01*
X115950Y-124950D02*
X113000Y-122000D01*
X116750Y-116000D02*
X116250Y-116500D01*
X116750Y-85750D02*
X116750Y-88500D01*
X116750Y-88500D02*
X116750Y-116000D01*
X161320Y-168370D02*
X161320Y-173430D01*
X155500Y-179250D02*
X155500Y-186750D01*
X161320Y-173430D02*
X155500Y-179250D01*
X209250Y-154000D02*
X210500Y-154000D01*
X198500Y-172000D02*
X198500Y-168000D01*
X209250Y-157250D02*
X209250Y-154000D01*
X198500Y-168000D02*
X209250Y-157250D01*
X191500Y-174250D02*
X193500Y-174250D01*
X195750Y-172000D02*
X198500Y-172000D01*
X193500Y-174250D02*
X195750Y-172000D01*
X179000Y-182500D02*
X181000Y-182500D01*
X189250Y-174250D02*
X191500Y-174250D01*
X181000Y-182500D02*
X189250Y-174250D01*
X172750Y-184000D02*
X176000Y-184000D01*
X177500Y-182500D02*
X179000Y-182500D01*
X176000Y-184000D02*
X177500Y-182500D01*
X154000Y-186750D02*
X155500Y-186750D01*
X155500Y-186750D02*
X166000Y-186750D01*
X172500Y-184250D02*
X172750Y-184000D01*
X168500Y-184250D02*
X172500Y-184250D01*
X166000Y-186750D02*
X168500Y-184250D01*
X154000Y-187500D02*
X154000Y-186750D01*
X138000Y-185500D02*
X151500Y-185500D01*
X152750Y-186750D02*
X154000Y-186750D01*
X151500Y-185500D02*
X152750Y-186750D01*
X132250Y-182750D02*
X133750Y-182750D01*
X136500Y-185500D02*
X138000Y-185500D01*
X133750Y-182750D02*
X136500Y-185500D01*
X121500Y-180000D02*
X128750Y-180000D01*
X131500Y-182750D02*
X132250Y-182750D01*
X128750Y-180000D02*
X131500Y-182750D01*
X113500Y-173000D02*
X113500Y-173500D01*
X121500Y-179500D02*
X121500Y-180000D01*
X119750Y-177750D02*
X121500Y-179500D01*
X117750Y-177750D02*
X119750Y-177750D01*
X113500Y-173500D02*
X117750Y-177750D01*
X104500Y-166000D02*
X107750Y-166000D01*
X113500Y-171750D02*
X113500Y-173000D01*
X107750Y-166000D02*
X113500Y-171750D01*
X97500Y-154500D02*
X97500Y-157500D01*
X104500Y-164500D02*
X104500Y-166000D01*
X97500Y-157500D02*
X104500Y-164500D01*
X93500Y-148000D02*
X93500Y-150500D01*
X93500Y-150500D02*
X97500Y-154500D01*
X90000Y-137250D02*
X90000Y-139750D01*
X93500Y-143250D02*
X93500Y-148000D01*
X90000Y-139750D02*
X93500Y-143250D01*
X88500Y-130000D02*
X88500Y-134750D01*
X90000Y-136250D02*
X90000Y-137250D01*
X88500Y-134750D02*
X90000Y-136250D01*
X88750Y-118000D02*
X88750Y-129750D01*
X88750Y-129750D02*
X88500Y-130000D01*
X89500Y-112000D02*
X89500Y-117000D01*
X88750Y-117750D02*
X88750Y-118000D01*
X89500Y-117000D02*
X88750Y-117750D01*
X93000Y-99500D02*
X93000Y-106000D01*
X89500Y-109500D02*
X89500Y-112000D01*
X93000Y-106000D02*
X89500Y-109500D01*
X94500Y-93000D02*
X94500Y-97000D01*
X93000Y-98500D02*
X93000Y-99500D01*
X94500Y-97000D02*
X93000Y-98500D01*
X103500Y-80750D02*
X103500Y-83900D01*
X94500Y-92900D02*
X94500Y-93000D01*
X103500Y-83900D02*
X94500Y-92900D01*
X105500Y-77000D02*
X104500Y-77000D01*
X103500Y-78000D02*
X103500Y-80750D01*
X104500Y-77000D02*
X103500Y-78000D01*
X119500Y-65500D02*
X118500Y-65500D01*
X107000Y-77000D02*
X105500Y-77000D01*
X118500Y-65500D02*
X107000Y-77000D01*
X126500Y-62500D02*
X124000Y-62500D01*
X121000Y-65500D02*
X119500Y-65500D01*
X124000Y-62500D02*
X121000Y-65500D01*
X136000Y-58500D02*
X134500Y-58500D01*
X130500Y-62500D02*
X126500Y-62500D01*
X134500Y-58500D02*
X130500Y-62500D01*
X147500Y-56250D02*
X139250Y-56250D01*
X137000Y-58500D02*
X136000Y-58500D01*
X139250Y-56250D02*
X137000Y-58500D01*
X154000Y-56500D02*
X147750Y-56500D01*
X147750Y-56500D02*
X147500Y-56250D01*
X165000Y-58000D02*
X155250Y-58000D01*
X154000Y-56750D02*
X154000Y-56500D01*
X155250Y-58000D02*
X154000Y-56750D01*
X172000Y-58500D02*
X167000Y-58500D01*
X166500Y-58000D02*
X165000Y-58000D01*
X167000Y-58500D02*
X166500Y-58000D01*
X183500Y-65250D02*
X182750Y-65250D01*
X173750Y-60250D02*
X172000Y-58500D01*
X177750Y-60250D02*
X173750Y-60250D01*
X182750Y-65250D02*
X177750Y-60250D01*
X191000Y-67500D02*
X190000Y-67500D01*
X187750Y-65250D02*
X183500Y-65250D01*
X190000Y-67500D02*
X187750Y-65250D01*
X202500Y-81000D02*
X202500Y-79000D01*
X202500Y-79000D02*
X191000Y-67500D01*
X204500Y-81000D02*
X202500Y-81000D01*
X214000Y-100000D02*
X214000Y-95000D01*
X204500Y-85500D02*
X204500Y-81000D01*
X214000Y-95000D02*
X204500Y-85500D01*
X215500Y-100000D02*
X214000Y-100000D01*
X217250Y-118000D02*
X217250Y-105000D01*
X215500Y-103250D02*
X215500Y-100000D01*
X217250Y-105000D02*
X215500Y-103250D01*
X217250Y-118000D02*
X217250Y-135750D01*
X217250Y-135750D02*
X217500Y-136000D01*
X218500Y-118000D02*
X217250Y-118000D01*
X216500Y-136000D02*
X217500Y-136000D01*
X121500Y-176000D02*
X121500Y-174000D01*
X123250Y-177750D02*
X121500Y-176000D01*
X125250Y-177750D02*
X123250Y-177750D01*
X128500Y-177750D02*
X125250Y-177750D01*
X128500Y-177000D02*
X128500Y-177750D01*
X134500Y-179000D02*
X134500Y-178500D01*
X128750Y-175750D02*
X127500Y-177000D01*
X130500Y-177500D02*
X128750Y-175750D01*
X133500Y-177500D02*
X130500Y-177500D01*
X134500Y-178500D02*
X133500Y-177500D01*
X133500Y-179000D02*
X133000Y-179000D01*
X133000Y-179000D02*
X132250Y-179750D01*
X97500Y-147500D02*
X97500Y-146250D01*
X101500Y-151500D02*
X97500Y-147500D01*
X101500Y-152000D02*
X101500Y-151500D01*
X97500Y-146250D02*
X97500Y-146000D01*
X98500Y-145500D02*
X95500Y-142500D01*
X98500Y-146000D02*
X98500Y-145500D01*
X95500Y-142500D02*
X95500Y-140000D01*
X100500Y-152000D02*
X100500Y-154500D01*
X168000Y-87500D02*
X173000Y-87500D01*
X174000Y-87500D02*
X178500Y-87500D01*
X179500Y-87500D02*
X185000Y-87500D01*
X167750Y-85500D02*
X167000Y-86250D01*
X169000Y-85500D02*
X167750Y-85500D01*
X167000Y-86250D02*
X167000Y-87500D01*
X186000Y-87500D02*
X191000Y-87500D01*
X151500Y-181000D02*
X146000Y-181000D01*
X152750Y-182250D02*
X151500Y-181000D01*
X152750Y-183000D02*
X152750Y-182250D01*
X145500Y-181500D02*
X145500Y-182000D01*
X146000Y-181000D02*
X145500Y-181500D01*
X146250Y-183000D02*
X140750Y-183000D01*
X146500Y-182750D02*
X146250Y-183000D01*
X146500Y-182000D02*
X146500Y-182750D01*
X139500Y-181750D02*
X139500Y-181000D01*
X140750Y-183000D02*
X139500Y-181750D01*
X151750Y-183000D02*
X151750Y-183500D01*
X152000Y-183750D02*
X154000Y-183750D01*
X151750Y-183500D02*
X152000Y-183750D01*
X109500Y-80000D02*
X115500Y-74000D01*
X93500Y-116000D02*
X93500Y-111500D01*
X93500Y-111500D02*
X93500Y-110000D01*
X94500Y-104750D02*
X95250Y-104000D01*
X94500Y-110000D02*
X94500Y-104750D01*
X92500Y-117250D02*
X91750Y-118000D01*
X92500Y-116000D02*
X92500Y-117250D01*
X93500Y-127750D02*
X92500Y-126750D01*
X93500Y-128000D02*
X93500Y-127750D01*
X92500Y-126750D02*
X92500Y-122000D01*
X94500Y-133000D02*
X92500Y-131000D01*
X94500Y-134000D02*
X94500Y-133000D01*
X92500Y-131000D02*
X92500Y-128000D01*
X93000Y-137250D02*
X93000Y-134250D01*
X93250Y-134000D02*
X93500Y-134000D01*
X93000Y-134250D02*
X93250Y-134000D01*
X109250Y-162750D02*
X108250Y-162750D01*
X110500Y-164000D02*
X109250Y-162750D01*
X104500Y-159000D02*
X104500Y-158000D01*
X108250Y-162750D02*
X104500Y-159000D01*
X114000Y-167000D02*
X112000Y-167000D01*
X112000Y-167000D02*
X109250Y-164250D01*
X116500Y-169500D02*
X116500Y-170000D01*
X109500Y-164000D02*
X109250Y-164250D01*
X116500Y-169500D02*
X114000Y-167000D01*
X116500Y-173000D02*
X116500Y-172000D01*
X115500Y-171000D02*
X115500Y-170000D01*
X116500Y-172000D02*
X115500Y-171000D01*
X98500Y-98000D02*
X98500Y-94000D01*
X98500Y-94000D02*
X100500Y-92000D01*
X104250Y-86250D02*
X104500Y-86000D01*
X104250Y-86500D02*
X104250Y-86250D01*
X101500Y-89250D02*
X104250Y-86500D01*
X101500Y-92000D02*
X101500Y-89250D01*
X96500Y-99250D02*
X96250Y-99500D01*
X97500Y-99250D02*
X96500Y-99250D01*
X97500Y-98000D02*
X97500Y-99250D01*
X96250Y-99500D02*
X96000Y-99500D01*
X107750Y-80750D02*
X108500Y-80000D01*
X106500Y-80750D02*
X107750Y-80750D01*
X116500Y-74000D02*
X116750Y-74000D01*
X121750Y-69000D02*
X122500Y-69000D01*
X116750Y-74000D02*
X121750Y-69000D01*
X179750Y-118750D02*
X185000Y-118750D01*
X173750Y-118750D02*
X178750Y-118750D01*
X167750Y-118750D02*
X172750Y-118750D01*
X164250Y-114750D02*
X164250Y-110000D01*
X164250Y-109000D02*
X164250Y-103750D01*
X164250Y-102750D02*
X164250Y-97750D01*
X164750Y-115750D02*
X166240Y-114260D01*
X164250Y-115750D02*
X164750Y-115750D01*
X166240Y-114260D02*
X166240Y-113990D01*
X164250Y-91500D02*
X164250Y-96750D01*
X176000Y-84500D02*
X171000Y-84500D01*
X170000Y-84500D02*
X165000Y-84500D01*
X164000Y-84250D02*
X164750Y-83500D01*
X164000Y-84500D02*
X164000Y-84250D01*
X164750Y-83500D02*
X166000Y-83500D01*
X186000Y-118750D02*
X190750Y-118750D01*
X191750Y-120500D02*
X191750Y-118750D01*
X189750Y-120500D02*
X191750Y-120500D01*
X194500Y-109500D02*
X194500Y-114750D01*
X194500Y-103500D02*
X194500Y-108500D01*
X194500Y-97500D02*
X194500Y-102500D01*
X194500Y-91500D02*
X194500Y-96500D01*
X196500Y-92500D02*
X196500Y-91000D01*
X196000Y-90500D02*
X194500Y-90500D01*
X196500Y-91000D02*
X196000Y-90500D01*
X172750Y-156750D02*
X167500Y-156750D01*
X179000Y-156750D02*
X173750Y-156750D01*
X185000Y-156750D02*
X180000Y-156750D01*
X191000Y-156750D02*
X186000Y-156750D01*
X192000Y-154600D02*
X191800Y-154400D01*
X192000Y-156750D02*
X192000Y-154600D01*
X191800Y-154400D02*
X191400Y-154400D01*
X194000Y-153000D02*
X194000Y-147750D01*
X194000Y-146750D02*
X194000Y-141500D01*
X194000Y-140500D02*
X194000Y-135250D01*
X194000Y-134250D02*
X194000Y-129500D01*
X196500Y-130500D02*
X196500Y-128750D01*
X196250Y-128500D02*
X194000Y-128500D01*
X196500Y-128750D02*
X196250Y-128500D01*
X164750Y-152750D02*
X164750Y-147500D01*
X164750Y-146500D02*
X164750Y-141500D01*
X164750Y-140500D02*
X164750Y-135500D01*
X163200Y-150300D02*
X163200Y-153400D01*
X163550Y-153750D02*
X164750Y-153750D01*
X163200Y-153400D02*
X163550Y-153750D01*
X164750Y-134500D02*
X164750Y-129500D01*
X84750Y-120000D02*
X84750Y-124250D01*
X86000Y-125500D02*
X86000Y-126250D01*
X84750Y-124250D02*
X86000Y-125500D01*
X100500Y-78000D02*
X100500Y-81000D01*
X100500Y-81000D02*
X98500Y-83000D01*
X94750Y-86250D02*
X94750Y-88750D01*
X97500Y-83500D02*
X94750Y-86250D01*
X97500Y-83000D02*
X97500Y-83500D01*
X94750Y-88750D02*
X94500Y-89000D01*
X92500Y-90000D02*
X92500Y-92000D01*
X93500Y-89000D02*
X92500Y-90000D01*
X92500Y-92000D02*
X91500Y-93000D01*
X169000Y-181750D02*
X166250Y-181750D01*
X169500Y-181250D02*
X169000Y-181750D01*
X169500Y-181000D02*
X169500Y-181250D01*
X163750Y-181750D02*
X163500Y-182000D01*
X163750Y-181000D02*
X163750Y-181750D01*
X165500Y-181000D02*
X163750Y-181000D01*
X166250Y-181750D02*
X165500Y-181000D01*
X157500Y-182250D02*
X158000Y-181750D01*
X157500Y-183000D02*
X157500Y-182250D01*
X163500Y-183000D02*
X164500Y-182000D01*
X162500Y-183000D02*
X163500Y-183000D01*
X161250Y-181750D02*
X162500Y-183000D01*
X158000Y-181750D02*
X161250Y-181750D01*
X168500Y-180000D02*
X168500Y-181000D01*
X170250Y-180000D02*
X168500Y-180000D01*
X171250Y-181000D02*
X170250Y-180000D01*
X172750Y-181000D02*
X171250Y-181000D01*
X85500Y-132000D02*
X85500Y-135000D01*
X87500Y-138250D02*
X87500Y-138000D01*
X87500Y-137000D02*
X87500Y-138250D01*
X85500Y-135000D02*
X87500Y-137000D01*
X86500Y-140000D02*
X89500Y-143000D01*
X86500Y-138000D02*
X86500Y-140000D01*
X89500Y-143000D02*
X89500Y-144000D01*
X88500Y-107000D02*
X87500Y-108000D01*
X88500Y-101000D02*
X88500Y-107000D01*
X90500Y-95000D02*
X90500Y-100000D01*
X90500Y-100000D02*
X89500Y-101000D01*
X86500Y-112000D02*
X86500Y-108000D01*
X85000Y-129500D02*
X85500Y-130000D01*
X85000Y-126250D02*
X85000Y-129500D01*
X85500Y-119750D02*
X85750Y-120000D01*
X85500Y-114000D02*
X85500Y-119750D01*
X128500Y-185500D02*
X128500Y-185000D01*
X128000Y-186000D02*
X128500Y-185500D01*
X123750Y-186000D02*
X128000Y-186000D01*
X121500Y-183750D02*
X123750Y-186000D01*
X121500Y-183000D02*
X121500Y-183750D01*
X129750Y-185000D02*
X131000Y-186250D01*
X129000Y-184250D02*
X129750Y-185000D01*
X127750Y-184250D02*
X129000Y-184250D01*
X127500Y-184500D02*
X127750Y-184250D01*
X127500Y-185000D02*
X127500Y-184500D01*
X134500Y-187250D02*
X134500Y-188000D01*
X133500Y-186250D02*
X134500Y-187250D01*
X131000Y-186250D02*
X133500Y-186250D01*
X200000Y-161750D02*
X199750Y-161750D01*
X204500Y-157250D02*
X200000Y-161750D01*
X204500Y-157000D02*
X204500Y-157250D01*
X199750Y-161750D02*
X198500Y-163000D01*
X199500Y-163000D02*
X199500Y-163250D01*
X192500Y-167250D02*
X192500Y-168000D01*
X193250Y-166500D02*
X192500Y-167250D01*
X196250Y-166500D02*
X193250Y-166500D01*
X199500Y-163250D02*
X196250Y-166500D01*
X203500Y-155500D02*
X203500Y-157000D01*
X205000Y-154000D02*
X203500Y-155500D01*
X206250Y-154000D02*
X205000Y-154000D01*
X181500Y-176000D02*
X181500Y-176500D01*
X174500Y-178000D02*
X174500Y-179000D01*
X175250Y-177250D02*
X174500Y-178000D01*
X180750Y-177250D02*
X175250Y-177250D01*
X181500Y-176500D02*
X180750Y-177250D01*
X139500Y-189250D02*
X139500Y-189500D01*
X146500Y-190250D02*
X146500Y-190000D01*
X145750Y-191000D02*
X146500Y-190250D01*
X141000Y-191000D02*
X145750Y-191000D01*
X139500Y-189500D02*
X141000Y-191000D01*
X145750Y-189250D02*
X152250Y-189250D01*
X145500Y-189500D02*
X145750Y-189250D01*
X145500Y-190000D02*
X145500Y-189500D01*
X152500Y-189500D02*
X152500Y-190000D01*
X152250Y-189250D02*
X152500Y-189500D01*
X153750Y-190750D02*
X154000Y-190500D01*
X152000Y-190750D02*
X153750Y-190750D01*
X151500Y-190250D02*
X152000Y-190750D01*
X151500Y-190000D02*
X151500Y-190250D01*
X109500Y-175500D02*
X111250Y-177250D01*
X109500Y-175000D02*
X109500Y-175500D01*
X114750Y-177250D02*
X116500Y-179000D01*
X111250Y-177250D02*
X114750Y-177250D01*
X105250Y-171250D02*
X107750Y-171250D01*
X103500Y-169500D02*
X105250Y-171250D01*
X103500Y-169000D02*
X103500Y-169500D01*
X110500Y-174000D02*
X110500Y-175000D01*
X107750Y-171250D02*
X110500Y-174000D01*
X115500Y-179000D02*
X115500Y-179250D01*
X116250Y-180000D02*
X118500Y-180000D01*
X115500Y-179250D02*
X116250Y-180000D01*
X134000Y-189000D02*
X133500Y-188500D01*
X138000Y-189000D02*
X134000Y-189000D01*
X138000Y-188500D02*
X138000Y-189000D01*
X133500Y-188500D02*
X133500Y-188000D01*
X208500Y-93250D02*
X208500Y-97000D01*
X206500Y-91250D02*
X208500Y-93250D01*
X206500Y-91000D02*
X206500Y-91250D01*
X205500Y-89000D02*
X205500Y-91000D01*
X202500Y-86000D02*
X205500Y-89000D01*
X202500Y-85000D02*
X202500Y-86000D01*
X201500Y-85000D02*
X201500Y-83250D01*
X199500Y-81250D02*
X199500Y-81000D01*
X201500Y-83250D02*
X199500Y-81250D01*
X149500Y-61000D02*
X154500Y-61000D01*
X155500Y-61000D02*
X160500Y-61000D01*
X185500Y-69000D02*
X190500Y-74000D01*
X191500Y-74000D02*
X196500Y-79000D01*
X183500Y-69000D02*
X184500Y-69000D01*
X183500Y-68250D02*
X183500Y-69000D01*
X133500Y-56000D02*
X133500Y-56250D01*
X131750Y-58000D02*
X128500Y-58000D01*
X133500Y-56250D02*
X131750Y-58000D01*
X127500Y-60000D02*
X126500Y-61000D01*
X127500Y-58000D02*
X127500Y-60000D01*
X126500Y-61000D02*
X122500Y-61000D01*
X121000Y-61000D02*
X119500Y-62500D01*
X121500Y-61000D02*
X121000Y-61000D01*
X211500Y-103000D02*
X211500Y-108500D01*
X212000Y-109000D02*
X212500Y-109000D01*
X211500Y-108500D02*
X212000Y-109000D01*
X210500Y-100250D02*
X210750Y-100000D01*
X210500Y-103000D02*
X210500Y-100250D01*
X210750Y-100000D02*
X211000Y-100000D01*
X213500Y-109000D02*
X213500Y-115000D01*
X136500Y-64000D02*
X136500Y-63500D01*
X138000Y-62000D02*
X142500Y-62000D01*
X136500Y-63500D02*
X138000Y-62000D01*
X130500Y-66000D02*
X130500Y-65500D01*
X132000Y-64000D02*
X135500Y-64000D01*
X130500Y-65500D02*
X132000Y-64000D01*
X129500Y-66000D02*
X127250Y-66000D01*
X126750Y-65500D02*
X126500Y-65500D01*
X127250Y-66000D02*
X126750Y-65500D01*
X96500Y-158250D02*
X99500Y-161250D01*
X95250Y-158250D02*
X96500Y-158250D01*
X94500Y-157500D02*
X95250Y-158250D01*
X94500Y-157000D02*
X94500Y-157500D01*
X99500Y-161250D02*
X99500Y-163000D01*
X90500Y-150000D02*
X90500Y-150500D01*
X95500Y-155500D02*
X95500Y-157000D01*
X90500Y-150500D02*
X95500Y-155500D01*
X98500Y-163000D02*
X98500Y-164000D01*
X100500Y-166000D02*
X101500Y-166000D01*
X98500Y-164000D02*
X100500Y-166000D01*
X90500Y-146250D02*
X90500Y-148000D01*
X88500Y-144250D02*
X90500Y-146250D01*
X88500Y-144000D02*
X88500Y-144250D01*
X147750Y-61000D02*
X147500Y-60750D01*
X148500Y-61000D02*
X147750Y-61000D01*
X147500Y-60750D02*
X147500Y-59250D01*
X173500Y-64000D02*
X175250Y-64000D01*
X177250Y-66000D02*
X178500Y-66000D01*
X175250Y-64000D02*
X177250Y-66000D01*
X171500Y-64000D02*
X172500Y-64000D01*
X169500Y-62000D02*
X171500Y-64000D01*
X167500Y-62000D02*
X169500Y-62000D01*
X165000Y-61000D02*
X166000Y-62000D01*
X166000Y-62000D02*
X166500Y-62000D01*
X110500Y-68000D02*
X110500Y-69000D01*
X110500Y-69000D02*
X106500Y-73000D01*
X112250Y-68000D02*
X111500Y-68000D01*
X115500Y-64750D02*
X112250Y-68000D01*
X115500Y-64000D02*
X115500Y-64750D01*
X105500Y-73250D02*
X102500Y-76250D01*
X105500Y-73000D02*
X105500Y-73250D01*
X102500Y-76250D02*
X102500Y-77000D01*
X134000Y-122000D02*
X139000Y-122000D01*
X128000Y-122000D02*
X129000Y-122000D01*
X122000Y-122000D02*
X127250Y-122000D01*
X127250Y-122000D02*
X127000Y-122000D01*
X116000Y-122000D02*
X121000Y-122000D01*
X148750Y-93250D02*
X148750Y-88250D01*
X149500Y-87250D02*
X148750Y-87250D01*
X150000Y-87750D02*
X149500Y-87250D01*
X150000Y-89250D02*
X150000Y-87750D01*
X126750Y-84500D02*
X121750Y-84500D01*
X115000Y-83250D02*
X116750Y-83250D01*
X114750Y-83500D02*
X115000Y-83250D01*
X114750Y-84500D02*
X114750Y-83500D01*
X131750Y-84500D02*
X132750Y-84500D01*
X133750Y-84500D02*
X138750Y-84500D01*
X139750Y-84500D02*
X144750Y-84500D01*
X140000Y-122000D02*
X145000Y-122000D01*
X144000Y-123500D02*
X145500Y-123500D01*
X146000Y-123000D02*
X146000Y-122000D01*
X145500Y-123500D02*
X146000Y-123000D01*
X112000Y-148750D02*
X112000Y-144000D01*
X112000Y-143000D02*
X112000Y-142000D01*
X112000Y-154750D02*
X112000Y-149750D01*
X112000Y-137000D02*
X112000Y-132000D01*
X112000Y-131000D02*
X112000Y-126000D01*
X112750Y-128250D02*
X112750Y-130000D01*
X112750Y-125000D02*
X112750Y-128250D01*
X112000Y-125000D02*
X112750Y-125000D01*
X112750Y-130000D02*
X113500Y-130000D01*
X148750Y-131000D02*
X148750Y-126000D01*
X150000Y-127000D02*
X150000Y-125250D01*
X149750Y-125000D02*
X148750Y-125000D01*
X150000Y-125250D02*
X149750Y-125000D01*
X148750Y-99250D02*
X148750Y-94250D01*
X148750Y-117500D02*
X148750Y-112250D01*
X148750Y-111250D02*
X148750Y-106250D01*
X148750Y-105250D02*
X148750Y-104250D01*
X112000Y-99250D02*
X112000Y-94250D01*
X112000Y-101250D02*
X112000Y-100250D01*
X112000Y-88250D02*
X112000Y-93250D01*
X111000Y-118250D02*
X111250Y-118500D01*
X111000Y-116500D02*
X111000Y-118250D01*
X111250Y-118500D02*
X112000Y-118500D01*
X112000Y-111500D02*
X112000Y-106500D01*
X112000Y-117500D02*
X112000Y-112500D01*
X145500Y-91250D02*
X145500Y-96250D01*
X145500Y-97250D02*
X145500Y-102250D01*
X145500Y-103250D02*
X145500Y-108250D01*
X147250Y-90250D02*
X145500Y-90250D01*
X147750Y-90750D02*
X147250Y-90250D01*
X147750Y-92250D02*
X147750Y-90750D01*
X145500Y-109250D02*
X145500Y-114250D01*
X115250Y-147000D02*
X115250Y-152000D01*
X115250Y-141000D02*
X115250Y-146000D01*
X115250Y-135000D02*
X115250Y-140000D01*
X141750Y-87750D02*
X136750Y-87750D01*
X135750Y-87750D02*
X130750Y-87750D01*
X129750Y-87750D02*
X124750Y-87750D01*
X123750Y-87750D02*
X118750Y-87750D01*
X119750Y-86250D02*
X119250Y-86750D01*
X119750Y-85750D02*
X119750Y-86250D01*
X117750Y-87500D02*
X117750Y-87750D01*
X118500Y-86750D02*
X117750Y-87500D01*
X119250Y-86750D02*
X118500Y-86750D01*
X137250Y-156750D02*
X142500Y-156750D01*
X136250Y-156750D02*
X131250Y-156750D01*
X124250Y-156750D02*
X119250Y-156750D01*
X130250Y-156750D02*
X125250Y-156750D01*
X143500Y-156750D02*
X143500Y-154800D01*
X143100Y-154400D02*
X142800Y-154400D01*
X143500Y-154800D02*
X143100Y-154400D01*
X124000Y-118750D02*
X119000Y-118750D01*
X130000Y-118750D02*
X125000Y-118750D01*
X136000Y-118750D02*
X131000Y-118750D01*
X142000Y-118750D02*
X137000Y-118750D01*
X142500Y-120500D02*
X141000Y-120500D01*
X143000Y-120000D02*
X142500Y-120500D01*
X143000Y-118750D02*
X143000Y-120000D01*
X120750Y-84500D02*
X115750Y-84500D01*
X115250Y-129000D02*
X115250Y-134000D01*
X115250Y-128000D02*
X115750Y-128000D01*
X116250Y-130000D02*
X117000Y-130000D01*
X116250Y-128500D02*
X116250Y-130000D01*
X115750Y-128000D02*
X116250Y-128500D01*
X145500Y-134000D02*
X145500Y-129000D01*
X145500Y-140000D02*
X145500Y-135000D01*
X145500Y-146250D02*
X145500Y-141000D01*
X145500Y-128000D02*
X146600Y-128000D01*
X146900Y-128300D02*
X146900Y-131400D01*
X146600Y-128000D02*
X146900Y-128300D01*
X145500Y-152250D02*
X145500Y-147250D01*
X114000Y-113750D02*
X114000Y-115000D01*
X113750Y-113500D02*
X114000Y-113750D01*
X113000Y-113500D02*
X113750Y-113500D01*
X114500Y-115500D02*
X115250Y-115500D01*
X114000Y-115000D02*
X114500Y-115500D01*
X115250Y-91500D02*
X115250Y-96500D01*
X115250Y-97500D02*
X115250Y-102500D01*
X115250Y-103500D02*
X115250Y-108500D01*
X115250Y-109500D02*
X115250Y-114500D01*
X161250Y-126250D02*
X161250Y-131500D01*
X161250Y-132500D02*
X161250Y-137750D01*
X161250Y-138750D02*
X161250Y-140000D01*
X161000Y-112750D02*
X161000Y-117750D01*
X162390Y-118610D02*
X162390Y-116950D01*
X162250Y-118750D02*
X162390Y-118610D01*
X161000Y-118750D02*
X162250Y-118750D01*
X161000Y-106500D02*
X161000Y-111750D01*
X197250Y-150250D02*
X197250Y-145000D01*
X197250Y-144000D02*
X197250Y-143000D01*
X197250Y-156000D02*
X197250Y-151250D01*
X197250Y-137750D02*
X197250Y-132500D01*
X197250Y-131500D02*
X197250Y-126250D01*
X198500Y-125500D02*
X198250Y-125250D01*
X198500Y-127500D02*
X198500Y-125500D01*
X198250Y-125250D02*
X197250Y-125250D01*
X161250Y-145000D02*
X161250Y-150000D01*
X161250Y-151000D02*
X161250Y-156000D01*
X160000Y-154750D02*
X160000Y-156000D01*
X161000Y-157000D02*
X161250Y-157000D01*
X160000Y-156000D02*
X161000Y-157000D01*
X170750Y-122000D02*
X175500Y-122000D01*
X176500Y-122000D02*
X177750Y-122000D01*
X182750Y-122000D02*
X187750Y-122000D01*
X188750Y-122000D02*
X193750Y-122000D01*
X194000Y-123500D02*
X194750Y-122750D01*
X193000Y-123500D02*
X194000Y-123500D01*
X194750Y-122750D02*
X194750Y-122000D01*
X193750Y-84500D02*
X189000Y-84500D01*
X188000Y-84500D02*
X183000Y-84500D01*
X182000Y-84500D02*
X181000Y-84500D01*
X161000Y-88500D02*
X161000Y-93500D01*
X161000Y-94500D02*
X161000Y-99500D01*
X161000Y-100500D02*
X161000Y-101500D01*
X197750Y-112000D02*
X197750Y-106750D01*
X197750Y-105750D02*
X197750Y-104750D01*
X197750Y-118000D02*
X197750Y-113000D01*
X197750Y-99750D02*
X197750Y-94500D01*
X197750Y-93500D02*
X197750Y-88500D01*
X198750Y-87500D02*
X197750Y-87500D01*
X199000Y-87750D02*
X198750Y-87500D01*
X199000Y-89500D02*
X199000Y-87750D01*
X164750Y-122000D02*
X169750Y-122000D01*
X140500Y-160000D02*
X145500Y-160000D01*
X148750Y-137000D02*
X148750Y-132000D01*
X148750Y-155000D02*
X148750Y-150000D01*
X148750Y-144000D02*
X148750Y-149000D01*
X148400Y-140200D02*
X148400Y-142650D01*
X148400Y-142650D02*
X148750Y-143000D01*
X116500Y-160000D02*
X121500Y-160000D01*
X122500Y-160000D02*
X127500Y-160000D01*
X128500Y-160000D02*
X129500Y-160000D01*
X146500Y-160000D02*
X146500Y-161250D01*
X146000Y-161750D02*
X144250Y-161750D01*
X146500Y-161250D02*
X146000Y-161750D01*
X134500Y-160000D02*
X139500Y-160000D01*
X188750Y-160000D02*
X194000Y-160000D01*
X182750Y-160000D02*
X187750Y-160000D01*
X194500Y-161000D02*
X195000Y-160500D01*
X193000Y-161000D02*
X194500Y-161000D01*
X195000Y-160500D02*
X195000Y-160000D01*
X176500Y-160000D02*
X177500Y-160000D01*
X164500Y-160000D02*
X169500Y-160000D01*
X170500Y-160000D02*
X175750Y-160000D01*
X175750Y-160000D02*
X175500Y-160000D01*
X214500Y-91000D02*
X214500Y-88000D01*
X214500Y-88000D02*
X211500Y-85000D01*
X217500Y-97000D02*
X217500Y-93000D01*
X217500Y-93000D02*
X215500Y-91000D01*
X210500Y-84000D02*
X207500Y-81000D01*
X210500Y-85000D02*
X210500Y-84000D01*
X219500Y-100209D02*
X219291Y-100000D01*
X219500Y-103000D02*
X219500Y-100209D01*
X219291Y-100000D02*
X218500Y-100000D01*
G54D15*
X221500Y-116000D02*
X221500Y-109000D01*
G54D14*
X162500Y-53000D02*
X158500Y-53000D01*
X163500Y-54000D02*
X162500Y-53000D01*
X168000Y-54000D02*
X164500Y-54000D01*
X169000Y-55000D02*
X168000Y-54000D01*
X169500Y-55000D02*
X169000Y-55000D01*
X154500Y-53000D02*
X154000Y-53500D01*
X157500Y-53000D02*
X154500Y-53000D01*
X138500Y-55500D02*
X136000Y-55500D01*
X139500Y-54500D02*
X138500Y-55500D01*
X139500Y-54000D02*
X139500Y-54500D01*
X151500Y-53000D02*
X146500Y-53000D01*
X145500Y-53000D02*
X142250Y-53000D01*
X141250Y-54000D02*
X140500Y-54000D01*
X142250Y-53000D02*
X141250Y-54000D01*
X220500Y-104750D02*
X220500Y-109000D01*
X220500Y-103000D02*
X220500Y-104750D01*
X217500Y-144250D02*
X220500Y-141250D01*
X217500Y-146000D02*
X217500Y-144250D01*
X220500Y-141250D02*
X220500Y-140000D01*
X218500Y-147750D02*
X218500Y-146000D01*
X214500Y-151750D02*
X218500Y-147750D01*
X214500Y-152000D02*
X214500Y-151750D01*
X219500Y-140000D02*
X219500Y-139500D01*
X220500Y-138500D02*
X220500Y-136000D01*
X219500Y-139500D02*
X220500Y-138500D01*
X221500Y-122000D02*
X221500Y-118000D01*
X222500Y-131500D02*
X222500Y-128000D01*
X220500Y-133500D02*
X222500Y-131500D01*
X220500Y-134000D02*
X220500Y-133500D01*
X221500Y-126500D02*
X222500Y-125500D01*
X221500Y-128000D02*
X221500Y-126500D01*
X222500Y-125500D02*
X222500Y-122000D01*
X177250Y-57000D02*
X176500Y-57000D01*
X180250Y-60000D02*
X177250Y-57000D01*
X182500Y-60000D02*
X180250Y-60000D01*
X187500Y-63000D02*
X188500Y-63000D01*
X184500Y-60000D02*
X187500Y-63000D01*
X183500Y-60000D02*
X184500Y-60000D01*
X174000Y-57000D02*
X172500Y-55500D01*
X175500Y-57000D02*
X174000Y-57000D01*
X172500Y-55500D02*
X172000Y-55500D01*
X192250Y-64750D02*
X191250Y-64750D01*
X194500Y-67000D02*
X192250Y-64750D01*
X191250Y-64750D02*
X191000Y-64500D01*
X206500Y-79000D02*
X206500Y-77000D01*
X206500Y-77000D02*
X201500Y-72000D01*
X200500Y-72000D02*
X195250Y-66750D01*
X195250Y-66750D02*
X195500Y-67000D01*
X204500Y-168500D02*
X204000Y-168500D01*
X208500Y-164500D02*
X204500Y-168500D01*
X208500Y-164000D02*
X208500Y-164500D01*
X204000Y-168500D02*
X202500Y-170000D01*
X212500Y-159000D02*
X207500Y-164000D01*
X212500Y-158000D02*
X212500Y-159000D01*
X211500Y-156000D02*
X213500Y-154000D01*
X211500Y-158000D02*
X211500Y-156000D01*
X186000Y-185250D02*
X190500Y-180750D01*
X183250Y-185250D02*
X186000Y-185250D01*
X182500Y-184500D02*
X183250Y-185250D01*
X182500Y-184000D02*
X182500Y-184500D01*
X190500Y-180750D02*
X190500Y-180000D01*
X191500Y-177500D02*
X195000Y-177500D01*
X189500Y-179500D02*
X191500Y-177500D01*
X189500Y-180000D02*
X189500Y-179500D01*
X195000Y-177500D02*
X197500Y-175000D01*
X198000Y-173500D02*
X200000Y-173500D01*
X196500Y-175000D02*
X198000Y-173500D01*
X200000Y-173500D02*
X201500Y-172000D01*
X174250Y-186250D02*
X174500Y-186500D01*
X168750Y-186250D02*
X174250Y-186250D01*
X166500Y-188500D02*
X168750Y-186250D01*
X166500Y-189000D02*
X166500Y-188500D01*
X174500Y-186500D02*
X174500Y-187000D01*
X159500Y-190000D02*
X159500Y-190750D01*
X167500Y-190750D02*
X167500Y-189000D01*
X166750Y-191500D02*
X167500Y-190750D01*
X160250Y-191500D02*
X166750Y-191500D01*
X159500Y-190750D02*
X160250Y-191500D01*
X175500Y-187750D02*
X179000Y-187750D01*
X173500Y-187750D02*
X175500Y-187750D01*
X173500Y-187000D02*
X173500Y-187750D01*
X179000Y-187750D02*
X179000Y-185500D01*
X181500Y-174500D02*
X180750Y-175250D01*
X186250Y-174500D02*
X181500Y-174500D01*
X187500Y-173250D02*
X186250Y-174500D01*
X187500Y-173000D02*
X187500Y-173250D01*
X180750Y-175750D02*
X180500Y-176000D01*
X180750Y-175250D02*
X180750Y-175750D01*
X187500Y-171250D02*
X191500Y-171250D01*
X186500Y-172250D02*
X187500Y-171250D01*
X186500Y-173000D02*
X186500Y-172250D01*
X212500Y-139000D02*
X212500Y-140750D01*
X209500Y-143750D02*
X209500Y-145000D01*
X212500Y-140750D02*
X209500Y-143750D01*
X206500Y-150500D02*
X206500Y-151000D01*
X210500Y-146500D02*
X206500Y-150500D01*
X210500Y-145000D02*
X210500Y-146500D01*
X211500Y-137500D02*
X211500Y-139000D01*
X213000Y-136000D02*
X211500Y-137500D01*
X213500Y-136000D02*
X213000Y-136000D01*
X215250Y-126750D02*
X215250Y-130000D01*
X213500Y-131750D02*
X213500Y-133000D01*
X215250Y-130000D02*
X213500Y-131750D01*
X214250Y-125500D02*
X214250Y-126750D01*
X215500Y-124250D02*
X214250Y-125500D01*
X215500Y-121000D02*
X215500Y-124250D01*
X214250Y-118000D02*
X214250Y-120750D01*
X214250Y-120750D02*
X214500Y-121000D01*
M02*
