%TF.GenerationSoftware,KiCad,Pcbnew,(5.1.6)-1*%
%TF.CreationDate,2021-04-12T17:18:31+02:00*%
%TF.ProjectId,_7SEG_Display_Board,5f375345-475f-4446-9973-706c61795f42,rev?*%
%TF.SameCoordinates,Original*%
%TF.FileFunction,Copper,L2,Bot*%
%TF.FilePolarity,Positive*%
%FSLAX46Y46*%
G04 Gerber Fmt 4.6, Leading zero omitted, Abs format (unit mm)*
G04 Created by KiCad (PCBNEW (5.1.6)-1) date 2021-04-12 17:18:31*
%MOMM*%
%LPD*%
G01*
G04 APERTURE LIST*
%TA.AperFunction,ComponentPad*%
%ADD10C,1.600000*%
%TD*%
%TA.AperFunction,ComponentPad*%
%ADD11O,1.600000X1.600000*%
%TD*%
%TA.AperFunction,ComponentPad*%
%ADD12C,2.000000*%
%TD*%
%TA.AperFunction,ComponentPad*%
%ADD13R,2.000000X2.000000*%
%TD*%
%TA.AperFunction,ComponentPad*%
%ADD14R,1.600000X2.400000*%
%TD*%
%TA.AperFunction,ComponentPad*%
%ADD15O,1.600000X2.400000*%
%TD*%
%TA.AperFunction,ComponentPad*%
%ADD16R,1.700000X1.700000*%
%TD*%
%TA.AperFunction,ComponentPad*%
%ADD17O,1.700000X1.700000*%
%TD*%
%TA.AperFunction,ViaPad*%
%ADD18C,2.000000*%
%TD*%
%TA.AperFunction,Conductor*%
%ADD19C,1.000000*%
%TD*%
G04 APERTURE END LIST*
D10*
%TO.P,R17,1*%
%TO.N,VDD*%
X85877400Y-75107800D03*
D11*
%TO.P,R17,2*%
%TO.N,Net-(D84-Pad2)*%
X75717400Y-75107800D03*
%TD*%
%TO.P,R18,2*%
%TO.N,Net-(D92-Pad2)*%
X75653900Y-107238800D03*
D10*
%TO.P,R18,1*%
%TO.N,VDD*%
X85813900Y-107238800D03*
%TD*%
%TO.P,R16,1*%
%TO.N,VDD*%
X85877400Y-71805800D03*
D11*
%TO.P,R16,2*%
%TO.N,Net-(D80-Pad2)*%
X75717400Y-71805800D03*
%TD*%
%TO.P,R20,2*%
%TO.N,Net-(D100-Pad2)*%
X98958400Y-85140800D03*
D10*
%TO.P,R20,1*%
%TO.N,VDD*%
X88798400Y-85140800D03*
%TD*%
%TO.P,R21,1*%
%TO.N,VDD*%
X89242900Y-75044300D03*
D11*
%TO.P,R21,2*%
%TO.N,Net-(D101-Pad2)*%
X99402900Y-75044300D03*
%TD*%
D10*
%TO.P,R15,1*%
%TO.N,VDD*%
X86004400Y-85077300D03*
D11*
%TO.P,R15,2*%
%TO.N,Net-(D71-Pad2)*%
X75844400Y-85077300D03*
%TD*%
%TO.P,R19,2*%
%TO.N,Net-(D94-Pad2)*%
X75780900Y-52184300D03*
D10*
%TO.P,R19,1*%
%TO.N,VDD*%
X85940900Y-52184300D03*
%TD*%
D12*
%TO.P,D1,2*%
%TO.N,Net-(D1-Pad2)*%
X186750400Y-107934800D03*
D13*
%TO.P,D1,1*%
%TO.N,/e_1*%
X186750400Y-110474800D03*
%TD*%
D12*
%TO.P,D2,2*%
%TO.N,Net-(D2-Pad2)*%
X218950400Y-107984800D03*
D13*
%TO.P,D2,1*%
%TO.N,/c_1*%
X218950400Y-110524800D03*
%TD*%
%TO.P,D3,1*%
%TO.N,/d_1*%
X215556400Y-114680800D03*
D12*
%TO.P,D3,2*%
%TO.N,Net-(D10-Pad1)*%
X213016400Y-114680800D03*
%TD*%
D13*
%TO.P,D4,1*%
%TO.N,/f_1*%
X186514400Y-50692800D03*
D12*
%TO.P,D4,2*%
%TO.N,Net-(D11-Pad1)*%
X186514400Y-53232800D03*
%TD*%
%TO.P,D5,2*%
%TO.N,Net-(D12-Pad1)*%
X218850400Y-53034800D03*
D13*
%TO.P,D5,1*%
%TO.N,/b_1*%
X218850400Y-50494800D03*
%TD*%
D12*
%TO.P,D6,2*%
%TO.N,Net-(D13-Pad1)*%
X213260400Y-80468800D03*
D13*
%TO.P,D6,1*%
%TO.N,/g_1*%
X215800400Y-80468800D03*
%TD*%
D12*
%TO.P,D7,2*%
%TO.N,Net-(D14-Pad1)*%
X213164400Y-47292800D03*
D13*
%TO.P,D7,1*%
%TO.N,/a_1*%
X215704400Y-47292800D03*
%TD*%
%TO.P,D8,1*%
%TO.N,Net-(D1-Pad2)*%
X186750400Y-104726800D03*
D12*
%TO.P,D8,2*%
%TO.N,Net-(D15-Pad1)*%
X186750400Y-102186800D03*
%TD*%
D13*
%TO.P,D9,1*%
%TO.N,Net-(D2-Pad2)*%
X218960400Y-104766800D03*
D12*
%TO.P,D9,2*%
%TO.N,Net-(D16-Pad1)*%
X218960400Y-102226800D03*
%TD*%
D13*
%TO.P,D10,1*%
%TO.N,Net-(D10-Pad1)*%
X209716400Y-114680800D03*
D12*
%TO.P,D10,2*%
%TO.N,Net-(D10-Pad2)*%
X207176400Y-114680800D03*
%TD*%
D13*
%TO.P,D11,1*%
%TO.N,Net-(D11-Pad1)*%
X186534400Y-56502800D03*
D12*
%TO.P,D11,2*%
%TO.N,Net-(D11-Pad2)*%
X186534400Y-59042800D03*
%TD*%
%TO.P,D12,2*%
%TO.N,Net-(D12-Pad2)*%
X218850400Y-58854800D03*
D13*
%TO.P,D12,1*%
%TO.N,Net-(D12-Pad1)*%
X218850400Y-56314800D03*
%TD*%
%TO.P,D13,1*%
%TO.N,Net-(D13-Pad1)*%
X209806400Y-80456800D03*
D12*
%TO.P,D13,2*%
%TO.N,Net-(D13-Pad2)*%
X207266400Y-80456800D03*
%TD*%
%TO.P,D14,2*%
%TO.N,Net-(D14-Pad2)*%
X207344400Y-47282800D03*
D13*
%TO.P,D14,1*%
%TO.N,Net-(D14-Pad1)*%
X209884400Y-47282800D03*
%TD*%
D12*
%TO.P,D15,2*%
%TO.N,Net-(D15-Pad2)*%
X186760400Y-96326800D03*
D13*
%TO.P,D15,1*%
%TO.N,Net-(D15-Pad1)*%
X186760400Y-98866800D03*
%TD*%
D12*
%TO.P,D16,2*%
%TO.N,Net-(D16-Pad2)*%
X218950400Y-96426800D03*
D13*
%TO.P,D16,1*%
%TO.N,Net-(D16-Pad1)*%
X218950400Y-98966800D03*
%TD*%
%TO.P,D17,1*%
%TO.N,Net-(D10-Pad2)*%
X203886400Y-114680800D03*
D12*
%TO.P,D17,2*%
%TO.N,Net-(D17-Pad2)*%
X201346400Y-114680800D03*
%TD*%
D13*
%TO.P,D18,1*%
%TO.N,Net-(D11-Pad2)*%
X186534400Y-62292800D03*
D12*
%TO.P,D18,2*%
%TO.N,Net-(D18-Pad2)*%
X186534400Y-64832800D03*
%TD*%
D13*
%TO.P,D19,1*%
%TO.N,Net-(D12-Pad2)*%
X218850400Y-62114800D03*
D12*
%TO.P,D19,2*%
%TO.N,Net-(D19-Pad2)*%
X218850400Y-64654800D03*
%TD*%
D13*
%TO.P,D20,1*%
%TO.N,Net-(D13-Pad2)*%
X203956400Y-80456800D03*
D12*
%TO.P,D20,2*%
%TO.N,Net-(D20-Pad2)*%
X201416400Y-80456800D03*
%TD*%
%TO.P,D21,2*%
%TO.N,Net-(D21-Pad2)*%
X201504400Y-47292800D03*
D13*
%TO.P,D21,1*%
%TO.N,Net-(D14-Pad2)*%
X204044400Y-47292800D03*
%TD*%
%TO.P,D22,1*%
%TO.N,Net-(D15-Pad2)*%
X186760400Y-93066800D03*
D12*
%TO.P,D22,2*%
%TO.N,Net-(D22-Pad2)*%
X186760400Y-90526800D03*
%TD*%
D13*
%TO.P,D23,1*%
%TO.N,Net-(D16-Pad2)*%
X218940400Y-93166800D03*
D12*
%TO.P,D23,2*%
%TO.N,Net-(D23-Pad2)*%
X218940400Y-90626800D03*
%TD*%
%TO.P,D24,2*%
%TO.N,Net-(D24-Pad2)*%
X195486400Y-114680800D03*
D13*
%TO.P,D24,1*%
%TO.N,Net-(D17-Pad2)*%
X198026400Y-114680800D03*
%TD*%
D12*
%TO.P,D25,2*%
%TO.N,Net-(D25-Pad2)*%
X186534400Y-70642800D03*
D13*
%TO.P,D25,1*%
%TO.N,Net-(D18-Pad2)*%
X186534400Y-68102800D03*
%TD*%
%TO.P,D26,1*%
%TO.N,Net-(D19-Pad2)*%
X218850400Y-67924800D03*
D12*
%TO.P,D26,2*%
%TO.N,Net-(D26-Pad2)*%
X218850400Y-70464800D03*
%TD*%
%TO.P,D27,2*%
%TO.N,Net-(D27-Pad2)*%
X195576400Y-80446800D03*
D13*
%TO.P,D27,1*%
%TO.N,Net-(D20-Pad2)*%
X198116400Y-80446800D03*
%TD*%
%TO.P,D28,1*%
%TO.N,Net-(D21-Pad2)*%
X198264400Y-47292800D03*
D12*
%TO.P,D28,2*%
%TO.N,Net-(D28-Pad2)*%
X195724400Y-47292800D03*
%TD*%
%TO.P,D29,2*%
%TO.N,Net-(D29-Pad2)*%
X186760400Y-84676800D03*
D13*
%TO.P,D29,1*%
%TO.N,Net-(D22-Pad2)*%
X186760400Y-87216800D03*
%TD*%
%TO.P,D30,1*%
%TO.N,Net-(D23-Pad2)*%
X218980400Y-87316800D03*
D12*
%TO.P,D30,2*%
%TO.N,Net-(D30-Pad2)*%
X218980400Y-84776800D03*
%TD*%
%TO.P,D31,2*%
%TO.N,Net-(D31-Pad2)*%
X189626400Y-114690800D03*
D13*
%TO.P,D31,1*%
%TO.N,Net-(D24-Pad2)*%
X192166400Y-114690800D03*
%TD*%
D12*
%TO.P,D32,2*%
%TO.N,Net-(D32-Pad2)*%
X186524400Y-76462800D03*
D13*
%TO.P,D32,1*%
%TO.N,Net-(D25-Pad2)*%
X186524400Y-73922800D03*
%TD*%
%TO.P,D33,1*%
%TO.N,Net-(D26-Pad2)*%
X218850400Y-73764800D03*
D12*
%TO.P,D33,2*%
%TO.N,Net-(D33-Pad2)*%
X218850400Y-76304800D03*
%TD*%
%TO.P,D34,2*%
%TO.N,Net-(D34-Pad2)*%
X189726400Y-80436800D03*
D13*
%TO.P,D34,1*%
%TO.N,Net-(D27-Pad2)*%
X192266400Y-80436800D03*
%TD*%
%TO.P,D35,1*%
%TO.N,Net-(D28-Pad2)*%
X192414400Y-47292800D03*
D12*
%TO.P,D35,2*%
%TO.N,Net-(D35-Pad2)*%
X189874400Y-47292800D03*
%TD*%
D10*
%TO.P,R1,1*%
%TO.N,VDD*%
X170070400Y-86984800D03*
D11*
%TO.P,R1,2*%
%TO.N,Net-(D29-Pad2)*%
X180230400Y-86984800D03*
%TD*%
%TO.P,R2,2*%
%TO.N,Net-(D30-Pad2)*%
X180244400Y-83802800D03*
D10*
%TO.P,R2,1*%
%TO.N,VDD*%
X170084400Y-83802800D03*
%TD*%
D11*
%TO.P,R3,2*%
%TO.N,Net-(D31-Pad2)*%
X180240400Y-90244800D03*
D10*
%TO.P,R3,1*%
%TO.N,VDD*%
X170080400Y-90244800D03*
%TD*%
%TO.P,R4,1*%
%TO.N,VDD*%
X170140400Y-74084800D03*
D11*
%TO.P,R4,2*%
%TO.N,Net-(D32-Pad2)*%
X180300400Y-74084800D03*
%TD*%
%TO.P,R5,2*%
%TO.N,Net-(D33-Pad2)*%
X180284400Y-77232800D03*
D10*
%TO.P,R5,1*%
%TO.N,VDD*%
X170124400Y-77232800D03*
%TD*%
%TO.P,R6,1*%
%TO.N,VDD*%
X170124400Y-80432800D03*
D11*
%TO.P,R6,2*%
%TO.N,Net-(D34-Pad2)*%
X180284400Y-80432800D03*
%TD*%
D10*
%TO.P,R7,1*%
%TO.N,VDD*%
X170140400Y-70074800D03*
D11*
%TO.P,R7,2*%
%TO.N,Net-(D35-Pad2)*%
X180300400Y-70074800D03*
%TD*%
D14*
%TO.P,U3,1*%
%TO.N,/B_D1*%
X194950400Y-130574800D03*
D15*
%TO.P,U3,9*%
%TO.N,/e_1*%
X212730400Y-122954800D03*
%TO.P,U3,2*%
%TO.N,/C_D1*%
X197490400Y-130574800D03*
%TO.P,U3,10*%
%TO.N,/d_1*%
X210190400Y-122954800D03*
%TO.P,U3,3*%
%TO.N,VCC*%
X200030400Y-130574800D03*
%TO.P,U3,11*%
%TO.N,/c_1*%
X207650400Y-122954800D03*
%TO.P,U3,4*%
%TO.N,VCC*%
X202570400Y-130574800D03*
%TO.P,U3,12*%
%TO.N,/b_1*%
X205110400Y-122954800D03*
%TO.P,U3,5*%
%TO.N,VCC*%
X205110400Y-130574800D03*
%TO.P,U3,13*%
%TO.N,/a_1*%
X202570400Y-122954800D03*
%TO.P,U3,6*%
%TO.N,/D_D1*%
X207650400Y-130574800D03*
%TO.P,U3,14*%
%TO.N,/g_1*%
X200030400Y-122954800D03*
%TO.P,U3,7*%
%TO.N,/A_D1*%
X210190400Y-130574800D03*
%TO.P,U3,15*%
%TO.N,/f_1*%
X197490400Y-122954800D03*
%TO.P,U3,8*%
%TO.N,GND*%
X212730400Y-130574800D03*
%TO.P,U3,16*%
%TO.N,VCC*%
X194950400Y-122954800D03*
%TD*%
D12*
%TO.P,D36,2*%
%TO.N,Net-(D36-Pad2)*%
X129428400Y-84184800D03*
D13*
%TO.P,D36,1*%
%TO.N,Net-(D36-Pad1)*%
X129428400Y-86724800D03*
%TD*%
%TO.P,D37,1*%
%TO.N,Net-(D37-Pad1)*%
X129428400Y-92544800D03*
D12*
%TO.P,D37,2*%
%TO.N,Net-(D36-Pad1)*%
X129428400Y-90004800D03*
%TD*%
D13*
%TO.P,D38,1*%
%TO.N,Net-(D38-Pad1)*%
X129418400Y-98414800D03*
D12*
%TO.P,D38,2*%
%TO.N,Net-(D37-Pad1)*%
X129418400Y-95874800D03*
%TD*%
%TO.P,D39,2*%
%TO.N,Net-(D38-Pad1)*%
X129398400Y-101694800D03*
D13*
%TO.P,D39,1*%
%TO.N,Net-(D39-Pad1)*%
X129398400Y-104234800D03*
%TD*%
%TO.P,D40,1*%
%TO.N,/e_2*%
X129398400Y-110216800D03*
D12*
%TO.P,D40,2*%
%TO.N,Net-(D39-Pad1)*%
X129398400Y-107676800D03*
%TD*%
D13*
%TO.P,D41,1*%
%TO.N,/f_2*%
X129444400Y-50784800D03*
D12*
%TO.P,D41,2*%
%TO.N,Net-(D41-Pad2)*%
X129444400Y-53324800D03*
%TD*%
%TO.P,D42,2*%
%TO.N,Net-(D42-Pad2)*%
X129444400Y-59164800D03*
D13*
%TO.P,D42,1*%
%TO.N,Net-(D41-Pad2)*%
X129444400Y-56624800D03*
%TD*%
D12*
%TO.P,D43,2*%
%TO.N,Net-(D43-Pad2)*%
X129444400Y-64994800D03*
D13*
%TO.P,D43,1*%
%TO.N,Net-(D42-Pad2)*%
X129444400Y-62454800D03*
%TD*%
%TO.P,D44,1*%
%TO.N,Net-(D43-Pad2)*%
X129444400Y-68294800D03*
D12*
%TO.P,D44,2*%
%TO.N,Net-(D44-Pad2)*%
X129444400Y-70834800D03*
%TD*%
D13*
%TO.P,D45,1*%
%TO.N,Net-(D44-Pad2)*%
X129454400Y-74094800D03*
D12*
%TO.P,D45,2*%
%TO.N,Net-(D45-Pad2)*%
X129454400Y-76634800D03*
%TD*%
%TO.P,D46,2*%
%TO.N,Net-(D46-Pad2)*%
X155902400Y-114054800D03*
D13*
%TO.P,D46,1*%
%TO.N,/d_2*%
X158442400Y-114054800D03*
%TD*%
D12*
%TO.P,D47,2*%
%TO.N,Net-(D47-Pad2)*%
X156014400Y-47612800D03*
D13*
%TO.P,D47,1*%
%TO.N,/a_2*%
X158554400Y-47612800D03*
%TD*%
D12*
%TO.P,D48,2*%
%TO.N,Net-(D48-Pad2)*%
X150002400Y-114064800D03*
D13*
%TO.P,D48,1*%
%TO.N,Net-(D46-Pad2)*%
X152542400Y-114064800D03*
%TD*%
%TO.P,D49,1*%
%TO.N,Net-(D49-Pad1)*%
X135388400Y-80498800D03*
D12*
%TO.P,D49,2*%
%TO.N,Net-(D49-Pad2)*%
X132848400Y-80498800D03*
%TD*%
%TO.P,D50,2*%
%TO.N,Net-(D50-Pad2)*%
X150194400Y-47612800D03*
D13*
%TO.P,D50,1*%
%TO.N,Net-(D47-Pad2)*%
X152734400Y-47612800D03*
%TD*%
%TO.P,D51,1*%
%TO.N,Net-(D51-Pad1)*%
X141138400Y-80498800D03*
D12*
%TO.P,D51,2*%
%TO.N,Net-(D49-Pad1)*%
X138598400Y-80498800D03*
%TD*%
%TO.P,D52,2*%
%TO.N,Net-(D52-Pad2)*%
X144222400Y-114064800D03*
D13*
%TO.P,D52,1*%
%TO.N,Net-(D48-Pad2)*%
X146762400Y-114064800D03*
%TD*%
%TO.P,D53,1*%
%TO.N,Net-(D50-Pad2)*%
X146904400Y-47622800D03*
D12*
%TO.P,D53,2*%
%TO.N,Net-(D53-Pad2)*%
X144364400Y-47622800D03*
%TD*%
%TO.P,D54,2*%
%TO.N,Net-(D51-Pad1)*%
X144458400Y-80498800D03*
D13*
%TO.P,D54,1*%
%TO.N,Net-(D54-Pad1)*%
X146998400Y-80498800D03*
%TD*%
%TO.P,D55,1*%
%TO.N,Net-(D52-Pad2)*%
X140902400Y-114064800D03*
D12*
%TO.P,D55,2*%
%TO.N,Net-(D55-Pad2)*%
X138362400Y-114064800D03*
%TD*%
D13*
%TO.P,D56,1*%
%TO.N,Net-(D53-Pad2)*%
X141074400Y-47622800D03*
D12*
%TO.P,D56,2*%
%TO.N,Net-(D56-Pad2)*%
X138534400Y-47622800D03*
%TD*%
D13*
%TO.P,D57,1*%
%TO.N,Net-(D55-Pad2)*%
X135092400Y-114064800D03*
D12*
%TO.P,D57,2*%
%TO.N,Net-(D57-Pad2)*%
X132552400Y-114064800D03*
%TD*%
%TO.P,D58,2*%
%TO.N,Net-(D54-Pad1)*%
X150298400Y-80518800D03*
D13*
%TO.P,D58,1*%
%TO.N,Net-(D58-Pad1)*%
X152838400Y-80518800D03*
%TD*%
%TO.P,D59,1*%
%TO.N,Net-(D56-Pad2)*%
X135264400Y-47622800D03*
D12*
%TO.P,D59,2*%
%TO.N,Net-(D59-Pad2)*%
X132724400Y-47622800D03*
%TD*%
%TO.P,D60,2*%
%TO.N,Net-(D58-Pad1)*%
X156088400Y-80528800D03*
D13*
%TO.P,D60,1*%
%TO.N,/g_2*%
X158628400Y-80528800D03*
%TD*%
%TO.P,D61,1*%
%TO.N,/c_2*%
X161726400Y-110216800D03*
D12*
%TO.P,D61,2*%
%TO.N,Net-(D61-Pad2)*%
X161726400Y-107676800D03*
%TD*%
D13*
%TO.P,D62,1*%
%TO.N,Net-(D61-Pad2)*%
X161726400Y-104346800D03*
D12*
%TO.P,D62,2*%
%TO.N,Net-(D62-Pad2)*%
X161726400Y-101806800D03*
%TD*%
D13*
%TO.P,D63,1*%
%TO.N,Net-(D62-Pad2)*%
X161726400Y-98486800D03*
D12*
%TO.P,D63,2*%
%TO.N,Net-(D63-Pad2)*%
X161726400Y-95946800D03*
%TD*%
%TO.P,D64,2*%
%TO.N,Net-(D64-Pad2)*%
X161726400Y-90096800D03*
D13*
%TO.P,D64,1*%
%TO.N,Net-(D63-Pad2)*%
X161726400Y-92636800D03*
%TD*%
D12*
%TO.P,D65,2*%
%TO.N,Net-(D65-Pad2)*%
X161716400Y-84276800D03*
D13*
%TO.P,D65,1*%
%TO.N,Net-(D64-Pad2)*%
X161716400Y-86816800D03*
%TD*%
D12*
%TO.P,D66,2*%
%TO.N,Net-(D66-Pad2)*%
X162154400Y-76734800D03*
D13*
%TO.P,D66,1*%
%TO.N,Net-(D66-Pad1)*%
X162154400Y-74194800D03*
%TD*%
D12*
%TO.P,D67,2*%
%TO.N,Net-(D66-Pad1)*%
X162154400Y-70954800D03*
D13*
%TO.P,D67,1*%
%TO.N,Net-(D67-Pad1)*%
X162154400Y-68414800D03*
%TD*%
D12*
%TO.P,D68,2*%
%TO.N,Net-(D67-Pad1)*%
X162154400Y-65074800D03*
D13*
%TO.P,D68,1*%
%TO.N,Net-(D68-Pad1)*%
X162154400Y-62534800D03*
%TD*%
%TO.P,D69,1*%
%TO.N,Net-(D69-Pad1)*%
X162154400Y-56744800D03*
D12*
%TO.P,D69,2*%
%TO.N,Net-(D68-Pad1)*%
X162154400Y-59284800D03*
%TD*%
D13*
%TO.P,D70,1*%
%TO.N,/b_2*%
X162144400Y-50864800D03*
D12*
%TO.P,D70,2*%
%TO.N,Net-(D69-Pad1)*%
X162144400Y-53404800D03*
%TD*%
D10*
%TO.P,R8,1*%
%TO.N,VDD*%
X112096400Y-87384800D03*
D11*
%TO.P,R8,2*%
%TO.N,Net-(D36-Pad2)*%
X122256400Y-87384800D03*
%TD*%
D10*
%TO.P,R9,1*%
%TO.N,VDD*%
X112104400Y-74014800D03*
D11*
%TO.P,R9,2*%
%TO.N,Net-(D45-Pad2)*%
X122264400Y-74014800D03*
%TD*%
D10*
%TO.P,R10,1*%
%TO.N,VDD*%
X112096400Y-80526800D03*
D11*
%TO.P,R10,2*%
%TO.N,Net-(D49-Pad2)*%
X122256400Y-80526800D03*
%TD*%
%TO.P,R11,2*%
%TO.N,Net-(D57-Pad2)*%
X122256400Y-90686800D03*
D10*
%TO.P,R11,1*%
%TO.N,VDD*%
X112096400Y-90686800D03*
%TD*%
%TO.P,R12,1*%
%TO.N,VDD*%
X112128400Y-69830800D03*
D11*
%TO.P,R12,2*%
%TO.N,Net-(D59-Pad2)*%
X122288400Y-69830800D03*
%TD*%
%TO.P,R13,2*%
%TO.N,Net-(D65-Pad2)*%
X122256400Y-83828800D03*
D10*
%TO.P,R13,1*%
%TO.N,VDD*%
X112096400Y-83828800D03*
%TD*%
D11*
%TO.P,R14,2*%
%TO.N,Net-(D66-Pad2)*%
X122256400Y-77224800D03*
D10*
%TO.P,R14,1*%
%TO.N,VDD*%
X112096400Y-77224800D03*
%TD*%
D14*
%TO.P,U1,1*%
%TO.N,/B_D2*%
X137654400Y-130570800D03*
D15*
%TO.P,U1,9*%
%TO.N,/e_2*%
X155434400Y-122950800D03*
%TO.P,U1,2*%
%TO.N,/C_D2*%
X140194400Y-130570800D03*
%TO.P,U1,10*%
%TO.N,/d_2*%
X152894400Y-122950800D03*
%TO.P,U1,3*%
%TO.N,VCC*%
X142734400Y-130570800D03*
%TO.P,U1,11*%
%TO.N,/c_2*%
X150354400Y-122950800D03*
%TO.P,U1,4*%
%TO.N,VCC*%
X145274400Y-130570800D03*
%TO.P,U1,12*%
%TO.N,/b_2*%
X147814400Y-122950800D03*
%TO.P,U1,5*%
%TO.N,VCC*%
X147814400Y-130570800D03*
%TO.P,U1,13*%
%TO.N,/a_2*%
X145274400Y-122950800D03*
%TO.P,U1,6*%
%TO.N,/D_D2*%
X150354400Y-130570800D03*
%TO.P,U1,14*%
%TO.N,/g_2*%
X142734400Y-122950800D03*
%TO.P,U1,7*%
%TO.N,/A_D2*%
X152894400Y-130570800D03*
%TO.P,U1,15*%
%TO.N,/f_2*%
X140194400Y-122950800D03*
%TO.P,U1,8*%
%TO.N,GND*%
X155434400Y-130570800D03*
%TO.P,U1,16*%
%TO.N,VCC*%
X137654400Y-122950800D03*
%TD*%
D12*
%TO.P,D71,2*%
%TO.N,Net-(D71-Pad2)*%
X71264400Y-84094800D03*
D13*
%TO.P,D71,1*%
%TO.N,Net-(D71-Pad1)*%
X71264400Y-86634800D03*
%TD*%
%TO.P,D72,1*%
%TO.N,Net-(D72-Pad1)*%
X71264400Y-92464800D03*
D12*
%TO.P,D72,2*%
%TO.N,Net-(D71-Pad1)*%
X71264400Y-89924800D03*
%TD*%
D13*
%TO.P,D73,1*%
%TO.N,Net-(D73-Pad1)*%
X71274400Y-98254800D03*
D12*
%TO.P,D73,2*%
%TO.N,Net-(D72-Pad1)*%
X71274400Y-95714800D03*
%TD*%
%TO.P,D74,2*%
%TO.N,Net-(D73-Pad1)*%
X71274400Y-101504800D03*
D13*
%TO.P,D74,1*%
%TO.N,Net-(D74-Pad1)*%
X71274400Y-104044800D03*
%TD*%
%TO.P,D75,1*%
%TO.N,/e_3*%
X71264400Y-109962800D03*
D12*
%TO.P,D75,2*%
%TO.N,Net-(D74-Pad1)*%
X71264400Y-107422800D03*
%TD*%
%TO.P,D76,2*%
%TO.N,Net-(D76-Pad2)*%
X71254400Y-52804800D03*
D13*
%TO.P,D76,1*%
%TO.N,/f_3*%
X71254400Y-50264800D03*
%TD*%
D12*
%TO.P,D77,2*%
%TO.N,Net-(D77-Pad2)*%
X71244400Y-58634800D03*
D13*
%TO.P,D77,1*%
%TO.N,Net-(D76-Pad2)*%
X71244400Y-56094800D03*
%TD*%
D12*
%TO.P,D78,2*%
%TO.N,Net-(D78-Pad2)*%
X71234400Y-64464800D03*
D13*
%TO.P,D78,1*%
%TO.N,Net-(D77-Pad2)*%
X71234400Y-61924800D03*
%TD*%
%TO.P,D79,1*%
%TO.N,Net-(D78-Pad2)*%
X71234400Y-67734800D03*
D12*
%TO.P,D79,2*%
%TO.N,Net-(D79-Pad2)*%
X71234400Y-70274800D03*
%TD*%
D13*
%TO.P,D80,1*%
%TO.N,Net-(D79-Pad2)*%
X71224400Y-73594800D03*
D12*
%TO.P,D80,2*%
%TO.N,Net-(D80-Pad2)*%
X71224400Y-76134800D03*
%TD*%
%TO.P,D81,2*%
%TO.N,Net-(D81-Pad2)*%
X97794400Y-114538800D03*
D13*
%TO.P,D81,1*%
%TO.N,/d_3*%
X100334400Y-114538800D03*
%TD*%
D12*
%TO.P,D82,2*%
%TO.N,Net-(D82-Pad2)*%
X97794400Y-47204800D03*
D13*
%TO.P,D82,1*%
%TO.N,/a_3*%
X100334400Y-47204800D03*
%TD*%
D12*
%TO.P,D83,2*%
%TO.N,Net-(D83-Pad2)*%
X92004400Y-114548800D03*
D13*
%TO.P,D83,1*%
%TO.N,Net-(D81-Pad2)*%
X94544400Y-114548800D03*
%TD*%
%TO.P,D84,1*%
%TO.N,Net-(D84-Pad1)*%
X76874400Y-80104800D03*
D12*
%TO.P,D84,2*%
%TO.N,Net-(D84-Pad2)*%
X74334400Y-80104800D03*
%TD*%
%TO.P,D85,2*%
%TO.N,Net-(D85-Pad2)*%
X91984400Y-47194800D03*
D13*
%TO.P,D85,1*%
%TO.N,Net-(D82-Pad2)*%
X94524400Y-47194800D03*
%TD*%
%TO.P,D86,1*%
%TO.N,Net-(D86-Pad1)*%
X82684400Y-80104800D03*
D12*
%TO.P,D86,2*%
%TO.N,Net-(D84-Pad1)*%
X80144400Y-80104800D03*
%TD*%
%TO.P,D87,2*%
%TO.N,Net-(D87-Pad2)*%
X86214400Y-114528800D03*
D13*
%TO.P,D87,1*%
%TO.N,Net-(D83-Pad2)*%
X88754400Y-114528800D03*
%TD*%
%TO.P,D88,1*%
%TO.N,Net-(D85-Pad2)*%
X88674400Y-47184800D03*
D12*
%TO.P,D88,2*%
%TO.N,Net-(D88-Pad2)*%
X86134400Y-47184800D03*
%TD*%
%TO.P,D89,2*%
%TO.N,Net-(D86-Pad1)*%
X85944400Y-80104800D03*
D13*
%TO.P,D89,1*%
%TO.N,Net-(D89-Pad1)*%
X88484400Y-80104800D03*
%TD*%
%TO.P,D90,1*%
%TO.N,Net-(D87-Pad2)*%
X82934400Y-114518800D03*
D12*
%TO.P,D90,2*%
%TO.N,Net-(D90-Pad2)*%
X80394400Y-114518800D03*
%TD*%
D13*
%TO.P,D91,1*%
%TO.N,Net-(D88-Pad2)*%
X82874400Y-47184800D03*
D12*
%TO.P,D91,2*%
%TO.N,Net-(D91-Pad2)*%
X80334400Y-47184800D03*
%TD*%
D13*
%TO.P,D92,1*%
%TO.N,Net-(D90-Pad2)*%
X77124400Y-114508800D03*
D12*
%TO.P,D92,2*%
%TO.N,Net-(D92-Pad2)*%
X74584400Y-114508800D03*
%TD*%
%TO.P,D93,2*%
%TO.N,Net-(D89-Pad1)*%
X91794400Y-80104800D03*
D13*
%TO.P,D93,1*%
%TO.N,Net-(D93-Pad1)*%
X94334400Y-80104800D03*
%TD*%
%TO.P,D94,1*%
%TO.N,Net-(D91-Pad2)*%
X77074400Y-47184800D03*
D12*
%TO.P,D94,2*%
%TO.N,Net-(D94-Pad2)*%
X74534400Y-47184800D03*
%TD*%
%TO.P,D95,2*%
%TO.N,Net-(D93-Pad1)*%
X97584400Y-80094800D03*
D13*
%TO.P,D95,1*%
%TO.N,/g_3*%
X100124400Y-80094800D03*
%TD*%
%TO.P,D96,1*%
%TO.N,/c_3*%
X103746400Y-109962800D03*
D12*
%TO.P,D96,2*%
%TO.N,Net-(D96-Pad2)*%
X103746400Y-107422800D03*
%TD*%
D13*
%TO.P,D97,1*%
%TO.N,Net-(D96-Pad2)*%
X103714400Y-104084800D03*
D12*
%TO.P,D97,2*%
%TO.N,Net-(D97-Pad2)*%
X103714400Y-101544800D03*
%TD*%
D13*
%TO.P,D98,1*%
%TO.N,Net-(D97-Pad2)*%
X103724400Y-98264800D03*
D12*
%TO.P,D98,2*%
%TO.N,Net-(D98-Pad2)*%
X103724400Y-95724800D03*
%TD*%
%TO.P,D99,2*%
%TO.N,Net-(D100-Pad1)*%
X103724400Y-89924800D03*
D13*
%TO.P,D99,1*%
%TO.N,Net-(D98-Pad2)*%
X103724400Y-92464800D03*
%TD*%
D12*
%TO.P,D100,2*%
%TO.N,Net-(D100-Pad2)*%
X103724400Y-84134800D03*
D13*
%TO.P,D100,1*%
%TO.N,Net-(D100-Pad1)*%
X103724400Y-86674800D03*
%TD*%
D12*
%TO.P,D101,2*%
%TO.N,Net-(D101-Pad2)*%
X103958400Y-76322800D03*
D13*
%TO.P,D101,1*%
%TO.N,Net-(D101-Pad1)*%
X103958400Y-73782800D03*
%TD*%
D12*
%TO.P,D102,2*%
%TO.N,Net-(D101-Pad1)*%
X103958400Y-70552800D03*
D13*
%TO.P,D102,1*%
%TO.N,Net-(D102-Pad1)*%
X103958400Y-68012800D03*
%TD*%
%TO.P,D103,1*%
%TO.N,Net-(D103-Pad1)*%
X103958400Y-62142800D03*
D12*
%TO.P,D103,2*%
%TO.N,Net-(D102-Pad1)*%
X103958400Y-64682800D03*
%TD*%
D13*
%TO.P,D104,1*%
%TO.N,Net-(D104-Pad1)*%
X103948400Y-56292800D03*
D12*
%TO.P,D104,2*%
%TO.N,Net-(D103-Pad1)*%
X103948400Y-58832800D03*
%TD*%
D13*
%TO.P,D105,1*%
%TO.N,/b_3*%
X103958400Y-50492800D03*
D12*
%TO.P,D105,2*%
%TO.N,Net-(D104-Pad1)*%
X103958400Y-53032800D03*
%TD*%
D16*
%TO.P,J1,1*%
%TO.N,/A_D1*%
X162052000Y-147574000D03*
D17*
%TO.P,J1,2*%
%TO.N,/D_D1*%
X159512000Y-147574000D03*
%TO.P,J1,3*%
%TO.N,/C_D1*%
X156972000Y-147574000D03*
%TO.P,J1,4*%
%TO.N,/B_D1*%
X154432000Y-147574000D03*
%TO.P,J1,5*%
%TO.N,/A_D2*%
X151892000Y-147574000D03*
%TO.P,J1,6*%
%TO.N,/D_D2*%
X149352000Y-147574000D03*
%TO.P,J1,7*%
%TO.N,/C_D2*%
X146812000Y-147574000D03*
%TO.P,J1,8*%
%TO.N,/B_D2*%
X144272000Y-147574000D03*
%TO.P,J1,9*%
%TO.N,/A_D3*%
X141732000Y-147574000D03*
%TO.P,J1,10*%
%TO.N,/D_D3*%
X139192000Y-147574000D03*
%TO.P,J1,11*%
%TO.N,/C_D3*%
X136652000Y-147574000D03*
%TO.P,J1,12*%
%TO.N,/B_D3*%
X134112000Y-147574000D03*
%TO.P,J1,13*%
%TO.N,VDD*%
X131572000Y-147574000D03*
%TO.P,J1,14*%
%TO.N,VCC*%
X129032000Y-147574000D03*
%TO.P,J1,15*%
%TO.N,GND*%
X126492000Y-147574000D03*
%TD*%
D14*
%TO.P,U2,1*%
%TO.N,/B_D3*%
X77878400Y-130492800D03*
D15*
%TO.P,U2,9*%
%TO.N,/e_3*%
X95658400Y-122872800D03*
%TO.P,U2,2*%
%TO.N,/C_D3*%
X80418400Y-130492800D03*
%TO.P,U2,10*%
%TO.N,/d_3*%
X93118400Y-122872800D03*
%TO.P,U2,3*%
%TO.N,VCC*%
X82958400Y-130492800D03*
%TO.P,U2,11*%
%TO.N,/c_3*%
X90578400Y-122872800D03*
%TO.P,U2,4*%
%TO.N,VCC*%
X85498400Y-130492800D03*
%TO.P,U2,12*%
%TO.N,/b_3*%
X88038400Y-122872800D03*
%TO.P,U2,5*%
%TO.N,VCC*%
X88038400Y-130492800D03*
%TO.P,U2,13*%
%TO.N,/a_3*%
X85498400Y-122872800D03*
%TO.P,U2,6*%
%TO.N,/D_D3*%
X90578400Y-130492800D03*
%TO.P,U2,14*%
%TO.N,/g_3*%
X82958400Y-122872800D03*
%TO.P,U2,7*%
%TO.N,/A_D3*%
X93118400Y-130492800D03*
%TO.P,U2,15*%
%TO.N,/f_3*%
X80418400Y-122872800D03*
%TO.P,U2,8*%
%TO.N,GND*%
X95658400Y-130492800D03*
%TO.P,U2,16*%
%TO.N,VCC*%
X77878400Y-122872800D03*
%TD*%
D18*
%TO.N,/g_1*%
X213200400Y-119074800D03*
X221000400Y-119074800D03*
%TO.N,VCC*%
X172970400Y-130564800D03*
X129032000Y-144956000D03*
X97790000Y-133350000D03*
X88138002Y-133350000D03*
X129032000Y-135382000D03*
X172970400Y-142243600D03*
%TO.N,GND*%
X108966000Y-145542004D03*
X108711998Y-135382000D03*
X167132000Y-139954000D03*
X153493990Y-140208000D03*
%TO.N,/g_2*%
X163866410Y-118598800D03*
X156324400Y-118598806D03*
%TO.N,/e_3*%
X79350865Y-109829027D03*
X75692002Y-109778800D03*
%TO.N,/f_3*%
X71678800Y-79248000D03*
X66282829Y-79338429D03*
%TO.N,/g_3*%
X105730400Y-118994800D03*
X91940400Y-118914800D03*
%TO.N,VDD*%
X170060400Y-130434800D03*
X170060400Y-141851600D03*
%TD*%
D19*
%TO.N,Net-(D1-Pad2)*%
X186750400Y-108046800D02*
X186750400Y-104726800D01*
%TO.N,/e_1*%
X214410402Y-110474800D02*
X186750400Y-110474800D01*
X217500400Y-113564798D02*
X214410402Y-110474800D01*
X217500400Y-120218000D02*
X217500400Y-113564798D01*
X212730400Y-122954800D02*
X214763600Y-122954800D01*
X214763600Y-122954800D02*
X217500400Y-120218000D01*
%TO.N,Net-(D2-Pad2)*%
X218960400Y-104766800D02*
X218960400Y-108026800D01*
%TO.N,/c_1*%
X218950400Y-112427730D02*
X218950400Y-110524800D01*
X219050410Y-112527740D02*
X218950400Y-112427730D01*
X207650400Y-124440000D02*
X208483200Y-125272800D01*
X219050410Y-121766790D02*
X219050410Y-112527740D01*
X208483200Y-125272800D02*
X215544400Y-125272800D01*
X207650400Y-122954800D02*
X207650400Y-124440000D01*
X215544400Y-125272800D02*
X219050410Y-121766790D01*
%TO.N,/d_1*%
X210190400Y-121533600D02*
X210190400Y-122954800D01*
X210820000Y-120904000D02*
X210190400Y-121533600D01*
X215556400Y-116580800D02*
X215550400Y-116586800D01*
X215550400Y-116586800D02*
X215550400Y-119474800D01*
X215556400Y-114680800D02*
X215556400Y-116580800D01*
X215550400Y-119474800D02*
X214121200Y-120904000D01*
X214121200Y-120904000D02*
X210820000Y-120904000D01*
%TO.N,Net-(D10-Pad1)*%
X213016400Y-114680800D02*
X209716400Y-114680800D01*
%TO.N,/f_1*%
X184614400Y-50692800D02*
X186514400Y-50692800D01*
X183270400Y-70754800D02*
X183270400Y-52036800D01*
X179282000Y-71974800D02*
X182050400Y-71974800D01*
X177930400Y-73326400D02*
X179282000Y-71974800D01*
X197490400Y-119766400D02*
X195072000Y-117348000D01*
X182050400Y-71974800D02*
X183270400Y-70754800D01*
X197490400Y-122954800D02*
X197490400Y-119766400D01*
X183270400Y-52036800D02*
X184614400Y-50692800D01*
X195072000Y-117348000D02*
X186283600Y-117348000D01*
X186283600Y-117348000D02*
X177930400Y-108994800D01*
X177930400Y-108994800D02*
X177930400Y-73326400D01*
%TO.N,Net-(D11-Pad1)*%
X186514400Y-56482800D02*
X186534400Y-56502800D01*
X186514400Y-53232800D02*
X186514400Y-56482800D01*
%TO.N,Net-(D12-Pad1)*%
X218850400Y-53034800D02*
X218850400Y-56314800D01*
%TO.N,/b_1*%
X220268400Y-50494800D02*
X218850400Y-50494800D01*
X223113600Y-53340000D02*
X220268400Y-50494800D01*
X205110400Y-125154800D02*
X206701600Y-126746000D01*
X206701600Y-126746000D02*
X216814400Y-126746000D01*
X205110400Y-122954800D02*
X205110400Y-125154800D01*
X223113600Y-120446800D02*
X223113600Y-53340000D01*
X216814400Y-126746000D02*
X223113600Y-120446800D01*
%TO.N,Net-(D13-Pad1)*%
X209818400Y-80468800D02*
X209806400Y-80456800D01*
X213260400Y-80468800D02*
X209818400Y-80468800D01*
%TO.N,/g_1*%
X200030400Y-120754800D02*
X200050400Y-120734800D01*
X200030400Y-122954800D02*
X200030400Y-120754800D01*
X200050400Y-120734800D02*
X200050400Y-120274800D01*
X201250400Y-119074800D02*
X213200400Y-119074800D01*
X200050400Y-120274800D02*
X201250400Y-119074800D01*
X221437200Y-118638000D02*
X221000400Y-119074800D01*
X217700400Y-80468800D02*
X217744400Y-80424800D01*
X215800400Y-80468800D02*
X217700400Y-80468800D01*
X220600400Y-80424800D02*
X221437200Y-81261600D01*
X217744400Y-80424800D02*
X220600400Y-80424800D01*
X221437200Y-81261600D02*
X221437200Y-118638000D01*
%TO.N,Net-(D14-Pad1)*%
X213154400Y-47282800D02*
X213164400Y-47292800D01*
X209884400Y-47282800D02*
X213154400Y-47282800D01*
%TO.N,/a_1*%
X202570400Y-125154800D02*
X202570400Y-122954800D01*
X205640400Y-128224800D02*
X202570400Y-125154800D01*
X219352400Y-47292800D02*
X224800400Y-52740800D01*
X215704400Y-47292800D02*
X219352400Y-47292800D01*
X224800400Y-52740800D02*
X224800400Y-121350800D01*
X224800400Y-121350800D02*
X217926400Y-128224800D01*
X217926400Y-128224800D02*
X205640400Y-128224800D01*
%TO.N,Net-(D15-Pad1)*%
X186750400Y-98876800D02*
X186760400Y-98866800D01*
X186750400Y-102186800D02*
X186750400Y-98876800D01*
%TO.N,Net-(D16-Pad1)*%
X218960400Y-98976800D02*
X218950400Y-98966800D01*
X218960400Y-102226800D02*
X218960400Y-98976800D01*
%TO.N,Net-(D10-Pad2)*%
X207176400Y-114680800D02*
X203886400Y-114680800D01*
%TO.N,Net-(D11-Pad2)*%
X186534400Y-59042800D02*
X186534400Y-62292800D01*
%TO.N,Net-(D12-Pad2)*%
X218850400Y-62114800D02*
X218850400Y-58854800D01*
%TO.N,Net-(D13-Pad2)*%
X207266400Y-80456800D02*
X203956400Y-80456800D01*
%TO.N,Net-(D14-Pad2)*%
X207334400Y-47292800D02*
X207344400Y-47282800D01*
X204044400Y-47292800D02*
X207334400Y-47292800D01*
%TO.N,Net-(D15-Pad2)*%
X186760400Y-96326800D02*
X186760400Y-93066800D01*
%TO.N,Net-(D16-Pad2)*%
X218940400Y-96416800D02*
X218950400Y-96426800D01*
X218940400Y-93166800D02*
X218940400Y-96416800D01*
%TO.N,Net-(D17-Pad2)*%
X201346400Y-114680800D02*
X198026400Y-114680800D01*
%TO.N,Net-(D18-Pad2)*%
X186534400Y-64832800D02*
X186534400Y-68102800D01*
%TO.N,Net-(D19-Pad2)*%
X218850400Y-64654800D02*
X218850400Y-67924800D01*
%TO.N,Net-(D20-Pad2)*%
X198126400Y-80456800D02*
X198116400Y-80446800D01*
X201416400Y-80456800D02*
X198126400Y-80456800D01*
%TO.N,Net-(D21-Pad2)*%
X198264400Y-47292800D02*
X201504400Y-47292800D01*
%TO.N,Net-(D22-Pad2)*%
X186760400Y-90526800D02*
X186760400Y-87216800D01*
%TO.N,Net-(D23-Pad2)*%
X218980400Y-90586800D02*
X218940400Y-90626800D01*
X218980400Y-87316800D02*
X218980400Y-90586800D01*
%TO.N,Net-(D24-Pad2)*%
X192176400Y-114680800D02*
X192166400Y-114690800D01*
X195486400Y-114680800D02*
X192176400Y-114680800D01*
%TO.N,Net-(D25-Pad2)*%
X186534400Y-73912800D02*
X186524400Y-73922800D01*
X186534400Y-70642800D02*
X186534400Y-73912800D01*
%TO.N,Net-(D26-Pad2)*%
X218850400Y-70464800D02*
X218850400Y-73764800D01*
%TO.N,Net-(D27-Pad2)*%
X192276400Y-80446800D02*
X192266400Y-80436800D01*
X195576400Y-80446800D02*
X192276400Y-80446800D01*
%TO.N,Net-(D28-Pad2)*%
X192414400Y-47292800D02*
X195724400Y-47292800D01*
%TO.N,Net-(D29-Pad2)*%
X181361770Y-86984800D02*
X183721770Y-84624800D01*
X180230400Y-86984800D02*
X181361770Y-86984800D01*
X183773770Y-84676800D02*
X186760400Y-84676800D01*
X183721770Y-84624800D02*
X183773770Y-84676800D01*
%TO.N,Net-(D30-Pad2)*%
X190452400Y-84776800D02*
X218980400Y-84776800D01*
X188250400Y-82574800D02*
X190452400Y-84776800D01*
X182603770Y-82574800D02*
X188250400Y-82574800D01*
X181375770Y-83802800D02*
X182603770Y-82574800D01*
X180244400Y-83802800D02*
X181375770Y-83802800D01*
%TO.N,Net-(D31-Pad2)*%
X186674400Y-114690800D02*
X189626400Y-114690800D01*
X180240400Y-90244800D02*
X180240400Y-108256800D01*
X180240400Y-108256800D02*
X186674400Y-114690800D01*
%TO.N,Net-(D32-Pad2)*%
X181431770Y-74084800D02*
X181441770Y-74074800D01*
X180300400Y-74084800D02*
X181431770Y-74084800D01*
X181441770Y-74074800D02*
X182750400Y-74074800D01*
X185138400Y-76462800D02*
X186524400Y-76462800D01*
X182750400Y-74074800D02*
X185138400Y-76462800D01*
%TO.N,Net-(D33-Pad2)*%
X189870400Y-76304800D02*
X218850400Y-76304800D01*
X187600400Y-78574800D02*
X189870400Y-76304800D01*
X180284400Y-77232800D02*
X181758400Y-77232800D01*
X183100400Y-78574800D02*
X187600400Y-78574800D01*
X181758400Y-77232800D02*
X183100400Y-78574800D01*
%TO.N,Net-(D34-Pad2)*%
X180288400Y-80436800D02*
X180284400Y-80432800D01*
X189722400Y-80432800D02*
X189726400Y-80436800D01*
X180284400Y-80432800D02*
X189722400Y-80432800D01*
%TO.N,Net-(D35-Pad2)*%
X185574400Y-47292800D02*
X189874400Y-47292800D01*
X180300400Y-70074800D02*
X180300400Y-52566800D01*
X180300400Y-52566800D02*
X185574400Y-47292800D01*
%TO.N,VCC*%
X147814400Y-130570800D02*
X142734400Y-130570800D01*
X88038400Y-130492800D02*
X85498400Y-130492800D01*
X85498400Y-130492800D02*
X82958400Y-130492800D01*
X200030400Y-130574800D02*
X205110400Y-130574800D01*
X194950400Y-122954800D02*
X194950400Y-128086800D01*
X77878400Y-125072800D02*
X77878400Y-122872800D01*
X81662800Y-126112800D02*
X78918400Y-126112800D01*
X82958400Y-130492800D02*
X82958400Y-127408400D01*
X78918400Y-126112800D02*
X77878400Y-125072800D01*
X82958400Y-127408400D02*
X81662800Y-126112800D01*
X129032000Y-147574000D02*
X129032000Y-144956000D01*
X88038400Y-133250398D02*
X88138002Y-133350000D01*
X88038400Y-130492800D02*
X88038400Y-133250398D01*
X97790000Y-133350000D02*
X129032000Y-133350000D01*
X129032000Y-133350000D02*
X129032000Y-135382000D01*
X172970400Y-145291600D02*
X172970400Y-142243600D01*
X130556000Y-151892000D02*
X166370000Y-151892000D01*
X129032000Y-147574000D02*
X129032000Y-150368000D01*
X166370000Y-151892000D02*
X172970400Y-145291600D01*
X129032000Y-150368000D02*
X130556000Y-151892000D01*
X129032000Y-133350000D02*
X129032000Y-127000000D01*
X133081200Y-122950800D02*
X137654400Y-122950800D01*
X129032000Y-127000000D02*
X133081200Y-122950800D01*
X138430000Y-126746000D02*
X137654400Y-125970400D01*
X141478000Y-126746000D02*
X138430000Y-126746000D01*
X142734400Y-130570800D02*
X142734400Y-128002400D01*
X137654400Y-125970400D02*
X137654400Y-122950800D01*
X142734400Y-128002400D02*
X141478000Y-126746000D01*
X200030400Y-128910400D02*
X200030400Y-130574800D01*
X173140400Y-130394800D02*
X190670400Y-130394800D01*
X172970400Y-130564800D02*
X173140400Y-130394800D01*
X199394800Y-128274800D02*
X200030400Y-128910400D01*
X190670400Y-130394800D02*
X192790400Y-128274800D01*
X192790400Y-128274800D02*
X199394800Y-128274800D01*
%TO.N,/B_D1*%
X155194000Y-142240000D02*
X154432000Y-143002000D01*
X194950400Y-131947600D02*
X194283200Y-132614800D01*
X159993200Y-132614800D02*
X155194000Y-137414000D01*
X155194000Y-137414000D02*
X155194000Y-142240000D01*
X154432000Y-143002000D02*
X154432000Y-147574000D01*
X194950400Y-130574800D02*
X194950400Y-131947600D01*
X194283200Y-132614800D02*
X159993200Y-132614800D01*
%TO.N,/C_D1*%
X197490400Y-132774800D02*
X197490400Y-130574800D01*
X195899200Y-134366000D02*
X197490400Y-132774800D01*
X161036000Y-134366000D02*
X195899200Y-134366000D01*
X156972000Y-147574000D02*
X156972000Y-138430000D01*
X156972000Y-138430000D02*
X161036000Y-134366000D01*
%TO.N,/D_D1*%
X159512000Y-138430000D02*
X159512000Y-147574000D01*
X161798000Y-136144000D02*
X159512000Y-138430000D01*
X204281200Y-136144000D02*
X161798000Y-136144000D01*
X207650400Y-130574800D02*
X207650400Y-132774800D01*
X207650400Y-132774800D02*
X204281200Y-136144000D01*
%TO.N,/A_D1*%
X162052000Y-139954000D02*
X162052000Y-147574000D01*
X204740400Y-138224800D02*
X163781200Y-138224800D01*
X163781200Y-138224800D02*
X162052000Y-139954000D01*
X210190400Y-130574800D02*
X210190400Y-132774800D01*
X210190400Y-132774800D02*
X204740400Y-138224800D01*
%TO.N,GND*%
X96266000Y-135382000D02*
X108711998Y-135382000D01*
X95658400Y-134774400D02*
X96266000Y-135382000D01*
X95658400Y-130492800D02*
X95658400Y-134774400D01*
X173966004Y-139954000D02*
X167132000Y-139954000D01*
X212730400Y-130574800D02*
X212730400Y-132912800D01*
X212730400Y-132912800D02*
X205689200Y-139954000D01*
X205689200Y-139954000D02*
X176276000Y-139954000D01*
X176276000Y-139954000D02*
X173966004Y-139954000D01*
X176276000Y-144780000D02*
X176276000Y-139954000D01*
X167640000Y-153416000D02*
X176276000Y-144780000D01*
X126492000Y-147574000D02*
X126492000Y-150622000D01*
X129286000Y-153416000D02*
X167640000Y-153416000D01*
X126492000Y-150622000D02*
X129286000Y-153416000D01*
X153493990Y-135558010D02*
X153493990Y-140208000D01*
X155434400Y-130570800D02*
X155434400Y-133617600D01*
X155434400Y-133617600D02*
X153493990Y-135558010D01*
X108966004Y-145542000D02*
X108966000Y-145542004D01*
X125476000Y-145542000D02*
X108966004Y-145542000D01*
X126492000Y-147574000D02*
X126492000Y-146558000D01*
X126492000Y-146558000D02*
X125476000Y-145542000D01*
%TO.N,Net-(D36-Pad2)*%
X124498800Y-87384800D02*
X122256400Y-87384800D01*
X129428400Y-84184800D02*
X127698800Y-84184800D01*
X127698800Y-84184800D02*
X124498800Y-87384800D01*
%TO.N,Net-(D36-Pad1)*%
X129428400Y-90004800D02*
X129428400Y-86724800D01*
%TO.N,Net-(D37-Pad1)*%
X129418400Y-92554800D02*
X129428400Y-92544800D01*
X129418400Y-95874800D02*
X129418400Y-92554800D01*
%TO.N,Net-(D38-Pad1)*%
X129398400Y-98434800D02*
X129418400Y-98414800D01*
X129398400Y-101694800D02*
X129398400Y-98434800D01*
%TO.N,Net-(D39-Pad1)*%
X129398400Y-107474800D02*
X129398400Y-104234800D01*
%TO.N,/f_2*%
X140194400Y-117740800D02*
X140194400Y-122950800D01*
X127660400Y-116382800D02*
X138836400Y-116382800D01*
X119690400Y-108412800D02*
X127660400Y-116382800D01*
X119690400Y-73603600D02*
X119690400Y-108412800D01*
X121431200Y-71862800D02*
X119690400Y-73603600D01*
X138836400Y-116382800D02*
X140194400Y-117740800D01*
X129444400Y-50784800D02*
X127444400Y-50784800D01*
X127444400Y-50784800D02*
X124574400Y-53654800D01*
X123362400Y-71862800D02*
X121431200Y-71862800D01*
X124574400Y-53654800D02*
X124574400Y-70650800D01*
X124574400Y-70650800D02*
X123362400Y-71862800D01*
%TO.N,Net-(D41-Pad2)*%
X129444400Y-53324800D02*
X129444400Y-56624800D01*
%TO.N,Net-(D42-Pad2)*%
X129444400Y-59164800D02*
X129444400Y-62454800D01*
%TO.N,Net-(D43-Pad2)*%
X129444400Y-64994800D02*
X129444400Y-68294800D01*
%TO.N,Net-(D44-Pad2)*%
X129444400Y-74084800D02*
X129454400Y-74094800D01*
X129444400Y-70834800D02*
X129444400Y-74084800D01*
%TO.N,Net-(D45-Pad2)*%
X124814800Y-74014800D02*
X122264400Y-74014800D01*
X129454400Y-76634800D02*
X127434800Y-76634800D01*
X127434800Y-76634800D02*
X124814800Y-74014800D01*
%TO.N,Net-(D46-Pad2)*%
X155892400Y-114064800D02*
X155902400Y-114054800D01*
X152542400Y-114064800D02*
X155892400Y-114064800D01*
%TO.N,/d_2*%
X158442400Y-119636800D02*
X158442400Y-114054800D01*
X154076400Y-120376800D02*
X157702400Y-120376800D01*
X157702400Y-120376800D02*
X158442400Y-119636800D01*
X152894400Y-122950800D02*
X152894400Y-121558800D01*
X152894400Y-121558800D02*
X154076400Y-120376800D01*
%TO.N,Net-(D47-Pad2)*%
X152734400Y-47612800D02*
X156014400Y-47612800D01*
%TO.N,/a_2*%
X163182800Y-47612800D02*
X158554400Y-47612800D01*
X167620400Y-52050400D02*
X163182800Y-47612800D01*
X145274400Y-124598800D02*
X148740400Y-128064800D01*
X145274400Y-122950800D02*
X145274400Y-124598800D01*
X148740400Y-128064800D02*
X161393600Y-128064800D01*
X167620400Y-121838000D02*
X167620400Y-52050400D01*
X161393600Y-128064800D02*
X167620400Y-121838000D01*
%TO.N,Net-(D48-Pad2)*%
X146762400Y-114064800D02*
X150002400Y-114064800D01*
%TO.N,Net-(D49-Pad1)*%
X135388400Y-80498800D02*
X138598400Y-80498800D01*
%TO.N,Net-(D49-Pad2)*%
X122284400Y-80498800D02*
X122256400Y-80526800D01*
X132848400Y-80498800D02*
X122284400Y-80498800D01*
%TO.N,Net-(D50-Pad2)*%
X150184400Y-47622800D02*
X150194400Y-47612800D01*
X146904400Y-47622800D02*
X150184400Y-47622800D01*
%TO.N,Net-(D51-Pad1)*%
X141138400Y-80498800D02*
X144458400Y-80498800D01*
%TO.N,Net-(D52-Pad2)*%
X140902400Y-114064800D02*
X144222400Y-114064800D01*
%TO.N,Net-(D53-Pad2)*%
X141074400Y-47622800D02*
X144364400Y-47622800D01*
%TO.N,Net-(D54-Pad1)*%
X150278400Y-80498800D02*
X150298400Y-80518800D01*
X146998400Y-80498800D02*
X150278400Y-80498800D01*
%TO.N,Net-(D55-Pad2)*%
X135092400Y-114064800D02*
X138362400Y-114064800D01*
%TO.N,Net-(D56-Pad2)*%
X135264400Y-47622800D02*
X138534400Y-47622800D01*
%TO.N,Net-(D57-Pad2)*%
X132552400Y-114064800D02*
X128898400Y-114064800D01*
X122256400Y-107422800D02*
X122256400Y-90686800D01*
X128898400Y-114064800D02*
X122256400Y-107422800D01*
%TO.N,Net-(D58-Pad1)*%
X156078400Y-80518800D02*
X156088400Y-80528800D01*
X152838400Y-80518800D02*
X156078400Y-80518800D01*
%TO.N,Net-(D59-Pad2)*%
X127840400Y-47622800D02*
X132724400Y-47622800D01*
X122288400Y-69830800D02*
X122288400Y-53174800D01*
X122288400Y-53174800D02*
X127840400Y-47622800D01*
%TO.N,/g_2*%
X155562400Y-118598800D02*
X155816400Y-118598800D01*
X163866410Y-81436810D02*
X163866410Y-118598800D01*
X158628400Y-80528800D02*
X162958400Y-80528800D01*
X162958400Y-80528800D02*
X163866410Y-81436810D01*
X144494400Y-118598800D02*
X155562400Y-118598800D01*
X142734400Y-122950800D02*
X142734400Y-120358800D01*
X142734400Y-120358800D02*
X144494400Y-118598800D01*
X155562400Y-118598800D02*
X156324394Y-118598800D01*
X156324394Y-118598800D02*
X156324400Y-118598806D01*
%TO.N,/c_2*%
X150354400Y-122950800D02*
X150354400Y-123350800D01*
X162166400Y-121856400D02*
X162166400Y-110656800D01*
X162166400Y-110656800D02*
X161726400Y-110216800D01*
X150354400Y-124476800D02*
X151080400Y-125202800D01*
X150354400Y-122950800D02*
X150354400Y-124476800D01*
X151080400Y-125202800D02*
X158820000Y-125202800D01*
X158820000Y-125202800D02*
X162166400Y-121856400D01*
%TO.N,Net-(D61-Pad2)*%
X161726400Y-104346800D02*
X161726400Y-107676800D01*
%TO.N,Net-(D62-Pad2)*%
X161726400Y-98486800D02*
X161726400Y-101806800D01*
%TO.N,Net-(D63-Pad2)*%
X161726400Y-92636800D02*
X161726400Y-95946800D01*
%TO.N,Net-(D64-Pad2)*%
X161716400Y-90086800D02*
X161726400Y-90096800D01*
X161716400Y-86816800D02*
X161716400Y-90086800D01*
%TO.N,Net-(D65-Pad2)*%
X135210400Y-84276800D02*
X161716400Y-84276800D01*
X122265200Y-83820000D02*
X125476000Y-83820000D01*
X125476000Y-83820000D02*
X127000000Y-82296000D01*
X127000000Y-82296000D02*
X133229600Y-82296000D01*
X122256400Y-83828800D02*
X122265200Y-83820000D01*
X133229600Y-82296000D02*
X135210400Y-84276800D01*
%TO.N,Net-(D66-Pad2)*%
X132910400Y-76734800D02*
X162154400Y-76734800D01*
X122501600Y-77470000D02*
X125730000Y-77470000D01*
X130670400Y-78974800D02*
X132910400Y-76734800D01*
X122256400Y-77224800D02*
X122501600Y-77470000D01*
X125730000Y-77470000D02*
X127234800Y-78974800D01*
X127234800Y-78974800D02*
X130670400Y-78974800D01*
%TO.N,Net-(D66-Pad1)*%
X162154400Y-74194800D02*
X162154400Y-70954800D01*
%TO.N,Net-(D67-Pad1)*%
X162154400Y-65074800D02*
X162154400Y-68414800D01*
%TO.N,Net-(D68-Pad1)*%
X162154400Y-62534800D02*
X162154400Y-59284800D01*
%TO.N,Net-(D69-Pad1)*%
X162154400Y-53414800D02*
X162144400Y-53404800D01*
X162154400Y-56744800D02*
X162154400Y-53414800D01*
%TO.N,/b_2*%
X147814400Y-122950800D02*
X147654400Y-122950800D01*
X165722400Y-52692400D02*
X163894800Y-50864800D01*
X163894800Y-50864800D02*
X162144400Y-50864800D01*
X147814400Y-124344800D02*
X150014400Y-126544800D01*
X147814400Y-122950800D02*
X147814400Y-124344800D01*
X150014400Y-126544800D02*
X159967200Y-126544800D01*
X159967200Y-126544800D02*
X165722400Y-120789600D01*
X165722400Y-120789600D02*
X165722400Y-52692400D01*
%TO.N,/B_D2*%
X137654400Y-130570800D02*
X137654400Y-134606400D01*
X144272000Y-141224000D02*
X144272000Y-147574000D01*
X137654400Y-134606400D02*
X144272000Y-141224000D01*
%TO.N,/e_2*%
X157922400Y-122950800D02*
X155434400Y-122950800D01*
X160526390Y-120346810D02*
X157922400Y-122950800D01*
X160526390Y-112386790D02*
X160526390Y-120346810D01*
X129398400Y-110216800D02*
X158356400Y-110216800D01*
X158356400Y-110216800D02*
X160526390Y-112386790D01*
%TO.N,/C_D2*%
X146812000Y-140716000D02*
X146812000Y-147574000D01*
X140194400Y-130570800D02*
X140194400Y-134098400D01*
X140194400Y-134098400D02*
X146812000Y-140716000D01*
%TO.N,/D_D2*%
X149352000Y-134366000D02*
X149352000Y-147574000D01*
X150354400Y-130570800D02*
X150354400Y-133363600D01*
X150354400Y-133363600D02*
X149352000Y-134366000D01*
%TO.N,/A_D2*%
X152894400Y-130570800D02*
X152820401Y-130644799D01*
X152908000Y-130584400D02*
X152894400Y-130570800D01*
X152908000Y-133350000D02*
X152908000Y-130584400D01*
X151715998Y-134542002D02*
X152908000Y-133350000D01*
X151892000Y-147574000D02*
X151715998Y-147397998D01*
X151715998Y-147397998D02*
X151715998Y-134542002D01*
%TO.N,Net-(D71-Pad2)*%
X71264400Y-84094800D02*
X72614000Y-84094800D01*
X73596500Y-85077300D02*
X75844400Y-85077300D01*
X72614000Y-84094800D02*
X73596500Y-85077300D01*
%TO.N,Net-(D71-Pad1)*%
X71264400Y-89924800D02*
X71264400Y-86634800D01*
%TO.N,Net-(D72-Pad1)*%
X71274400Y-92474800D02*
X71264400Y-92464800D01*
X71274400Y-95714800D02*
X71274400Y-92474800D01*
%TO.N,Net-(D73-Pad1)*%
X71274400Y-101504800D02*
X71274400Y-98254800D01*
%TO.N,Net-(D74-Pad1)*%
X71264400Y-104054800D02*
X71274400Y-104044800D01*
X71264400Y-107384800D02*
X71264400Y-104054800D01*
%TO.N,/e_3*%
X75508002Y-109962800D02*
X75692002Y-109778800D01*
X71264400Y-109962800D02*
X75508002Y-109962800D01*
X98884629Y-109829027D02*
X79350865Y-109829027D01*
X95658400Y-122872800D02*
X99377200Y-122872800D01*
X102362000Y-113306398D02*
X98884629Y-109829027D01*
X102362000Y-119888000D02*
X102362000Y-113306398D01*
X99377200Y-122872800D02*
X102362000Y-119888000D01*
%TO.N,Net-(D76-Pad2)*%
X71244400Y-52814800D02*
X71254400Y-52804800D01*
X71244400Y-56094800D02*
X71244400Y-52814800D01*
%TO.N,/f_3*%
X70713600Y-79248000D02*
X71678800Y-79248000D01*
X69138800Y-77673200D02*
X70713600Y-79248000D01*
X71254400Y-50264800D02*
X70080400Y-50264800D01*
X69138800Y-51206400D02*
X69138800Y-77673200D01*
X70080400Y-50264800D02*
X69138800Y-51206400D01*
X68783200Y-112623600D02*
X68783200Y-83253013D01*
X66282829Y-80752642D02*
X66282829Y-79338429D01*
X80418400Y-119788400D02*
X79095600Y-118465600D01*
X68783200Y-83253013D02*
X66282829Y-80752642D01*
X79095600Y-118465600D02*
X79095600Y-118414800D01*
X73253600Y-117094000D02*
X68783200Y-112623600D01*
X80418400Y-122872800D02*
X80418400Y-119788400D01*
X79095600Y-118414800D02*
X77774800Y-117094000D01*
X77774800Y-117094000D02*
X73253600Y-117094000D01*
%TO.N,Net-(D77-Pad2)*%
X71234400Y-58644800D02*
X71244400Y-58634800D01*
X71234400Y-61924800D02*
X71234400Y-58644800D01*
%TO.N,Net-(D78-Pad2)*%
X71234400Y-67734800D02*
X71234400Y-64464800D01*
%TO.N,Net-(D79-Pad2)*%
X71224400Y-70284800D02*
X71234400Y-70274800D01*
X71224400Y-73594800D02*
X71224400Y-70284800D01*
%TO.N,Net-(D80-Pad2)*%
X74549000Y-71805800D02*
X75717400Y-71805800D01*
X73558400Y-72796400D02*
X74549000Y-71805800D01*
X73558400Y-75641200D02*
X73558400Y-72796400D01*
X71224400Y-76134800D02*
X73064800Y-76134800D01*
X73064800Y-76134800D02*
X73558400Y-75641200D01*
%TO.N,Net-(D81-Pad2)*%
X94554400Y-114538800D02*
X94544400Y-114548800D01*
X97794400Y-114538800D02*
X94554400Y-114538800D01*
%TO.N,/d_3*%
X100334400Y-117597600D02*
X100334400Y-114538800D01*
X93586400Y-120204800D02*
X97727200Y-120204800D01*
X97727200Y-120204800D02*
X100334400Y-117597600D01*
X93118400Y-122872800D02*
X93118400Y-120672800D01*
X93118400Y-120672800D02*
X93586400Y-120204800D01*
%TO.N,Net-(D82-Pad2)*%
X97784400Y-47194800D02*
X97794400Y-47204800D01*
X94524400Y-47194800D02*
X97784400Y-47194800D01*
%TO.N,/a_3*%
X85498400Y-126422800D02*
X85498400Y-122872800D01*
X87120400Y-128044800D02*
X85498400Y-126422800D01*
X105726400Y-47204800D02*
X109770400Y-51248800D01*
X109770400Y-122080800D02*
X103806400Y-128044800D01*
X100334400Y-47204800D02*
X105726400Y-47204800D01*
X103806400Y-128044800D02*
X87120400Y-128044800D01*
X109770400Y-51248800D02*
X109770400Y-122080800D01*
%TO.N,Net-(D83-Pad2)*%
X88774400Y-114548800D02*
X88754400Y-114528800D01*
X92004400Y-114548800D02*
X88774400Y-114548800D01*
%TO.N,Net-(D84-Pad1)*%
X76874400Y-80104800D02*
X80144400Y-80104800D01*
%TO.N,Net-(D84-Pad2)*%
X74334400Y-80104800D02*
X74334400Y-78624400D01*
X75717400Y-77241400D02*
X75717400Y-75107800D01*
X74334400Y-78624400D02*
X75717400Y-77241400D01*
%TO.N,Net-(D85-Pad2)*%
X91974400Y-47184800D02*
X91984400Y-47194800D01*
X88674400Y-47184800D02*
X91974400Y-47184800D01*
%TO.N,Net-(D86-Pad1)*%
X82684400Y-80104800D02*
X85944400Y-80104800D01*
%TO.N,Net-(D87-Pad2)*%
X82944400Y-114528800D02*
X82934400Y-114518800D01*
X86214400Y-114528800D02*
X82944400Y-114528800D01*
%TO.N,Net-(D88-Pad2)*%
X82874400Y-47184800D02*
X86134400Y-47184800D01*
%TO.N,Net-(D89-Pad1)*%
X88484400Y-80104800D02*
X91794400Y-80104800D01*
%TO.N,Net-(D90-Pad2)*%
X77134400Y-114518800D02*
X77124400Y-114508800D01*
X80394400Y-114518800D02*
X77134400Y-114518800D01*
%TO.N,Net-(D91-Pad2)*%
X77074400Y-47184800D02*
X80334400Y-47184800D01*
%TO.N,Net-(D92-Pad2)*%
X76860400Y-107238800D02*
X75653900Y-107238800D01*
X74584400Y-112613600D02*
X75184000Y-112014000D01*
X74584400Y-114508800D02*
X74584400Y-112613600D01*
X75184000Y-112014000D02*
X76137202Y-112014000D01*
X76137202Y-112014000D02*
X77442802Y-110708400D01*
X77442802Y-107821202D02*
X76860400Y-107238800D01*
X77442802Y-110708400D02*
X77442802Y-107821202D01*
%TO.N,Net-(D93-Pad1)*%
X97574400Y-80104800D02*
X97584400Y-80094800D01*
X94334400Y-80104800D02*
X97574400Y-80104800D01*
%TO.N,Net-(D94-Pad2)*%
X75793600Y-52171600D02*
X75780900Y-52184300D01*
X74534400Y-47184800D02*
X74534400Y-48321600D01*
X75793600Y-49580800D02*
X75793600Y-52171600D01*
X74534400Y-48321600D02*
X75793600Y-49580800D01*
%TO.N,/g_3*%
X82958400Y-120672800D02*
X84716400Y-118914800D01*
X82958400Y-122872800D02*
X82958400Y-120672800D01*
X84716400Y-118914800D02*
X91940400Y-118914800D01*
X91940400Y-118914800D02*
X91940400Y-118984800D01*
X106350400Y-118374800D02*
X105730400Y-118994800D01*
X106350400Y-82914800D02*
X106350400Y-118374800D01*
X100124400Y-80094800D02*
X103530400Y-80094800D01*
X103530400Y-80094800D02*
X106350400Y-82914800D01*
%TO.N,/c_3*%
X100479200Y-125072800D02*
X92378400Y-125072800D01*
X90578400Y-123272800D02*
X90578400Y-122872800D01*
X103746400Y-109962800D02*
X103746400Y-121805600D01*
X92378400Y-125072800D02*
X90578400Y-123272800D01*
X103746400Y-121805600D02*
X100479200Y-125072800D01*
%TO.N,Net-(D96-Pad2)*%
X103714400Y-107294800D02*
X103704400Y-107304800D01*
X103714400Y-104084800D02*
X103714400Y-107294800D01*
%TO.N,Net-(D97-Pad2)*%
X103724400Y-101534800D02*
X103714400Y-101544800D01*
X103724400Y-98264800D02*
X103724400Y-101534800D01*
%TO.N,Net-(D98-Pad2)*%
X103724400Y-92464800D02*
X103724400Y-95724800D01*
%TO.N,Net-(D100-Pad1)*%
X103724400Y-86674800D02*
X103724400Y-89924800D01*
%TO.N,Net-(D100-Pad2)*%
X98958400Y-85140800D02*
X99974400Y-84124800D01*
X103714400Y-84124800D02*
X103724400Y-84134800D01*
X99974400Y-84124800D02*
X103714400Y-84124800D01*
%TO.N,Net-(D101-Pad2)*%
X99314000Y-75844400D02*
X99314000Y-75133200D01*
X99314000Y-75133200D02*
X99402900Y-75044300D01*
X103958400Y-76322800D02*
X99792400Y-76322800D01*
X99792400Y-76322800D02*
X99314000Y-75844400D01*
%TO.N,Net-(D101-Pad1)*%
X103958400Y-70552800D02*
X103958400Y-73782800D01*
%TO.N,Net-(D102-Pad1)*%
X103958400Y-64682800D02*
X103958400Y-68012800D01*
%TO.N,Net-(D103-Pad1)*%
X103948400Y-62132800D02*
X103958400Y-62142800D01*
X103948400Y-58832800D02*
X103948400Y-62132800D01*
%TO.N,Net-(D104-Pad1)*%
X103958400Y-56282800D02*
X103948400Y-56292800D01*
X103958400Y-53032800D02*
X103958400Y-56282800D01*
%TO.N,/b_3*%
X108102400Y-51836800D02*
X106758400Y-50492800D01*
X88038400Y-122872800D02*
X88038400Y-125072800D01*
X88038400Y-125072800D02*
X89490400Y-126524800D01*
X89490400Y-126524800D02*
X102278400Y-126524800D01*
X106758400Y-50492800D02*
X103958400Y-50492800D01*
X102278400Y-126524800D02*
X108102400Y-120700800D01*
X108102400Y-120700800D02*
X108102400Y-51836800D01*
%TO.N,/A_D3*%
X136652000Y-137414000D02*
X141732000Y-142494000D01*
X95250000Y-137414000D02*
X136652000Y-137414000D01*
X93118400Y-130492800D02*
X93118400Y-135282400D01*
X141732000Y-142494000D02*
X141732000Y-147574000D01*
X93118400Y-135282400D02*
X95250000Y-137414000D01*
%TO.N,/B_D3*%
X134112000Y-145288000D02*
X134112000Y-147574000D01*
X132079999Y-143255999D02*
X134112000Y-145288000D01*
X87629999Y-143255999D02*
X132079999Y-143255999D01*
X77878400Y-130492800D02*
X77878400Y-133504400D01*
X77878400Y-133504400D02*
X87629999Y-143255999D01*
%TO.N,/C_D3*%
X133604000Y-141224000D02*
X136652000Y-144272000D01*
X136652000Y-144272000D02*
X136652000Y-147574000D01*
X88138000Y-141224000D02*
X133604000Y-141224000D01*
X80418400Y-130492800D02*
X80418400Y-133504400D01*
X80418400Y-133504400D02*
X88138000Y-141224000D01*
%TO.N,/D_D3*%
X139192000Y-143510000D02*
X139192000Y-147574000D01*
X93726000Y-139446000D02*
X135128000Y-139446000D01*
X90578400Y-130492800D02*
X90578400Y-136298400D01*
X135128000Y-139446000D02*
X139192000Y-143510000D01*
X90578400Y-136298400D02*
X93726000Y-139446000D01*
%TO.N,VDD*%
X170044400Y-83842800D02*
X170084400Y-83802800D01*
X170124400Y-74032800D02*
X170114400Y-74022800D01*
X170080400Y-70134800D02*
X170140400Y-70074800D01*
X170080400Y-90244800D02*
X170080400Y-70134800D01*
X112096400Y-74022800D02*
X112104400Y-74014800D01*
X112096400Y-90686800D02*
X112096400Y-74022800D01*
X112104400Y-69854800D02*
X112128400Y-69830800D01*
X112104400Y-74014800D02*
X112104400Y-69854800D01*
X85940900Y-71742300D02*
X85877400Y-71805800D01*
X85940900Y-52184300D02*
X85940900Y-71742300D01*
X89179400Y-75107800D02*
X89242900Y-75044300D01*
X85877400Y-75107800D02*
X89179400Y-75107800D01*
X88734900Y-85077300D02*
X88798400Y-85140800D01*
X86004400Y-85077300D02*
X88734900Y-85077300D01*
X85877400Y-71805800D02*
X85877400Y-75107800D01*
X86004400Y-107048300D02*
X85813900Y-107238800D01*
X86004400Y-85077300D02*
X86004400Y-107048300D01*
X73334390Y-48899590D02*
X70688200Y-46253400D01*
X73304400Y-51612800D02*
X73334390Y-51582810D01*
X78574900Y-52184300D02*
X76860400Y-53898800D01*
X73334390Y-51582810D02*
X73334390Y-48899590D01*
X85940900Y-52184300D02*
X78574900Y-52184300D01*
X76860400Y-53898800D02*
X74828400Y-53898800D01*
X74828400Y-53898800D02*
X73304400Y-52374800D01*
X73304400Y-52374800D02*
X73304400Y-51612800D01*
X170080400Y-91376170D02*
X170060400Y-91396170D01*
X170060400Y-99924800D02*
X170060400Y-130434800D01*
X170060400Y-91396170D02*
X170060400Y-99924800D01*
X170080400Y-90244800D02*
X170080400Y-91376170D01*
X70688200Y-46253400D02*
X72085200Y-44856400D01*
X112128400Y-69830800D02*
X112128400Y-44869200D01*
X72085200Y-44856400D02*
X112115600Y-44856400D01*
X112128400Y-44869200D02*
X112115600Y-44856400D01*
X165100000Y-150368000D02*
X170060400Y-145407600D01*
X170060400Y-145407600D02*
X170060400Y-141851600D01*
X132588000Y-150368000D02*
X165100000Y-150368000D01*
X131572000Y-147574000D02*
X131572000Y-149352000D01*
X131572000Y-149352000D02*
X132588000Y-150368000D01*
X67665600Y-49276000D02*
X70688200Y-46253400D01*
X67665600Y-78181200D02*
X67665600Y-49276000D01*
X71526400Y-82042000D02*
X67665600Y-78181200D01*
X86004400Y-83769200D02*
X85090000Y-82854800D01*
X85090000Y-82854800D02*
X74980800Y-82854800D01*
X74168000Y-82042000D02*
X71526400Y-82042000D01*
X86004400Y-85077300D02*
X86004400Y-83769200D01*
X74980800Y-82854800D02*
X74168000Y-82042000D01*
X170140400Y-52030400D02*
X170140400Y-70074800D01*
X112115600Y-44856400D02*
X162966400Y-44856400D01*
X162966400Y-44856400D02*
X170140400Y-52030400D01*
%TD*%
M02*
