%TF.GenerationSoftware,KiCad,Pcbnew,(5.1.6)-1*%
%TF.CreationDate,2021-04-12T17:18:31+02:00*%
%TF.ProjectId,_7SEG_Display_Board,5f375345-475f-4446-9973-706c61795f42,rev?*%
%TF.SameCoordinates,Original*%
%TF.FileFunction,Legend,Top*%
%TF.FilePolarity,Positive*%
%FSLAX46Y46*%
G04 Gerber Fmt 4.6, Leading zero omitted, Abs format (unit mm)*
G04 Created by KiCad (PCBNEW (5.1.6)-1) date 2021-04-12 17:18:31*
%MOMM*%
%LPD*%
G01*
G04 APERTURE LIST*
%ADD10C,0.120000*%
%ADD11C,0.150000*%
G04 APERTURE END LIST*
D10*
%TO.C,R17*%
X76757400Y-75107800D02*
X77527400Y-75107800D01*
X84837400Y-75107800D02*
X84067400Y-75107800D01*
X77527400Y-76477800D02*
X84067400Y-76477800D01*
X77527400Y-73737800D02*
X77527400Y-76477800D01*
X84067400Y-73737800D02*
X77527400Y-73737800D01*
X84067400Y-76477800D02*
X84067400Y-73737800D01*
%TO.C,R18*%
X84003900Y-108608800D02*
X84003900Y-105868800D01*
X84003900Y-105868800D02*
X77463900Y-105868800D01*
X77463900Y-105868800D02*
X77463900Y-108608800D01*
X77463900Y-108608800D02*
X84003900Y-108608800D01*
X84773900Y-107238800D02*
X84003900Y-107238800D01*
X76693900Y-107238800D02*
X77463900Y-107238800D01*
%TO.C,R16*%
X76757400Y-71805800D02*
X77527400Y-71805800D01*
X84837400Y-71805800D02*
X84067400Y-71805800D01*
X77527400Y-73175800D02*
X84067400Y-73175800D01*
X77527400Y-70435800D02*
X77527400Y-73175800D01*
X84067400Y-70435800D02*
X77527400Y-70435800D01*
X84067400Y-73175800D02*
X84067400Y-70435800D01*
%TO.C,R20*%
X90608400Y-83770800D02*
X90608400Y-86510800D01*
X90608400Y-86510800D02*
X97148400Y-86510800D01*
X97148400Y-86510800D02*
X97148400Y-83770800D01*
X97148400Y-83770800D02*
X90608400Y-83770800D01*
X89838400Y-85140800D02*
X90608400Y-85140800D01*
X97918400Y-85140800D02*
X97148400Y-85140800D01*
%TO.C,R21*%
X98362900Y-75044300D02*
X97592900Y-75044300D01*
X90282900Y-75044300D02*
X91052900Y-75044300D01*
X97592900Y-73674300D02*
X91052900Y-73674300D01*
X97592900Y-76414300D02*
X97592900Y-73674300D01*
X91052900Y-76414300D02*
X97592900Y-76414300D01*
X91052900Y-73674300D02*
X91052900Y-76414300D01*
%TO.C,R15*%
X76884400Y-85077300D02*
X77654400Y-85077300D01*
X84964400Y-85077300D02*
X84194400Y-85077300D01*
X77654400Y-86447300D02*
X84194400Y-86447300D01*
X77654400Y-83707300D02*
X77654400Y-86447300D01*
X84194400Y-83707300D02*
X77654400Y-83707300D01*
X84194400Y-86447300D02*
X84194400Y-83707300D01*
%TO.C,R19*%
X84130900Y-53554300D02*
X84130900Y-50814300D01*
X84130900Y-50814300D02*
X77590900Y-50814300D01*
X77590900Y-50814300D02*
X77590900Y-53554300D01*
X77590900Y-53554300D02*
X84130900Y-53554300D01*
X84900900Y-52184300D02*
X84130900Y-52184300D01*
X76820900Y-52184300D02*
X77590900Y-52184300D01*
%TO.C,D1*%
X189250400Y-109204800D02*
G75*
G03*
X189250400Y-109204800I-2500000J0D01*
G01*
X185205400Y-111764800D02*
X188295400Y-111764800D01*
X186749938Y-106214800D02*
G75*
G02*
X188295230Y-111764800I462J-2990000D01*
G01*
X186750862Y-106214800D02*
G75*
G03*
X185205570Y-111764800I-462J-2990000D01*
G01*
%TO.C,D2*%
X221450400Y-109254800D02*
G75*
G03*
X221450400Y-109254800I-2500000J0D01*
G01*
X217405400Y-111814800D02*
X220495400Y-111814800D01*
X218949938Y-106264800D02*
G75*
G02*
X220495230Y-111814800I462J-2990000D01*
G01*
X218950862Y-106264800D02*
G75*
G03*
X217405570Y-111814800I-462J-2990000D01*
G01*
%TO.C,D3*%
X216846400Y-116225800D02*
X216846400Y-113135800D01*
X216786400Y-114680800D02*
G75*
G03*
X216786400Y-114680800I-2500000J0D01*
G01*
X211296400Y-114680338D02*
G75*
G03*
X216846400Y-116225630I2990000J-462D01*
G01*
X211296400Y-114681262D02*
G75*
G02*
X216846400Y-113135970I2990000J462D01*
G01*
%TO.C,D4*%
X188059400Y-49402800D02*
X184969400Y-49402800D01*
X189014400Y-51962800D02*
G75*
G03*
X189014400Y-51962800I-2500000J0D01*
G01*
X186513938Y-54952800D02*
G75*
G03*
X188059230Y-49402800I462J2990000D01*
G01*
X186514862Y-54952800D02*
G75*
G02*
X184969570Y-49402800I-462J2990000D01*
G01*
%TO.C,D5*%
X221350400Y-51764800D02*
G75*
G03*
X221350400Y-51764800I-2500000J0D01*
G01*
X220395400Y-49204800D02*
X217305400Y-49204800D01*
X218850862Y-54754800D02*
G75*
G02*
X217305570Y-49204800I-462J2990000D01*
G01*
X218849938Y-54754800D02*
G75*
G03*
X220395230Y-49204800I462J2990000D01*
G01*
%TO.C,D6*%
X217030400Y-80468800D02*
G75*
G03*
X217030400Y-80468800I-2500000J0D01*
G01*
X217090400Y-82013800D02*
X217090400Y-78923800D01*
X211540400Y-80469262D02*
G75*
G02*
X217090400Y-78923970I2990000J462D01*
G01*
X211540400Y-80468338D02*
G75*
G03*
X217090400Y-82013630I2990000J-462D01*
G01*
%TO.C,D7*%
X216934400Y-47292800D02*
G75*
G03*
X216934400Y-47292800I-2500000J0D01*
G01*
X216994400Y-48837800D02*
X216994400Y-45747800D01*
X211444400Y-47293262D02*
G75*
G02*
X216994400Y-45747970I2990000J462D01*
G01*
X211444400Y-47292338D02*
G75*
G03*
X216994400Y-48837630I2990000J-462D01*
G01*
%TO.C,D8*%
X185205400Y-106016800D02*
X188295400Y-106016800D01*
X189250400Y-103456800D02*
G75*
G03*
X189250400Y-103456800I-2500000J0D01*
G01*
X186750862Y-100466800D02*
G75*
G03*
X185205570Y-106016800I-462J-2990000D01*
G01*
X186749938Y-100466800D02*
G75*
G02*
X188295230Y-106016800I462J-2990000D01*
G01*
%TO.C,D9*%
X217415400Y-106056800D02*
X220505400Y-106056800D01*
X221460400Y-103496800D02*
G75*
G03*
X221460400Y-103496800I-2500000J0D01*
G01*
X218960862Y-100506800D02*
G75*
G03*
X217415570Y-106056800I-462J-2990000D01*
G01*
X218959938Y-100506800D02*
G75*
G02*
X220505230Y-106056800I462J-2990000D01*
G01*
%TO.C,D10*%
X211006400Y-116225800D02*
X211006400Y-113135800D01*
X210946400Y-114680800D02*
G75*
G03*
X210946400Y-114680800I-2500000J0D01*
G01*
X205456400Y-114680338D02*
G75*
G03*
X211006400Y-116225630I2990000J-462D01*
G01*
X205456400Y-114681262D02*
G75*
G02*
X211006400Y-113135970I2990000J462D01*
G01*
%TO.C,D11*%
X188079400Y-55212800D02*
X184989400Y-55212800D01*
X189034400Y-57772800D02*
G75*
G03*
X189034400Y-57772800I-2500000J0D01*
G01*
X186533938Y-60762800D02*
G75*
G03*
X188079230Y-55212800I462J2990000D01*
G01*
X186534862Y-60762800D02*
G75*
G02*
X184989570Y-55212800I-462J2990000D01*
G01*
%TO.C,D12*%
X221350400Y-57584800D02*
G75*
G03*
X221350400Y-57584800I-2500000J0D01*
G01*
X220395400Y-55024800D02*
X217305400Y-55024800D01*
X218850862Y-60574800D02*
G75*
G02*
X217305570Y-55024800I-462J2990000D01*
G01*
X218849938Y-60574800D02*
G75*
G03*
X220395230Y-55024800I462J2990000D01*
G01*
%TO.C,D13*%
X211096400Y-82001800D02*
X211096400Y-78911800D01*
X211036400Y-80456800D02*
G75*
G03*
X211036400Y-80456800I-2500000J0D01*
G01*
X205546400Y-80456338D02*
G75*
G03*
X211096400Y-82001630I2990000J-462D01*
G01*
X205546400Y-80457262D02*
G75*
G02*
X211096400Y-78911970I2990000J462D01*
G01*
%TO.C,D14*%
X211114400Y-47282800D02*
G75*
G03*
X211114400Y-47282800I-2500000J0D01*
G01*
X211174400Y-48827800D02*
X211174400Y-45737800D01*
X205624400Y-47283262D02*
G75*
G02*
X211174400Y-45737970I2990000J462D01*
G01*
X205624400Y-47282338D02*
G75*
G03*
X211174400Y-48827630I2990000J-462D01*
G01*
%TO.C,D15*%
X189260400Y-97596800D02*
G75*
G03*
X189260400Y-97596800I-2500000J0D01*
G01*
X185215400Y-100156800D02*
X188305400Y-100156800D01*
X186759938Y-94606800D02*
G75*
G02*
X188305230Y-100156800I462J-2990000D01*
G01*
X186760862Y-94606800D02*
G75*
G03*
X185215570Y-100156800I-462J-2990000D01*
G01*
%TO.C,D16*%
X221450400Y-97696800D02*
G75*
G03*
X221450400Y-97696800I-2500000J0D01*
G01*
X217405400Y-100256800D02*
X220495400Y-100256800D01*
X218949938Y-94706800D02*
G75*
G02*
X220495230Y-100256800I462J-2990000D01*
G01*
X218950862Y-94706800D02*
G75*
G03*
X217405570Y-100256800I-462J-2990000D01*
G01*
%TO.C,D17*%
X205176400Y-116225800D02*
X205176400Y-113135800D01*
X205116400Y-114680800D02*
G75*
G03*
X205116400Y-114680800I-2500000J0D01*
G01*
X199626400Y-114680338D02*
G75*
G03*
X205176400Y-116225630I2990000J-462D01*
G01*
X199626400Y-114681262D02*
G75*
G02*
X205176400Y-113135970I2990000J462D01*
G01*
%TO.C,D18*%
X188079400Y-61002800D02*
X184989400Y-61002800D01*
X189034400Y-63562800D02*
G75*
G03*
X189034400Y-63562800I-2500000J0D01*
G01*
X186533938Y-66552800D02*
G75*
G03*
X188079230Y-61002800I462J2990000D01*
G01*
X186534862Y-66552800D02*
G75*
G02*
X184989570Y-61002800I-462J2990000D01*
G01*
%TO.C,D19*%
X220395400Y-60824800D02*
X217305400Y-60824800D01*
X221350400Y-63384800D02*
G75*
G03*
X221350400Y-63384800I-2500000J0D01*
G01*
X218849938Y-66374800D02*
G75*
G03*
X220395230Y-60824800I462J2990000D01*
G01*
X218850862Y-66374800D02*
G75*
G02*
X217305570Y-60824800I-462J2990000D01*
G01*
%TO.C,D20*%
X205246400Y-82001800D02*
X205246400Y-78911800D01*
X205186400Y-80456800D02*
G75*
G03*
X205186400Y-80456800I-2500000J0D01*
G01*
X199696400Y-80456338D02*
G75*
G03*
X205246400Y-82001630I2990000J-462D01*
G01*
X199696400Y-80457262D02*
G75*
G02*
X205246400Y-78911970I2990000J462D01*
G01*
%TO.C,D21*%
X205274400Y-47292800D02*
G75*
G03*
X205274400Y-47292800I-2500000J0D01*
G01*
X205334400Y-48837800D02*
X205334400Y-45747800D01*
X199784400Y-47293262D02*
G75*
G02*
X205334400Y-45747970I2990000J462D01*
G01*
X199784400Y-47292338D02*
G75*
G03*
X205334400Y-48837630I2990000J-462D01*
G01*
%TO.C,D22*%
X185215400Y-94356800D02*
X188305400Y-94356800D01*
X189260400Y-91796800D02*
G75*
G03*
X189260400Y-91796800I-2500000J0D01*
G01*
X186760862Y-88806800D02*
G75*
G03*
X185215570Y-94356800I-462J-2990000D01*
G01*
X186759938Y-88806800D02*
G75*
G02*
X188305230Y-94356800I462J-2990000D01*
G01*
%TO.C,D23*%
X217395400Y-94456800D02*
X220485400Y-94456800D01*
X221440400Y-91896800D02*
G75*
G03*
X221440400Y-91896800I-2500000J0D01*
G01*
X218940862Y-88906800D02*
G75*
G03*
X217395570Y-94456800I-462J-2990000D01*
G01*
X218939938Y-88906800D02*
G75*
G02*
X220485230Y-94456800I462J-2990000D01*
G01*
%TO.C,D24*%
X199256400Y-114680800D02*
G75*
G03*
X199256400Y-114680800I-2500000J0D01*
G01*
X199316400Y-116225800D02*
X199316400Y-113135800D01*
X193766400Y-114681262D02*
G75*
G02*
X199316400Y-113135970I2990000J462D01*
G01*
X193766400Y-114680338D02*
G75*
G03*
X199316400Y-116225630I2990000J-462D01*
G01*
%TO.C,D25*%
X189034400Y-69372800D02*
G75*
G03*
X189034400Y-69372800I-2500000J0D01*
G01*
X188079400Y-66812800D02*
X184989400Y-66812800D01*
X186534862Y-72362800D02*
G75*
G02*
X184989570Y-66812800I-462J2990000D01*
G01*
X186533938Y-72362800D02*
G75*
G03*
X188079230Y-66812800I462J2990000D01*
G01*
%TO.C,D26*%
X220395400Y-66634800D02*
X217305400Y-66634800D01*
X221350400Y-69194800D02*
G75*
G03*
X221350400Y-69194800I-2500000J0D01*
G01*
X218849938Y-72184800D02*
G75*
G03*
X220395230Y-66634800I462J2990000D01*
G01*
X218850862Y-72184800D02*
G75*
G02*
X217305570Y-66634800I-462J2990000D01*
G01*
%TO.C,D27*%
X199346400Y-80446800D02*
G75*
G03*
X199346400Y-80446800I-2500000J0D01*
G01*
X199406400Y-81991800D02*
X199406400Y-78901800D01*
X193856400Y-80447262D02*
G75*
G02*
X199406400Y-78901970I2990000J462D01*
G01*
X193856400Y-80446338D02*
G75*
G03*
X199406400Y-81991630I2990000J-462D01*
G01*
%TO.C,D28*%
X199554400Y-48837800D02*
X199554400Y-45747800D01*
X199494400Y-47292800D02*
G75*
G03*
X199494400Y-47292800I-2500000J0D01*
G01*
X194004400Y-47292338D02*
G75*
G03*
X199554400Y-48837630I2990000J-462D01*
G01*
X194004400Y-47293262D02*
G75*
G02*
X199554400Y-45747970I2990000J462D01*
G01*
%TO.C,D29*%
X189260400Y-85946800D02*
G75*
G03*
X189260400Y-85946800I-2500000J0D01*
G01*
X185215400Y-88506800D02*
X188305400Y-88506800D01*
X186759938Y-82956800D02*
G75*
G02*
X188305230Y-88506800I462J-2990000D01*
G01*
X186760862Y-82956800D02*
G75*
G03*
X185215570Y-88506800I-462J-2990000D01*
G01*
%TO.C,D30*%
X217435400Y-88606800D02*
X220525400Y-88606800D01*
X221480400Y-86046800D02*
G75*
G03*
X221480400Y-86046800I-2500000J0D01*
G01*
X218980862Y-83056800D02*
G75*
G03*
X217435570Y-88606800I-462J-2990000D01*
G01*
X218979938Y-83056800D02*
G75*
G02*
X220525230Y-88606800I462J-2990000D01*
G01*
%TO.C,D31*%
X193396400Y-114690800D02*
G75*
G03*
X193396400Y-114690800I-2500000J0D01*
G01*
X193456400Y-116235800D02*
X193456400Y-113145800D01*
X187906400Y-114691262D02*
G75*
G02*
X193456400Y-113145970I2990000J462D01*
G01*
X187906400Y-114690338D02*
G75*
G03*
X193456400Y-116235630I2990000J-462D01*
G01*
%TO.C,D32*%
X189024400Y-75192800D02*
G75*
G03*
X189024400Y-75192800I-2500000J0D01*
G01*
X188069400Y-72632800D02*
X184979400Y-72632800D01*
X186524862Y-78182800D02*
G75*
G02*
X184979570Y-72632800I-462J2990000D01*
G01*
X186523938Y-78182800D02*
G75*
G03*
X188069230Y-72632800I462J2990000D01*
G01*
%TO.C,D33*%
X220395400Y-72474800D02*
X217305400Y-72474800D01*
X221350400Y-75034800D02*
G75*
G03*
X221350400Y-75034800I-2500000J0D01*
G01*
X218849938Y-78024800D02*
G75*
G03*
X220395230Y-72474800I462J2990000D01*
G01*
X218850862Y-78024800D02*
G75*
G02*
X217305570Y-72474800I-462J2990000D01*
G01*
%TO.C,D34*%
X193496400Y-80436800D02*
G75*
G03*
X193496400Y-80436800I-2500000J0D01*
G01*
X193556400Y-81981800D02*
X193556400Y-78891800D01*
X188006400Y-80437262D02*
G75*
G02*
X193556400Y-78891970I2990000J462D01*
G01*
X188006400Y-80436338D02*
G75*
G03*
X193556400Y-81981630I2990000J-462D01*
G01*
%TO.C,D35*%
X193704400Y-48837800D02*
X193704400Y-45747800D01*
X193644400Y-47292800D02*
G75*
G03*
X193644400Y-47292800I-2500000J0D01*
G01*
X188154400Y-47292338D02*
G75*
G03*
X193704400Y-48837630I2990000J-462D01*
G01*
X188154400Y-47293262D02*
G75*
G02*
X193704400Y-45747970I2990000J462D01*
G01*
%TO.C,R1*%
X179190400Y-86984800D02*
X178420400Y-86984800D01*
X171110400Y-86984800D02*
X171880400Y-86984800D01*
X178420400Y-85614800D02*
X171880400Y-85614800D01*
X178420400Y-88354800D02*
X178420400Y-85614800D01*
X171880400Y-88354800D02*
X178420400Y-88354800D01*
X171880400Y-85614800D02*
X171880400Y-88354800D01*
%TO.C,R2*%
X171894400Y-82432800D02*
X171894400Y-85172800D01*
X171894400Y-85172800D02*
X178434400Y-85172800D01*
X178434400Y-85172800D02*
X178434400Y-82432800D01*
X178434400Y-82432800D02*
X171894400Y-82432800D01*
X171124400Y-83802800D02*
X171894400Y-83802800D01*
X179204400Y-83802800D02*
X178434400Y-83802800D01*
%TO.C,R3*%
X171890400Y-88874800D02*
X171890400Y-91614800D01*
X171890400Y-91614800D02*
X178430400Y-91614800D01*
X178430400Y-91614800D02*
X178430400Y-88874800D01*
X178430400Y-88874800D02*
X171890400Y-88874800D01*
X171120400Y-90244800D02*
X171890400Y-90244800D01*
X179200400Y-90244800D02*
X178430400Y-90244800D01*
%TO.C,R4*%
X179260400Y-74084800D02*
X178490400Y-74084800D01*
X171180400Y-74084800D02*
X171950400Y-74084800D01*
X178490400Y-72714800D02*
X171950400Y-72714800D01*
X178490400Y-75454800D02*
X178490400Y-72714800D01*
X171950400Y-75454800D02*
X178490400Y-75454800D01*
X171950400Y-72714800D02*
X171950400Y-75454800D01*
%TO.C,R5*%
X171934400Y-75862800D02*
X171934400Y-78602800D01*
X171934400Y-78602800D02*
X178474400Y-78602800D01*
X178474400Y-78602800D02*
X178474400Y-75862800D01*
X178474400Y-75862800D02*
X171934400Y-75862800D01*
X171164400Y-77232800D02*
X171934400Y-77232800D01*
X179244400Y-77232800D02*
X178474400Y-77232800D01*
%TO.C,R6*%
X179244400Y-80432800D02*
X178474400Y-80432800D01*
X171164400Y-80432800D02*
X171934400Y-80432800D01*
X178474400Y-79062800D02*
X171934400Y-79062800D01*
X178474400Y-81802800D02*
X178474400Y-79062800D01*
X171934400Y-81802800D02*
X178474400Y-81802800D01*
X171934400Y-79062800D02*
X171934400Y-81802800D01*
%TO.C,R7*%
X179260400Y-70074800D02*
X178490400Y-70074800D01*
X171180400Y-70074800D02*
X171950400Y-70074800D01*
X178490400Y-68704800D02*
X171950400Y-68704800D01*
X178490400Y-71444800D02*
X178490400Y-68704800D01*
X171950400Y-71444800D02*
X178490400Y-71444800D01*
X171950400Y-68704800D02*
X171950400Y-71444800D01*
%TO.C,U3*%
X193560400Y-121514800D02*
X193560400Y-132014800D01*
X214120400Y-121514800D02*
X193560400Y-121514800D01*
X214120400Y-132014800D02*
X214120400Y-121514800D01*
X193560400Y-132014800D02*
X214120400Y-132014800D01*
X193620400Y-124514800D02*
X193620400Y-125764800D01*
X214060400Y-124514800D02*
X193620400Y-124514800D01*
X214060400Y-129014800D02*
X214060400Y-124514800D01*
X193620400Y-129014800D02*
X214060400Y-129014800D01*
X193620400Y-127764800D02*
X193620400Y-129014800D01*
X193620400Y-125764800D02*
G75*
G02*
X193620400Y-127764800I0J-1000000D01*
G01*
%TO.C,D36*%
X131928400Y-85454800D02*
G75*
G03*
X131928400Y-85454800I-2500000J0D01*
G01*
X127883400Y-88014800D02*
X130973400Y-88014800D01*
X129427938Y-82464800D02*
G75*
G02*
X130973230Y-88014800I462J-2990000D01*
G01*
X129428862Y-82464800D02*
G75*
G03*
X127883570Y-88014800I-462J-2990000D01*
G01*
%TO.C,D37*%
X127883400Y-93834800D02*
X130973400Y-93834800D01*
X131928400Y-91274800D02*
G75*
G03*
X131928400Y-91274800I-2500000J0D01*
G01*
X129428862Y-88284800D02*
G75*
G03*
X127883570Y-93834800I-462J-2990000D01*
G01*
X129427938Y-88284800D02*
G75*
G02*
X130973230Y-93834800I462J-2990000D01*
G01*
%TO.C,D38*%
X127873400Y-99704800D02*
X130963400Y-99704800D01*
X131918400Y-97144800D02*
G75*
G03*
X131918400Y-97144800I-2500000J0D01*
G01*
X129418862Y-94154800D02*
G75*
G03*
X127873570Y-99704800I-462J-2990000D01*
G01*
X129417938Y-94154800D02*
G75*
G02*
X130963230Y-99704800I462J-2990000D01*
G01*
%TO.C,D39*%
X131898400Y-102964800D02*
G75*
G03*
X131898400Y-102964800I-2500000J0D01*
G01*
X127853400Y-105524800D02*
X130943400Y-105524800D01*
X129397938Y-99974800D02*
G75*
G02*
X130943230Y-105524800I462J-2990000D01*
G01*
X129398862Y-99974800D02*
G75*
G03*
X127853570Y-105524800I-462J-2990000D01*
G01*
%TO.C,D40*%
X127853400Y-111506800D02*
X130943400Y-111506800D01*
X131898400Y-108946800D02*
G75*
G03*
X131898400Y-108946800I-2500000J0D01*
G01*
X129398862Y-105956800D02*
G75*
G03*
X127853570Y-111506800I-462J-2990000D01*
G01*
X129397938Y-105956800D02*
G75*
G02*
X130943230Y-111506800I462J-2990000D01*
G01*
%TO.C,D41*%
X130989400Y-49494800D02*
X127899400Y-49494800D01*
X131944400Y-52054800D02*
G75*
G03*
X131944400Y-52054800I-2500000J0D01*
G01*
X129443938Y-55044800D02*
G75*
G03*
X130989230Y-49494800I462J2990000D01*
G01*
X129444862Y-55044800D02*
G75*
G02*
X127899570Y-49494800I-462J2990000D01*
G01*
%TO.C,D42*%
X131944400Y-57894800D02*
G75*
G03*
X131944400Y-57894800I-2500000J0D01*
G01*
X130989400Y-55334800D02*
X127899400Y-55334800D01*
X129444862Y-60884800D02*
G75*
G02*
X127899570Y-55334800I-462J2990000D01*
G01*
X129443938Y-60884800D02*
G75*
G03*
X130989230Y-55334800I462J2990000D01*
G01*
%TO.C,D43*%
X131944400Y-63724800D02*
G75*
G03*
X131944400Y-63724800I-2500000J0D01*
G01*
X130989400Y-61164800D02*
X127899400Y-61164800D01*
X129444862Y-66714800D02*
G75*
G02*
X127899570Y-61164800I-462J2990000D01*
G01*
X129443938Y-66714800D02*
G75*
G03*
X130989230Y-61164800I462J2990000D01*
G01*
%TO.C,D44*%
X130989400Y-67004800D02*
X127899400Y-67004800D01*
X131944400Y-69564800D02*
G75*
G03*
X131944400Y-69564800I-2500000J0D01*
G01*
X129443938Y-72554800D02*
G75*
G03*
X130989230Y-67004800I462J2990000D01*
G01*
X129444862Y-72554800D02*
G75*
G02*
X127899570Y-67004800I-462J2990000D01*
G01*
%TO.C,D45*%
X130999400Y-72804800D02*
X127909400Y-72804800D01*
X131954400Y-75364800D02*
G75*
G03*
X131954400Y-75364800I-2500000J0D01*
G01*
X129453938Y-78354800D02*
G75*
G03*
X130999230Y-72804800I462J2990000D01*
G01*
X129454862Y-78354800D02*
G75*
G02*
X127909570Y-72804800I-462J2990000D01*
G01*
%TO.C,D46*%
X159672400Y-114054800D02*
G75*
G03*
X159672400Y-114054800I-2500000J0D01*
G01*
X159732400Y-115599800D02*
X159732400Y-112509800D01*
X154182400Y-114055262D02*
G75*
G02*
X159732400Y-112509970I2990000J462D01*
G01*
X154182400Y-114054338D02*
G75*
G03*
X159732400Y-115599630I2990000J-462D01*
G01*
%TO.C,D47*%
X159784400Y-47612800D02*
G75*
G03*
X159784400Y-47612800I-2500000J0D01*
G01*
X159844400Y-49157800D02*
X159844400Y-46067800D01*
X154294400Y-47613262D02*
G75*
G02*
X159844400Y-46067970I2990000J462D01*
G01*
X154294400Y-47612338D02*
G75*
G03*
X159844400Y-49157630I2990000J-462D01*
G01*
%TO.C,D48*%
X153772400Y-114064800D02*
G75*
G03*
X153772400Y-114064800I-2500000J0D01*
G01*
X153832400Y-115609800D02*
X153832400Y-112519800D01*
X148282400Y-114065262D02*
G75*
G02*
X153832400Y-112519970I2990000J462D01*
G01*
X148282400Y-114064338D02*
G75*
G03*
X153832400Y-115609630I2990000J-462D01*
G01*
%TO.C,D49*%
X136678400Y-82043800D02*
X136678400Y-78953800D01*
X136618400Y-80498800D02*
G75*
G03*
X136618400Y-80498800I-2500000J0D01*
G01*
X131128400Y-80498338D02*
G75*
G03*
X136678400Y-82043630I2990000J-462D01*
G01*
X131128400Y-80499262D02*
G75*
G02*
X136678400Y-78953970I2990000J462D01*
G01*
%TO.C,D50*%
X153964400Y-47612800D02*
G75*
G03*
X153964400Y-47612800I-2500000J0D01*
G01*
X154024400Y-49157800D02*
X154024400Y-46067800D01*
X148474400Y-47613262D02*
G75*
G02*
X154024400Y-46067970I2990000J462D01*
G01*
X148474400Y-47612338D02*
G75*
G03*
X154024400Y-49157630I2990000J-462D01*
G01*
%TO.C,D51*%
X142428400Y-82043800D02*
X142428400Y-78953800D01*
X142368400Y-80498800D02*
G75*
G03*
X142368400Y-80498800I-2500000J0D01*
G01*
X136878400Y-80498338D02*
G75*
G03*
X142428400Y-82043630I2990000J-462D01*
G01*
X136878400Y-80499262D02*
G75*
G02*
X142428400Y-78953970I2990000J462D01*
G01*
%TO.C,D52*%
X147992400Y-114064800D02*
G75*
G03*
X147992400Y-114064800I-2500000J0D01*
G01*
X148052400Y-115609800D02*
X148052400Y-112519800D01*
X142502400Y-114065262D02*
G75*
G02*
X148052400Y-112519970I2990000J462D01*
G01*
X142502400Y-114064338D02*
G75*
G03*
X148052400Y-115609630I2990000J-462D01*
G01*
%TO.C,D53*%
X148194400Y-49167800D02*
X148194400Y-46077800D01*
X148134400Y-47622800D02*
G75*
G03*
X148134400Y-47622800I-2500000J0D01*
G01*
X142644400Y-47622338D02*
G75*
G03*
X148194400Y-49167630I2990000J-462D01*
G01*
X142644400Y-47623262D02*
G75*
G02*
X148194400Y-46077970I2990000J462D01*
G01*
%TO.C,D54*%
X148228400Y-80498800D02*
G75*
G03*
X148228400Y-80498800I-2500000J0D01*
G01*
X148288400Y-82043800D02*
X148288400Y-78953800D01*
X142738400Y-80499262D02*
G75*
G02*
X148288400Y-78953970I2990000J462D01*
G01*
X142738400Y-80498338D02*
G75*
G03*
X148288400Y-82043630I2990000J-462D01*
G01*
%TO.C,D55*%
X142192400Y-115609800D02*
X142192400Y-112519800D01*
X142132400Y-114064800D02*
G75*
G03*
X142132400Y-114064800I-2500000J0D01*
G01*
X136642400Y-114064338D02*
G75*
G03*
X142192400Y-115609630I2990000J-462D01*
G01*
X136642400Y-114065262D02*
G75*
G02*
X142192400Y-112519970I2990000J462D01*
G01*
%TO.C,D56*%
X142364400Y-49167800D02*
X142364400Y-46077800D01*
X142304400Y-47622800D02*
G75*
G03*
X142304400Y-47622800I-2500000J0D01*
G01*
X136814400Y-47622338D02*
G75*
G03*
X142364400Y-49167630I2990000J-462D01*
G01*
X136814400Y-47623262D02*
G75*
G02*
X142364400Y-46077970I2990000J462D01*
G01*
%TO.C,D57*%
X136382400Y-115609800D02*
X136382400Y-112519800D01*
X136322400Y-114064800D02*
G75*
G03*
X136322400Y-114064800I-2500000J0D01*
G01*
X130832400Y-114064338D02*
G75*
G03*
X136382400Y-115609630I2990000J-462D01*
G01*
X130832400Y-114065262D02*
G75*
G02*
X136382400Y-112519970I2990000J462D01*
G01*
%TO.C,D58*%
X154068400Y-80518800D02*
G75*
G03*
X154068400Y-80518800I-2500000J0D01*
G01*
X154128400Y-82063800D02*
X154128400Y-78973800D01*
X148578400Y-80519262D02*
G75*
G02*
X154128400Y-78973970I2990000J462D01*
G01*
X148578400Y-80518338D02*
G75*
G03*
X154128400Y-82063630I2990000J-462D01*
G01*
%TO.C,D59*%
X136554400Y-49167800D02*
X136554400Y-46077800D01*
X136494400Y-47622800D02*
G75*
G03*
X136494400Y-47622800I-2500000J0D01*
G01*
X131004400Y-47622338D02*
G75*
G03*
X136554400Y-49167630I2990000J-462D01*
G01*
X131004400Y-47623262D02*
G75*
G02*
X136554400Y-46077970I2990000J462D01*
G01*
%TO.C,D60*%
X159858400Y-80528800D02*
G75*
G03*
X159858400Y-80528800I-2500000J0D01*
G01*
X159918400Y-82073800D02*
X159918400Y-78983800D01*
X154368400Y-80529262D02*
G75*
G02*
X159918400Y-78983970I2990000J462D01*
G01*
X154368400Y-80528338D02*
G75*
G03*
X159918400Y-82073630I2990000J-462D01*
G01*
%TO.C,D61*%
X160181400Y-111506800D02*
X163271400Y-111506800D01*
X164226400Y-108946800D02*
G75*
G03*
X164226400Y-108946800I-2500000J0D01*
G01*
X161726862Y-105956800D02*
G75*
G03*
X160181570Y-111506800I-462J-2990000D01*
G01*
X161725938Y-105956800D02*
G75*
G02*
X163271230Y-111506800I462J-2990000D01*
G01*
%TO.C,D62*%
X160181400Y-105636800D02*
X163271400Y-105636800D01*
X164226400Y-103076800D02*
G75*
G03*
X164226400Y-103076800I-2500000J0D01*
G01*
X161726862Y-100086800D02*
G75*
G03*
X160181570Y-105636800I-462J-2990000D01*
G01*
X161725938Y-100086800D02*
G75*
G02*
X163271230Y-105636800I462J-2990000D01*
G01*
%TO.C,D63*%
X160181400Y-99776800D02*
X163271400Y-99776800D01*
X164226400Y-97216800D02*
G75*
G03*
X164226400Y-97216800I-2500000J0D01*
G01*
X161726862Y-94226800D02*
G75*
G03*
X160181570Y-99776800I-462J-2990000D01*
G01*
X161725938Y-94226800D02*
G75*
G02*
X163271230Y-99776800I462J-2990000D01*
G01*
%TO.C,D64*%
X164226400Y-91366800D02*
G75*
G03*
X164226400Y-91366800I-2500000J0D01*
G01*
X160181400Y-93926800D02*
X163271400Y-93926800D01*
X161725938Y-88376800D02*
G75*
G02*
X163271230Y-93926800I462J-2990000D01*
G01*
X161726862Y-88376800D02*
G75*
G03*
X160181570Y-93926800I-462J-2990000D01*
G01*
%TO.C,D65*%
X164216400Y-85546800D02*
G75*
G03*
X164216400Y-85546800I-2500000J0D01*
G01*
X160171400Y-88106800D02*
X163261400Y-88106800D01*
X161715938Y-82556800D02*
G75*
G02*
X163261230Y-88106800I462J-2990000D01*
G01*
X161716862Y-82556800D02*
G75*
G03*
X160171570Y-88106800I-462J-2990000D01*
G01*
%TO.C,D66*%
X164654400Y-75464800D02*
G75*
G03*
X164654400Y-75464800I-2500000J0D01*
G01*
X163699400Y-72904800D02*
X160609400Y-72904800D01*
X162154862Y-78454800D02*
G75*
G02*
X160609570Y-72904800I-462J2990000D01*
G01*
X162153938Y-78454800D02*
G75*
G03*
X163699230Y-72904800I462J2990000D01*
G01*
%TO.C,D67*%
X164654400Y-69684800D02*
G75*
G03*
X164654400Y-69684800I-2500000J0D01*
G01*
X163699400Y-67124800D02*
X160609400Y-67124800D01*
X162154862Y-72674800D02*
G75*
G02*
X160609570Y-67124800I-462J2990000D01*
G01*
X162153938Y-72674800D02*
G75*
G03*
X163699230Y-67124800I462J2990000D01*
G01*
%TO.C,D68*%
X164654400Y-63804800D02*
G75*
G03*
X164654400Y-63804800I-2500000J0D01*
G01*
X163699400Y-61244800D02*
X160609400Y-61244800D01*
X162154862Y-66794800D02*
G75*
G02*
X160609570Y-61244800I-462J2990000D01*
G01*
X162153938Y-66794800D02*
G75*
G03*
X163699230Y-61244800I462J2990000D01*
G01*
%TO.C,D69*%
X163699400Y-55454800D02*
X160609400Y-55454800D01*
X164654400Y-58014800D02*
G75*
G03*
X164654400Y-58014800I-2500000J0D01*
G01*
X162153938Y-61004800D02*
G75*
G03*
X163699230Y-55454800I462J2990000D01*
G01*
X162154862Y-61004800D02*
G75*
G02*
X160609570Y-55454800I-462J2990000D01*
G01*
%TO.C,D70*%
X163689400Y-49574800D02*
X160599400Y-49574800D01*
X164644400Y-52134800D02*
G75*
G03*
X164644400Y-52134800I-2500000J0D01*
G01*
X162143938Y-55124800D02*
G75*
G03*
X163689230Y-49574800I462J2990000D01*
G01*
X162144862Y-55124800D02*
G75*
G02*
X160599570Y-49574800I-462J2990000D01*
G01*
%TO.C,R8*%
X121216400Y-87384800D02*
X120446400Y-87384800D01*
X113136400Y-87384800D02*
X113906400Y-87384800D01*
X120446400Y-86014800D02*
X113906400Y-86014800D01*
X120446400Y-88754800D02*
X120446400Y-86014800D01*
X113906400Y-88754800D02*
X120446400Y-88754800D01*
X113906400Y-86014800D02*
X113906400Y-88754800D01*
%TO.C,R9*%
X121224400Y-74014800D02*
X120454400Y-74014800D01*
X113144400Y-74014800D02*
X113914400Y-74014800D01*
X120454400Y-72644800D02*
X113914400Y-72644800D01*
X120454400Y-75384800D02*
X120454400Y-72644800D01*
X113914400Y-75384800D02*
X120454400Y-75384800D01*
X113914400Y-72644800D02*
X113914400Y-75384800D01*
%TO.C,R10*%
X121216400Y-80526800D02*
X120446400Y-80526800D01*
X113136400Y-80526800D02*
X113906400Y-80526800D01*
X120446400Y-79156800D02*
X113906400Y-79156800D01*
X120446400Y-81896800D02*
X120446400Y-79156800D01*
X113906400Y-81896800D02*
X120446400Y-81896800D01*
X113906400Y-79156800D02*
X113906400Y-81896800D01*
%TO.C,R11*%
X113906400Y-89316800D02*
X113906400Y-92056800D01*
X113906400Y-92056800D02*
X120446400Y-92056800D01*
X120446400Y-92056800D02*
X120446400Y-89316800D01*
X120446400Y-89316800D02*
X113906400Y-89316800D01*
X113136400Y-90686800D02*
X113906400Y-90686800D01*
X121216400Y-90686800D02*
X120446400Y-90686800D01*
%TO.C,R12*%
X121248400Y-69830800D02*
X120478400Y-69830800D01*
X113168400Y-69830800D02*
X113938400Y-69830800D01*
X120478400Y-68460800D02*
X113938400Y-68460800D01*
X120478400Y-71200800D02*
X120478400Y-68460800D01*
X113938400Y-71200800D02*
X120478400Y-71200800D01*
X113938400Y-68460800D02*
X113938400Y-71200800D01*
%TO.C,R13*%
X113906400Y-82458800D02*
X113906400Y-85198800D01*
X113906400Y-85198800D02*
X120446400Y-85198800D01*
X120446400Y-85198800D02*
X120446400Y-82458800D01*
X120446400Y-82458800D02*
X113906400Y-82458800D01*
X113136400Y-83828800D02*
X113906400Y-83828800D01*
X121216400Y-83828800D02*
X120446400Y-83828800D01*
%TO.C,R14*%
X113906400Y-75854800D02*
X113906400Y-78594800D01*
X113906400Y-78594800D02*
X120446400Y-78594800D01*
X120446400Y-78594800D02*
X120446400Y-75854800D01*
X120446400Y-75854800D02*
X113906400Y-75854800D01*
X113136400Y-77224800D02*
X113906400Y-77224800D01*
X121216400Y-77224800D02*
X120446400Y-77224800D01*
%TO.C,U1*%
X136264400Y-121510800D02*
X136264400Y-132010800D01*
X156824400Y-121510800D02*
X136264400Y-121510800D01*
X156824400Y-132010800D02*
X156824400Y-121510800D01*
X136264400Y-132010800D02*
X156824400Y-132010800D01*
X136324400Y-124510800D02*
X136324400Y-125760800D01*
X156764400Y-124510800D02*
X136324400Y-124510800D01*
X156764400Y-129010800D02*
X156764400Y-124510800D01*
X136324400Y-129010800D02*
X156764400Y-129010800D01*
X136324400Y-127760800D02*
X136324400Y-129010800D01*
X136324400Y-125760800D02*
G75*
G02*
X136324400Y-127760800I0J-1000000D01*
G01*
%TO.C,D71*%
X73764400Y-85364800D02*
G75*
G03*
X73764400Y-85364800I-2500000J0D01*
G01*
X69719400Y-87924800D02*
X72809400Y-87924800D01*
X71263938Y-82374800D02*
G75*
G02*
X72809230Y-87924800I462J-2990000D01*
G01*
X71264862Y-82374800D02*
G75*
G03*
X69719570Y-87924800I-462J-2990000D01*
G01*
%TO.C,D72*%
X69719400Y-93754800D02*
X72809400Y-93754800D01*
X73764400Y-91194800D02*
G75*
G03*
X73764400Y-91194800I-2500000J0D01*
G01*
X71264862Y-88204800D02*
G75*
G03*
X69719570Y-93754800I-462J-2990000D01*
G01*
X71263938Y-88204800D02*
G75*
G02*
X72809230Y-93754800I462J-2990000D01*
G01*
%TO.C,D73*%
X69729400Y-99544800D02*
X72819400Y-99544800D01*
X73774400Y-96984800D02*
G75*
G03*
X73774400Y-96984800I-2500000J0D01*
G01*
X71274862Y-93994800D02*
G75*
G03*
X69729570Y-99544800I-462J-2990000D01*
G01*
X71273938Y-93994800D02*
G75*
G02*
X72819230Y-99544800I462J-2990000D01*
G01*
%TO.C,D74*%
X73774400Y-102774800D02*
G75*
G03*
X73774400Y-102774800I-2500000J0D01*
G01*
X69729400Y-105334800D02*
X72819400Y-105334800D01*
X71273938Y-99784800D02*
G75*
G02*
X72819230Y-105334800I462J-2990000D01*
G01*
X71274862Y-99784800D02*
G75*
G03*
X69729570Y-105334800I-462J-2990000D01*
G01*
%TO.C,D75*%
X69719400Y-111252800D02*
X72809400Y-111252800D01*
X73764400Y-108692800D02*
G75*
G03*
X73764400Y-108692800I-2500000J0D01*
G01*
X71264862Y-105702800D02*
G75*
G03*
X69719570Y-111252800I-462J-2990000D01*
G01*
X71263938Y-105702800D02*
G75*
G02*
X72809230Y-111252800I462J-2990000D01*
G01*
%TO.C,D76*%
X73754400Y-51534800D02*
G75*
G03*
X73754400Y-51534800I-2500000J0D01*
G01*
X72799400Y-48974800D02*
X69709400Y-48974800D01*
X71254862Y-54524800D02*
G75*
G02*
X69709570Y-48974800I-462J2990000D01*
G01*
X71253938Y-54524800D02*
G75*
G03*
X72799230Y-48974800I462J2990000D01*
G01*
%TO.C,D77*%
X73744400Y-57364800D02*
G75*
G03*
X73744400Y-57364800I-2500000J0D01*
G01*
X72789400Y-54804800D02*
X69699400Y-54804800D01*
X71244862Y-60354800D02*
G75*
G02*
X69699570Y-54804800I-462J2990000D01*
G01*
X71243938Y-60354800D02*
G75*
G03*
X72789230Y-54804800I462J2990000D01*
G01*
%TO.C,D78*%
X73734400Y-63194800D02*
G75*
G03*
X73734400Y-63194800I-2500000J0D01*
G01*
X72779400Y-60634800D02*
X69689400Y-60634800D01*
X71234862Y-66184800D02*
G75*
G02*
X69689570Y-60634800I-462J2990000D01*
G01*
X71233938Y-66184800D02*
G75*
G03*
X72779230Y-60634800I462J2990000D01*
G01*
%TO.C,D79*%
X72779400Y-66444800D02*
X69689400Y-66444800D01*
X73734400Y-69004800D02*
G75*
G03*
X73734400Y-69004800I-2500000J0D01*
G01*
X71233938Y-71994800D02*
G75*
G03*
X72779230Y-66444800I462J2990000D01*
G01*
X71234862Y-71994800D02*
G75*
G02*
X69689570Y-66444800I-462J2990000D01*
G01*
%TO.C,D80*%
X72769400Y-72304800D02*
X69679400Y-72304800D01*
X73724400Y-74864800D02*
G75*
G03*
X73724400Y-74864800I-2500000J0D01*
G01*
X71223938Y-77854800D02*
G75*
G03*
X72769230Y-72304800I462J2990000D01*
G01*
X71224862Y-77854800D02*
G75*
G02*
X69679570Y-72304800I-462J2990000D01*
G01*
%TO.C,D81*%
X101564400Y-114538800D02*
G75*
G03*
X101564400Y-114538800I-2500000J0D01*
G01*
X101624400Y-116083800D02*
X101624400Y-112993800D01*
X96074400Y-114539262D02*
G75*
G02*
X101624400Y-112993970I2990000J462D01*
G01*
X96074400Y-114538338D02*
G75*
G03*
X101624400Y-116083630I2990000J-462D01*
G01*
%TO.C,D82*%
X101564400Y-47204800D02*
G75*
G03*
X101564400Y-47204800I-2500000J0D01*
G01*
X101624400Y-48749800D02*
X101624400Y-45659800D01*
X96074400Y-47205262D02*
G75*
G02*
X101624400Y-45659970I2990000J462D01*
G01*
X96074400Y-47204338D02*
G75*
G03*
X101624400Y-48749630I2990000J-462D01*
G01*
%TO.C,D83*%
X95774400Y-114548800D02*
G75*
G03*
X95774400Y-114548800I-2500000J0D01*
G01*
X95834400Y-116093800D02*
X95834400Y-113003800D01*
X90284400Y-114549262D02*
G75*
G02*
X95834400Y-113003970I2990000J462D01*
G01*
X90284400Y-114548338D02*
G75*
G03*
X95834400Y-116093630I2990000J-462D01*
G01*
%TO.C,D84*%
X78164400Y-81649800D02*
X78164400Y-78559800D01*
X78104400Y-80104800D02*
G75*
G03*
X78104400Y-80104800I-2500000J0D01*
G01*
X72614400Y-80104338D02*
G75*
G03*
X78164400Y-81649630I2990000J-462D01*
G01*
X72614400Y-80105262D02*
G75*
G02*
X78164400Y-78559970I2990000J462D01*
G01*
%TO.C,D85*%
X95754400Y-47194800D02*
G75*
G03*
X95754400Y-47194800I-2500000J0D01*
G01*
X95814400Y-48739800D02*
X95814400Y-45649800D01*
X90264400Y-47195262D02*
G75*
G02*
X95814400Y-45649970I2990000J462D01*
G01*
X90264400Y-47194338D02*
G75*
G03*
X95814400Y-48739630I2990000J-462D01*
G01*
%TO.C,D86*%
X83974400Y-81649800D02*
X83974400Y-78559800D01*
X83914400Y-80104800D02*
G75*
G03*
X83914400Y-80104800I-2500000J0D01*
G01*
X78424400Y-80104338D02*
G75*
G03*
X83974400Y-81649630I2990000J-462D01*
G01*
X78424400Y-80105262D02*
G75*
G02*
X83974400Y-78559970I2990000J462D01*
G01*
%TO.C,D87*%
X89984400Y-114528800D02*
G75*
G03*
X89984400Y-114528800I-2500000J0D01*
G01*
X90044400Y-116073800D02*
X90044400Y-112983800D01*
X84494400Y-114529262D02*
G75*
G02*
X90044400Y-112983970I2990000J462D01*
G01*
X84494400Y-114528338D02*
G75*
G03*
X90044400Y-116073630I2990000J-462D01*
G01*
%TO.C,D88*%
X89964400Y-48729800D02*
X89964400Y-45639800D01*
X89904400Y-47184800D02*
G75*
G03*
X89904400Y-47184800I-2500000J0D01*
G01*
X84414400Y-47184338D02*
G75*
G03*
X89964400Y-48729630I2990000J-462D01*
G01*
X84414400Y-47185262D02*
G75*
G02*
X89964400Y-45639970I2990000J462D01*
G01*
%TO.C,D89*%
X89714400Y-80104800D02*
G75*
G03*
X89714400Y-80104800I-2500000J0D01*
G01*
X89774400Y-81649800D02*
X89774400Y-78559800D01*
X84224400Y-80105262D02*
G75*
G02*
X89774400Y-78559970I2990000J462D01*
G01*
X84224400Y-80104338D02*
G75*
G03*
X89774400Y-81649630I2990000J-462D01*
G01*
%TO.C,D90*%
X84224400Y-116063800D02*
X84224400Y-112973800D01*
X84164400Y-114518800D02*
G75*
G03*
X84164400Y-114518800I-2500000J0D01*
G01*
X78674400Y-114518338D02*
G75*
G03*
X84224400Y-116063630I2990000J-462D01*
G01*
X78674400Y-114519262D02*
G75*
G02*
X84224400Y-112973970I2990000J462D01*
G01*
%TO.C,D91*%
X84164400Y-48729800D02*
X84164400Y-45639800D01*
X84104400Y-47184800D02*
G75*
G03*
X84104400Y-47184800I-2500000J0D01*
G01*
X78614400Y-47184338D02*
G75*
G03*
X84164400Y-48729630I2990000J-462D01*
G01*
X78614400Y-47185262D02*
G75*
G02*
X84164400Y-45639970I2990000J462D01*
G01*
%TO.C,D92*%
X78414400Y-116053800D02*
X78414400Y-112963800D01*
X78354400Y-114508800D02*
G75*
G03*
X78354400Y-114508800I-2500000J0D01*
G01*
X72864400Y-114508338D02*
G75*
G03*
X78414400Y-116053630I2990000J-462D01*
G01*
X72864400Y-114509262D02*
G75*
G02*
X78414400Y-112963970I2990000J462D01*
G01*
%TO.C,D93*%
X95564400Y-80104800D02*
G75*
G03*
X95564400Y-80104800I-2500000J0D01*
G01*
X95624400Y-81649800D02*
X95624400Y-78559800D01*
X90074400Y-80105262D02*
G75*
G02*
X95624400Y-78559970I2990000J462D01*
G01*
X90074400Y-80104338D02*
G75*
G03*
X95624400Y-81649630I2990000J-462D01*
G01*
%TO.C,D94*%
X78364400Y-48729800D02*
X78364400Y-45639800D01*
X78304400Y-47184800D02*
G75*
G03*
X78304400Y-47184800I-2500000J0D01*
G01*
X72814400Y-47184338D02*
G75*
G03*
X78364400Y-48729630I2990000J-462D01*
G01*
X72814400Y-47185262D02*
G75*
G02*
X78364400Y-45639970I2990000J462D01*
G01*
%TO.C,D95*%
X101354400Y-80094800D02*
G75*
G03*
X101354400Y-80094800I-2500000J0D01*
G01*
X101414400Y-81639800D02*
X101414400Y-78549800D01*
X95864400Y-80095262D02*
G75*
G02*
X101414400Y-78549970I2990000J462D01*
G01*
X95864400Y-80094338D02*
G75*
G03*
X101414400Y-81639630I2990000J-462D01*
G01*
%TO.C,D96*%
X102201400Y-111252800D02*
X105291400Y-111252800D01*
X106246400Y-108692800D02*
G75*
G03*
X106246400Y-108692800I-2500000J0D01*
G01*
X103746862Y-105702800D02*
G75*
G03*
X102201570Y-111252800I-462J-2990000D01*
G01*
X103745938Y-105702800D02*
G75*
G02*
X105291230Y-111252800I462J-2990000D01*
G01*
%TO.C,D97*%
X102169400Y-105374800D02*
X105259400Y-105374800D01*
X106214400Y-102814800D02*
G75*
G03*
X106214400Y-102814800I-2500000J0D01*
G01*
X103714862Y-99824800D02*
G75*
G03*
X102169570Y-105374800I-462J-2990000D01*
G01*
X103713938Y-99824800D02*
G75*
G02*
X105259230Y-105374800I462J-2990000D01*
G01*
%TO.C,D98*%
X102179400Y-99554800D02*
X105269400Y-99554800D01*
X106224400Y-96994800D02*
G75*
G03*
X106224400Y-96994800I-2500000J0D01*
G01*
X103724862Y-94004800D02*
G75*
G03*
X102179570Y-99554800I-462J-2990000D01*
G01*
X103723938Y-94004800D02*
G75*
G02*
X105269230Y-99554800I462J-2990000D01*
G01*
%TO.C,D99*%
X106224400Y-91194800D02*
G75*
G03*
X106224400Y-91194800I-2500000J0D01*
G01*
X102179400Y-93754800D02*
X105269400Y-93754800D01*
X103723938Y-88204800D02*
G75*
G02*
X105269230Y-93754800I462J-2990000D01*
G01*
X103724862Y-88204800D02*
G75*
G03*
X102179570Y-93754800I-462J-2990000D01*
G01*
%TO.C,D100*%
X106224400Y-85404800D02*
G75*
G03*
X106224400Y-85404800I-2500000J0D01*
G01*
X102179400Y-87964800D02*
X105269400Y-87964800D01*
X103723938Y-82414800D02*
G75*
G02*
X105269230Y-87964800I462J-2990000D01*
G01*
X103724862Y-82414800D02*
G75*
G03*
X102179570Y-87964800I-462J-2990000D01*
G01*
%TO.C,D101*%
X106458400Y-75052800D02*
G75*
G03*
X106458400Y-75052800I-2500000J0D01*
G01*
X105503400Y-72492800D02*
X102413400Y-72492800D01*
X103958862Y-78042800D02*
G75*
G02*
X102413570Y-72492800I-462J2990000D01*
G01*
X103957938Y-78042800D02*
G75*
G03*
X105503230Y-72492800I462J2990000D01*
G01*
%TO.C,D102*%
X106458400Y-69282800D02*
G75*
G03*
X106458400Y-69282800I-2500000J0D01*
G01*
X105503400Y-66722800D02*
X102413400Y-66722800D01*
X103958862Y-72272800D02*
G75*
G02*
X102413570Y-66722800I-462J2990000D01*
G01*
X103957938Y-72272800D02*
G75*
G03*
X105503230Y-66722800I462J2990000D01*
G01*
%TO.C,D103*%
X105503400Y-60852800D02*
X102413400Y-60852800D01*
X106458400Y-63412800D02*
G75*
G03*
X106458400Y-63412800I-2500000J0D01*
G01*
X103957938Y-66402800D02*
G75*
G03*
X105503230Y-60852800I462J2990000D01*
G01*
X103958862Y-66402800D02*
G75*
G02*
X102413570Y-60852800I-462J2990000D01*
G01*
%TO.C,D104*%
X105493400Y-55002800D02*
X102403400Y-55002800D01*
X106448400Y-57562800D02*
G75*
G03*
X106448400Y-57562800I-2500000J0D01*
G01*
X103947938Y-60552800D02*
G75*
G03*
X105493230Y-55002800I462J2990000D01*
G01*
X103948862Y-60552800D02*
G75*
G02*
X102403570Y-55002800I-462J2990000D01*
G01*
%TO.C,D105*%
X105503400Y-49202800D02*
X102413400Y-49202800D01*
X106458400Y-51762800D02*
G75*
G03*
X106458400Y-51762800I-2500000J0D01*
G01*
X103957938Y-54752800D02*
G75*
G03*
X105503230Y-49202800I462J2990000D01*
G01*
X103958862Y-54752800D02*
G75*
G02*
X102413570Y-49202800I-462J2990000D01*
G01*
%TO.C,J1*%
X163382000Y-146244000D02*
X163382000Y-147574000D01*
X162052000Y-146244000D02*
X163382000Y-146244000D01*
X160782000Y-146244000D02*
X160782000Y-148904000D01*
X160782000Y-148904000D02*
X125162000Y-148904000D01*
X160782000Y-146244000D02*
X125162000Y-146244000D01*
X125162000Y-146244000D02*
X125162000Y-148904000D01*
%TO.C,U2*%
X76488400Y-121432800D02*
X76488400Y-131932800D01*
X97048400Y-121432800D02*
X76488400Y-121432800D01*
X97048400Y-131932800D02*
X97048400Y-121432800D01*
X76488400Y-131932800D02*
X97048400Y-131932800D01*
X76548400Y-124432800D02*
X76548400Y-125682800D01*
X96988400Y-124432800D02*
X76548400Y-124432800D01*
X96988400Y-128932800D02*
X96988400Y-124432800D01*
X76548400Y-128932800D02*
X96988400Y-128932800D01*
X76548400Y-127682800D02*
X76548400Y-128932800D01*
X76548400Y-125682800D02*
G75*
G02*
X76548400Y-127682800I0J-1000000D01*
G01*
%TO.C,R17*%
D11*
X80154542Y-77930180D02*
X79821209Y-77453990D01*
X79583114Y-77930180D02*
X79583114Y-76930180D01*
X79964066Y-76930180D01*
X80059304Y-76977800D01*
X80106923Y-77025419D01*
X80154542Y-77120657D01*
X80154542Y-77263514D01*
X80106923Y-77358752D01*
X80059304Y-77406371D01*
X79964066Y-77453990D01*
X79583114Y-77453990D01*
X81106923Y-77930180D02*
X80535495Y-77930180D01*
X80821209Y-77930180D02*
X80821209Y-76930180D01*
X80725971Y-77073038D01*
X80630733Y-77168276D01*
X80535495Y-77215895D01*
X81440257Y-76930180D02*
X82106923Y-76930180D01*
X81678352Y-77930180D01*
%TO.C,R18*%
X80091042Y-110061180D02*
X79757709Y-109584990D01*
X79519614Y-110061180D02*
X79519614Y-109061180D01*
X79900566Y-109061180D01*
X79995804Y-109108800D01*
X80043423Y-109156419D01*
X80091042Y-109251657D01*
X80091042Y-109394514D01*
X80043423Y-109489752D01*
X79995804Y-109537371D01*
X79900566Y-109584990D01*
X79519614Y-109584990D01*
X81043423Y-110061180D02*
X80471995Y-110061180D01*
X80757709Y-110061180D02*
X80757709Y-109061180D01*
X80662471Y-109204038D01*
X80567233Y-109299276D01*
X80471995Y-109346895D01*
X81614852Y-109489752D02*
X81519614Y-109442133D01*
X81471995Y-109394514D01*
X81424376Y-109299276D01*
X81424376Y-109251657D01*
X81471995Y-109156419D01*
X81519614Y-109108800D01*
X81614852Y-109061180D01*
X81805328Y-109061180D01*
X81900566Y-109108800D01*
X81948185Y-109156419D01*
X81995804Y-109251657D01*
X81995804Y-109299276D01*
X81948185Y-109394514D01*
X81900566Y-109442133D01*
X81805328Y-109489752D01*
X81614852Y-109489752D01*
X81519614Y-109537371D01*
X81471995Y-109584990D01*
X81424376Y-109680228D01*
X81424376Y-109870704D01*
X81471995Y-109965942D01*
X81519614Y-110013561D01*
X81614852Y-110061180D01*
X81805328Y-110061180D01*
X81900566Y-110013561D01*
X81948185Y-109965942D01*
X81995804Y-109870704D01*
X81995804Y-109680228D01*
X81948185Y-109584990D01*
X81900566Y-109537371D01*
X81805328Y-109489752D01*
%TO.C,R16*%
X80154542Y-74628180D02*
X79821209Y-74151990D01*
X79583114Y-74628180D02*
X79583114Y-73628180D01*
X79964066Y-73628180D01*
X80059304Y-73675800D01*
X80106923Y-73723419D01*
X80154542Y-73818657D01*
X80154542Y-73961514D01*
X80106923Y-74056752D01*
X80059304Y-74104371D01*
X79964066Y-74151990D01*
X79583114Y-74151990D01*
X81106923Y-74628180D02*
X80535495Y-74628180D01*
X80821209Y-74628180D02*
X80821209Y-73628180D01*
X80725971Y-73771038D01*
X80630733Y-73866276D01*
X80535495Y-73913895D01*
X81964066Y-73628180D02*
X81773590Y-73628180D01*
X81678352Y-73675800D01*
X81630733Y-73723419D01*
X81535495Y-73866276D01*
X81487876Y-74056752D01*
X81487876Y-74437704D01*
X81535495Y-74532942D01*
X81583114Y-74580561D01*
X81678352Y-74628180D01*
X81868828Y-74628180D01*
X81964066Y-74580561D01*
X82011685Y-74532942D01*
X82059304Y-74437704D01*
X82059304Y-74199609D01*
X82011685Y-74104371D01*
X81964066Y-74056752D01*
X81868828Y-74009133D01*
X81678352Y-74009133D01*
X81583114Y-74056752D01*
X81535495Y-74104371D01*
X81487876Y-74199609D01*
%TO.C,R20*%
X93235542Y-83223180D02*
X92902209Y-82746990D01*
X92664114Y-83223180D02*
X92664114Y-82223180D01*
X93045066Y-82223180D01*
X93140304Y-82270800D01*
X93187923Y-82318419D01*
X93235542Y-82413657D01*
X93235542Y-82556514D01*
X93187923Y-82651752D01*
X93140304Y-82699371D01*
X93045066Y-82746990D01*
X92664114Y-82746990D01*
X93616495Y-82318419D02*
X93664114Y-82270800D01*
X93759352Y-82223180D01*
X93997447Y-82223180D01*
X94092685Y-82270800D01*
X94140304Y-82318419D01*
X94187923Y-82413657D01*
X94187923Y-82508895D01*
X94140304Y-82651752D01*
X93568876Y-83223180D01*
X94187923Y-83223180D01*
X94806971Y-82223180D02*
X94902209Y-82223180D01*
X94997447Y-82270800D01*
X95045066Y-82318419D01*
X95092685Y-82413657D01*
X95140304Y-82604133D01*
X95140304Y-82842228D01*
X95092685Y-83032704D01*
X95045066Y-83127942D01*
X94997447Y-83175561D01*
X94902209Y-83223180D01*
X94806971Y-83223180D01*
X94711733Y-83175561D01*
X94664114Y-83127942D01*
X94616495Y-83032704D01*
X94568876Y-82842228D01*
X94568876Y-82604133D01*
X94616495Y-82413657D01*
X94664114Y-82318419D01*
X94711733Y-82270800D01*
X94806971Y-82223180D01*
%TO.C,R21*%
X93680042Y-73126680D02*
X93346709Y-72650490D01*
X93108614Y-73126680D02*
X93108614Y-72126680D01*
X93489566Y-72126680D01*
X93584804Y-72174300D01*
X93632423Y-72221919D01*
X93680042Y-72317157D01*
X93680042Y-72460014D01*
X93632423Y-72555252D01*
X93584804Y-72602871D01*
X93489566Y-72650490D01*
X93108614Y-72650490D01*
X94060995Y-72221919D02*
X94108614Y-72174300D01*
X94203852Y-72126680D01*
X94441947Y-72126680D01*
X94537185Y-72174300D01*
X94584804Y-72221919D01*
X94632423Y-72317157D01*
X94632423Y-72412395D01*
X94584804Y-72555252D01*
X94013376Y-73126680D01*
X94632423Y-73126680D01*
X95584804Y-73126680D02*
X95013376Y-73126680D01*
X95299090Y-73126680D02*
X95299090Y-72126680D01*
X95203852Y-72269538D01*
X95108614Y-72364776D01*
X95013376Y-72412395D01*
%TO.C,R15*%
X80281542Y-87899680D02*
X79948209Y-87423490D01*
X79710114Y-87899680D02*
X79710114Y-86899680D01*
X80091066Y-86899680D01*
X80186304Y-86947300D01*
X80233923Y-86994919D01*
X80281542Y-87090157D01*
X80281542Y-87233014D01*
X80233923Y-87328252D01*
X80186304Y-87375871D01*
X80091066Y-87423490D01*
X79710114Y-87423490D01*
X81233923Y-87899680D02*
X80662495Y-87899680D01*
X80948209Y-87899680D02*
X80948209Y-86899680D01*
X80852971Y-87042538D01*
X80757733Y-87137776D01*
X80662495Y-87185395D01*
X82138685Y-86899680D02*
X81662495Y-86899680D01*
X81614876Y-87375871D01*
X81662495Y-87328252D01*
X81757733Y-87280633D01*
X81995828Y-87280633D01*
X82091066Y-87328252D01*
X82138685Y-87375871D01*
X82186304Y-87471109D01*
X82186304Y-87709204D01*
X82138685Y-87804442D01*
X82091066Y-87852061D01*
X81995828Y-87899680D01*
X81757733Y-87899680D01*
X81662495Y-87852061D01*
X81614876Y-87804442D01*
%TO.C,R19*%
X80218042Y-55006680D02*
X79884709Y-54530490D01*
X79646614Y-55006680D02*
X79646614Y-54006680D01*
X80027566Y-54006680D01*
X80122804Y-54054300D01*
X80170423Y-54101919D01*
X80218042Y-54197157D01*
X80218042Y-54340014D01*
X80170423Y-54435252D01*
X80122804Y-54482871D01*
X80027566Y-54530490D01*
X79646614Y-54530490D01*
X81170423Y-55006680D02*
X80598995Y-55006680D01*
X80884709Y-55006680D02*
X80884709Y-54006680D01*
X80789471Y-54149538D01*
X80694233Y-54244776D01*
X80598995Y-54292395D01*
X81646614Y-55006680D02*
X81837090Y-55006680D01*
X81932328Y-54959061D01*
X81979947Y-54911442D01*
X82075185Y-54768585D01*
X82122804Y-54578109D01*
X82122804Y-54197157D01*
X82075185Y-54101919D01*
X82027566Y-54054300D01*
X81932328Y-54006680D01*
X81741852Y-54006680D01*
X81646614Y-54054300D01*
X81598995Y-54101919D01*
X81551376Y-54197157D01*
X81551376Y-54435252D01*
X81598995Y-54530490D01*
X81646614Y-54578109D01*
X81741852Y-54625728D01*
X81932328Y-54625728D01*
X82027566Y-54578109D01*
X82075185Y-54530490D01*
X82122804Y-54435252D01*
%TO.C,D1*%
X183242780Y-109942895D02*
X182242780Y-109942895D01*
X182242780Y-109704800D01*
X182290400Y-109561942D01*
X182385638Y-109466704D01*
X182480876Y-109419085D01*
X182671352Y-109371466D01*
X182814209Y-109371466D01*
X183004685Y-109419085D01*
X183099923Y-109466704D01*
X183195161Y-109561942D01*
X183242780Y-109704800D01*
X183242780Y-109942895D01*
X183242780Y-108419085D02*
X183242780Y-108990514D01*
X183242780Y-108704800D02*
X182242780Y-108704800D01*
X182385638Y-108800038D01*
X182480876Y-108895276D01*
X182528495Y-108990514D01*
%TO.C,D2*%
X215442780Y-109992895D02*
X214442780Y-109992895D01*
X214442780Y-109754800D01*
X214490400Y-109611942D01*
X214585638Y-109516704D01*
X214680876Y-109469085D01*
X214871352Y-109421466D01*
X215014209Y-109421466D01*
X215204685Y-109469085D01*
X215299923Y-109516704D01*
X215395161Y-109611942D01*
X215442780Y-109754800D01*
X215442780Y-109992895D01*
X214538019Y-109040514D02*
X214490400Y-108992895D01*
X214442780Y-108897657D01*
X214442780Y-108659561D01*
X214490400Y-108564323D01*
X214538019Y-108516704D01*
X214633257Y-108469085D01*
X214728495Y-108469085D01*
X214871352Y-108516704D01*
X215442780Y-109088133D01*
X215442780Y-108469085D01*
%TO.C,D3*%
X213548304Y-119093180D02*
X213548304Y-118093180D01*
X213786400Y-118093180D01*
X213929257Y-118140800D01*
X214024495Y-118236038D01*
X214072114Y-118331276D01*
X214119733Y-118521752D01*
X214119733Y-118664609D01*
X214072114Y-118855085D01*
X214024495Y-118950323D01*
X213929257Y-119045561D01*
X213786400Y-119093180D01*
X213548304Y-119093180D01*
X214453066Y-118093180D02*
X215072114Y-118093180D01*
X214738780Y-118474133D01*
X214881638Y-118474133D01*
X214976876Y-118521752D01*
X215024495Y-118569371D01*
X215072114Y-118664609D01*
X215072114Y-118902704D01*
X215024495Y-118997942D01*
X214976876Y-119045561D01*
X214881638Y-119093180D01*
X214595923Y-119093180D01*
X214500685Y-119045561D01*
X214453066Y-118997942D01*
%TO.C,D4*%
X190926780Y-52700895D02*
X189926780Y-52700895D01*
X189926780Y-52462800D01*
X189974400Y-52319942D01*
X190069638Y-52224704D01*
X190164876Y-52177085D01*
X190355352Y-52129466D01*
X190498209Y-52129466D01*
X190688685Y-52177085D01*
X190783923Y-52224704D01*
X190879161Y-52319942D01*
X190926780Y-52462800D01*
X190926780Y-52700895D01*
X190260114Y-51272323D02*
X190926780Y-51272323D01*
X189879161Y-51510419D02*
X190593447Y-51748514D01*
X190593447Y-51129466D01*
%TO.C,D5*%
X223262780Y-52502895D02*
X222262780Y-52502895D01*
X222262780Y-52264800D01*
X222310400Y-52121942D01*
X222405638Y-52026704D01*
X222500876Y-51979085D01*
X222691352Y-51931466D01*
X222834209Y-51931466D01*
X223024685Y-51979085D01*
X223119923Y-52026704D01*
X223215161Y-52121942D01*
X223262780Y-52264800D01*
X223262780Y-52502895D01*
X222262780Y-51026704D02*
X222262780Y-51502895D01*
X222738971Y-51550514D01*
X222691352Y-51502895D01*
X222643733Y-51407657D01*
X222643733Y-51169561D01*
X222691352Y-51074323D01*
X222738971Y-51026704D01*
X222834209Y-50979085D01*
X223072304Y-50979085D01*
X223167542Y-51026704D01*
X223215161Y-51074323D01*
X223262780Y-51169561D01*
X223262780Y-51407657D01*
X223215161Y-51502895D01*
X223167542Y-51550514D01*
%TO.C,D6*%
X213792304Y-84881180D02*
X213792304Y-83881180D01*
X214030400Y-83881180D01*
X214173257Y-83928800D01*
X214268495Y-84024038D01*
X214316114Y-84119276D01*
X214363733Y-84309752D01*
X214363733Y-84452609D01*
X214316114Y-84643085D01*
X214268495Y-84738323D01*
X214173257Y-84833561D01*
X214030400Y-84881180D01*
X213792304Y-84881180D01*
X215220876Y-83881180D02*
X215030400Y-83881180D01*
X214935161Y-83928800D01*
X214887542Y-83976419D01*
X214792304Y-84119276D01*
X214744685Y-84309752D01*
X214744685Y-84690704D01*
X214792304Y-84785942D01*
X214839923Y-84833561D01*
X214935161Y-84881180D01*
X215125638Y-84881180D01*
X215220876Y-84833561D01*
X215268495Y-84785942D01*
X215316114Y-84690704D01*
X215316114Y-84452609D01*
X215268495Y-84357371D01*
X215220876Y-84309752D01*
X215125638Y-84262133D01*
X214935161Y-84262133D01*
X214839923Y-84309752D01*
X214792304Y-84357371D01*
X214744685Y-84452609D01*
%TO.C,D7*%
X213696304Y-51705180D02*
X213696304Y-50705180D01*
X213934400Y-50705180D01*
X214077257Y-50752800D01*
X214172495Y-50848038D01*
X214220114Y-50943276D01*
X214267733Y-51133752D01*
X214267733Y-51276609D01*
X214220114Y-51467085D01*
X214172495Y-51562323D01*
X214077257Y-51657561D01*
X213934400Y-51705180D01*
X213696304Y-51705180D01*
X214601066Y-50705180D02*
X215267733Y-50705180D01*
X214839161Y-51705180D01*
%TO.C,D8*%
X183242780Y-104194895D02*
X182242780Y-104194895D01*
X182242780Y-103956800D01*
X182290400Y-103813942D01*
X182385638Y-103718704D01*
X182480876Y-103671085D01*
X182671352Y-103623466D01*
X182814209Y-103623466D01*
X183004685Y-103671085D01*
X183099923Y-103718704D01*
X183195161Y-103813942D01*
X183242780Y-103956800D01*
X183242780Y-104194895D01*
X182671352Y-103052038D02*
X182623733Y-103147276D01*
X182576114Y-103194895D01*
X182480876Y-103242514D01*
X182433257Y-103242514D01*
X182338019Y-103194895D01*
X182290400Y-103147276D01*
X182242780Y-103052038D01*
X182242780Y-102861561D01*
X182290400Y-102766323D01*
X182338019Y-102718704D01*
X182433257Y-102671085D01*
X182480876Y-102671085D01*
X182576114Y-102718704D01*
X182623733Y-102766323D01*
X182671352Y-102861561D01*
X182671352Y-103052038D01*
X182718971Y-103147276D01*
X182766590Y-103194895D01*
X182861828Y-103242514D01*
X183052304Y-103242514D01*
X183147542Y-103194895D01*
X183195161Y-103147276D01*
X183242780Y-103052038D01*
X183242780Y-102861561D01*
X183195161Y-102766323D01*
X183147542Y-102718704D01*
X183052304Y-102671085D01*
X182861828Y-102671085D01*
X182766590Y-102718704D01*
X182718971Y-102766323D01*
X182671352Y-102861561D01*
%TO.C,D9*%
X215452780Y-104234895D02*
X214452780Y-104234895D01*
X214452780Y-103996800D01*
X214500400Y-103853942D01*
X214595638Y-103758704D01*
X214690876Y-103711085D01*
X214881352Y-103663466D01*
X215024209Y-103663466D01*
X215214685Y-103711085D01*
X215309923Y-103758704D01*
X215405161Y-103853942D01*
X215452780Y-103996800D01*
X215452780Y-104234895D01*
X215452780Y-103187276D02*
X215452780Y-102996800D01*
X215405161Y-102901561D01*
X215357542Y-102853942D01*
X215214685Y-102758704D01*
X215024209Y-102711085D01*
X214643257Y-102711085D01*
X214548019Y-102758704D01*
X214500400Y-102806323D01*
X214452780Y-102901561D01*
X214452780Y-103092038D01*
X214500400Y-103187276D01*
X214548019Y-103234895D01*
X214643257Y-103282514D01*
X214881352Y-103282514D01*
X214976590Y-103234895D01*
X215024209Y-103187276D01*
X215071828Y-103092038D01*
X215071828Y-102901561D01*
X215024209Y-102806323D01*
X214976590Y-102758704D01*
X214881352Y-102711085D01*
%TO.C,D10*%
X207232114Y-119093180D02*
X207232114Y-118093180D01*
X207470209Y-118093180D01*
X207613066Y-118140800D01*
X207708304Y-118236038D01*
X207755923Y-118331276D01*
X207803542Y-118521752D01*
X207803542Y-118664609D01*
X207755923Y-118855085D01*
X207708304Y-118950323D01*
X207613066Y-119045561D01*
X207470209Y-119093180D01*
X207232114Y-119093180D01*
X208755923Y-119093180D02*
X208184495Y-119093180D01*
X208470209Y-119093180D02*
X208470209Y-118093180D01*
X208374971Y-118236038D01*
X208279733Y-118331276D01*
X208184495Y-118378895D01*
X209374971Y-118093180D02*
X209470209Y-118093180D01*
X209565447Y-118140800D01*
X209613066Y-118188419D01*
X209660685Y-118283657D01*
X209708304Y-118474133D01*
X209708304Y-118712228D01*
X209660685Y-118902704D01*
X209613066Y-118997942D01*
X209565447Y-119045561D01*
X209470209Y-119093180D01*
X209374971Y-119093180D01*
X209279733Y-119045561D01*
X209232114Y-118997942D01*
X209184495Y-118902704D01*
X209136876Y-118712228D01*
X209136876Y-118474133D01*
X209184495Y-118283657D01*
X209232114Y-118188419D01*
X209279733Y-118140800D01*
X209374971Y-118093180D01*
%TO.C,D11*%
X190946780Y-58987085D02*
X189946780Y-58987085D01*
X189946780Y-58748990D01*
X189994400Y-58606133D01*
X190089638Y-58510895D01*
X190184876Y-58463276D01*
X190375352Y-58415657D01*
X190518209Y-58415657D01*
X190708685Y-58463276D01*
X190803923Y-58510895D01*
X190899161Y-58606133D01*
X190946780Y-58748990D01*
X190946780Y-58987085D01*
X190946780Y-57463276D02*
X190946780Y-58034704D01*
X190946780Y-57748990D02*
X189946780Y-57748990D01*
X190089638Y-57844228D01*
X190184876Y-57939466D01*
X190232495Y-58034704D01*
X190946780Y-56510895D02*
X190946780Y-57082323D01*
X190946780Y-56796609D02*
X189946780Y-56796609D01*
X190089638Y-56891847D01*
X190184876Y-56987085D01*
X190232495Y-57082323D01*
%TO.C,D12*%
X223262780Y-58799085D02*
X222262780Y-58799085D01*
X222262780Y-58560990D01*
X222310400Y-58418133D01*
X222405638Y-58322895D01*
X222500876Y-58275276D01*
X222691352Y-58227657D01*
X222834209Y-58227657D01*
X223024685Y-58275276D01*
X223119923Y-58322895D01*
X223215161Y-58418133D01*
X223262780Y-58560990D01*
X223262780Y-58799085D01*
X223262780Y-57275276D02*
X223262780Y-57846704D01*
X223262780Y-57560990D02*
X222262780Y-57560990D01*
X222405638Y-57656228D01*
X222500876Y-57751466D01*
X222548495Y-57846704D01*
X222358019Y-56894323D02*
X222310400Y-56846704D01*
X222262780Y-56751466D01*
X222262780Y-56513371D01*
X222310400Y-56418133D01*
X222358019Y-56370514D01*
X222453257Y-56322895D01*
X222548495Y-56322895D01*
X222691352Y-56370514D01*
X223262780Y-56941942D01*
X223262780Y-56322895D01*
%TO.C,D13*%
X207322114Y-84869180D02*
X207322114Y-83869180D01*
X207560209Y-83869180D01*
X207703066Y-83916800D01*
X207798304Y-84012038D01*
X207845923Y-84107276D01*
X207893542Y-84297752D01*
X207893542Y-84440609D01*
X207845923Y-84631085D01*
X207798304Y-84726323D01*
X207703066Y-84821561D01*
X207560209Y-84869180D01*
X207322114Y-84869180D01*
X208845923Y-84869180D02*
X208274495Y-84869180D01*
X208560209Y-84869180D02*
X208560209Y-83869180D01*
X208464971Y-84012038D01*
X208369733Y-84107276D01*
X208274495Y-84154895D01*
X209179257Y-83869180D02*
X209798304Y-83869180D01*
X209464971Y-84250133D01*
X209607828Y-84250133D01*
X209703066Y-84297752D01*
X209750685Y-84345371D01*
X209798304Y-84440609D01*
X209798304Y-84678704D01*
X209750685Y-84773942D01*
X209703066Y-84821561D01*
X209607828Y-84869180D01*
X209322114Y-84869180D01*
X209226876Y-84821561D01*
X209179257Y-84773942D01*
%TO.C,D14*%
X207400114Y-51695180D02*
X207400114Y-50695180D01*
X207638209Y-50695180D01*
X207781066Y-50742800D01*
X207876304Y-50838038D01*
X207923923Y-50933276D01*
X207971542Y-51123752D01*
X207971542Y-51266609D01*
X207923923Y-51457085D01*
X207876304Y-51552323D01*
X207781066Y-51647561D01*
X207638209Y-51695180D01*
X207400114Y-51695180D01*
X208923923Y-51695180D02*
X208352495Y-51695180D01*
X208638209Y-51695180D02*
X208638209Y-50695180D01*
X208542971Y-50838038D01*
X208447733Y-50933276D01*
X208352495Y-50980895D01*
X209781066Y-51028514D02*
X209781066Y-51695180D01*
X209542971Y-50647561D02*
X209304876Y-51361847D01*
X209923923Y-51361847D01*
%TO.C,D15*%
X183252780Y-98811085D02*
X182252780Y-98811085D01*
X182252780Y-98572990D01*
X182300400Y-98430133D01*
X182395638Y-98334895D01*
X182490876Y-98287276D01*
X182681352Y-98239657D01*
X182824209Y-98239657D01*
X183014685Y-98287276D01*
X183109923Y-98334895D01*
X183205161Y-98430133D01*
X183252780Y-98572990D01*
X183252780Y-98811085D01*
X183252780Y-97287276D02*
X183252780Y-97858704D01*
X183252780Y-97572990D02*
X182252780Y-97572990D01*
X182395638Y-97668228D01*
X182490876Y-97763466D01*
X182538495Y-97858704D01*
X182252780Y-96382514D02*
X182252780Y-96858704D01*
X182728971Y-96906323D01*
X182681352Y-96858704D01*
X182633733Y-96763466D01*
X182633733Y-96525371D01*
X182681352Y-96430133D01*
X182728971Y-96382514D01*
X182824209Y-96334895D01*
X183062304Y-96334895D01*
X183157542Y-96382514D01*
X183205161Y-96430133D01*
X183252780Y-96525371D01*
X183252780Y-96763466D01*
X183205161Y-96858704D01*
X183157542Y-96906323D01*
%TO.C,D16*%
X215442780Y-98911085D02*
X214442780Y-98911085D01*
X214442780Y-98672990D01*
X214490400Y-98530133D01*
X214585638Y-98434895D01*
X214680876Y-98387276D01*
X214871352Y-98339657D01*
X215014209Y-98339657D01*
X215204685Y-98387276D01*
X215299923Y-98434895D01*
X215395161Y-98530133D01*
X215442780Y-98672990D01*
X215442780Y-98911085D01*
X215442780Y-97387276D02*
X215442780Y-97958704D01*
X215442780Y-97672990D02*
X214442780Y-97672990D01*
X214585638Y-97768228D01*
X214680876Y-97863466D01*
X214728495Y-97958704D01*
X214442780Y-96530133D02*
X214442780Y-96720609D01*
X214490400Y-96815847D01*
X214538019Y-96863466D01*
X214680876Y-96958704D01*
X214871352Y-97006323D01*
X215252304Y-97006323D01*
X215347542Y-96958704D01*
X215395161Y-96911085D01*
X215442780Y-96815847D01*
X215442780Y-96625371D01*
X215395161Y-96530133D01*
X215347542Y-96482514D01*
X215252304Y-96434895D01*
X215014209Y-96434895D01*
X214918971Y-96482514D01*
X214871352Y-96530133D01*
X214823733Y-96625371D01*
X214823733Y-96815847D01*
X214871352Y-96911085D01*
X214918971Y-96958704D01*
X215014209Y-97006323D01*
%TO.C,D17*%
X201402114Y-119093180D02*
X201402114Y-118093180D01*
X201640209Y-118093180D01*
X201783066Y-118140800D01*
X201878304Y-118236038D01*
X201925923Y-118331276D01*
X201973542Y-118521752D01*
X201973542Y-118664609D01*
X201925923Y-118855085D01*
X201878304Y-118950323D01*
X201783066Y-119045561D01*
X201640209Y-119093180D01*
X201402114Y-119093180D01*
X202925923Y-119093180D02*
X202354495Y-119093180D01*
X202640209Y-119093180D02*
X202640209Y-118093180D01*
X202544971Y-118236038D01*
X202449733Y-118331276D01*
X202354495Y-118378895D01*
X203259257Y-118093180D02*
X203925923Y-118093180D01*
X203497352Y-119093180D01*
%TO.C,D18*%
X190946780Y-64777085D02*
X189946780Y-64777085D01*
X189946780Y-64538990D01*
X189994400Y-64396133D01*
X190089638Y-64300895D01*
X190184876Y-64253276D01*
X190375352Y-64205657D01*
X190518209Y-64205657D01*
X190708685Y-64253276D01*
X190803923Y-64300895D01*
X190899161Y-64396133D01*
X190946780Y-64538990D01*
X190946780Y-64777085D01*
X190946780Y-63253276D02*
X190946780Y-63824704D01*
X190946780Y-63538990D02*
X189946780Y-63538990D01*
X190089638Y-63634228D01*
X190184876Y-63729466D01*
X190232495Y-63824704D01*
X190375352Y-62681847D02*
X190327733Y-62777085D01*
X190280114Y-62824704D01*
X190184876Y-62872323D01*
X190137257Y-62872323D01*
X190042019Y-62824704D01*
X189994400Y-62777085D01*
X189946780Y-62681847D01*
X189946780Y-62491371D01*
X189994400Y-62396133D01*
X190042019Y-62348514D01*
X190137257Y-62300895D01*
X190184876Y-62300895D01*
X190280114Y-62348514D01*
X190327733Y-62396133D01*
X190375352Y-62491371D01*
X190375352Y-62681847D01*
X190422971Y-62777085D01*
X190470590Y-62824704D01*
X190565828Y-62872323D01*
X190756304Y-62872323D01*
X190851542Y-62824704D01*
X190899161Y-62777085D01*
X190946780Y-62681847D01*
X190946780Y-62491371D01*
X190899161Y-62396133D01*
X190851542Y-62348514D01*
X190756304Y-62300895D01*
X190565828Y-62300895D01*
X190470590Y-62348514D01*
X190422971Y-62396133D01*
X190375352Y-62491371D01*
%TO.C,D19*%
X223262780Y-64599085D02*
X222262780Y-64599085D01*
X222262780Y-64360990D01*
X222310400Y-64218133D01*
X222405638Y-64122895D01*
X222500876Y-64075276D01*
X222691352Y-64027657D01*
X222834209Y-64027657D01*
X223024685Y-64075276D01*
X223119923Y-64122895D01*
X223215161Y-64218133D01*
X223262780Y-64360990D01*
X223262780Y-64599085D01*
X223262780Y-63075276D02*
X223262780Y-63646704D01*
X223262780Y-63360990D02*
X222262780Y-63360990D01*
X222405638Y-63456228D01*
X222500876Y-63551466D01*
X222548495Y-63646704D01*
X223262780Y-62599085D02*
X223262780Y-62408609D01*
X223215161Y-62313371D01*
X223167542Y-62265752D01*
X223024685Y-62170514D01*
X222834209Y-62122895D01*
X222453257Y-62122895D01*
X222358019Y-62170514D01*
X222310400Y-62218133D01*
X222262780Y-62313371D01*
X222262780Y-62503847D01*
X222310400Y-62599085D01*
X222358019Y-62646704D01*
X222453257Y-62694323D01*
X222691352Y-62694323D01*
X222786590Y-62646704D01*
X222834209Y-62599085D01*
X222881828Y-62503847D01*
X222881828Y-62313371D01*
X222834209Y-62218133D01*
X222786590Y-62170514D01*
X222691352Y-62122895D01*
%TO.C,D20*%
X201472114Y-84869180D02*
X201472114Y-83869180D01*
X201710209Y-83869180D01*
X201853066Y-83916800D01*
X201948304Y-84012038D01*
X201995923Y-84107276D01*
X202043542Y-84297752D01*
X202043542Y-84440609D01*
X201995923Y-84631085D01*
X201948304Y-84726323D01*
X201853066Y-84821561D01*
X201710209Y-84869180D01*
X201472114Y-84869180D01*
X202424495Y-83964419D02*
X202472114Y-83916800D01*
X202567352Y-83869180D01*
X202805447Y-83869180D01*
X202900685Y-83916800D01*
X202948304Y-83964419D01*
X202995923Y-84059657D01*
X202995923Y-84154895D01*
X202948304Y-84297752D01*
X202376876Y-84869180D01*
X202995923Y-84869180D01*
X203614971Y-83869180D02*
X203710209Y-83869180D01*
X203805447Y-83916800D01*
X203853066Y-83964419D01*
X203900685Y-84059657D01*
X203948304Y-84250133D01*
X203948304Y-84488228D01*
X203900685Y-84678704D01*
X203853066Y-84773942D01*
X203805447Y-84821561D01*
X203710209Y-84869180D01*
X203614971Y-84869180D01*
X203519733Y-84821561D01*
X203472114Y-84773942D01*
X203424495Y-84678704D01*
X203376876Y-84488228D01*
X203376876Y-84250133D01*
X203424495Y-84059657D01*
X203472114Y-83964419D01*
X203519733Y-83916800D01*
X203614971Y-83869180D01*
%TO.C,D21*%
X201560114Y-51705180D02*
X201560114Y-50705180D01*
X201798209Y-50705180D01*
X201941066Y-50752800D01*
X202036304Y-50848038D01*
X202083923Y-50943276D01*
X202131542Y-51133752D01*
X202131542Y-51276609D01*
X202083923Y-51467085D01*
X202036304Y-51562323D01*
X201941066Y-51657561D01*
X201798209Y-51705180D01*
X201560114Y-51705180D01*
X202512495Y-50800419D02*
X202560114Y-50752800D01*
X202655352Y-50705180D01*
X202893447Y-50705180D01*
X202988685Y-50752800D01*
X203036304Y-50800419D01*
X203083923Y-50895657D01*
X203083923Y-50990895D01*
X203036304Y-51133752D01*
X202464876Y-51705180D01*
X203083923Y-51705180D01*
X204036304Y-51705180D02*
X203464876Y-51705180D01*
X203750590Y-51705180D02*
X203750590Y-50705180D01*
X203655352Y-50848038D01*
X203560114Y-50943276D01*
X203464876Y-50990895D01*
%TO.C,D22*%
X183252780Y-93011085D02*
X182252780Y-93011085D01*
X182252780Y-92772990D01*
X182300400Y-92630133D01*
X182395638Y-92534895D01*
X182490876Y-92487276D01*
X182681352Y-92439657D01*
X182824209Y-92439657D01*
X183014685Y-92487276D01*
X183109923Y-92534895D01*
X183205161Y-92630133D01*
X183252780Y-92772990D01*
X183252780Y-93011085D01*
X182348019Y-92058704D02*
X182300400Y-92011085D01*
X182252780Y-91915847D01*
X182252780Y-91677752D01*
X182300400Y-91582514D01*
X182348019Y-91534895D01*
X182443257Y-91487276D01*
X182538495Y-91487276D01*
X182681352Y-91534895D01*
X183252780Y-92106323D01*
X183252780Y-91487276D01*
X182348019Y-91106323D02*
X182300400Y-91058704D01*
X182252780Y-90963466D01*
X182252780Y-90725371D01*
X182300400Y-90630133D01*
X182348019Y-90582514D01*
X182443257Y-90534895D01*
X182538495Y-90534895D01*
X182681352Y-90582514D01*
X183252780Y-91153942D01*
X183252780Y-90534895D01*
%TO.C,D23*%
X215432780Y-93111085D02*
X214432780Y-93111085D01*
X214432780Y-92872990D01*
X214480400Y-92730133D01*
X214575638Y-92634895D01*
X214670876Y-92587276D01*
X214861352Y-92539657D01*
X215004209Y-92539657D01*
X215194685Y-92587276D01*
X215289923Y-92634895D01*
X215385161Y-92730133D01*
X215432780Y-92872990D01*
X215432780Y-93111085D01*
X214528019Y-92158704D02*
X214480400Y-92111085D01*
X214432780Y-92015847D01*
X214432780Y-91777752D01*
X214480400Y-91682514D01*
X214528019Y-91634895D01*
X214623257Y-91587276D01*
X214718495Y-91587276D01*
X214861352Y-91634895D01*
X215432780Y-92206323D01*
X215432780Y-91587276D01*
X214432780Y-91253942D02*
X214432780Y-90634895D01*
X214813733Y-90968228D01*
X214813733Y-90825371D01*
X214861352Y-90730133D01*
X214908971Y-90682514D01*
X215004209Y-90634895D01*
X215242304Y-90634895D01*
X215337542Y-90682514D01*
X215385161Y-90730133D01*
X215432780Y-90825371D01*
X215432780Y-91111085D01*
X215385161Y-91206323D01*
X215337542Y-91253942D01*
%TO.C,D24*%
X195542114Y-119093180D02*
X195542114Y-118093180D01*
X195780209Y-118093180D01*
X195923066Y-118140800D01*
X196018304Y-118236038D01*
X196065923Y-118331276D01*
X196113542Y-118521752D01*
X196113542Y-118664609D01*
X196065923Y-118855085D01*
X196018304Y-118950323D01*
X195923066Y-119045561D01*
X195780209Y-119093180D01*
X195542114Y-119093180D01*
X196494495Y-118188419D02*
X196542114Y-118140800D01*
X196637352Y-118093180D01*
X196875447Y-118093180D01*
X196970685Y-118140800D01*
X197018304Y-118188419D01*
X197065923Y-118283657D01*
X197065923Y-118378895D01*
X197018304Y-118521752D01*
X196446876Y-119093180D01*
X197065923Y-119093180D01*
X197923066Y-118426514D02*
X197923066Y-119093180D01*
X197684971Y-118045561D02*
X197446876Y-118759847D01*
X198065923Y-118759847D01*
%TO.C,D25*%
X190946780Y-70587085D02*
X189946780Y-70587085D01*
X189946780Y-70348990D01*
X189994400Y-70206133D01*
X190089638Y-70110895D01*
X190184876Y-70063276D01*
X190375352Y-70015657D01*
X190518209Y-70015657D01*
X190708685Y-70063276D01*
X190803923Y-70110895D01*
X190899161Y-70206133D01*
X190946780Y-70348990D01*
X190946780Y-70587085D01*
X190042019Y-69634704D02*
X189994400Y-69587085D01*
X189946780Y-69491847D01*
X189946780Y-69253752D01*
X189994400Y-69158514D01*
X190042019Y-69110895D01*
X190137257Y-69063276D01*
X190232495Y-69063276D01*
X190375352Y-69110895D01*
X190946780Y-69682323D01*
X190946780Y-69063276D01*
X189946780Y-68158514D02*
X189946780Y-68634704D01*
X190422971Y-68682323D01*
X190375352Y-68634704D01*
X190327733Y-68539466D01*
X190327733Y-68301371D01*
X190375352Y-68206133D01*
X190422971Y-68158514D01*
X190518209Y-68110895D01*
X190756304Y-68110895D01*
X190851542Y-68158514D01*
X190899161Y-68206133D01*
X190946780Y-68301371D01*
X190946780Y-68539466D01*
X190899161Y-68634704D01*
X190851542Y-68682323D01*
%TO.C,D26*%
X223262780Y-70409085D02*
X222262780Y-70409085D01*
X222262780Y-70170990D01*
X222310400Y-70028133D01*
X222405638Y-69932895D01*
X222500876Y-69885276D01*
X222691352Y-69837657D01*
X222834209Y-69837657D01*
X223024685Y-69885276D01*
X223119923Y-69932895D01*
X223215161Y-70028133D01*
X223262780Y-70170990D01*
X223262780Y-70409085D01*
X222358019Y-69456704D02*
X222310400Y-69409085D01*
X222262780Y-69313847D01*
X222262780Y-69075752D01*
X222310400Y-68980514D01*
X222358019Y-68932895D01*
X222453257Y-68885276D01*
X222548495Y-68885276D01*
X222691352Y-68932895D01*
X223262780Y-69504323D01*
X223262780Y-68885276D01*
X222262780Y-68028133D02*
X222262780Y-68218609D01*
X222310400Y-68313847D01*
X222358019Y-68361466D01*
X222500876Y-68456704D01*
X222691352Y-68504323D01*
X223072304Y-68504323D01*
X223167542Y-68456704D01*
X223215161Y-68409085D01*
X223262780Y-68313847D01*
X223262780Y-68123371D01*
X223215161Y-68028133D01*
X223167542Y-67980514D01*
X223072304Y-67932895D01*
X222834209Y-67932895D01*
X222738971Y-67980514D01*
X222691352Y-68028133D01*
X222643733Y-68123371D01*
X222643733Y-68313847D01*
X222691352Y-68409085D01*
X222738971Y-68456704D01*
X222834209Y-68504323D01*
%TO.C,D27*%
X195632114Y-84859180D02*
X195632114Y-83859180D01*
X195870209Y-83859180D01*
X196013066Y-83906800D01*
X196108304Y-84002038D01*
X196155923Y-84097276D01*
X196203542Y-84287752D01*
X196203542Y-84430609D01*
X196155923Y-84621085D01*
X196108304Y-84716323D01*
X196013066Y-84811561D01*
X195870209Y-84859180D01*
X195632114Y-84859180D01*
X196584495Y-83954419D02*
X196632114Y-83906800D01*
X196727352Y-83859180D01*
X196965447Y-83859180D01*
X197060685Y-83906800D01*
X197108304Y-83954419D01*
X197155923Y-84049657D01*
X197155923Y-84144895D01*
X197108304Y-84287752D01*
X196536876Y-84859180D01*
X197155923Y-84859180D01*
X197489257Y-83859180D02*
X198155923Y-83859180D01*
X197727352Y-84859180D01*
%TO.C,D28*%
X195780114Y-51705180D02*
X195780114Y-50705180D01*
X196018209Y-50705180D01*
X196161066Y-50752800D01*
X196256304Y-50848038D01*
X196303923Y-50943276D01*
X196351542Y-51133752D01*
X196351542Y-51276609D01*
X196303923Y-51467085D01*
X196256304Y-51562323D01*
X196161066Y-51657561D01*
X196018209Y-51705180D01*
X195780114Y-51705180D01*
X196732495Y-50800419D02*
X196780114Y-50752800D01*
X196875352Y-50705180D01*
X197113447Y-50705180D01*
X197208685Y-50752800D01*
X197256304Y-50800419D01*
X197303923Y-50895657D01*
X197303923Y-50990895D01*
X197256304Y-51133752D01*
X196684876Y-51705180D01*
X197303923Y-51705180D01*
X197875352Y-51133752D02*
X197780114Y-51086133D01*
X197732495Y-51038514D01*
X197684876Y-50943276D01*
X197684876Y-50895657D01*
X197732495Y-50800419D01*
X197780114Y-50752800D01*
X197875352Y-50705180D01*
X198065828Y-50705180D01*
X198161066Y-50752800D01*
X198208685Y-50800419D01*
X198256304Y-50895657D01*
X198256304Y-50943276D01*
X198208685Y-51038514D01*
X198161066Y-51086133D01*
X198065828Y-51133752D01*
X197875352Y-51133752D01*
X197780114Y-51181371D01*
X197732495Y-51228990D01*
X197684876Y-51324228D01*
X197684876Y-51514704D01*
X197732495Y-51609942D01*
X197780114Y-51657561D01*
X197875352Y-51705180D01*
X198065828Y-51705180D01*
X198161066Y-51657561D01*
X198208685Y-51609942D01*
X198256304Y-51514704D01*
X198256304Y-51324228D01*
X198208685Y-51228990D01*
X198161066Y-51181371D01*
X198065828Y-51133752D01*
%TO.C,D29*%
X183252780Y-87161085D02*
X182252780Y-87161085D01*
X182252780Y-86922990D01*
X182300400Y-86780133D01*
X182395638Y-86684895D01*
X182490876Y-86637276D01*
X182681352Y-86589657D01*
X182824209Y-86589657D01*
X183014685Y-86637276D01*
X183109923Y-86684895D01*
X183205161Y-86780133D01*
X183252780Y-86922990D01*
X183252780Y-87161085D01*
X182348019Y-86208704D02*
X182300400Y-86161085D01*
X182252780Y-86065847D01*
X182252780Y-85827752D01*
X182300400Y-85732514D01*
X182348019Y-85684895D01*
X182443257Y-85637276D01*
X182538495Y-85637276D01*
X182681352Y-85684895D01*
X183252780Y-86256323D01*
X183252780Y-85637276D01*
X183252780Y-85161085D02*
X183252780Y-84970609D01*
X183205161Y-84875371D01*
X183157542Y-84827752D01*
X183014685Y-84732514D01*
X182824209Y-84684895D01*
X182443257Y-84684895D01*
X182348019Y-84732514D01*
X182300400Y-84780133D01*
X182252780Y-84875371D01*
X182252780Y-85065847D01*
X182300400Y-85161085D01*
X182348019Y-85208704D01*
X182443257Y-85256323D01*
X182681352Y-85256323D01*
X182776590Y-85208704D01*
X182824209Y-85161085D01*
X182871828Y-85065847D01*
X182871828Y-84875371D01*
X182824209Y-84780133D01*
X182776590Y-84732514D01*
X182681352Y-84684895D01*
%TO.C,D30*%
X215472780Y-87261085D02*
X214472780Y-87261085D01*
X214472780Y-87022990D01*
X214520400Y-86880133D01*
X214615638Y-86784895D01*
X214710876Y-86737276D01*
X214901352Y-86689657D01*
X215044209Y-86689657D01*
X215234685Y-86737276D01*
X215329923Y-86784895D01*
X215425161Y-86880133D01*
X215472780Y-87022990D01*
X215472780Y-87261085D01*
X214472780Y-86356323D02*
X214472780Y-85737276D01*
X214853733Y-86070609D01*
X214853733Y-85927752D01*
X214901352Y-85832514D01*
X214948971Y-85784895D01*
X215044209Y-85737276D01*
X215282304Y-85737276D01*
X215377542Y-85784895D01*
X215425161Y-85832514D01*
X215472780Y-85927752D01*
X215472780Y-86213466D01*
X215425161Y-86308704D01*
X215377542Y-86356323D01*
X214472780Y-85118228D02*
X214472780Y-85022990D01*
X214520400Y-84927752D01*
X214568019Y-84880133D01*
X214663257Y-84832514D01*
X214853733Y-84784895D01*
X215091828Y-84784895D01*
X215282304Y-84832514D01*
X215377542Y-84880133D01*
X215425161Y-84927752D01*
X215472780Y-85022990D01*
X215472780Y-85118228D01*
X215425161Y-85213466D01*
X215377542Y-85261085D01*
X215282304Y-85308704D01*
X215091828Y-85356323D01*
X214853733Y-85356323D01*
X214663257Y-85308704D01*
X214568019Y-85261085D01*
X214520400Y-85213466D01*
X214472780Y-85118228D01*
%TO.C,D31*%
X189682114Y-119103180D02*
X189682114Y-118103180D01*
X189920209Y-118103180D01*
X190063066Y-118150800D01*
X190158304Y-118246038D01*
X190205923Y-118341276D01*
X190253542Y-118531752D01*
X190253542Y-118674609D01*
X190205923Y-118865085D01*
X190158304Y-118960323D01*
X190063066Y-119055561D01*
X189920209Y-119103180D01*
X189682114Y-119103180D01*
X190586876Y-118103180D02*
X191205923Y-118103180D01*
X190872590Y-118484133D01*
X191015447Y-118484133D01*
X191110685Y-118531752D01*
X191158304Y-118579371D01*
X191205923Y-118674609D01*
X191205923Y-118912704D01*
X191158304Y-119007942D01*
X191110685Y-119055561D01*
X191015447Y-119103180D01*
X190729733Y-119103180D01*
X190634495Y-119055561D01*
X190586876Y-119007942D01*
X192158304Y-119103180D02*
X191586876Y-119103180D01*
X191872590Y-119103180D02*
X191872590Y-118103180D01*
X191777352Y-118246038D01*
X191682114Y-118341276D01*
X191586876Y-118388895D01*
%TO.C,D32*%
X190936780Y-76407085D02*
X189936780Y-76407085D01*
X189936780Y-76168990D01*
X189984400Y-76026133D01*
X190079638Y-75930895D01*
X190174876Y-75883276D01*
X190365352Y-75835657D01*
X190508209Y-75835657D01*
X190698685Y-75883276D01*
X190793923Y-75930895D01*
X190889161Y-76026133D01*
X190936780Y-76168990D01*
X190936780Y-76407085D01*
X189936780Y-75502323D02*
X189936780Y-74883276D01*
X190317733Y-75216609D01*
X190317733Y-75073752D01*
X190365352Y-74978514D01*
X190412971Y-74930895D01*
X190508209Y-74883276D01*
X190746304Y-74883276D01*
X190841542Y-74930895D01*
X190889161Y-74978514D01*
X190936780Y-75073752D01*
X190936780Y-75359466D01*
X190889161Y-75454704D01*
X190841542Y-75502323D01*
X190032019Y-74502323D02*
X189984400Y-74454704D01*
X189936780Y-74359466D01*
X189936780Y-74121371D01*
X189984400Y-74026133D01*
X190032019Y-73978514D01*
X190127257Y-73930895D01*
X190222495Y-73930895D01*
X190365352Y-73978514D01*
X190936780Y-74549942D01*
X190936780Y-73930895D01*
%TO.C,D33*%
X223262780Y-76249085D02*
X222262780Y-76249085D01*
X222262780Y-76010990D01*
X222310400Y-75868133D01*
X222405638Y-75772895D01*
X222500876Y-75725276D01*
X222691352Y-75677657D01*
X222834209Y-75677657D01*
X223024685Y-75725276D01*
X223119923Y-75772895D01*
X223215161Y-75868133D01*
X223262780Y-76010990D01*
X223262780Y-76249085D01*
X222262780Y-75344323D02*
X222262780Y-74725276D01*
X222643733Y-75058609D01*
X222643733Y-74915752D01*
X222691352Y-74820514D01*
X222738971Y-74772895D01*
X222834209Y-74725276D01*
X223072304Y-74725276D01*
X223167542Y-74772895D01*
X223215161Y-74820514D01*
X223262780Y-74915752D01*
X223262780Y-75201466D01*
X223215161Y-75296704D01*
X223167542Y-75344323D01*
X222262780Y-74391942D02*
X222262780Y-73772895D01*
X222643733Y-74106228D01*
X222643733Y-73963371D01*
X222691352Y-73868133D01*
X222738971Y-73820514D01*
X222834209Y-73772895D01*
X223072304Y-73772895D01*
X223167542Y-73820514D01*
X223215161Y-73868133D01*
X223262780Y-73963371D01*
X223262780Y-74249085D01*
X223215161Y-74344323D01*
X223167542Y-74391942D01*
%TO.C,D34*%
X189782114Y-84849180D02*
X189782114Y-83849180D01*
X190020209Y-83849180D01*
X190163066Y-83896800D01*
X190258304Y-83992038D01*
X190305923Y-84087276D01*
X190353542Y-84277752D01*
X190353542Y-84420609D01*
X190305923Y-84611085D01*
X190258304Y-84706323D01*
X190163066Y-84801561D01*
X190020209Y-84849180D01*
X189782114Y-84849180D01*
X190686876Y-83849180D02*
X191305923Y-83849180D01*
X190972590Y-84230133D01*
X191115447Y-84230133D01*
X191210685Y-84277752D01*
X191258304Y-84325371D01*
X191305923Y-84420609D01*
X191305923Y-84658704D01*
X191258304Y-84753942D01*
X191210685Y-84801561D01*
X191115447Y-84849180D01*
X190829733Y-84849180D01*
X190734495Y-84801561D01*
X190686876Y-84753942D01*
X192163066Y-84182514D02*
X192163066Y-84849180D01*
X191924971Y-83801561D02*
X191686876Y-84515847D01*
X192305923Y-84515847D01*
%TO.C,D35*%
X189930114Y-51705180D02*
X189930114Y-50705180D01*
X190168209Y-50705180D01*
X190311066Y-50752800D01*
X190406304Y-50848038D01*
X190453923Y-50943276D01*
X190501542Y-51133752D01*
X190501542Y-51276609D01*
X190453923Y-51467085D01*
X190406304Y-51562323D01*
X190311066Y-51657561D01*
X190168209Y-51705180D01*
X189930114Y-51705180D01*
X190834876Y-50705180D02*
X191453923Y-50705180D01*
X191120590Y-51086133D01*
X191263447Y-51086133D01*
X191358685Y-51133752D01*
X191406304Y-51181371D01*
X191453923Y-51276609D01*
X191453923Y-51514704D01*
X191406304Y-51609942D01*
X191358685Y-51657561D01*
X191263447Y-51705180D01*
X190977733Y-51705180D01*
X190882495Y-51657561D01*
X190834876Y-51609942D01*
X192358685Y-50705180D02*
X191882495Y-50705180D01*
X191834876Y-51181371D01*
X191882495Y-51133752D01*
X191977733Y-51086133D01*
X192215828Y-51086133D01*
X192311066Y-51133752D01*
X192358685Y-51181371D01*
X192406304Y-51276609D01*
X192406304Y-51514704D01*
X192358685Y-51609942D01*
X192311066Y-51657561D01*
X192215828Y-51705180D01*
X191977733Y-51705180D01*
X191882495Y-51657561D01*
X191834876Y-51609942D01*
%TO.C,R1*%
X174983733Y-85067180D02*
X174650400Y-84590990D01*
X174412304Y-85067180D02*
X174412304Y-84067180D01*
X174793257Y-84067180D01*
X174888495Y-84114800D01*
X174936114Y-84162419D01*
X174983733Y-84257657D01*
X174983733Y-84400514D01*
X174936114Y-84495752D01*
X174888495Y-84543371D01*
X174793257Y-84590990D01*
X174412304Y-84590990D01*
X175936114Y-85067180D02*
X175364685Y-85067180D01*
X175650400Y-85067180D02*
X175650400Y-84067180D01*
X175555161Y-84210038D01*
X175459923Y-84305276D01*
X175364685Y-84352895D01*
%TO.C,R2*%
X174997733Y-81885180D02*
X174664400Y-81408990D01*
X174426304Y-81885180D02*
X174426304Y-80885180D01*
X174807257Y-80885180D01*
X174902495Y-80932800D01*
X174950114Y-80980419D01*
X174997733Y-81075657D01*
X174997733Y-81218514D01*
X174950114Y-81313752D01*
X174902495Y-81361371D01*
X174807257Y-81408990D01*
X174426304Y-81408990D01*
X175378685Y-80980419D02*
X175426304Y-80932800D01*
X175521542Y-80885180D01*
X175759638Y-80885180D01*
X175854876Y-80932800D01*
X175902495Y-80980419D01*
X175950114Y-81075657D01*
X175950114Y-81170895D01*
X175902495Y-81313752D01*
X175331066Y-81885180D01*
X175950114Y-81885180D01*
%TO.C,R3*%
X174993733Y-88327180D02*
X174660400Y-87850990D01*
X174422304Y-88327180D02*
X174422304Y-87327180D01*
X174803257Y-87327180D01*
X174898495Y-87374800D01*
X174946114Y-87422419D01*
X174993733Y-87517657D01*
X174993733Y-87660514D01*
X174946114Y-87755752D01*
X174898495Y-87803371D01*
X174803257Y-87850990D01*
X174422304Y-87850990D01*
X175327066Y-87327180D02*
X175946114Y-87327180D01*
X175612780Y-87708133D01*
X175755638Y-87708133D01*
X175850876Y-87755752D01*
X175898495Y-87803371D01*
X175946114Y-87898609D01*
X175946114Y-88136704D01*
X175898495Y-88231942D01*
X175850876Y-88279561D01*
X175755638Y-88327180D01*
X175469923Y-88327180D01*
X175374685Y-88279561D01*
X175327066Y-88231942D01*
%TO.C,R4*%
X175053733Y-72167180D02*
X174720400Y-71690990D01*
X174482304Y-72167180D02*
X174482304Y-71167180D01*
X174863257Y-71167180D01*
X174958495Y-71214800D01*
X175006114Y-71262419D01*
X175053733Y-71357657D01*
X175053733Y-71500514D01*
X175006114Y-71595752D01*
X174958495Y-71643371D01*
X174863257Y-71690990D01*
X174482304Y-71690990D01*
X175910876Y-71500514D02*
X175910876Y-72167180D01*
X175672780Y-71119561D02*
X175434685Y-71833847D01*
X176053733Y-71833847D01*
%TO.C,R5*%
X175037733Y-75315180D02*
X174704400Y-74838990D01*
X174466304Y-75315180D02*
X174466304Y-74315180D01*
X174847257Y-74315180D01*
X174942495Y-74362800D01*
X174990114Y-74410419D01*
X175037733Y-74505657D01*
X175037733Y-74648514D01*
X174990114Y-74743752D01*
X174942495Y-74791371D01*
X174847257Y-74838990D01*
X174466304Y-74838990D01*
X175942495Y-74315180D02*
X175466304Y-74315180D01*
X175418685Y-74791371D01*
X175466304Y-74743752D01*
X175561542Y-74696133D01*
X175799638Y-74696133D01*
X175894876Y-74743752D01*
X175942495Y-74791371D01*
X175990114Y-74886609D01*
X175990114Y-75124704D01*
X175942495Y-75219942D01*
X175894876Y-75267561D01*
X175799638Y-75315180D01*
X175561542Y-75315180D01*
X175466304Y-75267561D01*
X175418685Y-75219942D01*
%TO.C,R6*%
X175037733Y-78515180D02*
X174704400Y-78038990D01*
X174466304Y-78515180D02*
X174466304Y-77515180D01*
X174847257Y-77515180D01*
X174942495Y-77562800D01*
X174990114Y-77610419D01*
X175037733Y-77705657D01*
X175037733Y-77848514D01*
X174990114Y-77943752D01*
X174942495Y-77991371D01*
X174847257Y-78038990D01*
X174466304Y-78038990D01*
X175894876Y-77515180D02*
X175704400Y-77515180D01*
X175609161Y-77562800D01*
X175561542Y-77610419D01*
X175466304Y-77753276D01*
X175418685Y-77943752D01*
X175418685Y-78324704D01*
X175466304Y-78419942D01*
X175513923Y-78467561D01*
X175609161Y-78515180D01*
X175799638Y-78515180D01*
X175894876Y-78467561D01*
X175942495Y-78419942D01*
X175990114Y-78324704D01*
X175990114Y-78086609D01*
X175942495Y-77991371D01*
X175894876Y-77943752D01*
X175799638Y-77896133D01*
X175609161Y-77896133D01*
X175513923Y-77943752D01*
X175466304Y-77991371D01*
X175418685Y-78086609D01*
%TO.C,R7*%
X175053733Y-68157180D02*
X174720400Y-67680990D01*
X174482304Y-68157180D02*
X174482304Y-67157180D01*
X174863257Y-67157180D01*
X174958495Y-67204800D01*
X175006114Y-67252419D01*
X175053733Y-67347657D01*
X175053733Y-67490514D01*
X175006114Y-67585752D01*
X174958495Y-67633371D01*
X174863257Y-67680990D01*
X174482304Y-67680990D01*
X175387066Y-67157180D02*
X176053733Y-67157180D01*
X175625161Y-68157180D01*
%TO.C,U3*%
X192072780Y-127526704D02*
X192882304Y-127526704D01*
X192977542Y-127479085D01*
X193025161Y-127431466D01*
X193072780Y-127336228D01*
X193072780Y-127145752D01*
X193025161Y-127050514D01*
X192977542Y-127002895D01*
X192882304Y-126955276D01*
X192072780Y-126955276D01*
X192072780Y-126574323D02*
X192072780Y-125955276D01*
X192453733Y-126288609D01*
X192453733Y-126145752D01*
X192501352Y-126050514D01*
X192548971Y-126002895D01*
X192644209Y-125955276D01*
X192882304Y-125955276D01*
X192977542Y-126002895D01*
X193025161Y-126050514D01*
X193072780Y-126145752D01*
X193072780Y-126431466D01*
X193025161Y-126526704D01*
X192977542Y-126574323D01*
%TO.C,D36*%
X125920780Y-86669085D02*
X124920780Y-86669085D01*
X124920780Y-86430990D01*
X124968400Y-86288133D01*
X125063638Y-86192895D01*
X125158876Y-86145276D01*
X125349352Y-86097657D01*
X125492209Y-86097657D01*
X125682685Y-86145276D01*
X125777923Y-86192895D01*
X125873161Y-86288133D01*
X125920780Y-86430990D01*
X125920780Y-86669085D01*
X124920780Y-85764323D02*
X124920780Y-85145276D01*
X125301733Y-85478609D01*
X125301733Y-85335752D01*
X125349352Y-85240514D01*
X125396971Y-85192895D01*
X125492209Y-85145276D01*
X125730304Y-85145276D01*
X125825542Y-85192895D01*
X125873161Y-85240514D01*
X125920780Y-85335752D01*
X125920780Y-85621466D01*
X125873161Y-85716704D01*
X125825542Y-85764323D01*
X124920780Y-84288133D02*
X124920780Y-84478609D01*
X124968400Y-84573847D01*
X125016019Y-84621466D01*
X125158876Y-84716704D01*
X125349352Y-84764323D01*
X125730304Y-84764323D01*
X125825542Y-84716704D01*
X125873161Y-84669085D01*
X125920780Y-84573847D01*
X125920780Y-84383371D01*
X125873161Y-84288133D01*
X125825542Y-84240514D01*
X125730304Y-84192895D01*
X125492209Y-84192895D01*
X125396971Y-84240514D01*
X125349352Y-84288133D01*
X125301733Y-84383371D01*
X125301733Y-84573847D01*
X125349352Y-84669085D01*
X125396971Y-84716704D01*
X125492209Y-84764323D01*
%TO.C,D37*%
X125920780Y-92489085D02*
X124920780Y-92489085D01*
X124920780Y-92250990D01*
X124968400Y-92108133D01*
X125063638Y-92012895D01*
X125158876Y-91965276D01*
X125349352Y-91917657D01*
X125492209Y-91917657D01*
X125682685Y-91965276D01*
X125777923Y-92012895D01*
X125873161Y-92108133D01*
X125920780Y-92250990D01*
X125920780Y-92489085D01*
X124920780Y-91584323D02*
X124920780Y-90965276D01*
X125301733Y-91298609D01*
X125301733Y-91155752D01*
X125349352Y-91060514D01*
X125396971Y-91012895D01*
X125492209Y-90965276D01*
X125730304Y-90965276D01*
X125825542Y-91012895D01*
X125873161Y-91060514D01*
X125920780Y-91155752D01*
X125920780Y-91441466D01*
X125873161Y-91536704D01*
X125825542Y-91584323D01*
X124920780Y-90631942D02*
X124920780Y-89965276D01*
X125920780Y-90393847D01*
%TO.C,D38*%
X125910780Y-98359085D02*
X124910780Y-98359085D01*
X124910780Y-98120990D01*
X124958400Y-97978133D01*
X125053638Y-97882895D01*
X125148876Y-97835276D01*
X125339352Y-97787657D01*
X125482209Y-97787657D01*
X125672685Y-97835276D01*
X125767923Y-97882895D01*
X125863161Y-97978133D01*
X125910780Y-98120990D01*
X125910780Y-98359085D01*
X124910780Y-97454323D02*
X124910780Y-96835276D01*
X125291733Y-97168609D01*
X125291733Y-97025752D01*
X125339352Y-96930514D01*
X125386971Y-96882895D01*
X125482209Y-96835276D01*
X125720304Y-96835276D01*
X125815542Y-96882895D01*
X125863161Y-96930514D01*
X125910780Y-97025752D01*
X125910780Y-97311466D01*
X125863161Y-97406704D01*
X125815542Y-97454323D01*
X125339352Y-96263847D02*
X125291733Y-96359085D01*
X125244114Y-96406704D01*
X125148876Y-96454323D01*
X125101257Y-96454323D01*
X125006019Y-96406704D01*
X124958400Y-96359085D01*
X124910780Y-96263847D01*
X124910780Y-96073371D01*
X124958400Y-95978133D01*
X125006019Y-95930514D01*
X125101257Y-95882895D01*
X125148876Y-95882895D01*
X125244114Y-95930514D01*
X125291733Y-95978133D01*
X125339352Y-96073371D01*
X125339352Y-96263847D01*
X125386971Y-96359085D01*
X125434590Y-96406704D01*
X125529828Y-96454323D01*
X125720304Y-96454323D01*
X125815542Y-96406704D01*
X125863161Y-96359085D01*
X125910780Y-96263847D01*
X125910780Y-96073371D01*
X125863161Y-95978133D01*
X125815542Y-95930514D01*
X125720304Y-95882895D01*
X125529828Y-95882895D01*
X125434590Y-95930514D01*
X125386971Y-95978133D01*
X125339352Y-96073371D01*
%TO.C,D39*%
X125890780Y-104179085D02*
X124890780Y-104179085D01*
X124890780Y-103940990D01*
X124938400Y-103798133D01*
X125033638Y-103702895D01*
X125128876Y-103655276D01*
X125319352Y-103607657D01*
X125462209Y-103607657D01*
X125652685Y-103655276D01*
X125747923Y-103702895D01*
X125843161Y-103798133D01*
X125890780Y-103940990D01*
X125890780Y-104179085D01*
X124890780Y-103274323D02*
X124890780Y-102655276D01*
X125271733Y-102988609D01*
X125271733Y-102845752D01*
X125319352Y-102750514D01*
X125366971Y-102702895D01*
X125462209Y-102655276D01*
X125700304Y-102655276D01*
X125795542Y-102702895D01*
X125843161Y-102750514D01*
X125890780Y-102845752D01*
X125890780Y-103131466D01*
X125843161Y-103226704D01*
X125795542Y-103274323D01*
X125890780Y-102179085D02*
X125890780Y-101988609D01*
X125843161Y-101893371D01*
X125795542Y-101845752D01*
X125652685Y-101750514D01*
X125462209Y-101702895D01*
X125081257Y-101702895D01*
X124986019Y-101750514D01*
X124938400Y-101798133D01*
X124890780Y-101893371D01*
X124890780Y-102083847D01*
X124938400Y-102179085D01*
X124986019Y-102226704D01*
X125081257Y-102274323D01*
X125319352Y-102274323D01*
X125414590Y-102226704D01*
X125462209Y-102179085D01*
X125509828Y-102083847D01*
X125509828Y-101893371D01*
X125462209Y-101798133D01*
X125414590Y-101750514D01*
X125319352Y-101702895D01*
%TO.C,D40*%
X125890780Y-110161085D02*
X124890780Y-110161085D01*
X124890780Y-109922990D01*
X124938400Y-109780133D01*
X125033638Y-109684895D01*
X125128876Y-109637276D01*
X125319352Y-109589657D01*
X125462209Y-109589657D01*
X125652685Y-109637276D01*
X125747923Y-109684895D01*
X125843161Y-109780133D01*
X125890780Y-109922990D01*
X125890780Y-110161085D01*
X125224114Y-108732514D02*
X125890780Y-108732514D01*
X124843161Y-108970609D02*
X125557447Y-109208704D01*
X125557447Y-108589657D01*
X124890780Y-108018228D02*
X124890780Y-107922990D01*
X124938400Y-107827752D01*
X124986019Y-107780133D01*
X125081257Y-107732514D01*
X125271733Y-107684895D01*
X125509828Y-107684895D01*
X125700304Y-107732514D01*
X125795542Y-107780133D01*
X125843161Y-107827752D01*
X125890780Y-107922990D01*
X125890780Y-108018228D01*
X125843161Y-108113466D01*
X125795542Y-108161085D01*
X125700304Y-108208704D01*
X125509828Y-108256323D01*
X125271733Y-108256323D01*
X125081257Y-108208704D01*
X124986019Y-108161085D01*
X124938400Y-108113466D01*
X124890780Y-108018228D01*
%TO.C,D41*%
X133856780Y-53269085D02*
X132856780Y-53269085D01*
X132856780Y-53030990D01*
X132904400Y-52888133D01*
X132999638Y-52792895D01*
X133094876Y-52745276D01*
X133285352Y-52697657D01*
X133428209Y-52697657D01*
X133618685Y-52745276D01*
X133713923Y-52792895D01*
X133809161Y-52888133D01*
X133856780Y-53030990D01*
X133856780Y-53269085D01*
X133190114Y-51840514D02*
X133856780Y-51840514D01*
X132809161Y-52078609D02*
X133523447Y-52316704D01*
X133523447Y-51697657D01*
X133856780Y-50792895D02*
X133856780Y-51364323D01*
X133856780Y-51078609D02*
X132856780Y-51078609D01*
X132999638Y-51173847D01*
X133094876Y-51269085D01*
X133142495Y-51364323D01*
%TO.C,D42*%
X133856780Y-59109085D02*
X132856780Y-59109085D01*
X132856780Y-58870990D01*
X132904400Y-58728133D01*
X132999638Y-58632895D01*
X133094876Y-58585276D01*
X133285352Y-58537657D01*
X133428209Y-58537657D01*
X133618685Y-58585276D01*
X133713923Y-58632895D01*
X133809161Y-58728133D01*
X133856780Y-58870990D01*
X133856780Y-59109085D01*
X133190114Y-57680514D02*
X133856780Y-57680514D01*
X132809161Y-57918609D02*
X133523447Y-58156704D01*
X133523447Y-57537657D01*
X132952019Y-57204323D02*
X132904400Y-57156704D01*
X132856780Y-57061466D01*
X132856780Y-56823371D01*
X132904400Y-56728133D01*
X132952019Y-56680514D01*
X133047257Y-56632895D01*
X133142495Y-56632895D01*
X133285352Y-56680514D01*
X133856780Y-57251942D01*
X133856780Y-56632895D01*
%TO.C,D43*%
X133856780Y-64939085D02*
X132856780Y-64939085D01*
X132856780Y-64700990D01*
X132904400Y-64558133D01*
X132999638Y-64462895D01*
X133094876Y-64415276D01*
X133285352Y-64367657D01*
X133428209Y-64367657D01*
X133618685Y-64415276D01*
X133713923Y-64462895D01*
X133809161Y-64558133D01*
X133856780Y-64700990D01*
X133856780Y-64939085D01*
X133190114Y-63510514D02*
X133856780Y-63510514D01*
X132809161Y-63748609D02*
X133523447Y-63986704D01*
X133523447Y-63367657D01*
X132856780Y-63081942D02*
X132856780Y-62462895D01*
X133237733Y-62796228D01*
X133237733Y-62653371D01*
X133285352Y-62558133D01*
X133332971Y-62510514D01*
X133428209Y-62462895D01*
X133666304Y-62462895D01*
X133761542Y-62510514D01*
X133809161Y-62558133D01*
X133856780Y-62653371D01*
X133856780Y-62939085D01*
X133809161Y-63034323D01*
X133761542Y-63081942D01*
%TO.C,D44*%
X133856780Y-70779085D02*
X132856780Y-70779085D01*
X132856780Y-70540990D01*
X132904400Y-70398133D01*
X132999638Y-70302895D01*
X133094876Y-70255276D01*
X133285352Y-70207657D01*
X133428209Y-70207657D01*
X133618685Y-70255276D01*
X133713923Y-70302895D01*
X133809161Y-70398133D01*
X133856780Y-70540990D01*
X133856780Y-70779085D01*
X133190114Y-69350514D02*
X133856780Y-69350514D01*
X132809161Y-69588609D02*
X133523447Y-69826704D01*
X133523447Y-69207657D01*
X133190114Y-68398133D02*
X133856780Y-68398133D01*
X132809161Y-68636228D02*
X133523447Y-68874323D01*
X133523447Y-68255276D01*
%TO.C,D45*%
X133866780Y-76579085D02*
X132866780Y-76579085D01*
X132866780Y-76340990D01*
X132914400Y-76198133D01*
X133009638Y-76102895D01*
X133104876Y-76055276D01*
X133295352Y-76007657D01*
X133438209Y-76007657D01*
X133628685Y-76055276D01*
X133723923Y-76102895D01*
X133819161Y-76198133D01*
X133866780Y-76340990D01*
X133866780Y-76579085D01*
X133200114Y-75150514D02*
X133866780Y-75150514D01*
X132819161Y-75388609D02*
X133533447Y-75626704D01*
X133533447Y-75007657D01*
X132866780Y-74150514D02*
X132866780Y-74626704D01*
X133342971Y-74674323D01*
X133295352Y-74626704D01*
X133247733Y-74531466D01*
X133247733Y-74293371D01*
X133295352Y-74198133D01*
X133342971Y-74150514D01*
X133438209Y-74102895D01*
X133676304Y-74102895D01*
X133771542Y-74150514D01*
X133819161Y-74198133D01*
X133866780Y-74293371D01*
X133866780Y-74531466D01*
X133819161Y-74626704D01*
X133771542Y-74674323D01*
%TO.C,D46*%
X155958114Y-118467180D02*
X155958114Y-117467180D01*
X156196209Y-117467180D01*
X156339066Y-117514800D01*
X156434304Y-117610038D01*
X156481923Y-117705276D01*
X156529542Y-117895752D01*
X156529542Y-118038609D01*
X156481923Y-118229085D01*
X156434304Y-118324323D01*
X156339066Y-118419561D01*
X156196209Y-118467180D01*
X155958114Y-118467180D01*
X157386685Y-117800514D02*
X157386685Y-118467180D01*
X157148590Y-117419561D02*
X156910495Y-118133847D01*
X157529542Y-118133847D01*
X158339066Y-117467180D02*
X158148590Y-117467180D01*
X158053352Y-117514800D01*
X158005733Y-117562419D01*
X157910495Y-117705276D01*
X157862876Y-117895752D01*
X157862876Y-118276704D01*
X157910495Y-118371942D01*
X157958114Y-118419561D01*
X158053352Y-118467180D01*
X158243828Y-118467180D01*
X158339066Y-118419561D01*
X158386685Y-118371942D01*
X158434304Y-118276704D01*
X158434304Y-118038609D01*
X158386685Y-117943371D01*
X158339066Y-117895752D01*
X158243828Y-117848133D01*
X158053352Y-117848133D01*
X157958114Y-117895752D01*
X157910495Y-117943371D01*
X157862876Y-118038609D01*
%TO.C,D47*%
X156070114Y-52025180D02*
X156070114Y-51025180D01*
X156308209Y-51025180D01*
X156451066Y-51072800D01*
X156546304Y-51168038D01*
X156593923Y-51263276D01*
X156641542Y-51453752D01*
X156641542Y-51596609D01*
X156593923Y-51787085D01*
X156546304Y-51882323D01*
X156451066Y-51977561D01*
X156308209Y-52025180D01*
X156070114Y-52025180D01*
X157498685Y-51358514D02*
X157498685Y-52025180D01*
X157260590Y-50977561D02*
X157022495Y-51691847D01*
X157641542Y-51691847D01*
X157927257Y-51025180D02*
X158593923Y-51025180D01*
X158165352Y-52025180D01*
%TO.C,D48*%
X150058114Y-118477180D02*
X150058114Y-117477180D01*
X150296209Y-117477180D01*
X150439066Y-117524800D01*
X150534304Y-117620038D01*
X150581923Y-117715276D01*
X150629542Y-117905752D01*
X150629542Y-118048609D01*
X150581923Y-118239085D01*
X150534304Y-118334323D01*
X150439066Y-118429561D01*
X150296209Y-118477180D01*
X150058114Y-118477180D01*
X151486685Y-117810514D02*
X151486685Y-118477180D01*
X151248590Y-117429561D02*
X151010495Y-118143847D01*
X151629542Y-118143847D01*
X152153352Y-117905752D02*
X152058114Y-117858133D01*
X152010495Y-117810514D01*
X151962876Y-117715276D01*
X151962876Y-117667657D01*
X152010495Y-117572419D01*
X152058114Y-117524800D01*
X152153352Y-117477180D01*
X152343828Y-117477180D01*
X152439066Y-117524800D01*
X152486685Y-117572419D01*
X152534304Y-117667657D01*
X152534304Y-117715276D01*
X152486685Y-117810514D01*
X152439066Y-117858133D01*
X152343828Y-117905752D01*
X152153352Y-117905752D01*
X152058114Y-117953371D01*
X152010495Y-118000990D01*
X151962876Y-118096228D01*
X151962876Y-118286704D01*
X152010495Y-118381942D01*
X152058114Y-118429561D01*
X152153352Y-118477180D01*
X152343828Y-118477180D01*
X152439066Y-118429561D01*
X152486685Y-118381942D01*
X152534304Y-118286704D01*
X152534304Y-118096228D01*
X152486685Y-118000990D01*
X152439066Y-117953371D01*
X152343828Y-117905752D01*
%TO.C,D49*%
X132904114Y-84911180D02*
X132904114Y-83911180D01*
X133142209Y-83911180D01*
X133285066Y-83958800D01*
X133380304Y-84054038D01*
X133427923Y-84149276D01*
X133475542Y-84339752D01*
X133475542Y-84482609D01*
X133427923Y-84673085D01*
X133380304Y-84768323D01*
X133285066Y-84863561D01*
X133142209Y-84911180D01*
X132904114Y-84911180D01*
X134332685Y-84244514D02*
X134332685Y-84911180D01*
X134094590Y-83863561D02*
X133856495Y-84577847D01*
X134475542Y-84577847D01*
X134904114Y-84911180D02*
X135094590Y-84911180D01*
X135189828Y-84863561D01*
X135237447Y-84815942D01*
X135332685Y-84673085D01*
X135380304Y-84482609D01*
X135380304Y-84101657D01*
X135332685Y-84006419D01*
X135285066Y-83958800D01*
X135189828Y-83911180D01*
X134999352Y-83911180D01*
X134904114Y-83958800D01*
X134856495Y-84006419D01*
X134808876Y-84101657D01*
X134808876Y-84339752D01*
X134856495Y-84434990D01*
X134904114Y-84482609D01*
X134999352Y-84530228D01*
X135189828Y-84530228D01*
X135285066Y-84482609D01*
X135332685Y-84434990D01*
X135380304Y-84339752D01*
%TO.C,D50*%
X150250114Y-52025180D02*
X150250114Y-51025180D01*
X150488209Y-51025180D01*
X150631066Y-51072800D01*
X150726304Y-51168038D01*
X150773923Y-51263276D01*
X150821542Y-51453752D01*
X150821542Y-51596609D01*
X150773923Y-51787085D01*
X150726304Y-51882323D01*
X150631066Y-51977561D01*
X150488209Y-52025180D01*
X150250114Y-52025180D01*
X151726304Y-51025180D02*
X151250114Y-51025180D01*
X151202495Y-51501371D01*
X151250114Y-51453752D01*
X151345352Y-51406133D01*
X151583447Y-51406133D01*
X151678685Y-51453752D01*
X151726304Y-51501371D01*
X151773923Y-51596609D01*
X151773923Y-51834704D01*
X151726304Y-51929942D01*
X151678685Y-51977561D01*
X151583447Y-52025180D01*
X151345352Y-52025180D01*
X151250114Y-51977561D01*
X151202495Y-51929942D01*
X152392971Y-51025180D02*
X152488209Y-51025180D01*
X152583447Y-51072800D01*
X152631066Y-51120419D01*
X152678685Y-51215657D01*
X152726304Y-51406133D01*
X152726304Y-51644228D01*
X152678685Y-51834704D01*
X152631066Y-51929942D01*
X152583447Y-51977561D01*
X152488209Y-52025180D01*
X152392971Y-52025180D01*
X152297733Y-51977561D01*
X152250114Y-51929942D01*
X152202495Y-51834704D01*
X152154876Y-51644228D01*
X152154876Y-51406133D01*
X152202495Y-51215657D01*
X152250114Y-51120419D01*
X152297733Y-51072800D01*
X152392971Y-51025180D01*
%TO.C,D51*%
X138654114Y-84911180D02*
X138654114Y-83911180D01*
X138892209Y-83911180D01*
X139035066Y-83958800D01*
X139130304Y-84054038D01*
X139177923Y-84149276D01*
X139225542Y-84339752D01*
X139225542Y-84482609D01*
X139177923Y-84673085D01*
X139130304Y-84768323D01*
X139035066Y-84863561D01*
X138892209Y-84911180D01*
X138654114Y-84911180D01*
X140130304Y-83911180D02*
X139654114Y-83911180D01*
X139606495Y-84387371D01*
X139654114Y-84339752D01*
X139749352Y-84292133D01*
X139987447Y-84292133D01*
X140082685Y-84339752D01*
X140130304Y-84387371D01*
X140177923Y-84482609D01*
X140177923Y-84720704D01*
X140130304Y-84815942D01*
X140082685Y-84863561D01*
X139987447Y-84911180D01*
X139749352Y-84911180D01*
X139654114Y-84863561D01*
X139606495Y-84815942D01*
X141130304Y-84911180D02*
X140558876Y-84911180D01*
X140844590Y-84911180D02*
X140844590Y-83911180D01*
X140749352Y-84054038D01*
X140654114Y-84149276D01*
X140558876Y-84196895D01*
%TO.C,D52*%
X144278114Y-118477180D02*
X144278114Y-117477180D01*
X144516209Y-117477180D01*
X144659066Y-117524800D01*
X144754304Y-117620038D01*
X144801923Y-117715276D01*
X144849542Y-117905752D01*
X144849542Y-118048609D01*
X144801923Y-118239085D01*
X144754304Y-118334323D01*
X144659066Y-118429561D01*
X144516209Y-118477180D01*
X144278114Y-118477180D01*
X145754304Y-117477180D02*
X145278114Y-117477180D01*
X145230495Y-117953371D01*
X145278114Y-117905752D01*
X145373352Y-117858133D01*
X145611447Y-117858133D01*
X145706685Y-117905752D01*
X145754304Y-117953371D01*
X145801923Y-118048609D01*
X145801923Y-118286704D01*
X145754304Y-118381942D01*
X145706685Y-118429561D01*
X145611447Y-118477180D01*
X145373352Y-118477180D01*
X145278114Y-118429561D01*
X145230495Y-118381942D01*
X146182876Y-117572419D02*
X146230495Y-117524800D01*
X146325733Y-117477180D01*
X146563828Y-117477180D01*
X146659066Y-117524800D01*
X146706685Y-117572419D01*
X146754304Y-117667657D01*
X146754304Y-117762895D01*
X146706685Y-117905752D01*
X146135257Y-118477180D01*
X146754304Y-118477180D01*
%TO.C,D53*%
X144420114Y-52035180D02*
X144420114Y-51035180D01*
X144658209Y-51035180D01*
X144801066Y-51082800D01*
X144896304Y-51178038D01*
X144943923Y-51273276D01*
X144991542Y-51463752D01*
X144991542Y-51606609D01*
X144943923Y-51797085D01*
X144896304Y-51892323D01*
X144801066Y-51987561D01*
X144658209Y-52035180D01*
X144420114Y-52035180D01*
X145896304Y-51035180D02*
X145420114Y-51035180D01*
X145372495Y-51511371D01*
X145420114Y-51463752D01*
X145515352Y-51416133D01*
X145753447Y-51416133D01*
X145848685Y-51463752D01*
X145896304Y-51511371D01*
X145943923Y-51606609D01*
X145943923Y-51844704D01*
X145896304Y-51939942D01*
X145848685Y-51987561D01*
X145753447Y-52035180D01*
X145515352Y-52035180D01*
X145420114Y-51987561D01*
X145372495Y-51939942D01*
X146277257Y-51035180D02*
X146896304Y-51035180D01*
X146562971Y-51416133D01*
X146705828Y-51416133D01*
X146801066Y-51463752D01*
X146848685Y-51511371D01*
X146896304Y-51606609D01*
X146896304Y-51844704D01*
X146848685Y-51939942D01*
X146801066Y-51987561D01*
X146705828Y-52035180D01*
X146420114Y-52035180D01*
X146324876Y-51987561D01*
X146277257Y-51939942D01*
%TO.C,D54*%
X144514114Y-84911180D02*
X144514114Y-83911180D01*
X144752209Y-83911180D01*
X144895066Y-83958800D01*
X144990304Y-84054038D01*
X145037923Y-84149276D01*
X145085542Y-84339752D01*
X145085542Y-84482609D01*
X145037923Y-84673085D01*
X144990304Y-84768323D01*
X144895066Y-84863561D01*
X144752209Y-84911180D01*
X144514114Y-84911180D01*
X145990304Y-83911180D02*
X145514114Y-83911180D01*
X145466495Y-84387371D01*
X145514114Y-84339752D01*
X145609352Y-84292133D01*
X145847447Y-84292133D01*
X145942685Y-84339752D01*
X145990304Y-84387371D01*
X146037923Y-84482609D01*
X146037923Y-84720704D01*
X145990304Y-84815942D01*
X145942685Y-84863561D01*
X145847447Y-84911180D01*
X145609352Y-84911180D01*
X145514114Y-84863561D01*
X145466495Y-84815942D01*
X146895066Y-84244514D02*
X146895066Y-84911180D01*
X146656971Y-83863561D02*
X146418876Y-84577847D01*
X147037923Y-84577847D01*
%TO.C,D55*%
X138418114Y-118477180D02*
X138418114Y-117477180D01*
X138656209Y-117477180D01*
X138799066Y-117524800D01*
X138894304Y-117620038D01*
X138941923Y-117715276D01*
X138989542Y-117905752D01*
X138989542Y-118048609D01*
X138941923Y-118239085D01*
X138894304Y-118334323D01*
X138799066Y-118429561D01*
X138656209Y-118477180D01*
X138418114Y-118477180D01*
X139894304Y-117477180D02*
X139418114Y-117477180D01*
X139370495Y-117953371D01*
X139418114Y-117905752D01*
X139513352Y-117858133D01*
X139751447Y-117858133D01*
X139846685Y-117905752D01*
X139894304Y-117953371D01*
X139941923Y-118048609D01*
X139941923Y-118286704D01*
X139894304Y-118381942D01*
X139846685Y-118429561D01*
X139751447Y-118477180D01*
X139513352Y-118477180D01*
X139418114Y-118429561D01*
X139370495Y-118381942D01*
X140846685Y-117477180D02*
X140370495Y-117477180D01*
X140322876Y-117953371D01*
X140370495Y-117905752D01*
X140465733Y-117858133D01*
X140703828Y-117858133D01*
X140799066Y-117905752D01*
X140846685Y-117953371D01*
X140894304Y-118048609D01*
X140894304Y-118286704D01*
X140846685Y-118381942D01*
X140799066Y-118429561D01*
X140703828Y-118477180D01*
X140465733Y-118477180D01*
X140370495Y-118429561D01*
X140322876Y-118381942D01*
%TO.C,D56*%
X138590114Y-52035180D02*
X138590114Y-51035180D01*
X138828209Y-51035180D01*
X138971066Y-51082800D01*
X139066304Y-51178038D01*
X139113923Y-51273276D01*
X139161542Y-51463752D01*
X139161542Y-51606609D01*
X139113923Y-51797085D01*
X139066304Y-51892323D01*
X138971066Y-51987561D01*
X138828209Y-52035180D01*
X138590114Y-52035180D01*
X140066304Y-51035180D02*
X139590114Y-51035180D01*
X139542495Y-51511371D01*
X139590114Y-51463752D01*
X139685352Y-51416133D01*
X139923447Y-51416133D01*
X140018685Y-51463752D01*
X140066304Y-51511371D01*
X140113923Y-51606609D01*
X140113923Y-51844704D01*
X140066304Y-51939942D01*
X140018685Y-51987561D01*
X139923447Y-52035180D01*
X139685352Y-52035180D01*
X139590114Y-51987561D01*
X139542495Y-51939942D01*
X140971066Y-51035180D02*
X140780590Y-51035180D01*
X140685352Y-51082800D01*
X140637733Y-51130419D01*
X140542495Y-51273276D01*
X140494876Y-51463752D01*
X140494876Y-51844704D01*
X140542495Y-51939942D01*
X140590114Y-51987561D01*
X140685352Y-52035180D01*
X140875828Y-52035180D01*
X140971066Y-51987561D01*
X141018685Y-51939942D01*
X141066304Y-51844704D01*
X141066304Y-51606609D01*
X141018685Y-51511371D01*
X140971066Y-51463752D01*
X140875828Y-51416133D01*
X140685352Y-51416133D01*
X140590114Y-51463752D01*
X140542495Y-51511371D01*
X140494876Y-51606609D01*
%TO.C,D57*%
X132608114Y-118477180D02*
X132608114Y-117477180D01*
X132846209Y-117477180D01*
X132989066Y-117524800D01*
X133084304Y-117620038D01*
X133131923Y-117715276D01*
X133179542Y-117905752D01*
X133179542Y-118048609D01*
X133131923Y-118239085D01*
X133084304Y-118334323D01*
X132989066Y-118429561D01*
X132846209Y-118477180D01*
X132608114Y-118477180D01*
X134084304Y-117477180D02*
X133608114Y-117477180D01*
X133560495Y-117953371D01*
X133608114Y-117905752D01*
X133703352Y-117858133D01*
X133941447Y-117858133D01*
X134036685Y-117905752D01*
X134084304Y-117953371D01*
X134131923Y-118048609D01*
X134131923Y-118286704D01*
X134084304Y-118381942D01*
X134036685Y-118429561D01*
X133941447Y-118477180D01*
X133703352Y-118477180D01*
X133608114Y-118429561D01*
X133560495Y-118381942D01*
X134465257Y-117477180D02*
X135131923Y-117477180D01*
X134703352Y-118477180D01*
%TO.C,D58*%
X150354114Y-84931180D02*
X150354114Y-83931180D01*
X150592209Y-83931180D01*
X150735066Y-83978800D01*
X150830304Y-84074038D01*
X150877923Y-84169276D01*
X150925542Y-84359752D01*
X150925542Y-84502609D01*
X150877923Y-84693085D01*
X150830304Y-84788323D01*
X150735066Y-84883561D01*
X150592209Y-84931180D01*
X150354114Y-84931180D01*
X151830304Y-83931180D02*
X151354114Y-83931180D01*
X151306495Y-84407371D01*
X151354114Y-84359752D01*
X151449352Y-84312133D01*
X151687447Y-84312133D01*
X151782685Y-84359752D01*
X151830304Y-84407371D01*
X151877923Y-84502609D01*
X151877923Y-84740704D01*
X151830304Y-84835942D01*
X151782685Y-84883561D01*
X151687447Y-84931180D01*
X151449352Y-84931180D01*
X151354114Y-84883561D01*
X151306495Y-84835942D01*
X152449352Y-84359752D02*
X152354114Y-84312133D01*
X152306495Y-84264514D01*
X152258876Y-84169276D01*
X152258876Y-84121657D01*
X152306495Y-84026419D01*
X152354114Y-83978800D01*
X152449352Y-83931180D01*
X152639828Y-83931180D01*
X152735066Y-83978800D01*
X152782685Y-84026419D01*
X152830304Y-84121657D01*
X152830304Y-84169276D01*
X152782685Y-84264514D01*
X152735066Y-84312133D01*
X152639828Y-84359752D01*
X152449352Y-84359752D01*
X152354114Y-84407371D01*
X152306495Y-84454990D01*
X152258876Y-84550228D01*
X152258876Y-84740704D01*
X152306495Y-84835942D01*
X152354114Y-84883561D01*
X152449352Y-84931180D01*
X152639828Y-84931180D01*
X152735066Y-84883561D01*
X152782685Y-84835942D01*
X152830304Y-84740704D01*
X152830304Y-84550228D01*
X152782685Y-84454990D01*
X152735066Y-84407371D01*
X152639828Y-84359752D01*
%TO.C,D59*%
X132780114Y-52035180D02*
X132780114Y-51035180D01*
X133018209Y-51035180D01*
X133161066Y-51082800D01*
X133256304Y-51178038D01*
X133303923Y-51273276D01*
X133351542Y-51463752D01*
X133351542Y-51606609D01*
X133303923Y-51797085D01*
X133256304Y-51892323D01*
X133161066Y-51987561D01*
X133018209Y-52035180D01*
X132780114Y-52035180D01*
X134256304Y-51035180D02*
X133780114Y-51035180D01*
X133732495Y-51511371D01*
X133780114Y-51463752D01*
X133875352Y-51416133D01*
X134113447Y-51416133D01*
X134208685Y-51463752D01*
X134256304Y-51511371D01*
X134303923Y-51606609D01*
X134303923Y-51844704D01*
X134256304Y-51939942D01*
X134208685Y-51987561D01*
X134113447Y-52035180D01*
X133875352Y-52035180D01*
X133780114Y-51987561D01*
X133732495Y-51939942D01*
X134780114Y-52035180D02*
X134970590Y-52035180D01*
X135065828Y-51987561D01*
X135113447Y-51939942D01*
X135208685Y-51797085D01*
X135256304Y-51606609D01*
X135256304Y-51225657D01*
X135208685Y-51130419D01*
X135161066Y-51082800D01*
X135065828Y-51035180D01*
X134875352Y-51035180D01*
X134780114Y-51082800D01*
X134732495Y-51130419D01*
X134684876Y-51225657D01*
X134684876Y-51463752D01*
X134732495Y-51558990D01*
X134780114Y-51606609D01*
X134875352Y-51654228D01*
X135065828Y-51654228D01*
X135161066Y-51606609D01*
X135208685Y-51558990D01*
X135256304Y-51463752D01*
%TO.C,D60*%
X156144114Y-84941180D02*
X156144114Y-83941180D01*
X156382209Y-83941180D01*
X156525066Y-83988800D01*
X156620304Y-84084038D01*
X156667923Y-84179276D01*
X156715542Y-84369752D01*
X156715542Y-84512609D01*
X156667923Y-84703085D01*
X156620304Y-84798323D01*
X156525066Y-84893561D01*
X156382209Y-84941180D01*
X156144114Y-84941180D01*
X157572685Y-83941180D02*
X157382209Y-83941180D01*
X157286971Y-83988800D01*
X157239352Y-84036419D01*
X157144114Y-84179276D01*
X157096495Y-84369752D01*
X157096495Y-84750704D01*
X157144114Y-84845942D01*
X157191733Y-84893561D01*
X157286971Y-84941180D01*
X157477447Y-84941180D01*
X157572685Y-84893561D01*
X157620304Y-84845942D01*
X157667923Y-84750704D01*
X157667923Y-84512609D01*
X157620304Y-84417371D01*
X157572685Y-84369752D01*
X157477447Y-84322133D01*
X157286971Y-84322133D01*
X157191733Y-84369752D01*
X157144114Y-84417371D01*
X157096495Y-84512609D01*
X158286971Y-83941180D02*
X158382209Y-83941180D01*
X158477447Y-83988800D01*
X158525066Y-84036419D01*
X158572685Y-84131657D01*
X158620304Y-84322133D01*
X158620304Y-84560228D01*
X158572685Y-84750704D01*
X158525066Y-84845942D01*
X158477447Y-84893561D01*
X158382209Y-84941180D01*
X158286971Y-84941180D01*
X158191733Y-84893561D01*
X158144114Y-84845942D01*
X158096495Y-84750704D01*
X158048876Y-84560228D01*
X158048876Y-84322133D01*
X158096495Y-84131657D01*
X158144114Y-84036419D01*
X158191733Y-83988800D01*
X158286971Y-83941180D01*
%TO.C,D61*%
X158218780Y-110161085D02*
X157218780Y-110161085D01*
X157218780Y-109922990D01*
X157266400Y-109780133D01*
X157361638Y-109684895D01*
X157456876Y-109637276D01*
X157647352Y-109589657D01*
X157790209Y-109589657D01*
X157980685Y-109637276D01*
X158075923Y-109684895D01*
X158171161Y-109780133D01*
X158218780Y-109922990D01*
X158218780Y-110161085D01*
X157218780Y-108732514D02*
X157218780Y-108922990D01*
X157266400Y-109018228D01*
X157314019Y-109065847D01*
X157456876Y-109161085D01*
X157647352Y-109208704D01*
X158028304Y-109208704D01*
X158123542Y-109161085D01*
X158171161Y-109113466D01*
X158218780Y-109018228D01*
X158218780Y-108827752D01*
X158171161Y-108732514D01*
X158123542Y-108684895D01*
X158028304Y-108637276D01*
X157790209Y-108637276D01*
X157694971Y-108684895D01*
X157647352Y-108732514D01*
X157599733Y-108827752D01*
X157599733Y-109018228D01*
X157647352Y-109113466D01*
X157694971Y-109161085D01*
X157790209Y-109208704D01*
X158218780Y-107684895D02*
X158218780Y-108256323D01*
X158218780Y-107970609D02*
X157218780Y-107970609D01*
X157361638Y-108065847D01*
X157456876Y-108161085D01*
X157504495Y-108256323D01*
%TO.C,D62*%
X158218780Y-104291085D02*
X157218780Y-104291085D01*
X157218780Y-104052990D01*
X157266400Y-103910133D01*
X157361638Y-103814895D01*
X157456876Y-103767276D01*
X157647352Y-103719657D01*
X157790209Y-103719657D01*
X157980685Y-103767276D01*
X158075923Y-103814895D01*
X158171161Y-103910133D01*
X158218780Y-104052990D01*
X158218780Y-104291085D01*
X157218780Y-102862514D02*
X157218780Y-103052990D01*
X157266400Y-103148228D01*
X157314019Y-103195847D01*
X157456876Y-103291085D01*
X157647352Y-103338704D01*
X158028304Y-103338704D01*
X158123542Y-103291085D01*
X158171161Y-103243466D01*
X158218780Y-103148228D01*
X158218780Y-102957752D01*
X158171161Y-102862514D01*
X158123542Y-102814895D01*
X158028304Y-102767276D01*
X157790209Y-102767276D01*
X157694971Y-102814895D01*
X157647352Y-102862514D01*
X157599733Y-102957752D01*
X157599733Y-103148228D01*
X157647352Y-103243466D01*
X157694971Y-103291085D01*
X157790209Y-103338704D01*
X157314019Y-102386323D02*
X157266400Y-102338704D01*
X157218780Y-102243466D01*
X157218780Y-102005371D01*
X157266400Y-101910133D01*
X157314019Y-101862514D01*
X157409257Y-101814895D01*
X157504495Y-101814895D01*
X157647352Y-101862514D01*
X158218780Y-102433942D01*
X158218780Y-101814895D01*
%TO.C,D63*%
X158218780Y-98431085D02*
X157218780Y-98431085D01*
X157218780Y-98192990D01*
X157266400Y-98050133D01*
X157361638Y-97954895D01*
X157456876Y-97907276D01*
X157647352Y-97859657D01*
X157790209Y-97859657D01*
X157980685Y-97907276D01*
X158075923Y-97954895D01*
X158171161Y-98050133D01*
X158218780Y-98192990D01*
X158218780Y-98431085D01*
X157218780Y-97002514D02*
X157218780Y-97192990D01*
X157266400Y-97288228D01*
X157314019Y-97335847D01*
X157456876Y-97431085D01*
X157647352Y-97478704D01*
X158028304Y-97478704D01*
X158123542Y-97431085D01*
X158171161Y-97383466D01*
X158218780Y-97288228D01*
X158218780Y-97097752D01*
X158171161Y-97002514D01*
X158123542Y-96954895D01*
X158028304Y-96907276D01*
X157790209Y-96907276D01*
X157694971Y-96954895D01*
X157647352Y-97002514D01*
X157599733Y-97097752D01*
X157599733Y-97288228D01*
X157647352Y-97383466D01*
X157694971Y-97431085D01*
X157790209Y-97478704D01*
X157218780Y-96573942D02*
X157218780Y-95954895D01*
X157599733Y-96288228D01*
X157599733Y-96145371D01*
X157647352Y-96050133D01*
X157694971Y-96002514D01*
X157790209Y-95954895D01*
X158028304Y-95954895D01*
X158123542Y-96002514D01*
X158171161Y-96050133D01*
X158218780Y-96145371D01*
X158218780Y-96431085D01*
X158171161Y-96526323D01*
X158123542Y-96573942D01*
%TO.C,D64*%
X158218780Y-92581085D02*
X157218780Y-92581085D01*
X157218780Y-92342990D01*
X157266400Y-92200133D01*
X157361638Y-92104895D01*
X157456876Y-92057276D01*
X157647352Y-92009657D01*
X157790209Y-92009657D01*
X157980685Y-92057276D01*
X158075923Y-92104895D01*
X158171161Y-92200133D01*
X158218780Y-92342990D01*
X158218780Y-92581085D01*
X157218780Y-91152514D02*
X157218780Y-91342990D01*
X157266400Y-91438228D01*
X157314019Y-91485847D01*
X157456876Y-91581085D01*
X157647352Y-91628704D01*
X158028304Y-91628704D01*
X158123542Y-91581085D01*
X158171161Y-91533466D01*
X158218780Y-91438228D01*
X158218780Y-91247752D01*
X158171161Y-91152514D01*
X158123542Y-91104895D01*
X158028304Y-91057276D01*
X157790209Y-91057276D01*
X157694971Y-91104895D01*
X157647352Y-91152514D01*
X157599733Y-91247752D01*
X157599733Y-91438228D01*
X157647352Y-91533466D01*
X157694971Y-91581085D01*
X157790209Y-91628704D01*
X157552114Y-90200133D02*
X158218780Y-90200133D01*
X157171161Y-90438228D02*
X157885447Y-90676323D01*
X157885447Y-90057276D01*
%TO.C,D65*%
X158208780Y-86761085D02*
X157208780Y-86761085D01*
X157208780Y-86522990D01*
X157256400Y-86380133D01*
X157351638Y-86284895D01*
X157446876Y-86237276D01*
X157637352Y-86189657D01*
X157780209Y-86189657D01*
X157970685Y-86237276D01*
X158065923Y-86284895D01*
X158161161Y-86380133D01*
X158208780Y-86522990D01*
X158208780Y-86761085D01*
X157208780Y-85332514D02*
X157208780Y-85522990D01*
X157256400Y-85618228D01*
X157304019Y-85665847D01*
X157446876Y-85761085D01*
X157637352Y-85808704D01*
X158018304Y-85808704D01*
X158113542Y-85761085D01*
X158161161Y-85713466D01*
X158208780Y-85618228D01*
X158208780Y-85427752D01*
X158161161Y-85332514D01*
X158113542Y-85284895D01*
X158018304Y-85237276D01*
X157780209Y-85237276D01*
X157684971Y-85284895D01*
X157637352Y-85332514D01*
X157589733Y-85427752D01*
X157589733Y-85618228D01*
X157637352Y-85713466D01*
X157684971Y-85761085D01*
X157780209Y-85808704D01*
X157208780Y-84332514D02*
X157208780Y-84808704D01*
X157684971Y-84856323D01*
X157637352Y-84808704D01*
X157589733Y-84713466D01*
X157589733Y-84475371D01*
X157637352Y-84380133D01*
X157684971Y-84332514D01*
X157780209Y-84284895D01*
X158018304Y-84284895D01*
X158113542Y-84332514D01*
X158161161Y-84380133D01*
X158208780Y-84475371D01*
X158208780Y-84713466D01*
X158161161Y-84808704D01*
X158113542Y-84856323D01*
%TO.C,D66*%
X166566780Y-76679085D02*
X165566780Y-76679085D01*
X165566780Y-76440990D01*
X165614400Y-76298133D01*
X165709638Y-76202895D01*
X165804876Y-76155276D01*
X165995352Y-76107657D01*
X166138209Y-76107657D01*
X166328685Y-76155276D01*
X166423923Y-76202895D01*
X166519161Y-76298133D01*
X166566780Y-76440990D01*
X166566780Y-76679085D01*
X165566780Y-75250514D02*
X165566780Y-75440990D01*
X165614400Y-75536228D01*
X165662019Y-75583847D01*
X165804876Y-75679085D01*
X165995352Y-75726704D01*
X166376304Y-75726704D01*
X166471542Y-75679085D01*
X166519161Y-75631466D01*
X166566780Y-75536228D01*
X166566780Y-75345752D01*
X166519161Y-75250514D01*
X166471542Y-75202895D01*
X166376304Y-75155276D01*
X166138209Y-75155276D01*
X166042971Y-75202895D01*
X165995352Y-75250514D01*
X165947733Y-75345752D01*
X165947733Y-75536228D01*
X165995352Y-75631466D01*
X166042971Y-75679085D01*
X166138209Y-75726704D01*
X165566780Y-74298133D02*
X165566780Y-74488609D01*
X165614400Y-74583847D01*
X165662019Y-74631466D01*
X165804876Y-74726704D01*
X165995352Y-74774323D01*
X166376304Y-74774323D01*
X166471542Y-74726704D01*
X166519161Y-74679085D01*
X166566780Y-74583847D01*
X166566780Y-74393371D01*
X166519161Y-74298133D01*
X166471542Y-74250514D01*
X166376304Y-74202895D01*
X166138209Y-74202895D01*
X166042971Y-74250514D01*
X165995352Y-74298133D01*
X165947733Y-74393371D01*
X165947733Y-74583847D01*
X165995352Y-74679085D01*
X166042971Y-74726704D01*
X166138209Y-74774323D01*
%TO.C,D67*%
X166566780Y-70899085D02*
X165566780Y-70899085D01*
X165566780Y-70660990D01*
X165614400Y-70518133D01*
X165709638Y-70422895D01*
X165804876Y-70375276D01*
X165995352Y-70327657D01*
X166138209Y-70327657D01*
X166328685Y-70375276D01*
X166423923Y-70422895D01*
X166519161Y-70518133D01*
X166566780Y-70660990D01*
X166566780Y-70899085D01*
X165566780Y-69470514D02*
X165566780Y-69660990D01*
X165614400Y-69756228D01*
X165662019Y-69803847D01*
X165804876Y-69899085D01*
X165995352Y-69946704D01*
X166376304Y-69946704D01*
X166471542Y-69899085D01*
X166519161Y-69851466D01*
X166566780Y-69756228D01*
X166566780Y-69565752D01*
X166519161Y-69470514D01*
X166471542Y-69422895D01*
X166376304Y-69375276D01*
X166138209Y-69375276D01*
X166042971Y-69422895D01*
X165995352Y-69470514D01*
X165947733Y-69565752D01*
X165947733Y-69756228D01*
X165995352Y-69851466D01*
X166042971Y-69899085D01*
X166138209Y-69946704D01*
X165566780Y-69041942D02*
X165566780Y-68375276D01*
X166566780Y-68803847D01*
%TO.C,D68*%
X166566780Y-65019085D02*
X165566780Y-65019085D01*
X165566780Y-64780990D01*
X165614400Y-64638133D01*
X165709638Y-64542895D01*
X165804876Y-64495276D01*
X165995352Y-64447657D01*
X166138209Y-64447657D01*
X166328685Y-64495276D01*
X166423923Y-64542895D01*
X166519161Y-64638133D01*
X166566780Y-64780990D01*
X166566780Y-65019085D01*
X165566780Y-63590514D02*
X165566780Y-63780990D01*
X165614400Y-63876228D01*
X165662019Y-63923847D01*
X165804876Y-64019085D01*
X165995352Y-64066704D01*
X166376304Y-64066704D01*
X166471542Y-64019085D01*
X166519161Y-63971466D01*
X166566780Y-63876228D01*
X166566780Y-63685752D01*
X166519161Y-63590514D01*
X166471542Y-63542895D01*
X166376304Y-63495276D01*
X166138209Y-63495276D01*
X166042971Y-63542895D01*
X165995352Y-63590514D01*
X165947733Y-63685752D01*
X165947733Y-63876228D01*
X165995352Y-63971466D01*
X166042971Y-64019085D01*
X166138209Y-64066704D01*
X165995352Y-62923847D02*
X165947733Y-63019085D01*
X165900114Y-63066704D01*
X165804876Y-63114323D01*
X165757257Y-63114323D01*
X165662019Y-63066704D01*
X165614400Y-63019085D01*
X165566780Y-62923847D01*
X165566780Y-62733371D01*
X165614400Y-62638133D01*
X165662019Y-62590514D01*
X165757257Y-62542895D01*
X165804876Y-62542895D01*
X165900114Y-62590514D01*
X165947733Y-62638133D01*
X165995352Y-62733371D01*
X165995352Y-62923847D01*
X166042971Y-63019085D01*
X166090590Y-63066704D01*
X166185828Y-63114323D01*
X166376304Y-63114323D01*
X166471542Y-63066704D01*
X166519161Y-63019085D01*
X166566780Y-62923847D01*
X166566780Y-62733371D01*
X166519161Y-62638133D01*
X166471542Y-62590514D01*
X166376304Y-62542895D01*
X166185828Y-62542895D01*
X166090590Y-62590514D01*
X166042971Y-62638133D01*
X165995352Y-62733371D01*
%TO.C,D69*%
X166566780Y-59229085D02*
X165566780Y-59229085D01*
X165566780Y-58990990D01*
X165614400Y-58848133D01*
X165709638Y-58752895D01*
X165804876Y-58705276D01*
X165995352Y-58657657D01*
X166138209Y-58657657D01*
X166328685Y-58705276D01*
X166423923Y-58752895D01*
X166519161Y-58848133D01*
X166566780Y-58990990D01*
X166566780Y-59229085D01*
X165566780Y-57800514D02*
X165566780Y-57990990D01*
X165614400Y-58086228D01*
X165662019Y-58133847D01*
X165804876Y-58229085D01*
X165995352Y-58276704D01*
X166376304Y-58276704D01*
X166471542Y-58229085D01*
X166519161Y-58181466D01*
X166566780Y-58086228D01*
X166566780Y-57895752D01*
X166519161Y-57800514D01*
X166471542Y-57752895D01*
X166376304Y-57705276D01*
X166138209Y-57705276D01*
X166042971Y-57752895D01*
X165995352Y-57800514D01*
X165947733Y-57895752D01*
X165947733Y-58086228D01*
X165995352Y-58181466D01*
X166042971Y-58229085D01*
X166138209Y-58276704D01*
X166566780Y-57229085D02*
X166566780Y-57038609D01*
X166519161Y-56943371D01*
X166471542Y-56895752D01*
X166328685Y-56800514D01*
X166138209Y-56752895D01*
X165757257Y-56752895D01*
X165662019Y-56800514D01*
X165614400Y-56848133D01*
X165566780Y-56943371D01*
X165566780Y-57133847D01*
X165614400Y-57229085D01*
X165662019Y-57276704D01*
X165757257Y-57324323D01*
X165995352Y-57324323D01*
X166090590Y-57276704D01*
X166138209Y-57229085D01*
X166185828Y-57133847D01*
X166185828Y-56943371D01*
X166138209Y-56848133D01*
X166090590Y-56800514D01*
X165995352Y-56752895D01*
%TO.C,D70*%
X166556780Y-53349085D02*
X165556780Y-53349085D01*
X165556780Y-53110990D01*
X165604400Y-52968133D01*
X165699638Y-52872895D01*
X165794876Y-52825276D01*
X165985352Y-52777657D01*
X166128209Y-52777657D01*
X166318685Y-52825276D01*
X166413923Y-52872895D01*
X166509161Y-52968133D01*
X166556780Y-53110990D01*
X166556780Y-53349085D01*
X165556780Y-52444323D02*
X165556780Y-51777657D01*
X166556780Y-52206228D01*
X165556780Y-51206228D02*
X165556780Y-51110990D01*
X165604400Y-51015752D01*
X165652019Y-50968133D01*
X165747257Y-50920514D01*
X165937733Y-50872895D01*
X166175828Y-50872895D01*
X166366304Y-50920514D01*
X166461542Y-50968133D01*
X166509161Y-51015752D01*
X166556780Y-51110990D01*
X166556780Y-51206228D01*
X166509161Y-51301466D01*
X166461542Y-51349085D01*
X166366304Y-51396704D01*
X166175828Y-51444323D01*
X165937733Y-51444323D01*
X165747257Y-51396704D01*
X165652019Y-51349085D01*
X165604400Y-51301466D01*
X165556780Y-51206228D01*
%TO.C,R8*%
X117009733Y-85467180D02*
X116676400Y-84990990D01*
X116438304Y-85467180D02*
X116438304Y-84467180D01*
X116819257Y-84467180D01*
X116914495Y-84514800D01*
X116962114Y-84562419D01*
X117009733Y-84657657D01*
X117009733Y-84800514D01*
X116962114Y-84895752D01*
X116914495Y-84943371D01*
X116819257Y-84990990D01*
X116438304Y-84990990D01*
X117581161Y-84895752D02*
X117485923Y-84848133D01*
X117438304Y-84800514D01*
X117390685Y-84705276D01*
X117390685Y-84657657D01*
X117438304Y-84562419D01*
X117485923Y-84514800D01*
X117581161Y-84467180D01*
X117771638Y-84467180D01*
X117866876Y-84514800D01*
X117914495Y-84562419D01*
X117962114Y-84657657D01*
X117962114Y-84705276D01*
X117914495Y-84800514D01*
X117866876Y-84848133D01*
X117771638Y-84895752D01*
X117581161Y-84895752D01*
X117485923Y-84943371D01*
X117438304Y-84990990D01*
X117390685Y-85086228D01*
X117390685Y-85276704D01*
X117438304Y-85371942D01*
X117485923Y-85419561D01*
X117581161Y-85467180D01*
X117771638Y-85467180D01*
X117866876Y-85419561D01*
X117914495Y-85371942D01*
X117962114Y-85276704D01*
X117962114Y-85086228D01*
X117914495Y-84990990D01*
X117866876Y-84943371D01*
X117771638Y-84895752D01*
%TO.C,R9*%
X117017733Y-72097180D02*
X116684400Y-71620990D01*
X116446304Y-72097180D02*
X116446304Y-71097180D01*
X116827257Y-71097180D01*
X116922495Y-71144800D01*
X116970114Y-71192419D01*
X117017733Y-71287657D01*
X117017733Y-71430514D01*
X116970114Y-71525752D01*
X116922495Y-71573371D01*
X116827257Y-71620990D01*
X116446304Y-71620990D01*
X117493923Y-72097180D02*
X117684400Y-72097180D01*
X117779638Y-72049561D01*
X117827257Y-72001942D01*
X117922495Y-71859085D01*
X117970114Y-71668609D01*
X117970114Y-71287657D01*
X117922495Y-71192419D01*
X117874876Y-71144800D01*
X117779638Y-71097180D01*
X117589161Y-71097180D01*
X117493923Y-71144800D01*
X117446304Y-71192419D01*
X117398685Y-71287657D01*
X117398685Y-71525752D01*
X117446304Y-71620990D01*
X117493923Y-71668609D01*
X117589161Y-71716228D01*
X117779638Y-71716228D01*
X117874876Y-71668609D01*
X117922495Y-71620990D01*
X117970114Y-71525752D01*
%TO.C,R10*%
X116533542Y-78609180D02*
X116200209Y-78132990D01*
X115962114Y-78609180D02*
X115962114Y-77609180D01*
X116343066Y-77609180D01*
X116438304Y-77656800D01*
X116485923Y-77704419D01*
X116533542Y-77799657D01*
X116533542Y-77942514D01*
X116485923Y-78037752D01*
X116438304Y-78085371D01*
X116343066Y-78132990D01*
X115962114Y-78132990D01*
X117485923Y-78609180D02*
X116914495Y-78609180D01*
X117200209Y-78609180D02*
X117200209Y-77609180D01*
X117104971Y-77752038D01*
X117009733Y-77847276D01*
X116914495Y-77894895D01*
X118104971Y-77609180D02*
X118200209Y-77609180D01*
X118295447Y-77656800D01*
X118343066Y-77704419D01*
X118390685Y-77799657D01*
X118438304Y-77990133D01*
X118438304Y-78228228D01*
X118390685Y-78418704D01*
X118343066Y-78513942D01*
X118295447Y-78561561D01*
X118200209Y-78609180D01*
X118104971Y-78609180D01*
X118009733Y-78561561D01*
X117962114Y-78513942D01*
X117914495Y-78418704D01*
X117866876Y-78228228D01*
X117866876Y-77990133D01*
X117914495Y-77799657D01*
X117962114Y-77704419D01*
X118009733Y-77656800D01*
X118104971Y-77609180D01*
%TO.C,R11*%
X116533542Y-88769180D02*
X116200209Y-88292990D01*
X115962114Y-88769180D02*
X115962114Y-87769180D01*
X116343066Y-87769180D01*
X116438304Y-87816800D01*
X116485923Y-87864419D01*
X116533542Y-87959657D01*
X116533542Y-88102514D01*
X116485923Y-88197752D01*
X116438304Y-88245371D01*
X116343066Y-88292990D01*
X115962114Y-88292990D01*
X117485923Y-88769180D02*
X116914495Y-88769180D01*
X117200209Y-88769180D02*
X117200209Y-87769180D01*
X117104971Y-87912038D01*
X117009733Y-88007276D01*
X116914495Y-88054895D01*
X118438304Y-88769180D02*
X117866876Y-88769180D01*
X118152590Y-88769180D02*
X118152590Y-87769180D01*
X118057352Y-87912038D01*
X117962114Y-88007276D01*
X117866876Y-88054895D01*
%TO.C,R12*%
X116565542Y-67913180D02*
X116232209Y-67436990D01*
X115994114Y-67913180D02*
X115994114Y-66913180D01*
X116375066Y-66913180D01*
X116470304Y-66960800D01*
X116517923Y-67008419D01*
X116565542Y-67103657D01*
X116565542Y-67246514D01*
X116517923Y-67341752D01*
X116470304Y-67389371D01*
X116375066Y-67436990D01*
X115994114Y-67436990D01*
X117517923Y-67913180D02*
X116946495Y-67913180D01*
X117232209Y-67913180D02*
X117232209Y-66913180D01*
X117136971Y-67056038D01*
X117041733Y-67151276D01*
X116946495Y-67198895D01*
X117898876Y-67008419D02*
X117946495Y-66960800D01*
X118041733Y-66913180D01*
X118279828Y-66913180D01*
X118375066Y-66960800D01*
X118422685Y-67008419D01*
X118470304Y-67103657D01*
X118470304Y-67198895D01*
X118422685Y-67341752D01*
X117851257Y-67913180D01*
X118470304Y-67913180D01*
%TO.C,R13*%
X116533542Y-81911180D02*
X116200209Y-81434990D01*
X115962114Y-81911180D02*
X115962114Y-80911180D01*
X116343066Y-80911180D01*
X116438304Y-80958800D01*
X116485923Y-81006419D01*
X116533542Y-81101657D01*
X116533542Y-81244514D01*
X116485923Y-81339752D01*
X116438304Y-81387371D01*
X116343066Y-81434990D01*
X115962114Y-81434990D01*
X117485923Y-81911180D02*
X116914495Y-81911180D01*
X117200209Y-81911180D02*
X117200209Y-80911180D01*
X117104971Y-81054038D01*
X117009733Y-81149276D01*
X116914495Y-81196895D01*
X117819257Y-80911180D02*
X118438304Y-80911180D01*
X118104971Y-81292133D01*
X118247828Y-81292133D01*
X118343066Y-81339752D01*
X118390685Y-81387371D01*
X118438304Y-81482609D01*
X118438304Y-81720704D01*
X118390685Y-81815942D01*
X118343066Y-81863561D01*
X118247828Y-81911180D01*
X117962114Y-81911180D01*
X117866876Y-81863561D01*
X117819257Y-81815942D01*
%TO.C,R14*%
X116533542Y-75307180D02*
X116200209Y-74830990D01*
X115962114Y-75307180D02*
X115962114Y-74307180D01*
X116343066Y-74307180D01*
X116438304Y-74354800D01*
X116485923Y-74402419D01*
X116533542Y-74497657D01*
X116533542Y-74640514D01*
X116485923Y-74735752D01*
X116438304Y-74783371D01*
X116343066Y-74830990D01*
X115962114Y-74830990D01*
X117485923Y-75307180D02*
X116914495Y-75307180D01*
X117200209Y-75307180D02*
X117200209Y-74307180D01*
X117104971Y-74450038D01*
X117009733Y-74545276D01*
X116914495Y-74592895D01*
X118343066Y-74640514D02*
X118343066Y-75307180D01*
X118104971Y-74259561D02*
X117866876Y-74973847D01*
X118485923Y-74973847D01*
%TO.C,U1*%
X134776780Y-127522704D02*
X135586304Y-127522704D01*
X135681542Y-127475085D01*
X135729161Y-127427466D01*
X135776780Y-127332228D01*
X135776780Y-127141752D01*
X135729161Y-127046514D01*
X135681542Y-126998895D01*
X135586304Y-126951276D01*
X134776780Y-126951276D01*
X135776780Y-125951276D02*
X135776780Y-126522704D01*
X135776780Y-126236990D02*
X134776780Y-126236990D01*
X134919638Y-126332228D01*
X135014876Y-126427466D01*
X135062495Y-126522704D01*
%TO.C,D71*%
X67756780Y-86579085D02*
X66756780Y-86579085D01*
X66756780Y-86340990D01*
X66804400Y-86198133D01*
X66899638Y-86102895D01*
X66994876Y-86055276D01*
X67185352Y-86007657D01*
X67328209Y-86007657D01*
X67518685Y-86055276D01*
X67613923Y-86102895D01*
X67709161Y-86198133D01*
X67756780Y-86340990D01*
X67756780Y-86579085D01*
X66756780Y-85674323D02*
X66756780Y-85007657D01*
X67756780Y-85436228D01*
X67756780Y-84102895D02*
X67756780Y-84674323D01*
X67756780Y-84388609D02*
X66756780Y-84388609D01*
X66899638Y-84483847D01*
X66994876Y-84579085D01*
X67042495Y-84674323D01*
%TO.C,D72*%
X67756780Y-92409085D02*
X66756780Y-92409085D01*
X66756780Y-92170990D01*
X66804400Y-92028133D01*
X66899638Y-91932895D01*
X66994876Y-91885276D01*
X67185352Y-91837657D01*
X67328209Y-91837657D01*
X67518685Y-91885276D01*
X67613923Y-91932895D01*
X67709161Y-92028133D01*
X67756780Y-92170990D01*
X67756780Y-92409085D01*
X66756780Y-91504323D02*
X66756780Y-90837657D01*
X67756780Y-91266228D01*
X66852019Y-90504323D02*
X66804400Y-90456704D01*
X66756780Y-90361466D01*
X66756780Y-90123371D01*
X66804400Y-90028133D01*
X66852019Y-89980514D01*
X66947257Y-89932895D01*
X67042495Y-89932895D01*
X67185352Y-89980514D01*
X67756780Y-90551942D01*
X67756780Y-89932895D01*
%TO.C,D73*%
X67766780Y-98199085D02*
X66766780Y-98199085D01*
X66766780Y-97960990D01*
X66814400Y-97818133D01*
X66909638Y-97722895D01*
X67004876Y-97675276D01*
X67195352Y-97627657D01*
X67338209Y-97627657D01*
X67528685Y-97675276D01*
X67623923Y-97722895D01*
X67719161Y-97818133D01*
X67766780Y-97960990D01*
X67766780Y-98199085D01*
X66766780Y-97294323D02*
X66766780Y-96627657D01*
X67766780Y-97056228D01*
X66766780Y-96341942D02*
X66766780Y-95722895D01*
X67147733Y-96056228D01*
X67147733Y-95913371D01*
X67195352Y-95818133D01*
X67242971Y-95770514D01*
X67338209Y-95722895D01*
X67576304Y-95722895D01*
X67671542Y-95770514D01*
X67719161Y-95818133D01*
X67766780Y-95913371D01*
X67766780Y-96199085D01*
X67719161Y-96294323D01*
X67671542Y-96341942D01*
%TO.C,D74*%
X67766780Y-103989085D02*
X66766780Y-103989085D01*
X66766780Y-103750990D01*
X66814400Y-103608133D01*
X66909638Y-103512895D01*
X67004876Y-103465276D01*
X67195352Y-103417657D01*
X67338209Y-103417657D01*
X67528685Y-103465276D01*
X67623923Y-103512895D01*
X67719161Y-103608133D01*
X67766780Y-103750990D01*
X67766780Y-103989085D01*
X66766780Y-103084323D02*
X66766780Y-102417657D01*
X67766780Y-102846228D01*
X67100114Y-101608133D02*
X67766780Y-101608133D01*
X66719161Y-101846228D02*
X67433447Y-102084323D01*
X67433447Y-101465276D01*
%TO.C,D75*%
X67756780Y-109907085D02*
X66756780Y-109907085D01*
X66756780Y-109668990D01*
X66804400Y-109526133D01*
X66899638Y-109430895D01*
X66994876Y-109383276D01*
X67185352Y-109335657D01*
X67328209Y-109335657D01*
X67518685Y-109383276D01*
X67613923Y-109430895D01*
X67709161Y-109526133D01*
X67756780Y-109668990D01*
X67756780Y-109907085D01*
X66756780Y-109002323D02*
X66756780Y-108335657D01*
X67756780Y-108764228D01*
X66756780Y-107478514D02*
X66756780Y-107954704D01*
X67232971Y-108002323D01*
X67185352Y-107954704D01*
X67137733Y-107859466D01*
X67137733Y-107621371D01*
X67185352Y-107526133D01*
X67232971Y-107478514D01*
X67328209Y-107430895D01*
X67566304Y-107430895D01*
X67661542Y-107478514D01*
X67709161Y-107526133D01*
X67756780Y-107621371D01*
X67756780Y-107859466D01*
X67709161Y-107954704D01*
X67661542Y-108002323D01*
%TO.C,D76*%
X75666780Y-52749085D02*
X74666780Y-52749085D01*
X74666780Y-52510990D01*
X74714400Y-52368133D01*
X74809638Y-52272895D01*
X74904876Y-52225276D01*
X75095352Y-52177657D01*
X75238209Y-52177657D01*
X75428685Y-52225276D01*
X75523923Y-52272895D01*
X75619161Y-52368133D01*
X75666780Y-52510990D01*
X75666780Y-52749085D01*
X74666780Y-51844323D02*
X74666780Y-51177657D01*
X75666780Y-51606228D01*
X74666780Y-50368133D02*
X74666780Y-50558609D01*
X74714400Y-50653847D01*
X74762019Y-50701466D01*
X74904876Y-50796704D01*
X75095352Y-50844323D01*
X75476304Y-50844323D01*
X75571542Y-50796704D01*
X75619161Y-50749085D01*
X75666780Y-50653847D01*
X75666780Y-50463371D01*
X75619161Y-50368133D01*
X75571542Y-50320514D01*
X75476304Y-50272895D01*
X75238209Y-50272895D01*
X75142971Y-50320514D01*
X75095352Y-50368133D01*
X75047733Y-50463371D01*
X75047733Y-50653847D01*
X75095352Y-50749085D01*
X75142971Y-50796704D01*
X75238209Y-50844323D01*
%TO.C,D77*%
X75656780Y-58579085D02*
X74656780Y-58579085D01*
X74656780Y-58340990D01*
X74704400Y-58198133D01*
X74799638Y-58102895D01*
X74894876Y-58055276D01*
X75085352Y-58007657D01*
X75228209Y-58007657D01*
X75418685Y-58055276D01*
X75513923Y-58102895D01*
X75609161Y-58198133D01*
X75656780Y-58340990D01*
X75656780Y-58579085D01*
X74656780Y-57674323D02*
X74656780Y-57007657D01*
X75656780Y-57436228D01*
X74656780Y-56721942D02*
X74656780Y-56055276D01*
X75656780Y-56483847D01*
%TO.C,D78*%
X75646780Y-64409085D02*
X74646780Y-64409085D01*
X74646780Y-64170990D01*
X74694400Y-64028133D01*
X74789638Y-63932895D01*
X74884876Y-63885276D01*
X75075352Y-63837657D01*
X75218209Y-63837657D01*
X75408685Y-63885276D01*
X75503923Y-63932895D01*
X75599161Y-64028133D01*
X75646780Y-64170990D01*
X75646780Y-64409085D01*
X74646780Y-63504323D02*
X74646780Y-62837657D01*
X75646780Y-63266228D01*
X75075352Y-62313847D02*
X75027733Y-62409085D01*
X74980114Y-62456704D01*
X74884876Y-62504323D01*
X74837257Y-62504323D01*
X74742019Y-62456704D01*
X74694400Y-62409085D01*
X74646780Y-62313847D01*
X74646780Y-62123371D01*
X74694400Y-62028133D01*
X74742019Y-61980514D01*
X74837257Y-61932895D01*
X74884876Y-61932895D01*
X74980114Y-61980514D01*
X75027733Y-62028133D01*
X75075352Y-62123371D01*
X75075352Y-62313847D01*
X75122971Y-62409085D01*
X75170590Y-62456704D01*
X75265828Y-62504323D01*
X75456304Y-62504323D01*
X75551542Y-62456704D01*
X75599161Y-62409085D01*
X75646780Y-62313847D01*
X75646780Y-62123371D01*
X75599161Y-62028133D01*
X75551542Y-61980514D01*
X75456304Y-61932895D01*
X75265828Y-61932895D01*
X75170590Y-61980514D01*
X75122971Y-62028133D01*
X75075352Y-62123371D01*
%TO.C,D79*%
X75646780Y-70219085D02*
X74646780Y-70219085D01*
X74646780Y-69980990D01*
X74694400Y-69838133D01*
X74789638Y-69742895D01*
X74884876Y-69695276D01*
X75075352Y-69647657D01*
X75218209Y-69647657D01*
X75408685Y-69695276D01*
X75503923Y-69742895D01*
X75599161Y-69838133D01*
X75646780Y-69980990D01*
X75646780Y-70219085D01*
X74646780Y-69314323D02*
X74646780Y-68647657D01*
X75646780Y-69076228D01*
X75646780Y-68219085D02*
X75646780Y-68028609D01*
X75599161Y-67933371D01*
X75551542Y-67885752D01*
X75408685Y-67790514D01*
X75218209Y-67742895D01*
X74837257Y-67742895D01*
X74742019Y-67790514D01*
X74694400Y-67838133D01*
X74646780Y-67933371D01*
X74646780Y-68123847D01*
X74694400Y-68219085D01*
X74742019Y-68266704D01*
X74837257Y-68314323D01*
X75075352Y-68314323D01*
X75170590Y-68266704D01*
X75218209Y-68219085D01*
X75265828Y-68123847D01*
X75265828Y-67933371D01*
X75218209Y-67838133D01*
X75170590Y-67790514D01*
X75075352Y-67742895D01*
%TO.C,D80*%
X75636780Y-76079085D02*
X74636780Y-76079085D01*
X74636780Y-75840990D01*
X74684400Y-75698133D01*
X74779638Y-75602895D01*
X74874876Y-75555276D01*
X75065352Y-75507657D01*
X75208209Y-75507657D01*
X75398685Y-75555276D01*
X75493923Y-75602895D01*
X75589161Y-75698133D01*
X75636780Y-75840990D01*
X75636780Y-76079085D01*
X75065352Y-74936228D02*
X75017733Y-75031466D01*
X74970114Y-75079085D01*
X74874876Y-75126704D01*
X74827257Y-75126704D01*
X74732019Y-75079085D01*
X74684400Y-75031466D01*
X74636780Y-74936228D01*
X74636780Y-74745752D01*
X74684400Y-74650514D01*
X74732019Y-74602895D01*
X74827257Y-74555276D01*
X74874876Y-74555276D01*
X74970114Y-74602895D01*
X75017733Y-74650514D01*
X75065352Y-74745752D01*
X75065352Y-74936228D01*
X75112971Y-75031466D01*
X75160590Y-75079085D01*
X75255828Y-75126704D01*
X75446304Y-75126704D01*
X75541542Y-75079085D01*
X75589161Y-75031466D01*
X75636780Y-74936228D01*
X75636780Y-74745752D01*
X75589161Y-74650514D01*
X75541542Y-74602895D01*
X75446304Y-74555276D01*
X75255828Y-74555276D01*
X75160590Y-74602895D01*
X75112971Y-74650514D01*
X75065352Y-74745752D01*
X74636780Y-73936228D02*
X74636780Y-73840990D01*
X74684400Y-73745752D01*
X74732019Y-73698133D01*
X74827257Y-73650514D01*
X75017733Y-73602895D01*
X75255828Y-73602895D01*
X75446304Y-73650514D01*
X75541542Y-73698133D01*
X75589161Y-73745752D01*
X75636780Y-73840990D01*
X75636780Y-73936228D01*
X75589161Y-74031466D01*
X75541542Y-74079085D01*
X75446304Y-74126704D01*
X75255828Y-74174323D01*
X75017733Y-74174323D01*
X74827257Y-74126704D01*
X74732019Y-74079085D01*
X74684400Y-74031466D01*
X74636780Y-73936228D01*
%TO.C,D81*%
X97850114Y-118951180D02*
X97850114Y-117951180D01*
X98088209Y-117951180D01*
X98231066Y-117998800D01*
X98326304Y-118094038D01*
X98373923Y-118189276D01*
X98421542Y-118379752D01*
X98421542Y-118522609D01*
X98373923Y-118713085D01*
X98326304Y-118808323D01*
X98231066Y-118903561D01*
X98088209Y-118951180D01*
X97850114Y-118951180D01*
X98992971Y-118379752D02*
X98897733Y-118332133D01*
X98850114Y-118284514D01*
X98802495Y-118189276D01*
X98802495Y-118141657D01*
X98850114Y-118046419D01*
X98897733Y-117998800D01*
X98992971Y-117951180D01*
X99183447Y-117951180D01*
X99278685Y-117998800D01*
X99326304Y-118046419D01*
X99373923Y-118141657D01*
X99373923Y-118189276D01*
X99326304Y-118284514D01*
X99278685Y-118332133D01*
X99183447Y-118379752D01*
X98992971Y-118379752D01*
X98897733Y-118427371D01*
X98850114Y-118474990D01*
X98802495Y-118570228D01*
X98802495Y-118760704D01*
X98850114Y-118855942D01*
X98897733Y-118903561D01*
X98992971Y-118951180D01*
X99183447Y-118951180D01*
X99278685Y-118903561D01*
X99326304Y-118855942D01*
X99373923Y-118760704D01*
X99373923Y-118570228D01*
X99326304Y-118474990D01*
X99278685Y-118427371D01*
X99183447Y-118379752D01*
X100326304Y-118951180D02*
X99754876Y-118951180D01*
X100040590Y-118951180D02*
X100040590Y-117951180D01*
X99945352Y-118094038D01*
X99850114Y-118189276D01*
X99754876Y-118236895D01*
%TO.C,D82*%
X97850114Y-51617180D02*
X97850114Y-50617180D01*
X98088209Y-50617180D01*
X98231066Y-50664800D01*
X98326304Y-50760038D01*
X98373923Y-50855276D01*
X98421542Y-51045752D01*
X98421542Y-51188609D01*
X98373923Y-51379085D01*
X98326304Y-51474323D01*
X98231066Y-51569561D01*
X98088209Y-51617180D01*
X97850114Y-51617180D01*
X98992971Y-51045752D02*
X98897733Y-50998133D01*
X98850114Y-50950514D01*
X98802495Y-50855276D01*
X98802495Y-50807657D01*
X98850114Y-50712419D01*
X98897733Y-50664800D01*
X98992971Y-50617180D01*
X99183447Y-50617180D01*
X99278685Y-50664800D01*
X99326304Y-50712419D01*
X99373923Y-50807657D01*
X99373923Y-50855276D01*
X99326304Y-50950514D01*
X99278685Y-50998133D01*
X99183447Y-51045752D01*
X98992971Y-51045752D01*
X98897733Y-51093371D01*
X98850114Y-51140990D01*
X98802495Y-51236228D01*
X98802495Y-51426704D01*
X98850114Y-51521942D01*
X98897733Y-51569561D01*
X98992971Y-51617180D01*
X99183447Y-51617180D01*
X99278685Y-51569561D01*
X99326304Y-51521942D01*
X99373923Y-51426704D01*
X99373923Y-51236228D01*
X99326304Y-51140990D01*
X99278685Y-51093371D01*
X99183447Y-51045752D01*
X99754876Y-50712419D02*
X99802495Y-50664800D01*
X99897733Y-50617180D01*
X100135828Y-50617180D01*
X100231066Y-50664800D01*
X100278685Y-50712419D01*
X100326304Y-50807657D01*
X100326304Y-50902895D01*
X100278685Y-51045752D01*
X99707257Y-51617180D01*
X100326304Y-51617180D01*
%TO.C,D83*%
X92060114Y-118961180D02*
X92060114Y-117961180D01*
X92298209Y-117961180D01*
X92441066Y-118008800D01*
X92536304Y-118104038D01*
X92583923Y-118199276D01*
X92631542Y-118389752D01*
X92631542Y-118532609D01*
X92583923Y-118723085D01*
X92536304Y-118818323D01*
X92441066Y-118913561D01*
X92298209Y-118961180D01*
X92060114Y-118961180D01*
X93202971Y-118389752D02*
X93107733Y-118342133D01*
X93060114Y-118294514D01*
X93012495Y-118199276D01*
X93012495Y-118151657D01*
X93060114Y-118056419D01*
X93107733Y-118008800D01*
X93202971Y-117961180D01*
X93393447Y-117961180D01*
X93488685Y-118008800D01*
X93536304Y-118056419D01*
X93583923Y-118151657D01*
X93583923Y-118199276D01*
X93536304Y-118294514D01*
X93488685Y-118342133D01*
X93393447Y-118389752D01*
X93202971Y-118389752D01*
X93107733Y-118437371D01*
X93060114Y-118484990D01*
X93012495Y-118580228D01*
X93012495Y-118770704D01*
X93060114Y-118865942D01*
X93107733Y-118913561D01*
X93202971Y-118961180D01*
X93393447Y-118961180D01*
X93488685Y-118913561D01*
X93536304Y-118865942D01*
X93583923Y-118770704D01*
X93583923Y-118580228D01*
X93536304Y-118484990D01*
X93488685Y-118437371D01*
X93393447Y-118389752D01*
X93917257Y-117961180D02*
X94536304Y-117961180D01*
X94202971Y-118342133D01*
X94345828Y-118342133D01*
X94441066Y-118389752D01*
X94488685Y-118437371D01*
X94536304Y-118532609D01*
X94536304Y-118770704D01*
X94488685Y-118865942D01*
X94441066Y-118913561D01*
X94345828Y-118961180D01*
X94060114Y-118961180D01*
X93964876Y-118913561D01*
X93917257Y-118865942D01*
%TO.C,D84*%
X74390114Y-84517180D02*
X74390114Y-83517180D01*
X74628209Y-83517180D01*
X74771066Y-83564800D01*
X74866304Y-83660038D01*
X74913923Y-83755276D01*
X74961542Y-83945752D01*
X74961542Y-84088609D01*
X74913923Y-84279085D01*
X74866304Y-84374323D01*
X74771066Y-84469561D01*
X74628209Y-84517180D01*
X74390114Y-84517180D01*
X75532971Y-83945752D02*
X75437733Y-83898133D01*
X75390114Y-83850514D01*
X75342495Y-83755276D01*
X75342495Y-83707657D01*
X75390114Y-83612419D01*
X75437733Y-83564800D01*
X75532971Y-83517180D01*
X75723447Y-83517180D01*
X75818685Y-83564800D01*
X75866304Y-83612419D01*
X75913923Y-83707657D01*
X75913923Y-83755276D01*
X75866304Y-83850514D01*
X75818685Y-83898133D01*
X75723447Y-83945752D01*
X75532971Y-83945752D01*
X75437733Y-83993371D01*
X75390114Y-84040990D01*
X75342495Y-84136228D01*
X75342495Y-84326704D01*
X75390114Y-84421942D01*
X75437733Y-84469561D01*
X75532971Y-84517180D01*
X75723447Y-84517180D01*
X75818685Y-84469561D01*
X75866304Y-84421942D01*
X75913923Y-84326704D01*
X75913923Y-84136228D01*
X75866304Y-84040990D01*
X75818685Y-83993371D01*
X75723447Y-83945752D01*
X76771066Y-83850514D02*
X76771066Y-84517180D01*
X76532971Y-83469561D02*
X76294876Y-84183847D01*
X76913923Y-84183847D01*
%TO.C,D85*%
X92040114Y-51607180D02*
X92040114Y-50607180D01*
X92278209Y-50607180D01*
X92421066Y-50654800D01*
X92516304Y-50750038D01*
X92563923Y-50845276D01*
X92611542Y-51035752D01*
X92611542Y-51178609D01*
X92563923Y-51369085D01*
X92516304Y-51464323D01*
X92421066Y-51559561D01*
X92278209Y-51607180D01*
X92040114Y-51607180D01*
X93182971Y-51035752D02*
X93087733Y-50988133D01*
X93040114Y-50940514D01*
X92992495Y-50845276D01*
X92992495Y-50797657D01*
X93040114Y-50702419D01*
X93087733Y-50654800D01*
X93182971Y-50607180D01*
X93373447Y-50607180D01*
X93468685Y-50654800D01*
X93516304Y-50702419D01*
X93563923Y-50797657D01*
X93563923Y-50845276D01*
X93516304Y-50940514D01*
X93468685Y-50988133D01*
X93373447Y-51035752D01*
X93182971Y-51035752D01*
X93087733Y-51083371D01*
X93040114Y-51130990D01*
X92992495Y-51226228D01*
X92992495Y-51416704D01*
X93040114Y-51511942D01*
X93087733Y-51559561D01*
X93182971Y-51607180D01*
X93373447Y-51607180D01*
X93468685Y-51559561D01*
X93516304Y-51511942D01*
X93563923Y-51416704D01*
X93563923Y-51226228D01*
X93516304Y-51130990D01*
X93468685Y-51083371D01*
X93373447Y-51035752D01*
X94468685Y-50607180D02*
X93992495Y-50607180D01*
X93944876Y-51083371D01*
X93992495Y-51035752D01*
X94087733Y-50988133D01*
X94325828Y-50988133D01*
X94421066Y-51035752D01*
X94468685Y-51083371D01*
X94516304Y-51178609D01*
X94516304Y-51416704D01*
X94468685Y-51511942D01*
X94421066Y-51559561D01*
X94325828Y-51607180D01*
X94087733Y-51607180D01*
X93992495Y-51559561D01*
X93944876Y-51511942D01*
%TO.C,D86*%
X80200114Y-84517180D02*
X80200114Y-83517180D01*
X80438209Y-83517180D01*
X80581066Y-83564800D01*
X80676304Y-83660038D01*
X80723923Y-83755276D01*
X80771542Y-83945752D01*
X80771542Y-84088609D01*
X80723923Y-84279085D01*
X80676304Y-84374323D01*
X80581066Y-84469561D01*
X80438209Y-84517180D01*
X80200114Y-84517180D01*
X81342971Y-83945752D02*
X81247733Y-83898133D01*
X81200114Y-83850514D01*
X81152495Y-83755276D01*
X81152495Y-83707657D01*
X81200114Y-83612419D01*
X81247733Y-83564800D01*
X81342971Y-83517180D01*
X81533447Y-83517180D01*
X81628685Y-83564800D01*
X81676304Y-83612419D01*
X81723923Y-83707657D01*
X81723923Y-83755276D01*
X81676304Y-83850514D01*
X81628685Y-83898133D01*
X81533447Y-83945752D01*
X81342971Y-83945752D01*
X81247733Y-83993371D01*
X81200114Y-84040990D01*
X81152495Y-84136228D01*
X81152495Y-84326704D01*
X81200114Y-84421942D01*
X81247733Y-84469561D01*
X81342971Y-84517180D01*
X81533447Y-84517180D01*
X81628685Y-84469561D01*
X81676304Y-84421942D01*
X81723923Y-84326704D01*
X81723923Y-84136228D01*
X81676304Y-84040990D01*
X81628685Y-83993371D01*
X81533447Y-83945752D01*
X82581066Y-83517180D02*
X82390590Y-83517180D01*
X82295352Y-83564800D01*
X82247733Y-83612419D01*
X82152495Y-83755276D01*
X82104876Y-83945752D01*
X82104876Y-84326704D01*
X82152495Y-84421942D01*
X82200114Y-84469561D01*
X82295352Y-84517180D01*
X82485828Y-84517180D01*
X82581066Y-84469561D01*
X82628685Y-84421942D01*
X82676304Y-84326704D01*
X82676304Y-84088609D01*
X82628685Y-83993371D01*
X82581066Y-83945752D01*
X82485828Y-83898133D01*
X82295352Y-83898133D01*
X82200114Y-83945752D01*
X82152495Y-83993371D01*
X82104876Y-84088609D01*
%TO.C,D87*%
X86270114Y-118941180D02*
X86270114Y-117941180D01*
X86508209Y-117941180D01*
X86651066Y-117988800D01*
X86746304Y-118084038D01*
X86793923Y-118179276D01*
X86841542Y-118369752D01*
X86841542Y-118512609D01*
X86793923Y-118703085D01*
X86746304Y-118798323D01*
X86651066Y-118893561D01*
X86508209Y-118941180D01*
X86270114Y-118941180D01*
X87412971Y-118369752D02*
X87317733Y-118322133D01*
X87270114Y-118274514D01*
X87222495Y-118179276D01*
X87222495Y-118131657D01*
X87270114Y-118036419D01*
X87317733Y-117988800D01*
X87412971Y-117941180D01*
X87603447Y-117941180D01*
X87698685Y-117988800D01*
X87746304Y-118036419D01*
X87793923Y-118131657D01*
X87793923Y-118179276D01*
X87746304Y-118274514D01*
X87698685Y-118322133D01*
X87603447Y-118369752D01*
X87412971Y-118369752D01*
X87317733Y-118417371D01*
X87270114Y-118464990D01*
X87222495Y-118560228D01*
X87222495Y-118750704D01*
X87270114Y-118845942D01*
X87317733Y-118893561D01*
X87412971Y-118941180D01*
X87603447Y-118941180D01*
X87698685Y-118893561D01*
X87746304Y-118845942D01*
X87793923Y-118750704D01*
X87793923Y-118560228D01*
X87746304Y-118464990D01*
X87698685Y-118417371D01*
X87603447Y-118369752D01*
X88127257Y-117941180D02*
X88793923Y-117941180D01*
X88365352Y-118941180D01*
%TO.C,D88*%
X86190114Y-51597180D02*
X86190114Y-50597180D01*
X86428209Y-50597180D01*
X86571066Y-50644800D01*
X86666304Y-50740038D01*
X86713923Y-50835276D01*
X86761542Y-51025752D01*
X86761542Y-51168609D01*
X86713923Y-51359085D01*
X86666304Y-51454323D01*
X86571066Y-51549561D01*
X86428209Y-51597180D01*
X86190114Y-51597180D01*
X87332971Y-51025752D02*
X87237733Y-50978133D01*
X87190114Y-50930514D01*
X87142495Y-50835276D01*
X87142495Y-50787657D01*
X87190114Y-50692419D01*
X87237733Y-50644800D01*
X87332971Y-50597180D01*
X87523447Y-50597180D01*
X87618685Y-50644800D01*
X87666304Y-50692419D01*
X87713923Y-50787657D01*
X87713923Y-50835276D01*
X87666304Y-50930514D01*
X87618685Y-50978133D01*
X87523447Y-51025752D01*
X87332971Y-51025752D01*
X87237733Y-51073371D01*
X87190114Y-51120990D01*
X87142495Y-51216228D01*
X87142495Y-51406704D01*
X87190114Y-51501942D01*
X87237733Y-51549561D01*
X87332971Y-51597180D01*
X87523447Y-51597180D01*
X87618685Y-51549561D01*
X87666304Y-51501942D01*
X87713923Y-51406704D01*
X87713923Y-51216228D01*
X87666304Y-51120990D01*
X87618685Y-51073371D01*
X87523447Y-51025752D01*
X88285352Y-51025752D02*
X88190114Y-50978133D01*
X88142495Y-50930514D01*
X88094876Y-50835276D01*
X88094876Y-50787657D01*
X88142495Y-50692419D01*
X88190114Y-50644800D01*
X88285352Y-50597180D01*
X88475828Y-50597180D01*
X88571066Y-50644800D01*
X88618685Y-50692419D01*
X88666304Y-50787657D01*
X88666304Y-50835276D01*
X88618685Y-50930514D01*
X88571066Y-50978133D01*
X88475828Y-51025752D01*
X88285352Y-51025752D01*
X88190114Y-51073371D01*
X88142495Y-51120990D01*
X88094876Y-51216228D01*
X88094876Y-51406704D01*
X88142495Y-51501942D01*
X88190114Y-51549561D01*
X88285352Y-51597180D01*
X88475828Y-51597180D01*
X88571066Y-51549561D01*
X88618685Y-51501942D01*
X88666304Y-51406704D01*
X88666304Y-51216228D01*
X88618685Y-51120990D01*
X88571066Y-51073371D01*
X88475828Y-51025752D01*
%TO.C,D89*%
X86000114Y-84517180D02*
X86000114Y-83517180D01*
X86238209Y-83517180D01*
X86381066Y-83564800D01*
X86476304Y-83660038D01*
X86523923Y-83755276D01*
X86571542Y-83945752D01*
X86571542Y-84088609D01*
X86523923Y-84279085D01*
X86476304Y-84374323D01*
X86381066Y-84469561D01*
X86238209Y-84517180D01*
X86000114Y-84517180D01*
X87142971Y-83945752D02*
X87047733Y-83898133D01*
X87000114Y-83850514D01*
X86952495Y-83755276D01*
X86952495Y-83707657D01*
X87000114Y-83612419D01*
X87047733Y-83564800D01*
X87142971Y-83517180D01*
X87333447Y-83517180D01*
X87428685Y-83564800D01*
X87476304Y-83612419D01*
X87523923Y-83707657D01*
X87523923Y-83755276D01*
X87476304Y-83850514D01*
X87428685Y-83898133D01*
X87333447Y-83945752D01*
X87142971Y-83945752D01*
X87047733Y-83993371D01*
X87000114Y-84040990D01*
X86952495Y-84136228D01*
X86952495Y-84326704D01*
X87000114Y-84421942D01*
X87047733Y-84469561D01*
X87142971Y-84517180D01*
X87333447Y-84517180D01*
X87428685Y-84469561D01*
X87476304Y-84421942D01*
X87523923Y-84326704D01*
X87523923Y-84136228D01*
X87476304Y-84040990D01*
X87428685Y-83993371D01*
X87333447Y-83945752D01*
X88000114Y-84517180D02*
X88190590Y-84517180D01*
X88285828Y-84469561D01*
X88333447Y-84421942D01*
X88428685Y-84279085D01*
X88476304Y-84088609D01*
X88476304Y-83707657D01*
X88428685Y-83612419D01*
X88381066Y-83564800D01*
X88285828Y-83517180D01*
X88095352Y-83517180D01*
X88000114Y-83564800D01*
X87952495Y-83612419D01*
X87904876Y-83707657D01*
X87904876Y-83945752D01*
X87952495Y-84040990D01*
X88000114Y-84088609D01*
X88095352Y-84136228D01*
X88285828Y-84136228D01*
X88381066Y-84088609D01*
X88428685Y-84040990D01*
X88476304Y-83945752D01*
%TO.C,D90*%
X80450114Y-118931180D02*
X80450114Y-117931180D01*
X80688209Y-117931180D01*
X80831066Y-117978800D01*
X80926304Y-118074038D01*
X80973923Y-118169276D01*
X81021542Y-118359752D01*
X81021542Y-118502609D01*
X80973923Y-118693085D01*
X80926304Y-118788323D01*
X80831066Y-118883561D01*
X80688209Y-118931180D01*
X80450114Y-118931180D01*
X81497733Y-118931180D02*
X81688209Y-118931180D01*
X81783447Y-118883561D01*
X81831066Y-118835942D01*
X81926304Y-118693085D01*
X81973923Y-118502609D01*
X81973923Y-118121657D01*
X81926304Y-118026419D01*
X81878685Y-117978800D01*
X81783447Y-117931180D01*
X81592971Y-117931180D01*
X81497733Y-117978800D01*
X81450114Y-118026419D01*
X81402495Y-118121657D01*
X81402495Y-118359752D01*
X81450114Y-118454990D01*
X81497733Y-118502609D01*
X81592971Y-118550228D01*
X81783447Y-118550228D01*
X81878685Y-118502609D01*
X81926304Y-118454990D01*
X81973923Y-118359752D01*
X82592971Y-117931180D02*
X82688209Y-117931180D01*
X82783447Y-117978800D01*
X82831066Y-118026419D01*
X82878685Y-118121657D01*
X82926304Y-118312133D01*
X82926304Y-118550228D01*
X82878685Y-118740704D01*
X82831066Y-118835942D01*
X82783447Y-118883561D01*
X82688209Y-118931180D01*
X82592971Y-118931180D01*
X82497733Y-118883561D01*
X82450114Y-118835942D01*
X82402495Y-118740704D01*
X82354876Y-118550228D01*
X82354876Y-118312133D01*
X82402495Y-118121657D01*
X82450114Y-118026419D01*
X82497733Y-117978800D01*
X82592971Y-117931180D01*
%TO.C,D91*%
X80390114Y-51597180D02*
X80390114Y-50597180D01*
X80628209Y-50597180D01*
X80771066Y-50644800D01*
X80866304Y-50740038D01*
X80913923Y-50835276D01*
X80961542Y-51025752D01*
X80961542Y-51168609D01*
X80913923Y-51359085D01*
X80866304Y-51454323D01*
X80771066Y-51549561D01*
X80628209Y-51597180D01*
X80390114Y-51597180D01*
X81437733Y-51597180D02*
X81628209Y-51597180D01*
X81723447Y-51549561D01*
X81771066Y-51501942D01*
X81866304Y-51359085D01*
X81913923Y-51168609D01*
X81913923Y-50787657D01*
X81866304Y-50692419D01*
X81818685Y-50644800D01*
X81723447Y-50597180D01*
X81532971Y-50597180D01*
X81437733Y-50644800D01*
X81390114Y-50692419D01*
X81342495Y-50787657D01*
X81342495Y-51025752D01*
X81390114Y-51120990D01*
X81437733Y-51168609D01*
X81532971Y-51216228D01*
X81723447Y-51216228D01*
X81818685Y-51168609D01*
X81866304Y-51120990D01*
X81913923Y-51025752D01*
X82866304Y-51597180D02*
X82294876Y-51597180D01*
X82580590Y-51597180D02*
X82580590Y-50597180D01*
X82485352Y-50740038D01*
X82390114Y-50835276D01*
X82294876Y-50882895D01*
%TO.C,D92*%
X74640114Y-118921180D02*
X74640114Y-117921180D01*
X74878209Y-117921180D01*
X75021066Y-117968800D01*
X75116304Y-118064038D01*
X75163923Y-118159276D01*
X75211542Y-118349752D01*
X75211542Y-118492609D01*
X75163923Y-118683085D01*
X75116304Y-118778323D01*
X75021066Y-118873561D01*
X74878209Y-118921180D01*
X74640114Y-118921180D01*
X75687733Y-118921180D02*
X75878209Y-118921180D01*
X75973447Y-118873561D01*
X76021066Y-118825942D01*
X76116304Y-118683085D01*
X76163923Y-118492609D01*
X76163923Y-118111657D01*
X76116304Y-118016419D01*
X76068685Y-117968800D01*
X75973447Y-117921180D01*
X75782971Y-117921180D01*
X75687733Y-117968800D01*
X75640114Y-118016419D01*
X75592495Y-118111657D01*
X75592495Y-118349752D01*
X75640114Y-118444990D01*
X75687733Y-118492609D01*
X75782971Y-118540228D01*
X75973447Y-118540228D01*
X76068685Y-118492609D01*
X76116304Y-118444990D01*
X76163923Y-118349752D01*
X76544876Y-118016419D02*
X76592495Y-117968800D01*
X76687733Y-117921180D01*
X76925828Y-117921180D01*
X77021066Y-117968800D01*
X77068685Y-118016419D01*
X77116304Y-118111657D01*
X77116304Y-118206895D01*
X77068685Y-118349752D01*
X76497257Y-118921180D01*
X77116304Y-118921180D01*
%TO.C,D93*%
X91850114Y-84517180D02*
X91850114Y-83517180D01*
X92088209Y-83517180D01*
X92231066Y-83564800D01*
X92326304Y-83660038D01*
X92373923Y-83755276D01*
X92421542Y-83945752D01*
X92421542Y-84088609D01*
X92373923Y-84279085D01*
X92326304Y-84374323D01*
X92231066Y-84469561D01*
X92088209Y-84517180D01*
X91850114Y-84517180D01*
X92897733Y-84517180D02*
X93088209Y-84517180D01*
X93183447Y-84469561D01*
X93231066Y-84421942D01*
X93326304Y-84279085D01*
X93373923Y-84088609D01*
X93373923Y-83707657D01*
X93326304Y-83612419D01*
X93278685Y-83564800D01*
X93183447Y-83517180D01*
X92992971Y-83517180D01*
X92897733Y-83564800D01*
X92850114Y-83612419D01*
X92802495Y-83707657D01*
X92802495Y-83945752D01*
X92850114Y-84040990D01*
X92897733Y-84088609D01*
X92992971Y-84136228D01*
X93183447Y-84136228D01*
X93278685Y-84088609D01*
X93326304Y-84040990D01*
X93373923Y-83945752D01*
X93707257Y-83517180D02*
X94326304Y-83517180D01*
X93992971Y-83898133D01*
X94135828Y-83898133D01*
X94231066Y-83945752D01*
X94278685Y-83993371D01*
X94326304Y-84088609D01*
X94326304Y-84326704D01*
X94278685Y-84421942D01*
X94231066Y-84469561D01*
X94135828Y-84517180D01*
X93850114Y-84517180D01*
X93754876Y-84469561D01*
X93707257Y-84421942D01*
%TO.C,D94*%
X74590114Y-51597180D02*
X74590114Y-50597180D01*
X74828209Y-50597180D01*
X74971066Y-50644800D01*
X75066304Y-50740038D01*
X75113923Y-50835276D01*
X75161542Y-51025752D01*
X75161542Y-51168609D01*
X75113923Y-51359085D01*
X75066304Y-51454323D01*
X74971066Y-51549561D01*
X74828209Y-51597180D01*
X74590114Y-51597180D01*
X75637733Y-51597180D02*
X75828209Y-51597180D01*
X75923447Y-51549561D01*
X75971066Y-51501942D01*
X76066304Y-51359085D01*
X76113923Y-51168609D01*
X76113923Y-50787657D01*
X76066304Y-50692419D01*
X76018685Y-50644800D01*
X75923447Y-50597180D01*
X75732971Y-50597180D01*
X75637733Y-50644800D01*
X75590114Y-50692419D01*
X75542495Y-50787657D01*
X75542495Y-51025752D01*
X75590114Y-51120990D01*
X75637733Y-51168609D01*
X75732971Y-51216228D01*
X75923447Y-51216228D01*
X76018685Y-51168609D01*
X76066304Y-51120990D01*
X76113923Y-51025752D01*
X76971066Y-50930514D02*
X76971066Y-51597180D01*
X76732971Y-50549561D02*
X76494876Y-51263847D01*
X77113923Y-51263847D01*
%TO.C,D95*%
X97640114Y-84507180D02*
X97640114Y-83507180D01*
X97878209Y-83507180D01*
X98021066Y-83554800D01*
X98116304Y-83650038D01*
X98163923Y-83745276D01*
X98211542Y-83935752D01*
X98211542Y-84078609D01*
X98163923Y-84269085D01*
X98116304Y-84364323D01*
X98021066Y-84459561D01*
X97878209Y-84507180D01*
X97640114Y-84507180D01*
X98687733Y-84507180D02*
X98878209Y-84507180D01*
X98973447Y-84459561D01*
X99021066Y-84411942D01*
X99116304Y-84269085D01*
X99163923Y-84078609D01*
X99163923Y-83697657D01*
X99116304Y-83602419D01*
X99068685Y-83554800D01*
X98973447Y-83507180D01*
X98782971Y-83507180D01*
X98687733Y-83554800D01*
X98640114Y-83602419D01*
X98592495Y-83697657D01*
X98592495Y-83935752D01*
X98640114Y-84030990D01*
X98687733Y-84078609D01*
X98782971Y-84126228D01*
X98973447Y-84126228D01*
X99068685Y-84078609D01*
X99116304Y-84030990D01*
X99163923Y-83935752D01*
X100068685Y-83507180D02*
X99592495Y-83507180D01*
X99544876Y-83983371D01*
X99592495Y-83935752D01*
X99687733Y-83888133D01*
X99925828Y-83888133D01*
X100021066Y-83935752D01*
X100068685Y-83983371D01*
X100116304Y-84078609D01*
X100116304Y-84316704D01*
X100068685Y-84411942D01*
X100021066Y-84459561D01*
X99925828Y-84507180D01*
X99687733Y-84507180D01*
X99592495Y-84459561D01*
X99544876Y-84411942D01*
%TO.C,D96*%
X100238780Y-109907085D02*
X99238780Y-109907085D01*
X99238780Y-109668990D01*
X99286400Y-109526133D01*
X99381638Y-109430895D01*
X99476876Y-109383276D01*
X99667352Y-109335657D01*
X99810209Y-109335657D01*
X100000685Y-109383276D01*
X100095923Y-109430895D01*
X100191161Y-109526133D01*
X100238780Y-109668990D01*
X100238780Y-109907085D01*
X100238780Y-108859466D02*
X100238780Y-108668990D01*
X100191161Y-108573752D01*
X100143542Y-108526133D01*
X100000685Y-108430895D01*
X99810209Y-108383276D01*
X99429257Y-108383276D01*
X99334019Y-108430895D01*
X99286400Y-108478514D01*
X99238780Y-108573752D01*
X99238780Y-108764228D01*
X99286400Y-108859466D01*
X99334019Y-108907085D01*
X99429257Y-108954704D01*
X99667352Y-108954704D01*
X99762590Y-108907085D01*
X99810209Y-108859466D01*
X99857828Y-108764228D01*
X99857828Y-108573752D01*
X99810209Y-108478514D01*
X99762590Y-108430895D01*
X99667352Y-108383276D01*
X99238780Y-107526133D02*
X99238780Y-107716609D01*
X99286400Y-107811847D01*
X99334019Y-107859466D01*
X99476876Y-107954704D01*
X99667352Y-108002323D01*
X100048304Y-108002323D01*
X100143542Y-107954704D01*
X100191161Y-107907085D01*
X100238780Y-107811847D01*
X100238780Y-107621371D01*
X100191161Y-107526133D01*
X100143542Y-107478514D01*
X100048304Y-107430895D01*
X99810209Y-107430895D01*
X99714971Y-107478514D01*
X99667352Y-107526133D01*
X99619733Y-107621371D01*
X99619733Y-107811847D01*
X99667352Y-107907085D01*
X99714971Y-107954704D01*
X99810209Y-108002323D01*
%TO.C,D97*%
X100206780Y-104029085D02*
X99206780Y-104029085D01*
X99206780Y-103790990D01*
X99254400Y-103648133D01*
X99349638Y-103552895D01*
X99444876Y-103505276D01*
X99635352Y-103457657D01*
X99778209Y-103457657D01*
X99968685Y-103505276D01*
X100063923Y-103552895D01*
X100159161Y-103648133D01*
X100206780Y-103790990D01*
X100206780Y-104029085D01*
X100206780Y-102981466D02*
X100206780Y-102790990D01*
X100159161Y-102695752D01*
X100111542Y-102648133D01*
X99968685Y-102552895D01*
X99778209Y-102505276D01*
X99397257Y-102505276D01*
X99302019Y-102552895D01*
X99254400Y-102600514D01*
X99206780Y-102695752D01*
X99206780Y-102886228D01*
X99254400Y-102981466D01*
X99302019Y-103029085D01*
X99397257Y-103076704D01*
X99635352Y-103076704D01*
X99730590Y-103029085D01*
X99778209Y-102981466D01*
X99825828Y-102886228D01*
X99825828Y-102695752D01*
X99778209Y-102600514D01*
X99730590Y-102552895D01*
X99635352Y-102505276D01*
X99206780Y-102171942D02*
X99206780Y-101505276D01*
X100206780Y-101933847D01*
%TO.C,D98*%
X100216780Y-98209085D02*
X99216780Y-98209085D01*
X99216780Y-97970990D01*
X99264400Y-97828133D01*
X99359638Y-97732895D01*
X99454876Y-97685276D01*
X99645352Y-97637657D01*
X99788209Y-97637657D01*
X99978685Y-97685276D01*
X100073923Y-97732895D01*
X100169161Y-97828133D01*
X100216780Y-97970990D01*
X100216780Y-98209085D01*
X100216780Y-97161466D02*
X100216780Y-96970990D01*
X100169161Y-96875752D01*
X100121542Y-96828133D01*
X99978685Y-96732895D01*
X99788209Y-96685276D01*
X99407257Y-96685276D01*
X99312019Y-96732895D01*
X99264400Y-96780514D01*
X99216780Y-96875752D01*
X99216780Y-97066228D01*
X99264400Y-97161466D01*
X99312019Y-97209085D01*
X99407257Y-97256704D01*
X99645352Y-97256704D01*
X99740590Y-97209085D01*
X99788209Y-97161466D01*
X99835828Y-97066228D01*
X99835828Y-96875752D01*
X99788209Y-96780514D01*
X99740590Y-96732895D01*
X99645352Y-96685276D01*
X99645352Y-96113847D02*
X99597733Y-96209085D01*
X99550114Y-96256704D01*
X99454876Y-96304323D01*
X99407257Y-96304323D01*
X99312019Y-96256704D01*
X99264400Y-96209085D01*
X99216780Y-96113847D01*
X99216780Y-95923371D01*
X99264400Y-95828133D01*
X99312019Y-95780514D01*
X99407257Y-95732895D01*
X99454876Y-95732895D01*
X99550114Y-95780514D01*
X99597733Y-95828133D01*
X99645352Y-95923371D01*
X99645352Y-96113847D01*
X99692971Y-96209085D01*
X99740590Y-96256704D01*
X99835828Y-96304323D01*
X100026304Y-96304323D01*
X100121542Y-96256704D01*
X100169161Y-96209085D01*
X100216780Y-96113847D01*
X100216780Y-95923371D01*
X100169161Y-95828133D01*
X100121542Y-95780514D01*
X100026304Y-95732895D01*
X99835828Y-95732895D01*
X99740590Y-95780514D01*
X99692971Y-95828133D01*
X99645352Y-95923371D01*
%TO.C,D99*%
X100216780Y-92409085D02*
X99216780Y-92409085D01*
X99216780Y-92170990D01*
X99264400Y-92028133D01*
X99359638Y-91932895D01*
X99454876Y-91885276D01*
X99645352Y-91837657D01*
X99788209Y-91837657D01*
X99978685Y-91885276D01*
X100073923Y-91932895D01*
X100169161Y-92028133D01*
X100216780Y-92170990D01*
X100216780Y-92409085D01*
X100216780Y-91361466D02*
X100216780Y-91170990D01*
X100169161Y-91075752D01*
X100121542Y-91028133D01*
X99978685Y-90932895D01*
X99788209Y-90885276D01*
X99407257Y-90885276D01*
X99312019Y-90932895D01*
X99264400Y-90980514D01*
X99216780Y-91075752D01*
X99216780Y-91266228D01*
X99264400Y-91361466D01*
X99312019Y-91409085D01*
X99407257Y-91456704D01*
X99645352Y-91456704D01*
X99740590Y-91409085D01*
X99788209Y-91361466D01*
X99835828Y-91266228D01*
X99835828Y-91075752D01*
X99788209Y-90980514D01*
X99740590Y-90932895D01*
X99645352Y-90885276D01*
X100216780Y-90409085D02*
X100216780Y-90218609D01*
X100169161Y-90123371D01*
X100121542Y-90075752D01*
X99978685Y-89980514D01*
X99788209Y-89932895D01*
X99407257Y-89932895D01*
X99312019Y-89980514D01*
X99264400Y-90028133D01*
X99216780Y-90123371D01*
X99216780Y-90313847D01*
X99264400Y-90409085D01*
X99312019Y-90456704D01*
X99407257Y-90504323D01*
X99645352Y-90504323D01*
X99740590Y-90456704D01*
X99788209Y-90409085D01*
X99835828Y-90313847D01*
X99835828Y-90123371D01*
X99788209Y-90028133D01*
X99740590Y-89980514D01*
X99645352Y-89932895D01*
%TO.C,D100*%
X100216780Y-87095276D02*
X99216780Y-87095276D01*
X99216780Y-86857180D01*
X99264400Y-86714323D01*
X99359638Y-86619085D01*
X99454876Y-86571466D01*
X99645352Y-86523847D01*
X99788209Y-86523847D01*
X99978685Y-86571466D01*
X100073923Y-86619085D01*
X100169161Y-86714323D01*
X100216780Y-86857180D01*
X100216780Y-87095276D01*
X100216780Y-85571466D02*
X100216780Y-86142895D01*
X100216780Y-85857180D02*
X99216780Y-85857180D01*
X99359638Y-85952419D01*
X99454876Y-86047657D01*
X99502495Y-86142895D01*
X99216780Y-84952419D02*
X99216780Y-84857180D01*
X99264400Y-84761942D01*
X99312019Y-84714323D01*
X99407257Y-84666704D01*
X99597733Y-84619085D01*
X99835828Y-84619085D01*
X100026304Y-84666704D01*
X100121542Y-84714323D01*
X100169161Y-84761942D01*
X100216780Y-84857180D01*
X100216780Y-84952419D01*
X100169161Y-85047657D01*
X100121542Y-85095276D01*
X100026304Y-85142895D01*
X99835828Y-85190514D01*
X99597733Y-85190514D01*
X99407257Y-85142895D01*
X99312019Y-85095276D01*
X99264400Y-85047657D01*
X99216780Y-84952419D01*
X99216780Y-84000038D02*
X99216780Y-83904800D01*
X99264400Y-83809561D01*
X99312019Y-83761942D01*
X99407257Y-83714323D01*
X99597733Y-83666704D01*
X99835828Y-83666704D01*
X100026304Y-83714323D01*
X100121542Y-83761942D01*
X100169161Y-83809561D01*
X100216780Y-83904800D01*
X100216780Y-84000038D01*
X100169161Y-84095276D01*
X100121542Y-84142895D01*
X100026304Y-84190514D01*
X99835828Y-84238133D01*
X99597733Y-84238133D01*
X99407257Y-84190514D01*
X99312019Y-84142895D01*
X99264400Y-84095276D01*
X99216780Y-84000038D01*
%TO.C,D101*%
X108370780Y-76743276D02*
X107370780Y-76743276D01*
X107370780Y-76505180D01*
X107418400Y-76362323D01*
X107513638Y-76267085D01*
X107608876Y-76219466D01*
X107799352Y-76171847D01*
X107942209Y-76171847D01*
X108132685Y-76219466D01*
X108227923Y-76267085D01*
X108323161Y-76362323D01*
X108370780Y-76505180D01*
X108370780Y-76743276D01*
X108370780Y-75219466D02*
X108370780Y-75790895D01*
X108370780Y-75505180D02*
X107370780Y-75505180D01*
X107513638Y-75600419D01*
X107608876Y-75695657D01*
X107656495Y-75790895D01*
X107370780Y-74600419D02*
X107370780Y-74505180D01*
X107418400Y-74409942D01*
X107466019Y-74362323D01*
X107561257Y-74314704D01*
X107751733Y-74267085D01*
X107989828Y-74267085D01*
X108180304Y-74314704D01*
X108275542Y-74362323D01*
X108323161Y-74409942D01*
X108370780Y-74505180D01*
X108370780Y-74600419D01*
X108323161Y-74695657D01*
X108275542Y-74743276D01*
X108180304Y-74790895D01*
X107989828Y-74838514D01*
X107751733Y-74838514D01*
X107561257Y-74790895D01*
X107466019Y-74743276D01*
X107418400Y-74695657D01*
X107370780Y-74600419D01*
X108370780Y-73314704D02*
X108370780Y-73886133D01*
X108370780Y-73600419D02*
X107370780Y-73600419D01*
X107513638Y-73695657D01*
X107608876Y-73790895D01*
X107656495Y-73886133D01*
%TO.C,D102*%
X108370780Y-70973276D02*
X107370780Y-70973276D01*
X107370780Y-70735180D01*
X107418400Y-70592323D01*
X107513638Y-70497085D01*
X107608876Y-70449466D01*
X107799352Y-70401847D01*
X107942209Y-70401847D01*
X108132685Y-70449466D01*
X108227923Y-70497085D01*
X108323161Y-70592323D01*
X108370780Y-70735180D01*
X108370780Y-70973276D01*
X108370780Y-69449466D02*
X108370780Y-70020895D01*
X108370780Y-69735180D02*
X107370780Y-69735180D01*
X107513638Y-69830419D01*
X107608876Y-69925657D01*
X107656495Y-70020895D01*
X107370780Y-68830419D02*
X107370780Y-68735180D01*
X107418400Y-68639942D01*
X107466019Y-68592323D01*
X107561257Y-68544704D01*
X107751733Y-68497085D01*
X107989828Y-68497085D01*
X108180304Y-68544704D01*
X108275542Y-68592323D01*
X108323161Y-68639942D01*
X108370780Y-68735180D01*
X108370780Y-68830419D01*
X108323161Y-68925657D01*
X108275542Y-68973276D01*
X108180304Y-69020895D01*
X107989828Y-69068514D01*
X107751733Y-69068514D01*
X107561257Y-69020895D01*
X107466019Y-68973276D01*
X107418400Y-68925657D01*
X107370780Y-68830419D01*
X107466019Y-68116133D02*
X107418400Y-68068514D01*
X107370780Y-67973276D01*
X107370780Y-67735180D01*
X107418400Y-67639942D01*
X107466019Y-67592323D01*
X107561257Y-67544704D01*
X107656495Y-67544704D01*
X107799352Y-67592323D01*
X108370780Y-68163752D01*
X108370780Y-67544704D01*
%TO.C,D103*%
X108370780Y-65103276D02*
X107370780Y-65103276D01*
X107370780Y-64865180D01*
X107418400Y-64722323D01*
X107513638Y-64627085D01*
X107608876Y-64579466D01*
X107799352Y-64531847D01*
X107942209Y-64531847D01*
X108132685Y-64579466D01*
X108227923Y-64627085D01*
X108323161Y-64722323D01*
X108370780Y-64865180D01*
X108370780Y-65103276D01*
X108370780Y-63579466D02*
X108370780Y-64150895D01*
X108370780Y-63865180D02*
X107370780Y-63865180D01*
X107513638Y-63960419D01*
X107608876Y-64055657D01*
X107656495Y-64150895D01*
X107370780Y-62960419D02*
X107370780Y-62865180D01*
X107418400Y-62769942D01*
X107466019Y-62722323D01*
X107561257Y-62674704D01*
X107751733Y-62627085D01*
X107989828Y-62627085D01*
X108180304Y-62674704D01*
X108275542Y-62722323D01*
X108323161Y-62769942D01*
X108370780Y-62865180D01*
X108370780Y-62960419D01*
X108323161Y-63055657D01*
X108275542Y-63103276D01*
X108180304Y-63150895D01*
X107989828Y-63198514D01*
X107751733Y-63198514D01*
X107561257Y-63150895D01*
X107466019Y-63103276D01*
X107418400Y-63055657D01*
X107370780Y-62960419D01*
X107370780Y-62293752D02*
X107370780Y-61674704D01*
X107751733Y-62008038D01*
X107751733Y-61865180D01*
X107799352Y-61769942D01*
X107846971Y-61722323D01*
X107942209Y-61674704D01*
X108180304Y-61674704D01*
X108275542Y-61722323D01*
X108323161Y-61769942D01*
X108370780Y-61865180D01*
X108370780Y-62150895D01*
X108323161Y-62246133D01*
X108275542Y-62293752D01*
%TO.C,D104*%
X108360780Y-59253276D02*
X107360780Y-59253276D01*
X107360780Y-59015180D01*
X107408400Y-58872323D01*
X107503638Y-58777085D01*
X107598876Y-58729466D01*
X107789352Y-58681847D01*
X107932209Y-58681847D01*
X108122685Y-58729466D01*
X108217923Y-58777085D01*
X108313161Y-58872323D01*
X108360780Y-59015180D01*
X108360780Y-59253276D01*
X108360780Y-57729466D02*
X108360780Y-58300895D01*
X108360780Y-58015180D02*
X107360780Y-58015180D01*
X107503638Y-58110419D01*
X107598876Y-58205657D01*
X107646495Y-58300895D01*
X107360780Y-57110419D02*
X107360780Y-57015180D01*
X107408400Y-56919942D01*
X107456019Y-56872323D01*
X107551257Y-56824704D01*
X107741733Y-56777085D01*
X107979828Y-56777085D01*
X108170304Y-56824704D01*
X108265542Y-56872323D01*
X108313161Y-56919942D01*
X108360780Y-57015180D01*
X108360780Y-57110419D01*
X108313161Y-57205657D01*
X108265542Y-57253276D01*
X108170304Y-57300895D01*
X107979828Y-57348514D01*
X107741733Y-57348514D01*
X107551257Y-57300895D01*
X107456019Y-57253276D01*
X107408400Y-57205657D01*
X107360780Y-57110419D01*
X107694114Y-55919942D02*
X108360780Y-55919942D01*
X107313161Y-56158038D02*
X108027447Y-56396133D01*
X108027447Y-55777085D01*
%TO.C,D105*%
X108370780Y-53453276D02*
X107370780Y-53453276D01*
X107370780Y-53215180D01*
X107418400Y-53072323D01*
X107513638Y-52977085D01*
X107608876Y-52929466D01*
X107799352Y-52881847D01*
X107942209Y-52881847D01*
X108132685Y-52929466D01*
X108227923Y-52977085D01*
X108323161Y-53072323D01*
X108370780Y-53215180D01*
X108370780Y-53453276D01*
X108370780Y-51929466D02*
X108370780Y-52500895D01*
X108370780Y-52215180D02*
X107370780Y-52215180D01*
X107513638Y-52310419D01*
X107608876Y-52405657D01*
X107656495Y-52500895D01*
X107370780Y-51310419D02*
X107370780Y-51215180D01*
X107418400Y-51119942D01*
X107466019Y-51072323D01*
X107561257Y-51024704D01*
X107751733Y-50977085D01*
X107989828Y-50977085D01*
X108180304Y-51024704D01*
X108275542Y-51072323D01*
X108323161Y-51119942D01*
X108370780Y-51215180D01*
X108370780Y-51310419D01*
X108323161Y-51405657D01*
X108275542Y-51453276D01*
X108180304Y-51500895D01*
X107989828Y-51548514D01*
X107751733Y-51548514D01*
X107561257Y-51500895D01*
X107466019Y-51453276D01*
X107418400Y-51405657D01*
X107370780Y-51310419D01*
X107370780Y-50072323D02*
X107370780Y-50548514D01*
X107846971Y-50596133D01*
X107799352Y-50548514D01*
X107751733Y-50453276D01*
X107751733Y-50215180D01*
X107799352Y-50119942D01*
X107846971Y-50072323D01*
X107942209Y-50024704D01*
X108180304Y-50024704D01*
X108275542Y-50072323D01*
X108323161Y-50119942D01*
X108370780Y-50215180D01*
X108370780Y-50453276D01*
X108323161Y-50548514D01*
X108275542Y-50596133D01*
%TO.C,J1*%
X163834380Y-147907333D02*
X164548666Y-147907333D01*
X164691523Y-147954952D01*
X164786761Y-148050190D01*
X164834380Y-148193047D01*
X164834380Y-148288285D01*
X164834380Y-146907333D02*
X164834380Y-147478761D01*
X164834380Y-147193047D02*
X163834380Y-147193047D01*
X163977238Y-147288285D01*
X164072476Y-147383523D01*
X164120095Y-147478761D01*
%TO.C,U2*%
X75000780Y-127444704D02*
X75810304Y-127444704D01*
X75905542Y-127397085D01*
X75953161Y-127349466D01*
X76000780Y-127254228D01*
X76000780Y-127063752D01*
X75953161Y-126968514D01*
X75905542Y-126920895D01*
X75810304Y-126873276D01*
X75000780Y-126873276D01*
X75096019Y-126444704D02*
X75048400Y-126397085D01*
X75000780Y-126301847D01*
X75000780Y-126063752D01*
X75048400Y-125968514D01*
X75096019Y-125920895D01*
X75191257Y-125873276D01*
X75286495Y-125873276D01*
X75429352Y-125920895D01*
X76000780Y-126492323D01*
X76000780Y-125873276D01*
%TD*%
M02*
