M48
; DRILL file {KiCad (5.1.6)-1} date 04/12/21 17:18:37
; FORMAT={-:-/ absolute / metric / decimal}
; #@! TF.CreationDate,2021-04-12T17:18:37+02:00
; #@! TF.GenerationSoftware,Kicad,Pcbnew,(5.1.6)-1
; #@! TF.FileFunction,Plated,1,2,PTH
FMAT,2
METRIC
T1C0.800
T2C0.900
T3C1.000
%
G90
G05
T1
X66.283Y-79.338
X71.679Y-79.248
X75.692Y-109.779
X79.351Y-109.829
X88.138Y-133.35
X91.94Y-118.915
X97.79Y-133.35
X105.73Y-118.995
X108.712Y-135.382
X108.966Y-145.542
X129.032Y-135.382
X129.032Y-144.956
X153.494Y-140.208
X156.324Y-118.599
X163.866Y-118.599
X167.132Y-139.954
X170.06Y-130.435
X170.06Y-141.852
X172.97Y-130.565
X172.97Y-142.244
X213.2Y-119.075
X221.0Y-119.075
X112.128Y-69.831
X122.288Y-69.831
X112.096Y-77.225
X122.256Y-77.225
X170.14Y-74.085
X180.3Y-74.085
X75.654Y-107.239
X85.814Y-107.239
X112.096Y-90.687
X122.256Y-90.687
X170.124Y-80.433
X180.284Y-80.433
X170.08Y-90.245
X180.24Y-90.245
X75.844Y-85.077
X86.004Y-85.077
X75.717Y-75.108
X85.877Y-75.108
X194.95Y-122.955
X194.95Y-130.575
X197.49Y-122.955
X197.49Y-130.575
X200.03Y-122.955
X200.03Y-130.575
X202.57Y-122.955
X202.57Y-130.575
X205.11Y-122.955
X205.11Y-130.575
X207.65Y-122.955
X207.65Y-130.575
X210.19Y-122.955
X210.19Y-130.575
X212.73Y-122.955
X212.73Y-130.575
X112.096Y-83.829
X122.256Y-83.829
X170.07Y-86.985
X180.23Y-86.985
X112.104Y-74.015
X122.264Y-74.015
X170.124Y-77.233
X180.284Y-77.233
X77.878Y-122.873
X77.878Y-130.493
X80.418Y-122.873
X80.418Y-130.493
X82.958Y-122.873
X82.958Y-130.493
X85.498Y-122.873
X85.498Y-130.493
X88.038Y-122.873
X88.038Y-130.493
X90.578Y-122.873
X90.578Y-130.493
X93.118Y-122.873
X93.118Y-130.493
X95.658Y-122.873
X95.658Y-130.493
X89.243Y-75.044
X99.403Y-75.044
X170.14Y-70.075
X180.3Y-70.075
X112.096Y-87.385
X122.256Y-87.385
X112.096Y-80.527
X122.256Y-80.527
X75.717Y-71.806
X85.877Y-71.806
X137.654Y-122.951
X137.654Y-130.571
X140.194Y-122.951
X140.194Y-130.571
X142.734Y-122.951
X142.734Y-130.571
X145.274Y-122.951
X145.274Y-130.571
X147.814Y-122.951
X147.814Y-130.571
X150.354Y-122.951
X150.354Y-130.571
X152.894Y-122.951
X152.894Y-130.571
X155.434Y-122.951
X155.434Y-130.571
X170.084Y-83.803
X180.244Y-83.803
X75.781Y-52.184
X85.941Y-52.184
X88.798Y-85.141
X98.958Y-85.141
T2
X129.444Y-50.785
X129.444Y-53.325
X129.418Y-95.875
X129.418Y-98.415
X71.254Y-50.265
X71.254Y-52.805
X103.714Y-101.545
X103.714Y-104.085
X218.98Y-84.777
X218.98Y-87.317
X91.984Y-47.195
X94.524Y-47.195
X218.85Y-56.315
X218.85Y-58.855
X218.96Y-102.227
X218.96Y-104.767
X213.26Y-80.469
X215.8Y-80.469
X103.948Y-56.293
X103.948Y-58.833
X150.298Y-80.519
X152.838Y-80.519
X161.726Y-95.947
X161.726Y-98.487
X186.514Y-50.693
X186.514Y-53.233
X129.398Y-107.677
X129.398Y-110.217
X80.334Y-47.185
X82.874Y-47.185
X195.486Y-114.681
X198.026Y-114.681
X91.794Y-80.105
X94.334Y-80.105
X195.724Y-47.293
X198.264Y-47.293
X207.176Y-114.681
X209.716Y-114.681
X213.164Y-47.293
X215.704Y-47.293
X103.724Y-84.135
X103.724Y-86.675
X186.534Y-56.503
X186.534Y-59.043
X103.958Y-68.013
X103.958Y-70.553
X161.716Y-84.277
X161.716Y-86.817
X156.088Y-80.529
X158.628Y-80.529
X129.428Y-84.185
X129.428Y-86.725
X129.428Y-90.005
X129.428Y-92.545
X162.144Y-50.865
X162.144Y-53.405
X103.746Y-107.423
X103.746Y-109.963
X71.244Y-56.095
X71.244Y-58.635
X80.144Y-80.105
X82.684Y-80.105
X74.584Y-114.509
X77.124Y-114.509
X189.626Y-114.691
X192.166Y-114.691
X201.416Y-80.457
X203.956Y-80.457
X103.724Y-95.725
X103.724Y-98.265
X218.85Y-62.115
X218.85Y-64.655
X186.76Y-90.527
X186.76Y-93.067
X144.222Y-114.065
X146.762Y-114.065
X103.958Y-73.783
X103.958Y-76.323
X132.724Y-47.623
X135.264Y-47.623
X218.85Y-50.495
X218.85Y-53.035
X144.458Y-80.499
X146.998Y-80.499
X129.444Y-62.455
X129.444Y-64.995
X129.454Y-74.095
X129.454Y-76.635
X71.274Y-101.505
X71.274Y-104.045
X71.234Y-67.735
X71.234Y-70.275
X97.794Y-114.539
X100.334Y-114.539
X71.264Y-84.095
X71.264Y-86.635
X195.576Y-80.447
X198.116Y-80.447
X86.214Y-114.529
X88.754Y-114.529
X189.874Y-47.293
X192.414Y-47.293
X85.944Y-80.105
X88.484Y-80.105
X186.534Y-68.103
X186.534Y-70.643
X201.504Y-47.293
X204.044Y-47.293
X207.266Y-80.457
X209.806Y-80.457
X218.95Y-96.427
X218.95Y-98.967
X144.364Y-47.623
X146.904Y-47.623
X162.154Y-68.415
X162.154Y-70.955
X162.154Y-74.195
X162.154Y-76.735
X218.95Y-107.985
X218.95Y-110.525
X132.848Y-80.499
X135.388Y-80.499
X156.014Y-47.613
X158.554Y-47.613
X138.598Y-80.499
X141.138Y-80.499
X71.264Y-89.925
X71.264Y-92.465
X92.004Y-114.549
X94.544Y-114.549
X218.85Y-73.765
X218.85Y-76.305
X74.534Y-47.185
X77.074Y-47.185
X189.726Y-80.437
X192.266Y-80.437
X97.794Y-47.205
X100.334Y-47.205
X201.346Y-114.681
X203.886Y-114.681
X103.724Y-89.925
X103.724Y-92.465
X186.75Y-102.187
X186.75Y-104.727
X103.958Y-50.493
X103.958Y-53.033
X162.154Y-56.745
X162.154Y-59.285
X161.726Y-101.807
X161.726Y-104.347
X161.726Y-90.097
X161.726Y-92.637
X150.002Y-114.065
X152.542Y-114.065
X129.444Y-68.295
X129.444Y-70.835
X150.194Y-47.613
X152.734Y-47.613
X71.234Y-61.925
X71.234Y-64.465
X74.334Y-80.105
X76.874Y-80.105
X71.264Y-107.423
X71.264Y-109.963
X186.524Y-73.923
X186.524Y-76.463
X71.224Y-73.595
X71.224Y-76.135
X86.134Y-47.185
X88.674Y-47.185
X186.76Y-96.327
X186.76Y-98.867
X186.534Y-62.293
X186.534Y-64.833
X138.362Y-114.065
X140.902Y-114.065
X213.016Y-114.681
X215.556Y-114.681
X161.726Y-107.677
X161.726Y-110.217
X132.552Y-114.065
X135.092Y-114.065
X129.444Y-56.625
X129.444Y-59.165
X129.398Y-101.695
X129.398Y-104.235
X71.274Y-95.715
X71.274Y-98.255
X97.584Y-80.095
X100.124Y-80.095
X80.394Y-114.519
X82.934Y-114.519
X218.85Y-67.925
X218.85Y-70.465
X186.76Y-84.677
X186.76Y-87.217
X103.958Y-62.143
X103.958Y-64.683
X207.344Y-47.283
X209.884Y-47.283
X218.94Y-90.627
X218.94Y-93.167
X162.154Y-62.535
X162.154Y-65.075
X186.75Y-107.935
X186.75Y-110.475
X138.534Y-47.623
X141.074Y-47.623
X155.902Y-114.055
X158.442Y-114.055
T3
X126.492Y-147.574
X129.032Y-147.574
X131.572Y-147.574
X134.112Y-147.574
X136.652Y-147.574
X139.192Y-147.574
X141.732Y-147.574
X144.272Y-147.574
X146.812Y-147.574
X149.352Y-147.574
X151.892Y-147.574
X154.432Y-147.574
X156.972Y-147.574
X159.512Y-147.574
X162.052Y-147.574
T0
M30
