%TF.GenerationSoftware,KiCad,Pcbnew,(5.1.6)-1*%
%TF.CreationDate,2021-04-12T17:18:31+02:00*%
%TF.ProjectId,_7SEG_Display_Board,5f375345-475f-4446-9973-706c61795f42,rev?*%
%TF.SameCoordinates,Original*%
%TF.FileFunction,Soldermask,Top*%
%TF.FilePolarity,Negative*%
%FSLAX46Y46*%
G04 Gerber Fmt 4.6, Leading zero omitted, Abs format (unit mm)*
G04 Created by KiCad (PCBNEW (5.1.6)-1) date 2021-04-12 17:18:31*
%MOMM*%
%LPD*%
G01*
G04 APERTURE LIST*
%ADD10C,1.700000*%
%ADD11O,1.700000X1.700000*%
%ADD12C,2.100000*%
%ADD13R,2.100000X2.100000*%
%ADD14R,1.700000X2.500000*%
%ADD15O,1.700000X2.500000*%
%ADD16R,1.800000X1.800000*%
%ADD17O,1.800000X1.800000*%
G04 APERTURE END LIST*
D10*
%TO.C,R17*%
X85877400Y-75107800D03*
D11*
X75717400Y-75107800D03*
%TD*%
%TO.C,R18*%
X75653900Y-107238800D03*
D10*
X85813900Y-107238800D03*
%TD*%
%TO.C,R16*%
X85877400Y-71805800D03*
D11*
X75717400Y-71805800D03*
%TD*%
%TO.C,R20*%
X98958400Y-85140800D03*
D10*
X88798400Y-85140800D03*
%TD*%
%TO.C,R21*%
X89242900Y-75044300D03*
D11*
X99402900Y-75044300D03*
%TD*%
D10*
%TO.C,R15*%
X86004400Y-85077300D03*
D11*
X75844400Y-85077300D03*
%TD*%
%TO.C,R19*%
X75780900Y-52184300D03*
D10*
X85940900Y-52184300D03*
%TD*%
D12*
%TO.C,D1*%
X186750400Y-107934800D03*
D13*
X186750400Y-110474800D03*
%TD*%
D12*
%TO.C,D2*%
X218950400Y-107984800D03*
D13*
X218950400Y-110524800D03*
%TD*%
%TO.C,D3*%
X215556400Y-114680800D03*
D12*
X213016400Y-114680800D03*
%TD*%
D13*
%TO.C,D4*%
X186514400Y-50692800D03*
D12*
X186514400Y-53232800D03*
%TD*%
%TO.C,D5*%
X218850400Y-53034800D03*
D13*
X218850400Y-50494800D03*
%TD*%
D12*
%TO.C,D6*%
X213260400Y-80468800D03*
D13*
X215800400Y-80468800D03*
%TD*%
D12*
%TO.C,D7*%
X213164400Y-47292800D03*
D13*
X215704400Y-47292800D03*
%TD*%
%TO.C,D8*%
X186750400Y-104726800D03*
D12*
X186750400Y-102186800D03*
%TD*%
D13*
%TO.C,D9*%
X218960400Y-104766800D03*
D12*
X218960400Y-102226800D03*
%TD*%
D13*
%TO.C,D10*%
X209716400Y-114680800D03*
D12*
X207176400Y-114680800D03*
%TD*%
D13*
%TO.C,D11*%
X186534400Y-56502800D03*
D12*
X186534400Y-59042800D03*
%TD*%
%TO.C,D12*%
X218850400Y-58854800D03*
D13*
X218850400Y-56314800D03*
%TD*%
%TO.C,D13*%
X209806400Y-80456800D03*
D12*
X207266400Y-80456800D03*
%TD*%
%TO.C,D14*%
X207344400Y-47282800D03*
D13*
X209884400Y-47282800D03*
%TD*%
D12*
%TO.C,D15*%
X186760400Y-96326800D03*
D13*
X186760400Y-98866800D03*
%TD*%
D12*
%TO.C,D16*%
X218950400Y-96426800D03*
D13*
X218950400Y-98966800D03*
%TD*%
%TO.C,D17*%
X203886400Y-114680800D03*
D12*
X201346400Y-114680800D03*
%TD*%
D13*
%TO.C,D18*%
X186534400Y-62292800D03*
D12*
X186534400Y-64832800D03*
%TD*%
D13*
%TO.C,D19*%
X218850400Y-62114800D03*
D12*
X218850400Y-64654800D03*
%TD*%
D13*
%TO.C,D20*%
X203956400Y-80456800D03*
D12*
X201416400Y-80456800D03*
%TD*%
%TO.C,D21*%
X201504400Y-47292800D03*
D13*
X204044400Y-47292800D03*
%TD*%
%TO.C,D22*%
X186760400Y-93066800D03*
D12*
X186760400Y-90526800D03*
%TD*%
D13*
%TO.C,D23*%
X218940400Y-93166800D03*
D12*
X218940400Y-90626800D03*
%TD*%
%TO.C,D24*%
X195486400Y-114680800D03*
D13*
X198026400Y-114680800D03*
%TD*%
D12*
%TO.C,D25*%
X186534400Y-70642800D03*
D13*
X186534400Y-68102800D03*
%TD*%
%TO.C,D26*%
X218850400Y-67924800D03*
D12*
X218850400Y-70464800D03*
%TD*%
%TO.C,D27*%
X195576400Y-80446800D03*
D13*
X198116400Y-80446800D03*
%TD*%
%TO.C,D28*%
X198264400Y-47292800D03*
D12*
X195724400Y-47292800D03*
%TD*%
%TO.C,D29*%
X186760400Y-84676800D03*
D13*
X186760400Y-87216800D03*
%TD*%
%TO.C,D30*%
X218980400Y-87316800D03*
D12*
X218980400Y-84776800D03*
%TD*%
%TO.C,D31*%
X189626400Y-114690800D03*
D13*
X192166400Y-114690800D03*
%TD*%
D12*
%TO.C,D32*%
X186524400Y-76462800D03*
D13*
X186524400Y-73922800D03*
%TD*%
%TO.C,D33*%
X218850400Y-73764800D03*
D12*
X218850400Y-76304800D03*
%TD*%
%TO.C,D34*%
X189726400Y-80436800D03*
D13*
X192266400Y-80436800D03*
%TD*%
%TO.C,D35*%
X192414400Y-47292800D03*
D12*
X189874400Y-47292800D03*
%TD*%
D10*
%TO.C,R1*%
X170070400Y-86984800D03*
D11*
X180230400Y-86984800D03*
%TD*%
%TO.C,R2*%
X180244400Y-83802800D03*
D10*
X170084400Y-83802800D03*
%TD*%
D11*
%TO.C,R3*%
X180240400Y-90244800D03*
D10*
X170080400Y-90244800D03*
%TD*%
%TO.C,R4*%
X170140400Y-74084800D03*
D11*
X180300400Y-74084800D03*
%TD*%
%TO.C,R5*%
X180284400Y-77232800D03*
D10*
X170124400Y-77232800D03*
%TD*%
%TO.C,R6*%
X170124400Y-80432800D03*
D11*
X180284400Y-80432800D03*
%TD*%
D10*
%TO.C,R7*%
X170140400Y-70074800D03*
D11*
X180300400Y-70074800D03*
%TD*%
D14*
%TO.C,U3*%
X194950400Y-130574800D03*
D15*
X212730400Y-122954800D03*
X197490400Y-130574800D03*
X210190400Y-122954800D03*
X200030400Y-130574800D03*
X207650400Y-122954800D03*
X202570400Y-130574800D03*
X205110400Y-122954800D03*
X205110400Y-130574800D03*
X202570400Y-122954800D03*
X207650400Y-130574800D03*
X200030400Y-122954800D03*
X210190400Y-130574800D03*
X197490400Y-122954800D03*
X212730400Y-130574800D03*
X194950400Y-122954800D03*
%TD*%
D12*
%TO.C,D36*%
X129428400Y-84184800D03*
D13*
X129428400Y-86724800D03*
%TD*%
%TO.C,D37*%
X129428400Y-92544800D03*
D12*
X129428400Y-90004800D03*
%TD*%
D13*
%TO.C,D38*%
X129418400Y-98414800D03*
D12*
X129418400Y-95874800D03*
%TD*%
%TO.C,D39*%
X129398400Y-101694800D03*
D13*
X129398400Y-104234800D03*
%TD*%
%TO.C,D40*%
X129398400Y-110216800D03*
D12*
X129398400Y-107676800D03*
%TD*%
D13*
%TO.C,D41*%
X129444400Y-50784800D03*
D12*
X129444400Y-53324800D03*
%TD*%
%TO.C,D42*%
X129444400Y-59164800D03*
D13*
X129444400Y-56624800D03*
%TD*%
D12*
%TO.C,D43*%
X129444400Y-64994800D03*
D13*
X129444400Y-62454800D03*
%TD*%
%TO.C,D44*%
X129444400Y-68294800D03*
D12*
X129444400Y-70834800D03*
%TD*%
D13*
%TO.C,D45*%
X129454400Y-74094800D03*
D12*
X129454400Y-76634800D03*
%TD*%
%TO.C,D46*%
X155902400Y-114054800D03*
D13*
X158442400Y-114054800D03*
%TD*%
D12*
%TO.C,D47*%
X156014400Y-47612800D03*
D13*
X158554400Y-47612800D03*
%TD*%
D12*
%TO.C,D48*%
X150002400Y-114064800D03*
D13*
X152542400Y-114064800D03*
%TD*%
%TO.C,D49*%
X135388400Y-80498800D03*
D12*
X132848400Y-80498800D03*
%TD*%
%TO.C,D50*%
X150194400Y-47612800D03*
D13*
X152734400Y-47612800D03*
%TD*%
%TO.C,D51*%
X141138400Y-80498800D03*
D12*
X138598400Y-80498800D03*
%TD*%
%TO.C,D52*%
X144222400Y-114064800D03*
D13*
X146762400Y-114064800D03*
%TD*%
%TO.C,D53*%
X146904400Y-47622800D03*
D12*
X144364400Y-47622800D03*
%TD*%
%TO.C,D54*%
X144458400Y-80498800D03*
D13*
X146998400Y-80498800D03*
%TD*%
%TO.C,D55*%
X140902400Y-114064800D03*
D12*
X138362400Y-114064800D03*
%TD*%
D13*
%TO.C,D56*%
X141074400Y-47622800D03*
D12*
X138534400Y-47622800D03*
%TD*%
D13*
%TO.C,D57*%
X135092400Y-114064800D03*
D12*
X132552400Y-114064800D03*
%TD*%
%TO.C,D58*%
X150298400Y-80518800D03*
D13*
X152838400Y-80518800D03*
%TD*%
%TO.C,D59*%
X135264400Y-47622800D03*
D12*
X132724400Y-47622800D03*
%TD*%
%TO.C,D60*%
X156088400Y-80528800D03*
D13*
X158628400Y-80528800D03*
%TD*%
%TO.C,D61*%
X161726400Y-110216800D03*
D12*
X161726400Y-107676800D03*
%TD*%
D13*
%TO.C,D62*%
X161726400Y-104346800D03*
D12*
X161726400Y-101806800D03*
%TD*%
D13*
%TO.C,D63*%
X161726400Y-98486800D03*
D12*
X161726400Y-95946800D03*
%TD*%
%TO.C,D64*%
X161726400Y-90096800D03*
D13*
X161726400Y-92636800D03*
%TD*%
D12*
%TO.C,D65*%
X161716400Y-84276800D03*
D13*
X161716400Y-86816800D03*
%TD*%
D12*
%TO.C,D66*%
X162154400Y-76734800D03*
D13*
X162154400Y-74194800D03*
%TD*%
D12*
%TO.C,D67*%
X162154400Y-70954800D03*
D13*
X162154400Y-68414800D03*
%TD*%
D12*
%TO.C,D68*%
X162154400Y-65074800D03*
D13*
X162154400Y-62534800D03*
%TD*%
%TO.C,D69*%
X162154400Y-56744800D03*
D12*
X162154400Y-59284800D03*
%TD*%
D13*
%TO.C,D70*%
X162144400Y-50864800D03*
D12*
X162144400Y-53404800D03*
%TD*%
D10*
%TO.C,R8*%
X112096400Y-87384800D03*
D11*
X122256400Y-87384800D03*
%TD*%
D10*
%TO.C,R9*%
X112104400Y-74014800D03*
D11*
X122264400Y-74014800D03*
%TD*%
D10*
%TO.C,R10*%
X112096400Y-80526800D03*
D11*
X122256400Y-80526800D03*
%TD*%
%TO.C,R11*%
X122256400Y-90686800D03*
D10*
X112096400Y-90686800D03*
%TD*%
%TO.C,R12*%
X112128400Y-69830800D03*
D11*
X122288400Y-69830800D03*
%TD*%
%TO.C,R13*%
X122256400Y-83828800D03*
D10*
X112096400Y-83828800D03*
%TD*%
D11*
%TO.C,R14*%
X122256400Y-77224800D03*
D10*
X112096400Y-77224800D03*
%TD*%
D14*
%TO.C,U1*%
X137654400Y-130570800D03*
D15*
X155434400Y-122950800D03*
X140194400Y-130570800D03*
X152894400Y-122950800D03*
X142734400Y-130570800D03*
X150354400Y-122950800D03*
X145274400Y-130570800D03*
X147814400Y-122950800D03*
X147814400Y-130570800D03*
X145274400Y-122950800D03*
X150354400Y-130570800D03*
X142734400Y-122950800D03*
X152894400Y-130570800D03*
X140194400Y-122950800D03*
X155434400Y-130570800D03*
X137654400Y-122950800D03*
%TD*%
D12*
%TO.C,D71*%
X71264400Y-84094800D03*
D13*
X71264400Y-86634800D03*
%TD*%
%TO.C,D72*%
X71264400Y-92464800D03*
D12*
X71264400Y-89924800D03*
%TD*%
D13*
%TO.C,D73*%
X71274400Y-98254800D03*
D12*
X71274400Y-95714800D03*
%TD*%
%TO.C,D74*%
X71274400Y-101504800D03*
D13*
X71274400Y-104044800D03*
%TD*%
%TO.C,D75*%
X71264400Y-109962800D03*
D12*
X71264400Y-107422800D03*
%TD*%
%TO.C,D76*%
X71254400Y-52804800D03*
D13*
X71254400Y-50264800D03*
%TD*%
D12*
%TO.C,D77*%
X71244400Y-58634800D03*
D13*
X71244400Y-56094800D03*
%TD*%
D12*
%TO.C,D78*%
X71234400Y-64464800D03*
D13*
X71234400Y-61924800D03*
%TD*%
%TO.C,D79*%
X71234400Y-67734800D03*
D12*
X71234400Y-70274800D03*
%TD*%
D13*
%TO.C,D80*%
X71224400Y-73594800D03*
D12*
X71224400Y-76134800D03*
%TD*%
%TO.C,D81*%
X97794400Y-114538800D03*
D13*
X100334400Y-114538800D03*
%TD*%
D12*
%TO.C,D82*%
X97794400Y-47204800D03*
D13*
X100334400Y-47204800D03*
%TD*%
D12*
%TO.C,D83*%
X92004400Y-114548800D03*
D13*
X94544400Y-114548800D03*
%TD*%
%TO.C,D84*%
X76874400Y-80104800D03*
D12*
X74334400Y-80104800D03*
%TD*%
%TO.C,D85*%
X91984400Y-47194800D03*
D13*
X94524400Y-47194800D03*
%TD*%
%TO.C,D86*%
X82684400Y-80104800D03*
D12*
X80144400Y-80104800D03*
%TD*%
%TO.C,D87*%
X86214400Y-114528800D03*
D13*
X88754400Y-114528800D03*
%TD*%
%TO.C,D88*%
X88674400Y-47184800D03*
D12*
X86134400Y-47184800D03*
%TD*%
%TO.C,D89*%
X85944400Y-80104800D03*
D13*
X88484400Y-80104800D03*
%TD*%
%TO.C,D90*%
X82934400Y-114518800D03*
D12*
X80394400Y-114518800D03*
%TD*%
D13*
%TO.C,D91*%
X82874400Y-47184800D03*
D12*
X80334400Y-47184800D03*
%TD*%
D13*
%TO.C,D92*%
X77124400Y-114508800D03*
D12*
X74584400Y-114508800D03*
%TD*%
%TO.C,D93*%
X91794400Y-80104800D03*
D13*
X94334400Y-80104800D03*
%TD*%
%TO.C,D94*%
X77074400Y-47184800D03*
D12*
X74534400Y-47184800D03*
%TD*%
%TO.C,D95*%
X97584400Y-80094800D03*
D13*
X100124400Y-80094800D03*
%TD*%
%TO.C,D96*%
X103746400Y-109962800D03*
D12*
X103746400Y-107422800D03*
%TD*%
D13*
%TO.C,D97*%
X103714400Y-104084800D03*
D12*
X103714400Y-101544800D03*
%TD*%
D13*
%TO.C,D98*%
X103724400Y-98264800D03*
D12*
X103724400Y-95724800D03*
%TD*%
%TO.C,D99*%
X103724400Y-89924800D03*
D13*
X103724400Y-92464800D03*
%TD*%
D12*
%TO.C,D100*%
X103724400Y-84134800D03*
D13*
X103724400Y-86674800D03*
%TD*%
D12*
%TO.C,D101*%
X103958400Y-76322800D03*
D13*
X103958400Y-73782800D03*
%TD*%
D12*
%TO.C,D102*%
X103958400Y-70552800D03*
D13*
X103958400Y-68012800D03*
%TD*%
%TO.C,D103*%
X103958400Y-62142800D03*
D12*
X103958400Y-64682800D03*
%TD*%
D13*
%TO.C,D104*%
X103948400Y-56292800D03*
D12*
X103948400Y-58832800D03*
%TD*%
D13*
%TO.C,D105*%
X103958400Y-50492800D03*
D12*
X103958400Y-53032800D03*
%TD*%
D16*
%TO.C,J1*%
X162052000Y-147574000D03*
D17*
X159512000Y-147574000D03*
X156972000Y-147574000D03*
X154432000Y-147574000D03*
X151892000Y-147574000D03*
X149352000Y-147574000D03*
X146812000Y-147574000D03*
X144272000Y-147574000D03*
X141732000Y-147574000D03*
X139192000Y-147574000D03*
X136652000Y-147574000D03*
X134112000Y-147574000D03*
X131572000Y-147574000D03*
X129032000Y-147574000D03*
X126492000Y-147574000D03*
%TD*%
D14*
%TO.C,U2*%
X77878400Y-130492800D03*
D15*
X95658400Y-122872800D03*
X80418400Y-130492800D03*
X93118400Y-122872800D03*
X82958400Y-130492800D03*
X90578400Y-122872800D03*
X85498400Y-130492800D03*
X88038400Y-122872800D03*
X88038400Y-130492800D03*
X85498400Y-122872800D03*
X90578400Y-130492800D03*
X82958400Y-122872800D03*
X93118400Y-130492800D03*
X80418400Y-122872800D03*
X95658400Y-130492800D03*
X77878400Y-122872800D03*
%TD*%
M02*
