%TF.GenerationSoftware,KiCad,Pcbnew,8.0.2*%
%TF.CreationDate,2024-07-30T19:21:43+03:00*%
%TF.ProjectId,heater,68656174-6572-42e6-9b69-6361645f7063,rev?*%
%TF.SameCoordinates,Original*%
%TF.FileFunction,Copper,L2,Bot*%
%TF.FilePolarity,Positive*%
%FSLAX46Y46*%
G04 Gerber Fmt 4.6, Leading zero omitted, Abs format (unit mm)*
G04 Created by KiCad (PCBNEW 8.0.2) date 2024-07-30 19:21:43*
%MOMM*%
%LPD*%
G01*
G04 APERTURE LIST*
%TA.AperFunction,ComponentPad*%
%ADD10C,1.400000*%
%TD*%
%TA.AperFunction,ComponentPad*%
%ADD11O,1.400000X1.400000*%
%TD*%
%TA.AperFunction,ComponentPad*%
%ADD12R,3.960000X1.980000*%
%TD*%
%TA.AperFunction,ComponentPad*%
%ADD13O,3.960000X1.980000*%
%TD*%
%TA.AperFunction,ComponentPad*%
%ADD14R,1.300000X1.300000*%
%TD*%
%TA.AperFunction,ComponentPad*%
%ADD15C,1.300000*%
%TD*%
%TA.AperFunction,ComponentPad*%
%ADD16R,1.600000X1.600000*%
%TD*%
%TA.AperFunction,ComponentPad*%
%ADD17O,1.600000X1.600000*%
%TD*%
%TA.AperFunction,ComponentPad*%
%ADD18R,2.000000X1.905000*%
%TD*%
%TA.AperFunction,ComponentPad*%
%ADD19O,2.000000X1.905000*%
%TD*%
%TA.AperFunction,ComponentPad*%
%ADD20R,1.905000X2.000000*%
%TD*%
%TA.AperFunction,ComponentPad*%
%ADD21O,1.905000X2.000000*%
%TD*%
%TA.AperFunction,ComponentPad*%
%ADD22C,1.600000*%
%TD*%
%TA.AperFunction,ComponentPad*%
%ADD23R,2.000000X2.000000*%
%TD*%
%TA.AperFunction,ComponentPad*%
%ADD24C,2.000000*%
%TD*%
%TA.AperFunction,ComponentPad*%
%ADD25R,1.700000X1.700000*%
%TD*%
%TA.AperFunction,ComponentPad*%
%ADD26O,1.700000X1.700000*%
%TD*%
%TA.AperFunction,ComponentPad*%
%ADD27R,1.800000X1.800000*%
%TD*%
%TA.AperFunction,ComponentPad*%
%ADD28C,1.800000*%
%TD*%
%TA.AperFunction,ViaPad*%
%ADD29C,2.000000*%
%TD*%
%TA.AperFunction,Conductor*%
%ADD30C,1.000000*%
%TD*%
G04 APERTURE END LIST*
D10*
%TO.P,R2,1*%
%TO.N,/RELAY_ONE*%
X146580000Y-83875000D03*
D11*
%TO.P,R2,2*%
%TO.N,Net-(Q5-B)*%
X138960000Y-83875000D03*
%TD*%
D12*
%TO.P,J1,1,Pin_1*%
%TO.N,Net-(J1-Pin_1)*%
X60500000Y-93545000D03*
D13*
%TO.P,J1,2,Pin_2*%
%TO.N,+12V*%
X60500000Y-88545000D03*
%TD*%
D10*
%TO.P,R1,1*%
%TO.N,VCC*%
X152050000Y-50275000D03*
D11*
%TO.P,R1,2*%
%TO.N,Net-(R1-Pad2)*%
X159670000Y-50275000D03*
%TD*%
D14*
%TO.P,Q1,1,E*%
%TO.N,GND*%
X137910000Y-65230000D03*
D15*
%TO.P,Q1,2,B*%
%TO.N,Net-(Q1-B)*%
X136640000Y-63950000D03*
%TO.P,Q1,3,C*%
%TO.N,Net-(J2-Pin_4)*%
X137910000Y-62690000D03*
%TD*%
D12*
%TO.P,J6,1,Pin_1*%
%TO.N,Net-(D3-A2)*%
X185020000Y-54010000D03*
D13*
%TO.P,J6,2,Pin_2*%
%TO.N,Net-(D3-A1)*%
X185020000Y-59010000D03*
%TD*%
D16*
%TO.P,U4,1*%
%TO.N,Net-(R3-Pad2)*%
X157390000Y-83720000D03*
D17*
%TO.P,U4,2*%
%TO.N,Net-(J5-Pin_1)*%
X157390000Y-86260000D03*
%TO.P,U4,3,NC*%
%TO.N,unconnected-(U4-NC-Pad3)*%
X157390000Y-88800000D03*
%TO.P,U4,4*%
%TO.N,Net-(D2-G)*%
X165010000Y-88800000D03*
%TO.P,U4,5,NC*%
%TO.N,unconnected-(U4-NC-Pad5)*%
X165010000Y-86260000D03*
%TO.P,U4,6*%
%TO.N,Net-(D2-A2)*%
X165010000Y-83720000D03*
%TD*%
D16*
%TO.P,U2,1*%
%TO.N,Net-(R1-Pad2)*%
X159620000Y-54150000D03*
D17*
%TO.P,U2,2*%
%TO.N,Net-(J2-Pin_1)*%
X159620000Y-56690000D03*
%TO.P,U2,3,NC*%
%TO.N,unconnected-(U2-NC-Pad3)*%
X159620000Y-59230000D03*
%TO.P,U2,4*%
%TO.N,Net-(D3-G)*%
X167240000Y-59230000D03*
%TO.P,U2,5,NC*%
%TO.N,unconnected-(U2-NC-Pad5)*%
X167240000Y-56690000D03*
%TO.P,U2,6*%
%TO.N,Net-(D3-A2)*%
X167240000Y-54150000D03*
%TD*%
D18*
%TO.P,Q3,1,G*%
%TO.N,/GREEN*%
X76815000Y-58160000D03*
D19*
%TO.P,Q3,2,D*%
%TO.N,/GREEN_OUT*%
X76815000Y-60700000D03*
%TO.P,Q3,3,S*%
%TO.N,GND*%
X76815000Y-63240000D03*
%TD*%
D20*
%TO.P,U3,1,GND*%
%TO.N,Net-(J1-Pin_1)*%
X79047500Y-90800000D03*
D21*
%TO.P,U3,2,VO*%
%TO.N,VCC*%
X76507500Y-90800000D03*
%TO.P,U3,3,VI*%
%TO.N,Net-(U3-VI)*%
X73967500Y-90800000D03*
%TD*%
D16*
%TO.P,C2,1*%
%TO.N,VCC*%
X76267500Y-82000000D03*
D22*
%TO.P,C2,2*%
%TO.N,Net-(J1-Pin_1)*%
X78767500Y-82000000D03*
%TD*%
D18*
%TO.P,D2,1,A1*%
%TO.N,Net-(D2-A1)*%
X172135000Y-88685000D03*
D19*
%TO.P,D2,2,G*%
%TO.N,Net-(D2-G)*%
X172135000Y-86145000D03*
%TO.P,D2,3,A2*%
%TO.N,Net-(D2-A2)*%
X172135000Y-83605000D03*
%TD*%
D18*
%TO.P,Q6,1,G*%
%TO.N,/RELAY_ONE*%
X149995000Y-84345000D03*
D19*
%TO.P,Q6,2,D*%
%TO.N,Net-(J5-Pin_2)*%
X149995000Y-86885000D03*
%TO.P,Q6,3,S*%
%TO.N,GND*%
X149995000Y-89425000D03*
%TD*%
D10*
%TO.P,R5,1*%
%TO.N,Net-(U3-VI)*%
X69500000Y-90810000D03*
D11*
%TO.P,R5,2*%
%TO.N,+12V*%
X69500000Y-83190000D03*
%TD*%
D18*
%TO.P,Q4,1,G*%
%TO.N,/RED*%
X76805000Y-47490000D03*
D19*
%TO.P,Q4,2,D*%
%TO.N,/RED_OUT*%
X76805000Y-50030000D03*
%TO.P,Q4,3,S*%
%TO.N,GND*%
X76805000Y-52570000D03*
%TD*%
D14*
%TO.P,Q5,1,E*%
%TO.N,GND*%
X140270000Y-90665000D03*
D15*
%TO.P,Q5,2,B*%
%TO.N,Net-(Q5-B)*%
X139000000Y-89385000D03*
%TO.P,Q5,3,C*%
%TO.N,Net-(J5-Pin_4)*%
X140270000Y-88125000D03*
%TD*%
D12*
%TO.P,J4,1,Pin_1*%
%TO.N,Net-(D2-A2)*%
X184840000Y-83985000D03*
D13*
%TO.P,J4,2,Pin_2*%
%TO.N,Net-(D2-A1)*%
X184840000Y-88985000D03*
%TD*%
D18*
%TO.P,D3,1,A1*%
%TO.N,Net-(D3-A1)*%
X173165000Y-59070000D03*
D19*
%TO.P,D3,2,G*%
%TO.N,Net-(D3-G)*%
X173165000Y-56530000D03*
%TO.P,D3,3,A2*%
%TO.N,Net-(D3-A2)*%
X173165000Y-53990000D03*
%TD*%
D10*
%TO.P,R3,1*%
%TO.N,VCC*%
X156140000Y-80395000D03*
D11*
%TO.P,R3,2*%
%TO.N,Net-(R3-Pad2)*%
X163760000Y-80395000D03*
%TD*%
D10*
%TO.P,R4,1*%
%TO.N,/RELAY_TWO*%
X144200000Y-57940000D03*
D11*
%TO.P,R4,2*%
%TO.N,Net-(Q1-B)*%
X136580000Y-57940000D03*
%TD*%
D10*
%TO.P,R6,1*%
%TO.N,Net-(D1-K)*%
X84500000Y-92255000D03*
D11*
%TO.P,R6,2*%
%TO.N,Net-(J1-Pin_1)*%
X84500000Y-84635000D03*
%TD*%
D18*
%TO.P,Q2,1,G*%
%TO.N,/BLUE*%
X76915000Y-68965000D03*
D19*
%TO.P,Q2,2,D*%
%TO.N,/BLUE_OUT*%
X76915000Y-71505000D03*
%TO.P,Q2,3,S*%
%TO.N,GND*%
X76915000Y-74045000D03*
%TD*%
D23*
%TO.P,U1,1,3V3*%
%TO.N,unconnected-(U1-3V3-Pad1)*%
X117827500Y-84915000D03*
D24*
%TO.P,U1,2,GND*%
%TO.N,GND*%
X117827500Y-82375000D03*
%TO.P,U1,3,D15*%
%TO.N,unconnected-(U1-D15-Pad3)*%
X117827500Y-79835000D03*
%TO.P,U1,4,D2*%
%TO.N,/RELAY_ONE*%
X117827500Y-77295000D03*
%TO.P,U1,5,D4*%
%TO.N,/RELAY_TWO*%
X117827500Y-74755000D03*
%TO.P,U1,6,RX2*%
%TO.N,unconnected-(U1-RX2-Pad6)*%
X117827500Y-72215000D03*
%TO.P,U1,7,TX2*%
%TO.N,unconnected-(U1-TX2-Pad7)*%
X117827500Y-69675000D03*
%TO.P,U1,8,D5*%
%TO.N,unconnected-(U1-D5-Pad8)*%
X117827500Y-67135000D03*
%TO.P,U1,9,D18*%
%TO.N,unconnected-(U1-D18-Pad9)*%
X117827500Y-64595000D03*
%TO.P,U1,10,D19*%
%TO.N,unconnected-(U1-D19-Pad10)*%
X117827500Y-62055000D03*
%TO.P,U1,11,D21*%
%TO.N,unconnected-(U1-D21-Pad11)*%
X117827500Y-59515000D03*
%TO.P,U1,12,RX0*%
%TO.N,unconnected-(U1-RX0-Pad12)*%
X117827500Y-56975000D03*
%TO.P,U1,13,TX0*%
%TO.N,unconnected-(U1-TX0-Pad13)*%
X117827500Y-54435000D03*
%TO.P,U1,14,D22*%
%TO.N,unconnected-(U1-D22-Pad14)*%
X117827500Y-51895000D03*
%TO.P,U1,15,D23*%
%TO.N,unconnected-(U1-D23-Pad15)*%
X117827500Y-49355000D03*
%TO.P,U1,16,EN*%
%TO.N,unconnected-(U1-EN-Pad16)*%
X92427500Y-49355000D03*
%TO.P,U1,17,VP*%
%TO.N,unconnected-(U1-VP-Pad17)*%
X92427500Y-51895000D03*
%TO.P,U1,18,VN*%
%TO.N,unconnected-(U1-VN-Pad18)*%
X92427500Y-54435000D03*
%TO.P,U1,19,D34*%
%TO.N,unconnected-(U1-D34-Pad19)*%
X92427500Y-56975000D03*
%TO.P,U1,20,D35*%
%TO.N,/RED*%
X92427500Y-59515000D03*
%TO.P,U1,21,D32*%
%TO.N,/GREEN*%
X92427500Y-62055000D03*
%TO.P,U1,22,D33*%
%TO.N,/BLUE*%
X92427500Y-64595000D03*
%TO.P,U1,23,D25*%
%TO.N,unconnected-(U1-D25-Pad23)*%
X92427500Y-67135000D03*
%TO.P,U1,24,D26*%
%TO.N,unconnected-(U1-D26-Pad24)*%
X92427500Y-69675000D03*
%TO.P,U1,25,D27*%
%TO.N,unconnected-(U1-D27-Pad25)*%
X92427500Y-72215000D03*
%TO.P,U1,26,D14*%
%TO.N,unconnected-(U1-D14-Pad26)*%
X92427500Y-74755000D03*
%TO.P,U1,27,D12*%
%TO.N,unconnected-(U1-D12-Pad27)*%
X92427500Y-77295000D03*
%TO.P,U1,28,D13*%
%TO.N,unconnected-(U1-D13-Pad28)*%
X92427500Y-79835000D03*
%TO.P,U1,29,GND*%
%TO.N,GND*%
X92427500Y-82375000D03*
%TO.P,U1,30,VIN*%
%TO.N,VCC*%
X92427500Y-84915000D03*
%TD*%
D25*
%TO.P,J2,1,Pin_1*%
%TO.N,Net-(J2-Pin_1)*%
X136665000Y-51600000D03*
D26*
%TO.P,J2,2,Pin_2*%
%TO.N,Net-(J2-Pin_2)*%
X139205000Y-51600000D03*
%TO.P,J2,3,Pin_3*%
%TO.N,Net-(J2-Pin_1)*%
X136665000Y-54140000D03*
%TO.P,J2,4,Pin_4*%
%TO.N,Net-(J2-Pin_4)*%
X139205000Y-54140000D03*
%TD*%
D25*
%TO.P,J5,1,Pin_1*%
%TO.N,Net-(J5-Pin_1)*%
X140130000Y-76485000D03*
D26*
%TO.P,J5,2,Pin_2*%
%TO.N,Net-(J5-Pin_2)*%
X142670000Y-76485000D03*
%TO.P,J5,3,Pin_3*%
%TO.N,Net-(J5-Pin_1)*%
X140130000Y-79025000D03*
%TO.P,J5,4,Pin_4*%
%TO.N,Net-(J5-Pin_4)*%
X142670000Y-79025000D03*
%TD*%
D25*
%TO.P,J3,1,Pin_1*%
%TO.N,/GREEN_OUT*%
X66900000Y-57330000D03*
D26*
%TO.P,J3,2,Pin_2*%
%TO.N,/RED_OUT*%
X66900000Y-59870000D03*
%TO.P,J3,3,Pin_3*%
%TO.N,/BLUE_OUT*%
X66900000Y-62410000D03*
%TO.P,J3,4,Pin_4*%
%TO.N,+12V*%
X66900000Y-64950000D03*
%TD*%
D18*
%TO.P,Q7,1,G*%
%TO.N,/RELAY_TWO*%
X148395000Y-56035000D03*
D19*
%TO.P,Q7,2,D*%
%TO.N,Net-(J2-Pin_2)*%
X148395000Y-58575000D03*
%TO.P,Q7,3,S*%
%TO.N,GND*%
X148395000Y-61115000D03*
%TD*%
D16*
%TO.P,C1,1*%
%TO.N,Net-(U3-VI)*%
X73967500Y-100200000D03*
D22*
%TO.P,C1,2*%
%TO.N,Net-(J1-Pin_1)*%
X76467500Y-100200000D03*
%TD*%
D27*
%TO.P,D1,1,K*%
%TO.N,Net-(D1-K)*%
X85382500Y-97245000D03*
D28*
%TO.P,D1,2,A*%
%TO.N,VCC*%
X82842500Y-97245000D03*
%TD*%
D29*
%TO.N,VCC*%
X129030000Y-68320000D03*
X129030000Y-75520000D03*
%TO.N,/GREEN*%
X73290000Y-55210000D03*
X81700000Y-55210000D03*
%TO.N,/BLUE*%
X73100000Y-66100000D03*
X81800000Y-65990000D03*
%TO.N,GND*%
X123870000Y-75520000D03*
X123885264Y-70100000D03*
X141230000Y-65390000D03*
X145300000Y-65390000D03*
%TD*%
D30*
%TO.N,/GREEN*%
X90785000Y-62055000D02*
X92427500Y-62055000D01*
X83940000Y-55210000D02*
X90785000Y-62055000D01*
X81700000Y-55210000D02*
X83940000Y-55210000D01*
%TO.N,/BLUE*%
X83120000Y-64670000D02*
X92352500Y-64670000D01*
X81800000Y-65990000D02*
X83120000Y-64670000D01*
X92352500Y-64670000D02*
X92427500Y-64595000D01*
%TO.N,GND*%
X89685000Y-82375000D02*
X92427500Y-82375000D01*
X85880000Y-72012500D02*
X85880000Y-78570000D01*
X84797500Y-70930000D02*
X85880000Y-72012500D01*
X79300000Y-71200000D02*
X79570000Y-70930000D01*
X79570000Y-70930000D02*
X84797500Y-70930000D01*
X85880000Y-78570000D02*
X89685000Y-82375000D01*
X79300000Y-70430000D02*
X79300000Y-71200000D01*
X77555000Y-74045000D02*
X76915000Y-74045000D01*
X79300000Y-72300000D02*
X77555000Y-74045000D01*
X79300000Y-70430000D02*
X79300000Y-72300000D01*
X79130000Y-63370000D02*
X79300000Y-63200000D01*
X76815000Y-63240000D02*
X76945000Y-63370000D01*
X76945000Y-63370000D02*
X79130000Y-63370000D01*
X79300000Y-52730000D02*
X79300000Y-70430000D01*
X76945000Y-52630000D02*
X79400000Y-52630000D01*
X79400000Y-52630000D02*
X79300000Y-52730000D01*
%TO.N,/GREEN*%
X73290000Y-56690000D02*
X74760000Y-58160000D01*
X73290000Y-55210000D02*
X73290000Y-56690000D01*
X74760000Y-58160000D02*
X76815000Y-58160000D01*
%TO.N,/BLUE*%
X74965000Y-68965000D02*
X76915000Y-68965000D01*
X73100000Y-66100000D02*
X73100000Y-67100000D01*
X73100000Y-67100000D02*
X74965000Y-68965000D01*
%TO.N,/BLUE_OUT*%
X70200000Y-64085000D02*
X68525000Y-62410000D01*
X74420000Y-71505000D02*
X70200000Y-67285000D01*
X76915000Y-71505000D02*
X74420000Y-71505000D01*
X70200000Y-67285000D02*
X70200000Y-64085000D01*
X68525000Y-62410000D02*
X66900000Y-62410000D01*
%TO.N,/RELAY_TWO*%
X120782500Y-71800000D02*
X117827500Y-74755000D01*
X140017944Y-71800000D02*
X120782500Y-71800000D01*
X143300000Y-68517944D02*
X140017944Y-71800000D01*
X143300000Y-58840000D02*
X143300000Y-68517944D01*
X144200000Y-57940000D02*
X143300000Y-58840000D01*
%TO.N,GND*%
X138070000Y-65390000D02*
X137910000Y-65230000D01*
X141230000Y-65390000D02*
X138070000Y-65390000D01*
X145300000Y-65390000D02*
X148290000Y-65390000D01*
X152100000Y-92330000D02*
X141935000Y-92330000D01*
X153080000Y-74780000D02*
X153080000Y-91350000D01*
X141935000Y-92330000D02*
X140270000Y-90665000D01*
X148290000Y-69990000D02*
X153080000Y-74780000D01*
X153080000Y-91350000D02*
X152100000Y-92330000D01*
X148290000Y-65390000D02*
X148290000Y-69990000D01*
X148300000Y-65380000D02*
X148290000Y-65390000D01*
X148300000Y-61210000D02*
X148300000Y-65380000D01*
X148395000Y-61115000D02*
X148300000Y-61210000D01*
X123885264Y-70100000D02*
X123965264Y-70020000D01*
X133120000Y-70020000D02*
X137910000Y-65230000D01*
X123965264Y-70020000D02*
X133120000Y-70020000D01*
X123870000Y-75520000D02*
X123870000Y-79040000D01*
X123870000Y-79040000D02*
X120535000Y-82375000D01*
X120535000Y-82375000D02*
X117827500Y-82375000D01*
%TO.N,VCC*%
X129090000Y-68260000D02*
X129090000Y-54120000D01*
X129030000Y-68320000D02*
X129090000Y-68260000D01*
X129090000Y-54120000D02*
X135330000Y-47880000D01*
X135330000Y-47880000D02*
X152675000Y-47880000D01*
X128880000Y-84120000D02*
X125680000Y-87320000D01*
X125680000Y-87320000D02*
X94832500Y-87320000D01*
X129030000Y-75520000D02*
X128880000Y-75670000D01*
X94832500Y-87320000D02*
X92427500Y-84915000D01*
X128880000Y-75670000D02*
X128880000Y-84120000D01*
X92342500Y-85000000D02*
X92427500Y-84915000D01*
X87682500Y-85000000D02*
X92342500Y-85000000D01*
X87682500Y-83705000D02*
X87682500Y-85000000D01*
X82500000Y-96902500D02*
X82842500Y-97245000D01*
X82500000Y-91000000D02*
X82500000Y-96902500D01*
X87682500Y-85817500D02*
X82500000Y-91000000D01*
X87682500Y-83705000D02*
X87682500Y-85817500D01*
%TO.N,Net-(D1-K)*%
X85382500Y-93137500D02*
X84500000Y-92255000D01*
X85382500Y-97245000D02*
X85382500Y-93137500D01*
%TO.N,Net-(J1-Pin_1)*%
X82500000Y-82000000D02*
X78767500Y-82000000D01*
X84500000Y-84000000D02*
X82500000Y-82000000D01*
X84500000Y-84635000D02*
X84500000Y-84000000D01*
%TO.N,+12V*%
X68090000Y-80590000D02*
X66900000Y-80590000D01*
X60500000Y-88545000D02*
X60500000Y-86500000D01*
X69500000Y-82000000D02*
X68090000Y-80590000D01*
X66410000Y-80590000D02*
X66900000Y-80590000D01*
X66900000Y-80590000D02*
X66900000Y-64950000D01*
X60500000Y-86500000D02*
X66410000Y-80590000D01*
X69500000Y-83190000D02*
X69500000Y-82000000D01*
%TO.N,Net-(J1-Pin_1)*%
X60500000Y-93545000D02*
X61112500Y-93545000D01*
X78767500Y-82000000D02*
X78767500Y-90520000D01*
X79047500Y-97620000D02*
X79047500Y-90800000D01*
X75167500Y-102400000D02*
X76467500Y-101100000D01*
X69967500Y-102400000D02*
X75167500Y-102400000D01*
X78767500Y-90520000D02*
X79047500Y-90800000D01*
X76467500Y-100200000D02*
X79047500Y-97620000D01*
X76467500Y-101100000D02*
X76467500Y-100200000D01*
X61112500Y-93545000D02*
X69967500Y-102400000D01*
%TO.N,VCC*%
X162630000Y-50015000D02*
X160495000Y-47880000D01*
X160495000Y-47880000D02*
X152675000Y-47880000D01*
X152140000Y-47880000D02*
X152675000Y-47880000D01*
X77277500Y-79420000D02*
X76267500Y-80430000D01*
X152050000Y-50275000D02*
X152050000Y-47970000D01*
X87682500Y-83705000D02*
X83397500Y-79420000D01*
X83397500Y-79420000D02*
X77277500Y-79420000D01*
X152050000Y-47970000D02*
X152140000Y-47880000D01*
X76507500Y-82240000D02*
X76267500Y-82000000D01*
X76507500Y-90800000D02*
X76507500Y-82240000D01*
X76267500Y-80430000D02*
X76267500Y-82000000D01*
X156140000Y-80395000D02*
X162630000Y-73905000D01*
X162630000Y-73905000D02*
X162630000Y-50015000D01*
%TO.N,Net-(D2-G)*%
X165010000Y-88800000D02*
X167445000Y-86365000D01*
X168390000Y-86365000D02*
X168610000Y-86145000D01*
X167445000Y-86365000D02*
X168390000Y-86365000D01*
X168610000Y-86145000D02*
X172135000Y-86145000D01*
%TO.N,Net-(D2-A1)*%
X172375000Y-88445000D02*
X172135000Y-88685000D01*
X184300000Y-88445000D02*
X172375000Y-88445000D01*
X184840000Y-88985000D02*
X184300000Y-88445000D01*
%TO.N,/RED*%
X76805000Y-47490000D02*
X79790000Y-47490000D01*
X79790000Y-47490000D02*
X91815000Y-59515000D01*
X91815000Y-59515000D02*
X92427500Y-59515000D01*
%TO.N,/BLUE*%
X91945000Y-64595000D02*
X92427500Y-64595000D01*
%TO.N,GND*%
X117827500Y-82375000D02*
X92427500Y-82375000D01*
X149995000Y-89425000D02*
X149995000Y-92325000D01*
X149995000Y-92325000D02*
X150000000Y-92330000D01*
%TO.N,/RELAY_ONE*%
X149995000Y-79410000D02*
X149995000Y-84345000D01*
X117827500Y-77295000D02*
X121302500Y-73820000D01*
X144405000Y-73820000D02*
X149995000Y-79410000D01*
X149995000Y-84345000D02*
X147050000Y-84345000D01*
X117827500Y-77295000D02*
X117842500Y-77310000D01*
X121302500Y-73820000D02*
X144405000Y-73820000D01*
X147050000Y-84345000D02*
X146580000Y-83875000D01*
%TO.N,/GREEN_OUT*%
X74460000Y-60700000D02*
X71090000Y-57330000D01*
X71090000Y-57330000D02*
X66900000Y-57330000D01*
X76815000Y-60700000D02*
X74460000Y-60700000D01*
%TO.N,/RED_OUT*%
X70110000Y-50030000D02*
X64510000Y-55630000D01*
X76805000Y-50030000D02*
X70110000Y-50030000D01*
X65697919Y-59870000D02*
X66900000Y-59870000D01*
X64510000Y-58682081D02*
X65697919Y-59870000D01*
X64510000Y-55630000D02*
X64510000Y-58682081D01*
%TO.N,/RELAY_TWO*%
X144200000Y-57940000D02*
X145890000Y-56250000D01*
X145890000Y-56250000D02*
X145890000Y-56190000D01*
X145890000Y-56190000D02*
X146045000Y-56035000D01*
X146045000Y-56035000D02*
X148395000Y-56035000D01*
%TO.N,Net-(D2-A2)*%
X184300000Y-83445000D02*
X172295000Y-83445000D01*
X165010000Y-83720000D02*
X172020000Y-83720000D01*
X172295000Y-83445000D02*
X172135000Y-83605000D01*
X172020000Y-83720000D02*
X172135000Y-83605000D01*
X184840000Y-83985000D02*
X184300000Y-83445000D01*
%TO.N,Net-(D3-G)*%
X169940000Y-56530000D02*
X173165000Y-56530000D01*
X167240000Y-59230000D02*
X169940000Y-56530000D01*
%TO.N,Net-(D3-A1)*%
X184960000Y-59070000D02*
X185020000Y-59010000D01*
X173165000Y-59070000D02*
X184960000Y-59070000D01*
%TO.N,Net-(D3-A2)*%
X173165000Y-53990000D02*
X185000000Y-53990000D01*
X167240000Y-54150000D02*
X173005000Y-54150000D01*
X185000000Y-53990000D02*
X185020000Y-54010000D01*
X173005000Y-54150000D02*
X173165000Y-53990000D01*
%TO.N,Net-(Q1-B)*%
X135880000Y-58640000D02*
X135880000Y-63190000D01*
X135880000Y-63190000D02*
X136640000Y-63950000D01*
X136580000Y-57940000D02*
X135880000Y-58640000D01*
%TO.N,Net-(Q5-B)*%
X138350001Y-84484999D02*
X138960000Y-83875000D01*
X139000000Y-89385000D02*
X138350001Y-88735001D01*
X138350001Y-88735001D02*
X138350001Y-84484999D01*
%TO.N,Net-(R3-Pad2)*%
X157390000Y-83720000D02*
X160435000Y-83720000D01*
X160435000Y-83720000D02*
X163760000Y-80395000D01*
%TO.N,Net-(J2-Pin_4)*%
X139205000Y-61395000D02*
X139205000Y-54140000D01*
X137910000Y-62690000D02*
X139205000Y-61395000D01*
%TO.N,Net-(J2-Pin_2)*%
X150640000Y-57440000D02*
X149505000Y-58575000D01*
X147312500Y-51600000D02*
X150640000Y-54927500D01*
X139205000Y-51600000D02*
X147312500Y-51600000D01*
X150640000Y-54927500D02*
X150640000Y-57440000D01*
X149505000Y-58575000D02*
X148395000Y-58575000D01*
%TO.N,Net-(J2-Pin_1)*%
X159620000Y-56690000D02*
X155585000Y-56690000D01*
X148945000Y-50050000D02*
X138215000Y-50050000D01*
X136665000Y-54140000D02*
X136665000Y-51600000D01*
X155585000Y-56690000D02*
X148945000Y-50050000D01*
X138215000Y-50050000D02*
X136665000Y-51600000D01*
%TO.N,Net-(J5-Pin_1)*%
X159620000Y-92570000D02*
X156740000Y-95450000D01*
X136945000Y-79025000D02*
X140130000Y-79025000D01*
X157390000Y-86260000D02*
X158525000Y-86260000D01*
X156740000Y-95450000D02*
X140185000Y-95450000D01*
X135390000Y-80580000D02*
X136945000Y-79025000D01*
X140185000Y-95450000D02*
X135390000Y-90655000D01*
X159620000Y-87355000D02*
X159620000Y-92570000D01*
X135390000Y-90655000D02*
X135390000Y-80580000D01*
X140130000Y-79025000D02*
X140130000Y-76485000D01*
X158525000Y-86260000D02*
X159620000Y-87355000D01*
%TO.N,Net-(J5-Pin_2)*%
X144900000Y-77565000D02*
X143820000Y-76485000D01*
X146710000Y-86885000D02*
X144900000Y-85075000D01*
X143820000Y-76485000D02*
X142670000Y-76485000D01*
X144900000Y-85075000D02*
X144900000Y-77565000D01*
X149995000Y-86885000D02*
X146710000Y-86885000D01*
%TO.N,Net-(J5-Pin_4)*%
X142670000Y-85725000D02*
X140270000Y-88125000D01*
X142670000Y-79025000D02*
X142670000Y-85725000D01*
%TO.N,Net-(R1-Pad2)*%
X159620000Y-50325000D02*
X159670000Y-50275000D01*
X159620000Y-54150000D02*
X159620000Y-50325000D01*
%TO.N,Net-(U3-VI)*%
X69500000Y-90810000D02*
X69500000Y-97300000D01*
X72400000Y-100200000D02*
X73967500Y-100200000D01*
X73967500Y-100200000D02*
X73967500Y-90800000D01*
X69500000Y-97300000D02*
X72400000Y-100200000D01*
%TD*%
M02*
