M48
; DRILL file {KiCad (5.1.5)-3} date 4/13/2020 2:59:41 PM
; FORMAT={-:-/ absolute / metric / decimal}
; #@! TF.CreationDate,2020-04-13T14:59:41+02:00
; #@! TF.GenerationSoftware,Kicad,Pcbnew,(5.1.5)-3
; #@! TF.FileFunction,Plated,1,2,PTH
FMAT,2
METRIC
T1C0.550
T2C0.700
T3C0.800
T4C0.900
T5C1.000
T6C1.100
T7C1.200
T8C1.300
T9C1.400
T10C1.600
%
G90
G05
T1
X189.738Y-223.266
X191.262Y-262.382
X191.262Y-263.652
X191.008Y-244.856
X190.5Y-202.184
X189.738Y-161.036
X189.738Y-162.306
X189.738Y-163.576
X191.008Y-179.07
X191.008Y-180.34
X191.008Y-181.61
X192.024Y-280.162
X192.024Y-281.432
X192.024Y-282.702
X189.738Y-221.996
X189.738Y-224.536
X191.262Y-264.922
X191.008Y-243.586
X191.008Y-246.126
X190.5Y-200.914
X190.5Y-203.454
T2
X98.806Y-94.742
X99.138Y-115.57
X101.6Y-143.764
X102.616Y-83.82
X103.124Y-98.044
X103.456Y-128.524
X106.426Y-205.232
X106.426Y-215.392
X107.696Y-115.57
X108.458Y-102.108
X109.728Y-104.902
X109.728Y-147.574
X109.728Y-166.37
X110.236Y-187.706
X111.584Y-183.134
X112.014Y-158.926
X112.118Y-148.992
X113.03Y-107.696
X113.628Y-143.764
X114.232Y-128.338
X115.316Y-84.328
X115.824Y-130.556
X115.824Y-138.606
X116.84Y-183.134
X116.84Y-216.662
X117.153Y-187.647
X117.348Y-144.018
X117.348Y-159.512
X118.618Y-95.25
X119.38Y-153.162
X120.318Y-97.282
X120.396Y-104.55
X120.65Y-102.362
X122.682Y-170.688
X123.19Y-151.13
X123.19Y-139.7
X125.171Y-152.959
X125.222Y-160.274
X125.984Y-97.536
X126.238Y-107.95
X129.794Y-199.644
X131.318Y-202.692
X132.842Y-100.33
X132.842Y-103.886
X132.89Y-114.606
X133.096Y-140.208
X133.35Y-170.434
X133.35Y-216.594
X133.428Y-210.689
X133.996Y-95.852
X134.116Y-160.016
X136.398Y-86.614
X136.652Y-143.256
X136.906Y-90.932
X140.462Y-210.566
X143.144Y-95.852
X143.686Y-199.644
X143.686Y-202.474
X144.018Y-100.33
X145.034Y-140.208
X145.497Y-107.827
X145.542Y-90.678
X145.737Y-135.382
X145.778Y-124.701
X146.812Y-97.536
X148.082Y-106.934
X148.082Y-142.826
X148.59Y-86.614
X149.293Y-117.661
X149.446Y-113.109
X149.49Y-105.244
X150.055Y-183.701
X150.114Y-122.936
X150.114Y-130.81
X150.114Y-177.624
X150.368Y-228.854
X151.034Y-75.516
X151.384Y-97.204
X151.987Y-129.574
X153.162Y-174.752
X153.162Y-181.356
X153.162Y-198.628
X154.178Y-209.804
X156.034Y-153.67
X156.034Y-165.608
X156.21Y-138.938
X156.464Y-105.41
X157.226Y-109.142
X157.734Y-78.232
X157.734Y-95.934
X158.418Y-228.854
X158.496Y-107.188
X158.496Y-129.54
X159.004Y-184.658
X160.528Y-136.652
X160.528Y-126.492
X160.782Y-122.174
X161.036Y-205.74
X161.544Y-79.502
X161.544Y-106.426
X162.13Y-228.854
X166.624Y-170.688
X166.956Y-141.732
X167.365Y-137.132
X169.418Y-130.81
X170.18Y-77.978
X170.434Y-107.442
X171.45Y-122.428
X171.555Y-154.791
X171.89Y-209.618
X172.466Y-205.994
X173.736Y-198.628
X173.99Y-228.854
X174.244Y-170.688
X174.752Y-107.188
X174.752Y-165.608
X174.928Y-184.912
X175.006Y-81.28
X175.514Y-134.62
X175.827Y-125.671
X177.292Y-137.668
X179.07Y-69.85
X181.102Y-140.208
X183.896Y-45.72
X185.42Y-30.734
X187.198Y-69.85
X187.96Y-92.71
X187.96Y-96.774
X187.96Y-99.822
X187.96Y-106.856
X188.722Y-137.668
X189.992Y-140.208
X191.77Y-113.538
X192.024Y-46.15
X192.532Y-137.922
X192.786Y-52.324
X192.845Y-145.737
X193.04Y-58.342
X193.04Y-86.36
X194.31Y-98.806
X195.766Y-84.514
X195.834Y-69.088
X195.834Y-80.772
X196.088Y-31.164
X196.088Y-36.068
X196.088Y-48.514
X196.088Y-93.296
X196.088Y-96.696
X196.088Y-101.092
X197.104Y-138.684
X197.612Y-86.36
X199.39Y-32.872
X199.39Y-232.41
X199.39Y-246.888
X199.644Y-98.806
X201.422Y-81.28
X201.645Y-86.388
X204.47Y-41.402
X204.47Y-46.51
X204.724Y-101.268
X204.978Y-113.284
X207.01Y-54.356
X207.01Y-59.436
X208.534Y-96.09
X208.534Y-99.822
X208.534Y-108.684
X208.593Y-113.284
X208.788Y-31.496
X209.296Y-138.684
X209.528Y-226.59
X209.528Y-226.59
X214.1Y-226.59
T3
X102.362Y-174.244
X102.362Y-189.484
X219.612Y-111.798
X219.612Y-119.418
X222.152Y-111.798
X222.152Y-119.418
X224.692Y-111.798
X224.692Y-119.418
X219.202Y-59.182
X219.202Y-66.802
X221.742Y-59.182
X221.742Y-66.802
X224.282Y-59.182
X224.282Y-66.802
X177.292Y-158.75
X177.292Y-161.29
X177.292Y-163.83
X184.912Y-158.75
X184.912Y-161.29
X184.912Y-163.83
X101.854Y-164.846
X101.854Y-167.386
X101.854Y-169.926
X117.37Y-164.886
X122.37Y-164.886
X120.476Y-128.524
X125.476Y-128.524
X176.276Y-154.94
X191.516Y-154.94
X175.514Y-194.056
X190.754Y-194.056
X218.876Y-17.304
X218.876Y-24.924
X221.416Y-17.304
X221.416Y-24.924
X223.956Y-17.304
X223.956Y-24.924
X219.702Y-138.236
X219.702Y-145.856
X222.242Y-138.236
X222.242Y-145.856
X224.782Y-138.236
X224.782Y-145.856
X108.712Y-264.16
X123.952Y-264.16
X178.308Y-177.038
X178.308Y-179.578
X178.308Y-182.118
X185.928Y-177.038
X185.928Y-179.578
X185.928Y-182.118
X174.498Y-214.63
X189.738Y-214.63
X174.752Y-273.812
X189.992Y-273.812
X177.038Y-232.918
X192.278Y-232.918
X186.182Y-250.698
X201.422Y-250.698
X128.37Y-152.83
X128.37Y-168.07
X128.742Y-180.753
X128.742Y-185.633
X219.468Y-31.836
X219.468Y-39.456
X222.008Y-31.836
X222.008Y-39.456
X224.548Y-31.836
X224.548Y-39.456
X179.578Y-277.876
X179.578Y-280.416
X179.578Y-282.956
X187.198Y-277.876
X187.198Y-280.416
X187.198Y-282.956
X158.322Y-256.286
X163.322Y-256.286
X178.054Y-198.12
X178.054Y-200.66
X178.054Y-203.2
X185.674Y-198.12
X185.674Y-200.66
X185.674Y-203.2
X177.8Y-259.588
X177.8Y-262.128
X177.8Y-264.668
X185.42Y-259.588
X185.42Y-262.128
X185.42Y-264.668
X181.102Y-268.478
X196.342Y-268.478
X178.054Y-210.058
X193.294Y-210.058
X150.622Y-263.906
X165.862Y-263.906
X122.473Y-180.894
X122.473Y-185.894
X126.37Y-173.83
X131.37Y-173.83
X219.52Y-98.612
X219.52Y-106.232
X222.06Y-98.612
X222.06Y-106.232
X224.6Y-98.612
X224.6Y-106.232
X129.794Y-99.314
X129.794Y-114.554
X127.72Y-118.526
X132.72Y-118.526
X179.07Y-189.484
X194.31Y-189.484
X120.476Y-123.276
X125.476Y-123.276
X219.02Y-85.21
X219.02Y-92.83
X221.56Y-85.21
X221.56Y-92.83
X224.1Y-85.21
X224.1Y-92.83
X118.364Y-256.794
X123.364Y-256.794
X175.768Y-236.982
X191.008Y-236.982
X219.434Y-125.162
X219.434Y-132.782
X221.974Y-125.162
X221.974Y-132.782
X224.514Y-125.162
X224.514Y-132.782
X130.22Y-125.026
X130.22Y-129.906
X179.324Y-168.402
X194.564Y-168.402
X176.276Y-172.466
X191.516Y-172.466
X173.736Y-254.762
X188.976Y-254.762
X176.022Y-219.352
X176.022Y-221.892
X176.022Y-224.432
X183.642Y-219.352
X183.642Y-221.892
X183.642Y-224.432
X177.8Y-241.046
X177.8Y-243.586
X177.8Y-246.126
X185.42Y-241.046
X185.42Y-243.586
X185.42Y-246.126
X219.366Y-71.762
X219.366Y-79.382
X221.906Y-71.762
X221.906Y-79.382
X224.446Y-71.762
X224.446Y-79.382
X219.422Y-45.468
X219.422Y-53.088
X221.962Y-45.468
X221.962Y-53.088
X224.502Y-45.468
X224.502Y-53.088
T4
X213.252Y-110.898
X215.792Y-110.898
X213.106Y-137.414
X215.646Y-137.414
X112.014Y-256.54
X114.554Y-256.54
X212.852Y-97.412
X215.392Y-97.412
X213.062Y-44.06
X215.602Y-44.06
X212.46Y-83.91
X215.0Y-83.91
X213.106Y-123.952
X215.646Y-123.952
X212.868Y-57.292
X215.408Y-57.292
X212.416Y-17.804
X214.956Y-17.804
X212.908Y-30.936
X215.448Y-30.936
X212.606Y-70.862
X215.146Y-70.862
X151.892Y-255.778
X154.432Y-255.778
T5
X149.93Y-186.58
X149.93Y-189.12
X149.93Y-191.66
X152.47Y-186.58
X152.47Y-189.12
X152.47Y-191.66
X137.103Y-159.966
X137.103Y-162.506
X137.103Y-165.046
X137.103Y-167.586
X137.103Y-170.126
X137.103Y-172.666
X137.103Y-175.206
X137.103Y-177.746
X137.103Y-180.286
X137.103Y-182.826
X137.103Y-185.366
X137.103Y-187.906
X137.103Y-190.446
X137.103Y-192.986
X144.723Y-159.966
X144.723Y-162.506
X144.723Y-165.046
X144.723Y-167.586
X144.723Y-170.126
X144.723Y-172.666
X144.723Y-175.206
X144.723Y-177.746
X144.723Y-180.286
X144.723Y-182.826
X144.723Y-185.366
X144.723Y-187.906
X144.723Y-190.446
X144.723Y-192.986
X106.484Y-162.3
X106.484Y-164.84
X106.484Y-167.38
X106.484Y-169.92
X106.484Y-172.46
X106.484Y-175.0
X106.484Y-177.54
X106.484Y-180.08
X106.484Y-182.62
X106.484Y-185.16
X106.484Y-187.7
X106.484Y-190.24
X106.484Y-192.78
X106.484Y-195.32
X106.484Y-197.86
X106.484Y-200.4
X135.41Y-104.447
X135.41Y-106.987
X135.41Y-109.527
X135.41Y-112.067
X135.41Y-114.607
X135.41Y-117.147
X135.41Y-119.687
X135.41Y-122.227
X135.41Y-124.767
X135.41Y-127.307
X135.41Y-129.847
X135.41Y-132.387
X135.41Y-134.927
X135.41Y-137.467
X143.03Y-104.447
X143.03Y-106.987
X143.03Y-109.527
X143.03Y-112.067
X143.03Y-114.607
X143.03Y-117.147
X143.03Y-119.687
X143.03Y-122.227
X143.03Y-124.767
X143.03Y-127.307
X143.03Y-129.847
X143.03Y-132.387
X143.03Y-134.927
X143.03Y-137.467
X150.025Y-133.881
X150.025Y-136.421
X150.025Y-138.961
X152.565Y-133.881
X152.565Y-136.421
X152.565Y-138.961
T6
X195.834Y-272.288
X195.834Y-282.448
X195.072Y-154.432
X195.072Y-164.592
X195.326Y-172.466
X195.326Y-182.626
X195.834Y-254.508
X195.834Y-264.668
X194.818Y-236.474
X194.818Y-246.634
X194.31Y-214.63
X194.31Y-224.79
X194.818Y-193.04
X194.818Y-203.2
T7
X154.004Y-244.602
X159.004Y-244.602
X112.776Y-115.316
X117.776Y-115.316
X112.776Y-174.752
X117.776Y-174.752
X115.396Y-245.364
X120.396Y-245.364
T8
X130.556Y-246.126
X130.556Y-268.626
X158.242Y-22.606
X158.242Y-27.606
X170.742Y-22.606
X170.742Y-27.606
X120.396Y-53.947
X120.396Y-58.947
X132.896Y-53.947
X132.896Y-58.947
X142.44Y-53.493
X142.44Y-58.493
X154.94Y-53.493
X154.94Y-58.493
X99.004Y-38.74
X99.004Y-43.74
X111.504Y-38.74
X111.504Y-43.74
X205.472Y-174.762
X207.472Y-168.762
X207.472Y-180.762
X219.672Y-168.762
X219.672Y-180.762
X164.968Y-54.056
X164.968Y-59.056
X177.468Y-54.056
X177.468Y-59.056
X205.232Y-275.336
X207.232Y-269.336
X207.232Y-281.336
X219.432Y-269.336
X219.432Y-281.336
X205.452Y-256.24
X207.452Y-250.24
X207.452Y-262.24
X219.652Y-250.24
X219.652Y-262.24
X143.51Y-245.978
X143.51Y-268.478
X120.485Y-38.898
X120.485Y-43.898
X132.985Y-38.898
X132.985Y-43.898
X205.74Y-194.818
X207.74Y-188.818
X207.74Y-200.818
X219.94Y-188.818
X219.94Y-200.818
X142.364Y-38.824
X142.364Y-43.824
X154.864Y-38.824
X154.864Y-43.824
X205.222Y-238.602
X207.222Y-232.602
X207.222Y-244.602
X219.422Y-232.602
X219.422Y-244.602
X100.838Y-22.606
X100.838Y-27.606
X113.338Y-22.606
X113.338Y-27.606
X205.214Y-217.102
X207.214Y-211.102
X207.214Y-223.102
X219.414Y-211.102
X219.414Y-223.102
X99.207Y-53.993
X99.207Y-58.993
X111.707Y-53.993
X111.707Y-58.993
X131.064Y-22.606
X131.064Y-27.606
X143.564Y-22.606
X143.564Y-27.606
X204.96Y-156.886
X206.96Y-150.886
X206.96Y-162.886
X219.16Y-150.886
X219.16Y-162.886
X164.625Y-40.061
X164.625Y-45.061
X177.125Y-40.061
X177.125Y-45.061
T9
X229.182Y-137.936
X229.182Y-142.936
X200.852Y-117.398
X216.092Y-117.398
X228.854Y-211.06
X228.854Y-216.06
X228.854Y-221.06
X228.854Y-226.06
X199.66Y-90.51
X214.9Y-90.51
X178.294Y-20.828
X183.294Y-20.828
X188.294Y-20.828
X193.294Y-20.828
X229.046Y-71.512
X229.046Y-76.512
X229.05Y-84.86
X229.05Y-89.86
X200.468Y-63.892
X215.708Y-63.892
X99.264Y-255.022
X99.264Y-260.022
X200.408Y-37.536
X215.648Y-37.536
X229.108Y-252.382
X229.108Y-257.382
X229.108Y-262.382
X229.192Y-111.498
X229.192Y-116.498
X229.108Y-234.094
X229.108Y-239.094
X229.108Y-244.094
X122.428Y-276.098
X127.428Y-276.098
X99.264Y-270.772
X99.264Y-275.772
X228.854Y-169.324
X228.854Y-174.324
X228.854Y-179.324
X99.264Y-240.772
X99.264Y-245.772
X228.854Y-187.692
X228.854Y-192.692
X228.854Y-197.692
X228.854Y-202.692
X149.098Y-276.098
X154.098Y-276.098
X200.762Y-50.56
X216.002Y-50.56
X200.66Y-104.112
X215.9Y-104.112
X229.202Y-44.66
X229.202Y-49.66
X229.108Y-151.29
X229.108Y-156.29
X229.108Y-161.29
X229.098Y-31.436
X229.098Y-36.436
X200.914Y-144.018
X216.154Y-144.018
X229.114Y-124.862
X229.114Y-129.862
X229.058Y-58.192
X229.058Y-63.192
X229.108Y-270.67
X229.108Y-275.67
X229.108Y-280.67
X229.05Y-98.212
X229.05Y-103.212
X229.106Y-18.354
X229.106Y-23.354
X199.644Y-130.556
X214.884Y-130.556
X200.406Y-77.216
X215.646Y-77.216
X200.152Y-24.384
X215.392Y-24.384
X99.264Y-227.022
X99.264Y-232.022
T10
X109.982Y-269.494
X122.682Y-269.494
X153.924Y-269.748
X166.624Y-269.748
T0
M30
