%TF.GenerationSoftware,KiCad,Pcbnew,(5.1.6)-1*%
%TF.CreationDate,2021-07-14T17:55:53+02:00*%
%TF.ProjectId,future_uni,66757475-7265-45f7-956e-692e6b696361,rev?*%
%TF.SameCoordinates,Original*%
%TF.FileFunction,Copper,L2,Bot*%
%TF.FilePolarity,Positive*%
%FSLAX46Y46*%
G04 Gerber Fmt 4.6, Leading zero omitted, Abs format (unit mm)*
G04 Created by KiCad (PCBNEW (5.1.6)-1) date 2021-07-14 17:55:53*
%MOMM*%
%LPD*%
G01*
G04 APERTURE LIST*
%TA.AperFunction,ComponentPad*%
%ADD10O,2.080000X3.600000*%
%TD*%
%TA.AperFunction,ComponentPad*%
%ADD11O,3.600000X2.080000*%
%TD*%
%TA.AperFunction,ComponentPad*%
%ADD12R,1.700000X1.700000*%
%TD*%
%TA.AperFunction,ComponentPad*%
%ADD13O,1.700000X1.700000*%
%TD*%
%TA.AperFunction,ComponentPad*%
%ADD14R,3.500000X3.500000*%
%TD*%
%TA.AperFunction,ComponentPad*%
%ADD15C,1.440000*%
%TD*%
%TA.AperFunction,ComponentPad*%
%ADD16C,1.524000*%
%TD*%
%TA.AperFunction,ComponentPad*%
%ADD17O,1.727200X1.727200*%
%TD*%
%TA.AperFunction,ComponentPad*%
%ADD18R,3.200000X3.200000*%
%TD*%
%TA.AperFunction,ComponentPad*%
%ADD19O,3.200000X3.200000*%
%TD*%
%TA.AperFunction,ViaPad*%
%ADD20C,2.000000*%
%TD*%
%TA.AperFunction,Conductor*%
%ADD21C,0.500000*%
%TD*%
%TA.AperFunction,Conductor*%
%ADD22C,0.250000*%
%TD*%
G04 APERTURE END LIST*
%TO.P,J14,1*%
%TO.N,/5V*%
%TA.AperFunction,ComponentPad*%
G36*
G01*
X120387240Y-141491301D02*
X120387240Y-138391299D01*
G75*
G02*
X120637239Y-138141300I249999J0D01*
G01*
X122217241Y-138141300D01*
G75*
G02*
X122467240Y-138391299I0J-249999D01*
G01*
X122467240Y-141491301D01*
G75*
G02*
X122217241Y-141741300I-249999J0D01*
G01*
X120637239Y-141741300D01*
G75*
G02*
X120387240Y-141491301I0J249999D01*
G01*
G37*
%TD.AperFunction*%
D10*
%TO.P,J14,2*%
%TO.N,/TRIG_8*%
X126507240Y-139941300D03*
%TO.P,J14,3*%
%TO.N,/ECHO_8*%
X131587240Y-139941300D03*
%TO.P,J14,4*%
%TO.N,/GND*%
X136667240Y-139941300D03*
%TD*%
%TO.P,J8,4*%
%TO.N,/GND*%
X89547700Y-139900660D03*
%TO.P,J8,3*%
%TO.N,/ECHO_10*%
X84467700Y-139900660D03*
%TO.P,J8,2*%
%TO.N,/TRIG_10*%
X79387700Y-139900660D03*
%TO.P,J8,1*%
%TO.N,/5V*%
%TA.AperFunction,ComponentPad*%
G36*
G01*
X73267700Y-141450661D02*
X73267700Y-138350659D01*
G75*
G02*
X73517699Y-138100660I249999J0D01*
G01*
X75097701Y-138100660D01*
G75*
G02*
X75347700Y-138350659I0J-249999D01*
G01*
X75347700Y-141450661D01*
G75*
G02*
X75097701Y-141700660I-249999J0D01*
G01*
X73517699Y-141700660D01*
G75*
G02*
X73267700Y-141450661I0J249999D01*
G01*
G37*
%TD.AperFunction*%
%TD*%
D11*
%TO.P,J1,7*%
%TO.N,/GND*%
X80886300Y-133271260D03*
%TO.P,J1,6*%
%TO.N,/RST*%
X80886300Y-128191260D03*
%TO.P,J1,5*%
%TO.N,/SDA\u005CSS_2*%
X80886300Y-123111260D03*
%TO.P,J1,4*%
%TO.N,/SCK*%
X80886300Y-118031260D03*
%TO.P,J1,3*%
%TO.N,/MISO*%
X80886300Y-112951260D03*
%TO.P,J1,2*%
%TO.N,/MOSI*%
X80886300Y-107871260D03*
%TO.P,J1,1*%
%TO.N,/3.3V*%
%TA.AperFunction,ComponentPad*%
G36*
G01*
X79336299Y-101751260D02*
X82436301Y-101751260D01*
G75*
G02*
X82686300Y-102001259I0J-249999D01*
G01*
X82686300Y-103581261D01*
G75*
G02*
X82436301Y-103831260I-249999J0D01*
G01*
X79336299Y-103831260D01*
G75*
G02*
X79086300Y-103581261I0J249999D01*
G01*
X79086300Y-102001259D01*
G75*
G02*
X79336299Y-101751260I249999J0D01*
G01*
G37*
%TD.AperFunction*%
%TD*%
%TO.P,J2,1*%
%TO.N,/VIN*%
%TA.AperFunction,ComponentPad*%
G36*
G01*
X117209440Y-68716559D02*
X117209440Y-71816561D01*
G75*
G02*
X116959441Y-72066560I-249999J0D01*
G01*
X115379439Y-72066560D01*
G75*
G02*
X115129440Y-71816561I0J249999D01*
G01*
X115129440Y-68716559D01*
G75*
G02*
X115379439Y-68466560I249999J0D01*
G01*
X116959441Y-68466560D01*
G75*
G02*
X117209440Y-68716559I0J-249999D01*
G01*
G37*
%TD.AperFunction*%
D10*
%TO.P,J2,2*%
%TO.N,/Signal_1*%
X111089440Y-70266560D03*
%TO.P,J2,3*%
%TO.N,/GND*%
X106009440Y-70266560D03*
%TD*%
D12*
%TO.P,J3,1*%
%TO.N,/GND*%
X171310300Y-74879200D03*
D13*
%TO.P,J3,2*%
%TO.N,/5V*%
X168770300Y-74879200D03*
%TO.P,J3,3*%
%TO.N,/VO*%
X166230300Y-74879200D03*
%TO.P,J3,4*%
%TO.N,/RS*%
X163690300Y-74879200D03*
%TO.P,J3,5*%
%TO.N,/GND*%
X161150300Y-74879200D03*
%TO.P,J3,6*%
%TO.N,/E*%
X158610300Y-74879200D03*
%TO.P,J3,7*%
%TO.N,Net-(J3-Pad7)*%
X156070300Y-74879200D03*
%TO.P,J3,8*%
%TO.N,Net-(J3-Pad8)*%
X153530300Y-74879200D03*
%TO.P,J3,9*%
%TO.N,Net-(J3-Pad9)*%
X150990300Y-74879200D03*
%TO.P,J3,10*%
%TO.N,Net-(J3-Pad10)*%
X148450300Y-74879200D03*
%TO.P,J3,11*%
%TO.N,/DB4*%
X145910300Y-74879200D03*
%TO.P,J3,12*%
%TO.N,/DB5*%
X143370300Y-74879200D03*
%TO.P,J3,13*%
%TO.N,/DB6*%
X140830300Y-74879200D03*
%TO.P,J3,14*%
%TO.N,/DB7*%
X138290300Y-74879200D03*
%TO.P,J3,15*%
%TO.N,/5V*%
X135750300Y-74879200D03*
%TO.P,J3,16*%
%TO.N,/GND*%
X133210300Y-74879200D03*
%TD*%
D10*
%TO.P,J4,3*%
%TO.N,/GND*%
X87584280Y-70279260D03*
%TO.P,J4,2*%
%TO.N,/Signal_2*%
X92664280Y-70279260D03*
%TO.P,J4,1*%
%TO.N,/VIN*%
%TA.AperFunction,ComponentPad*%
G36*
G01*
X98784280Y-68729259D02*
X98784280Y-71829261D01*
G75*
G02*
X98534281Y-72079260I-249999J0D01*
G01*
X96954279Y-72079260D01*
G75*
G02*
X96704280Y-71829261I0J249999D01*
G01*
X96704280Y-68729259D01*
G75*
G02*
X96954279Y-68479260I249999J0D01*
G01*
X98534281Y-68479260D01*
G75*
G02*
X98784280Y-68729259I0J-249999D01*
G01*
G37*
%TD.AperFunction*%
%TD*%
D13*
%TO.P,J5,3*%
%TO.N,/GREEN_1*%
X93284040Y-107000040D03*
%TO.P,J5,2*%
%TO.N,/GND*%
X93284040Y-109540040D03*
D12*
%TO.P,J5,1*%
%TO.N,/RED_1*%
X93284040Y-112080040D03*
%TD*%
%TO.P,J6,1*%
%TO.N,/RED_2*%
X96951800Y-112072420D03*
D13*
%TO.P,J6,2*%
%TO.N,/GND*%
X96951800Y-109532420D03*
%TO.P,J6,3*%
%TO.N,/GREEN_2*%
X96951800Y-106992420D03*
%TD*%
%TO.P,J7,1*%
%TO.N,/3.3V*%
%TA.AperFunction,ComponentPad*%
G36*
G01*
X79333759Y-62787660D02*
X82433761Y-62787660D01*
G75*
G02*
X82683760Y-63037659I0J-249999D01*
G01*
X82683760Y-64617661D01*
G75*
G02*
X82433761Y-64867660I-249999J0D01*
G01*
X79333759Y-64867660D01*
G75*
G02*
X79083760Y-64617661I0J249999D01*
G01*
X79083760Y-63037659D01*
G75*
G02*
X79333759Y-62787660I249999J0D01*
G01*
G37*
%TD.AperFunction*%
D11*
%TO.P,J7,2*%
%TO.N,/MOSI*%
X80883760Y-68907660D03*
%TO.P,J7,3*%
%TO.N,/MISO*%
X80883760Y-73987660D03*
%TO.P,J7,4*%
%TO.N,/SCK*%
X80883760Y-79067660D03*
%TO.P,J7,5*%
%TO.N,/SDA\u005CSS_1*%
X80883760Y-84147660D03*
%TO.P,J7,6*%
%TO.N,/RST*%
X80883760Y-89227660D03*
%TO.P,J7,7*%
%TO.N,/GND*%
X80883760Y-94307660D03*
%TD*%
%TO.P,J9,1*%
%TO.N,/5V*%
%TA.AperFunction,ComponentPad*%
G36*
G01*
X96940500Y-141486221D02*
X96940500Y-138386219D01*
G75*
G02*
X97190499Y-138136220I249999J0D01*
G01*
X98770501Y-138136220D01*
G75*
G02*
X99020500Y-138386219I0J-249999D01*
G01*
X99020500Y-141486221D01*
G75*
G02*
X98770501Y-141736220I-249999J0D01*
G01*
X97190499Y-141736220D01*
G75*
G02*
X96940500Y-141486221I0J249999D01*
G01*
G37*
%TD.AperFunction*%
D10*
%TO.P,J9,2*%
%TO.N,/TRIG_9*%
X103060500Y-139936220D03*
%TO.P,J9,3*%
%TO.N,/ECHO_9*%
X108140500Y-139936220D03*
%TO.P,J9,4*%
%TO.N,/GND*%
X113220500Y-139936220D03*
%TD*%
D14*
%TO.P,J10,1*%
%TO.N,/VIN*%
X127307340Y-68694300D03*
%TO.P,J10,2*%
%TO.N,/GND*%
%TA.AperFunction,ComponentPad*%
G36*
G01*
X126307340Y-61194300D02*
X128307340Y-61194300D01*
G75*
G02*
X129057340Y-61944300I0J-750000D01*
G01*
X129057340Y-63444300D01*
G75*
G02*
X128307340Y-64194300I-750000J0D01*
G01*
X126307340Y-64194300D01*
G75*
G02*
X125557340Y-63444300I0J750000D01*
G01*
X125557340Y-61944300D01*
G75*
G02*
X126307340Y-61194300I750000J0D01*
G01*
G37*
%TD.AperFunction*%
%TO.P,J10,3*%
%TA.AperFunction,ComponentPad*%
G36*
G01*
X121732340Y-63944300D02*
X123482340Y-63944300D01*
G75*
G02*
X124357340Y-64819300I0J-875000D01*
G01*
X124357340Y-66569300D01*
G75*
G02*
X123482340Y-67444300I-875000J0D01*
G01*
X121732340Y-67444300D01*
G75*
G02*
X120857340Y-66569300I0J875000D01*
G01*
X120857340Y-64819300D01*
G75*
G02*
X121732340Y-63944300I875000J0D01*
G01*
G37*
%TD.AperFunction*%
%TD*%
%TO.P,J11,1*%
%TO.N,/GND*%
%TA.AperFunction,ComponentPad*%
G36*
G01*
X208055080Y-64677959D02*
X208055080Y-67777961D01*
G75*
G02*
X207805081Y-68027960I-249999J0D01*
G01*
X206225079Y-68027960D01*
G75*
G02*
X205975080Y-67777961I0J249999D01*
G01*
X205975080Y-64677959D01*
G75*
G02*
X206225079Y-64427960I249999J0D01*
G01*
X207805081Y-64427960D01*
G75*
G02*
X208055080Y-64677959I0J-249999D01*
G01*
G37*
%TD.AperFunction*%
D10*
%TO.P,J11,2*%
%TO.N,/VIN*%
X201935080Y-66227960D03*
%TD*%
%TO.P,J12,1*%
%TO.N,/5V*%
%TA.AperFunction,ComponentPad*%
G36*
G01*
X167445820Y-141468441D02*
X167445820Y-138368439D01*
G75*
G02*
X167695819Y-138118440I249999J0D01*
G01*
X169275821Y-138118440D01*
G75*
G02*
X169525820Y-138368439I0J-249999D01*
G01*
X169525820Y-141468441D01*
G75*
G02*
X169275821Y-141718440I-249999J0D01*
G01*
X167695819Y-141718440D01*
G75*
G02*
X167445820Y-141468441I0J249999D01*
G01*
G37*
%TD.AperFunction*%
%TO.P,J12,2*%
%TO.N,/TRIG_6*%
X173565820Y-139918440D03*
%TO.P,J12,3*%
%TO.N,/ECHO_6*%
X178645820Y-139918440D03*
%TO.P,J12,4*%
%TO.N,/GND*%
X183725820Y-139918440D03*
%TD*%
%TO.P,J13,4*%
%TO.N,/GND*%
X160116520Y-139956540D03*
%TO.P,J13,3*%
%TO.N,/ECHO_7*%
X155036520Y-139956540D03*
%TO.P,J13,2*%
%TO.N,/TRIG_7*%
X149956520Y-139956540D03*
%TO.P,J13,1*%
%TO.N,/5V*%
%TA.AperFunction,ComponentPad*%
G36*
G01*
X143836520Y-141506541D02*
X143836520Y-138406539D01*
G75*
G02*
X144086519Y-138156540I249999J0D01*
G01*
X145666521Y-138156540D01*
G75*
G02*
X145916520Y-138406539I0J-249999D01*
G01*
X145916520Y-141506541D01*
G75*
G02*
X145666521Y-141756540I-249999J0D01*
G01*
X144086519Y-141756540D01*
G75*
G02*
X143836520Y-141506541I0J249999D01*
G01*
G37*
%TD.AperFunction*%
%TD*%
%TO.P,J15,4*%
%TO.N,/GND*%
X207192880Y-139920980D03*
%TO.P,J15,3*%
%TO.N,/ECHO_5*%
X202112880Y-139920980D03*
%TO.P,J15,2*%
%TO.N,/TRIG_5*%
X197032880Y-139920980D03*
%TO.P,J15,1*%
%TO.N,/5V*%
%TA.AperFunction,ComponentPad*%
G36*
G01*
X190912880Y-141470981D02*
X190912880Y-138370979D01*
G75*
G02*
X191162879Y-138120980I249999J0D01*
G01*
X192742881Y-138120980D01*
G75*
G02*
X192992880Y-138370979I0J-249999D01*
G01*
X192992880Y-141470981D01*
G75*
G02*
X192742881Y-141720980I-249999J0D01*
G01*
X191162879Y-141720980D01*
G75*
G02*
X190912880Y-141470981I0J249999D01*
G01*
G37*
%TD.AperFunction*%
%TD*%
%TO.P,J16,1*%
%TO.N,/5V*%
%TA.AperFunction,ComponentPad*%
G36*
G01*
X215567861Y-100105080D02*
X212467859Y-100105080D01*
G75*
G02*
X212217860Y-99855081I0J249999D01*
G01*
X212217860Y-98275079D01*
G75*
G02*
X212467859Y-98025080I249999J0D01*
G01*
X215567861Y-98025080D01*
G75*
G02*
X215817860Y-98275079I0J-249999D01*
G01*
X215817860Y-99855081D01*
G75*
G02*
X215567861Y-100105080I-249999J0D01*
G01*
G37*
%TD.AperFunction*%
D11*
%TO.P,J16,2*%
%TO.N,/TRIG_2*%
X214017860Y-93985080D03*
%TO.P,J16,3*%
%TO.N,/ECHO_2*%
X214017860Y-88905080D03*
%TO.P,J16,4*%
%TO.N,/GND*%
X214017860Y-83825080D03*
%TD*%
%TO.P,J17,4*%
%TO.N,/GND*%
X214012780Y-107421680D03*
%TO.P,J17,3*%
%TO.N,/ECHO_3*%
X214012780Y-112501680D03*
%TO.P,J17,2*%
%TO.N,/TRIG_3*%
X214012780Y-117581680D03*
%TO.P,J17,1*%
%TO.N,/5V*%
%TA.AperFunction,ComponentPad*%
G36*
G01*
X215562781Y-123701680D02*
X212462779Y-123701680D01*
G75*
G02*
X212212780Y-123451681I0J249999D01*
G01*
X212212780Y-121871679D01*
G75*
G02*
X212462779Y-121621680I249999J0D01*
G01*
X215562781Y-121621680D01*
G75*
G02*
X215812780Y-121871679I0J-249999D01*
G01*
X215812780Y-123451681D01*
G75*
G02*
X215562781Y-123701680I-249999J0D01*
G01*
G37*
%TD.AperFunction*%
%TD*%
%TO.P,J18,1*%
%TO.N,/5V*%
%TA.AperFunction,ComponentPad*%
G36*
G01*
X215387521Y-147394800D02*
X212287519Y-147394800D01*
G75*
G02*
X212037520Y-147144801I0J249999D01*
G01*
X212037520Y-145564799D01*
G75*
G02*
X212287519Y-145314800I249999J0D01*
G01*
X215387521Y-145314800D01*
G75*
G02*
X215637520Y-145564799I0J-249999D01*
G01*
X215637520Y-147144801D01*
G75*
G02*
X215387521Y-147394800I-249999J0D01*
G01*
G37*
%TD.AperFunction*%
%TO.P,J18,2*%
%TO.N,/TRIG_4*%
X213837520Y-141274800D03*
%TO.P,J18,3*%
%TO.N,/ECHO_4*%
X213837520Y-136194800D03*
%TO.P,J18,4*%
%TO.N,/GND*%
X213837520Y-131114800D03*
%TD*%
%TO.P,J19,4*%
%TO.N,/GND*%
X214063580Y-59778900D03*
%TO.P,J19,3*%
%TO.N,/ECHO_1*%
X214063580Y-64858900D03*
%TO.P,J19,2*%
%TO.N,/TRIG_1*%
X214063580Y-69938900D03*
%TO.P,J19,1*%
%TO.N,/5V*%
%TA.AperFunction,ComponentPad*%
G36*
G01*
X215613581Y-76058900D02*
X212513579Y-76058900D01*
G75*
G02*
X212263580Y-75808901I0J249999D01*
G01*
X212263580Y-74228899D01*
G75*
G02*
X212513579Y-73978900I249999J0D01*
G01*
X215613581Y-73978900D01*
G75*
G02*
X215863580Y-74228899I0J-249999D01*
G01*
X215863580Y-75808901D01*
G75*
G02*
X215613581Y-76058900I-249999J0D01*
G01*
G37*
%TD.AperFunction*%
%TD*%
D15*
%TO.P,RV1,1*%
%TO.N,/5V*%
X168734740Y-70368160D03*
%TO.P,RV1,2*%
%TO.N,/VO*%
X166194740Y-70368160D03*
%TO.P,RV1,3*%
%TO.N,/GND*%
X163654740Y-70368160D03*
%TD*%
D16*
%TO.P,U1,1*%
%TO.N,Net-(U1-Pad1)*%
X183126380Y-34869120D03*
%TO.P,U1,2*%
%TO.N,Net-(U1-Pad2)*%
X180586380Y-34869120D03*
%TO.P,U1,3*%
%TO.N,Net-(U1-Pad3)*%
X178046380Y-34869120D03*
%TO.P,U1,4*%
%TO.N,Net-(U1-Pad4)*%
X175506380Y-34869120D03*
%TO.P,U1,5*%
%TO.N,Net-(U1-Pad5)*%
X172966380Y-34869120D03*
%TO.P,U1,6*%
%TO.N,Net-(U1-Pad6)*%
X170426380Y-34869120D03*
%TO.P,U1,7*%
%TO.N,Net-(U1-Pad7)*%
X167886380Y-34869120D03*
%TO.P,U1,8*%
%TO.N,Net-(U1-Pad8)*%
X165346380Y-34869120D03*
%TO.P,U1,9*%
%TO.N,Net-(U1-Pad9)*%
X162806380Y-34869120D03*
%TO.P,U1,10*%
%TO.N,Net-(U1-Pad10)*%
X160266380Y-34869120D03*
%TO.P,U1,11*%
%TO.N,Net-(U1-Pad11)*%
X157726380Y-34869120D03*
%TO.P,U1,12*%
%TO.N,/EN_ESP*%
X155186380Y-34869120D03*
%TO.P,U1,13*%
%TO.N,/RST_ESP*%
X152646380Y-34869120D03*
%TO.P,U1,14*%
%TO.N,Net-(U1-Pad14)*%
X150106380Y-34869120D03*
%TO.P,U1,15*%
%TO.N,/VIN*%
X147566380Y-34869120D03*
%TO.P,U1,16*%
%TO.N,Net-(U1-Pad16)*%
X147566380Y-62809120D03*
%TO.P,U1,17*%
%TO.N,/GND*%
X150106380Y-62809120D03*
%TO.P,U1,18*%
%TO.N,/RX_MCU*%
X152646380Y-62809120D03*
%TO.P,U1,19*%
%TO.N,/TX_MCU*%
X155186380Y-62809120D03*
%TO.P,U1,20*%
%TO.N,Net-(U1-Pad20)*%
X157726380Y-62809120D03*
%TO.P,U1,21*%
%TO.N,Net-(U1-Pad21)*%
X160266380Y-62809120D03*
%TO.P,U1,22*%
%TO.N,Net-(U1-Pad22)*%
X162806380Y-62809120D03*
%TO.P,U1,23*%
%TO.N,Net-(U1-Pad23)*%
X165346380Y-62809120D03*
%TO.P,U1,24*%
%TO.N,Net-(U1-Pad24)*%
X167886380Y-62809120D03*
%TO.P,U1,25*%
%TO.N,Net-(U1-Pad25)*%
X170426380Y-62809120D03*
%TO.P,U1,26*%
%TO.N,Net-(U1-Pad26)*%
X172966380Y-62809120D03*
%TO.P,U1,27*%
%TO.N,Net-(U1-Pad27)*%
X175506380Y-62809120D03*
%TO.P,U1,28*%
%TO.N,Net-(U1-Pad28)*%
X178046380Y-62809120D03*
%TO.P,U1,29*%
%TO.N,Net-(U1-Pad29)*%
X180586380Y-62809120D03*
%TO.P,U1,30*%
%TO.N,Net-(U1-Pad30)*%
X183126380Y-62809120D03*
%TD*%
D17*
%TO.P,XA1,RST2*%
%TO.N,Net-(XA1-PadRST2)*%
X162943540Y-104929940D03*
%TO.P,XA1,GND4*%
%TO.N,Net-(XA1-PadGND4)*%
X165483540Y-104929940D03*
%TO.P,XA1,MOSI*%
%TO.N,Net-(XA1-PadMOSI)*%
X165483540Y-102389940D03*
%TO.P,XA1,SCK*%
%TO.N,Net-(XA1-PadSCK)*%
X162943540Y-102389940D03*
%TO.P,XA1,5V2*%
%TO.N,Net-(XA1-Pad5V2)*%
X165483540Y-99849940D03*
%TO.P,XA1,A0*%
%TO.N,Net-(XA1-PadA0)*%
X150116540Y-127789940D03*
%TO.P,XA1,VIN*%
%TO.N,/5V*%
X145036540Y-127789940D03*
%TO.P,XA1,GND3*%
%TO.N,Net-(XA1-PadGND3)*%
X142496540Y-127789940D03*
%TO.P,XA1,GND2*%
%TO.N,Net-(XA1-PadGND2)*%
X139956540Y-127789940D03*
%TO.P,XA1,5V1*%
%TO.N,Net-(XA1-Pad5V1)*%
X137416540Y-127789940D03*
%TO.P,XA1,3V3*%
%TO.N,/3.3V*%
X134876540Y-127789940D03*
%TO.P,XA1,RST1*%
%TO.N,Net-(XA1-PadRST1)*%
X132336540Y-127789940D03*
%TO.P,XA1,IORF*%
%TO.N,Net-(XA1-PadIORF)*%
X129796540Y-127789940D03*
%TO.P,XA1,D21*%
%TO.N,Net-(XA1-PadD21)*%
X185676540Y-79529940D03*
%TO.P,XA1,D20*%
%TO.N,Net-(XA1-PadD20)*%
X183136540Y-79529940D03*
%TO.P,XA1,D19*%
%TO.N,/RST_ESP*%
X180596540Y-79529940D03*
%TO.P,XA1,D18*%
%TO.N,/EN_ESP*%
X178056540Y-79529940D03*
%TO.P,XA1,D17*%
%TO.N,Net-(XA1-PadD17)*%
X175516540Y-79529940D03*
%TO.P,XA1,D16*%
%TO.N,Net-(XA1-PadD16)*%
X172976540Y-79529940D03*
%TO.P,XA1,D15*%
%TO.N,Net-(XA1-PadD15)*%
X170436540Y-79529940D03*
%TO.P,XA1,D14*%
%TO.N,Net-(XA1-PadD14)*%
X167896540Y-79529940D03*
%TO.P,XA1,D0*%
%TO.N,/RX_MCU*%
X162816540Y-79529940D03*
%TO.P,XA1,D1*%
%TO.N,/TX_MCU*%
X160276540Y-79529940D03*
%TO.P,XA1,D2*%
%TO.N,/RS*%
X157736540Y-79529940D03*
%TO.P,XA1,D3*%
%TO.N,/E*%
X155196540Y-79529940D03*
%TO.P,XA1,D4*%
%TO.N,/DB4*%
X152656540Y-79529940D03*
%TO.P,XA1,D5*%
%TO.N,/DB5*%
X150116540Y-79529940D03*
%TO.P,XA1,D6*%
%TO.N,/DB6*%
X147576540Y-79529940D03*
%TO.P,XA1,D7*%
%TO.N,/DB7*%
X145036540Y-79529940D03*
%TO.P,XA1,GND1*%
%TO.N,/GND*%
X125732540Y-79529940D03*
%TO.P,XA1,D8*%
%TO.N,/RST*%
X140972540Y-79529940D03*
%TO.P,XA1,D9*%
%TO.N,/SDA\u005CSS_1*%
X138432540Y-79529940D03*
%TO.P,XA1,D10*%
%TO.N,/SDA\u005CSS_2*%
X135892540Y-79529940D03*
%TO.P,XA1,SCL*%
%TO.N,Net-(XA1-PadSCL)*%
X118112540Y-79529940D03*
%TO.P,XA1,SDA*%
%TO.N,Net-(XA1-PadSDA)*%
X120652540Y-79529940D03*
%TO.P,XA1,AREF*%
%TO.N,Net-(XA1-PadAREF)*%
X123192540Y-79529940D03*
%TO.P,XA1,D13*%
%TO.N,Net-(XA1-PadD13)*%
X128272540Y-79529940D03*
%TO.P,XA1,D12*%
%TO.N,/Signal_2*%
X130812540Y-79529940D03*
%TO.P,XA1,D11*%
%TO.N,/Signal_1*%
X133352540Y-79529940D03*
%TO.P,XA1,*%
%TO.N,*%
X127256540Y-127789940D03*
%TO.P,XA1,A1*%
%TO.N,Net-(XA1-PadA1)*%
X152656540Y-127789940D03*
%TO.P,XA1,A2*%
%TO.N,Net-(XA1-PadA2)*%
X155196540Y-127789940D03*
%TO.P,XA1,A3*%
%TO.N,Net-(XA1-PadA3)*%
X157736540Y-127789940D03*
%TO.P,XA1,A4*%
%TO.N,Net-(XA1-PadA4)*%
X160276540Y-127789940D03*
%TO.P,XA1,A5*%
%TO.N,Net-(XA1-PadA5)*%
X162816540Y-127789940D03*
%TO.P,XA1,A6*%
%TO.N,Net-(XA1-PadA6)*%
X165356540Y-127789940D03*
%TO.P,XA1,A7*%
%TO.N,Net-(XA1-PadA7)*%
X167896540Y-127789940D03*
%TO.P,XA1,A8*%
%TO.N,Net-(XA1-PadA8)*%
X172976540Y-127789940D03*
%TO.P,XA1,A9*%
%TO.N,Net-(XA1-PadA9)*%
X175516540Y-127789940D03*
%TO.P,XA1,A10*%
%TO.N,Net-(XA1-PadA10)*%
X178056540Y-127789940D03*
%TO.P,XA1,A11*%
%TO.N,Net-(XA1-PadA11)*%
X180596540Y-127789940D03*
%TO.P,XA1,A12*%
%TO.N,Net-(XA1-PadA12)*%
X183136540Y-127789940D03*
%TO.P,XA1,A13*%
%TO.N,Net-(XA1-PadA13)*%
X185676540Y-127789940D03*
%TO.P,XA1,A14*%
%TO.N,Net-(XA1-PadA14)*%
X188216540Y-127789940D03*
%TO.P,XA1,A15*%
%TO.N,Net-(XA1-PadA15)*%
X190756540Y-127789940D03*
%TO.P,XA1,5V3*%
%TO.N,Net-(XA1-Pad5V3)*%
X193296540Y-79529940D03*
%TO.P,XA1,5V4*%
%TO.N,Net-(XA1-Pad5V4)*%
X195836540Y-79529940D03*
%TO.P,XA1,D22*%
%TO.N,/ECHO_1*%
X193296540Y-82069940D03*
%TO.P,XA1,D23*%
%TO.N,/TRIG_1*%
X195836540Y-82069940D03*
%TO.P,XA1,D24*%
%TO.N,/ECHO_2*%
X193296540Y-84609940D03*
%TO.P,XA1,D25*%
%TO.N,/TRIG_2*%
X195836540Y-84609940D03*
%TO.P,XA1,D26*%
%TO.N,/ECHO_3*%
X193296540Y-87149940D03*
%TO.P,XA1,D27*%
%TO.N,/TRIG_3*%
X195836540Y-87149940D03*
%TO.P,XA1,D28*%
%TO.N,/ECHO_4*%
X193296540Y-89689940D03*
%TO.P,XA1,D29*%
%TO.N,/TRIG_4*%
X195836540Y-89689940D03*
%TO.P,XA1,D30*%
%TO.N,/ECHO_5*%
X193296540Y-92229940D03*
%TO.P,XA1,D31*%
%TO.N,/TRIG_5*%
X195836540Y-92229940D03*
%TO.P,XA1,D32*%
%TO.N,/ECHO_6*%
X193296540Y-94769940D03*
%TO.P,XA1,D33*%
%TO.N,/TRIG_6*%
X195836540Y-94769940D03*
%TO.P,XA1,D34*%
%TO.N,/ECHO_7*%
X193296540Y-97309940D03*
%TO.P,XA1,D35*%
%TO.N,/TRIG_7*%
X195836540Y-97309940D03*
%TO.P,XA1,D36*%
%TO.N,/ECHO_8*%
X193296540Y-99849940D03*
%TO.P,XA1,D37*%
%TO.N,/TRIG_8*%
X195836540Y-99849940D03*
%TO.P,XA1,D38*%
%TO.N,/ECHO_9*%
X193296540Y-102389940D03*
%TO.P,XA1,D39*%
%TO.N,/TRIG_9*%
X195836540Y-102389940D03*
%TO.P,XA1,D40*%
%TO.N,/ECHO_10*%
X193296540Y-104929940D03*
%TO.P,XA1,D41*%
%TO.N,/TRIG_10*%
X195836540Y-104929940D03*
%TO.P,XA1,D42*%
%TO.N,Net-(XA1-PadD42)*%
X193296540Y-107469940D03*
%TO.P,XA1,D43*%
%TO.N,Net-(XA1-PadD43)*%
X195836540Y-107469940D03*
%TO.P,XA1,D44*%
%TO.N,Net-(XA1-PadD44)*%
X193296540Y-110009940D03*
%TO.P,XA1,D45*%
%TO.N,Net-(XA1-PadD45)*%
X195836540Y-110009940D03*
%TO.P,XA1,D46*%
%TO.N,/RED_2*%
X193296540Y-112549940D03*
%TO.P,XA1,D47*%
%TO.N,/GREEN_2*%
X195836540Y-112549940D03*
%TO.P,XA1,D48*%
%TO.N,/RED_1*%
X193296540Y-115089940D03*
%TO.P,XA1,D49*%
%TO.N,/GREEN_1*%
X195836540Y-115089940D03*
%TO.P,XA1,D50*%
%TO.N,/MISO*%
X193296540Y-117629940D03*
%TO.P,XA1,D51*%
%TO.N,/MOSI*%
X195836540Y-117629940D03*
%TO.P,XA1,D52*%
%TO.N,/SCK*%
X193296540Y-120169940D03*
%TO.P,XA1,D53*%
%TO.N,Net-(XA1-PadD53)*%
X195836540Y-120169940D03*
%TO.P,XA1,GND5*%
%TO.N,Net-(XA1-PadGND5)*%
X193296540Y-122709940D03*
%TO.P,XA1,GND6*%
%TO.N,Net-(XA1-PadGND6)*%
X195836540Y-122709940D03*
%TO.P,XA1,MISO*%
%TO.N,Net-(XA1-PadMISO)*%
X162943540Y-99849940D03*
%TD*%
D18*
%TO.P,D1,1*%
%TO.N,/5V*%
X87944960Y-76375260D03*
D19*
%TO.P,D1,2*%
%TO.N,/VIN*%
X87944960Y-91615260D03*
%TD*%
D20*
%TO.N,/3.3V*%
X134876540Y-124449840D03*
X134980680Y-102786180D03*
%TO.N,/5V*%
X216197180Y-79537560D03*
X219585540Y-79522320D03*
%TD*%
D21*
%TO.N,/GND*%
X216712800Y-59778900D02*
X217716100Y-60782200D01*
X214063580Y-59778900D02*
X216712800Y-59778900D01*
X217680540Y-107421680D02*
X217716100Y-107386120D01*
X214012780Y-107421680D02*
X217680540Y-107421680D01*
X217675460Y-83825080D02*
X217716100Y-83865720D01*
X217716100Y-60782200D02*
X217716100Y-83865720D01*
X214017860Y-83825080D02*
X217675460Y-83825080D01*
X217716100Y-83865720D02*
X217716100Y-107386120D01*
X80886300Y-133271260D02*
X80731360Y-133271260D01*
X87584280Y-70279260D02*
X87584280Y-65374520D01*
X87584280Y-65374520D02*
X83296760Y-61087000D01*
X83296760Y-61087000D02*
X79502000Y-61087000D01*
X79502000Y-61087000D02*
X76735940Y-63853060D01*
X217716100Y-108685532D02*
X217738960Y-108708392D01*
X217716100Y-107386120D02*
X217716100Y-108685532D01*
X217515440Y-131114800D02*
X217738960Y-130891280D01*
X213837520Y-131114800D02*
X217515440Y-131114800D01*
X217738960Y-108708392D02*
X217738960Y-130891280D01*
X76748640Y-133271260D02*
X76735940Y-133258560D01*
X80886300Y-133271260D02*
X76748640Y-133271260D01*
X76735940Y-141514530D02*
X76735940Y-132808980D01*
X76735940Y-63853060D02*
X76735940Y-132808980D01*
X76735940Y-132808980D02*
X76735940Y-133258560D01*
X206715360Y-144485360D02*
X206705200Y-144495520D01*
X217738960Y-130891280D02*
X217738960Y-142524480D01*
X217738960Y-142524480D02*
X215778080Y-144485360D01*
X113192560Y-144429480D02*
X113136680Y-144485360D01*
X113192560Y-139931140D02*
X113192560Y-144429480D01*
X136667240Y-144406620D02*
X136588500Y-144485360D01*
X136667240Y-139941300D02*
X136667240Y-144406620D01*
X136588500Y-144485360D02*
X113136680Y-144485360D01*
X183725820Y-144371060D02*
X183611520Y-144485360D01*
X183725820Y-139918440D02*
X183725820Y-144371060D01*
X206715360Y-144485360D02*
X183611520Y-144485360D01*
X207192880Y-139920980D02*
X207192880Y-144414240D01*
X215778080Y-144485360D02*
X207121760Y-144485360D01*
X207192880Y-144414240D02*
X207121760Y-144485360D01*
X207121760Y-144485360D02*
X206715360Y-144485360D01*
X160116520Y-139956540D02*
X160116520Y-144183100D01*
X183611520Y-144485360D02*
X160418780Y-144485360D01*
X160116520Y-144183100D02*
X160418780Y-144485360D01*
X160418780Y-144485360D02*
X136588500Y-144485360D01*
X207015080Y-66227960D02*
X207015080Y-62489080D01*
X209725260Y-59778900D02*
X214063580Y-59778900D01*
X207015080Y-62489080D02*
X209725260Y-59778900D01*
X79706770Y-144485360D02*
X76735940Y-141514530D01*
X89547700Y-144302480D02*
X89730580Y-144485360D01*
X89547700Y-139900660D02*
X89547700Y-144302480D01*
X113136680Y-144485360D02*
X89730580Y-144485360D01*
X89730580Y-144485360D02*
X79706770Y-144485360D01*
D22*
X93291660Y-109532420D02*
X93284040Y-109540040D01*
X96951800Y-109532420D02*
X93291660Y-109532420D01*
X163654740Y-70368160D02*
X163654740Y-72227440D01*
X161150300Y-74731880D02*
X161150300Y-74879200D01*
X163654740Y-72227440D02*
X161150300Y-74731880D01*
X124307340Y-65694300D02*
X127307340Y-62694300D01*
X122607340Y-65694300D02*
X124307340Y-65694300D01*
X137721340Y-70368160D02*
X137717530Y-70371970D01*
X163654740Y-70368160D02*
X137721340Y-70368160D01*
X133210300Y-74879200D02*
X137717530Y-70371970D01*
X128279521Y-61722119D02*
X127307340Y-62694300D01*
X149019379Y-61722119D02*
X128279521Y-61722119D01*
X150106380Y-62809120D02*
X149019379Y-61722119D01*
D21*
%TO.N,/3.3V*%
X79133700Y-63827660D02*
X80883760Y-63827660D01*
X77845920Y-65115440D02*
X79133700Y-63827660D01*
X77845920Y-102019100D02*
X77845920Y-65115440D01*
X80886300Y-102791260D02*
X78618080Y-102791260D01*
X78618080Y-102791260D02*
X77845920Y-102019100D01*
D22*
X134876540Y-124449840D02*
X134876540Y-127789940D01*
X80886300Y-102791260D02*
X134975600Y-102791260D01*
X134975600Y-102791260D02*
X134980680Y-102786180D01*
D21*
%TO.N,/5V*%
X215389460Y-99065080D02*
X214017860Y-99065080D01*
X216753440Y-87490300D02*
X216753440Y-97701100D01*
X216227660Y-86964520D02*
X216753440Y-87490300D01*
X211810600Y-75018900D02*
X211244180Y-75585320D01*
X214063580Y-75018900D02*
X211810600Y-75018900D01*
X211244180Y-75585320D02*
X211244180Y-84518500D01*
X216753440Y-97701100D02*
X215389460Y-99065080D01*
X211244180Y-84518500D02*
X213690200Y-86964520D01*
X213690200Y-86964520D02*
X216227660Y-86964520D01*
X215917780Y-122661680D02*
X214012780Y-122661680D01*
X216766140Y-121813320D02*
X215917780Y-122661680D01*
X216766140Y-110987840D02*
X216766140Y-121813320D01*
X214017860Y-99065080D02*
X214017860Y-101165660D01*
X211216240Y-103967280D02*
X211216240Y-109029500D01*
X214017860Y-101165660D02*
X211216240Y-103967280D01*
X211216240Y-109029500D02*
X212247480Y-110060740D01*
X215839040Y-110060740D02*
X216766140Y-110987840D01*
X212247480Y-110060740D02*
X215839040Y-110060740D01*
X137416540Y-126834900D02*
X138196320Y-126055120D01*
X138196320Y-126055120D02*
X144442180Y-126055120D01*
X145036540Y-126649480D02*
X145036540Y-127789940D01*
X144442180Y-126055120D02*
X145036540Y-126649480D01*
X121427240Y-139941300D02*
X121427240Y-138391900D01*
X219585540Y-142406780D02*
X219585540Y-79522320D01*
X215637520Y-146354800D02*
X219585540Y-142406780D01*
X213837520Y-146354800D02*
X215637520Y-146354800D01*
X215361520Y-79537560D02*
X216197180Y-79537560D01*
X214063580Y-75018900D02*
X214063580Y-78239620D01*
X214063580Y-78239620D02*
X215361520Y-79537560D01*
X144876520Y-141490700D02*
X144876520Y-139956540D01*
X146039840Y-142654020D02*
X144876520Y-141490700D01*
X156311600Y-142654020D02*
X146039840Y-142654020D01*
X157505400Y-141460220D02*
X156311600Y-142654020D01*
X164421820Y-139918440D02*
X162087560Y-137584180D01*
X168485820Y-139918440D02*
X164421820Y-139918440D01*
X157505400Y-138551920D02*
X157505400Y-141460220D01*
X162087560Y-137584180D02*
X158473140Y-137584180D01*
X158473140Y-137584180D02*
X157505400Y-138551920D01*
X168485820Y-141749780D02*
X168485820Y-139918440D01*
X169418000Y-142681960D02*
X168485820Y-141749780D01*
X180281580Y-142681960D02*
X169418000Y-142681960D01*
X181287420Y-141676120D02*
X180281580Y-142681960D01*
X187312300Y-139920980D02*
X184868820Y-137477500D01*
X182643780Y-137477500D02*
X181287420Y-138833860D01*
X184868820Y-137477500D02*
X182643780Y-137477500D01*
X191952880Y-139920980D02*
X187312300Y-139920980D01*
X181287420Y-138833860D02*
X181287420Y-141676120D01*
X211013040Y-132100320D02*
X211013040Y-127878840D01*
X216641680Y-142107920D02*
X216641680Y-134744460D01*
X202976480Y-142748000D02*
X204972920Y-140751560D01*
X210162140Y-138892280D02*
X210162140Y-141965680D01*
X215191340Y-133294120D02*
X212206840Y-133294120D01*
X192780920Y-142748000D02*
X202976480Y-142748000D01*
X211287360Y-143090900D02*
X215658700Y-143090900D01*
X191952880Y-139920980D02*
X191952880Y-141919960D01*
X210162140Y-141965680D02*
X211287360Y-143090900D01*
X212206840Y-133294120D02*
X211013040Y-132100320D01*
X204972920Y-140751560D02*
X204972920Y-138663680D01*
X211013040Y-127878840D02*
X214012780Y-124879100D01*
X215658700Y-143090900D02*
X216641680Y-142107920D01*
X191952880Y-141919960D02*
X192780920Y-142748000D01*
X216641680Y-134744460D02*
X215191340Y-133294120D01*
X204972920Y-138663680D02*
X206143860Y-137492740D01*
X206143860Y-137492740D02*
X208762600Y-137492740D01*
X214012780Y-124879100D02*
X214012780Y-122661680D01*
X208762600Y-137492740D02*
X210162140Y-138892280D01*
X74307700Y-144594580D02*
X74307700Y-139900660D01*
X213837520Y-146354800D02*
X76067920Y-146354800D01*
X76067920Y-146354800D02*
X74307700Y-144594580D01*
D22*
X168770300Y-70403720D02*
X168734740Y-70368160D01*
X168770300Y-74879200D02*
X168770300Y-70403720D01*
%TO.N,/VO*%
X166194740Y-74843640D02*
X166230300Y-74879200D01*
X166194740Y-70368160D02*
X166194740Y-74843640D01*
%TO.N,/RS*%
X163690300Y-74879200D02*
X160855660Y-77713840D01*
X159552640Y-77713840D02*
X157736540Y-79529940D01*
X160855660Y-77713840D02*
X159552640Y-77713840D01*
%TO.N,/E*%
X158610300Y-76116180D02*
X155196540Y-79529940D01*
X158610300Y-74879200D02*
X158610300Y-76116180D01*
%TO.N,/DB4*%
X146448780Y-76974700D02*
X150101300Y-76974700D01*
X150101300Y-76974700D02*
X152656540Y-79529940D01*
X145910300Y-74879200D02*
X145910300Y-76436220D01*
X145910300Y-76436220D02*
X146448780Y-76974700D01*
%TO.N,/DB5*%
X148173440Y-77586840D02*
X150116540Y-79529940D01*
X144444720Y-77586840D02*
X148173440Y-77586840D01*
X143370300Y-74879200D02*
X143370300Y-76512420D01*
X143370300Y-76512420D02*
X144444720Y-77586840D01*
%TO.N,/DB6*%
X146248120Y-78201520D02*
X147576540Y-79529940D01*
X143007080Y-78201520D02*
X146248120Y-78201520D01*
X140830300Y-74879200D02*
X140830300Y-76024740D01*
X140830300Y-76024740D02*
X143007080Y-78201520D01*
%TO.N,/DB7*%
X142941040Y-79529940D02*
X145036540Y-79529940D01*
X138290300Y-74879200D02*
X142941040Y-79529940D01*
%TO.N,/GREEN_1*%
X195994020Y-115247420D02*
X195836540Y-115089940D01*
X196100700Y-115089940D02*
X195836540Y-115089940D01*
X197733920Y-113456720D02*
X196100700Y-115089940D01*
X197733920Y-109735620D02*
X197733920Y-113456720D01*
X93284040Y-107000040D02*
X94783611Y-105500469D01*
X94783611Y-105500469D02*
X159615169Y-105500469D01*
X162859720Y-108745020D02*
X196743320Y-108745020D01*
X159615169Y-105500469D02*
X162859720Y-108745020D01*
X196743320Y-108745020D02*
X197733920Y-109735620D01*
%TO.N,/RED_1*%
X93284040Y-112849660D02*
X93284040Y-112080040D01*
X193296540Y-115089940D02*
X95524320Y-115089940D01*
X95524320Y-115089940D02*
X93284040Y-112849660D01*
%TO.N,/RED_2*%
X193296540Y-112549940D02*
X140301980Y-112549940D01*
X140301980Y-112549940D02*
X136634220Y-108882180D01*
X136634220Y-108882180D02*
X104820720Y-108882180D01*
X104820720Y-108882180D02*
X101168200Y-112534700D01*
X97414080Y-112534700D02*
X96951800Y-112072420D01*
X101168200Y-112534700D02*
X97414080Y-112534700D01*
%TO.N,/GREEN_2*%
X136771380Y-106992420D02*
X96951800Y-106992420D01*
X141038580Y-111259620D02*
X136771380Y-106992420D01*
X195836540Y-112549940D02*
X194546220Y-111259620D01*
X194546220Y-111259620D02*
X141038580Y-111259620D01*
%TO.N,/TRIG_10*%
X88869520Y-131145280D02*
X80114140Y-139900660D01*
X80114140Y-139900660D02*
X79387700Y-139900660D01*
X197446900Y-104929940D02*
X198305420Y-105788460D01*
X195836540Y-104929940D02*
X197446900Y-104929940D01*
X198305420Y-105788460D02*
X198305420Y-130408680D01*
X198305420Y-130408680D02*
X197568820Y-131145280D01*
X197568820Y-131145280D02*
X88869520Y-131145280D01*
%TO.N,/ECHO_10*%
X198442580Y-131714240D02*
X93215460Y-131714240D01*
X93215460Y-131714240D02*
X85029040Y-139900660D01*
X194546220Y-103680260D02*
X198247000Y-103680260D01*
X193296540Y-104929940D02*
X194546220Y-103680260D01*
X85029040Y-139900660D02*
X84467700Y-139900660D01*
X199087740Y-104521000D02*
X199087740Y-131069080D01*
X198247000Y-103680260D02*
X199087740Y-104521000D01*
X199087740Y-131069080D02*
X198442580Y-131714240D01*
%TO.N,/ECHO_9*%
X116189760Y-133055360D02*
X109308900Y-139936220D01*
X109308900Y-139936220D02*
X108140500Y-139936220D01*
X194589400Y-101097080D02*
X199644000Y-101097080D01*
X193296540Y-102389940D02*
X194589400Y-101097080D01*
X199296020Y-133055360D02*
X116189760Y-133055360D01*
X199644000Y-101097080D02*
X200408540Y-101861620D01*
X200408540Y-101861620D02*
X200408540Y-131942840D01*
X200408540Y-131942840D02*
X199296020Y-133055360D01*
%TO.N,/TRIG_9*%
X199146160Y-102389940D02*
X199750680Y-102994460D01*
X104335580Y-139936220D02*
X103060500Y-139936220D01*
X195836540Y-102389940D02*
X199146160Y-102389940D01*
X111770160Y-132501640D02*
X104335580Y-139936220D01*
X199750680Y-102994460D02*
X199750680Y-131687711D01*
X199750680Y-131687711D02*
X198936751Y-132501640D01*
X198936751Y-132501640D02*
X111770160Y-132501640D01*
%TO.N,/ECHO_6*%
X179971700Y-136715500D02*
X178645820Y-138041380D01*
X201371200Y-136715500D02*
X179971700Y-136715500D01*
X194586860Y-93479620D02*
X201554080Y-93479620D01*
X178645820Y-138041380D02*
X178645820Y-139918440D01*
X193296540Y-94769940D02*
X194586860Y-93479620D01*
X201554080Y-93479620D02*
X205259940Y-97185480D01*
X205259940Y-97185480D02*
X205259940Y-132826760D01*
X205259940Y-132826760D02*
X201371200Y-136715500D01*
%TO.N,/TRIG_6*%
X173565820Y-138496040D02*
X173565820Y-139918440D01*
X175922940Y-136138920D02*
X173565820Y-138496040D01*
X201642980Y-94769940D02*
X204416660Y-97543620D01*
X200967340Y-136138920D02*
X175922940Y-136138920D01*
X195836540Y-94769940D02*
X201642980Y-94769940D01*
X204416660Y-97543620D02*
X204416660Y-132689600D01*
X204416660Y-132689600D02*
X200967340Y-136138920D01*
%TO.N,/TRIG_7*%
X201480420Y-97309940D02*
X202580240Y-98409760D01*
X200360280Y-134927340D02*
X154985720Y-134927340D01*
X195836540Y-97309940D02*
X201480420Y-97309940D01*
X154985720Y-134927340D02*
X149956520Y-139956540D01*
X202580240Y-98409760D02*
X202580240Y-132707380D01*
X202580240Y-132707380D02*
X200360280Y-134927340D01*
%TO.N,/ECHO_7*%
X155036520Y-138790680D02*
X155036520Y-139956540D01*
X158295340Y-135531860D02*
X155036520Y-138790680D01*
X200708260Y-135531860D02*
X158295340Y-135531860D01*
X194485141Y-96121339D02*
X201968219Y-96121339D01*
X193296540Y-97309940D02*
X194485141Y-96121339D01*
X203387960Y-97541080D02*
X203387960Y-132852160D01*
X201968219Y-96121339D02*
X203387960Y-97541080D01*
X203387960Y-132852160D02*
X200708260Y-135531860D01*
%TO.N,/ECHO_8*%
X137167620Y-134360920D02*
X131587240Y-139941300D01*
X193296540Y-99209860D02*
X193941700Y-98564700D01*
X201818240Y-132646420D02*
X200103740Y-134360920D01*
X193296540Y-99849940D02*
X193296540Y-99209860D01*
X193941700Y-98564700D02*
X200830180Y-98564700D01*
X201818240Y-99552760D02*
X201818240Y-132646420D01*
X200103740Y-134360920D02*
X137167620Y-134360920D01*
X200830180Y-98564700D02*
X201818240Y-99552760D01*
%TO.N,/TRIG_8*%
X132763260Y-133685280D02*
X126507240Y-139941300D01*
X200416160Y-99849940D02*
X201091800Y-100525580D01*
X201091800Y-132415280D02*
X199821800Y-133685280D01*
X199821800Y-133685280D02*
X132763260Y-133685280D01*
X195836540Y-99849940D02*
X200416160Y-99849940D01*
X201091800Y-100525580D02*
X201091800Y-132415280D01*
%TO.N,/TRIG_5*%
X197032880Y-139141200D02*
X197032880Y-139920980D01*
X199059800Y-139920980D02*
X197032880Y-139920980D01*
X206240380Y-96867980D02*
X206240380Y-132740400D01*
X195836540Y-92229940D02*
X201602340Y-92229940D01*
X206240380Y-132740400D02*
X199059800Y-139920980D01*
X201602340Y-92229940D02*
X206240380Y-96867980D01*
%TO.N,/ECHO_5*%
X202112880Y-138770360D02*
X202112880Y-139920980D01*
X194553840Y-90972640D02*
X201604880Y-90972640D01*
X201604880Y-90972640D02*
X207213200Y-96580960D01*
X207213200Y-133670040D02*
X202112880Y-138770360D01*
X193296540Y-92229940D02*
X194553840Y-90972640D01*
X207213200Y-96580960D02*
X207213200Y-133670040D01*
%TO.N,/ECHO_2*%
X211546440Y-88905080D02*
X214017860Y-88905080D01*
X205976220Y-83334860D02*
X211546440Y-88905080D01*
X193296540Y-84609940D02*
X194571620Y-83334860D01*
X194571620Y-83334860D02*
X205976220Y-83334860D01*
%TO.N,/TRIG_2*%
X195836540Y-84609940D02*
X201889360Y-84609940D01*
X211264500Y-93985080D02*
X214017860Y-93985080D01*
X201889360Y-84609940D02*
X211264500Y-93985080D01*
%TO.N,/TRIG_3*%
X212994240Y-117581680D02*
X214012780Y-117581680D01*
X209423000Y-114010440D02*
X212994240Y-117581680D01*
X195836540Y-87149940D02*
X201536300Y-87149940D01*
X209423000Y-95036640D02*
X209423000Y-114010440D01*
X201536300Y-87149940D02*
X209423000Y-95036640D01*
%TO.N,/ECHO_3*%
X212554820Y-112501680D02*
X214012780Y-112501680D01*
X210129120Y-110075980D02*
X212554820Y-112501680D01*
X193296540Y-86499700D02*
X193939160Y-85857080D01*
X193296540Y-87149940D02*
X193296540Y-86499700D01*
X201612500Y-85857080D02*
X210129120Y-94373700D01*
X193939160Y-85857080D02*
X201612500Y-85857080D01*
X210129120Y-94373700D02*
X210129120Y-110075980D01*
%TO.N,/ECHO_4*%
X212054440Y-136194800D02*
X213837520Y-136194800D01*
X194558920Y-88427560D02*
X201615040Y-88427560D01*
X193296540Y-89689940D02*
X194558920Y-88427560D01*
X201615040Y-88427560D02*
X208767680Y-95580200D01*
X208767680Y-95580200D02*
X208767680Y-132908040D01*
X208767680Y-132908040D02*
X212054440Y-136194800D01*
%TO.N,/TRIG_4*%
X213837520Y-140855700D02*
X213837520Y-141274800D01*
X208038700Y-96184720D02*
X208038700Y-135056880D01*
X208038700Y-135056880D02*
X213837520Y-140855700D01*
X195836540Y-89689940D02*
X201543920Y-89689940D01*
X201543920Y-89689940D02*
X208038700Y-96184720D01*
D21*
%TO.N,/TRIG_1*%
X195836540Y-82069940D02*
X198094600Y-82069940D01*
X210225640Y-69938900D02*
X214063580Y-69938900D01*
X198094600Y-82069940D02*
X210225640Y-69938900D01*
%TO.N,/ECHO_1*%
X212577680Y-64858900D02*
X214063580Y-64858900D01*
X207568800Y-69867780D02*
X212577680Y-64858900D01*
X191879220Y-78709520D02*
X200720960Y-69867780D01*
X193296540Y-82069940D02*
X192455800Y-82069940D01*
X192455800Y-82069940D02*
X191879220Y-81493360D01*
X200720960Y-69867780D02*
X207568800Y-69867780D01*
X191879220Y-81493360D02*
X191879220Y-78709520D01*
%TD*%
M02*
