M48
; DRILL file {KiCad (5.1.6)-1} date 07/14/21 17:55:59
; FORMAT={-:-/ absolute / metric / decimal}
; #@! TF.CreationDate,2021-07-14T17:55:59+02:00
; #@! TF.GenerationSoftware,Kicad,Pcbnew,(5.1.6)-1
; #@! TF.FileFunction,Plated,1,2,PTH
FMAT,2
METRIC
T1C0.762
T2C0.800
T3C1.000
T4C1.016
T5C1.400
T6C1.600
%
G90
G05
T1
X147.566Y-34.869
X147.566Y-62.809
X150.106Y-34.869
X150.106Y-62.809
X152.646Y-34.869
X152.646Y-62.809
X155.186Y-34.869
X155.186Y-62.809
X157.726Y-34.869
X157.726Y-62.809
X160.266Y-34.869
X160.266Y-62.809
X162.806Y-34.869
X162.806Y-62.809
X165.346Y-34.869
X165.346Y-62.809
X167.886Y-34.869
X167.886Y-62.809
X170.426Y-34.869
X170.426Y-62.809
X172.966Y-34.869
X172.966Y-62.809
X175.506Y-34.869
X175.506Y-62.809
X178.046Y-34.869
X178.046Y-62.809
X180.586Y-34.869
X180.586Y-62.809
X183.126Y-34.869
X183.126Y-62.809
T2
X134.877Y-124.45
X134.981Y-102.786
X216.197Y-79.538
X219.586Y-79.522
X163.655Y-70.368
X166.195Y-70.368
X168.735Y-70.368
T3
X133.21Y-74.879
X135.75Y-74.879
X138.29Y-74.879
X140.83Y-74.879
X143.37Y-74.879
X145.91Y-74.879
X148.45Y-74.879
X150.99Y-74.879
X153.53Y-74.879
X156.07Y-74.879
X158.61Y-74.879
X161.15Y-74.879
X163.69Y-74.879
X166.23Y-74.879
X168.77Y-74.879
X171.31Y-74.879
X96.952Y-106.992
X96.952Y-109.532
X96.952Y-112.072
X93.284Y-107.0
X93.284Y-109.54
X93.284Y-112.08
T4
X118.113Y-79.53
X120.653Y-79.53
X123.193Y-79.53
X125.733Y-79.53
X127.257Y-127.79
X128.273Y-79.53
X129.797Y-127.79
X130.813Y-79.53
X132.337Y-127.79
X133.353Y-79.53
X134.877Y-127.79
X135.893Y-79.53
X137.417Y-127.79
X138.433Y-79.53
X139.957Y-127.79
X140.973Y-79.53
X142.497Y-127.79
X145.037Y-79.53
X145.037Y-127.79
X147.577Y-79.53
X150.117Y-79.53
X150.117Y-127.79
X152.657Y-79.53
X152.657Y-127.79
X155.197Y-79.53
X155.197Y-127.79
X157.737Y-79.53
X157.737Y-127.79
X160.277Y-79.53
X160.277Y-127.79
X162.817Y-79.53
X162.817Y-127.79
X162.944Y-99.85
X162.944Y-102.39
X162.944Y-104.93
X165.357Y-127.79
X165.484Y-99.85
X165.484Y-102.39
X165.484Y-104.93
X167.897Y-79.53
X167.897Y-127.79
X170.437Y-79.53
X172.977Y-79.53
X172.977Y-127.79
X175.517Y-79.53
X175.517Y-127.79
X178.057Y-79.53
X178.057Y-127.79
X180.597Y-79.53
X180.597Y-127.79
X183.137Y-79.53
X183.137Y-127.79
X185.677Y-79.53
X185.677Y-127.79
X188.217Y-127.79
X190.757Y-127.79
X193.297Y-79.53
X193.297Y-82.07
X193.297Y-84.61
X193.297Y-87.15
X193.297Y-89.69
X193.297Y-92.23
X193.297Y-94.77
X193.297Y-97.31
X193.297Y-99.85
X193.297Y-102.39
X193.297Y-104.93
X193.297Y-107.47
X193.297Y-110.01
X193.297Y-112.55
X193.297Y-115.09
X193.297Y-117.63
X193.297Y-120.17
X193.297Y-122.71
X195.837Y-79.53
X195.837Y-82.07
X195.837Y-84.61
X195.837Y-87.15
X195.837Y-89.69
X195.837Y-92.23
X195.837Y-94.77
X195.837Y-97.31
X195.837Y-99.85
X195.837Y-102.39
X195.837Y-104.93
X195.837Y-107.47
X195.837Y-110.01
X195.837Y-112.55
X195.837Y-115.09
X195.837Y-117.63
X195.837Y-120.17
X195.837Y-122.71
T5
X80.884Y-63.828
X80.884Y-68.908
X80.884Y-73.988
X80.884Y-79.068
X80.884Y-84.148
X80.884Y-89.228
X80.884Y-94.308
X106.009Y-70.267
X111.089Y-70.267
X116.169Y-70.267
X80.886Y-102.791
X80.886Y-107.871
X80.886Y-112.951
X80.886Y-118.031
X80.886Y-123.111
X80.886Y-128.191
X80.886Y-133.271
X214.064Y-59.779
X214.064Y-64.859
X214.064Y-69.939
X214.064Y-75.019
X201.935Y-66.228
X207.015Y-66.228
X74.308Y-139.901
X79.388Y-139.901
X84.468Y-139.901
X89.548Y-139.901
X121.427Y-139.941
X126.507Y-139.941
X131.587Y-139.941
X136.667Y-139.941
X214.013Y-107.422
X214.013Y-112.502
X214.013Y-117.582
X214.013Y-122.662
X144.877Y-139.957
X149.957Y-139.957
X155.037Y-139.957
X160.117Y-139.957
X87.584Y-70.279
X92.664Y-70.279
X97.744Y-70.279
X97.98Y-139.936
X103.06Y-139.936
X108.14Y-139.936
X113.221Y-139.936
X214.018Y-83.825
X214.018Y-88.905
X214.018Y-93.985
X214.018Y-99.065
X168.486Y-139.918
X173.566Y-139.918
X178.646Y-139.918
X183.726Y-139.918
X213.838Y-131.115
X213.838Y-136.195
X213.838Y-141.275
X213.838Y-146.355
X191.953Y-139.921
X197.033Y-139.921
X202.113Y-139.921
X207.193Y-139.921
T6
X87.945Y-76.375
X87.945Y-91.615
T3
G00X122.607Y-64.694
M15
G01X122.607Y-66.694
M16
G05
G00X128.307Y-62.694
M15
G01X126.307Y-62.694
M16
G05
G00X128.307Y-68.694
M15
G01X126.307Y-68.694
M16
G05
T0
M30
