%FSLAX45Y45*%
G04 Gerber Fmt 4.5, Leading zero omitted, Abs format (unit mm)*
G04 Created by KiCad (PCBNEW (5.1.6)-1) date 2021-07-14 17:55:59*
%MOMM*%
%LPD*%
G01*
G04 APERTURE LIST*
%TA.AperFunction,Profile*%
%ADD10C,0.300000*%
%TD*%
%ADD11C,0.200000*%
%ADD12C,0.300000*%
G04 APERTURE END LIST*
D10*
X18113502Y-15105888D02*
X22503384Y-15105888D01*
D11*
X11168654Y-12618994D02*
X11488654Y-12938994D01*
X11488654Y-12618994D02*
X11168654Y-12938994D01*
X11295654Y-7792994D02*
X11615654Y-8112994D01*
X11615654Y-7792994D02*
X11295654Y-8112994D01*
X16375654Y-9316994D02*
X16695654Y-9636994D01*
X16695654Y-9316994D02*
X16375654Y-9636994D01*
X16375654Y-12110994D02*
X16695654Y-12430994D01*
X16695654Y-12110994D02*
X16375654Y-12430994D01*
X18788654Y-7792994D02*
X19108654Y-8112994D01*
X19108654Y-7792994D02*
X18788654Y-8112994D01*
X19423654Y-12618994D02*
X19743654Y-12938994D01*
X19743654Y-12618994D02*
X19423654Y-12938994D01*
D12*
X18384930Y-15586602D02*
X18384930Y-15286602D01*
X18456359Y-15286602D01*
X18499216Y-15300888D01*
X18527788Y-15329459D01*
X18542073Y-15358031D01*
X18556359Y-15415174D01*
X18556359Y-15458031D01*
X18542073Y-15515174D01*
X18527788Y-15543745D01*
X18499216Y-15572317D01*
X18456359Y-15586602D01*
X18384930Y-15586602D01*
X18684930Y-15586602D02*
X18684930Y-15386602D01*
X18684930Y-15443745D02*
X18699216Y-15415174D01*
X18713502Y-15400888D01*
X18742073Y-15386602D01*
X18770645Y-15386602D01*
X18870645Y-15586602D02*
X18870645Y-15386602D01*
X18870645Y-15286602D02*
X18856359Y-15300888D01*
X18870645Y-15315174D01*
X18884930Y-15300888D01*
X18870645Y-15286602D01*
X18870645Y-15315174D01*
X19056359Y-15586602D02*
X19027788Y-15572317D01*
X19013502Y-15543745D01*
X19013502Y-15286602D01*
X19213502Y-15586602D02*
X19184930Y-15572317D01*
X19170645Y-15543745D01*
X19170645Y-15286602D01*
X19556359Y-15586602D02*
X19556359Y-15286602D01*
X19656359Y-15500888D01*
X19756359Y-15286602D01*
X19756359Y-15586602D01*
X20027788Y-15586602D02*
X20027788Y-15429459D01*
X20013502Y-15400888D01*
X19984930Y-15386602D01*
X19927788Y-15386602D01*
X19899216Y-15400888D01*
X20027788Y-15572317D02*
X19999216Y-15586602D01*
X19927788Y-15586602D01*
X19899216Y-15572317D01*
X19884930Y-15543745D01*
X19884930Y-15515174D01*
X19899216Y-15486602D01*
X19927788Y-15472317D01*
X19999216Y-15472317D01*
X20027788Y-15458031D01*
X20170645Y-15386602D02*
X20170645Y-15686602D01*
X20170645Y-15400888D02*
X20199216Y-15386602D01*
X20256359Y-15386602D01*
X20284930Y-15400888D01*
X20299216Y-15415174D01*
X20313502Y-15443745D01*
X20313502Y-15529459D01*
X20299216Y-15558031D01*
X20284930Y-15572317D01*
X20256359Y-15586602D01*
X20199216Y-15586602D01*
X20170645Y-15572317D01*
X20442073Y-15558031D02*
X20456359Y-15572317D01*
X20442073Y-15586602D01*
X20427788Y-15572317D01*
X20442073Y-15558031D01*
X20442073Y-15586602D01*
X20442073Y-15400888D02*
X20456359Y-15415174D01*
X20442073Y-15429459D01*
X20427788Y-15415174D01*
X20442073Y-15400888D01*
X20442073Y-15429459D01*
X17778502Y-15920888D02*
X18098502Y-16240888D01*
X18098502Y-15920888D02*
X17778502Y-16240888D01*
X18356359Y-15916602D02*
X18542073Y-15916602D01*
X18442073Y-16030888D01*
X18484930Y-16030888D01*
X18513502Y-16045174D01*
X18527788Y-16059459D01*
X18542073Y-16088031D01*
X18542073Y-16159459D01*
X18527788Y-16188031D01*
X18513502Y-16202317D01*
X18484930Y-16216602D01*
X18399216Y-16216602D01*
X18370645Y-16202317D01*
X18356359Y-16188031D01*
X18670645Y-16188031D02*
X18684930Y-16202317D01*
X18670645Y-16216602D01*
X18656359Y-16202317D01*
X18670645Y-16188031D01*
X18670645Y-16216602D01*
X18799216Y-15945174D02*
X18813502Y-15930888D01*
X18842073Y-15916602D01*
X18913502Y-15916602D01*
X18942073Y-15930888D01*
X18956359Y-15945174D01*
X18970645Y-15973745D01*
X18970645Y-16002317D01*
X18956359Y-16045174D01*
X18784930Y-16216602D01*
X18970645Y-16216602D01*
X19156359Y-15916602D02*
X19184930Y-15916602D01*
X19213502Y-15930888D01*
X19227788Y-15945174D01*
X19242073Y-15973745D01*
X19256359Y-16030888D01*
X19256359Y-16102317D01*
X19242073Y-16159459D01*
X19227788Y-16188031D01*
X19213502Y-16202317D01*
X19184930Y-16216602D01*
X19156359Y-16216602D01*
X19127788Y-16202317D01*
X19113502Y-16188031D01*
X19099216Y-16159459D01*
X19084930Y-16102317D01*
X19084930Y-16030888D01*
X19099216Y-15973745D01*
X19113502Y-15945174D01*
X19127788Y-15930888D01*
X19156359Y-15916602D01*
X19384930Y-16216602D02*
X19384930Y-16016602D01*
X19384930Y-16045174D02*
X19399216Y-16030888D01*
X19427788Y-16016602D01*
X19470645Y-16016602D01*
X19499216Y-16030888D01*
X19513502Y-16059459D01*
X19513502Y-16216602D01*
X19513502Y-16059459D02*
X19527788Y-16030888D01*
X19556359Y-16016602D01*
X19599216Y-16016602D01*
X19627788Y-16030888D01*
X19642073Y-16059459D01*
X19642073Y-16216602D01*
X19784930Y-16216602D02*
X19784930Y-16016602D01*
X19784930Y-16045174D02*
X19799216Y-16030888D01*
X19827788Y-16016602D01*
X19870645Y-16016602D01*
X19899216Y-16030888D01*
X19913502Y-16059459D01*
X19913502Y-16216602D01*
X19913502Y-16059459D02*
X19927788Y-16030888D01*
X19956359Y-16016602D01*
X19999216Y-16016602D01*
X20027788Y-16030888D01*
X20042073Y-16059459D01*
X20042073Y-16216602D01*
X20627788Y-15902317D02*
X20370645Y-16288031D01*
X21013502Y-15916602D02*
X21042073Y-15916602D01*
X21070645Y-15930888D01*
X21084930Y-15945174D01*
X21099216Y-15973745D01*
X21113502Y-16030888D01*
X21113502Y-16102317D01*
X21099216Y-16159459D01*
X21084930Y-16188031D01*
X21070645Y-16202317D01*
X21042073Y-16216602D01*
X21013502Y-16216602D01*
X20984930Y-16202317D01*
X20970645Y-16188031D01*
X20956359Y-16159459D01*
X20942073Y-16102317D01*
X20942073Y-16030888D01*
X20956359Y-15973745D01*
X20970645Y-15945174D01*
X20984930Y-15930888D01*
X21013502Y-15916602D01*
X21242073Y-16188031D02*
X21256359Y-16202317D01*
X21242073Y-16216602D01*
X21227788Y-16202317D01*
X21242073Y-16188031D01*
X21242073Y-16216602D01*
X21542073Y-16216602D02*
X21370645Y-16216602D01*
X21456359Y-16216602D02*
X21456359Y-15916602D01*
X21427788Y-15959459D01*
X21399216Y-15988031D01*
X21370645Y-16002317D01*
X21656359Y-15945174D02*
X21670645Y-15930888D01*
X21699216Y-15916602D01*
X21770645Y-15916602D01*
X21799216Y-15930888D01*
X21813502Y-15945174D01*
X21827788Y-15973745D01*
X21827788Y-16002317D01*
X21813502Y-16045174D01*
X21642073Y-16216602D01*
X21827788Y-16216602D01*
X22084930Y-15916602D02*
X22027788Y-15916602D01*
X21999216Y-15930888D01*
X21984930Y-15945174D01*
X21956359Y-15988031D01*
X21942073Y-16045174D01*
X21942073Y-16159459D01*
X21956359Y-16188031D01*
X21970645Y-16202317D01*
X21999216Y-16216602D01*
X22056359Y-16216602D01*
X22084930Y-16202317D01*
X22099216Y-16188031D01*
X22113502Y-16159459D01*
X22113502Y-16088031D01*
X22099216Y-16059459D01*
X22084930Y-16045174D01*
X22056359Y-16030888D01*
X21999216Y-16030888D01*
X21970645Y-16045174D01*
X21956359Y-16059459D01*
X21942073Y-16088031D01*
X22227788Y-15916602D02*
X22227788Y-15973745D01*
X22342073Y-15916602D02*
X22342073Y-15973745D01*
X22784930Y-16330888D02*
X22770645Y-16316602D01*
X22742073Y-16273745D01*
X22727788Y-16245174D01*
X22713502Y-16202317D01*
X22699216Y-16130888D01*
X22699216Y-16073745D01*
X22713502Y-16002317D01*
X22727788Y-15959459D01*
X22742073Y-15930888D01*
X22770645Y-15888031D01*
X22784930Y-15873745D01*
X23027788Y-15916602D02*
X22970645Y-15916602D01*
X22942073Y-15930888D01*
X22927788Y-15945174D01*
X22899216Y-15988031D01*
X22884930Y-16045174D01*
X22884930Y-16159459D01*
X22899216Y-16188031D01*
X22913502Y-16202317D01*
X22942073Y-16216602D01*
X22999216Y-16216602D01*
X23027788Y-16202317D01*
X23042073Y-16188031D01*
X23056359Y-16159459D01*
X23056359Y-16088031D01*
X23042073Y-16059459D01*
X23027788Y-16045174D01*
X22999216Y-16030888D01*
X22942073Y-16030888D01*
X22913502Y-16045174D01*
X22899216Y-16059459D01*
X22884930Y-16088031D01*
X23413502Y-16216602D02*
X23413502Y-15916602D01*
X23542073Y-16216602D02*
X23542073Y-16059459D01*
X23527788Y-16030888D01*
X23499216Y-16016602D01*
X23456359Y-16016602D01*
X23427788Y-16030888D01*
X23413502Y-16045174D01*
X23727788Y-16216602D02*
X23699216Y-16202317D01*
X23684930Y-16188031D01*
X23670645Y-16159459D01*
X23670645Y-16073745D01*
X23684930Y-16045174D01*
X23699216Y-16030888D01*
X23727788Y-16016602D01*
X23770645Y-16016602D01*
X23799216Y-16030888D01*
X23813502Y-16045174D01*
X23827788Y-16073745D01*
X23827788Y-16159459D01*
X23813502Y-16188031D01*
X23799216Y-16202317D01*
X23770645Y-16216602D01*
X23727788Y-16216602D01*
X23999216Y-16216602D02*
X23970645Y-16202317D01*
X23956359Y-16173745D01*
X23956359Y-15916602D01*
X24227788Y-16202317D02*
X24199216Y-16216602D01*
X24142073Y-16216602D01*
X24113502Y-16202317D01*
X24099216Y-16173745D01*
X24099216Y-16059459D01*
X24113502Y-16030888D01*
X24142073Y-16016602D01*
X24199216Y-16016602D01*
X24227788Y-16030888D01*
X24242073Y-16059459D01*
X24242073Y-16088031D01*
X24099216Y-16116602D01*
X24356359Y-16202317D02*
X24384930Y-16216602D01*
X24442073Y-16216602D01*
X24470645Y-16202317D01*
X24484930Y-16173745D01*
X24484930Y-16159459D01*
X24470645Y-16130888D01*
X24442073Y-16116602D01*
X24399216Y-16116602D01*
X24370645Y-16102317D01*
X24356359Y-16073745D01*
X24356359Y-16059459D01*
X24370645Y-16030888D01*
X24399216Y-16016602D01*
X24442073Y-16016602D01*
X24470645Y-16030888D01*
X24584930Y-16330888D02*
X24599216Y-16316602D01*
X24627788Y-16273745D01*
X24642073Y-16245174D01*
X24656359Y-16202317D01*
X24670645Y-16130888D01*
X24670645Y-16073745D01*
X24656359Y-16002317D01*
X24642073Y-15959459D01*
X24627788Y-15930888D01*
X24599216Y-15888031D01*
X24584930Y-15873745D01*
X25127788Y-16330888D02*
X25113502Y-16316602D01*
X25084930Y-16273745D01*
X25070645Y-16245174D01*
X25056359Y-16202317D01*
X25042073Y-16130888D01*
X25042073Y-16073745D01*
X25056359Y-16002317D01*
X25070645Y-15959459D01*
X25084930Y-15930888D01*
X25113502Y-15888031D01*
X25127788Y-15873745D01*
X25242073Y-16016602D02*
X25242073Y-16216602D01*
X25242073Y-16045174D02*
X25256359Y-16030888D01*
X25284930Y-16016602D01*
X25327788Y-16016602D01*
X25356359Y-16030888D01*
X25370645Y-16059459D01*
X25370645Y-16216602D01*
X25556359Y-16216602D02*
X25527788Y-16202317D01*
X25513502Y-16188031D01*
X25499216Y-16159459D01*
X25499216Y-16073745D01*
X25513502Y-16045174D01*
X25527788Y-16030888D01*
X25556359Y-16016602D01*
X25599216Y-16016602D01*
X25627788Y-16030888D01*
X25642073Y-16045174D01*
X25656359Y-16073745D01*
X25656359Y-16159459D01*
X25642073Y-16188031D01*
X25627788Y-16202317D01*
X25599216Y-16216602D01*
X25556359Y-16216602D01*
X25742073Y-16016602D02*
X25856359Y-16016602D01*
X25784930Y-15916602D02*
X25784930Y-16173745D01*
X25799216Y-16202317D01*
X25827788Y-16216602D01*
X25856359Y-16216602D01*
X26184930Y-16016602D02*
X26184930Y-16316602D01*
X26184930Y-16030888D02*
X26213502Y-16016602D01*
X26270645Y-16016602D01*
X26299216Y-16030888D01*
X26313502Y-16045174D01*
X26327788Y-16073745D01*
X26327788Y-16159459D01*
X26313502Y-16188031D01*
X26299216Y-16202317D01*
X26270645Y-16216602D01*
X26213502Y-16216602D01*
X26184930Y-16202317D01*
X26499216Y-16216602D02*
X26470645Y-16202317D01*
X26456359Y-16173745D01*
X26456359Y-15916602D01*
X26742073Y-16216602D02*
X26742073Y-16059459D01*
X26727788Y-16030888D01*
X26699216Y-16016602D01*
X26642073Y-16016602D01*
X26613502Y-16030888D01*
X26742073Y-16202317D02*
X26713502Y-16216602D01*
X26642073Y-16216602D01*
X26613502Y-16202317D01*
X26599216Y-16173745D01*
X26599216Y-16145174D01*
X26613502Y-16116602D01*
X26642073Y-16102317D01*
X26713502Y-16102317D01*
X26742073Y-16088031D01*
X26842073Y-16016602D02*
X26956359Y-16016602D01*
X26884930Y-15916602D02*
X26884930Y-16173745D01*
X26899216Y-16202317D01*
X26927788Y-16216602D01*
X26956359Y-16216602D01*
X27170645Y-16202317D02*
X27142073Y-16216602D01*
X27084930Y-16216602D01*
X27056359Y-16202317D01*
X27042073Y-16173745D01*
X27042073Y-16059459D01*
X27056359Y-16030888D01*
X27084930Y-16016602D01*
X27142073Y-16016602D01*
X27170645Y-16030888D01*
X27184930Y-16059459D01*
X27184930Y-16088031D01*
X27042073Y-16116602D01*
X27442073Y-16216602D02*
X27442073Y-15916602D01*
X27442073Y-16202317D02*
X27413502Y-16216602D01*
X27356359Y-16216602D01*
X27327788Y-16202317D01*
X27313502Y-16188031D01*
X27299216Y-16159459D01*
X27299216Y-16073745D01*
X27313502Y-16045174D01*
X27327788Y-16030888D01*
X27356359Y-16016602D01*
X27413502Y-16016602D01*
X27442073Y-16030888D01*
X27556359Y-16330888D02*
X27570645Y-16316602D01*
X27599216Y-16273745D01*
X27613502Y-16245174D01*
X27627788Y-16202317D01*
X27642073Y-16130888D01*
X27642073Y-16073745D01*
X27627788Y-16002317D01*
X27613502Y-15959459D01*
X27599216Y-15930888D01*
X27570645Y-15888031D01*
X27556359Y-15873745D01*
M02*
